<svg xmlns="http://www.w3.org/2000/svg" width="367.606" height="474.468"><path style="stroke:#c379d2;stroke-width:3px;fill:none;" d="M63 45 L63 45 L70 50 L77 54 L84 58 L91 62 L98 66 L105 70 L112 74 L119 78 L126 82 L133 86 L140 90 L144 96 L147 104 L147 112 L155 112 L163 112 L171 112 L179 112 L187 112 L195 112 L203 112 L204 102 L210 96 L220 96 L227 102 L227 112 L235 112 L243 112 L253 112 L261 112 L269 112 L277 112 L282 105 L290 101 L299 100 L307 103 L314 110 L317 118 L317 127 L314 135 L307 141 L299 144 L290 143 L282 139 L277 132 L269 132 L261 132 L253 132 L252 140 L244 140 L243 132 L235 132 L227 132 L223 140 L215 143 L207 140 L203 132 L195 132 L187 132 L179 132 L171 132 L163 132 L159 139 L155 132 L147 132 L138 139 L137 147 L135 155 L134 163 L132 170 L131 178 L129 186 L132 195 L133 204 L133 213 L132 222 L129 230 L129 234 L126 250 L125 254 L127 258 L132 273 L133 277 L127 282 L127 290 L135 292 L142 294 L149 298 L156 302 L162 307 L168 313 L172 319 L176 326 L180 333 L182 340 L184 348 L184 356 L184 364 L182 372 L180 379 L177 386 L173 393 L169 400 L163 405 L157 411 L151 415 L144 418 L136 421 L129 423 L121 424 L113 424 L105 423 L97 421 L90 418 L83 415 L76 411 L70 405 L65 400 L60 393 L56 386 L53 379 L51 372 L50 364 L50 356 L50 348 L52 340 L54 333 L57 326 L61 319 L66 313 L72 307 L78 302 L84 298 L92 294 L99 292 L107 290 L107 282 L99 284"/></svg>