<svg xmlns="http://www.w3.org/2000/svg" width="360.257" height="467.862"><path style="stroke:#381f93;stroke-width:3px;fill:none;" d="M56 45 L56 45 L63 50 L70 54 L77 58 L84 62 L91 66 L98 70 L105 74 L111 78 L118 82 L125 86 L132 90 L137 96 L139 104 L140 112 L148 112 L156 112 L164 112 L172 112 L180 112 L188 112 L196 112 L196 102 L203 96 L212 96 L219 102 L220 112 L228 112 L236 112 L246 112 L254 112 L262 112 L270 112 L275 105 L283 101 L292 100 L300 103 L307 110 L310 118 L310 127 L307 135 L300 141 L292 144 L283 143 L275 139 L270 132 L262 132 L254 132 L246 132 L245 140 L237 140 L236 132 L228 132 L220 132 L216 140 L208 143 L200 140 L196 132 L188 132 L180 132 L172 132 L164 132 L156 132 L151 139 L148 132 L140 132 L131 139 L129 147 L128 155 L126 163 L125 170 L123 178 L122 186 L125 195 L126 204 L126 213 L125 222 L122 230 L121 234 L119 250 L118 254 L119 258 L124 273 L126 277 L122 284 L119 291 L119 299 L126 301 L134 304 L141 308 L147 312 L153 318 L158 324 L162 331 L165 338 L167 346 L168 353 L168 361 L167 369 L165 377 L162 384 L159 391 L154 397 L148 402 L142 407 L135 411 L128 414 L121 416 L113 417 L105 417 L97 416 L90 414 L82 411 L76 407 L69 402 L64 397 L59 391 L55 384 L52 377 L50 369 L50 361 L50 353 L51 346 L53 338 L56 331 L60 324 L65 318 L71 312 L77 308 L84 304 L91 301 L99 299 L99 291 L91 294"/></svg>