<svg xmlns="http://www.w3.org/2000/svg" width="320.98" height="393.358"><path style="stroke:#3a5378;stroke-width:3px;fill:none;" d="M79 50 L79 50 L79 57 L79 65 L79 73 L79 81 L79 89 L79 97 L79 105 L79 113 L79 121 L82 122 L85 124 L88 125 L90 126 L93 128 L94 130 L96 133 L98 135 L99 138 L100 141 L100 144 L100 147 L100 149 L108 149 L116 149 L124 149 L132 149 L140 149 L148 149 L156 149 L159 142 L165 137 L172 137 L178 142 L180 150 L188 149 L196 149 L206 149 L214 149 L222 149 L230 149 L235 142 L243 138 L252 137 L260 140 L267 147 L270 155 L270 164 L267 172 L260 178 L252 181 L243 180 L235 176 L230 169 L222 169 L214 169 L206 169 L205 178 L197 178 L196 169 L188 169 L180 169 L176 176 L169 178 L161 176 L156 169 L148 169 L140 169 L132 169 L124 169 L116 169 L112 177 L108 169 L100 169 L91 176 L79 180 L79 188 L79 196 L79 204 L79 212 L83 220 L86 229 L87 238 L87 247 L86 256 L83 264 L79 272 L79 280 L79 288 L79 296 L79 304 L86 307 L79 312 L79 320 L79 328 L80 337 L74 343 L65 343 L59 337 L59 328 L59 320 L59 312 L59 304 L59 296 L59 288 L59 280 L59 272 L54 263 L51 253 L50 243 L51 232 L54 222 L59 212 L59 204 L59 196 L59 188 L59 180 L50 174 L59 121 L59 113 L59 105 L59 97 L59 89 L59 81 L59 73 L59 65 L59 57 L59 50 L60 42"/></svg>