<svg xmlns="http://www.w3.org/2000/svg" width="341.609" height="414.986"><path style="stroke:#2e862d;stroke-width:3px;fill:none;" d="M100 50 L100 50 L100 57 L100 65 L100 73 L100 81 L106 82 L110 87 L106 93 L100 93 L100 101 L107 104 L113 108 L118 115 L121 122 L121 129 L129 129 L137 129 L145 129 L153 129 L161 129 L169 129 L177 129 L179 122 L185 117 L193 117 L199 122 L201 130 L209 129 L217 129 L227 129 L235 129 L243 129 L251 129 L256 122 L264 118 L273 117 L281 120 L288 127 L291 135 L291 144 L288 152 L281 158 L273 161 L264 160 L256 156 L251 149 L243 149 L235 149 L227 149 L226 158 L218 158 L217 149 L209 149 L201 149 L197 156 L189 158 L182 156 L177 149 L169 149 L161 149 L153 149 L145 149 L137 149 L133 157 L129 149 L121 149 L112 156 L100 160 L100 168 L100 176 L100 184 L100 192 L104 200 L107 209 L108 218 L108 227 L107 236 L104 244 L100 252 L100 260 L100 268 L100 276 L100 284 L107 287 L114 291 L120 296 L125 303 L128 310 L130 317 L131 325 L130 333 L127 340 L123 347 L118 353 L112 358 L105 362 L98 364 L90 364 L82 364 L75 362 L68 358 L62 353 L57 347 L53 340 L50 333 L50 325 L50 317 L52 310 L55 303 L60 296 L66 291 L73 287 L80 284 L80 276 L80 268 L80 260 L80 252 L75 243 L71 233 L70 223 L71 212 L75 202 L80 192 L80 184 L80 176 L80 168 L80 160 L71 154 L80 101 L80 93 L80 81 L80 73 L80 65 L80 57 L80 50 L81 42"/></svg>