<svg xmlns="http://www.w3.org/2000/svg" width="357.362" height="455.351"><path style="stroke:#c587ad;stroke-width:3px;fill:none;" d="M53 45 L53 45 L60 50 L67 54 L74 58 L81 62 L88 66 L95 70 L102 74 L109 78 L115 82 L122 86 L129 90 L134 96 L136 104 L137 112 L145 112 L153 112 L161 112 L169 112 L177 112 L185 112 L193 112 L194 103 L201 98 L209 98 L216 103 L217 112 L225 112 L233 112 L243 112 L251 112 L259 112 L267 112 L272 105 L280 101 L289 100 L297 103 L304 110 L307 118 L307 127 L304 135 L297 141 L289 144 L280 143 L272 139 L267 132 L259 132 L251 132 L243 132 L242 140 L234 140 L233 132 L225 132 L217 132 L212 138 L205 141 L197 138 L193 132 L185 132 L177 132 L169 132 L161 132 L153 132 L148 139 L145 132 L137 132 L128 139 L126 147 L125 155 L123 163 L122 170 L120 178 L119 186 L122 195 L123 204 L123 213 L122 222 L119 230 L118 234 L116 250 L115 254 L115 262 L115 270 L122 273 L115 278 L115 286 L115 294 L123 296 L130 299 L137 303 L143 308 L148 314 L153 320 L157 327 L159 335 L161 342 L161 350 L160 358 L158 366 L156 373 L152 380 L147 386 L141 392 L135 396 L128 400 L121 403 L113 404 L105 405 L97 404 L90 403 L82 400 L75 396 L69 392 L63 386 L59 380 L55 373 L52 366 L50 358 L50 350 L50 342 L51 335 L54 327 L58 320 L62 314 L67 308 L74 303 L80 299 L88 296 L95 294 L95 286 L95 278 L95 270 L88 273"/></svg>