<svg xmlns="http://www.w3.org/2000/svg" width="325.945" height="415.638"><path style="stroke:#2d864a;stroke-width:3px;fill:none;" d="M84 50 L84 50 L84 57 L84 65 L84 73 L84 81 L84 89 L84 97 L84 105 L84 113 L84 121 L92 124 L98 128 L102 135 L105 142 L105 149 L113 149 L121 149 L129 149 L137 149 L145 149 L153 149 L161 149 L162 140 L169 134 L178 134 L185 140 L185 150 L193 149 L201 149 L211 149 L219 149 L227 149 L235 149 L240 142 L248 138 L257 137 L265 140 L272 147 L275 155 L275 164 L272 172 L265 178 L257 181 L248 180 L240 176 L235 169 L227 169 L219 169 L211 169 L210 178 L202 178 L201 169 L193 169 L185 169 L182 178 L173 181 L165 178 L161 169 L153 169 L145 169 L137 169 L129 169 L121 169 L117 177 L113 169 L105 169 L109 175 L109 182 L106 188 L100 192 L93 191 L87 187 L84 180 L84 188 L84 196 L84 204 L84 212 L88 220 L91 229 L92 238 L92 247 L91 256 L88 264 L84 272 L84 280 L84 290 L84 299 L84 307 L91 310 L84 315 L84 323 L84 331 L90 336 L93 343 L93 350 L90 357 L85 362 L78 365 L71 365 L64 362 L59 357 L56 350 L56 343 L59 336 L64 331 L64 323 L64 315 L64 307 L64 299 L58 300 L52 296 L50 290 L52 283 L58 280 L64 280 L64 272 L59 263 L56 253 L54 243 L56 232 L59 222 L64 212 L64 204 L64 196 L64 188 L64 180 L55 174 L64 121 L64 113 L64 105 L64 97 L64 89 L64 81 L64 73 L64 65 L64 57 L64 50 L65 42"/></svg>