<svg xmlns="http://www.w3.org/2000/svg" width="356.575" height="461.111"><path style="stroke:#bf40b0;stroke-width:3px;fill:none;" d="M52 45 L52 45 L59 50 L66 54 L73 58 L80 62 L87 66 L94 70 L101 74 L108 78 L115 82 L122 86 L129 90 L133 96 L136 104 L136 112 L144 112 L152 112 L160 112 L168 112 L176 112 L184 112 L192 112 L193 103 L200 98 L208 98 L215 103 L216 112 L224 112 L232 112 L242 112 L250 112 L258 112 L266 112 L271 105 L279 101 L288 100 L296 103 L303 110 L306 118 L306 127 L303 135 L296 141 L288 144 L279 143 L271 139 L266 132 L258 132 L250 132 L242 132 L241 140 L233 140 L232 132 L224 132 L216 132 L212 138 L204 141 L197 138 L192 132 L184 132 L176 132 L168 132 L160 132 L152 132 L148 139 L144 132 L136 132 L127 139 L126 147 L124 155 L123 163 L121 170 L120 178 L118 186 L121 195 L122 204 L122 213 L121 222 L118 230 L118 234 L115 250 L114 254 L116 258 L121 273 L122 277 L121 281 L116 296 L115 300 L123 302 L130 305 L137 309 L143 314 L148 320 L153 326 L157 333 L159 340 L161 348 L161 356 L160 364 L158 371 L156 379 L152 386 L147 392 L141 397 L135 402 L128 406 L121 408 L113 410 L105 411 L97 410 L90 408 L82 406 L75 402 L69 397 L63 392 L59 386 L55 379 L52 371 L50 364 L50 356 L50 348 L51 340 L54 333 L58 326 L62 320 L67 314 L74 309 L80 305 L88 302 L95 300 L87 301"/></svg>