<svg xmlns="http://www.w3.org/2000/svg" width="337.543" height="440.267"><path style="stroke:#878ec5;stroke-width:3px;fill:none;" d="M96 50 L96 50 L96 57 L96 65 L100 70 L96 74 L96 82 L96 90 L96 98 L96 106 L96 114 L103 117 L109 120 L114 128 L117 135 L117 142 L125 142 L133 142 L141 142 L149 142 L157 142 L165 142 L173 142 L174 133 L180 126 L190 126 L197 133 L197 142 L205 142 L213 142 L223 142 L231 142 L239 142 L247 142 L252 135 L260 131 L269 130 L277 133 L284 140 L287 148 L287 157 L284 165 L277 171 L269 174 L260 173 L252 169 L247 162 L239 162 L231 162 L223 162 L222 170 L214 170 L213 162 L205 162 L197 162 L193 170 L185 174 L177 170 L173 162 L165 162 L157 162 L149 162 L141 162 L133 162 L129 169 L125 162 L117 162 L108 169 L96 173 L96 181 L96 189 L96 197 L96 205 L100 213 L102 222 L104 231 L104 240 L103 249 L100 257 L96 265 L96 273 L97 280 L96 286 L96 294 L102 297 L96 302 L96 310 L96 318 L103 321 L110 326 L115 331 L119 338 L122 345 L123 353 L122 360 L120 368 L116 375 L111 380 L105 385 L97 388 L90 390 L82 390 L75 388 L68 385 L61 380 L56 375 L52 368 L50 360 L50 353 L50 345 L53 338 L57 331 L62 326 L69 321 L76 318 L76 310 L76 302 L76 294 L76 286 L70 283 L70 277 L76 273 L76 265 L71 256 L67 246 L66 235 L67 225 L71 214 L76 205 L76 197 L76 189 L76 181 L76 173 L67 167 L76 114 L76 106 L76 98 L76 90 L76 82 L76 74 L76 65 L76 57 L76 50 L77 42"/></svg>