<svg xmlns="http://www.w3.org/2000/svg" width="741.029" height="357.116"><path style="stroke:#9887c5;stroke-width:3px;fill:none;" d="M437 45 L437 45 L444 50 L451 54 L458 58 L465 62 L471 66 L478 70 L485 74 L492 78 L499 82 L506 86 L513 90 L517 96 L520 104 L521 112 L529 112 L537 112 L545 112 L553 112 L561 112 L569 112 L577 112 L579 104 L585 100 L592 100 L598 104 L601 112 L609 112 L617 112 L627 112 L635 112 L643 112 L651 112 L656 105 L664 101 L673 100 L681 103 L688 110 L691 118 L691 127 L688 135 L681 141 L673 144 L664 143 L656 139 L651 132 L643 132 L635 132 L627 132 L626 140 L618 140 L617 132 L609 132 L601 132 L596 138 L589 140 L581 138 L577 132 L569 132 L561 132 L553 132 L545 132 L537 132 L532 139 L529 132 L521 132 L514 137 L513 145 L511 153 L510 160 L508 168 L507 176 L505 184 L508 192 L509 200 L509 208 L508 215 L505 223 L504 231 L503 239 L502 247 L504 254 L507 262 L509 270 L508 277 L506 285 L505 293 L503 301 L497 307 L489 307 L481 307 L473 307 L465 307 L457 307 L449 307 L441 306 L433 306 L425 306 L417 306 L409 306 L401 306 L393 306 L385 306 L377 306 L369 306 L361 306 L353 306 L345 306 L337 306 L329 306 L321 306 L313 306 L305 306 L297 306 L289 306 L281 306 L273 306 L265 306 L257 306 L249 306 L241 306 L233 306 L225 306 L217 306 L209 306 L201 306 L193 306 L185 306 L177 306 L169 306 L161 306 L153 306 L145 306 L137 306 L129 306 L121 306 L113 306 L105 306 L97 306 L89 306 L81 306 L73 306 L65 306 L57 306 L50 306 L42 306"/></svg>