<svg xmlns="http://www.w3.org/2000/svg" width="518.791" height="583.901"><path style="stroke:#6d783a;stroke-width:3px;fill:none;" d="M215 45 L215 45 L222 50 L229 54 L235 58 L242 62 L249 66 L256 70 L263 74 L270 78 L277 82 L284 86 L291 90 L295 96 L298 104 L298 112 L306 112 L314 112 L322 112 L330 112 L338 112 L346 112 L354 112 L356 104 L362 100 L370 100 L376 104 L378 112 L386 112 L394 112 L404 112 L412 112 L420 112 L428 112 L433 105 L441 101 L450 100 L458 103 L465 110 L468 118 L468 127 L465 135 L458 141 L450 144 L441 143 L433 139 L428 132 L420 132 L412 132 L404 132 L403 140 L395 140 L394 132 L386 132 L378 132 L374 138 L366 140 L359 138 L354 132 L346 132 L338 132 L330 132 L322 132 L314 132 L310 139 L306 132 L298 132 L292 137 L291 145 L289 153 L288 160 L286 168 L285 176 L283 184 L285 192 L287 200 L287 208 L286 215 L283 223 L282 231 L281 239 L279 247 L282 254 L284 262 L287 270 L285 277 L284 285 L282 293 L281 301 L275 307 L270 312 L264 318 L258 324 L253 329 L247 335 L241 341 L236 346 L230 352 L224 358 L219 363 L213 369 L207 375 L202 380 L196 386 L191 392 L185 397 L179 403 L174 409 L168 414 L162 420 L157 426 L151 431 L145 437 L140 443 L134 448 L128 454 L123 460 L117 465 L112 471 L106 477 L100 482 L95 488 L89 494 L83 499 L78 505 L72 511 L66 516 L61 522 L55 528 L50 533 L44 539"/></svg>