<svg xmlns="http://www.w3.org/2000/svg" width="358.882" height="465.2"><path style="stroke:#34862d;stroke-width:3px;fill:none;" d="M55 45 L55 45 L62 50 L69 54 L76 58 L82 62 L89 66 L96 70 L103 74 L110 78 L117 82 L124 86 L131 90 L135 96 L138 104 L138 112 L146 112 L154 112 L162 112 L170 112 L178 112 L186 112 L194 112 L196 104 L203 100 L210 100 L216 104 L218 112 L226 112 L234 112 L244 112 L252 112 L260 112 L268 112 L273 105 L281 101 L290 100 L298 103 L305 110 L308 118 L308 127 L305 135 L298 141 L290 144 L281 143 L273 139 L268 132 L260 132 L252 132 L244 132 L243 140 L235 140 L234 132 L226 132 L218 132 L214 138 L206 140 L199 138 L194 132 L186 132 L178 132 L170 132 L162 132 L154 132 L150 139 L146 132 L138 132 L129 139 L128 147 L126 155 L125 163 L123 170 L122 178 L121 186 L123 195 L125 204 L125 213 L123 222 L121 230 L120 234 L117 250 L117 254 L118 258 L123 273 L124 277 L121 284 L117 291 L117 299 L125 301 L132 304 L139 308 L145 313 L151 318 L156 324 L160 331 L163 338 L165 346 L165 354 L165 362 L164 369 L162 377 L159 384 L155 391 L150 397 L144 402 L137 406 L130 410 L123 413 L115 414 L107 415 L100 414 L92 413 L85 410 L78 406 L71 402 L65 397 L60 391 L56 384 L53 377 L51 369 L50 362 L50 354 L50 346 L52 338 L55 331 L59 324 L64 318 L70 313 L76 308 L83 304 L90 301 L97 299 L97 291 L90 294"/></svg>