<svg xmlns="http://www.w3.org/2000/svg" width="374.748" height="353.931"><path style="stroke:#862d58;stroke-width:3px;fill:none;" d="M140 50 L140 50 L133 50 L133 58 L133 65 L141 68 L147 72 L151 79 L154 86 L154 94 L162 94 L170 94 L178 94 L186 94 L194 94 L202 94 L210 94 L212 86 L218 80 L226 80 L233 86 L234 94 L242 94 L250 94 L260 94 L268 94 L276 94 L284 94 L289 87 L297 83 L306 82 L314 85 L321 92 L324 100 L324 109 L321 117 L314 123 L306 126 L297 125 L289 121 L284 114 L276 114 L268 114 L260 114 L259 122 L251 122 L250 114 L242 114 L234 114 L230 120 L222 122 L215 120 L210 114 L202 114 L194 114 L186 114 L178 114 L170 114 L166 121 L162 114 L154 114 L145 121 L133 125 L133 133 L133 141 L133 149 L133 157 L141 158 L149 160 L156 163 L163 167 L169 172 L175 177 L180 183 L185 189 L189 196 L192 204 L195 211 L196 219 L197 227 L197 235 L196 242 L194 250 L192 258 L188 265 L184 272 L179 278 L174 284 L168 289 L161 293 L154 297 L147 300 L139 302 L131 303 L123 303 L115 303 L108 302 L100 300 L93 297 L86 293 L79 289 L73 284 L67 278 L63 272 L58 265 L55 258 L52 250 L51 242 L50 235 L50 227 L50 219 L52 211 L54 204 L57 196 L61 189 L66 183 L71 177 L77 172 L84 167 L91 163 L98 160 L105 158 L113 157 L113 149 L113 141 L113 133 L113 125 L104 119 L113 65 L113 58 L113 50 L106 50"/></svg>