<svg xmlns="http://www.w3.org/2000/svg" width="461.02" height="366.392"><path style="stroke:#6ce072;stroke-width:3px;fill:none;" d="M243 131 L243 131 L244 123 L245 115 L247 108 L250 100 L254 93 L258 86 L262 80 L268 74 L273 69 L280 64 L286 60 L293 56 L301 54 L308 52 L316 50 L324 50 L332 50 L340 50 L348 52 L355 54 L362 57 L369 61 L376 65 L382 70 L388 76 L393 82 L397 88 L401 95 L405 102 L407 110 L409 117 L410 125 L411 133 L410 141 L409 149 L407 156 L405 164 L401 171 L397 178 L393 184 L388 190 L382 196 L376 201 L369 205 L362 209 L355 212 L348 214 L340 216 L332 216 L324 217 L316 216 L308 215 L301 212 L293 210 L286 206 L280 202 L273 197 L268 192 L262 186 L258 180 L254 173 L250 166 L247 158 L245 151 L244 143 L236 146 L229 148 L221 150 L214 153 L206 153 L202 151 L188 144 L184 143 L179 149 L172 151 L165 149 L115 150 L111 150 L95 150 L91 150 L79 154 L79 162 L79 170 L79 178 L79 186 L83 193 L86 202 L87 211 L87 220 L86 229 L83 237 L79 246 L79 254 L79 262 L79 270 L79 278 L86 280 L79 286 L79 294 L79 302 L80 310 L74 316 L65 316 L59 310 L59 302 L59 294 L59 286 L59 278 L59 270 L59 262 L59 254 L59 246 L54 236 L51 226 L50 216 L51 205 L54 195 L59 186 L59 178 L59 170 L59 162 L59 154 L53 149 L53 141 L54 133 L55 125 L55 117 L56 109 L56 101 L57 93 L57 85 L58 77 L59 69 L59 61"/></svg>