<svg xmlns="http://www.w3.org/2000/svg" width="369.819" height="467.126"><path style="stroke:#e0796c;stroke-width:3px;fill:none;" d="M60 45 L60 45 L67 50 L74 54 L80 58 L87 62 L94 66 L101 70 L108 74 L115 78 L122 82 L129 86 L136 90 L140 96 L143 104 L143 112 L151 112 L159 112 L167 112 L175 112 L183 112 L191 112 L199 112 L206 108 L213 106 L220 104 L227 104 L235 104 L242 106 L249 108 L255 112 L263 112 L271 112 L279 112 L284 105 L292 101 L301 100 L309 103 L316 110 L319 118 L319 127 L316 135 L309 141 L301 144 L292 143 L284 139 L279 132 L271 132 L263 132 L255 132 L249 135 L242 138 L235 139 L227 140 L220 139 L213 138 L206 135 L199 132 L191 132 L183 132 L175 132 L167 132 L159 132 L155 139 L151 132 L143 132 L134 139 L133 147 L131 155 L130 163 L128 170 L127 178 L125 186 L128 195 L130 204 L130 213 L128 222 L126 230 L122 238 L122 246 L122 254 L123 258 L128 273 L129 277 L123 282 L123 290 L131 292 L138 295 L145 298 L152 303 L158 308 L163 314 L168 320 L171 327 L174 335 L176 342 L177 350 L176 358 L175 366 L173 373 L170 381 L166 388 L162 394 L156 400 L150 405 L143 409 L136 412 L129 415 L121 416 L113 417 L105 416 L97 415 L90 412 L83 409 L76 405 L70 400 L64 394 L60 388 L56 381 L53 373 L51 366 L50 358 L50 350 L50 342 L52 335 L55 327 L59 320 L63 314 L68 308 L74 303 L81 298 L88 295 L95 292 L103 290 L103 282 L95 284"/></svg>