<svg
	xmlns="http://www.w3.org/2000/svg"
	width="265.92"
	height="210.743"
	style="font-size: 3.060353px; font-weight: bold; font-family: Helvetica; " >
<g><style type="text/css" >
<!-- create color definitions -->
<![CDATA[
text.red {fill: rgb(255, 0, 255); }
text.green {fill: rgb(0, 255, 0); }
text.blue {fill: rgb(0, 0, 255); }
text.black {fill: rgb(0, 0, 0); }
text.gray {fill: rgb(204, 204, 204); }
text.brown {fill: rgb(211.65, 104.55, 30.6); }
text {fill: rgb(0, 0, 0); text-anchor: middle; alignment-baseline: middle; }
circle.red {stroke: rgb(255, 0, 255); fill: none; }
circle.green {stroke: rgb(0, 255, 0); fill: none; }
circle.blue {stroke: rgb(0, 0, 255); fill: none; }
circle.black {stroke: rgb(0, 0, 0); fill: none; }
circle.gray {stroke: rgb(204, 204, 204); fill: none; }
circle.brown {stroke: rgb(211.65, 104.55, 30.6); fill: none; }
circle {stroke: rgb(0, 0, 0); }
line.red {stroke: rgb(255, 0, 255); stroke-width: 0.382544; }
line.green {stroke: rgb(0, 255, 0); stroke-width: 0.382544; }
line.blue {stroke: rgb(0, 0, 255); stroke-width: 0.382544; }
line.black {stroke: rgb(0, 0, 0); stroke-width: 0.382544; }
line.gray {stroke: rgb(204, 204, 204); stroke-width: 0.382544; }
line.brown {stroke: rgb(211.65, 104.55, 30.6); stroke-width: 0.382544; }
line {stroke: rgb(0, 0, 0); }
text.numbering-label {fill: rgb(204, 204, 204);}
line.numbering-line {stroke: rgb(204, 204, 204); stroke-width: 0.191272;}
line.predicted {stroke: rgb(0, 0, 0); stroke-dasharray: 2}
text.background {fill: rgb(255, 255, 255);
.template {visibility:hidden}
]]>
</style></g>
<g><title>0 (position.label in template: 0.5')</title><text x="42.4075" y="114.818" class="green" >5'</text></g>
<g><title>1 (position.label in template: 1.Y)</title><text x="50" y="114.818" class="green" >C</text></g>
<g><title>2 (position.label in template: 2.U)</title><text x="57.5925" y="114.818" class="black" >U</text></g>
<g><title>3 (position.label in template: 3.A)</title><text x="65.1849" y="114.818" class="black" >A</text></g>
<g><title>4 (position.label in template: 4.N)</title><text x="72.7744" y="115.031" class="green" >U</text></g>
<g><title>5 (position.label in template: 5.N)</title><text x="80.3669" y="115.031" class="green" >C</text></g>
<g><title>6 (position.label in template: 6.N)</title><text x="87.9594" y="115.031" class="green" >U</text></g>
<g><title>7 (position.label in template: 7.U)</title><text x="95.5488" y="114.815" class="black" >U</text></g>
<g><title>8 (position.label in template: 8.Y)</title><text x="103.141" y="114.815" class="green" >C</text></g>
<g><title>9 (position.label in template: 9.N)</title><text x="110.731" y="115.027" class="green" >G</text></g>
<g><title>10 (position.label in template: 10.N)</title><text x="118.323" y="115.027" class="green" >G</text></g>
<g><title>10 (inserted)</title><text x="118.323" y="108.142" class="numbering-label sequential" >10</text></g>
<g><line x1="118.323" y1="113.191" x2="118.323" y2="109.672" class="numbering-line sequential" /></g>
<g><title>11 (position.label in template: 11.N)</title><text x="125.916" y="115.027" class="green" >C</text></g>
<g><title>12 (position.label in template: 12.Y)</title><text x="133.505" y="114.818" class="green" >C</text></g>
<g><title>13 (position.label in template: 13.N)</title><text x="141.095" y="115.031" class="green" >U</text></g>
<g><title>14 (position.label in template: 14.G)</title><text x="146.16" y="109.375" class="green" >G</text></g>
<g><line x1="148.201" y1="109.069" x2="156.78" y2="109.069" class="black" /></g>
<g><title>15 (position.label in template: 15.U)</title><text x="146.37" y="101.815" class="green" >U</text></g>
<g><line x1="148.411" y1="101.509" x2="156.57" y2="101.509" class="black" /></g>
<g><title>16 (position.label in template: 16.C)</title><text x="146.37" y="94.2549" class="black" >C</text></g>
<g><line x1="148.411" y1="93.9489" x2="156.36" y2="93.9489" class="black" /></g>
<g><title>17 (position.label in template: 17.G)</title><text x="146.16" y="86.6949" class="green" >A</text></g>
<g><line x1="148.201" y1="86.3889" x2="156.57" y2="86.3889" class="black" /></g>
<g><title>18 (position.label in template: 18.C)</title><text x="146.37" y="79.1349" class="black" >C</text></g>
<g><line x1="148.411" y1="78.8289" x2="156.36" y2="78.8289" class="black" /></g>
<g><title>19 (position.label in template: 19.Y)</title><text x="146.58" y="71.5749" class="green" >U</text></g>
<g><line x1="148.621" y1="71.2689" x2="156.57" y2="71.2689" class="black" /></g>
<g><title>20 (position.label in template: 20.G)</title><text x="146.16" y="64.0149" class="black" >G</text></g>
<g><line x1="148.201" y1="63.7089" x2="156.57" y2="63.7089" class="black" /></g>
<g><title>20 (inserted)</title><text x="139.398" y="65.3106" class="numbering-label sequential" >20</text></g>
<g><line x1="144.357" y1="64.3604" x2="141.234" y2="64.9588" class="numbering-line sequential" /></g>
<g><title>21 (position.label in template: 21.C)</title><text x="144" y="58.107" class="blue" >C</text></g>
<g><title>22 (position.label in template: 22.N)</title><text x="146.554" y="52.3582" class="green" >A</text></g>
<g><title>23 (position.label in template: 23.A)</title><text x="152.385" y="50" class="green" >C</text></g>
<g><title>24 (position.label in template: 24.A)</title><text x="158.217" y="52.3582" class="blue" >A</text></g>
<g><title>25 (position.label in template: 26.U)</title><text x="160.771" y="58.107" class="blue" >U</text></g>
<g><title>26 (position.label in template: 27.C)</title><text x="158.61" y="64.0149" class="black" >C</text></g>
<g><title>27 (position.label in template: 28.R)</title><text x="158.61" y="71.5749" class="green" >A</text></g>
<g><title>28 (position.label in template: 29.G)</title><text x="158.4" y="79.1349" class="black" >G</text></g>
<g><title>29 (position.label in template: 30.C)</title><text x="158.61" y="86.6949" class="green" >U</text></g>
<g><title>30 (position.label in template: 31.G)</title><text x="158.4" y="94.2549" class="black" >G</text></g>
<g><title>30 (inserted)</title><text x="165.286" y="94.2549" class="numbering-label sequential" >30</text></g>
<g><line x1="160.237" y1="94.2549" x2="163.45" y2="94.2549" class="numbering-line sequential" /></g>
<g><title>31 (position.label in template: 32.R)</title><text x="158.61" y="101.815" class="green" >A</text></g>
<g><title>32 (position.label in template: 33.Y)</title><text x="158.82" y="109.375" class="green" >C</text></g>
<g><title>33 (position.label in template: 34.C)</title><text x="169.3" y="120.075" class="green" >A</text></g>
<g><line x1="169.265" y1="121.809" x2="169.125" y2="129.969" class="black" /></g>
<g><title>34 (position.label in template: 35.G)</title><text x="176.65" y="120.075" class="black" >G</text></g>
<g><line x1="176.685" y1="121.809" x2="176.825" y2="129.969" class="black" /></g>
<g><title>35 (position.label in template: 36.G)</title><text x="184.21" y="120.075" class="black" >G</text></g>
<g><line x1="184.245" y1="121.809" x2="184.385" y2="129.969" class="black" /></g>
<g><title>36 (position.label in template: 37.N)</title><text x="192.13" y="120.275" class="green" >G</text></g>
<g><line x1="192.141" y1="122.009" x2="192.18" y2="129.969" class="black" /></g>
<g><title>37 (position.label in template: 38.Y)</title><text x="197.53" y="114.715" class="green" >U</text></g>
<g><title>38 (position.label in template: 39.N)</title><text x="204.88" y="113.445" class="green" >U</text></g>
<g><title>39 (position.label in template: 40.U)</title><text x="211.72" y="116.125" class="black" >U</text></g>
<g><title>40 (position.label in template: 41.G)</title><text x="215.71" y="122.405" class="black" >G</text></g>
<g><title>41 (position.label in template: 42.R)</title><text x="215.92" y="129.975" class="green" >G</text></g>
<g><title>42 (position.label in template: 43.N)</title><text x="211.87" y="136.465" class="green" >U</text></g>
<g><title>43 (position.label in template: 44.A)</title><text x="204.94" y="139.145" class="black" >A</text></g>
<g><title>44 (position.label in template: 45.R)</title><text x="197.32" y="137.665" class="green" >G</text></g>
<g><title>45 (position.label in template: 46.Y)</title><text x="192.19" y="132.315" class="green" >C</text></g>
<g><title>46 (position.label in template: 47.C)</title><text x="184.42" y="132.315" class="black" >C</text></g>
<g><title>47 (position.label in template: 48.C)</title><text x="176.86" y="132.315" class="black" >C</text></g>
<g><title>48 (position.label in template: 49.G)</title><text x="169.09" y="132.315" class="green" >U</text></g>
<g><title>49 (position.label in template: 50.N)</title><text x="164.02" y="137.966" class="green" >G</text></g>
<g><title>50 (position.label in template: 51.N)</title><text x="164.02" y="145.558" class="green" >G</text></g>
<g><title>50 (inserted)</title><text x="170.905" y="145.558" class="numbering-label sequential" >50</text></g>
<g><line x1="165.856" y1="145.558" x2="169.069" y2="145.558" class="numbering-line sequential" /></g>
<g><title>51 (position.label in template: 52.N)</title><text x="164.02" y="153.151" class="green" >U</text></g>
<g><title>52 (position.label in template: 53.N)</title><text x="164.02" y="160.743" class="green" >G</text></g>
<g><title>53 (position.label in template: 54.3')</title><text x="164.02" y="168.336" class="green" >3'</text></g>
<g><line x1="44.4478" y1="114.512" x2="47.9598" y2="114.512" class="gray" /></g>
<g><line x1="52.0402" y1="114.512" x2="55.5522" y2="114.512" class="gray" /></g>
<g><line x1="59.6327" y1="114.512" x2="63.1447" y2="114.512" class="gray" /></g>
<g><line x1="67.2244" y1="114.569" x2="70.735" y2="114.667" class="gray" /></g>
<g><line x1="74.8147" y1="114.725" x2="78.3267" y2="114.725" class="gray" /></g>
<g><line x1="82.4071" y1="114.725" x2="85.9191" y2="114.725" class="gray" /></g>
<g><line x1="89.9988" y1="114.667" x2="93.5094" y2="114.567" class="gray" /></g>
<g><line x1="97.589" y1="114.509" x2="101.101" y2="114.509" class="gray" /></g>
<g><line x1="105.181" y1="114.566" x2="108.691" y2="114.664" class="gray" /></g>
<g><line x1="112.771" y1="114.721" x2="116.283" y2="114.721" class="gray" /></g>
<g><line x1="120.363" y1="114.721" x2="123.875" y2="114.721" class="gray" /></g>
<g><line x1="127.955" y1="114.665" x2="131.466" y2="114.568" class="gray" /></g>
<g><line x1="135.545" y1="114.569" x2="139.055" y2="114.667" class="gray" /></g>
<g><line x1="142.456" y1="113.205" x2="144.799" y2="110.589" class="gray" /></g>
<g><line x1="146.217" y1="107.029" x2="146.314" y2="103.548" class="gray" /></g>
<g><line x1="146.37" y1="99.4687" x2="146.37" y2="95.9891" class="gray" /></g>
<g><line x1="146.314" y1="91.9095" x2="146.217" y2="88.4284" class="gray" /></g>
<g><line x1="146.217" y1="84.3495" x2="146.314" y2="80.8684" class="gray" /></g>
<g><line x1="146.427" y1="76.7895" x2="146.524" y2="73.3084" class="gray" /></g>
<g><line x1="146.467" y1="69.2318" x2="146.274" y2="65.746" class="gray" /></g>
<g><line x1="145.46" y1="61.7928" x2="144.701" y2="59.7172" class="gray" /></g>
<g><line x1="144.828" y1="55.9364" x2="145.725" y2="53.9167" class="gray" /></g>
<g><line x1="148.445" y1="51.2873" x2="150.494" y2="50.4588" class="gray" /></g>
<g><line x1="154.277" y1="50.4588" x2="156.326" y2="51.2873" class="gray" /></g>
<g><line x1="159.045" y1="53.9167" x2="159.942" y2="55.9364" class="gray" /></g>
<g><line x1="160.07" y1="59.7172" x2="159.311" y2="61.7928" class="gray" /></g>
<g><line x1="158.61" y1="65.7491" x2="158.61" y2="69.2287" class="gray" /></g>
<g><line x1="158.554" y1="73.3084" x2="158.457" y2="76.7895" class="gray" /></g>
<g><line x1="158.457" y1="80.8684" x2="158.554" y2="84.3495" class="gray" /></g>
<g><line x1="158.554" y1="88.4284" x2="158.457" y2="91.9095" class="gray" /></g>
<g><line x1="158.457" y1="95.9884" x2="158.554" y2="99.4695" class="gray" /></g>
<g><line x1="158.667" y1="103.548" x2="158.764" y2="107.029" class="gray" /></g>
<g><line x1="160.248" y1="110.526" x2="167.873" y2="118.311" class="gray" /></g>
<g><line x1="171.341" y1="119.769" x2="174.61" y2="119.769" class="gray" /></g>
<g><line x1="178.691" y1="119.769" x2="182.17" y2="119.769" class="gray" /></g>
<g><line x1="186.25" y1="119.82" x2="190.091" y2="119.917" class="gray" /></g>
<g><line x1="193.552" y1="118.505" x2="196.109" y2="115.872" class="gray" /></g>
<g><line x1="199.541" y1="114.062" x2="202.87" y2="113.486" class="gray" /></g>
<g><line x1="206.78" y1="113.883" x2="209.821" y2="115.075" class="gray" /></g>
<g><line x1="212.814" y1="117.541" x2="214.616" y2="120.377" class="gray" /></g>
<g><line x1="215.767" y1="124.138" x2="215.864" y2="127.629" class="gray" /></g>
<g><line x1="214.84" y1="131.4" x2="212.95" y2="134.428" class="gray" /></g>
<g><line x1="209.967" y1="136.895" x2="206.843" y2="138.103" class="gray" /></g>
<g><line x1="202.938" y1="138.45" x2="199.323" y2="137.748" class="gray" /></g>
<g><line x1="195.908" y1="135.886" x2="193.602" y2="133.482" class="gray" /></g>
<g><line x1="190.15" y1="132.009" x2="186.461" y2="132.009" class="gray" /></g>
<g><line x1="182.38" y1="132.009" x2="178.901" y2="132.009" class="gray" /></g>
<g><line x1="174.82" y1="132.009" x2="171.131" y2="132.009" class="gray" /></g>
<g><line x1="167.728" y1="133.527" x2="165.382" y2="136.141" class="gray" /></g>
<g><line x1="164.02" y1="139.7" x2="164.02" y2="143.212" class="gray" /></g>
<g><line x1="164.02" y1="147.293" x2="164.02" y2="150.805" class="gray" /></g>
<g><line x1="164.02" y1="154.885" x2="164.02" y2="158.397" class="gray" /></g>
<g><line x1="164.02" y1="162.478" x2="164.02" y2="165.99" class="gray" /></g>
</svg>
