<svg
	xmlns="http://www.w3.org/2000/svg"
	width="341.312"
	height="343.163"
	style="font-size: 3.068569px; font-weight: bold; font-family: Helvetica; " >
<g><style type="text/css" >
<!-- create color definitions -->
<![CDATA[
text.red {fill: rgb(255, 0, 255); }
text.green {fill: rgb(0, 255, 0); }
text.blue {fill: rgb(0, 0, 255); }
text.black {fill: rgb(0, 0, 0); }
text.gray {fill: rgb(204, 204, 204); }
text.brown {fill: rgb(211.65, 104.55, 30.6); }
text {fill: rgb(0, 0, 0); text-anchor: middle; alignment-baseline: middle; }
circle.red {stroke: rgb(255, 0, 255); fill: none; }
circle.green {stroke: rgb(0, 255, 0); fill: none; }
circle.blue {stroke: rgb(0, 0, 255); fill: none; }
circle.black {stroke: rgb(0, 0, 0); fill: none; }
circle.gray {stroke: rgb(204, 204, 204); fill: none; }
circle.brown {stroke: rgb(211.65, 104.55, 30.6); fill: none; }
circle {stroke: rgb(0, 0, 0); }
line.red {stroke: rgb(255, 0, 255); stroke-width: 0.383571; }
line.green {stroke: rgb(0, 255, 0); stroke-width: 0.383571; }
line.blue {stroke: rgb(0, 0, 255); stroke-width: 0.383571; }
line.black {stroke: rgb(0, 0, 0); stroke-width: 0.383571; }
line.gray {stroke: rgb(204, 204, 204); stroke-width: 0.383571; }
line.brown {stroke: rgb(211.65, 104.55, 30.6); stroke-width: 0.383571; }
line {stroke: rgb(0, 0, 0); }
text.numbering-label {fill: rgb(204, 204, 204);}
line.numbering-line {stroke: rgb(204, 204, 204); stroke-width: 0.191786;}
line.predicted {stroke: rgb(0, 0, 0); stroke-dasharray: 2}
text.background {fill: rgb(255, 255, 255);
.template {visibility:hidden}
]]>
</style></g>
<g><title>0 (position.label in template: 0.5')</title><text x="127.014" y="291.745" class="green" >5'</text></g>
<g><title>1 (position.label in template: 1.N)</title><text x="134.581" y="291.745" class="green" >U</text></g>
<g><title>2 (position.label in template: 2.N)</title><text x="142.148" y="291.745" class="green" >G</text></g>
<g><title>3 (position.label in template: 3.N)</title><text x="149.715" y="291.745" class="green" >A</text></g>
<g><title>4 (position.label in template: 4.Y)</title><text x="157.28" y="291.536" class="green" >C</text></g>
<g><title>5 (position.label in template: 5.N)</title><text x="164.844" y="291.748" class="green" >A</text></g>
<g><title>6 (position.label in template: 6.N)</title><text x="170.19" y="286.392" class="green" >A</text></g>
<g><line x1="172.235" y1="286.085" x2="180.384" y2="286.085" class="black" /></g>
<g><title>7 (position.label in template: 7.Y)</title><text x="170.25" y="278.622" class="green" >U</text></g>
<g><line x1="172.295" y1="278.315" x2="180.234" y2="278.315" class="black" /></g>
<g><title>8 (position.label in template: 8.N)</title><text x="170.19" y="271.272" class="green" >C</text></g>
<g><line x1="172.235" y1="270.965" x2="180.384" y2="270.965" class="black" /></g>
<g><title>9 (position.label in template: 9.G)</title><text x="169.83" y="263.502" class="green" >A</text></g>
<g><line x1="171.875" y1="263.195" x2="180.444" y2="263.195" class="black" /></g>
<g><title>10 (position.label in template: 10.N)</title><text x="170.19" y="256.152" class="green" >U</text></g>
<g><line x1="172.235" y1="255.845" x2="180.384" y2="255.845" class="black" /></g>
<g><title>10 (inserted)</title><text x="163.286" y="256.037" class="numbering-label sequential" >10</text></g>
<g><line x1="168.349" y1="256.121" x2="165.127" y2="256.068" class="numbering-line sequential" /></g>
<g><title>11 (inserted)</title><text x="170.145" y="244.622" class="red" >U</text></g>
<g><title>12 (position.label in template: 11.N)</title><text x="170.19" y="233.093" class="green" >A</text></g>
<g><line x1="172.235" y1="232.786" x2="180.384" y2="232.786" class="black" /></g>
<g><title>13 (position.label in template: 12.R)</title><text x="162.57" y="231.733" class="green" >U</text></g>
<g><title>14 (position.label in template: 13.R)</title><text x="155.28" y="229.723" class="green" >G</text></g>
<g><title>15 (position.label in template: 14.U)</title><text x="148.28" y="226.873" class="black" >U</text></g>
<g><title>16 (position.label in template: 15.Y)</title><text x="141.86" y="223.233" class="green" >U</text></g>
<g><title>17 (position.label in template: 16.C)</title><text x="135.5" y="218.843" class="black" >C</text></g>
<g><title>18 (position.label in template: 17.R)</title><text x="129.9" y="213.763" class="green" >A</text></g>
<g><title>19 (position.label in template: 18.N)</title><text x="125.07" y="208.283" class="green" >U</text></g>
<g><title>20 (position.label in template: 19.U)</title><text x="120.65" y="201.843" class="black" >U</text></g>
<g><title>20 (inserted)</title><text x="114.743" y="205.419" class="numbering-label sequential" >20</text></g>
<g><line x1="119.075" y1="202.796" x2="116.585" y2="204.304" class="numbering-line sequential" /></g>
<g><title>21 (position.label in template: 20.C)</title><text x="117.12" y="195.153" class="black" >C</text></g>
<g><line x1="116.423" y1="192.922" x2="113.626" y2="185.199" class="black" /></g>
<g><title>22 (position.label in template: 21.N)</title><text x="110.13" y="197.823" class="green" >U</text></g>
<g><line x1="109.463" y1="195.582" x2="106.806" y2="187.88" class="black" /></g>
<g><title>23 (position.label in template: 22.R)</title><text x="102.83" y="200.073" class="green" >U</text></g>
<g><line x1="102.194" y1="197.821" x2="99.6848" y2="190.14" class="black" /></g>
<g><title>24 (inserted)</title><text x="97.0299" y="203.82" class="red" >C</text></g>
<g><title>25 (position.label in template: 23.N)</title><text x="90.2032" y="204.857" class="green" >U</text></g>
<g><line x1="89.5362" y1="202.616" x2="86.8801" y2="194.914" class="black" /></g>
<g><title>26 (position.label in template: 24.N)</title><text x="83.0532" y="207.327" class="green" >U</text></g>
<g><line x1="82.3883" y1="205.085" x2="79.7381" y2="197.375" class="black" /></g>
<g><title>27 (position.label in template: 25.N)</title><text x="75.9132" y="209.787" class="green" >C</text></g>
<g><line x1="75.2462" y1="207.546" x2="72.5901" y2="199.844" class="black" /></g>
<g><title>28 (position.label in template: 26.N)</title><text x="68.7632" y="212.247" class="green" >U</text></g>
<g><line x1="68.0962" y1="210.006" x2="65.4401" y2="202.304" class="black" /></g>
<g><title>29 (position.label in template: 27.N)</title><text x="64.4577" y="217.324" class="green" >C</text></g>
<g><title>30 (position.label in template: 28.N)</title><text x="57.8916" y="218.42" class="green" >C</text></g>
<g><title>30 (inserted)</title><text x="56.6174" y="225.206" class="numbering-label sequential" >30</text></g>
<g><line x1="57.5518" y1="220.23" x2="56.9055" y2="223.672" class="numbering-line sequential" /></g>
<g><title>31 (position.label in template: 29.N)</title><text x="52.1703" y="215.017" class="green" >A</text></g>
<g><title>32 (position.label in template: 30.R)</title><text x="50" y="208.724" class="green" >A</text></g>
<g><title>33 (position.label in template: 31.N)</title><text x="52.4072" y="202.517" class="green" >U</text></g>
<g><title>34 (inserted)</title><text x="58.2532" y="199.333" class="red" >A</text></g>
<g><title>35 (position.label in template: 32.N)</title><text x="64.7732" y="200.677" class="green" >G</text></g>
<g><title>36 (position.label in template: 33.N)</title><text x="71.9232" y="198.217" class="green" >G</text></g>
<g><title>37 (position.label in template: 34.N)</title><text x="79.0732" y="195.747" class="green" >A</text></g>
<g><title>38 (position.label in template: 35.N)</title><text x="86.2132" y="193.287" class="green" >A</text></g>
<g><title>39 (inserted)</title><text x="85.1819" y="187.073" class="red" >A</text></g>
<g><title>40 (inserted)</title><text x="89.4963" y="182.484" class="red" >G</text></g>
<g><title>41 (inserted)</title><text x="95.7621" y="183.129" class="red" >G</text></g>
<g><title>42 (position.label in template: 36.Y)</title><text x="99.0495" y="188.503" class="green" >A</text></g>
<g><title>43 (position.label in template: 37.N)</title><text x="106.14" y="186.253" class="green" >A</text></g>
<g><title>44 (position.label in template: 38.G)</title><text x="112.93" y="183.583" class="black" >G</text></g>
<g><title>45 (position.label in template: 39.U)</title><text x="111.79" y="176.143" class="black" >U</text></g>
<g><title>46 (position.label in template: 40.C)</title><text x="111.32" y="168.593" class="black" >C</text></g>
<g><title>47 (position.label in template: 41.A)</title><text x="111.93" y="161.043" class="black" >A</text></g>
<g><title>48 (position.label in template: 42.Y)</title><text x="113.22" y="153.593" class="green" >U</text></g>
<g><title>49 (position.label in template: 43.N)</title><text x="115.31" y="146.553" class="green" >A</text></g>
<g><title>50 (position.label in template: 44.C)</title><text x="118.13" y="139.393" class="black" >C</text></g>
<g><title>50 (inserted)</title><text x="111.942" y="136.33" class="numbering-label sequential" >50</text></g>
<g><line x1="116.479" y1="138.576" x2="113.783" y2="137.241" class="numbering-line sequential" /></g>
<g><title>51 (position.label in template: 45.A)</title><text x="122.1" y="132.833" class="black" >A</text></g>
<g><title>52 (position.label in template: 46.A)</title><text x="126.6" y="126.763" class="black" >A</text></g>
<g><title>53 (position.label in template: 47.C)</title><text x="131.57" y="121.253" class="black" >C</text></g>
<g><title>54 (position.label in template: 48.C)</title><text x="137.35" y="116.383" class="black" >C</text></g>
<g><title>55 (position.label in template: 49.C)</title><text x="143.66" y="112.223" class="black" >C</text></g>
<g><title>56 (position.label in template: 50.C)</title><text x="150.41" y="108.813" class="black" >C</text></g>
<g><title>57 (position.label in template: 51.A)</title><text x="157.72" y="106.223" class="black" >A</text></g>
<g><title>58 (position.label in template: 52.A)</title><text x="165.08" y="104.473" class="green" >G</text></g>
<g><title>59 (position.label in template: 53.A)</title><text x="172.59" y="103.593" class="black" >A</text></g>
<g><title>60 (position.label in template: 54.A)</title><text x="180.15" y="103.593" class="black" >A</text></g>
<g><title>61 (position.label in template: 55.N)</title><text x="187.6" y="104.683" class="green" >A</text></g>
<g><title>62 (position.label in template: 56.Y)</title><text x="195.01" y="106.223" class="green" >C</text></g>
<g><title>63 (position.label in template: 57.N)</title><text x="202.06" y="109.023" class="green" >C</text></g>
<g><title>64 (position.label in template: 58.U)</title><text x="208.66" y="112.223" class="green" >A</text></g>
<g><title>65 (position.label in template: 59.A)</title><text x="215.18" y="116.383" class="green" >U</text></g>
<g><title>66 (position.label in template: 60.N)</title><text x="220.9" y="121.463" class="green" >U</text></g>
<g><title>67 (position.label in template: 61.N)</title><text x="226.08" y="126.973" class="green" >A</text></g>
<g><title>68 (position.label in template: 62.N)</title><text x="230.58" y="133.043" class="green" >C</text></g>
<g><title>69 (position.label in template: 63.N)</title><text x="234.34" y="139.603" class="green" >A</text></g>
<g><title>70 (position.label in template: 64.N)</title><text x="237.31" y="146.553" class="green" >A</text></g>
<g><title>71 (position.label in template: 65.N)</title><text x="239.46" y="153.803" class="green" >A</text></g>
<g><title>72 (position.label in template: 66.R)</title><text x="240.59" y="161.043" class="green" >C</text></g>
<g><title>73 (position.label in template: 67.N)</title><text x="241.15" y="168.803" class="green" >A</text></g>
<g><title>74 (position.label in template: 68.A)</title><text x="240.74" y="176.143" class="green" >C</text></g>
<g><title>75 (position.label in template: 69.N)</title><text x="239.34" y="183.783" class="green" >C</text></g>
<g><title>76 (position.label in template: 70.Y)</title><text x="237.19" y="190.813" class="green" >C</text></g>
<g><title>77 (position.label in template: 71.N)</title><text x="234.1" y="197.943" class="green" >U</text></g>
<g><title>78 (position.label in template: 72.Y)</title><text x="230.34" y="204.263" class="green" >G</text></g>
<g><title>79 (position.label in template: 73.U)</title><text x="225.59" y="210.303" class="green" >A</text></g>
<g><title>80 (position.label in template: 74.U)</title><text x="220.37" y="215.773" class="green" >G</text></g>
<g><title>81 (position.label in template: 75.N)</title><text x="214.7" y="220.803" class="green" >U</text></g>
<g><title>82 (position.label in template: 76.R)</title><text x="208.2" y="224.703" class="green" >A</text></g>
<g><line x1="206.352" y1="225.273" x2="199.037" y2="228.748" class="black" /></g>
<g><title>83 (position.label in template: 77.Y)</title><text x="211.51" y="231.603" class="green" >U</text></g>
<g><line x1="209.655" y1="232.159" x2="202.144" y2="235.653" class="black" /></g>
<g><title>84 (position.label in template: 78.Y)</title><text x="214.61" y="238.493" class="green" >U</text></g>
<g><line x1="212.733" y1="238.999" x2="204.906" y2="242.392" class="black" /></g>
<g><title>85 (position.label in template: 79.N)</title><text x="217.65" y="245.603" class="green" >G</text></g>
<g><line x1="215.783" y1="246.134" x2="208.356" y2="249.468" class="black" /></g>
<g><title>86 (position.label in template: 80.N)</title><text x="223.3" y="250.613" class="green" >C</text></g>
<g><title>87 (position.label in template: 81.N)</title><text x="223.3" y="258.173" class="green" >U</text></g>
<g><line x1="221.434" y1="258.705" x2="214.005" y2="262.047" class="black" /></g>
<g><title>88 (position.label in template: 82.U)</title><text x="226.25" y="264.863" class="green" >A</text></g>
<g><line x1="224.402" y1="265.433" x2="217.087" y2="268.908" class="black" /></g>
<g><title>89 (position.label in template: 83.N)</title><text x="229.5" y="271.973" class="green" >C</text></g>
<g><line x1="227.633" y1="272.504" x2="220.206" y2="275.838" class="black" /></g>
<g><title>90 (position.label in template: 84.R)</title><text x="235.428" y="275.191" class="green" >A</text></g>
<g><title>91 (position.label in template: 85.N)</title><text x="238.292" y="281.298" class="green" >U</text></g>
<g><title>92 (position.label in template: 86.Y)</title><text x="236.976" y="287.914" class="green" >U</text></g>
<g><title>93 (position.label in template: 87.N)</title><text x="231.992" y="292.459" class="green" >C</text></g>
<g><title>94 (position.label in template: 88.Y)</title><text x="225.283" y="293.163" class="green" >A</text></g>
<g><title>95 (position.label in template: 89.N)</title><text x="219.465" y="289.75" class="green" >G</text></g>
<g><title>96 (position.label in template: 90.N)</title><text x="216.804" y="283.551" class="green" >U</text></g>
<g><title>97 (position.label in template: 92.N)</title><text x="218.34" y="276.983" class="green" >G</text></g>
<g><title>98 (position.label in template: 93.N)</title><text x="215.24" y="270.093" class="green" >U</text></g>
<g><title>99 (position.label in template: 94.N)</title><text x="212.14" y="263.193" class="green" >A</text></g>
<g><title>100 (position.label in template: 95.N)</title><text x="206.49" y="258.173" class="green" >G</text></g>
<g><title>100 (inserted)</title><text x="200.191" y="261.001" class="numbering-label sequential" >100</text></g>
<g><line x1="204.81" y1="258.927" x2="202.953" y2="259.761" class="numbering-line sequential" /></g>
<g><title>101 (position.label in template: 96.N)</title><text x="206.49" y="250.613" class="green" >C</text></g>
<g><title>102 (position.label in template: 97.G)</title><text x="203.03" y="243.513" class="green" >G</text></g>
<g><title>103 (position.label in template: 98.N)</title><text x="200.29" y="236.823" class="green" >U</text></g>
<g><title>104 (position.label in template: 99.N)</title><text x="197.19" y="229.933" class="green" >U</text></g>
<g><title>105 (position.label in template: 100.R)</title><text x="189.75" y="231.733" class="green" >A</text></g>
<g><title>106 (position.label in template: 101.N)</title><text x="182.43" y="233.093" class="green" >A</text></g>
<g><title>107 (position.label in template: 102.N)</title><text x="188.841" y="230.479" class="green" >U</text></g>
<g><title>108 (inserted)</title><text x="195.728" y="231.187" class="red" >C</text></g>
<g><title>109 (inserted)</title><text x="201.474" y="235.05" class="red" >C</text></g>
<g><title>110 (inserted)</title><text x="204.729" y="241.161" class="red" >U</text></g>
<g><title>111 (inserted)</title><text x="204.729" y="248.084" class="red" >C</text></g>
<g><title>112 (inserted)</title><text x="201.474" y="254.195" class="red" >U</text></g>
<g><title>113 (inserted)</title><text x="195.728" y="258.057" class="red" >U</text></g>
<g><title>114 (inserted)</title><text x="188.841" y="258.765" class="red" >G</text></g>
<g><title>115 (position.label in template: 103.N)</title><text x="182.43" y="256.152" class="green" >G</text></g>
<g><title>116 (position.label in template: 104.Y)</title><text x="182.49" y="263.502" class="green" >C</text></g>
<g><title>117 (position.label in template: 105.N)</title><text x="182.43" y="271.272" class="green" >U</text></g>
<g><title>118 (position.label in template: 106.R)</title><text x="182.28" y="278.622" class="green" >A</text></g>
<g><title>119 (position.label in template: 107.N)</title><text x="182.43" y="286.392" class="green" >U</text></g>
<g><title>120 (position.label in template: 108.R)</title><text x="187.63" y="291.532" class="green" >U</text></g>
<g><title>121 (position.label in template: 109.Y)</title><text x="195.39" y="291.532" class="green" >C</text></g>
<g><title>122 (position.label in template: 110.N)</title><text x="202.9" y="291.742" class="green" >U</text></g>
<g><title>123 (position.label in template: 111.N)</title><text x="210.46" y="291.742" class="green" >C</text></g>
<g><title>124 (inserted)</title><text x="215.623" y="286.21" class="red" >G</text></g>
<g><title>125 (position.label in template: 112.R)</title><text x="220.787" y="280.679" class="green" >U</text></g>
<g><line x1="222.832" y1="280.372" x2="230.981" y2="280.372" class="black" /></g>
<g><title>126 (position.label in template: 113.R)</title><text x="220.787" y="273.119" class="green" >A</text></g>
<g><line x1="222.832" y1="272.812" x2="231.191" y2="272.812" class="black" /></g>
<g><title>127 (position.label in template: 114.R)</title><text x="220.787" y="265.559" class="green" >A</text></g>
<g><line x1="222.832" y1="265.252" x2="231.191" y2="265.252" class="black" /></g>
<g><title>128 (position.label in template: 115.R)</title><text x="220.787" y="257.999" class="green" >C</text></g>
<g><line x1="222.832" y1="257.692" x2="231.191" y2="257.692" class="black" /></g>
<g><title>129 (position.label in template: 116.N)</title><text x="220.937" y="250.649" class="green" >G</text></g>
<g><line x1="222.982" y1="250.342" x2="231.131" y2="250.342" class="black" /></g>
<g><title>130 (position.label in template: 118.N)</title><text x="220.937" y="243.089" class="green" >A</text></g>
<g><line x1="222.982" y1="242.782" x2="231.131" y2="242.782" class="black" /></g>
<g><title>131 (position.label in template: 119.Y)</title><text x="220.997" y="235.319" class="green" >U</text></g>
<g><line x1="223.042" y1="235.012" x2="230.981" y2="235.012" class="black" /></g>
<g><title>132 (position.label in template: 120.N)</title><text x="220.937" y="227.969" class="green" >U</text></g>
<g><line x1="222.982" y1="227.662" x2="231.131" y2="227.662" class="black" /></g>
<g><title>133 (position.label in template: 121.N)</title><text x="214.394" y="229.786" class="green" >G</text></g>
<g><title>134 (position.label in template: 122.N)</title><text x="208.328" y="226.736" class="green" >U</text></g>
<g><title>135 (inserted)</title><text x="205.883" y="220.402" class="red" >C</text></g>
<g><title>136 (inserted)</title><text x="208.328" y="214.067" class="red" >A</text></g>
<g><title>137 (inserted)</title><text x="214.394" y="211.018" class="red" >A</text></g>
<g><title>138 (position.label in template: 123.N)</title><text x="220.937" y="212.835" class="green" >A</text></g>
<g><line x1="222.982" y1="212.528" x2="231.131" y2="212.528" class="black" /></g>
<g><title>139 (position.label in template: 124.N)</title><text x="220.937" y="205.275" class="green" >U</text></g>
<g><line x1="222.982" y1="204.968" x2="231.131" y2="204.968" class="black" /></g>
<g><title>140 (position.label in template: 125.U)</title><text x="220.787" y="197.505" class="black" >U</text></g>
<g><line x1="222.832" y1="197.198" x2="231.191" y2="197.198" class="black" /></g>
<g><title>141 (position.label in template: 126.N)</title><text x="217.837" y="190.825" class="green" >U</text></g>
<g><title>142 (position.label in template: 127.N)</title><text x="220.937" y="183.925" class="green" >A</text></g>
<g><line x1="222.982" y1="183.618" x2="231.131" y2="183.618" class="black" /></g>
<g><title>143 (position.label in template: 128.G)</title><text x="220.577" y="176.155" class="black" >G</text></g>
<g><line x1="222.622" y1="175.848" x2="230.981" y2="175.848" class="black" /></g>
<g><title>144 (position.label in template: 129.N)</title><text x="220.937" y="168.805" class="green" >A</text></g>
<g><line x1="222.982" y1="168.498" x2="231.131" y2="168.498" class="black" /></g>
<g><title>145 (position.label in template: 130.N)</title><text x="220.937" y="161.245" class="green" >G</text></g>
<g><line x1="222.982" y1="160.938" x2="231.131" y2="160.938" class="black" /></g>
<g><title>146 (position.label in template: 131.A)</title><text x="220.997" y="153.475" class="green" >U</text></g>
<g><line x1="223.042" y1="153.168" x2="230.981" y2="153.168" class="black" /></g>
<g><title>147 (position.label in template: 132.N)</title><text x="213.656" y="152.077" class="green" >G</text></g>
<g><title>148 (position.label in template: 133.N)</title><text x="206.592" y="149.64" class="green" >C</text></g>
<g><title>149 (position.label in template: 134.N)</title><text x="199.951" y="146.214" class="green" >U</text></g>
<g><title>150 (position.label in template: 135.N)</title><text x="193.871" y="141.869" class="green" >U</text></g>
<g><title>150 (inserted)</title><text x="189.464" y="147.184" class="numbering-label sequential" >150</text></g>
<g><line x1="192.696" y1="143.287" x2="190.736" y2="145.65" class="numbering-line sequential" /></g>
<g><title>151 (position.label in template: 136.U)</title><text x="188.478" y="136.698" class="green" >A</text></g>
<g><title>152 (position.label in template: 137.A)</title><text x="183.883" y="130.805" class="green" >U</text></g>
<g><title>153 (position.label in template: 138.U)</title><text x="180.181" y="124.313" class="green" >C</text></g>
<g><title>154 (position.label in template: 139.U)</title><text x="177.45" y="117.358" class="green" >G</text></g>
<g><title>155 (inserted)</title><text x="175.746" y="110.082" class="red" >U</text></g>
<g><title>156 (inserted)</title><text x="175.104" y="102.637" class="red" >C</text></g>
<g><title>157 (inserted)</title><text x="175.538" y="95.1774" class="red" >A</text></g>
<g><title>158 (inserted)</title><text x="177.038" y="87.8571" class="red" >A</text></g>
<g><title>159 (inserted)</title><text x="179.574" y="80.8279" class="red" >A</text></g>
<g><title>160 (inserted)</title><text x="183.092" y="74.2357" class="red" >A</text></g>
<g><title>161 (inserted)</title><text x="187.521" y="68.2169" class="red" >A</text></g>
<g><title>162 (inserted)</title><text x="192.768" y="62.8962" class="red" >U</text></g>
<g><title>163 (inserted)</title><text x="198.724" y="58.384" class="red" >C</text></g>
<g><title>164 (inserted)</title><text x="205.267" y="54.7737" class="red" >A</text></g>
<g><title>165 (inserted)</title><text x="212.26" y="52.1401" class="red" >G</text></g>
<g><title>166 (inserted)</title><text x="219.558" y="50.5378" class="red" >C</text></g>
<g><title>167 (inserted)</title><text x="227.012" y="50" class="red" >A</text></g>
<g><title>168 (inserted)</title><text x="234.465" y="50.5378" class="red" >A</text></g>
<g><title>169 (inserted)</title><text x="241.763" y="52.1401" class="red" >A</text></g>
<g><title>170 (inserted)</title><text x="248.756" y="54.7737" class="red" >U</text></g>
<g><title>171 (inserted)</title><text x="255.299" y="58.384" class="red" >C</text></g>
<g><title>172 (inserted)</title><text x="261.255" y="62.8962" class="red" >A</text></g>
<g><title>173 (inserted)</title><text x="266.502" y="68.2169" class="red" >U</text></g>
<g><title>174 (inserted)</title><text x="270.931" y="74.2357" class="red" >G</text></g>
<g><title>175 (inserted)</title><text x="274.449" y="80.8279" class="red" >A</text></g>
<g><title>176 (inserted)</title><text x="276.985" y="87.8571" class="red" >C</text></g>
<g><title>177 (inserted)</title><text x="278.485" y="95.1774" class="red" >G</text></g>
<g><title>178 (inserted)</title><text x="278.919" y="102.637" class="red" >A</text></g>
<g><title>179 (inserted)</title><text x="278.277" y="110.082" class="red" >G</text></g>
<g><title>180 (inserted)</title><text x="276.573" y="117.358" class="red" >U</text></g>
<g><title>181 (inserted)</title><text x="273.842" y="124.313" class="red" >C</text></g>
<g><title>182 (inserted)</title><text x="270.14" y="130.805" class="red" >A</text></g>
<g><title>183 (inserted)</title><text x="265.545" y="136.698" class="red" >U</text></g>
<g><title>184 (inserted)</title><text x="260.152" y="141.869" class="red" >A</text></g>
<g><title>185 (inserted)</title><text x="254.072" y="146.214" class="red" >A</text></g>
<g><title>186 (inserted)</title><text x="247.431" y="149.64" class="red" >G</text></g>
<g><title>187 (inserted)</title><text x="240.367" y="152.077" class="red" >U</text></g>
<g><title>188 (position.label in template: 140.U)</title><text x="233.027" y="153.475" class="green" >G</text></g>
<g><title>189 (position.label in template: 141.N)</title><text x="233.177" y="161.245" class="green" >C</text></g>
<g><title>190 (position.label in template: 142.N)</title><text x="233.177" y="168.805" class="green" >U</text></g>
<g><title>191 (position.label in template: 143.C)</title><text x="233.027" y="176.155" class="black" >C</text></g>
<g><title>192 (position.label in template: 144.N)</title><text x="233.177" y="183.925" class="green" >U</text></g>
<g><title>193 (position.label in template: 145.N)</title><text x="236.277" y="190.825" class="green" >A</text></g>
<g><title>194 (position.label in template: 146.A)</title><text x="233.237" y="197.505" class="black" >A</text></g>
<g><title>195 (position.label in template: 147.N)</title><text x="233.177" y="205.275" class="green" >A</text></g>
<g><title>196 (position.label in template: 148.N)</title><text x="233.177" y="212.835" class="green" >U</text></g>
<g><title>197 (position.label in template: 149.N)</title><text x="233.177" y="227.969" class="green" >A</text></g>
<g><title>198 (position.label in template: 150.R)</title><text x="233.027" y="235.319" class="green" >G</text></g>
<g><title>199 (position.label in template: 151.N)</title><text x="233.177" y="243.089" class="green" >U</text></g>
<g><title>200 (position.label in template: 152.N)</title><text x="233.177" y="250.649" class="green" >U</text></g>
<g><title>200 (inserted)</title><text x="240.081" y="250.621" class="numbering-label sequential" >200</text></g>
<g><line x1="235.018" y1="250.641" x2="237.319" y2="250.632" class="numbering-line sequential" /></g>
<g><title>201 (position.label in template: 153.Y)</title><text x="233.237" y="257.999" class="green" >A</text></g>
<g><title>202 (position.label in template: 154.Y)</title><text x="233.237" y="265.559" class="green" >U</text></g>
<g><title>203 (position.label in template: 155.Y)</title><text x="233.237" y="273.119" class="green" >U</text></g>
<g><title>204 (position.label in template: 156.U)</title><text x="233.027" y="280.679" class="green" >U</text></g>
<g><title>205 (position.label in template: 157.N)</title><text x="238.348" y="286.058" class="green" >U</text></g>
<g><title>206 (position.label in template: 158.Y)</title><text x="245.912" y="285.85" class="green" >U</text></g>
<g><title>207 (position.label in template: 159.Y)</title><text x="253.479" y="285.85" class="green" >A</text></g>
<g><title>208 (position.label in template: 160.U)</title><text x="261.047" y="285.85" class="black" >U</text></g>
<g><title>209 (position.label in template: 161.Y)</title><text x="268.614" y="285.85" class="green" >A</text></g>
<g><title>210 (position.label in template: 162.U)</title><text x="276.181" y="285.85" class="black" >U</text></g>
<g><title>211 (position.label in template: 163.N)</title><text x="283.745" y="286.056" class="green" >U</text></g>
<g><title>212 (position.label in template: 164.N)</title><text x="291.312" y="286.056" class="green" >U</text></g>
<g><title>213 (position.label in template: 166.3')</title><text x="298.879" y="286.056" class="green" >3'</text></g>
<g><line x1="129.06" y1="291.438" x2="132.536" y2="291.438" class="gray" /></g>
<g><line x1="136.627" y1="291.438" x2="140.103" y2="291.438" class="gray" /></g>
<g><line x1="144.194" y1="291.438" x2="147.67" y2="291.438" class="gray" /></g>
<g><line x1="151.76" y1="291.382" x2="155.235" y2="291.286" class="gray" /></g>
<g><line x1="159.325" y1="291.287" x2="162.799" y2="291.384" class="gray" /></g>
<g><line x1="166.289" y1="289.993" x2="168.744" y2="287.533" class="gray" /></g>
<g><line x1="170.205" y1="284.04" x2="170.234" y2="280.361" class="gray" /></g>
<g><line x1="170.233" y1="276.27" x2="170.206" y2="273.011" class="gray" /></g>
<g><line x1="170.095" y1="268.922" x2="169.924" y2="265.239" class="gray" /></g>
<g><line x1="169.93" y1="261.152" x2="170.089" y2="257.888" class="gray" /></g>
<g><line x1="170.182" y1="253.8" x2="170.153" y2="246.361" class="gray" /></g>
<g><line x1="170.153" y1="242.27" x2="170.182" y2="234.831" class="gray" /></g>
<g><line x1="168.176" y1="232.426" x2="164.583" y2="231.785" class="gray" /></g>
<g><line x1="160.597" y1="230.882" x2="157.252" y2="229.959" class="gray" /></g>
<g><line x1="153.385" y1="228.644" x2="150.174" y2="227.337" class="gray" /></g>
<g><line x1="146.5" y1="225.557" x2="143.639" y2="223.935" class="gray" /></g>
<g><line x1="140.176" y1="221.764" x2="137.183" y2="219.698" class="gray" /></g>
<g><line x1="133.984" y1="217.161" x2="131.415" y2="214.83" class="gray" /></g>
<g><line x1="128.547" y1="211.921" x2="126.422" y2="209.51" class="gray" /></g>
<g><line x1="123.912" y1="206.289" x2="121.807" y2="203.222" class="gray" /></g>
<g><line x1="119.695" y1="199.726" x2="118.074" y2="196.655" class="gray" /></g>
<g><line x1="115.208" y1="195.576" x2="112.041" y2="196.786" class="gray" /></g>
<g><line x1="108.175" y1="198.118" x2="104.784" y2="199.163" class="gray" /></g>
<g><line x1="101.111" y1="200.876" x2="98.7481" y2="202.403" class="gray" /></g>
<g><line x1="95.0074" y1="203.82" x2="92.2257" y2="204.243" class="gray" /></g>
<g><line x1="88.2696" y1="205.218" x2="84.9868" y2="206.352" class="gray" /></g>
<g><line x1="81.119" y1="207.686" x2="77.8473" y2="208.814" class="gray" /></g>
<g><line x1="73.9788" y1="210.146" x2="70.6976" y2="211.275" class="gray" /></g>
<g><line x1="67.4401" y1="213.5" x2="65.7808" y2="215.457" class="gray" /></g>
<g><line x1="62.44" y1="217.354" x2="59.9093" y2="217.777" class="gray" /></g>
<g><line x1="56.1334" y1="217.068" x2="53.9284" y2="215.756" class="gray" /></g>
<g><line x1="51.5034" y1="212.776" x2="50.6669" y2="210.351" class="gray" /></g>
<g><line x1="50.7397" y1="206.51" x2="51.6674" y2="204.117" class="gray" /></g>
<g><line x1="54.2037" y1="201.232" x2="56.4567" y2="200.004" class="gray" /></g>
<g><line x1="60.2568" y1="199.439" x2="62.7696" y2="199.957" class="gray" /></g>
<g><line x1="66.7076" y1="199.705" x2="69.9888" y2="198.576" class="gray" /></g>
<g><line x1="73.8568" y1="197.242" x2="77.1396" y2="196.108" class="gray" /></g>
<g><line x1="81.0073" y1="194.774" x2="84.279" y2="193.646" class="gray" /></g>
<g><line x1="85.8782" y1="190.962" x2="85.5168" y2="188.784" class="gray" /></g>
<g><line x1="86.5831" y1="185.276" x2="88.0951" y2="183.667" class="gray" /></g>
<g><line x1="91.5313" y1="182.386" x2="93.7272" y2="182.613" class="gray" /></g>
<g><line x1="96.8298" y1="184.568" x2="97.9819" y2="186.451" class="gray" /></g>
<g><line x1="100.999" y1="187.577" x2="104.19" y2="186.565" class="gray" /></g>
<g><line x1="108.043" y1="185.197" x2="111.026" y2="184.024" class="gray" /></g>
<g><line x1="112.62" y1="181.254" x2="112.099" y2="177.858" class="gray" /></g>
<g><line x1="111.662" y1="173.794" x2="111.447" y2="170.327" class="gray" /></g>
<g><line x1="111.484" y1="166.247" x2="111.765" y2="162.775" class="gray" /></g>
<g><line x1="112.279" y1="158.72" x2="112.87" y2="155.301" class="gray" /></g>
<g><line x1="113.802" y1="151.325" x2="114.727" y2="148.207" class="gray" /></g>
<g><line x1="116.059" y1="144.342" x2="117.38" y2="140.989" class="gray" /></g>
<g><line x1="119.189" y1="137.336" x2="121.04" y2="134.276" class="gray" /></g>
<g><line x1="123.318" y1="130.882" x2="125.381" y2="128.099" class="gray" /></g>
<g><line x1="127.97" y1="124.937" x2="130.199" y2="122.465" class="gray" /></g>
<g><line x1="133.134" y1="119.628" x2="135.785" y2="117.394" class="gray" /></g>
<g><line x1="139.057" y1="114.95" x2="141.952" y2="113.042" class="gray" /></g>
<g><line x1="145.485" y1="110.993" x2="148.584" y2="109.428" class="gray" /></g>
<g><line x1="152.338" y1="107.823" x2="155.791" y2="106.599" class="gray" /></g>
<g><line x1="159.71" y1="105.443" x2="163.089" y2="104.639" class="gray" /></g>
<g><line x1="167.111" y1="103.928" x2="170.558" y2="103.524" class="gray" /></g>
<g><line x1="174.635" y1="103.286" x2="178.104" y2="103.286" class="gray" /></g>
<g><line x1="182.174" y1="103.582" x2="185.575" y2="104.08" class="gray" /></g>
<g><line x1="189.602" y1="104.792" x2="193.007" y2="105.499" class="gray" /></g>
<g><line x1="196.911" y1="106.671" x2="200.158" y2="107.961" class="gray" /></g>
<g><line x1="203.9" y1="109.608" x2="206.819" y2="111.023" class="gray" /></g>
<g><line x1="210.384" y1="113.016" x2="213.455" y2="114.975" class="gray" /></g>
<g><line x1="216.709" y1="117.434" x2="219.37" y2="119.797" class="gray" /></g>
<g><line x1="222.301" y1="122.646" x2="224.678" y2="125.175" class="gray" /></g>
<g><line x1="227.298" y1="128.309" x2="229.361" y2="131.092" class="gray" /></g>
<g><line x1="231.597" y1="134.511" x2="233.322" y2="137.521" class="gray" /></g>
<g><line x1="235.143" y1="141.177" x2="236.506" y2="144.365" class="gray" /></g>
<g><line x1="237.891" y1="148.207" x2="238.878" y2="151.534" class="gray" /></g>
<g><line x1="239.775" y1="155.517" x2="240.274" y2="158.714" class="gray" /></g>
<g><line x1="240.737" y1="162.776" x2="241.002" y2="166.455" class="gray" /></g>
<g><line x1="241.035" y1="170.538" x2="240.854" y2="173.793" class="gray" /></g>
<g><line x1="240.371" y1="177.848" x2="239.708" y2="181.464" class="gray" /></g>
<g><line x1="238.741" y1="185.432" x2="237.788" y2="188.549" class="gray" /></g>
<g><line x1="236.376" y1="192.383" x2="234.913" y2="195.759" class="gray" /></g>
<g><line x1="233.054" y1="199.394" x2="231.385" y2="202.198" class="gray" /></g>
<g><line x1="229.075" y1="205.564" x2="226.854" y2="208.388" class="gray" /></g>
<g><line x1="224.177" y1="211.476" x2="221.782" y2="213.986" class="gray" /></g>
<g><line x1="218.839" y1="216.823" x2="216.23" y2="219.138" class="gray" /></g>
<g><line x1="212.945" y1="221.548" x2="209.954" y2="223.343" class="gray" /></g>
<g><line x1="209.084" y1="226.24" x2="210.625" y2="229.451" class="gray" /></g>
<g><line x1="212.349" y1="233.161" x2="213.77" y2="236.32" class="gray" /></g>
<g><line x1="215.414" y1="240.067" x2="216.845" y2="243.415" class="gray" /></g>
<g><line x1="219.18" y1="246.653" x2="221.769" y2="248.948" class="gray" /></g>
<g><line x1="223.3" y1="252.351" x2="223.3" y2="255.82" class="gray" /></g>
<g><line x1="224.125" y1="259.738" x2="225.424" y2="262.684" class="gray" /></g>
<g><line x1="227.1" y1="266.416" x2="228.649" y2="269.805" class="gray" /></g>
<g><line x1="231.297" y1="272.642" x2="233.63" y2="273.908" class="gray" /></g>
<g><line x1="236.297" y1="276.736" x2="237.424" y2="279.139" class="gray" /></g>
<g><line x1="237.893" y1="282.997" x2="237.375" y2="285.6" class="gray" /></g>
<g><line x1="235.464" y1="288.985" x2="233.503" y2="290.774" class="gray" /></g>
<g><line x1="229.957" y1="292.366" x2="227.318" y2="292.643" class="gray" /></g>
<g><line x1="223.519" y1="291.821" x2="221.229" y2="290.478" class="gray" /></g>
<g><line x1="218.658" y1="287.563" x2="217.611" y2="285.124" class="gray" /></g>
<g><line x1="217.27" y1="281.252" x2="217.874" y2="278.668" class="gray" /></g>
<g><line x1="217.5" y1="274.81" x2="216.079" y2="271.651" class="gray" /></g>
<g><line x1="214.401" y1="267.92" x2="212.978" y2="264.752" class="gray" /></g>
<g><line x1="210.61" y1="261.527" x2="208.019" y2="259.224" class="gray" /></g>
<g><line x1="206.49" y1="255.82" x2="206.49" y2="252.351" class="gray" /></g>
<g><line x1="205.593" y1="248.467" x2="203.926" y2="245.045" class="gray" /></g>
<g><line x1="202.254" y1="241.313" x2="201.065" y2="238.409" class="gray" /></g>
<g><line x1="199.45" y1="234.65" x2="198.029" y2="231.491" class="gray" /></g>
<g><line x1="195.201" y1="230.107" x2="191.738" y2="230.945" class="gray" /></g>
<g><line x1="187.738" y1="231.799" x2="184.441" y2="232.412" class="gray" /></g>
<g><line x1="184.324" y1="232.014" x2="186.946" y2="230.945" class="gray" /></g>
<g><line x1="190.876" y1="230.382" x2="193.693" y2="230.671" class="gray" /></g>
<g><line x1="197.426" y1="232.022" x2="199.776" y2="233.602" class="gray" /></g>
<g><line x1="202.435" y1="236.549" x2="203.767" y2="239.048" class="gray" /></g>
<g><line x1="204.729" y1="242.899" x2="204.729" y2="245.731" class="gray" /></g>
<g><line x1="203.767" y1="249.583" x2="202.435" y2="252.082" class="gray" /></g>
<g><line x1="199.776" y1="255.029" x2="197.426" y2="256.609" class="gray" /></g>
<g><line x1="193.693" y1="257.96" x2="190.876" y2="258.249" class="gray" /></g>
<g><line x1="186.946" y1="257.686" x2="184.324" y2="256.617" class="gray" /></g>
<g><line x1="182.446" y1="257.891" x2="182.473" y2="261.15" class="gray" /></g>
<g><line x1="182.474" y1="265.241" x2="182.445" y2="268.92" class="gray" /></g>
<g><line x1="182.388" y1="273.01" x2="182.321" y2="276.27" class="gray" /></g>
<g><line x1="182.319" y1="280.361" x2="182.39" y2="284.04" class="gray" /></g>
<g><line x1="183.884" y1="287.523" x2="186.175" y2="289.787" class="gray" /></g>
<g><line x1="189.675" y1="291.225" x2="193.344" y2="291.225" class="gray" /></g>
<g><line x1="197.434" y1="291.282" x2="200.855" y2="291.378" class="gray" /></g>
<g><line x1="204.945" y1="291.435" x2="208.414" y2="291.435" class="gray" /></g>
<g><line x1="211.855" y1="289.94" x2="214.227" y2="287.399" class="gray" /></g>
<g><line x1="217.019" y1="284.408" x2="219.391" y2="281.867" class="gray" /></g>
<g><line x1="220.787" y1="278.326" x2="220.787" y2="274.858" class="gray" /></g>
<g><line x1="220.787" y1="270.766" x2="220.787" y2="267.298" class="gray" /></g>
<g><line x1="220.787" y1="263.206" x2="220.787" y2="259.738" class="gray" /></g>
<g><line x1="220.828" y1="255.647" x2="220.895" y2="252.387" class="gray" /></g>
<g><line x1="220.937" y1="248.296" x2="220.937" y2="244.828" class="gray" /></g>
<g><line x1="220.952" y1="240.736" x2="220.981" y2="237.058" class="gray" /></g>
<g><line x1="220.98" y1="232.966" x2="220.953" y2="229.708" class="gray" /></g>
<g><line x1="218.965" y1="228.209" x2="216.365" y2="228.931" class="gray" /></g>
<g><line x1="212.566" y1="228.56" x2="210.155" y2="227.348" class="gray" /></g>
<g><line x1="207.591" y1="224.521" x2="206.619" y2="222.003" class="gray" /></g>
<g><line x1="206.619" y1="218.186" x2="207.591" y2="215.669" class="gray" /></g>
<g><line x1="210.155" y1="212.842" x2="212.566" y2="211.63" class="gray" /></g>
<g><line x1="216.365" y1="211.258" x2="218.965" y2="211.98" class="gray" /></g>
<g><line x1="220.937" y1="210.482" x2="220.937" y2="207.014" class="gray" /></g>
<g><line x1="220.897" y1="202.922" x2="220.826" y2="199.243" class="gray" /></g>
<g><line x1="219.96" y1="195.326" x2="218.663" y2="192.389" class="gray" /></g>
<g><line x1="218.675" y1="188.652" x2="220.098" y2="185.484" class="gray" /></g>
<g><line x1="220.842" y1="181.574" x2="220.671" y2="177.891" class="gray" /></g>
<g><line x1="220.677" y1="173.805" x2="220.836" y2="170.541" class="gray" /></g>
<g><line x1="220.937" y1="166.452" x2="220.937" y2="162.984" class="gray" /></g>
<g><line x1="220.952" y1="158.892" x2="220.981" y2="155.213" class="gray" /></g>
<g><line x1="218.987" y1="152.785" x2="215.666" y2="152.153" class="gray" /></g>
<g><line x1="211.722" y1="151.103" x2="208.526" y2="150" class="gray" /></g>
<g><line x1="204.774" y1="148.395" x2="201.769" y2="146.845" class="gray" /></g>
<g><line x1="198.287" y1="144.717" x2="195.536" y2="142.752" class="gray" /></g>
<g><line x1="192.395" y1="140.147" x2="189.954" y2="137.807" class="gray" /></g>
<g><line x1="187.22" y1="134.777" x2="185.141" y2="132.111" class="gray" /></g>
<g><line x1="182.87" y1="128.721" x2="181.195" y2="125.784" class="gray" /></g>
<g><line x1="179.434" y1="122.102" x2="178.198" y2="118.955" class="gray" /></g>
<g><line x1="176.984" y1="115.059" x2="176.213" y2="111.767" class="gray" /></g>
<g><line x1="175.571" y1="107.737" x2="175.28" y2="104.369" class="gray" /></g>
<g><line x1="175.223" y1="100.288" x2="175.419" y2="96.9128" class="gray" /></g>
<g><line x1="175.949" y1="92.8665" x2="176.628" y2="89.5543" class="gray" /></g>
<g><line x1="177.732" y1="85.6259" x2="178.88" y2="82.4454" class="gray" /></g>
<g><line x1="180.537" y1="78.7163" x2="182.129" y2="75.7335" class="gray" /></g>
<g><line x1="184.305" y1="72.2811" x2="186.309" y2="69.5577" class="gray" /></g>
<g><line x1="188.957" y1="66.4534" x2="191.331" y2="64.046" class="gray" /></g>
<g><line x1="194.399" y1="61.3541" x2="197.094" y2="59.3124" class="gray" /></g>
<g><line x1="200.515" y1="57.0888" x2="203.476" y2="55.4552" class="gray" /></g>
<g><line x1="207.181" y1="53.7459" x2="210.345" y2="52.5542" class="gray" /></g>
<g><line x1="214.258" y1="51.3946" x2="217.56" y2="50.6696" class="gray" /></g>
<g><line x1="221.599" y1="50.0837" x2="224.971" y2="49.8404" class="gray" /></g>
<g><line x1="229.052" y1="49.8404" x2="232.424" y2="50.0837" class="gray" /></g>
<g><line x1="236.463" y1="50.6696" x2="239.765" y2="51.3946" class="gray" /></g>
<g><line x1="243.678" y1="52.5542" x2="246.842" y2="53.7459" class="gray" /></g>
<g><line x1="250.547" y1="55.4552" x2="253.508" y2="57.0888" class="gray" /></g>
<g><line x1="256.93" y1="59.3124" x2="259.625" y2="61.3541" class="gray" /></g>
<g><line x1="262.692" y1="64.046" x2="265.066" y2="66.4534" class="gray" /></g>
<g><line x1="267.714" y1="69.5577" x2="269.718" y2="72.2811" class="gray" /></g>
<g><line x1="271.894" y1="75.7335" x2="273.486" y2="78.7163" class="gray" /></g>
<g><line x1="275.143" y1="82.4454" x2="276.291" y2="85.6259" class="gray" /></g>
<g><line x1="277.395" y1="89.5543" x2="278.074" y2="92.8665" class="gray" /></g>
<g><line x1="278.604" y1="96.9128" x2="278.8" y2="100.288" class="gray" /></g>
<g><line x1="278.743" y1="104.369" x2="278.452" y2="107.737" class="gray" /></g>
<g><line x1="277.81" y1="111.767" x2="277.039" y2="115.059" class="gray" /></g>
<g><line x1="275.825" y1="118.955" x2="274.589" y2="122.102" class="gray" /></g>
<g><line x1="272.828" y1="125.784" x2="271.154" y2="128.721" class="gray" /></g>
<g><line x1="268.882" y1="132.111" x2="266.803" y2="134.777" class="gray" /></g>
<g><line x1="264.069" y1="137.807" x2="261.628" y2="140.147" class="gray" /></g>
<g><line x1="258.487" y1="142.752" x2="255.736" y2="144.717" class="gray" /></g>
<g><line x1="252.254" y1="146.845" x2="249.249" y2="148.395" class="gray" /></g>
<g><line x1="245.497" y1="150" x2="242.301" y2="151.103" class="gray" /></g>
<g><line x1="238.358" y1="152.153" x2="235.036" y2="152.785" class="gray" /></g>
<g><line x1="233.066" y1="155.213" x2="233.137" y2="158.892" class="gray" /></g>
<g><line x1="233.177" y1="162.984" x2="233.177" y2="166.452" class="gray" /></g>
<g><line x1="233.135" y1="170.543" x2="233.068" y2="173.803" class="gray" /></g>
<g><line x1="233.066" y1="177.893" x2="233.137" y2="181.572" class="gray" /></g>
<g><line x1="234.015" y1="185.484" x2="235.438" y2="188.652" class="gray" /></g>
<g><line x1="235.429" y1="192.38" x2="234.084" y2="195.336" class="gray" /></g>
<g><line x1="233.221" y1="199.243" x2="233.192" y2="202.922" class="gray" /></g>
<g><line x1="233.177" y1="207.014" x2="233.177" y2="210.482" class="gray" /></g>
<g><line x1="233.177" y1="214.574" x2="233.177" y2="225.616" class="gray" /></g>
<g><line x1="233.135" y1="229.707" x2="233.068" y2="232.967" class="gray" /></g>
<g><line x1="233.066" y1="237.057" x2="233.137" y2="240.737" class="gray" /></g>
<g><line x1="233.177" y1="244.828" x2="233.177" y2="248.296" class="gray" /></g>
<g><line x1="233.193" y1="252.388" x2="233.22" y2="255.646" class="gray" /></g>
<g><line x1="233.237" y1="259.738" x2="233.237" y2="263.206" class="gray" /></g>
<g><line x1="233.237" y1="267.298" x2="233.237" y2="270.766" class="gray" /></g>
<g><line x1="233.18" y1="274.857" x2="233.083" y2="278.327" class="gray" /></g>
<g><line x1="234.465" y1="281.826" x2="236.91" y2="284.297" class="gray" /></g>
<g><line x1="240.393" y1="285.695" x2="243.867" y2="285.599" class="gray" /></g>
<g><line x1="247.958" y1="285.543" x2="251.434" y2="285.543" class="gray" /></g>
<g><line x1="255.525" y1="285.543" x2="259.001" y2="285.543" class="gray" /></g>
<g><line x1="263.092" y1="285.543" x2="266.568" y2="285.543" class="gray" /></g>
<g><line x1="270.659" y1="285.543" x2="274.135" y2="285.543" class="gray" /></g>
<g><line x1="278.226" y1="285.599" x2="281.7" y2="285.693" class="gray" /></g>
<g><line x1="285.791" y1="285.749" x2="289.266" y2="285.749" class="gray" /></g>
<g><line x1="293.358" y1="285.749" x2="296.833" y2="285.749" class="gray" /></g>
</svg>
