<svg
	xmlns="http://www.w3.org/2000/svg"
	width="307.017"
	height="302.126"
	style="font-size: 3.068569px; font-weight: bold; font-family: Helvetica; " >
<g><style type="text/css" >
<!-- create color definitions -->
<![CDATA[
text.red {fill: rgb(255, 0, 255); }
text.green {fill: rgb(0, 255, 0); }
text.blue {fill: rgb(0, 0, 255); }
text.black {fill: rgb(0, 0, 0); }
text.gray {fill: rgb(204, 204, 204); }
text.brown {fill: rgb(211.65, 104.55, 30.6); }
text {fill: rgb(0, 0, 0); text-anchor: middle; alignment-baseline: middle; }
circle.red {stroke: rgb(255, 0, 255); fill: none; }
circle.green {stroke: rgb(0, 255, 0); fill: none; }
circle.blue {stroke: rgb(0, 0, 255); fill: none; }
circle.black {stroke: rgb(0, 0, 0); fill: none; }
circle.gray {stroke: rgb(204, 204, 204); fill: none; }
circle.brown {stroke: rgb(211.65, 104.55, 30.6); fill: none; }
circle {stroke: rgb(0, 0, 0); }
line.red {stroke: rgb(255, 0, 255); stroke-width: 0.383571; }
line.green {stroke: rgb(0, 255, 0); stroke-width: 0.383571; }
line.blue {stroke: rgb(0, 0, 255); stroke-width: 0.383571; }
line.black {stroke: rgb(0, 0, 0); stroke-width: 0.383571; }
line.gray {stroke: rgb(204, 204, 204); stroke-width: 0.383571; }
line.brown {stroke: rgb(211.65, 104.55, 30.6); stroke-width: 0.383571; }
line {stroke: rgb(0, 0, 0); }
text.numbering-label {fill: rgb(204, 204, 204);}
line.numbering-line {stroke: rgb(204, 204, 204); stroke-width: 0.191786;}
line.predicted {stroke: rgb(0, 0, 0); stroke-dasharray: 2}
text.background {fill: rgb(255, 255, 255);
.template {visibility:hidden}
]]>
</style></g>
<g><title>0 (position.label in template: 0.5')</title><text x="133.708" y="219.214" class="green" >5'</text></g>
<g><title>1 (position.label in template: 1.N)</title><text x="141.275" y="219.214" class="green" >A</text></g>
<g><title>2 (position.label in template: 2.N)</title><text x="148.842" y="219.214" class="green" >U</text></g>
<g><title>3 (position.label in template: 3.N)</title><text x="156.409" y="219.214" class="green" >A</text></g>
<g><title>4 (position.label in template: 6.N)</title><text x="163.73" y="217.3" class="green" >C</text></g>
<g><line x1="165.776" y1="216.993" x2="173.924" y2="216.993" class="black" /></g>
<g><title>5 (position.label in template: 7.Y)</title><text x="163.79" y="209.53" class="green" >C</text></g>
<g><line x1="165.836" y1="209.223" x2="173.774" y2="209.223" class="black" /></g>
<g><title>6 (position.label in template: 8.N)</title><text x="163.73" y="202.18" class="green" >C</text></g>
<g><line x1="165.776" y1="201.873" x2="173.924" y2="201.873" class="black" /></g>
<g><title>7 (position.label in template: 9.G)</title><text x="163.37" y="194.41" class="green" >G</text></g>
<g><line x1="165.416" y1="194.103" x2="173.984" y2="194.103" class="black" /></g>
<g><title>8 (position.label in template: 10.N)</title><text x="163.73" y="187.06" class="green" >C</text></g>
<g><line x1="165.776" y1="186.753" x2="173.924" y2="186.753" class="black" /></g>
<g><title>9 (position.label in template: 12.R)</title><text x="157.728" y="182.128" class="green" >A</text></g>
<g><title>10 (position.label in template: 13.R)</title><text x="151.753" y="177.166" class="green" >U</text></g>
<g><title>10 (inserted)</title><text x="147.328" y="182.465" class="numbering-label sequential" >10</text></g>
<g><line x1="150.573" y1="178.579" x2="148.609" y2="180.931" class="numbering-line sequential" /></g>
<g><title>11 (position.label in template: 14.U)</title><text x="145.803" y="172.171" class="green" >A</text></g>
<g><title>12 (position.label in template: 15.Y)</title><text x="139.879" y="167.146" class="green" >U</text></g>
<g><title>13 (position.label in template: 16.C)</title><text x="133.982" y="162.09" class="blue" >C</text></g>
<g><title>14 (position.label in template: 17.R)</title><text x="128.111" y="157.004" class="green" >A</text></g>
<g><title>15 (position.label in template: 18.N)</title><text x="122.267" y="151.886" class="green" >U</text></g>
<g><title>16 (position.label in template: 19.U)</title><text x="116.45" y="146.738" class="blue" >U</text></g>
<g><title>17 (position.label in template: 20.C)</title><text x="110.66" y="141.56" class="black" >C</text></g>
<g><line x1="109.963" y1="139.33" x2="107.167" y2="131.607" class="black" /></g>
<g><title>18 (position.label in template: 21.N)</title><text x="103.67" y="144.23" class="green" >A</text></g>
<g><line x1="103.003" y1="141.989" x2="100.347" y2="134.287" class="black" /></g>
<g><title>19 (position.label in template: 22.R)</title><text x="96.37" y="146.48" class="green" >G</text></g>
<g><line x1="95.7347" y1="144.229" x2="93.2253" y2="136.548" class="black" /></g>
<g><title>20 (position.label in template: 23.N)</title><text x="89.37" y="149.15" class="green" >A</text></g>
<g><line x1="88.7031" y1="146.909" x2="86.0469" y2="139.207" class="black" /></g>
<g><title>20 (inserted)</title><text x="91.7273" y="155.639" class="numbering-label sequential" >20</text></g>
<g><line x1="89.9986" y1="150.881" x2="91.17" y2="154.105" class="numbering-line sequential" /></g>
<g><title>21 (position.label in template: 24.N)</title><text x="82.22" y="151.62" class="green" >C</text></g>
<g><line x1="81.5551" y1="149.379" x2="78.9049" y2="141.668" class="black" /></g>
<g><title>22 (position.label in template: 25.N)</title><text x="75.08" y="154.08" class="green" >C</text></g>
<g><line x1="74.4131" y1="151.839" x2="71.7569" y2="144.137" class="black" /></g>
<g><title>23 (position.label in template: 26.N)</title><text x="67.93" y="156.54" class="green" >C</text></g>
<g><line x1="67.2631" y1="154.299" x2="64.6069" y2="146.597" class="black" /></g>
<g><title>24 (position.label in template: 27.N)</title><text x="62.65" y="161.96" class="green" >U</text></g>
<g><title>25 (position.label in template: 28.N)</title><text x="55.09" y="161.83" class="green" >U</text></g>
<g><title>26 (position.label in template: 29.N)</title><text x="50" y="156.25" class="green" >U</text></g>
<g><title>27 (position.label in template: 30.R)</title><text x="50.42" y="148.5" class="green" >A</text></g>
<g><title>28 (position.label in template: 31.N)</title><text x="56.45" y="143.96" class="green" >U</text></g>
<g><title>29 (position.label in template: 32.N)</title><text x="63.94" y="144.97" class="green" >G</text></g>
<g><title>30 (position.label in template: 33.N)</title><text x="71.09" y="142.51" class="green" >G</text></g>
<g><title>30 (inserted)</title><text x="68.8397" y="135.983" class="numbering-label sequential" >30</text></g>
<g><line x1="70.4899" y1="140.769" x2="69.3686" y2="137.517" class="numbering-line sequential" /></g>
<g><title>31 (position.label in template: 34.N)</title><text x="78.24" y="140.04" class="green" >A</text></g>
<g><title>32 (position.label in template: 35.N)</title><text x="85.38" y="137.58" class="green" >A</text></g>
<g><title>33 (position.label in template: 36.Y)</title><text x="92.59" y="134.91" class="green" >C</text></g>
<g><title>34 (position.label in template: 37.N)</title><text x="99.68" y="132.66" class="green" >U</text></g>
<g><title>35 (position.label in template: 38.G)</title><text x="106.47" y="129.99" class="black" >G</text></g>
<g><title>36 (position.label in template: 39.U)</title><text x="105.354" y="122.707" class="black" >U</text></g>
<g><title>37 (position.label in template: 40.C)</title><text x="104.882" y="115.355" class="black" >C</text></g>
<g><title>38 (position.label in template: 41.A)</title><text x="105.425" y="108.011" class="black" >A</text></g>
<g><title>39 (position.label in template: 42.Y)</title><text x="106.631" y="100.745" class="green" >U</text></g>
<g><title>40 (position.label in template: 43.N)</title><text x="108.642" y="93.6618" class="green" >U</text></g>
<g><title>41 (position.label in template: 44.C)</title><text x="111.282" y="86.786" class="black" >C</text></g>
<g><title>42 (position.label in template: 45.A)</title><text x="114.936" y="80.4033" class="black" >A</text></g>
<g><title>43 (position.label in template: 46.A)</title><text x="119.218" y="74.4137" class="black" >A</text></g>
<g><title>44 (position.label in template: 47.C)</title><text x="124.038" y="68.8487" class="black" >C</text></g>
<g><title>45 (position.label in template: 48.C)</title><text x="129.52" y="63.9442" class="black" >C</text></g>
<g><title>46 (position.label in template: 49.C)</title><text x="135.546" y="59.7206" class="black" >C</text></g>
<g><title>47 (position.label in template: 50.C)</title><text x="142.008" y="56.2013" class="black" >C</text></g>
<g><title>48 (position.label in template: 51.A)</title><text x="148.843" y="53.4862" class="black" >A</text></g>
<g><title>49 (position.label in template: 52.A)</title><text x="155.934" y="51.5187" class="black" >A</text></g>
<g><title>50 (position.label in template: 53.A)</title><text x="163.195" y="50.3439" class="black" >A</text></g>
<g><title>50 (inserted)</title><text x="162.481" y="43.4766" class="numbering-label sequential" >50</text></g>
<g><line x1="163.005" y1="48.5126" x2="162.641" y2="45.0109" class="numbering-line sequential" /></g>
<g><title>51 (position.label in template: 54.A)</title><text x="170.543" y="50" class="black" >A</text></g>
<g><title>52 (position.label in template: 55.N)</title><text x="177.866" y="50.611" class="green" >A</text></g>
<g><title>53 (position.label in template: 56.Y)</title><text x="185.114" y="51.9159" class="green" >U</text></g>
<g><title>54 (position.label in template: 57.N)</title><text x="192.136" y="54.0541" class="green" >C</text></g>
<g><title>55 (position.label in template: 58.U)</title><text x="198.876" y="57.0181" class="black" >U</text></g>
<g><title>56 (position.label in template: 59.A)</title><text x="205.296" y="60.6057" class="black" >A</text></g>
<g><title>57 (position.label in template: 60.N)</title><text x="211.192" y="64.9858" class="green" >G</text></g>
<g><title>58 (position.label in template: 61.N)</title><text x="216.511" y="70.0734" class="green" >U</text></g>
<g><title>59 (position.label in template: 62.N)</title><text x="221.305" y="75.6529" class="green" >G</text></g>
<g><title>60 (position.label in template: 63.N)</title><text x="225.433" y="81.7413" class="green" >C</text></g>
<g><title>61 (position.label in template: 64.N)</title><text x="228.842" y="88.2606" class="green" >A</text></g>
<g><title>62 (position.label in template: 65.N)</title><text x="231.492" y="95.124" class="green" >A</text></g>
<g><title>63 (position.label in template: 66.R)</title><text x="233.318" y="102.248" class="green" >A</text></g>
<g><title>64 (position.label in template: 67.N)</title><text x="234.281" y="109.547" class="green" >U</text></g>
<g><title>65 (position.label in template: 68.A)</title><text x="234.596" y="116.898" class="black" >A</text></g>
<g><title>66 (position.label in template: 69.N)</title><text x="233.972" y="124.229" class="green" >U</text></g>
<g><title>67 (position.label in template: 70.Y)</title><text x="232.498" y="131.44" class="green" >U</text></g>
<g><title>68 (position.label in template: 71.N)</title><text x="230.204" y="138.434" class="green" >G</text></g>
<g><title>69 (position.label in template: 72.Y)</title><text x="227.169" y="145.141" class="green" >U</text></g>
<g><title>70 (position.label in template: 73.U)</title><text x="223.303" y="151.404" class="green" >C</text></g>
<g><title>71 (position.label in template: 74.U)</title><text x="218.704" y="157.157" class="black" >U</text></g>
<g><title>72 (position.label in template: 75.N)</title><text x="213.593" y="162.462" class="green" >U</text></g>
<g><title>73 (inserted)</title><text x="208.058" y="167.319" class="red" >A</text></g>
<g><title>74 (position.label in template: 76.R)</title><text x="201.74" y="171.11" class="green" >A</text></g>
<g><line x1="199.892" y1="171.681" x2="192.578" y2="175.155" class="black" /></g>
<g><title>75 (position.label in template: 77.Y)</title><text x="205.05" y="178.01" class="green" >U</text></g>
<g><line x1="203.195" y1="178.566" x2="195.685" y2="182.06" class="black" /></g>
<g><title>76 (position.label in template: 78.Y)</title><text x="208.15" y="184.9" class="green" >U</text></g>
<g><line x1="206.273" y1="185.407" x2="198.447" y2="188.799" class="black" /></g>
<g><title>77 (position.label in template: 79.N)</title><text x="211.19" y="192.01" class="green" >A</text></g>
<g><line x1="209.324" y1="192.541" x2="201.896" y2="195.875" class="black" /></g>
<g><title>78 (position.label in template: 80.N)</title><text x="216.84" y="197.02" class="green" >C</text></g>
<g><title>79 (position.label in template: 81.N)</title><text x="216.84" y="204.58" class="green" >U</text></g>
<g><line x1="214.974" y1="205.112" x2="207.546" y2="208.454" class="black" /></g>
<g><title>80 (position.label in template: 82.U)</title><text x="219.79" y="211.27" class="green" >U</text></g>
<g><line x1="217.942" y1="211.841" x2="210.628" y2="215.315" class="black" /></g>
<g><title>81 (position.label in template: 83.N)</title><text x="223.04" y="218.38" class="green" >A</text></g>
<g><line x1="221.174" y1="218.911" x2="213.746" y2="222.245" class="black" /></g>
<g><title>82 (position.label in template: 84.R)</title><text x="230.183" y="219.518" class="green" >G</text></g>
<g><title>83 (position.label in template: 85.N)</title><text x="236.214" y="223.511" class="green" >G</text></g>
<g><title>84 (position.label in template: 86.Y)</title><text x="240.049" y="229.644" class="green" >C</text></g>
<g><title>85 (position.label in template: 87.N)</title><text x="241.001" y="236.814" class="green" >U</text></g>
<g><title>86 (position.label in template: 88.Y)</title><text x="238.899" y="243.735" class="green" >A</text></g>
<g><title>87 (position.label in template: 89.N)</title><text x="234.119" y="249.164" class="green" >A</text></g>
<g><title>88 (position.label in template: 90.N)</title><text x="227.521" y="252.126" class="green" >A</text></g>
<g><title>89 (position.label in template: 91.N)</title><text x="220.287" y="252.09" class="green" >A</text></g>
<g><title>90 (inserted)</title><text x="213.719" y="249.062" class="red" >G</text></g>
<g><title>91 (inserted)</title><text x="208.993" y="243.586" class="red" >A</text></g>
<g><title>92 (inserted)</title><text x="206.96" y="236.644" class="red" >A</text></g>
<g><title>93 (inserted)</title><text x="207.983" y="229.484" class="red" >A</text></g>
<g><title>94 (position.label in template: 92.N)</title><text x="211.88" y="223.39" class="green" >U</text></g>
<g><title>95 (position.label in template: 93.N)</title><text x="208.78" y="216.5" class="green" >A</text></g>
<g><title>96 (position.label in template: 94.N)</title><text x="205.68" y="209.6" class="green" >A</text></g>
<g><title>97 (position.label in template: 95.N)</title><text x="200.03" y="204.58" class="green" >G</text></g>
<g><title>98 (position.label in template: 96.N)</title><text x="200.03" y="197.02" class="green" >U</text></g>
<g><title>99 (position.label in template: 97.G)</title><text x="196.57" y="189.92" class="green" >A</text></g>
<g><title>100 (position.label in template: 98.N)</title><text x="193.83" y="183.23" class="green" >U</text></g>
<g><title>100 (inserted)</title><text x="185.669" y="181.729" class="numbering-label sequential" >100</text></g>
<g><line x1="192.139" y1="183.957" x2="188.431" y2="182.237" class="numbering-line sequential" /></g>
<g><title>101 (position.label in template: 99.N)</title><text x="190.73" y="176.34" class="green" >U</text></g>
<g><title>102 (position.label in template: 100.R)</title><text x="190.403" y="182.069" class="green" >A</text></g>
<g><title>103 (position.label in template: 102.N)</title><text x="186.942" y="186.645" class="green" >A</text></g>
<g><title>104 (inserted)</title><text x="181.519" y="188.521" class="red" >A</text></g>
<g><title>105 (position.label in template: 103.N)</title><text x="175.97" y="187.06" class="green" >G</text></g>
<g><title>106 (position.label in template: 104.Y)</title><text x="176.03" y="194.41" class="green" >C</text></g>
<g><title>107 (position.label in template: 105.N)</title><text x="175.97" y="202.18" class="green" >G</text></g>
<g><title>108 (position.label in template: 106.R)</title><text x="175.82" y="209.53" class="green" >G</text></g>
<g><title>109 (position.label in template: 107.N)</title><text x="175.97" y="217.3" class="green" >G</text></g>
<g><title>110 (position.label in template: 108.R)</title><text x="181.17" y="222.44" class="green" >A</text></g>
<g><title>111 (position.label in template: 109.Y)</title><text x="188.93" y="222.44" class="green" >C</text></g>
<g><title>112 (position.label in template: 112.R)</title><text x="209.19" y="217.09" class="green" >A</text></g>
<g><line x1="211.236" y1="216.783" x2="219.384" y2="216.783" class="black" /></g>
<g><title>113 (position.label in template: 113.R)</title><text x="209.19" y="209.53" class="green" >A</text></g>
<g><line x1="211.236" y1="209.223" x2="219.594" y2="209.223" class="black" /></g>
<g><title>114 (position.label in template: 114.R)</title><text x="209.19" y="201.97" class="green" >G</text></g>
<g><line x1="211.236" y1="201.663" x2="219.594" y2="201.663" class="black" /></g>
<g><title>115 (position.label in template: 115.R)</title><text x="209.19" y="194.41" class="green" >G</text></g>
<g><line x1="211.236" y1="194.103" x2="219.594" y2="194.103" class="black" /></g>
<g><title>116 (position.label in template: 116.N)</title><text x="209.34" y="187.06" class="green" >C</text></g>
<g><line x1="211.386" y1="186.753" x2="219.534" y2="186.753" class="black" /></g>
<g><title>117 (position.label in template: 118.N)</title><text x="209.34" y="179.5" class="green" >A</text></g>
<g><line x1="211.386" y1="179.193" x2="219.534" y2="179.193" class="black" /></g>
<g><title>118 (position.label in template: 119.Y)</title><text x="209.4" y="171.73" class="green" >U</text></g>
<g><line x1="211.446" y1="171.423" x2="219.384" y2="171.423" class="black" /></g>
<g><title>119 (position.label in template: 120.N)</title><text x="209.34" y="164.38" class="green" >C</text></g>
<g><line x1="211.386" y1="164.073" x2="219.534" y2="164.073" class="black" /></g>
<g><title>120 (position.label in template: 121.N)</title><text x="201.78" y="164.38" class="green" >G</text></g>
<g><title>121 (position.label in template: 122.N)</title><text x="201.78" y="156.82" class="green" >A</text></g>
<g><title>122 (position.label in template: 123.N)</title><text x="209.34" y="156.82" class="green" >C</text></g>
<g><line x1="211.386" y1="156.513" x2="219.534" y2="156.513" class="black" /></g>
<g><title>123 (position.label in template: 124.N)</title><text x="209.34" y="149.26" class="green" >A</text></g>
<g><line x1="211.386" y1="148.953" x2="219.534" y2="148.953" class="black" /></g>
<g><title>124 (position.label in template: 125.U)</title><text x="209.19" y="141.49" class="black" >U</text></g>
<g><line x1="211.236" y1="141.183" x2="219.594" y2="141.183" class="black" /></g>
<g><title>125 (position.label in template: 126.N)</title><text x="205.098" y="137.265" class="green" >U</text></g>
<g><title>126 (position.label in template: 127.N)</title><text x="209.323" y="133.173" class="green" >U</text></g>
<g><line x1="211.368" y1="132.866" x2="219.517" y2="132.866" class="black" /></g>
<g><title>127 (position.label in template: 128.G)</title><text x="208.963" y="125.403" class="black" >G</text></g>
<g><line x1="211.008" y1="125.096" x2="219.367" y2="125.096" class="black" /></g>
<g><title>128 (position.label in template: 129.N)</title><text x="209.323" y="118.053" class="green" >A</text></g>
<g><line x1="211.368" y1="117.746" x2="219.517" y2="117.746" class="black" /></g>
<g><title>129 (position.label in template: 130.N)</title><text x="209.323" y="110.493" class="green" >U</text></g>
<g><line x1="211.368" y1="110.186" x2="219.517" y2="110.186" class="black" /></g>
<g><title>130 (position.label in template: 131.A)</title><text x="209.383" y="102.723" class="green" >A</text></g>
<g><line x1="211.428" y1="102.416" x2="219.367" y2="102.416" class="black" /></g>
<g><title>131 (position.label in template: 132.N)</title><text x="203.973" y="97.593" class="green" >C</text></g>
<g><title>132 (position.label in template: 133.N)</title><text x="202.493" y="90.183" class="green" >A</text></g>
<g><title>133 (position.label in template: 134.N)</title><text x="205.383" y="83.193" class="green" >A</text></g>
<g><title>134 (position.label in template: 135.N)</title><text x="211.663" y="78.993" class="green" >A</text></g>
<g><title>135 (position.label in template: 136.U)</title><text x="219.073" y="78.783" class="black" >U</text></g>
<g><title>136 (position.label in template: 137.A)</title><text x="225.563" y="82.983" class="black" >A</text></g>
<g><title>137 (position.label in template: 138.U)</title><text x="228.253" y="89.973" class="black" >U</text></g>
<g><title>138 (position.label in template: 139.U)</title><text x="226.763" y="97.383" class="black" >U</text></g>
<g><title>139 (position.label in template: 140.U)</title><text x="221.413" y="102.723" class="green" >G</text></g>
<g><title>140 (position.label in template: 141.N)</title><text x="221.563" y="110.493" class="green" >A</text></g>
<g><title>141 (position.label in template: 142.N)</title><text x="221.563" y="118.053" class="green" >U</text></g>
<g><title>142 (position.label in template: 143.C)</title><text x="221.413" y="125.403" class="black" >C</text></g>
<g><title>143 (position.label in template: 144.N)</title><text x="221.563" y="133.173" class="green" >A</text></g>
<g><title>144 (position.label in template: 146.A)</title><text x="221.64" y="141.49" class="black" >A</text></g>
<g><title>145 (position.label in template: 147.N)</title><text x="221.58" y="149.26" class="green" >U</text></g>
<g><title>146 (position.label in template: 148.N)</title><text x="221.58" y="156.82" class="green" >G</text></g>
<g><title>147 (position.label in template: 149.N)</title><text x="221.58" y="164.38" class="green" >G</text></g>
<g><title>148 (position.label in template: 150.R)</title><text x="221.43" y="171.73" class="green" >A</text></g>
<g><title>149 (position.label in template: 151.N)</title><text x="221.58" y="179.5" class="green" >U</text></g>
<g><title>150 (position.label in template: 152.N)</title><text x="221.58" y="187.06" class="green" >G</text></g>
<g><title>150 (inserted)</title><text x="228.484" y="187.032" class="numbering-label sequential" >150</text></g>
<g><line x1="223.421" y1="187.053" x2="225.723" y2="187.043" class="numbering-line sequential" /></g>
<g><title>151 (position.label in template: 153.Y)</title><text x="221.64" y="194.41" class="green" >U</text></g>
<g><title>152 (position.label in template: 154.Y)</title><text x="221.64" y="201.97" class="green" >C</text></g>
<g><title>153 (position.label in template: 155.Y)</title><text x="221.64" y="209.53" class="green" >U</text></g>
<g><title>154 (position.label in template: 156.U)</title><text x="221.43" y="217.09" class="green" >U</text></g>
<g><title>155 (position.label in template: 157.N)</title><text x="226.752" y="222.47" class="green" >A</text></g>
<g><title>156 (position.label in template: 158.Y)</title><text x="234.316" y="222.261" class="green" >U</text></g>
<g><title>157 (position.label in template: 159.Y)</title><text x="241.883" y="222.261" class="green" >U</text></g>
<g><title>158 (position.label in template: 160.U)</title><text x="249.45" y="222.261" class="black" >U</text></g>
<g><title>159 (position.label in template: 161.Y)</title><text x="257.017" y="222.261" class="green" >U</text></g>
<g><title>160 (position.label in template: 166.3')</title><text x="264.584" y="222.261" class="green" >3'</text></g>
<g><line x1="135.754" y1="218.907" x2="139.229" y2="218.907" class="gray" /></g>
<g><line x1="143.321" y1="218.907" x2="146.796" y2="218.907" class="gray" /></g>
<g><line x1="150.888" y1="218.907" x2="154.363" y2="218.907" class="gray" /></g>
<g><line x1="158.388" y1="218.39" x2="161.751" y2="217.511" class="gray" /></g>
<g><line x1="163.746" y1="214.947" x2="163.774" y2="211.269" class="gray" /></g>
<g><line x1="163.773" y1="207.177" x2="163.747" y2="203.919" class="gray" /></g>
<g><line x1="163.635" y1="199.83" x2="163.465" y2="196.147" class="gray" /></g>
<g><line x1="163.47" y1="192.06" x2="163.63" y2="188.796" class="gray" /></g>
<g><line x1="162.149" y1="185.454" x2="159.309" y2="183.12" class="gray" /></g>
<g><line x1="156.155" y1="180.515" x2="153.326" y2="178.166" class="gray" /></g>
<g><line x1="150.186" y1="175.543" x2="147.37" y2="173.18" class="gray" /></g>
<g><line x1="144.243" y1="170.541" x2="141.439" y2="168.163" class="gray" /></g>
<g><line x1="138.326" y1="165.508" x2="135.535" y2="163.115" class="gray" /></g>
<g><line x1="132.436" y1="160.444" x2="129.657" y2="158.036" class="gray" /></g>
<g><line x1="126.572" y1="155.349" x2="123.806" y2="152.927" class="gray" /></g>
<g><line x1="120.735" y1="150.224" x2="117.982" y2="147.787" class="gray" /></g>
<g><line x1="114.925" y1="145.068" x2="112.185" y2="142.617" class="gray" /></g>
<g><line x1="108.749" y1="141.983" x2="105.581" y2="143.193" class="gray" /></g>
<g><line x1="101.715" y1="144.526" x2="98.325" y2="145.571" class="gray" /></g>
<g><line x1="94.4586" y1="146.902" x2="91.2814" y2="148.114" class="gray" /></g>
<g><line x1="87.4364" y1="149.511" x2="84.1536" y2="150.645" class="gray" /></g>
<g><line x1="80.2859" y1="151.98" x2="77.0141" y2="153.107" class="gray" /></g>
<g><line x1="73.1456" y1="154.439" x2="69.8644" y2="155.568" class="gray" /></g>
<g><line x1="66.5025" y1="157.698" x2="64.0775" y2="160.188" class="gray" /></g>
<g><line x1="60.6046" y1="161.618" x2="57.1354" y2="161.558" class="gray" /></g>
<g><line x1="53.7113" y1="160.012" x2="51.3787" y2="157.455" class="gray" /></g>
<g><line x1="50.1107" y1="153.9" x2="50.3093" y2="150.236" class="gray" /></g>
<g><line x1="52.0543" y1="146.963" x2="54.8157" y2="144.884" class="gray" /></g>
<g><line x1="58.4774" y1="143.927" x2="61.9126" y2="144.39" class="gray" /></g>
<g><line x1="65.8744" y1="143.998" x2="69.1556" y2="142.869" class="gray" /></g>
<g><line x1="73.0236" y1="141.535" x2="76.3064" y2="140.401" class="gray" /></g>
<g><line x1="80.1741" y1="139.067" x2="83.4459" y2="137.94" class="gray" /></g>
<g><line x1="87.2984" y1="136.563" x2="90.6716" y2="135.314" class="gray" /></g>
<g><line x1="94.5399" y1="133.984" x2="97.7301" y2="132.972" class="gray" /></g>
<g><line x1="101.584" y1="131.605" x2="104.566" y2="130.432" class="gray" /></g>
<g><line x1="106.16" y1="127.661" x2="105.664" y2="124.423" class="gray" /></g>
<g><line x1="105.223" y1="120.359" x2="105.013" y2="117.09" class="gray" /></g>
<g><line x1="105.033" y1="113.008" x2="105.274" y2="109.744" class="gray" /></g>
<g><line x1="105.76" y1="105.686" x2="106.296" y2="102.456" class="gray" /></g>
<g><line x1="107.19" y1="98.4702" x2="108.083" y2="95.3229" class="gray" /></g>
<g><line x1="109.375" y1="91.4452" x2="110.548" y2="88.3889" class="gray" /></g>
<g><line x1="112.298" y1="84.7038" x2="113.92" y2="81.8718" class="gray" /></g>
<g><line x1="116.126" y1="78.4323" x2="118.028" y2="75.771" class="gray" /></g>
<g><line x1="120.557" y1="72.5605" x2="122.699" y2="70.0882" class="gray" /></g>
<g><line x1="125.562" y1="67.1779" x2="127.996" y2="65.0013" class="gray" /></g>
<g><line x1="131.195" y1="62.4631" x2="133.871" y2="60.588" class="gray" /></g>
<g><line x1="137.342" y1="58.4353" x2="140.211" y2="56.8729" class="gray" /></g>
<g><line x1="143.909" y1="55.1393" x2="146.942" y2="53.9345" class="gray" /></g>
<g><line x1="150.815" y1="52.6324" x2="153.962" y2="51.7589" class="gray" /></g>
<g><line x1="157.953" y1="50.8852" x2="161.176" y2="50.3638" class="gray" /></g>
<g><line x1="165.239" y1="49.9414" x2="168.499" y2="49.7888" class="gray" /></g>
<g><line x1="172.581" y1="49.8632" x2="175.827" y2="50.134" class="gray" /></g>
<g><line x1="179.879" y1="50.6666" x2="183.101" y2="51.2466" class="gray" /></g>
<g><line x1="187.071" y1="52.205" x2="190.179" y2="53.1513" class="gray" /></g>
<g><line x1="194.008" y1="54.5708" x2="197.003" y2="55.8877" class="gray" /></g>
<g><line x1="200.661" y1="57.7091" x2="203.511" y2="59.301" class="gray" /></g>
<g><line x1="206.939" y1="61.5188" x2="209.55" y2="63.459" class="gray" /></g>
<g><line x1="212.671" y1="66.0929" x2="215.033" y2="68.3525" class="gray" /></g>
<g><line x1="217.845" y1="71.3182" x2="219.972" y2="73.7943" class="gray" /></g>
<g><line x1="222.453" y1="77.0392" x2="224.285" y2="79.7412" class="gray" /></g>
<g><line x1="226.381" y1="83.2473" x2="227.894" y2="86.1408" class="gray" /></g>
<g><line x1="229.579" y1="89.8621" x2="230.755" y2="92.9088" class="gray" /></g>
<g><line x1="232" y1="96.7988" x2="232.81" y2="99.9596" class="gray" /></g>
<g><line x1="233.586" y1="103.969" x2="234.014" y2="107.212" class="gray" /></g>
<g><line x1="234.369" y1="111.284" x2="234.508" y2="114.547" class="gray" /></g>
<g><line x1="234.422" y1="118.629" x2="234.146" y2="121.883" class="gray" /></g>
<g><line x1="233.563" y1="125.926" x2="232.908" y2="129.129" class="gray" /></g>
<g><line x1="231.86" y1="133.077" x2="230.841" y2="136.184" class="gray" /></g>
<g><line x1="229.361" y1="139.991" x2="228.013" y2="142.97" class="gray" /></g>
<g><line x1="226.095" y1="146.575" x2="224.377" y2="149.357" class="gray" /></g>
<g><line x1="222.025" y1="152.695" x2="219.981" y2="155.252" class="gray" /></g>
<g><line x1="217.284" y1="158.323" x2="215.012" y2="160.682" class="gray" /></g>
<g><line x1="212.055" y1="163.504" x2="209.595" y2="165.663" class="gray" /></g>
<g><line x1="206.304" y1="168.065" x2="203.494" y2="169.751" class="gray" /></g>
<g><line x1="202.625" y1="172.648" x2="204.165" y2="175.859" class="gray" /></g>
<g><line x1="205.889" y1="179.569" x2="207.311" y2="182.728" class="gray" /></g>
<g><line x1="208.954" y1="186.474" x2="210.386" y2="189.822" class="gray" /></g>
<g><line x1="212.721" y1="193.06" x2="215.309" y2="195.356" class="gray" /></g>
<g><line x1="216.84" y1="198.759" x2="216.84" y2="202.227" class="gray" /></g>
<g><line x1="217.665" y1="206.145" x2="218.965" y2="209.091" class="gray" /></g>
<g><line x1="220.64" y1="212.824" x2="222.19" y2="216.213" class="gray" /></g>
<g><line x1="225.06" y1="218.395" x2="228.163" y2="218.889" class="gray" /></g>
<g><line x1="231.889" y1="220.34" x2="234.508" y2="222.075" class="gray" /></g>
<g><line x1="237.299" y1="224.939" x2="238.965" y2="227.602" class="gray" /></g>
<g><line x1="240.319" y1="231.365" x2="240.732" y2="234.479" class="gray" /></g>
<g><line x1="240.407" y1="238.464" x2="239.494" y2="241.47" class="gray" /></g>
<g><line x1="237.547" y1="244.963" x2="235.471" y2="247.321" class="gray" /></g>
<g><line x1="232.253" y1="249.694" x2="229.387" y2="250.981" class="gray" /></g>
<g><line x1="225.475" y1="251.809" x2="222.333" y2="251.793" class="gray" /></g>
<g><line x1="218.43" y1="250.927" x2="215.576" y2="249.611" class="gray" /></g>
<g><line x1="212.382" y1="247.206" x2="210.33" y2="244.827" class="gray" /></g>
<g><line x1="208.418" y1="241.315" x2="207.535" y2="238.3" class="gray" /></g>
<g><line x1="207.249" y1="234.312" x2="207.694" y2="231.202" class="gray" /></g>
<g><line x1="209.085" y1="227.453" x2="210.778" y2="224.807" class="gray" /></g>
<g><line x1="211.041" y1="221.218" x2="209.619" y2="218.059" class="gray" /></g>
<g><line x1="207.942" y1="214.327" x2="206.518" y2="211.159" class="gray" /></g>
<g><line x1="204.151" y1="207.934" x2="201.559" y2="205.632" class="gray" /></g>
<g><line x1="200.03" y1="202.227" x2="200.03" y2="198.759" class="gray" /></g>
<g><line x1="199.134" y1="194.874" x2="197.466" y2="191.452" class="gray" /></g>
<g><line x1="195.795" y1="187.72" x2="194.605" y2="184.816" class="gray" /></g>
<g><line x1="192.991" y1="181.058" x2="191.569" y2="177.899" class="gray" /></g>
<g><line x1="190.613" y1="178.076" x2="190.519" y2="179.719" class="gray" /></g>
<g><line x1="189.169" y1="183.393" x2="188.176" y2="184.707" class="gray" /></g>
<g><line x1="185.008" y1="187.007" x2="183.452" y2="187.545" class="gray" /></g>
<g><line x1="179.541" y1="187.693" x2="177.948" y2="187.274" class="gray" /></g>
<g><line x1="175.987" y1="188.799" x2="176.013" y2="192.057" class="gray" /></g>
<g><line x1="176.014" y1="196.149" x2="175.986" y2="199.827" class="gray" /></g>
<g><line x1="175.928" y1="203.918" x2="175.862" y2="207.178" class="gray" /></g>
<g><line x1="175.859" y1="211.268" x2="175.931" y2="214.948" class="gray" /></g>
<g><line x1="177.425" y1="218.431" x2="179.715" y2="220.695" class="gray" /></g>
<g><line x1="183.216" y1="222.133" x2="186.884" y2="222.133" class="gray" /></g>
<g><line x1="190.908" y1="221.611" x2="207.212" y2="217.305" class="gray" /></g>
<g><line x1="209.19" y1="214.737" x2="209.19" y2="211.269" class="gray" /></g>
<g><line x1="209.19" y1="207.177" x2="209.19" y2="203.709" class="gray" /></g>
<g><line x1="209.19" y1="199.617" x2="209.19" y2="196.149" class="gray" /></g>
<g><line x1="209.232" y1="192.058" x2="209.298" y2="188.798" class="gray" /></g>
<g><line x1="209.34" y1="184.707" x2="209.34" y2="181.239" class="gray" /></g>
<g><line x1="209.356" y1="177.147" x2="209.384" y2="173.469" class="gray" /></g>
<g><line x1="209.383" y1="169.377" x2="209.357" y2="166.119" class="gray" /></g>
<g><line x1="207.294" y1="164.073" x2="203.826" y2="164.073" class="gray" /></g>
<g><line x1="201.78" y1="162.027" x2="201.78" y2="158.559" class="gray" /></g>
<g><line x1="203.826" y1="156.513" x2="207.294" y2="156.513" class="gray" /></g>
<g><line x1="209.34" y1="154.467" x2="209.34" y2="150.999" class="gray" /></g>
<g><line x1="209.301" y1="146.908" x2="209.229" y2="143.228" class="gray" /></g>
<g><line x1="207.767" y1="139.714" x2="206.521" y2="138.428" class="gray" /></g>
<g><line x1="206.567" y1="135.535" x2="207.853" y2="134.289" class="gray" /></g>
<g><line x1="209.228" y1="130.823" x2="209.057" y2="127.14" class="gray" /></g>
<g><line x1="209.063" y1="123.053" x2="209.222" y2="119.789" class="gray" /></g>
<g><line x1="209.323" y1="115.7" x2="209.323" y2="112.232" class="gray" /></g>
<g><line x1="209.338" y1="108.14" x2="209.367" y2="104.462" class="gray" /></g>
<g><line x1="207.898" y1="101.008" x2="205.457" y2="98.6937" class="gray" /></g>
<g><line x1="203.572" y1="95.28" x2="202.893" y2="91.8822" class="gray" /></g>
<g><line x1="203.274" y1="87.9856" x2="204.601" y2="84.7766" class="gray" /></g>
<g><line x1="207.083" y1="81.7489" x2="209.962" y2="79.8234" class="gray" /></g>
<g><line x1="213.707" y1="78.6282" x2="217.028" y2="78.5341" class="gray" /></g>
<g><line x1="220.79" y1="79.5876" x2="223.845" y2="81.5647" class="gray" /></g>
<g><line x1="226.297" y1="84.5853" x2="227.518" y2="87.7569" class="gray" /></g>
<g><line x1="227.849" y1="91.6717" x2="227.166" y2="95.0705" class="gray" /></g>
<g><line x1="225.315" y1="98.5213" x2="222.86" y2="100.971" class="gray" /></g>
<g><line x1="221.452" y1="104.461" x2="221.523" y2="108.141" class="gray" /></g>
<g><line x1="221.563" y1="112.232" x2="221.563" y2="115.7" class="gray" /></g>
<g><line x1="221.521" y1="119.791" x2="221.454" y2="123.051" class="gray" /></g>
<g><line x1="221.452" y1="127.141" x2="221.523" y2="130.821" class="gray" /></g>
<g><line x1="221.582" y1="134.912" x2="221.621" y2="139.138" class="gray" /></g>
<g><line x1="221.624" y1="143.229" x2="221.596" y2="146.907" class="gray" /></g>
<g><line x1="221.58" y1="150.999" x2="221.58" y2="154.467" class="gray" /></g>
<g><line x1="221.58" y1="158.559" x2="221.58" y2="162.027" class="gray" /></g>
<g><line x1="221.538" y1="166.118" x2="221.472" y2="169.378" class="gray" /></g>
<g><line x1="221.469" y1="173.468" x2="221.541" y2="177.148" class="gray" /></g>
<g><line x1="221.58" y1="181.239" x2="221.58" y2="184.707" class="gray" /></g>
<g><line x1="221.597" y1="188.799" x2="221.623" y2="192.057" class="gray" /></g>
<g><line x1="221.64" y1="196.149" x2="221.64" y2="199.617" class="gray" /></g>
<g><line x1="221.64" y1="203.709" x2="221.64" y2="207.177" class="gray" /></g>
<g><line x1="221.583" y1="211.268" x2="221.487" y2="214.738" class="gray" /></g>
<g><line x1="222.869" y1="218.238" x2="225.313" y2="220.708" class="gray" /></g>
<g><line x1="228.797" y1="222.106" x2="232.271" y2="222.011" class="gray" /></g>
<g><line x1="236.362" y1="221.954" x2="239.837" y2="221.954" class="gray" /></g>
<g><line x1="243.929" y1="221.954" x2="247.404" y2="221.954" class="gray" /></g>
<g><line x1="251.496" y1="221.954" x2="254.971" y2="221.954" class="gray" /></g>
<g><line x1="259.063" y1="221.954" x2="262.538" y2="221.954" class="gray" /></g>
</svg>
