<svg
	xmlns="http://www.w3.org/2000/svg"
	width="170.732"
	height="265.983"
	style="font-size: 1.791440px; font-weight: bold; font-family: Helvetica; " >
<g><style type="text/css" >
<!-- create color definitions -->
<![CDATA[
text.red {fill: rgb(255, 0, 255); }
text.green {fill: rgb(0, 255, 0); }
text.blue {fill: rgb(0, 0, 255); }
text.black {fill: rgb(0, 0, 0); }
text.gray {fill: rgb(204, 204, 204); }
text.brown {fill: rgb(211.65, 104.55, 30.6); }
text {fill: rgb(0, 0, 0); text-anchor: middle; alignment-baseline: middle; }
circle.red {stroke: rgb(255, 0, 255); fill: none; }
circle.green {stroke: rgb(0, 255, 0); fill: none; }
circle.blue {stroke: rgb(0, 0, 255); fill: none; }
circle.black {stroke: rgb(0, 0, 0); fill: none; }
circle.gray {stroke: rgb(204, 204, 204); fill: none; }
circle.brown {stroke: rgb(211.65, 104.55, 30.6); fill: none; }
circle {stroke: rgb(0, 0, 0); }
line.red {stroke: rgb(255, 0, 255); stroke-width: 0.223930; }
line.green {stroke: rgb(0, 255, 0); stroke-width: 0.223930; }
line.blue {stroke: rgb(0, 0, 255); stroke-width: 0.223930; }
line.black {stroke: rgb(0, 0, 0); stroke-width: 0.223930; }
line.gray {stroke: rgb(204, 204, 204); stroke-width: 0.223930; }
line.brown {stroke: rgb(211.65, 104.55, 30.6); stroke-width: 0.223930; }
line {stroke: rgb(0, 0, 0); }
text.numbering-label {fill: rgb(204, 204, 204);}
line.numbering-line {stroke: rgb(204, 204, 204); stroke-width: 0.111965;}
line.predicted {stroke: rgb(0, 0, 0); stroke-dasharray: 2}
text.background {fill: rgb(255, 255, 255);
.template {visibility:hidden}
]]>
</style></g>
<g><title>0 (position.label in template: 0.5')</title><text x="79.7976" y="130.69" class="green" >5'</text></g>
<g><title>1 (position.label in template: 2352.U)</title><text x="82.4068" y="131.994" class="green" >A</text></g>
<g><line x1="82.4068" y1="133.009" x2="82.4068" y2="143.261" class="black" /></g>
<g><title>2 (position.label in template: 2353.U)</title><text x="85.3238" y="133.452" class="black" >U</text></g>
<g><line x1="85.3238" y1="134.467" x2="85.3238" y2="141.802" class="black" /></g>
<g><title>3 (position.label in template: 2354.U)</title><text x="88.2408" y="133.452" class="black" >U</text></g>
<g><line x1="88.2408" y1="134.467" x2="88.2408" y2="141.802" class="black" /></g>
<g><title>4 (position.label in template: 2355.C)</title><text x="91.1568" y="133.452" class="black" >C</text></g>
<g><line x1="91.1568" y1="134.467" x2="91.1568" y2="141.802" class="black" /></g>
<g><title>5 (position.label in template: 2356.U)</title><text x="91.8568" y="130.317" class="black" >U</text></g>
<g><title>6 (position.label in template: 2357.G)</title><text x="91.5998" y="126.601" class="black" >G</text></g>
<g><line x1="92.794" y1="126.422" x2="100.128" y2="126.422" class="black" /></g>
<g><title>7 (position.label in template: 2358.C)</title><text x="91.5998" y="123.684" class="black" >C</text></g>
<g><line x1="92.794" y1="123.505" x2="100.128" y2="123.505" class="black" /></g>
<g><title>8 (position.label in template: 2359.C)</title><text x="91.5998" y="120.767" class="black" >C</text></g>
<g><line x1="92.794" y1="120.588" x2="100.128" y2="120.588" class="black" /></g>
<g><title>9 (position.label in template: 2360.C)</title><text x="88.6268" y="119.847" class="black" >C</text></g>
<g><title>10 (position.label in template: 2361.A)</title><text x="88.6268" y="116.715" class="black" >A</text></g>
<g><title>10 (inserted)</title><text x="85.3719" y="114.337" class="numbering-label sequential" >10</text></g>
<g><title>10 (inserted)</title><text x="85.3719" y="114.337" class="numbering-label template" >2361</text></g>
<g><line x1="87.7588" y1="116.081" x2="86.4468" y2="115.123" class="numbering-line sequential" /></g>
<g><line x1="87.7588" y1="116.081" x2="86.4468" y2="115.123" class="numbering-line template" /></g>
<g><title>11 (position.label in template: 2362.G)</title><text x="91.5998" y="115.777" class="black" >G</text></g>
<g><line x1="92.794" y1="115.598" x2="100.128" y2="115.598" class="black" /></g>
<g><title>12 (position.label in template: 2363.U)</title><text x="91.5998" y="112.86" class="black" >U</text></g>
<g><line x1="92.794" y1="112.681" x2="100.128" y2="112.681" class="black" /></g>
<g><title>13 (position.label in template: 2364.G)</title><text x="91.4378" y="105.908" class="black" >G</text></g>
<g><line x1="92.632" y1="105.729" x2="99.9665" y2="105.729" class="black" /></g>
<g><title>14 (position.label in template: 2365.C)</title><text x="91.4378" y="102.991" class="black" >C</text></g>
<g><line x1="92.632" y1="102.812" x2="99.9665" y2="102.812" class="black" /></g>
<g><title>15 (position.label in template: 2366.U)</title><text x="91.4378" y="100.074" class="black" >U</text></g>
<g><line x1="92.632" y1="99.8949" x2="99.9665" y2="99.8949" class="black" /></g>
<g><title>16 (position.label in template: 2367.C)</title><text x="91.4378" y="97.157" class="black" >C</text></g>
<g><line x1="92.632" y1="96.9779" x2="99.9665" y2="96.9779" class="black" /></g>
<g><title>17 (position.label in template: 2368.U)</title><text x="89.0288" y="94.592" class="black" >U</text></g>
<g><title>18 (position.label in template: 2369.G)</title><text x="91.6218" y="91.294" class="green" >C</text></g>
<g><line x1="92.816" y1="91.1151" x2="100.15" y2="91.1166" class="black" /></g>
<g><title>19 (position.label in template: 2370.A)</title><text x="88.8098" y="89.9" class="black" >A</text></g>
<g><title>20 (position.label in template: 2371.A)</title><text x="88.7498" y="86.747" class="black" >A</text></g>
<g><title>20 (inserted)</title><text x="85.2619" y="84.7267" class="numbering-label sequential" >20</text></g>
<g><title>20 (inserted)</title><text x="85.2619" y="84.7267" class="numbering-label template" >2371</text></g>
<g><line x1="87.8197" y1="86.2082" x2="86.3368" y2="85.3493" class="numbering-line sequential" /></g>
<g><line x1="87.8197" y1="86.2082" x2="86.3368" y2="85.3493" class="numbering-line template" /></g>
<g><title>21 (position.label in template: 2372.U)</title><text x="91.5068" y="85.244" class="black" >U</text></g>
<g><line x1="92.701" y1="85.0649" x2="100.035" y2="85.0649" class="black" /></g>
<g><title>22 (position.label in template: 2373.G)</title><text x="91.5068" y="82.328" class="black" >G</text></g>
<g><line x1="92.701" y1="82.1489" x2="100.035" y2="82.1489" class="black" /></g>
<g><title>23 (position.label in template: 2374.U)</title><text x="91.5068" y="79.411" class="green" >A</text></g>
<g><line x1="92.701" y1="79.2319" x2="100.035" y2="79.2319" class="black" /></g>
<g><title>24 (position.label in template: 2375.C)</title><text x="88.2898" y="76.599" class="black" >C</text></g>
<g><title>25 (position.label in template: 2376.A)</title><text x="86.0948" y="74.065" class="black" >A</text></g>
<g><title>26 (position.label in template: 2377.A)</title><text x="85.6718" y="70.738" class="green" >U</text></g>
<g><title>27 (position.label in template: 2378.A)</title><text x="87.1618" y="67.734" class="black" >A</text></g>
<g><title>28 (position.label in template: 2379.G)</title><text x="90.0678" y="66.062" class="black" >G</text></g>
<g><title>29 (position.label in template: 2380.U)</title><text x="91.5068" y="63.153" class="black" >U</text></g>
<g><line x1="92.701" y1="62.9739" x2="100.035" y2="62.9739" class="black" /></g>
<g><title>30 (position.label in template: 2381.G)</title><text x="91.5068" y="60.236" class="black" >G</text></g>
<g><line x1="92.701" y1="60.0569" x2="100.035" y2="60.0569" class="black" /></g>
<g><title>30 (inserted)</title><text x="87.476" y="60.236" class="numbering-label sequential" >30</text></g>
<g><title>30 (inserted)</title><text x="87.476" y="60.236" class="numbering-label template" >2381</text></g>
<g><line x1="90.4319" y1="60.236" x2="88.5509" y2="60.236" class="numbering-line sequential" /></g>
<g><line x1="90.4319" y1="60.236" x2="88.5509" y2="60.236" class="numbering-line template" /></g>
<g><title>31 (position.label in template: 2382.A)</title><text x="91.5068" y="57.319" class="black" >A</text></g>
<g><line x1="92.701" y1="57.1399" x2="100.035" y2="57.1399" class="black" /></g>
<g><title>32 (position.label in template: 2383.A)</title><text x="91.5068" y="54.402" class="green" >U</text></g>
<g><line x1="92.701" y1="54.2229" x2="100.035" y2="54.2229" class="black" /></g>
<g><title>33 (position.label in template: 2384.G)</title><text x="92.5178" y="51.667" class="black" >G</text></g>
<g><title>34 (position.label in template: 2385.A)</title><text x="94.9108" y="50" class="black" >A</text></g>
<g><title>35 (position.label in template: 2386.A)</title><text x="97.8268" y="50" class="green" >G</text></g>
<g><title>36 (position.label in template: 2387.A)</title><text x="100.22" y="51.667" class="black" >A</text></g>
<g><title>37 (position.label in template: 2388.U)</title><text x="101.23" y="54.402" class="green" >U</text></g>
<g><title>38 (position.label in template: 2389.U)</title><text x="101.23" y="57.319" class="black" >U</text></g>
<g><title>39 (position.label in template: 2390.C)</title><text x="101.23" y="60.236" class="black" >C</text></g>
<g><title>40 (position.label in template: 2391.A)</title><text x="101.23" y="63.153" class="black" >A</text></g>
<g><title>41 (position.label in template: 2392.A)</title><text x="102.669" y="66.062" class="black" >A</text></g>
<g><title>42 (position.label in template: 2393.C)</title><text x="105.693" y="67.678" class="green" >A</text></g>
<g><title>43 (position.label in template: 2394.C)</title><text x="107.267" y="70.725" class="black" >C</text></g>
<g><title>44 (position.label in template: 2395.A)</title><text x="106.833" y="74.127" class="black" >A</text></g>
<g><title>45 (position.label in template: 2396.A)</title><text x="104.547" y="76.682" class="black" >A</text></g>
<g><title>46 (position.label in template: 2397.G)</title><text x="101.23" y="79.411" class="green" >G</text></g>
<g><title>47 (position.label in template: 2398.C)</title><text x="101.23" y="82.328" class="black" >C</text></g>
<g><title>48 (position.label in template: 2399.G)</title><text x="101.23" y="85.244" class="black" >G</text></g>
<g><title>49 (position.label in template: 2400.C)</title><text x="101.345" y="91.296" class="green" >C</text></g>
<g><title>50 (position.label in template: 2401.G)</title><text x="101.161" y="97.157" class="black" >G</text></g>
<g><title>50 (inserted)</title><text x="105.191" y="97.2415" class="numbering-label sequential" >50</text></g>
<g><title>50 (inserted)</title><text x="105.191" y="97.2415" class="numbering-label template" >2401</text></g>
<g><line x1="102.235" y1="97.1795" x2="104.116" y2="97.2189" class="numbering-line sequential" /></g>
<g><line x1="102.235" y1="97.1795" x2="104.116" y2="97.2189" class="numbering-line template" /></g>
<g><title>51 (position.label in template: 2402.G)</title><text x="101.161" y="100.074" class="black" >G</text></g>
<g><title>52 (position.label in template: 2403.G)</title><text x="101.161" y="102.991" class="black" >G</text></g>
<g><title>53 (position.label in template: 2404.U)</title><text x="101.161" y="105.908" class="black" >U</text></g>
<g><title>54 (position.label in template: 2405.A)</title><text x="104.306" y="107.126" class="black" >A</text></g>
<g><title>55 (position.label in template: 2406.A)</title><text x="104.398" y="110.512" class="black" >A</text></g>
<g><title>56 (position.label in template: 2407.A)</title><text x="101.323" y="112.86" class="black" >A</text></g>
<g><title>57 (position.label in template: 2408.C)</title><text x="101.323" y="115.777" class="black" >C</text></g>
<g><title>58 (position.label in template: 2409.G)</title><text x="101.323" y="120.767" class="black" >G</text></g>
<g><title>59 (position.label in template: 2410.G)</title><text x="101.323" y="123.684" class="black" >G</text></g>
<g><title>60 (position.label in template: 2411.C)</title><text x="101.323" y="126.601" class="black" >C</text></g>
<g><title>61 (position.label in template: 2412.G)</title><text x="102.187" y="131.197" class="black" >G</text></g>
<g><line x1="103.221" y1="131.615" x2="109.573" y2="135.283" class="black" /></g>
<g><title>62 (position.label in template: 2413.G)</title><text x="103.645" y="128.671" class="black" >G</text></g>
<g><line x1="104.679" y1="129.089" x2="111.031" y2="132.757" class="black" /></g>
<g><title>63 (position.label in template: 2414.G)</title><text x="105.103" y="126.145" class="black" >G</text></g>
<g><line x1="106.137" y1="126.563" x2="112.49" y2="130.231" class="black" /></g>
<g><title>64 (position.label in template: 2415.A)</title><text x="106.562" y="123.619" class="green" >A</text></g>
<g><line x1="107.596" y1="124.037" x2="113.948" y2="127.705" class="black" /></g>
<g><title>65 (position.label in template: 2416.G)</title><text x="108.02" y="121.093" class="black" >G</text></g>
<g><line x1="109.054" y1="121.511" x2="115.407" y2="125.179" class="black" /></g>
<g><title>66 (position.label in template: 2417.U)</title><text x="108.127" y="118.174" class="black" >U</text></g>
<g><title>67 (position.label in template: 2418.A)</title><text x="109.512" y="115.602" class="black" >A</text></g>
<g><title>68 (position.label in template: 2419.A)</title><text x="111.889" y="113.906" class="black" >A</text></g>
<g><title>69 (position.label in template: 2420.C)</title><text x="114.772" y="113.433" class="black" >C</text></g>
<g><title>70 (position.label in template: 2421.U)</title><text x="117.567" y="114.282" class="black" >U</text></g>
<g><title>71 (position.label in template: 2422.A)</title><text x="119.7" y="116.278" class="black" >A</text></g>
<g><title>72 (position.label in template: 2423.U)</title><text x="120.732" y="119.01" class="green" >C</text></g>
<g><title>73 (position.label in template: 2424.G)</title><text x="120.452" y="121.918" class="black" >G</text></g>
<g><title>74 (position.label in template: 2425.A)</title><text x="118.916" y="124.403" class="black" >A</text></g>
<g><title>75 (position.label in template: 2426.C)</title><text x="116.442" y="125.955" class="black" >C</text></g>
<g><title>76 (position.label in template: 2427.U)</title><text x="114.983" y="128.481" class="green" >C</text></g>
<g><title>77 (position.label in template: 2428.C)</title><text x="113.525" y="131.007" class="black" >C</text></g>
<g><title>78 (position.label in template: 2429.U)</title><text x="112.066" y="133.533" class="black" >U</text></g>
<g><title>79 (position.label in template: 2430.C)</title><text x="110.608" y="136.059" class="black" >C</text></g>
<g><title>80 (position.label in template: 2431.U)</title><text x="111.662" y="139.077" class="black" >U</text></g>
<g><title>81 (position.label in template: 2432.U)</title><text x="112.386" y="142.781" class="black" >U</text></g>
<g><title>82 (position.label in template: 2433.A)</title><text x="112.775" y="145.686" class="black" >A</text></g>
<g><title>83 (position.label in template: 2434.A)</title><text x="111.543" y="148.527" class="black" >A</text></g>
<g><title>84 (position.label in template: 2435.G)</title><text x="109.762" y="150.882" class="black" >G</text></g>
<g><title>85 (position.label in template: 2436.G)</title><text x="106.176" y="152.915" class="black" >G</text></g>
<g><title>86 (position.label in template: 2437.U)</title><text x="102.399" y="153.583" class="black" >U</text></g>
<g><title>87 (position.label in template: 2438.A)</title><text x="103.837" y="156.49" class="black" >A</text></g>
<g><title>88 (position.label in template: 2439.G)</title><text x="102.399" y="159.399" class="black" >G</text></g>
<g><line x1="101.204" y1="159.22" x2="93.87" y2="159.22" class="black" /></g>
<g><title>89 (position.label in template: 2440.C)</title><text x="102.331" y="166.676" class="black" >C</text></g>
<g><line x1="101.136" y1="166.497" x2="93.802" y2="166.497" class="black" /></g>
<g><title>90 (position.label in template: 2441.C)</title><text x="104.5" y="168.505" class="blue" >C</text></g>
<g><title>91 (position.label in template: 2442.A)</title><text x="106.02" y="170.901" class="blue" >A</text></g>
<g><title>92 (position.label in template: 2443.A)</title><text x="106.75" y="173.643" class="blue" >A</text></g>
<g><title>93 (position.label in template: 2444.A)</title><text x="106.622" y="176.477" class="blue" >A</text></g>
<g><title>94 (position.label in template: 2445.U)</title><text x="105.649" y="179.143" class="green" >G</text></g>
<g><title>95 (position.label in template: 2446.G)</title><text x="103.92" y="181.392" class="blue" >G</text></g>
<g><title>96 (position.label in template: 2447.C)</title><text x="101.594" y="183.018" class="green" >G</text></g>
<g><title>97 (position.label in template: 2448.C)</title><text x="98.888" y="183.871" class="blue" >C</text></g>
<g><title>98 (position.label in template: 2449.U)</title><text x="96.0505" y="183.871" class="blue" >U</text></g>
<g><title>99 (position.label in template: 2450.C)</title><text x="93.3442" y="183.018" class="green" >G</text></g>
<g><title>100 (inserted)</title><text x="91.019" y="181.392" class="red" >G</text></g>
<g><title>100 (inserted)</title><text x="88.2337" y="184.306" class="numbering-label sequential" >100</text></g>
<g><line x1="90.2762" y1="182.169" x2="89.0899" y2="183.41" class="numbering-line sequential" /></g>
<g><title>101 (inserted)</title><text x="89.2897" y="179.143" class="red" >U</text></g>
<g><title>102 (inserted)</title><text x="88.3163" y="176.477" class="red" >U</text></g>
<g><title>103 (inserted)</title><text x="88.1886" y="173.643" class="red" >G</text></g>
<g><title>104 (inserted)</title><text x="88.9183" y="170.901" class="red" >C</text></g>
<g><title>105 (position.label in template: 2468.G)</title><text x="90.4382" y="168.505" class="green" >A</text></g>
<g><title>106 (position.label in template: 2470.G)</title><text x="92.6078" y="166.676" class="black" >G</text></g>
<g><title>107 (position.label in template: 2471.C)</title><text x="89.7348" y="164.577" class="green" >G</text></g>
<g><title>108 (position.label in template: 2472.A)</title><text x="89.8928" y="161.242" class="green" >G</text></g>
<g><title>109 (position.label in template: 2473.U)</title><text x="92.6758" y="159.399" class="black" >U</text></g>
<g><title>110 (position.label in template: 2474.G)</title><text x="91.2358" y="156.49" class="green" >U</text></g>
<g><title>111 (position.label in template: 2475.A)</title><text x="92.6758" y="153.583" class="green" >U</text></g>
<g><title>112 (position.label in template: 2476.A)</title><text x="90.3328" y="150.303" class="black" >A</text></g>
<g><title>113 (position.label in template: 2477.U)</title><text x="91.0708" y="146.635" class="green" >G</text></g>
<g><title>114 (position.label in template: 2478.G)</title><text x="91.1568" y="143.175" class="black" >G</text></g>
<g><title>115 (position.label in template: 2479.G)</title><text x="88.2408" y="143.175" class="black" >G</text></g>
<g><title>116 (position.label in template: 2480.A)</title><text x="85.3238" y="143.175" class="black" >A</text></g>
<g><title>117 (position.label in template: 2481.U)</title><text x="82.4068" y="144.634" class="green" >U</text></g>
<g><title>118 (position.label in template: 2482.U)</title><text x="79.6898" y="143.573" class="black" >U</text></g>
<g><title>119 (position.label in template: 2483.A)</title><text x="78.118" y="146.03" class="green" >G</text></g>
<g><title>120 (position.label in template: 2484.A)</title><text x="76.0496" y="148.087" class="green" >G</text></g>
<g><title>121 (inserted)</title><text x="76.1915" y="151" class="red" >G</text></g>
<g><title>122 (inserted)</title><text x="76.3335" y="153.914" class="red" >C</text></g>
<g><title>123 (position.label in template: 2487.A)</title><text x="76.4755" y="156.827" class="green" >G</text></g>
<g><title>124 (inserted)</title><text x="76.1207" y="159.722" class="red" >G</text></g>
<g><title>125 (inserted)</title><text x="75.7659" y="162.618" class="red" >A</text></g>
<g><title>126 (inserted)</title><text x="75.4111" y="165.513" class="red" >G</text></g>
<g><title>127 (inserted)</title><text x="75.0562" y="168.408" class="red" >U</text></g>
<g><title>128 (inserted)</title><text x="74.7014" y="171.304" class="red" >G</text></g>
<g><title>129 (inserted)</title><text x="74.3466" y="174.199" class="red" >U</text></g>
<g><title>130 (inserted)</title><text x="73.9918" y="177.094" class="red" >G</text></g>
<g><title>131 (position.label in template: 2495.A)</title><text x="73.637" y="179.99" class="black" >A</text></g>
<g><title>132 (position.label in template: 2496.C)</title><text x="73.7938" y="182.902" class="green" >A</text></g>
<g><title>133 (position.label in template: 2498.G)</title><text x="72.2655" y="185.387" class="black" >G</text></g>
<g><title>134 (position.label in template: 2499.U)</title><text x="70.1865" y="187.433" class="black" >U</text></g>
<g><title>135 (inserted)</title><text x="68.6993" y="189.942" class="red" >U</text></g>
<g><title>136 (inserted)</title><text x="67.2122" y="192.452" class="red" >C</text></g>
<g><title>137 (position.label in template: 2502.C)</title><text x="65.7251" y="194.961" class="green" >U</text></g>
<g><title>138 (inserted)</title><text x="63.9778" y="197.297" class="red" >U</text></g>
<g><title>139 (inserted)</title><text x="62.2306" y="199.633" class="red" >G</text></g>
<g><title>140 (inserted)</title><text x="60.4834" y="201.968" class="red" >G</text></g>
<g><title>141 (inserted)</title><text x="58.7362" y="204.304" class="red" >U</text></g>
<g><title>142 (inserted)</title><text x="56.9889" y="206.64" class="red" >U</text></g>
<g><title>143 (inserted)</title><text x="55.2417" y="208.976" class="red" >G</text></g>
<g><title>144 (inserted)</title><text x="53.4945" y="211.312" class="red" >G</text></g>
<g><title>145 (inserted)</title><text x="51.7472" y="213.647" class="red" >A</text></g>
<g><title>146 (position.label in template: 2511.A)</title><text x="50" y="215.983" class="green" >U</text></g>
<g><title>147 (position.label in template: 3552.3')</title><text x="48.2528" y="218.319" class="green" >3'</text></g>
<g><line x1="80.8658" y1="131.045" x2="81.3385" y2="131.281" class="gray" /></g>
<g><line x1="83.475" y1="132.349" x2="84.2555" y2="132.739" class="gray" /></g>
<g><line x1="86.518" y1="133.273" x2="87.0465" y2="133.273" class="gray" /></g>
<g><line x1="89.435" y1="133.273" x2="89.9625" y2="133.273" class="gray" /></g>
<g><line x1="91.417" y1="132.107" x2="91.5965" y2="131.303" class="gray" /></g>
<g><line x1="91.7743" y1="128.946" x2="91.6822" y2="127.613" class="gray" /></g>
<g><line x1="91.5998" y1="125.228" x2="91.5998" y2="124.699" class="gray" /></g>
<g><line x1="91.5998" y1="122.311" x2="91.5998" y2="121.782" class="gray" /></g>
<g><line x1="90.4588" y1="120.235" x2="89.7677" y2="120.021" class="gray" /></g>
<g><line x1="88.6268" y1="118.474" x2="88.6268" y2="117.73" class="gray" /></g>
<g><line x1="89.7657" y1="116.177" x2="90.4608" y2="115.957" class="gray" /></g>
<g><line x1="91.5998" y1="114.404" x2="91.5998" y2="113.875" class="gray" /></g>
<g><line x1="91.5719" y1="111.487" x2="91.4656" y2="106.923" class="gray" /></g>
<g><line x1="91.4378" y1="104.535" x2="91.4378" y2="104.006" class="gray" /></g>
<g><line x1="91.4378" y1="101.618" x2="91.4378" y2="101.089" class="gray" /></g>
<g><line x1="91.4378" y1="98.7006" x2="91.4378" y2="98.1721" class="gray" /></g>
<g><line x1="90.6201" y1="96.1073" x2="89.8464" y2="95.2834" class="gray" /></g>
<g><line x1="89.7669" y1="93.474" x2="90.8836" y2="92.0537" class="gray" /></g>
<g><line x1="90.5517" y1="90.5844" x2="89.8798" y2="90.2513" class="gray" /></g>
<g><line x1="88.787" y1="88.5268" x2="88.7725" y2="87.7619" class="gray" /></g>
<g><line x1="89.7983" y1="85.9962" x2="90.4582" y2="85.6365" class="gray" /></g>
<g><line x1="91.5068" y1="83.8706" x2="91.5068" y2="83.3431" class="gray" /></g>
<g><line x1="91.5068" y1="80.9546" x2="91.5068" y2="80.4261" class="gray" /></g>
<g><line x1="90.6076" y1="78.4459" x2="89.1889" y2="77.2058" class="gray" /></g>
<g><line x1="87.5078" y1="75.5171" x2="86.8767" y2="74.7886" class="gray" /></g>
<g><line x1="85.9441" y1="72.7011" x2="85.8224" y2="71.7436" class="gray" /></g>
<g><line x1="86.2024" y1="69.4889" x2="86.6311" y2="68.6248" class="gray" /></g>
<g><line x1="88.1969" y1="66.9593" x2="89.0326" y2="66.4785" class="gray" /></g>
<g><line x1="90.5973" y1="64.8124" x2="90.9772" y2="64.0443" class="gray" /></g>
<g><line x1="91.5068" y1="61.7796" x2="91.5068" y2="61.2511" class="gray" /></g>
<g><line x1="91.5068" y1="58.8626" x2="91.5068" y2="58.3341" class="gray" /></g>
<g><line x1="91.5068" y1="55.9456" x2="91.5068" y2="55.4171" class="gray" /></g>
<g><line x1="91.9208" y1="53.1026" x2="92.1037" y2="52.6081" class="gray" /></g>
<g><line x1="93.4977" y1="50.8052" x2="93.9308" y2="50.5035" class="gray" /></g>
<g><line x1="96.105" y1="49.8209" x2="96.6325" y2="49.8209" class="gray" /></g>
<g><line x1="98.8067" y1="50.5035" x2="99.2398" y2="50.8052" class="gray" /></g>
<g><line x1="100.633" y1="52.6082" x2="100.816" y2="53.1025" class="gray" /></g>
<g><line x1="101.23" y1="55.4171" x2="101.23" y2="55.9456" class="gray" /></g>
<g><line x1="101.23" y1="58.3341" x2="101.23" y2="58.8626" class="gray" /></g>
<g><line x1="101.23" y1="61.2511" x2="101.23" y2="61.7796" class="gray" /></g>
<g><line x1="101.759" y1="64.0443" x2="102.139" y2="64.8124" class="gray" /></g>
<g><line x1="103.722" y1="66.4457" x2="104.639" y2="66.936" class="gray" /></g>
<g><line x1="106.241" y1="68.5599" x2="106.719" y2="69.4848" class="gray" /></g>
<g><line x1="107.116" y1="71.7305" x2="106.984" y2="72.7632" class="gray" /></g>
<g><line x1="106.036" y1="74.8379" x2="105.343" y2="75.6128" class="gray" /></g>
<g><line x1="103.624" y1="77.2616" x2="102.152" y2="78.4731" class="gray" /></g>
<g><line x1="101.23" y1="80.4261" x2="101.23" y2="80.9546" class="gray" /></g>
<g><line x1="101.23" y1="83.3431" x2="101.23" y2="83.8706" class="gray" /></g>
<g><line x1="101.252" y1="86.2589" x2="101.322" y2="89.9228" class="gray" /></g>
<g><line x1="101.307" y1="92.3106" x2="101.198" y2="95.7842" class="gray" /></g>
<g><line x1="101.161" y1="98.1721" x2="101.161" y2="98.7006" class="gray" /></g>
<g><line x1="101.161" y1="101.089" x2="101.161" y2="101.618" class="gray" /></g>
<g><line x1="101.161" y1="104.006" x2="101.161" y2="104.535" class="gray" /></g>
<g><line x1="102.274" y1="106.16" x2="103.192" y2="106.516" class="gray" /></g>
<g><line x1="104.338" y1="108.141" x2="104.365" y2="109.139" class="gray" /></g>
<g><line x1="103.449" y1="111.058" x2="102.272" y2="111.956" class="gray" /></g>
<g><line x1="101.323" y1="113.875" x2="101.323" y2="114.404" class="gray" /></g>
<g><line x1="101.323" y1="116.792" x2="101.323" y2="119.394" class="gray" /></g>
<g><line x1="101.323" y1="121.782" x2="101.323" y2="122.311" class="gray" /></g>
<g><line x1="101.323" y1="124.699" x2="101.323" y2="125.228" class="gray" /></g>
<g><line x1="101.543" y1="127.596" x2="101.966" y2="129.844" class="gray" /></g>
<g><line x1="102.784" y1="129.983" x2="103.048" y2="129.526" class="gray" /></g>
<g><line x1="104.242" y1="127.457" x2="104.506" y2="127" class="gray" /></g>
<g><line x1="105.7" y1="124.932" x2="105.964" y2="124.474" class="gray" /></g>
<g><line x1="107.159" y1="122.405" x2="107.423" y2="121.948" class="gray" /></g>
<g><line x1="108.063" y1="119.72" x2="108.083" y2="119.188" class="gray" /></g>
<g><line x1="108.693" y1="116.943" x2="108.946" y2="116.474" class="gray" /></g>
<g><line x1="110.484" y1="114.729" x2="110.917" y2="114.421" class="gray" /></g>
<g><line x1="113.067" y1="113.533" x2="113.593" y2="113.447" class="gray" /></g>
<g><line x1="115.914" y1="113.601" x2="116.424" y2="113.756" class="gray" /></g>
<g><line x1="118.439" y1="114.919" x2="118.828" y2="115.283" class="gray" /></g>
<g><line x1="120.122" y1="117.216" x2="120.31" y2="117.714" class="gray" /></g>
<g><line x1="120.617" y1="120.02" x2="120.566" y2="120.55" class="gray" /></g>
<g><line x1="119.824" y1="122.755" x2="119.544" y2="123.208" class="gray" /></g>
<g><line x1="117.904" y1="124.859" x2="117.453" y2="125.141" class="gray" /></g>
<g><line x1="115.844" y1="126.81" x2="115.58" y2="127.268" class="gray" /></g>
<g><line x1="114.386" y1="129.336" x2="114.122" y2="129.793" class="gray" /></g>
<g><line x1="112.927" y1="131.862" x2="112.663" y2="132.32" class="gray" /></g>
<g><line x1="111.469" y1="134.388" x2="111.205" y2="134.845" class="gray" /></g>
<g><line x1="111.002" y1="137.007" x2="111.268" y2="137.77" class="gray" /></g>
<g><line x1="111.891" y1="140.07" x2="112.157" y2="141.43" class="gray" /></g>
<g><line x1="112.544" y1="143.786" x2="112.616" y2="144.323" class="gray" /></g>
<g><line x1="112.3" y1="146.603" x2="112.018" y2="147.252" class="gray" /></g>
<g><line x1="110.822" y1="149.3" x2="110.482" y2="149.75" class="gray" /></g>
<g><line x1="108.723" y1="151.292" x2="107.215" y2="152.147" class="gray" /></g>
<g><line x1="105" y1="152.944" x2="103.575" y2="153.196" class="gray" /></g>
<g><line x1="102.928" y1="154.474" x2="103.307" y2="155.24" class="gray" /></g>
<g><line x1="103.308" y1="157.381" x2="102.928" y2="158.149" class="gray" /></g>
<g><line x1="102.388" y1="160.414" x2="102.342" y2="165.303" class="gray" /></g>
<g><line x1="103.244" y1="167.267" x2="103.587" y2="167.556" class="gray" /></g>
<g><line x1="105.14" y1="169.334" x2="105.38" y2="169.713" class="gray" /></g>
<g><line x1="106.327" y1="171.876" x2="106.443" y2="172.31" class="gray" /></g>
<g><line x1="106.696" y1="174.657" x2="106.676" y2="175.105" class="gray" /></g>
<g><line x1="106.212" y1="177.42" x2="106.058" y2="177.842" class="gray" /></g>
<g><line x1="104.921" y1="179.91" x2="104.647" y2="180.266" class="gray" /></g>
<g><line x1="102.941" y1="181.898" x2="102.573" y2="182.155" class="gray" /></g>
<g><line x1="100.455" y1="183.198" x2="100.027" y2="183.333" class="gray" /></g>
<g><line x1="97.6937" y1="183.692" x2="97.2448" y2="183.692" class="gray" /></g>
<g><line x1="94.9114" y1="183.333" x2="94.4833" y2="183.198" class="gray" /></g>
<g><line x1="92.3655" y1="182.155" x2="91.9976" y2="181.898" class="gray" /></g>
<g><line x1="90.2911" y1="180.266" x2="90.0176" y2="179.91" class="gray" /></g>
<g><line x1="88.88" y1="177.842" x2="88.726" y2="177.42" class="gray" /></g>
<g><line x1="88.2625" y1="175.105" x2="88.2423" y2="174.657" class="gray" /></g>
<g><line x1="88.4957" y1="172.31" x2="88.6112" y2="171.876" class="gray" /></g>
<g><line x1="89.5581" y1="169.713" x2="89.7985" y2="169.334" class="gray" /></g>
<g><line x1="91.3514" y1="167.556" x2="91.6946" y2="167.267" class="gray" /></g>
<g><line x1="91.6434" y1="165.792" x2="90.6991" y2="165.102" class="gray" /></g>
<g><line x1="89.7913" y1="163.205" x2="89.8362" y2="162.256" class="gray" /></g>
<g><line x1="90.8885" y1="160.403" x2="91.68" y2="159.879" class="gray" /></g>
<g><line x1="92.1459" y1="158.15" x2="91.7656" y2="157.381" class="gray" /></g>
<g><line x1="91.7659" y1="155.241" x2="92.1456" y2="154.474" class="gray" /></g>
<g><line x1="91.9816" y1="152.432" x2="91.0269" y2="151.096" class="gray" /></g>
<g><line x1="90.5683" y1="148.953" x2="90.8352" y2="147.627" class="gray" /></g>
<g><line x1="91.1004" y1="145.262" x2="91.1271" y2="144.19" class="gray" /></g>
<g><line x1="89.9625" y1="142.996" x2="89.435" y2="142.996" class="gray" /></g>
<g><line x1="87.0465" y1="142.996" x2="86.518" y2="142.996" class="gray" /></g>
<g><line x1="84.2556" y1="143.53" x2="83.4749" y2="143.921" class="gray" /></g>
<g><line x1="81.2943" y1="144.02" x2="80.8022" y2="143.828" class="gray" /></g>
<g><line x1="79.0462" y1="144.399" x2="78.7615" y2="144.845" class="gray" /></g>
<g><line x1="77.2711" y1="146.693" x2="76.8964" y2="147.065" class="gray" /></g>
<g><line x1="76.1077" y1="149.1" x2="76.1334" y2="149.628" class="gray" /></g>
<g><line x1="76.2497" y1="152.014" x2="76.2754" y2="152.542" class="gray" /></g>
<g><line x1="76.3916" y1="154.927" x2="76.4173" y2="155.455" class="gray" /></g>
<g><line x1="76.3302" y1="157.833" x2="76.2659" y2="158.358" class="gray" /></g>
<g><line x1="75.9754" y1="160.729" x2="75.9111" y2="161.253" class="gray" /></g>
<g><line x1="75.6206" y1="163.624" x2="75.5563" y2="164.148" class="gray" /></g>
<g><line x1="75.2658" y1="166.519" x2="75.2015" y2="167.044" class="gray" /></g>
<g><line x1="74.911" y1="169.415" x2="74.8467" y2="169.939" class="gray" /></g>
<g><line x1="74.5562" y1="172.31" x2="74.4919" y2="172.834" class="gray" /></g>
<g><line x1="74.2014" y1="175.205" x2="74.1371" y2="175.73" class="gray" /></g>
<g><line x1="73.8466" y1="178.101" x2="73.7823" y2="178.625" class="gray" /></g>
<g><line x1="73.7012" y1="181.003" x2="73.7296" y2="181.531" class="gray" /></g>
<g><line x1="73.168" y1="183.74" x2="72.8912" y2="184.19" class="gray" /></g>
<g><line x1="71.4143" y1="186.045" x2="71.0377" y2="186.416" class="gray" /></g>
<g><line x1="69.5776" y1="188.281" x2="69.3082" y2="188.736" class="gray" /></g>
<g><line x1="68.0905" y1="190.791" x2="67.8211" y2="191.245" class="gray" /></g>
<g><line x1="66.6033" y1="193.3" x2="66.334" y2="193.755" class="gray" /></g>
<g><line x1="65.0097" y1="195.738" x2="64.6932" y2="196.161" class="gray" /></g>
<g><line x1="63.2625" y1="198.074" x2="62.946" y2="198.497" class="gray" /></g>
<g><line x1="61.5152" y1="200.41" x2="61.1988" y2="200.833" class="gray" /></g>
<g><line x1="59.768" y1="202.746" x2="59.4515" y2="203.169" class="gray" /></g>
<g><line x1="58.0208" y1="205.081" x2="57.7043" y2="205.505" class="gray" /></g>
<g><line x1="56.2736" y1="207.417" x2="55.9571" y2="207.84" class="gray" /></g>
<g><line x1="54.5263" y1="209.753" x2="54.2098" y2="210.176" class="gray" /></g>
<g><line x1="52.7791" y1="212.089" x2="52.4626" y2="212.512" class="gray" /></g>
<g><line x1="51.0319" y1="214.425" x2="50.7154" y2="214.848" class="gray" /></g>
<g><line x1="49.2846" y1="216.76" x2="48.9681" y2="217.183" class="gray" /></g>
</svg>
