<svg
	xmlns="http://www.w3.org/2000/svg"
	width="303.961"
	height="257.725"
	style="font-size: 3.060353px; font-weight: bold; font-family: Helvetica; " >
<g><style type="text/css" >
<!-- create color definitions -->
<![CDATA[
text.red {fill: rgb(255, 0, 255); }
text.green {fill: rgb(0, 255, 0); }
text.blue {fill: rgb(0, 0, 255); }
text.black {fill: rgb(0, 0, 0); }
text.gray {fill: rgb(204, 204, 204); }
text.brown {fill: rgb(211.65, 104.55, 30.6); }
text {fill: rgb(0, 0, 0); text-anchor: middle; alignment-baseline: middle; }
circle.red {stroke: rgb(255, 0, 255); fill: none; }
circle.green {stroke: rgb(0, 255, 0); fill: none; }
circle.blue {stroke: rgb(0, 0, 255); fill: none; }
circle.black {stroke: rgb(0, 0, 0); fill: none; }
circle.gray {stroke: rgb(204, 204, 204); fill: none; }
circle.brown {stroke: rgb(211.65, 104.55, 30.6); fill: none; }
circle {stroke: rgb(0, 0, 0); }
line.red {stroke: rgb(255, 0, 255); stroke-width: 0.382544; }
line.green {stroke: rgb(0, 255, 0); stroke-width: 0.382544; }
line.blue {stroke: rgb(0, 0, 255); stroke-width: 0.382544; }
line.black {stroke: rgb(0, 0, 0); stroke-width: 0.382544; }
line.gray {stroke: rgb(204, 204, 204); stroke-width: 0.382544; }
line.brown {stroke: rgb(211.65, 104.55, 30.6); stroke-width: 0.382544; }
line {stroke: rgb(0, 0, 0); }
text.numbering-label {fill: rgb(204, 204, 204);}
line.numbering-line {stroke: rgb(204, 204, 204); stroke-width: 0.191272;}
line.predicted {stroke: rgb(0, 0, 0); stroke-dasharray: 2}
text.background {fill: rgb(255, 255, 255);
.template {visibility:hidden}
]]>
</style></g>
<g><title>0 (position.label in template: 0.5')</title><text x="53.8392" y="121.7" class="green" >5'</text></g>
<g><title>1 (position.label in template: 14.G)</title><text x="54.05" y="114.11" class="green" >G</text></g>
<g><line x1="56.0902" y1="113.804" x2="64.6698" y2="113.804" class="black" /></g>
<g><title>2 (position.label in template: 15.U)</title><text x="54.26" y="106.55" class="green" >U</text></g>
<g><line x1="56.3002" y1="106.244" x2="64.4598" y2="106.244" class="black" /></g>
<g><title>3 (position.label in template: 16.C)</title><text x="54.26" y="98.99" class="black" >C</text></g>
<g><line x1="56.3002" y1="98.684" x2="64.2498" y2="98.684" class="black" /></g>
<g><title>4 (position.label in template: 17.G)</title><text x="54.05" y="91.43" class="black" >G</text></g>
<g><line x1="56.0902" y1="91.124" x2="64.4598" y2="91.124" class="black" /></g>
<g><title>5 (position.label in template: 18.C)</title><text x="54.26" y="83.87" class="black" >C</text></g>
<g><line x1="56.3002" y1="83.564" x2="64.2498" y2="83.564" class="black" /></g>
<g><title>6 (position.label in template: 19.Y)</title><text x="54.47" y="76.31" class="green" >U</text></g>
<g><line x1="56.5102" y1="76.004" x2="64.4598" y2="76.004" class="black" /></g>
<g><title>7 (position.label in template: 20.G)</title><text x="54.05" y="68.75" class="black" >G</text></g>
<g><line x1="56.0902" y1="68.444" x2="64.4598" y2="68.444" class="black" /></g>
<g><title>8 (position.label in template: 21.C)</title><text x="50" y="62.51" class="black" >C</text></g>
<g><title>9 (position.label in template: 22.N)</title><text x="51.08" y="55.22" class="green" >C</text></g>
<g><title>10 (position.label in template: 23.A)</title><text x="56.81" y="50" class="black" >A</text></g>
<g><title>10 (inserted)</title><text x="54.2926" y="43.5909" class="numbering-label sequential" >10</text></g>
<g><line x1="56.1387" y1="48.2909" x2="54.8937" y2="45.121" class="numbering-line sequential" /></g>
<g><title>11 (position.label in template: 24.A)</title><text x="64.37" y="50" class="black" >A</text></g>
<g><title>12 (position.label in template: 25.N)</title><text x="69.98" y="55.22" class="green" >U</text></g>
<g><title>13 (position.label in template: 26.U)</title><text x="70.76" y="62.51" class="black" >U</text></g>
<g><title>14 (position.label in template: 27.C)</title><text x="66.5" y="68.75" class="black" >C</text></g>
<g><title>15 (position.label in template: 28.R)</title><text x="66.5" y="76.31" class="green" >A</text></g>
<g><title>16 (position.label in template: 29.G)</title><text x="66.29" y="83.87" class="black" >G</text></g>
<g><title>17 (position.label in template: 30.C)</title><text x="66.5" y="91.43" class="black" >C</text></g>
<g><title>18 (position.label in template: 31.G)</title><text x="66.29" y="98.99" class="black" >G</text></g>
<g><title>19 (position.label in template: 32.R)</title><text x="66.5" y="106.55" class="green" >A</text></g>
<g><title>20 (position.label in template: 33.Y)</title><text x="66.71" y="114.11" class="green" >C</text></g>
<g><title>20 (inserted)</title><text x="71.8126" y="109.486" class="numbering-label sequential" >20</text></g>
<g><line x1="68.0707" y1="112.877" x2="70.1239" y2="111.017" class="numbering-line sequential" /></g>
<g><title>21 (inserted)</title><text x="76.149" y="117.199" class="red" >C</text></g>
<g><title>22 (inserted)</title><text x="83.365" y="119.56" class="red" >G</text></g>
<g><title>23 (inserted)</title><text x="90.581" y="121.921" class="red" >G</text></g>
<g><title>24 (position.label in template: 37.N)</title><text x="100.02" y="125.01" class="green" >G</text></g>
<g><line x1="100.03" y1="126.744" x2="100.07" y2="134.704" class="black" /></g>
<g><title>25 (position.label in template: 38.Y)</title><text x="100.931" y="117.569" class="green" >U</text></g>
<g><title>26 (position.label in template: 39.N)</title><text x="102.56" y="110.252" class="green" >U</text></g>
<g><title>27 (position.label in template: 40.U)</title><text x="104.891" y="103.128" class="blue" >U</text></g>
<g><title>28 (position.label in template: 41.G)</title><text x="107.904" y="96.2637" class="blue" >G</text></g>
<g><title>29 (position.label in template: 42.R)</title><text x="111.568" y="89.7243" class="green" >G</text></g>
<g><title>30 (position.label in template: 43.N)</title><text x="115.851" y="83.5718" class="green" >C</text></g>
<g><title>30 (inserted)</title><text x="110.397" y="79.368" class="numbering-label sequential" >30</text></g>
<g><line x1="114.397" y1="82.4508" x2="112.233" y2="80.7834" class="numbering-line sequential" /></g>
<g><title>31 (inserted)</title><text x="120.71" y="77.8641" class="red" >G</text></g>
<g><title>32 (inserted)</title><text x="126.101" y="72.6552" class="red" >A</text></g>
<g><title>33 (inserted)</title><text x="131.972" y="67.9944" class="red" >C</text></g>
<g><title>34 (inserted)</title><text x="138.268" y="63.9256" class="red" >C</text></g>
<g><title>35 (inserted)</title><text x="144.929" y="60.4875" class="red" >C</text></g>
<g><title>36 (inserted)</title><text x="151.893" y="57.7123" class="red" >G</text></g>
<g><title>37 (inserted)</title><text x="159.093" y="55.6265" class="red" >A</text></g>
<g><title>38 (inserted)</title><text x="166.462" y="54.2496" class="red" >U</text></g>
<g><title>39 (inserted)</title><text x="173.929" y="53.5947" class="red" >C</text></g>
<g><title>40 (inserted)</title><text x="181.425" y="53.668" class="red" >A</text></g>
<g><title>41 (inserted)</title><text x="188.878" y="54.4688" class="red" >G</text></g>
<g><title>42 (inserted)</title><text x="196.219" y="55.9895" class="red" >C</text></g>
<g><title>43 (inserted)</title><text x="203.377" y="58.2158" class="red" >A</text></g>
<g><title>44 (inserted)</title><text x="210.285" y="61.1266" class="red" >A</text></g>
<g><title>45 (inserted)</title><text x="216.877" y="64.6944" class="red" >A</text></g>
<g><title>46 (inserted)</title><text x="223.093" y="68.8854" class="red" >C</text></g>
<g><title>47 (inserted)</title><text x="228.871" y="73.6602" class="red" >G</text></g>
<g><title>48 (inserted)</title><text x="234.159" y="78.9735" class="red" >G</text></g>
<g><title>49 (inserted)</title><text x="238.906" y="84.7751" class="red" >C</text></g>
<g><title>50 (inserted)</title><text x="243.067" y="91.0103" class="red" >G</text></g>
<g><title>50 (inserted)</title><text x="248.974" y="87.4708" class="numbering-label sequential" >50</text></g>
<g><line x1="244.642" y1="90.0664" x2="247.138" y2="88.5712" class="numbering-line sequential" /></g>
<g><title>51 (inserted)</title><text x="246.604" y="97.62" class="red" >C</text></g>
<g><title>52 (inserted)</title><text x="249.481" y="104.542" class="red" >A</text></g>
<g><title>53 (inserted)</title><text x="251.673" y="111.71" class="red" >C</text></g>
<g><title>54 (inserted)</title><text x="253.159" y="119.058" class="red" >A</text></g>
<g><title>55 (inserted)</title><text x="253.924" y="126.515" class="red" >G</text></g>
<g><title>56 (inserted)</title><text x="253.961" y="134.011" class="red" >G</text></g>
<g><title>57 (inserted)</title><text x="253.27" y="141.475" class="red" >C</text></g>
<g><title>58 (inserted)</title><text x="251.858" y="148.837" class="red" >G</text></g>
<g><title>59 (inserted)</title><text x="249.738" y="156.027" class="red" >C</text></g>
<g><title>60 (inserted)</title><text x="246.929" y="162.978" class="red" >C</text></g>
<g><title>61 (inserted)</title><text x="243.459" y="169.622" class="red" >C</text></g>
<g><title>62 (inserted)</title><text x="239.36" y="175.899" class="red" >C</text></g>
<g><title>63 (inserted)</title><text x="234.671" y="181.747" class="red" >C</text></g>
<g><title>64 (inserted)</title><text x="229.437" y="187.113" class="red" >A</text></g>
<g><title>65 (inserted)</title><text x="223.706" y="191.945" class="red" >U</text></g>
<g><title>66 (inserted)</title><text x="217.533" y="196.198" class="red" >C</text></g>
<g><title>67 (inserted)</title><text x="210.976" y="199.831" class="red" >U</text></g>
<g><title>68 (inserted)</title><text x="204.097" y="202.811" class="red" >C</text></g>
<g><title>69 (inserted)</title><text x="196.962" y="205.108" class="red" >G</text></g>
<g><title>70 (inserted)</title><text x="189.637" y="206.702" class="red" >A</text></g>
<g><title>71 (inserted)</title><text x="182.192" y="207.577" class="red" >U</text></g>
<g><title>72 (inserted)</title><text x="174.697" y="207.725" class="red" >U</text></g>
<g><title>73 (inserted)</title><text x="167.224" y="207.145" class="red" >G</text></g>
<g><title>74 (inserted)</title><text x="159.842" y="205.841" class="red" >C</text></g>
<g><title>75 (inserted)</title><text x="152.621" y="203.827" class="red" >A</text></g>
<g><title>76 (inserted)</title><text x="145.63" y="201.122" class="red" >G</text></g>
<g><title>77 (inserted)</title><text x="138.935" y="197.75" class="red" >G</text></g>
<g><title>78 (inserted)</title><text x="132.599" y="193.744" class="red" >C</text></g>
<g><title>79 (inserted)</title><text x="126.682" y="189.142" class="red" >G</text></g>
<g><title>80 (inserted)</title><text x="121.239" y="183.987" class="red" >C</text></g>
<g><title>81 (inserted)</title><text x="116.323" y="178.328" class="red" >U</text></g>
<g><title>82 (inserted)</title><text x="111.98" y="172.219" class="red" >U</text></g>
<g><title>83 (inserted)</title><text x="108.25" y="165.716" class="red" >U</text></g>
<g><title>84 (inserted)</title><text x="105.169" y="158.882" class="red" >U</text></g>
<g><title>85 (inserted)</title><text x="102.767" y="151.782" class="red" >U</text></g>
<g><title>86 (inserted)</title><text x="101.065" y="144.481" class="red" >U</text></g>
<g><title>87 (position.label in template: 46.Y)</title><text x="100.08" y="137.05" class="green" >U</text></g>
<g><title>88 (position.label in template: 54.3')</title><text x="104.117" y="143.48" class="green" >3'</text></g>
<g><line x1="53.8958" y1="119.354" x2="53.9933" y2="115.843" class="gray" /></g>
<g><line x1="54.1067" y1="111.765" x2="54.2033" y2="108.283" class="gray" /></g>
<g><line x1="54.26" y1="104.204" x2="54.26" y2="100.724" class="gray" /></g>
<g><line x1="54.2033" y1="96.6445" x2="54.1067" y2="93.1634" class="gray" /></g>
<g><line x1="54.1067" y1="89.0845" x2="54.2033" y2="85.6034" class="gray" /></g>
<g><line x1="54.3167" y1="81.5245" x2="54.4133" y2="78.0434" class="gray" /></g>
<g><line x1="54.3568" y1="73.9669" x2="54.1632" y2="70.4811" class="gray" /></g>
<g><line x1="52.9393" y1="66.7326" x2="51.1107" y2="63.9153" class="gray" /></g>
<g><line x1="50.299" y1="60.1858" x2="50.781" y2="56.9322" class="gray" /></g>
<g><line x1="52.5882" y1="53.54" x2="55.3018" y2="51.0679" class="gray" /></g>
<g><line x1="58.8502" y1="49.694" x2="62.3298" y2="49.694" class="gray" /></g>
<g><line x1="65.8636" y1="51.0838" x2="68.4864" y2="53.5242" class="gray" /></g>
<g><line x1="70.1971" y1="56.9426" x2="70.5429" y2="60.1753" class="gray" /></g>
<g><line x1="69.6097" y1="63.889" x2="67.6503" y2="66.759" class="gray" /></g>
<g><line x1="66.5" y1="70.4842" x2="66.5" y2="73.9637" class="gray" /></g>
<g><line x1="66.4433" y1="78.0434" x2="66.3467" y2="81.5245" class="gray" /></g>
<g><line x1="66.3467" y1="85.6034" x2="66.4433" y2="89.0845" class="gray" /></g>
<g><line x1="66.4433" y1="93.1634" x2="66.3467" y2="96.6445" class="gray" /></g>
<g><line x1="66.3467" y1="100.723" x2="66.4433" y2="104.205" class="gray" /></g>
<g><line x1="66.5567" y1="108.283" x2="66.6533" y2="111.765" class="gray" /></g>
<g><line x1="68.6491" y1="114.438" x2="74.21" y2="116.258" class="gray" /></g>
<g><line x1="78.0881" y1="117.527" x2="81.4259" y2="118.619" class="gray" /></g>
<g><line x1="85.3041" y1="119.888" x2="88.6419" y2="120.981" class="gray" /></g>
<g><line x1="92.52" y1="122.25" x2="98.0809" y2="124.069" class="gray" /></g>
<g><line x1="100.268" y1="122.679" x2="100.683" y2="119.288" class="gray" /></g>
<g><line x1="101.374" y1="115.272" x2="102.116" y2="111.938" class="gray" /></g>
<g><line x1="103.194" y1="108.007" x2="104.257" y2="104.761" class="gray" /></g>
<g><line x1="105.711" y1="100.954" x2="107.084" y2="97.8259" class="gray" /></g>
<g><line x1="108.901" y1="94.1778" x2="110.571" y2="91.1981" class="gray" /></g>
<g><line x1="112.734" y1="87.7438" x2="114.685" y2="84.9403" class="gray" /></g>
<g><line x1="117.173" y1="81.7123" x2="119.388" y2="79.1115" class="gray" /></g>
<g><line x1="122.178" y1="76.1403" x2="124.634" y2="73.7668" class="gray" /></g>
<g><line x1="127.699" y1="71.0806" x2="130.374" y2="68.9569" class="gray" /></g>
<g><line x1="133.686" y1="66.5809" x2="136.555" y2="64.727" class="gray" /></g>
<g><line x1="140.081" y1="62.6838" x2="143.116" y2="61.1172" class="gray" /></g>
<g><line x1="146.825" y1="59.4261" x2="149.998" y2="58.1616" class="gray" /></g>
<g><line x1="153.853" y1="56.8386" x2="157.133" y2="55.8882" class="gray" /></g>
<g><line x1="161.099" y1="54.9457" x2="164.456" y2="54.3183" class="gray" /></g>
<g><line x1="168.494" y1="53.7653" x2="171.897" y2="53.4669" class="gray" /></g>
<g><line x1="175.969" y1="53.3086" x2="179.385" y2="53.342" class="gray" /></g>
<g><line x1="183.454" y1="53.5799" x2="186.85" y2="53.9448" class="gray" /></g>
<g><line x1="190.876" y1="54.5767" x2="194.221" y2="55.2696" class="gray" /></g>
<g><line x1="198.167" y1="56.2894" x2="201.429" y2="57.3039" class="gray" /></g>
<g><line x1="205.257" y1="58.702" x2="208.405" y2="60.0283" class="gray" /></g>
<g><line x1="212.079" y1="61.7916" x2="215.083" y2="63.4173" class="gray" /></g>
<g><line x1="218.569" y1="65.529" x2="221.401" y2="67.4387" class="gray" /></g>
<g><line x1="224.665" y1="69.8789" x2="227.299" y2="72.0546" class="gray" /></g>
<g><line x1="230.311" y1="74.8003" x2="232.72" y2="77.2213" class="gray" /></g>
<g><line x1="235.451" y1="80.2465" x2="237.614" y2="82.8901" class="gray" /></g>
<g><line x1="240.039" y1="86.1661" x2="241.935" y2="89.0072" class="gray" /></g>
<g><line x1="244.03" y1="92.5032" x2="245.641" y2="95.515" class="gray" /></g>
<g><line x1="247.387" y1="99.1979" x2="248.698" y2="102.352" class="gray" /></g>
<g><line x1="250.078" y1="106.187" x2="251.077" y2="109.453" class="gray" /></g>
<g><line x1="252.077" y1="113.404" x2="252.754" y2="116.752" class="gray" /></g>
<g><line x1="253.367" y1="120.782" x2="253.715" y2="124.179" class="gray" /></g>
<g><line x1="253.934" y1="128.249" x2="253.951" y2="131.665" class="gray" /></g>
<g><line x1="253.773" y1="135.737" x2="253.458" y2="139.138" class="gray" /></g>
<g><line x1="252.886" y1="143.173" x2="252.242" y2="146.528" class="gray" /></g>
<g><line x1="251.281" y1="150.488" x2="250.315" y2="153.765" class="gray" /></g>
<g><line x1="248.973" y1="157.613" x2="247.694" y2="160.78" class="gray" /></g>
<g><line x1="245.985" y1="164.48" x2="244.404" y2="167.508" class="gray" /></g>
<g><line x1="242.344" y1="171.025" x2="240.476" y2="173.884" class="gray" /></g>
<g><line x1="238.084" y1="177.184" x2="235.948" y2="179.849" class="gray" /></g>
<g><line x1="233.247" y1="182.902" x2="230.861" y2="185.347" class="gray" /></g>
<g><line x1="227.877" y1="188.122" x2="225.266" y2="190.324" class="gray" /></g>
<g><line x1="222.026" y1="192.797" x2="219.213" y2="194.734" class="gray" /></g>
<g><line x1="215.748" y1="196.881" x2="212.76" y2="198.536" class="gray" /></g>
<g><line x1="209.104" y1="200.336" x2="205.969" y2="201.694" class="gray" /></g>
<g><line x1="202.155" y1="203.13" x2="198.904" y2="204.177" class="gray" /></g>
<g><line x1="194.968" y1="205.236" x2="191.631" y2="205.962" class="gray" /></g>
<g><line x1="187.611" y1="206.634" x2="184.218" y2="207.033" class="gray" /></g>
<g><line x1="180.152" y1="207.311" x2="176.737" y2="207.379" class="gray" /></g>
<g><line x1="172.663" y1="207.261" x2="169.258" y2="206.997" class="gray" /></g>
<g><line x1="165.215" y1="206.484" x2="161.851" y2="205.89" class="gray" /></g>
<g><line x1="157.876" y1="204.987" x2="154.586" y2="204.069" class="gray" /></g>
<g><line x1="150.718" y1="202.785" x2="147.533" y2="201.552" class="gray" /></g>
<g><line x1="143.808" y1="199.898" x2="140.757" y2="198.362" class="gray" /></g>
<g><line x1="137.211" y1="196.354" x2="134.323" y2="194.529" class="gray" /></g>
<g><line x1="130.988" y1="192.186" x2="128.292" y2="190.089" class="gray" /></g>
<g><line x1="125.2" y1="187.433" x2="122.72" y2="185.084" class="gray" /></g>
<g><line x1="119.901" y1="182.141" x2="117.661" y2="179.563" class="gray" /></g>
<g><line x1="115.141" y1="176.36" x2="113.162" y2="173.576" class="gray" /></g>
<g><line x1="110.964" y1="170.143" x2="109.265" y2="167.18" class="gray" /></g>
<g><line x1="107.411" y1="163.55" x2="106.008" y2="160.436" class="gray" /></g>
<g><line x1="104.515" y1="156.644" x2="103.421" y2="153.408" class="gray" /></g>
<g><line x1="102.303" y1="149.489" x2="101.528" y2="146.162" class="gray" /></g>
<g><line x1="100.797" y1="142.153" x2="100.348" y2="138.767" class="gray" /></g>
<g><line x1="101.165" y1="138.472" x2="103.032" y2="141.446" class="gray" /></g>
</svg>
