<svg
	xmlns="http://www.w3.org/2000/svg"
	width="194.91"
	height="196.213"
	style="font-size: 1.737882px; font-weight: bold; font-family: Helvetica; " >
<g><style type="text/css" >
<!-- create color definitions -->
<![CDATA[
text.red {fill: rgb(255, 0, 255); }
text.green {fill: rgb(0, 255, 0); }
text.blue {fill: rgb(0, 0, 255); }
text.black {fill: rgb(0, 0, 0); }
text.gray {fill: rgb(204, 204, 204); }
text.brown {fill: rgb(211.65, 104.55, 30.6); }
text {fill: rgb(0, 0, 0); text-anchor: middle; alignment-baseline: middle; }
circle.red {stroke: rgb(255, 0, 255); fill: none; }
circle.green {stroke: rgb(0, 255, 0); fill: none; }
circle.blue {stroke: rgb(0, 0, 255); fill: none; }
circle.black {stroke: rgb(0, 0, 0); fill: none; }
circle.gray {stroke: rgb(204, 204, 204); fill: none; }
circle.brown {stroke: rgb(211.65, 104.55, 30.6); fill: none; }
circle {stroke: rgb(0, 0, 0); }
line.red {stroke: rgb(255, 0, 255); stroke-width: 0.217235; }
line.green {stroke: rgb(0, 255, 0); stroke-width: 0.217235; }
line.blue {stroke: rgb(0, 0, 255); stroke-width: 0.217235; }
line.black {stroke: rgb(0, 0, 0); stroke-width: 0.217235; }
line.gray {stroke: rgb(204, 204, 204); stroke-width: 0.217235; }
line.brown {stroke: rgb(211.65, 104.55, 30.6); stroke-width: 0.217235; }
line {stroke: rgb(0, 0, 0); }
text.numbering-label {fill: rgb(204, 204, 204);}
line.numbering-line {stroke: rgb(204, 204, 204); stroke-width: 0.108618;}
line.predicted {stroke: rgb(0, 0, 0); stroke-dasharray: 2}
text.background {fill: rgb(255, 255, 255);
.template {visibility:hidden}
]]>
</style></g>
<g><title>0 (position.label in template: 0.5')</title><text x="58.2331" y="87.3464" class="green" >5'</text></g>
<g><title>1 (position.label in template: 35.G)</title><text x="60.6433" y="86.7436" class="black" >G</text></g>
<g><title>2 (position.label in template: 36.A)</title><text x="63.0535" y="86.1407" class="green" >G</text></g>
<g><title>3 (position.label in template: 37.A)</title><text x="65.5171" y="85.82" class="green" >U</text></g>
<g><line x1="66.6757" y1="85.6462" x2="75.1245" y2="85.6462" class="black" /></g>
<g><title>4 (position.label in template: 38.G)</title><text x="66.7591" y="83.335" class="green" >A</text></g>
<g><line x1="67.9177" y1="83.1614" x2="73.8825" y2="83.1621" class="black" /></g>
<g><title>5 (position.label in template: 39.A)</title><text x="66.7591" y="80.851" class="green" >U</text></g>
<g><line x1="67.9177" y1="80.6772" x2="73.8825" y2="80.6772" class="black" /></g>
<g><title>6 (position.label in template: 40.C)</title><text x="66.7601" y="78.366" class="black" >C</text></g>
<g><line x1="67.9187" y1="78.1924" x2="73.8825" y2="78.1931" class="black" /></g>
<g><title>7 (position.label in template: 41.C)</title><text x="64.8931" y="76.951" class="black" >C</text></g>
<g><line x1="64.4968" y1="75.6885" x2="62.4565" y2="70.0839" class="black" /></g>
<g><title>8 (position.label in template: 42.G)</title><text x="62.5581" y="77.8" class="black" >G</text></g>
<g><line x1="62.1618" y1="76.5375" x2="60.1215" y2="70.9329" class="black" /></g>
<g><title>9 (position.label in template: 43.U)</title><text x="60.2231" y="78.65" class="black" >U</text></g>
<g><line x1="59.8269" y1="77.3875" x2="57.7874" y2="71.7839" class="black" /></g>
<g><title>10 (position.label in template: 44.A)</title><text x="57.8891" y="79.5" class="black" >A</text></g>
<g><line x1="57.4928" y1="78.2375" x2="55.4525" y2="72.6329" class="black" /></g>
<g><title>10 (inserted)</title><text x="59.2269" y="83.1743" class="numbering-label sequential" >10</text></g>
<g><line x1="58.2459" y1="80.4798" x2="58.9106" y2="82.3053" class="numbering-line sequential" /></g>
<g><title>11 (position.label in template: 45.G)</title><text x="55.5541" y="80.35" class="black" >G</text></g>
<g><line x1="55.1579" y1="79.0875" x2="53.1183" y2="73.4829" class="black" /></g>
<g><title>12 (inserted)</title><text x="52.9966" y="80.4392" class="red" >X</text></g>
<g><title>13 (inserted)</title><text x="50.8751" y="79.0081" class="red" >X</text></g>
<g><title>14 (inserted)</title><text x="50" y="76.6033" class="red" >X</text></g>
<g><title>15 (inserted)</title><text x="50.7055" y="74.1434" class="red" >X</text></g>
<g><title>16 (position.label in template: 50.C)</title><text x="52.7221" y="72.568" class="black" >C</text></g>
<g><title>17 (position.label in template: 51.U)</title><text x="55.0561" y="71.718" class="black" >U</text></g>
<g><title>18 (position.label in template: 52.G)</title><text x="57.3911" y="70.869" class="black" >G</text></g>
<g><title>19 (position.label in template: 53.C)</title><text x="59.7251" y="70.018" class="black" >C</text></g>
<g><title>20 (position.label in template: 54.G)</title><text x="62.0601" y="69.169" class="black" >G</text></g>
<g><title>20 (inserted)</title><text x="58.9704" y="66.7725" class="numbering-label sequential" >20</text></g>
<g><line x1="61.2362" y1="68.5299" x2="60.0131" y2="67.5813" class="numbering-line sequential" /></g>
<g><title>21 (position.label in template: 55.A)</title><text x="62.9471" y="65.864" class="black" >A</text></g>
<g><title>22 (position.label in template: 56.U)</title><text x="65.0011" y="63.127" class="black" >U</text></g>
<g><title>23 (position.label in template: 57.A)</title><text x="67.9261" y="61.352" class="black" >A</text></g>
<g><title>24 (position.label in template: 58.A)</title><text x="71.3011" y="60.793" class="black" >A</text></g>
<g><title>25 (position.label in template: 59.U)</title><text x="74.6431" y="61.532" class="black" >U</text></g>
<g><title>26 (position.label in template: 60.U)</title><text x="77.4681" y="63.462" class="black" >U</text></g>
<g><line x1="77.8643" y1="64.3769" x2="79.9039" y2="69.9815" class="black" /></g>
<g><title>27 (position.label in template: 61.C)</title><text x="79.8031" y="62.613" class="black" >C</text></g>
<g><line x1="80.1994" y1="63.5279" x2="82.2389" y2="69.1315" class="black" /></g>
<g><title>28 (position.label in template: 62.A)</title><text x="84.0331" y="61.035" class="black" >A</text></g>
<g><line x1="84.4295" y1="61.9499" x2="86.4698" y2="67.5545" class="black" /></g>
<g><title>29 (position.label in template: 63.C)</title><text x="86.3671" y="60.185" class="black" >C</text></g>
<g><line x1="86.7635" y1="61.0999" x2="88.8038" y2="66.7045" class="black" /></g>
<g><title>30 (position.label in template: 64.U)</title><text x="88.7021" y="59.335" class="black" >U</text></g>
<g><line x1="89.0985" y1="60.2499" x2="91.1388" y2="65.8545" class="black" /></g>
<g><title>30 (inserted)</title><text x="85.7357" y="56.7874" class="numbering-label sequential" >30</text></g>
<g><line x1="87.9111" y1="58.6556" x2="86.7785" y2="57.6829" class="numbering-line sequential" /></g>
<g><title>31 (position.label in template: 65.U)</title><text x="89.1901" y="56.898" class="black" >U</text></g>
<g><title>32 (position.label in template: 66.G)</title><text x="90.2591" y="54.655" class="black" >G</text></g>
<g><title>33 (position.label in template: 67.A)</title><text x="91.8451" y="52.741" class="black" >A</text></g>
<g><title>34 (position.label in template: 68.A)</title><text x="93.8501" y="51.273" class="black" >A</text></g>
<g><title>35 (position.label in template: 69.U)</title><text x="96.1541" y="50.341" class="black" >U</text></g>
<g><title>36 (position.label in template: 70.U)</title><text x="98.6161" y="50" class="black" >U</text></g>
<g><title>37 (position.label in template: 71.G)</title><text x="101.086" y="50.272" class="black" >G</text></g>
<g><title>38 (position.label in template: 72.C)</title><text x="103.416" y="51.14" class="black" >C</text></g>
<g><title>39 (position.label in template: 73.A)</title><text x="105.461" y="52.551" class="black" >A</text></g>
<g><title>40 (position.label in template: 74.G)</title><text x="107.099" y="54.42" class="black" >G</text></g>
<g><title>41 (position.label in template: 75.C)</title><text x="108.231" y="56.632" class="black" >C</text></g>
<g><title>42 (position.label in template: 76.C)</title><text x="108.787" y="59.055" class="black" >C</text></g>
<g><title>43 (position.label in template: 77.U)</title><text x="108.733" y="61.54" class="black" >U</text></g>
<g><title>44 (position.label in template: 78.A)</title><text x="108.074" y="63.936" class="black" >A</text></g>
<g><title>45 (position.label in template: 79.C)</title><text x="106.848" y="66.098" class="black" >C</text></g>
<g><title>46 (position.label in template: 80.U)</title><text x="105.13" y="67.894" class="black" >U</text></g>
<g><title>47 (position.label in template: 81.G)</title><text x="103.025" y="69.216" class="black" >G</text></g>
<g><title>48 (position.label in template: 82.G)</title><text x="100.662" y="69.982" class="black" >G</text></g>
<g><title>49 (position.label in template: 83.G)</title><text x="98.1821" y="70.148" class="black" >G</text></g>
<g><title>50 (position.label in template: 84.A)</title><text x="95.7371" y="69.701" class="black" >A</text></g>
<g><title>50 (inserted)</title><text x="94.5657" y="73.4316" class="numbering-label sequential" >50</text></g>
<g><line x1="95.4247" y1="70.6958" x2="94.8386" y2="72.5627" class="numbering-line sequential" /></g>
<g><title>51 (position.label in template: 85.U)</title><text x="93.4751" y="68.67" class="black" >U</text></g>
<g><title>52 (position.label in template: 86.A)</title><text x="91.5351" y="67.117" class="black" >A</text></g>
<g><title>53 (position.label in template: 87.G)</title><text x="89.2001" y="67.967" class="black" >G</text></g>
<g><title>54 (position.label in template: 88.U)</title><text x="86.8661" y="68.817" class="black" >U</text></g>
<g><title>55 (position.label in template: 89.U)</title><text x="85.2121" y="70.833" class="black" >U</text></g>
<g><title>56 (position.label in template: 90.G)</title><text x="82.6351" y="70.394" class="black" >G</text></g>
<g><title>57 (position.label in template: 91.A)</title><text x="80.3001" y="71.244" class="black" >A</text></g>
<g><title>58 (position.label in template: 92.A)</title><text x="79.8331" y="73.531" class="black" >A</text></g>
<g><title>59 (position.label in template: 93.A)</title><text x="78.7321" y="75.589" class="black" >A</text></g>
<g><title>60 (position.label in template: 94.U)</title><text x="77.0891" y="77.247" class="black" >U</text></g>
<g><title>61 (position.label in template: 95.G)</title><text x="75.0411" y="78.367" class="black" >G</text></g>
<g><title>62 (position.label in template: 96.U)</title><text x="75.0411" y="80.851" class="green" >U</text></g>
<g><title>63 (position.label in template: 97.U)</title><text x="75.0411" y="83.336" class="green" >U</text></g>
<g><title>64 (position.label in template: 98.G)</title><text x="76.2831" y="85.82" class="green" >G</text></g>
<g><title>65 (position.label in template: 99.A)</title><text x="78.0391" y="87.478" class="black" >A</text></g>
<g><title>66 (position.label in template: 100.A)</title><text x="80.4361" y="88.293" class="black" >A</text></g>
<g><title>67 (position.label in template: 101.C)</title><text x="82.0981" y="86.805" class="black" >C</text></g>
<g><title>68 (position.label in template: 102.G)</title><text x="83.1061" y="84.915" class="black" >G</text></g>
<g><line x1="84.1907" y1="85.1487" x2="92.0995" y2="88.1198" class="black" /></g>
<g><title>69 (position.label in template: 103.C)</title><text x="85.1431" y="83.026" class="black" >C</text></g>
<g><line x1="86.2277" y1="83.2598" x2="91.8106" y2="85.3577" class="black" /></g>
<g><title>70 (position.label in template: 104.A)</title><text x="86.0171" y="80.7" class="black" >A</text></g>
<g><line x1="87.1017" y1="80.9338" x2="92.6846" y2="83.0317" class="black" /></g>
<g><title>71 (position.label in template: 105.C)</title><text x="89.2071" y="78.359" class="black" >C</text></g>
<g><title>72 (position.label in template: 106.A)</title><text x="92.9111" y="79.751" class="black" >A</text></g>
<g><title>73 (position.label in template: 107.U)</title><text x="93.7691" y="83.613" class="black" >U</text></g>
<g><title>74 (position.label in template: 108.G)</title><text x="92.8951" y="85.939" class="black" >G</text></g>
<g><title>75 (position.label in template: 109.A)</title><text x="93.1841" y="88.701" class="black" >A</text></g>
<g><title>76 (position.label in template: 110.U)</title><text x="92.3061" y="91.854" class="black" >U</text></g>
<g><title>77 (position.label in template: 111.G)</title><text x="92.2491" y="95.504" class="green" >G</text></g>
<g><line x1="92.9243" y1="96.2717" x2="96.4" y2="101.119" class="black" /></g>
<g><title>78 (position.label in template: 112.A)</title><text x="94.2681" y="94.056" class="green" >G</text></g>
<g><line x1="94.9433" y1="94.8237" x2="98.419" y2="99.6707" class="black" /></g>
<g><title>79 (position.label in template: 113.C)</title><text x="96.2871" y="92.608" class="black" >C</text></g>
<g><line x1="96.9623" y1="93.3757" x2="100.438" y2="98.2227" class="black" /></g>
<g><title>80 (position.label in template: 114.A)</title><text x="98.3061" y="91.16" class="black" >A</text></g>
<g><line x1="98.9812" y1="91.9278" x2="102.457" y2="96.7756" class="black" /></g>
<g><title>81 (position.label in template: 115.U)</title><text x="100.325" y="89.713" class="black" >U</text></g>
<g><line x1="101" y1="90.4807" x2="104.476" y2="95.3277" class="black" /></g>
<g><title>82 (position.label in template: 116.C)</title><text x="102.344" y="88.265" class="green" >U</text></g>
<g><line x1="103.019" y1="89.0327" x2="106.495" y2="93.8797" class="black" /></g>
<g><title>83 (position.label in template: 117.G)</title><text x="105.643" y="86.044" class="black" >G</text></g>
<g><line x1="106.318" y1="86.8118" x2="109.793" y2="91.6586" class="black" /></g>
<g><title>84 (position.label in template: 118.G)</title><text x="107.662" y="84.596" class="black" >G</text></g>
<g><line x1="108.337" y1="85.3638" x2="111.812" y2="90.2106" class="black" /></g>
<g><title>85 (position.label in template: 119.U)</title><text x="109.681" y="83.148" class="black" >U</text></g>
<g><line x1="110.356" y1="83.9158" x2="113.831" y2="88.7626" class="black" /></g>
<g><title>86 (position.label in template: 120.C)</title><text x="111.7" y="81.701" class="black" >C</text></g>
<g><line x1="112.375" y1="82.4688" x2="115.85" y2="87.3156" class="black" /></g>
<g><title>87 (position.label in template: 121.C)</title><text x="113.719" y="80.253" class="black" >C</text></g>
<g><line x1="114.394" y1="81.0208" x2="117.869" y2="85.8676" class="black" /></g>
<g><title>88 (position.label in template: 122.U)</title><text x="116.114" y="79.595" class="black" >U</text></g>
<g><title>89 (position.label in template: 123.U)</title><text x="118.456" y="80.424" class="black" >U</text></g>
<g><title>90 (position.label in template: 124.U)</title><text x="119.903" y="82.442" class="black" >U</text></g>
<g><title>91 (position.label in template: 125.C)</title><text x="119.936" y="84.926" class="green" >U</text></g>
<g><title>92 (position.label in template: 126.G)</title><text x="118.544" y="86.983" class="black" >G</text></g>
<g><title>93 (position.label in template: 127.G)</title><text x="116.525" y="88.431" class="black" >G</text></g>
<g><title>94 (position.label in template: 128.A)</title><text x="114.506" y="89.878" class="black" >A</text></g>
<g><title>95 (position.label in template: 129.U)</title><text x="112.487" y="91.326" class="black" >U</text></g>
<g><title>96 (position.label in template: 130.U)</title><text x="110.468" y="92.774" class="black" >U</text></g>
<g><title>97 (position.label in template: 131.A)</title><text x="109.591" y="94.923" class="black" >A</text></g>
<g><title>98 (position.label in template: 132.G)</title><text x="107.17" y="94.995" class="green" >A</text></g>
<g><title>99 (position.label in template: 133.G)</title><text x="105.151" y="96.443" class="black" >G</text></g>
<g><title>100 (position.label in template: 134.U)</title><text x="103.132" y="97.891" class="black" >U</text></g>
<g><title>100 (inserted)</title><text x="105.41" y="101.069" class="numbering-label sequential" >100</text></g>
<g><line x1="103.74" y1="98.7384" x2="104.788" y2="100.2" class="numbering-line sequential" /></g>
<g><title>101 (position.label in template: 135.G)</title><text x="101.113" y="99.338" class="black" >G</text></g>
<g><title>102 (position.label in template: 136.U)</title><text x="99.0941" y="100.786" class="green" >U</text></g>
<g><title>103 (position.label in template: 137.U)</title><text x="97.0751" y="102.234" class="green" >C</text></g>
<g><title>104 (position.label in template: 138.A)</title><text x="97.8521" y="104.346" class="black" >A</text></g>
<g><title>105 (position.label in template: 139.U)</title><text x="98.7501" y="106.699" class="black" >U</text></g>
<g><line x1="99.05" y1="107.644" x2="100.593" y2="113.405" class="black" /></g>
<g><title>106 (position.label in template: 140.A)</title><text x="101.149" y="106.056" class="black" >A</text></g>
<g><line x1="101.449" y1="107.001" x2="102.993" y2="112.762" class="black" /></g>
<g><title>107 (position.label in template: 141.C)</title><text x="103.549" y="105.412" class="black" >C</text></g>
<g><line x1="103.849" y1="106.357" x2="105.393" y2="112.119" class="black" /></g>
<g><title>108 (position.label in template: 142.U)</title><text x="105.627" y="103.57" class="green" >U</text></g>
<g><line x1="105.927" y1="104.515" x2="108.114" y2="112.675" class="black" /></g>
<g><title>109 (position.label in template: 143.U)</title><text x="108.027" y="102.926" class="green" >U</text></g>
<g><line x1="108.327" y1="103.871" x2="110.514" y2="112.032" class="black" /></g>
<g><title>110 (position.label in template: 144.G)</title><text x="110.748" y="103.483" class="green" >G</text></g>
<g><line x1="111.048" y1="104.428" x2="112.592" y2="110.189" class="black" /></g>
<g><title>111 (position.label in template: 145.G)</title><text x="113.148" y="102.84" class="black" >G</text></g>
<g><line x1="113.448" y1="103.785" x2="114.992" y2="109.546" class="black" /></g>
<g><title>112 (position.label in template: 146.G)</title><text x="115.548" y="102.197" class="green" >G</text></g>
<g><line x1="115.848" y1="103.142" x2="117.391" y2="108.903" class="black" /></g>
<g><title>113 (position.label in template: 147.U)</title><text x="117.948" y="101.554" class="black" >U</text></g>
<g><line x1="118.248" y1="102.499" x2="119.791" y2="108.26" class="black" /></g>
<g><title>114 (position.label in template: 148.G)</title><text x="120.347" y="100.911" class="black" >G</text></g>
<g><line x1="120.647" y1="101.856" x2="122.191" y2="107.617" class="black" /></g>
<g><title>115 (position.label in template: 149.A)</title><text x="122.747" y="100.267" class="black" >A</text></g>
<g><line x1="123.047" y1="101.212" x2="124.591" y2="106.974" class="black" /></g>
<g><title>116 (position.label in template: 150.G)</title><text x="125.147" y="99.624" class="black" >G</text></g>
<g><line x1="125.447" y1="100.569" x2="126.99" y2="106.331" class="black" /></g>
<g><title>117 (position.label in template: 151.A)</title><text x="127.031" y="97.275" class="black" >A</text></g>
<g><title>118 (position.label in template: 152.G)</title><text x="128.918" y="98.668" class="black" >G</text></g>
<g><line x1="129.218" y1="99.6133" x2="130.762" y2="105.374" class="black" /></g>
<g><title>119 (position.label in template: 153.U)</title><text x="131.318" y="98.024" class="green" >C</text></g>
<g><line x1="131.618" y1="98.9693" x2="133.162" y2="104.731" class="black" /></g>
<g><title>120 (position.label in template: 154.G)</title><text x="133.718" y="97.381" class="black" >G</text></g>
<g><line x1="134.018" y1="98.3263" x2="135.562" y2="104.087" class="black" /></g>
<g><title>121 (position.label in template: 155.G)</title><text x="136.117" y="96.738" class="green" >A</text></g>
<g><line x1="136.417" y1="97.6833" x2="137.961" y2="103.444" class="black" /></g>
<g><title>122 (position.label in template: 156.U)</title><text x="138.064" y="95.3551" class="blue" >U</text></g>
<g><title>123 (position.label in template: 157.C)</title><text x="140.429" y="95.0313" class="blue" >C</text></g>
<g><title>124 (position.label in template: 158.C)</title><text x="142.676" y="95.8402" class="green" >U</text></g>
<g><title>125 (position.label in template: 159.U)</title><text x="144.292" y="97.5977" class="green" >C</text></g>
<g><title>126 (inserted)</title><text x="144.91" y="99.904" class="red" >X</text></g>
<g><title>127 (inserted)</title><text x="144.39" y="102.234" class="red" >X</text></g>
<g><title>128 (inserted)</title><text x="142.849" y="104.058" class="red" >X</text></g>
<g><title>129 (inserted)</title><text x="140.638" y="104.961" class="red" >X</text></g>
<g><title>130 (position.label in template: 164.C)</title><text x="138.261" y="104.737" class="green" >U</text></g>
<g><title>131 (position.label in template: 165.C)</title><text x="135.862" y="105.38" class="black" >C</text></g>
<g><title>132 (position.label in template: 166.G)</title><text x="133.462" y="106.024" class="green" >G</text></g>
<g><title>133 (position.label in template: 167.C)</title><text x="131.062" y="106.667" class="black" >C</text></g>
<g><title>134 (position.label in template: 168.C)</title><text x="127.29" y="107.624" class="black" >C</text></g>
<g><title>135 (position.label in template: 169.U)</title><text x="124.891" y="108.267" class="black" >U</text></g>
<g><title>136 (position.label in template: 170.C)</title><text x="122.491" y="108.91" class="black" >C</text></g>
<g><title>137 (position.label in template: 171.A)</title><text x="120.091" y="109.553" class="black" >A</text></g>
<g><title>138 (position.label in template: 172.C)</title><text x="117.691" y="110.196" class="green" >U</text></g>
<g><title>139 (position.label in template: 173.C)</title><text x="115.292" y="110.839" class="black" >C</text></g>
<g><title>140 (position.label in template: 174.U)</title><text x="112.892" y="111.482" class="green" >C</text></g>
<g><title>141 (position.label in template: 175.U)</title><text x="110.814" y="113.325" class="green" >A</text></g>
<g><title>142 (position.label in template: 176.U)</title><text x="108.414" y="113.968" class="green" >A</text></g>
<g><title>143 (position.label in template: 177.G)</title><text x="105.693" y="113.412" class="black" >G</text></g>
<g><title>144 (position.label in template: 178.U)</title><text x="103.293" y="114.055" class="black" >U</text></g>
<g><title>145 (position.label in template: 179.A)</title><text x="100.893" y="114.698" class="black" >A</text></g>
<g><title>146 (position.label in template: 180.A)</title><text x="100.972" y="117.181" class="black" >A</text></g>
<g><title>147 (position.label in template: 181.G)</title><text x="100.94" y="119.665" class="black" >G</text></g>
<g><title>148 (position.label in template: 182.A)</title><text x="100.716" y="122.14" class="black" >A</text></g>
<g><title>149 (position.label in template: 183.U)</title><text x="100.295" y="124.588" class="black" >U</text></g>
<g><title>150 (position.label in template: 184.U)</title><text x="99.6817" y="126.996" class="black" >U</text></g>
<g><title>150 (inserted)</title><text x="103.43" y="128.108" class="numbering-label sequential" >150</text></g>
<g><line x1="100.681" y1="127.292" x2="101.866" y2="127.644" class="numbering-line sequential" /></g>
<g><title>151 (position.label in template: 185.A)</title><text x="98.8832" y="129.348" class="black" >A</text></g>
<g><title>152 (inserted)</title><text x="100.743" y="130.996" class="red" >C</text></g>
<g><title>153 (inserted)</title><text x="102.603" y="132.643" class="red" >C</text></g>
<g><title>154 (inserted)</title><text x="104.462" y="134.291" class="red" >C</text></g>
<g><title>155 (inserted)</title><text x="106.322" y="135.938" class="red" >G</text></g>
<g><title>156 (inserted)</title><text x="108.181" y="137.586" class="red" >C</text></g>
<g><title>157 (inserted)</title><text x="110.041" y="139.233" class="red" >U</text></g>
<g><title>158 (position.label in template: 192.G)</title><text x="111.901" y="140.881" class="black" >G</text></g>
<g><title>159 (position.label in template: 193.A)</title><text x="114.376" y="141.089" class="black" >A</text></g>
<g><title>160 (position.label in template: 194.A)</title><text x="116.621" y="142.153" class="black" >A</text></g>
<g><title>161 (position.label in template: 195.C)</title><text x="118.351" y="143.936" class="black" >C</text></g>
<g><title>162 (position.label in template: 196.U)</title><text x="119.346" y="146.213" class="black" >U</text></g>
<g><title>163 (position.label in template: 3903.3')</title><text x="120.34" y="148.49" class="green" >3'</text></g>
<g><line x1="59.3571" y1="86.8915" x2="59.5194" y2="86.8509" class="gray" /></g>
<g><line x1="61.7673" y1="86.2887" x2="61.9295" y2="86.2481" class="gray" /></g>
<g><line x1="64.2024" y1="85.8174" x2="64.3682" y2="85.7958" class="gray" /></g>
<g><line x1="66.0351" y1="84.6099" x2="66.2412" y2="84.1976" class="gray" /></g>
<g><line x1="66.7591" y1="82.0026" x2="66.7591" y2="81.8358" class="gray" /></g>
<g><line x1="66.7596" y1="79.5186" x2="66.7597" y2="79.3508" class="gray" /></g>
<g><line x1="65.8368" y1="77.4924" x2="65.8165" y2="77.477" class="gray" /></g>
<g><line x1="63.8043" y1="77.1731" x2="63.647" y2="77.2303" class="gray" /></g>
<g><line x1="61.4694" y1="78.0225" x2="61.3118" y2="78.0799" class="gray" /></g>
<g><line x1="59.1345" y1="78.8727" x2="58.9778" y2="78.9297" class="gray" /></g>
<g><line x1="56.8004" y1="79.7225" x2="56.6428" y2="79.7799" class="gray" /></g>
<g><line x1="54.3962" y1="80.2166" x2="54.1545" y2="80.225" class="gray" /></g>
<g><line x1="52.0361" y1="79.6175" x2="51.8356" y2="79.4822" class="gray" /></g>
<g><line x1="50.4789" y1="77.7456" x2="50.3962" y2="77.5183" class="gray" /></g>
<g><line x1="50.3194" y1="75.3158" x2="50.3861" y2="75.0833" class="gray" /></g>
<g><line x1="51.6185" y1="73.2564" x2="51.8091" y2="73.1075" class="gray" /></g>
<g><line x1="53.8108" y1="71.9977" x2="53.9675" y2="71.9407" class="gray" /></g>
<g><line x1="56.145" y1="71.1483" x2="56.3023" y2="71.0911" class="gray" /></g>
<g><line x1="58.4796" y1="70.2983" x2="58.6366" y2="70.2411" class="gray" /></g>
<g><line x1="60.814" y1="69.4483" x2="60.9713" y2="69.3911" class="gray" /></g>
<g><line x1="62.3604" y1="67.8762" x2="62.6468" y2="66.8092" class="gray" /></g>
<g><line x1="63.6426" y1="64.7635" x2="64.3057" y2="63.8799" class="gray" /></g>
<g><line x1="65.9916" y1="62.3522" x2="66.9356" y2="61.7793" class="gray" /></g>
<g><line x1="69.0691" y1="60.9889" x2="70.1581" y2="60.8085" class="gray" /></g>
<g><line x1="72.4324" y1="60.8694" x2="73.5119" y2="61.1081" class="gray" /></g>
<g><line x1="75.5998" y1="62.0118" x2="76.5115" y2="62.6346" class="gray" /></g>
<g><line x1="78.557" y1="62.8923" x2="78.7143" y2="62.8351" class="gray" /></g>
<g><line x1="80.8886" y1="62.0343" x2="82.9476" y2="61.2662" class="gray" /></g>
<g><line x1="85.1218" y1="60.4647" x2="85.2785" y2="60.4077" class="gray" /></g>
<g><line x1="87.4558" y1="59.6149" x2="87.6134" y2="59.5575" class="gray" /></g>
<g><line x1="88.9296" y1="58.0252" x2="88.9626" y2="57.8602" class="gray" /></g>
<g><line x1="89.6886" y1="55.6783" x2="89.7607" y2="55.5271" class="gray" /></g>
<g><line x1="90.9984" y1="53.5891" x2="91.1059" y2="53.4593" class="gray" /></g>
<g><line x1="92.7799" y1="51.8828" x2="92.9153" y2="51.7837" class="gray" /></g>
<g><line x1="94.9242" y1="50.6647" x2="95.0801" y2="50.6017" class="gray" /></g>
<g><line x1="97.3018" y1="50.0083" x2="97.4685" y2="49.9852" class="gray" /></g>
<g><line x1="99.7678" y1="49.953" x2="99.9345" y2="49.9714" class="gray" /></g>
<g><line x1="102.172" y1="50.5027" x2="102.33" y2="50.5618" class="gray" /></g>
<g><line x1="104.37" y1="51.6242" x2="104.508" y2="51.7192" class="gray" /></g>
<g><line x1="106.225" y1="53.2485" x2="106.336" y2="53.3749" class="gray" /></g>
<g><line x1="107.627" y1="55.2776" x2="107.703" y2="55.4268" class="gray" /></g>
<g><line x1="108.49" y1="57.5875" x2="108.528" y2="57.752" class="gray" /></g>
<g><line x1="108.762" y1="60.0395" x2="108.758" y2="60.2079" class="gray" /></g>
<g><line x1="108.426" y1="62.4833" x2="108.381" y2="62.6451" class="gray" /></g>
<g><line x1="107.503" y1="64.77" x2="107.42" y2="64.9164" class="gray" /></g>
<g><line x1="106.047" y1="66.7614" x2="105.931" y2="66.883" class="gray" /></g>
<g><line x1="104.149" y1="68.3364" x2="104.006" y2="68.426" class="gray" /></g>
<g><line x1="101.923" y1="69.3995" x2="101.764" y2="69.4509" class="gray" /></g>
<g><line x1="99.5061" y1="69.8856" x2="99.3381" y2="69.8968" class="gray" /></g>
<g><line x1="97.0424" y1="69.7658" x2="96.8768" y2="69.7356" class="gray" /></g>
<g><line x1="94.6829" y1="69.0467" x2="94.5294" y2="68.9767" class="gray" /></g>
<g><line x1="92.5707" y1="67.7722" x2="92.4396" y2="67.6673" class="gray" /></g>
<g><line x1="90.4464" y1="67.3395" x2="90.2888" y2="67.3969" class="gray" /></g>
<g><line x1="88.1115" y1="68.1897" x2="87.9548" y2="68.2467" class="gray" /></g>
<g><line x1="86.1313" y1="69.5389" x2="85.947" y2="69.7635" class="gray" /></g>
<g><line x1="84.07" y1="70.4646" x2="83.7773" y2="70.4148" class="gray" /></g>
<g><line x1="81.5464" y1="70.6165" x2="81.3888" y2="70.6739" class="gray" /></g>
<g><line x1="80.0683" y1="72.2054" x2="80.0649" y2="72.222" class="gray" /></g>
<g><line x1="79.2866" y1="74.3788" x2="79.2787" y2="74.3936" class="gray" /></g>
<g><line x1="77.9166" y1="76.2382" x2="77.9046" y2="76.2503" class="gray" /></g>
<g><line x1="76.0726" y1="77.6291" x2="76.0576" y2="77.6373" class="gray" /></g>
<g><line x1="75.0411" y1="79.3518" x2="75.0411" y2="79.5186" class="gray" /></g>
<g><line x1="75.0411" y1="81.8358" x2="75.0411" y2="82.0036" class="gray" /></g>
<g><line x1="75.5593" y1="84.1985" x2="75.765" y2="84.6099" class="gray" /></g>
<g><line x1="77.1255" y1="86.4416" x2="77.1967" y2="86.5088" class="gray" /></g>
<g><line x1="79.136" y1="87.6772" x2="79.3392" y2="87.7463" class="gray" /></g>
<g><line x1="83.9557" y1="83.9534" x2="84.2936" y2="83.64" class="gray" /></g>
<g><line x1="85.5507" y1="81.7677" x2="85.6096" y2="81.6108" class="gray" /></g>
<g><line x1="86.9512" y1="79.8407" x2="88.2731" y2="78.8707" class="gray" /></g>
<g><line x1="90.2917" y1="78.5928" x2="91.8266" y2="79.1696" class="gray" /></g>
<g><line x1="93.1624" y1="80.7082" x2="93.5179" y2="82.3082" class="gray" /></g>
<g><line x1="93.3616" y1="84.5238" x2="93.3027" y2="84.6807" class="gray" /></g>
<g><line x1="93.0157" y1="86.9175" x2="93.0636" y2="87.3749" class="gray" /></g>
<g><line x1="92.8733" y1="89.6433" x2="92.6169" y2="90.5641" class="gray" /></g>
<g><line x1="92.288" y1="92.8387" x2="92.2672" y2="94.1718" class="gray" /></g>
<g><line x1="93.1906" y1="94.655" x2="93.3266" y2="94.5574" class="gray" /></g>
<g><line x1="95.2096" y1="93.207" x2="95.3456" y2="93.1094" class="gray" /></g>
<g><line x1="97.2286" y1="91.759" x2="97.3646" y2="91.6614" class="gray" /></g>
<g><line x1="99.2478" y1="90.3113" x2="99.3834" y2="90.2141" class="gray" /></g>
<g><line x1="101.267" y1="88.864" x2="101.403" y2="88.7664" class="gray" /></g>
<g><line x1="103.305" y1="87.4442" x2="104.682" y2="86.5172" class="gray" /></g>
<g><line x1="106.585" y1="85.195" x2="106.721" y2="85.0974" class="gray" /></g>
<g><line x1="108.604" y1="83.747" x2="108.74" y2="83.6494" class="gray" /></g>
<g><line x1="110.623" y1="82.2993" x2="110.758" y2="82.2021" class="gray" /></g>
<g><line x1="112.642" y1="80.852" x2="112.778" y2="80.7544" class="gray" /></g>
<g><line x1="114.836" y1="79.7723" x2="114.997" y2="79.7281" class="gray" /></g>
<g><line x1="117.206" y1="79.8078" x2="117.364" y2="79.8636" class="gray" /></g>
<g><line x1="119.131" y1="81.1918" x2="119.228" y2="81.3267" class="gray" /></g>
<g><line x1="119.919" y1="83.4267" x2="119.921" y2="83.5937" class="gray" /></g>
<g><line x1="119.287" y1="85.7117" x2="119.193" y2="85.8497" class="gray" /></g>
<g><line x1="117.603" y1="87.4844" x2="117.467" y2="87.582" class="gray" /></g>
<g><line x1="115.583" y1="88.9321" x2="115.448" y2="89.0293" class="gray" /></g>
<g><line x1="113.565" y1="90.3794" x2="113.429" y2="90.477" class="gray" /></g>
<g><line x1="111.546" y1="91.8274" x2="111.41" y2="91.925" class="gray" /></g>
<g><line x1="110.03" y1="93.6729" x2="110.029" y2="93.6765" class="gray" /></g>
<g><line x1="108.433" y1="94.7837" x2="108.328" y2="94.7868" class="gray" /></g>
<g><line x1="106.229" y1="95.4964" x2="106.093" y2="95.594" class="gray" /></g>
<g><line x1="104.21" y1="96.9444" x2="104.074" y2="97.042" class="gray" /></g>
<g><line x1="102.19" y1="98.3921" x2="102.055" y2="98.4893" class="gray" /></g>
<g><line x1="100.172" y1="99.8394" x2="100.036" y2="99.937" class="gray" /></g>
<g><line x1="98.1526" y1="101.287" x2="98.0166" y2="101.385" class="gray" /></g>
<g><line x1="98.2652" y1="105.255" x2="98.337" y2="105.443" class="gray" /></g>
<g><line x1="99.8692" y1="106.225" x2="100.03" y2="106.182" class="gray" /></g>
<g><line x1="102.268" y1="105.582" x2="102.43" y2="105.538" class="gray" /></g>
<g><line x1="104.416" y1="104.47" x2="104.76" y2="104.165" class="gray" /></g>
<g><line x1="106.746" y1="103.096" x2="106.908" y2="103.052" class="gray" /></g>
<g><line x1="109.162" y1="102.985" x2="109.613" y2="103.077" class="gray" /></g>
<g><line x1="111.867" y1="103.009" x2="112.029" y2="102.966" class="gray" /></g>
<g><line x1="114.267" y1="102.366" x2="114.429" y2="102.323" class="gray" /></g>
<g><line x1="116.667" y1="101.723" x2="116.829" y2="101.68" class="gray" /></g>
<g><line x1="119.067" y1="101.08" x2="119.228" y2="101.037" class="gray" /></g>
<g><line x1="121.466" y1="100.437" x2="121.628" y2="100.393" class="gray" /></g>
<g><line x1="123.866" y1="99.7934" x2="124.028" y2="99.75" class="gray" /></g>
<g><line x1="125.872" y1="98.5464" x2="126.306" y2="98.005" class="gray" /></g>
<g><line x1="127.963" y1="97.7893" x2="127.986" y2="97.8061" class="gray" /></g>
<g><line x1="130.037" y1="98.1939" x2="130.199" y2="98.1505" class="gray" /></g>
<g><line x1="132.437" y1="97.5504" x2="132.599" y2="97.507" class="gray" /></g>
<g><line x1="134.837" y1="96.9073" x2="134.998" y2="96.8642" class="gray" /></g>
<g><line x1="137.062" y1="95.8932" x2="137.119" y2="95.8523" class="gray" /></g>
<g><line x1="139.211" y1="95.0242" x2="139.281" y2="95.0146" class="gray" /></g>
<g><line x1="141.519" y1="95.25" x2="141.586" y2="95.2739" class="gray" /></g>
<g><line x1="143.46" y1="96.5192" x2="143.508" y2="96.5711" class="gray" /></g>
<g><line x1="144.592" y1="98.543" x2="144.61" y2="98.6111" class="gray" /></g>
<g><line x1="144.658" y1="100.861" x2="144.642" y2="100.93" class="gray" /></g>
<g><line x1="143.642" y1="102.946" x2="143.596" y2="102.999" class="gray" /></g>
<g><line x1="141.776" y1="104.323" x2="141.711" y2="104.349" class="gray" /></g>
<g><line x1="139.485" y1="104.679" x2="139.415" y2="104.672" class="gray" /></g>
<g><line x1="137.142" y1="104.863" x2="136.981" y2="104.906" class="gray" /></g>
<g><line x1="134.743" y1="105.506" x2="134.581" y2="105.55" class="gray" /></g>
<g><line x1="132.343" y1="106.15" x2="132.181" y2="106.193" class="gray" /></g>
<g><line x1="129.939" y1="106.778" x2="128.413" y2="107.165" class="gray" /></g>
<g><line x1="126.171" y1="107.75" x2="126.01" y2="107.793" class="gray" /></g>
<g><line x1="123.772" y1="108.393" x2="123.61" y2="108.436" class="gray" /></g>
<g><line x1="121.372" y1="109.036" x2="121.21" y2="109.079" class="gray" /></g>
<g><line x1="118.972" y1="109.679" x2="118.81" y2="109.722" class="gray" /></g>
<g><line x1="116.572" y1="110.322" x2="116.411" y2="110.365" class="gray" /></g>
<g><line x1="114.173" y1="110.965" x2="114.011" y2="111.008" class="gray" /></g>
<g><line x1="112.025" y1="112.077" x2="111.681" y2="112.382" class="gray" /></g>
<g><line x1="109.695" y1="113.451" x2="109.533" y2="113.494" class="gray" /></g>
<g><line x1="107.279" y1="113.562" x2="106.828" y2="113.47" class="gray" /></g>
<g><line x1="104.574" y1="113.538" x2="104.412" y2="113.581" class="gray" /></g>
<g><line x1="102.174" y1="114.181" x2="102.012" y2="114.224" class="gray" /></g>
<g><line x1="100.93" y1="115.682" x2="100.935" y2="115.849" class="gray" /></g>
<g><line x1="100.957" y1="118.166" x2="100.955" y2="118.333" class="gray" /></g>
<g><line x1="100.836" y1="120.645" x2="100.82" y2="120.812" class="gray" /></g>
<g><line x1="100.52" y1="123.108" x2="100.491" y2="123.273" class="gray" /></g>
<g><line x1="100.009" y1="125.537" x2="99.9679" y2="125.699" class="gray" /></g>
<g><line x1="99.3093" y1="127.919" x2="99.2556" y2="128.077" class="gray" /></g>
<g><line x1="99.7505" y1="129.943" x2="99.8756" y2="130.054" class="gray" /></g>
<g><line x1="101.61" y1="131.59" x2="101.735" y2="131.701" class="gray" /></g>
<g><line x1="103.47" y1="133.238" x2="103.595" y2="133.349" class="gray" /></g>
<g><line x1="105.329" y1="134.885" x2="105.455" y2="134.996" class="gray" /></g>
<g><line x1="107.189" y1="136.533" x2="107.314" y2="136.644" class="gray" /></g>
<g><line x1="109.049" y1="138.18" x2="109.174" y2="138.291" class="gray" /></g>
<g><line x1="110.908" y1="139.828" x2="111.033" y2="139.938" class="gray" /></g>
<g><line x1="113.055" y1="140.804" x2="113.222" y2="140.818" class="gray" /></g>
<g><line x1="115.423" y1="141.412" x2="115.574" y2="141.483" class="gray" /></g>
<g><line x1="117.428" y1="142.811" x2="117.545" y2="142.931" class="gray" /></g>
<g><line x1="118.815" y1="144.824" x2="118.882" y2="144.978" class="gray" /></g>
<g><line x1="119.81" y1="147.101" x2="119.877" y2="147.254" class="gray" /></g>
</svg>
