<svg
	xmlns="http://www.w3.org/2000/svg"
	width="296.546"
	height="253.96"
	style="font-size: 3.060353px; font-weight: bold; font-family: Helvetica; " >
<g><style type="text/css" >
<!-- create color definitions -->
<![CDATA[
text.red {fill: rgb(255, 0, 255); }
text.green {fill: rgb(0, 255, 0); }
text.blue {fill: rgb(0, 0, 255); }
text.black {fill: rgb(0, 0, 0); }
text.gray {fill: rgb(204, 204, 204); }
text.brown {fill: rgb(211.65, 104.55, 30.6); }
text {fill: rgb(0, 0, 0); text-anchor: middle; alignment-baseline: middle; }
circle.red {stroke: rgb(255, 0, 255); fill: none; }
circle.green {stroke: rgb(0, 255, 0); fill: none; }
circle.blue {stroke: rgb(0, 0, 255); fill: none; }
circle.black {stroke: rgb(0, 0, 0); fill: none; }
circle.gray {stroke: rgb(204, 204, 204); fill: none; }
circle.brown {stroke: rgb(211.65, 104.55, 30.6); fill: none; }
circle {stroke: rgb(0, 0, 0); }
line.red {stroke: rgb(255, 0, 255); stroke-width: 0.382544; }
line.green {stroke: rgb(0, 255, 0); stroke-width: 0.382544; }
line.blue {stroke: rgb(0, 0, 255); stroke-width: 0.382544; }
line.black {stroke: rgb(0, 0, 0); stroke-width: 0.382544; }
line.gray {stroke: rgb(204, 204, 204); stroke-width: 0.382544; }
line.brown {stroke: rgb(211.65, 104.55, 30.6); stroke-width: 0.382544; }
line {stroke: rgb(0, 0, 0); }
text.numbering-label {fill: rgb(204, 204, 204);}
line.numbering-line {stroke: rgb(204, 204, 204); stroke-width: 0.191272;}
line.predicted {stroke: rgb(0, 0, 0); stroke-dasharray: 2}
text.background {fill: rgb(255, 255, 255);
.template {visibility:hidden}
]]>
</style></g>
<g><title>0 (position.label in template: 0.5')</title><text x="53.8392" y="121.7" class="green" >5'</text></g>
<g><title>1 (position.label in template: 14.G)</title><text x="54.05" y="114.11" class="green" >G</text></g>
<g><line x1="56.0902" y1="113.804" x2="64.6698" y2="113.804" class="black" /></g>
<g><title>2 (position.label in template: 15.U)</title><text x="54.26" y="106.55" class="green" >U</text></g>
<g><line x1="56.3002" y1="106.244" x2="64.4598" y2="106.244" class="black" /></g>
<g><title>3 (position.label in template: 16.C)</title><text x="54.26" y="98.99" class="black" >C</text></g>
<g><line x1="56.3002" y1="98.684" x2="64.2498" y2="98.684" class="black" /></g>
<g><title>4 (position.label in template: 17.G)</title><text x="54.05" y="91.43" class="green" >A</text></g>
<g><line x1="56.0902" y1="91.124" x2="64.4598" y2="91.124" class="black" /></g>
<g><title>5 (position.label in template: 18.C)</title><text x="54.26" y="83.87" class="black" >C</text></g>
<g><line x1="56.3002" y1="83.564" x2="64.2498" y2="83.564" class="black" /></g>
<g><title>6 (position.label in template: 19.Y)</title><text x="54.47" y="76.31" class="green" >U</text></g>
<g><line x1="56.5102" y1="76.004" x2="64.4598" y2="76.004" class="black" /></g>
<g><title>7 (position.label in template: 20.G)</title><text x="54.05" y="68.75" class="black" >G</text></g>
<g><line x1="56.0902" y1="68.444" x2="64.4598" y2="68.444" class="black" /></g>
<g><title>8 (position.label in template: 21.C)</title><text x="50" y="62.51" class="black" >C</text></g>
<g><title>9 (position.label in template: 22.N)</title><text x="51.08" y="55.22" class="green" >C</text></g>
<g><title>10 (position.label in template: 23.A)</title><text x="56.81" y="50" class="black" >A</text></g>
<g><title>10 (inserted)</title><text x="54.2926" y="43.5909" class="numbering-label sequential" >10</text></g>
<g><line x1="56.1387" y1="48.2909" x2="54.8937" y2="45.121" class="numbering-line sequential" /></g>
<g><title>11 (position.label in template: 24.A)</title><text x="64.37" y="50" class="black" >A</text></g>
<g><title>12 (position.label in template: 25.N)</title><text x="69.98" y="55.22" class="green" >U</text></g>
<g><title>13 (position.label in template: 26.U)</title><text x="70.76" y="62.51" class="black" >U</text></g>
<g><title>14 (position.label in template: 27.C)</title><text x="66.5" y="68.75" class="black" >C</text></g>
<g><title>15 (position.label in template: 28.R)</title><text x="66.5" y="76.31" class="green" >A</text></g>
<g><title>16 (position.label in template: 29.G)</title><text x="66.29" y="83.87" class="black" >G</text></g>
<g><title>17 (position.label in template: 30.C)</title><text x="66.5" y="91.43" class="green" >U</text></g>
<g><title>18 (position.label in template: 31.G)</title><text x="66.29" y="98.99" class="black" >G</text></g>
<g><title>19 (position.label in template: 32.R)</title><text x="66.5" y="106.55" class="green" >A</text></g>
<g><title>20 (position.label in template: 33.Y)</title><text x="66.71" y="114.11" class="green" >C</text></g>
<g><title>20 (inserted)</title><text x="71.8126" y="109.486" class="numbering-label sequential" >20</text></g>
<g><line x1="68.0707" y1="112.877" x2="70.1239" y2="111.017" class="numbering-line sequential" /></g>
<g><title>21 (inserted)</title><text x="76.149" y="117.199" class="red" >C</text></g>
<g><title>22 (inserted)</title><text x="83.365" y="119.56" class="red" >G</text></g>
<g><title>23 (inserted)</title><text x="90.581" y="121.921" class="red" >G</text></g>
<g><title>24 (position.label in template: 37.N)</title><text x="100.02" y="125.01" class="green" >G</text></g>
<g><line x1="100.03" y1="126.744" x2="100.07" y2="134.704" class="black" /></g>
<g><title>25 (position.label in template: 38.Y)</title><text x="100.976" y="117.592" class="green" >U</text></g>
<g><title>26 (position.label in template: 39.N)</title><text x="102.682" y="110.31" class="green" >U</text></g>
<g><title>27 (position.label in template: 40.U)</title><text x="105.121" y="103.239" class="blue" >U</text></g>
<g><title>28 (position.label in template: 41.G)</title><text x="108.266" y="96.4533" class="green" >A</text></g>
<g><title>29 (position.label in template: 42.R)</title><text x="112.086" y="90.0231" class="green" >G</text></g>
<g><title>30 (position.label in template: 43.N)</title><text x="116.541" y="84.0153" class="green" >C</text></g>
<g><title>30 (inserted)</title><text x="111.227" y="79.6373" class="numbering-label sequential" >30</text></g>
<g><line x1="115.124" y1="82.8478" x2="113.063" y2="81.1498" class="numbering-line sequential" /></g>
<g><title>31 (position.label in template: 44.A)</title><text x="121.585" y="78.4921" class="blue" >A</text></g>
<g><title>32 (inserted)</title><text x="127.165" y="73.5112" class="red" >G</text></g>
<g><title>33 (inserted)</title><text x="133.222" y="69.1241" class="red" >C</text></g>
<g><title>34 (inserted)</title><text x="139.695" y="65.3766" class="red" >C</text></g>
<g><title>35 (inserted)</title><text x="146.516" y="62.3074" class="red" >C</text></g>
<g><title>36 (inserted)</title><text x="153.613" y="59.9487" class="red" >G</text></g>
<g><title>37 (inserted)</title><text x="160.914" y="58.3247" class="red" >C</text></g>
<g><title>38 (inserted)</title><text x="168.343" y="57.4524" class="red" >C</text></g>
<g><title>39 (inserted)</title><text x="175.821" y="57.341" class="red" >G</text></g>
<g><title>40 (inserted)</title><text x="183.272" y="57.9914" class="red" >A</text></g>
<g><title>41 (inserted)</title><text x="190.618" y="59.3971" class="red" >U</text></g>
<g><title>42 (inserted)</title><text x="197.783" y="61.5433" class="red" >A</text></g>
<g><title>43 (inserted)</title><text x="204.692" y="64.4078" class="red" >U</text></g>
<g><title>44 (inserted)</title><text x="211.274" y="67.9608" class="red" >G</text></g>
<g><title>45 (inserted)</title><text x="217.46" y="72.1653" class="red" >A</text></g>
<g><title>46 (inserted)</title><text x="223.185" y="76.9778" class="red" >C</text></g>
<g><title>47 (inserted)</title><text x="228.391" y="82.3481" class="red" >U</text></g>
<g><title>48 (inserted)</title><text x="233.023" y="88.2206" class="red" >A</text></g>
<g><title>49 (inserted)</title><text x="237.033" y="94.534" class="red" >G</text></g>
<g><title>50 (inserted)</title><text x="240.38" y="101.223" class="red" >G</text></g>
<g><title>50 (inserted)</title><text x="246.687" y="98.4599" class="numbering-label sequential" >50</text></g>
<g><line x1="242.062" y1="100.486" x2="244.851" y2="99.2643" class="numbering-line sequential" /></g>
<g><title>51 (inserted)</title><text x="243.028" y="108.218" class="red" >C</text></g>
<g><title>52 (inserted)</title><text x="244.951" y="115.446" class="red" >G</text></g>
<g><title>53 (inserted)</title><text x="246.127" y="122.832" class="red" >C</text></g>
<g><title>54 (inserted)</title><text x="246.546" y="130.3" class="red" >A</text></g>
<g><title>55 (inserted)</title><text x="246.202" y="137.771" class="red" >A</text></g>
<g><title>56 (inserted)</title><text x="245.099" y="145.169" class="red" >A</text></g>
<g><title>57 (inserted)</title><text x="243.249" y="152.416" class="red" >G</text></g>
<g><title>58 (inserted)</title><text x="240.67" y="159.437" class="red" >C</text></g>
<g><title>59 (inserted)</title><text x="237.39" y="166.159" class="red" >G</text></g>
<g><title>60 (inserted)</title><text x="233.443" y="172.512" class="red" >C</text></g>
<g><title>61 (inserted)</title><text x="228.87" y="178.43" class="red" >C</text></g>
<g><title>62 (inserted)</title><text x="223.718" y="183.852" class="red" >A</text></g>
<g><title>63 (inserted)</title><text x="218.041" y="188.722" class="red" >C</text></g>
<g><title>64 (inserted)</title><text x="211.897" y="192.988" class="red" >C</text></g>
<g><title>65 (inserted)</title><text x="205.351" y="196.606" class="red" >U</text></g>
<g><title>66 (inserted)</title><text x="198.471" y="199.539" class="red" >U</text></g>
<g><title>67 (inserted)</title><text x="191.328" y="201.757" class="red" >U</text></g>
<g><title>68 (inserted)</title><text x="183.996" y="203.235" class="red" >U</text></g>
<g><title>69 (inserted)</title><text x="176.552" y="203.96" class="red" >G</text></g>
<g><title>70 (inserted)</title><text x="169.073" y="203.923" class="red" >C</text></g>
<g><title>71 (inserted)</title><text x="161.636" y="203.125" class="red" >A</text></g>
<g><title>72 (inserted)</title><text x="154.319" y="201.574" class="red" >G</text></g>
<g><title>73 (inserted)</title><text x="147.198" y="199.286" class="red" >G</text></g>
<g><title>74 (inserted)</title><text x="140.347" y="196.285" class="red" >G</text></g>
<g><title>75 (inserted)</title><text x="133.838" y="192.602" class="red" >C</text></g>
<g><title>76 (inserted)</title><text x="127.736" y="188.276" class="red" >G</text></g>
<g><title>77 (inserted)</title><text x="122.108" y="183.351" class="red" >C</text></g>
<g><title>78 (inserted)</title><text x="117.009" y="177.878" class="red" >U</text></g>
<g><title>79 (inserted)</title><text x="112.495" y="171.915" class="red" >U</text></g>
<g><title>80 (inserted)</title><text x="108.61" y="165.523" class="red" >U</text></g>
<g><title>81 (inserted)</title><text x="105.397" y="158.769" class="red" >U</text></g>
<g><title>82 (inserted)</title><text x="102.888" y="151.723" class="red" >U</text></g>
<g><title>83 (inserted)</title><text x="101.11" y="144.458" class="red" >U</text></g>
<g><title>84 (position.label in template: 46.Y)</title><text x="100.08" y="137.05" class="green" >U</text></g>
<g><title>85 (position.label in template: 54.3')</title><text x="104.117" y="143.48" class="green" >3'</text></g>
<g><line x1="53.8958" y1="119.354" x2="53.9933" y2="115.843" class="gray" /></g>
<g><line x1="54.1067" y1="111.765" x2="54.2033" y2="108.283" class="gray" /></g>
<g><line x1="54.26" y1="104.204" x2="54.26" y2="100.724" class="gray" /></g>
<g><line x1="54.2033" y1="96.6445" x2="54.1067" y2="93.1634" class="gray" /></g>
<g><line x1="54.1067" y1="89.0845" x2="54.2033" y2="85.6034" class="gray" /></g>
<g><line x1="54.3167" y1="81.5245" x2="54.4133" y2="78.0434" class="gray" /></g>
<g><line x1="54.3568" y1="73.9669" x2="54.1632" y2="70.4811" class="gray" /></g>
<g><line x1="52.9393" y1="66.7326" x2="51.1107" y2="63.9153" class="gray" /></g>
<g><line x1="50.299" y1="60.1858" x2="50.781" y2="56.9322" class="gray" /></g>
<g><line x1="52.5882" y1="53.54" x2="55.3018" y2="51.0679" class="gray" /></g>
<g><line x1="58.8502" y1="49.694" x2="62.3298" y2="49.694" class="gray" /></g>
<g><line x1="65.8636" y1="51.0838" x2="68.4864" y2="53.5242" class="gray" /></g>
<g><line x1="70.1971" y1="56.9426" x2="70.5429" y2="60.1753" class="gray" /></g>
<g><line x1="69.6097" y1="63.889" x2="67.6503" y2="66.759" class="gray" /></g>
<g><line x1="66.5" y1="70.4842" x2="66.5" y2="73.9637" class="gray" /></g>
<g><line x1="66.4433" y1="78.0434" x2="66.3467" y2="81.5245" class="gray" /></g>
<g><line x1="66.3467" y1="85.6034" x2="66.4433" y2="89.0845" class="gray" /></g>
<g><line x1="66.4433" y1="93.1634" x2="66.3467" y2="96.6445" class="gray" /></g>
<g><line x1="66.3467" y1="100.723" x2="66.4433" y2="104.205" class="gray" /></g>
<g><line x1="66.5567" y1="108.283" x2="66.6533" y2="111.765" class="gray" /></g>
<g><line x1="68.6491" y1="114.438" x2="74.21" y2="116.258" class="gray" /></g>
<g><line x1="78.0881" y1="117.527" x2="81.4259" y2="118.619" class="gray" /></g>
<g><line x1="85.3041" y1="119.888" x2="88.6419" y2="120.981" class="gray" /></g>
<g><line x1="92.52" y1="122.25" x2="98.0809" y2="124.069" class="gray" /></g>
<g><line x1="100.281" y1="122.68" x2="100.715" y2="119.309" class="gray" /></g>
<g><line x1="101.441" y1="115.299" x2="102.217" y2="111.99" class="gray" /></g>
<g><line x1="103.347" y1="108.075" x2="104.455" y2="104.862" class="gray" /></g>
<g><line x1="105.979" y1="101.082" x2="107.408" y2="97.9983" class="gray" /></g>
<g><line x1="109.308" y1="94.3932" x2="111.044" y2="91.4711" class="gray" /></g>
<g><line x1="113.302" y1="88.0783" x2="115.326" y2="85.348" class="gray" /></g>
<g><line x1="117.917" y1="82.2026" x2="120.209" y2="79.6927" class="gray" /></g>
<g><line x1="123.107" y1="76.8274" x2="125.643" y2="74.5639" class="gray" /></g>
<g><line x1="128.817" y1="72.0084" x2="131.57" y2="70.0148" class="gray" /></g>
<g><line x1="134.988" y1="67.7958" x2="137.929" y2="66.0928" class="gray" /></g>
<g><line x1="141.556" y1="64.2333" x2="144.655" y2="62.8386" class="gray" /></g>
<g><line x1="148.452" y1="61.358" x2="151.677" y2="60.2861" class="gray" /></g>
<g><line x1="155.605" y1="59.1996" x2="158.923" y2="58.4616" class="gray" /></g>
<g><line x1="162.941" y1="57.7807" x2="166.316" y2="57.3843" class="gray" /></g>
<g><line x1="170.383" y1="57.116" x2="173.781" y2="57.0654" class="gray" /></g>
<g><line x1="177.854" y1="57.2124" x2="181.24" y2="57.508" class="gray" /></g>
<g><line x1="185.276" y1="58.0688" x2="188.615" y2="58.7076" class="gray" /></g>
<g><line x1="192.573" y1="59.6765" x2="195.829" y2="60.6518" class="gray" /></g>
<g><line x1="199.668" y1="62.0186" x2="202.808" y2="63.3204" class="gray" /></g>
<g><line x1="206.488" y1="65.0709" x2="209.479" y2="66.6855" class="gray" /></g>
<g><line x1="212.961" y1="68.8017" x2="215.772" y2="70.7124" class="gray" /></g>
<g><line x1="219.022" y1="73.172" x2="221.624" y2="75.359" class="gray" /></g>
<g><line x1="224.605" y1="78.1367" x2="226.971" y2="80.5772" class="gray" /></g>
<g><line x1="229.655" y1="83.644" x2="231.76" y2="86.3126" class="gray" /></g>
<g><line x1="234.117" y1="89.6367" x2="235.94" y2="92.5058" class="gray" /></g>
<g><line x1="237.946" y1="96.0526" x2="239.467" y2="99.0923" class="gray" /></g>
<g><line x1="241.102" y1="102.825" x2="242.306" y2="106.004" class="gray" /></g>
<g><line x1="243.553" y1="109.884" x2="244.426" y2="113.168" class="gray" /></g>
<g><line x1="245.272" y1="117.155" x2="245.806" y2="120.511" class="gray" /></g>
<g><line x1="246.241" y1="124.563" x2="246.431" y2="127.957" class="gray" /></g>
<g><line x1="246.452" y1="132.032" x2="246.295" y2="135.427" class="gray" /></g>
<g><line x1="245.901" y1="139.483" x2="245.4" y2="142.845" class="gray" /></g>
<g><line x1="244.594" y1="146.84" x2="243.753" y2="150.133" class="gray" /></g>
<g><line x1="242.545" y1="154.025" x2="241.373" y2="157.216" class="gray" /></g>
<g><line x1="239.775" y1="160.965" x2="238.285" y2="164.019" class="gray" /></g>
<g><line x1="236.314" y1="167.586" x2="234.52" y2="170.473" class="gray" /></g>
<g><line x1="232.196" y1="173.82" x2="230.118" y2="176.51" class="gray" /></g>
<g><line x1="227.465" y1="179.603" x2="225.123" y2="182.067" class="gray" /></g>
<g><line x1="222.169" y1="184.875" x2="219.589" y2="187.087" class="gray" /></g>
<g><line x1="216.365" y1="189.579" x2="213.573" y2="191.518" class="gray" /></g>
<g><line x1="210.112" y1="193.669" x2="207.137" y2="195.313" class="gray" /></g>
<g><line x1="203.474" y1="197.1" x2="200.348" y2="198.433" class="gray" /></g>
<g><line x1="196.523" y1="199.838" x2="193.276" y2="200.846" class="gray" /></g>
<g><line x1="189.328" y1="201.854" x2="185.996" y2="202.526" class="gray" /></g>
<g><line x1="181.966" y1="203.127" x2="178.583" y2="203.456" class="gray" /></g>
<g><line x1="174.512" y1="203.644" x2="171.113" y2="203.627" class="gray" /></g>
<g><line x1="167.044" y1="203.399" x2="163.665" y2="203.037" class="gray" /></g>
<g><line x1="159.64" y1="202.396" x2="156.315" y2="201.691" class="gray" /></g>
<g><line x1="152.377" y1="200.644" x2="149.141" y2="199.604" class="gray" /></g>
<g><line x1="145.329" y1="198.161" x2="142.216" y2="196.798" class="gray" /></g>
<g><line x1="138.572" y1="194.974" x2="135.613" y2="193.301" class="gray" /></g>
<g><line x1="132.173" y1="191.116" x2="129.401" y2="189.15" class="gray" /></g>
<g><line x1="126.201" y1="186.626" x2="123.643" y2="184.388" class="gray" /></g>
<g><line x1="120.717" y1="181.552" x2="118.4" y2="179.065" class="gray" /></g>
<g><line x1="115.778" y1="175.945" x2="113.726" y2="173.235" class="gray" /></g>
<g><line x1="111.435" y1="169.865" x2="109.67" y2="166.961" class="gray" /></g>
<g><line x1="107.734" y1="163.375" x2="106.274" y2="160.305" class="gray" /></g>
<g><line x1="104.713" y1="156.541" x2="103.573" y2="153.339" class="gray" /></g>
<g><line x1="102.403" y1="149.435" x2="101.595" y2="146.134" class="gray" /></g>
<g><line x1="100.829" y1="142.131" x2="100.361" y2="138.765" class="gray" /></g>
<g><line x1="101.165" y1="138.472" x2="103.032" y2="141.446" class="gray" /></g>
</svg>
