<svg
	xmlns="http://www.w3.org/2000/svg"
	width="224.953"
	height="187.191"
	style="font-size: 1.737882px; font-weight: bold; font-family: Helvetica; " >
<g><style type="text/css" >
<!-- create color definitions -->
<![CDATA[
text.red {fill: rgb(255, 0, 255); }
text.green {fill: rgb(0, 255, 0); }
text.blue {fill: rgb(0, 0, 255); }
text.black {fill: rgb(0, 0, 0); }
text.gray {fill: rgb(204, 204, 204); }
text.brown {fill: rgb(211.65, 104.55, 30.6); }
text {fill: rgb(0, 0, 0); text-anchor: middle; alignment-baseline: middle; }
circle.red {stroke: rgb(255, 0, 255); fill: none; }
circle.green {stroke: rgb(0, 255, 0); fill: none; }
circle.blue {stroke: rgb(0, 0, 255); fill: none; }
circle.black {stroke: rgb(0, 0, 0); fill: none; }
circle.gray {stroke: rgb(204, 204, 204); fill: none; }
circle.brown {stroke: rgb(211.65, 104.55, 30.6); fill: none; }
circle {stroke: rgb(0, 0, 0); }
line.red {stroke: rgb(255, 0, 255); stroke-width: 0.217235; }
line.green {stroke: rgb(0, 255, 0); stroke-width: 0.217235; }
line.blue {stroke: rgb(0, 0, 255); stroke-width: 0.217235; }
line.black {stroke: rgb(0, 0, 0); stroke-width: 0.217235; }
line.gray {stroke: rgb(204, 204, 204); stroke-width: 0.217235; }
line.brown {stroke: rgb(211.65, 104.55, 30.6); stroke-width: 0.217235; }
line {stroke: rgb(0, 0, 0); }
text.numbering-label {fill: rgb(204, 204, 204);}
line.numbering-line {stroke: rgb(204, 204, 204); stroke-width: 0.108618;}
line.predicted {stroke: rgb(0, 0, 0); stroke-dasharray: 2}
text.background {fill: rgb(255, 255, 255);
.template {visibility:hidden}
]]>
</style></g>
<g><title>0 (position.label in template: 0.5')</title><text x="83.9283" y="58.0719" class="green" >5'</text></g>
<g><title>1 (inserted)</title><text x="81.6665" y="57.044" class="red" >G</text></g>
<g><title>2 (inserted)</title><text x="79.4047" y="56.0161" class="red" >U</text></g>
<g><title>3 (inserted)</title><text x="77.1429" y="54.9883" class="red" >G</text></g>
<g><title>4 (position.label in template: 3470.A)</title><text x="74.881" y="53.9604" class="black" >A</text></g>
<g><title>5 (position.label in template: 3471.G)</title><text x="72.6192" y="52.9325" class="black" >G</text></g>
<g><title>6 (position.label in template: 3472.U)</title><text x="70.4749" y="51.6778" class="green" >A</text></g>
<g><title>7 (position.label in template: 3473.U)</title><text x="68.6426" y="50" class="black" >U</text></g>
<g><title>8 (inserted)</title><text x="66.8182" y="51.6864" class="red" >U</text></g>
<g><title>9 (inserted)</title><text x="64.9938" y="53.3728" class="red" >G</text></g>
<g><title>10 (position.label in template: 3476.A)</title><text x="63.1694" y="55.0591" class="green" >U</text></g>
<g><title>10 (inserted)</title><text x="60.0613" y="52.6863" class="numbering-label sequential" >10</text></g>
<g><line x1="62.3406" y1="54.4264" x2="61.1041" y2="53.4824" class="numbering-line sequential" /></g>
<g><title>11 (inserted)</title><text x="62.0234" y="57.2635" class="red" >G</text></g>
<g><title>12 (inserted)</title><text x="60.8775" y="59.4678" class="red" >A</text></g>
<g><title>13 (inserted)</title><text x="59.7315" y="61.6722" class="red" >A</text></g>
<g><title>14 (inserted)</title><text x="58.5856" y="63.8765" class="red" >G</text></g>
<g><title>15 (inserted)</title><text x="57.4396" y="66.0809" class="red" >G</text></g>
<g><title>16 (inserted)</title><text x="56.2937" y="68.2853" class="red" >G</text></g>
<g><title>17 (inserted)</title><text x="55.1477" y="70.4896" class="red" >A</text></g>
<g><title>18 (inserted)</title><text x="54.0018" y="72.694" class="red" >U</text></g>
<g><title>19 (inserted)</title><text x="52.8558" y="74.8983" class="red" >C</text></g>
<g><title>20 (position.label in template: 3488.U)</title><text x="51.7099" y="77.1027" class="black" >U</text></g>
<g><title>20 (inserted)</title><text x="48.1321" y="75.5248" class="numbering-label sequential" >20</text></g>
<g><line x1="50.7558" y1="76.6819" x2="49.1748" y2="75.9847" class="numbering-line sequential" /></g>
<g><title>21 (inserted)</title><text x="50.8549" y="79.4354" class="red" >C</text></g>
<g><title>22 (position.label in template: 3491.A)</title><text x="50" y="81.7681" class="green" >G</text></g>
<g><title>23 (position.label in template: 3492.U)</title><text x="51.1096" y="83.9909" class="black" >U</text></g>
<g><title>24 (position.label in template: 3493.U)</title><text x="52.3587" y="86.1385" class="green" >A</text></g>
<g><title>25 (position.label in template: 3494.G)</title><text x="53.3769" y="88.4047" class="black" >G</text></g>
<g><line x1="53.3769" y1="89.3895" x2="53.3769" y2="95.3533" class="black" /></g>
<g><title>26 (position.label in template: 3495.U)</title><text x="55.8609" y="88.4047" class="green" >G</text></g>
<g><line x1="55.8609" y1="89.3895" x2="55.8609" y2="95.3533" class="black" /></g>
<g><title>27 (position.label in template: 3496.U)</title><text x="58.3459" y="88.4047" class="green" >U</text></g>
<g><line x1="58.3459" y1="89.3895" x2="58.3459" y2="95.3533" class="black" /></g>
<g><title>28 (position.label in template: 3497.U)</title><text x="60.8299" y="88.4047" class="green" >A</text></g>
<g><line x1="60.8299" y1="89.3895" x2="60.8299" y2="95.3533" class="black" /></g>
<g><title>29 (position.label in template: 3498.G)</title><text x="63.3139" y="88.4047" class="green" >U</text></g>
<g><line x1="63.3139" y1="89.3895" x2="63.3139" y2="95.3533" class="black" /></g>
<g><title>30 (position.label in template: 3499.C)</title><text x="65.7989" y="88.4047" class="black" >C</text></g>
<g><line x1="65.7989" y1="89.3895" x2="65.7989" y2="95.3533" class="black" /></g>
<g><title>30 (inserted)</title><text x="65.7989" y="84.4945" class="numbering-label sequential" >30</text></g>
<g><line x1="65.7989" y1="87.362" x2="65.7989" y2="85.3634" class="numbering-line sequential" /></g>
<g><title>31 (position.label in template: 3500.G)</title><text x="69.6545" y="88.4047" class="black" >G</text></g>
<g><line x1="69.6545" y1="89.3895" x2="69.6545" y2="95.3533" class="black" /></g>
<g><title>32 (position.label in template: 3501.U)</title><text x="72.1395" y="88.4047" class="black" >U</text></g>
<g><line x1="72.1395" y1="89.3895" x2="72.1395" y2="95.3533" class="black" /></g>
<g><title>33 (position.label in template: 3502.A)</title><text x="76.0625" y="85.8947" class="green" >G</text></g>
<g><title>34 (position.label in template: 3503.A)</title><text x="80.7205" y="85.8777" class="black" >A</text></g>
<g><title>35 (position.label in template: 3504.U)</title><text x="84.6615" y="88.3597" class="green" >G</text></g>
<g><line x1="84.6615" y1="89.3445" x2="84.6615" y2="95.3083" class="black" /></g>
<g><title>36 (position.label in template: 3505.A)</title><text x="87.1455" y="88.3597" class="green" >G</text></g>
<g><line x1="87.1455" y1="89.3445" x2="87.1455" y2="95.3083" class="black" /></g>
<g><title>37 (position.label in template: 3506.G)</title><text x="89.6305" y="88.3597" class="black" >G</text></g>
<g><line x1="89.6305" y1="89.3445" x2="89.6305" y2="95.3083" class="black" /></g>
<g><title>38 (position.label in template: 3507.U)</title><text x="92.1145" y="87.1177" class="green" >A</text></g>
<g><line x1="92.1145" y1="88.1025" x2="92.1145" y2="96.5513" class="black" /></g>
<g><title>39 (position.label in template: 3508.A)</title><text x="94.5995" y="88.3597" class="green" >A</text></g>
<g><line x1="94.5995" y1="89.3445" x2="94.5995" y2="95.3083" class="black" /></g>
<g><title>40 (position.label in template: 3509.G)</title><text x="96.2945" y="85.7767" class="black" >G</text></g>
<g><line x1="97.4531" y1="85.6029" x2="103.417" y2="85.6029" class="black" /></g>
<g><title>41 (position.label in template: 3510.C)</title><text x="96.2945" y="83.2927" class="green" >U</text></g>
<g><line x1="97.4531" y1="83.1189" x2="103.417" y2="83.1189" class="black" /></g>
<g><title>42 (position.label in template: 3511.A)</title><text x="96.2945" y="80.8087" class="black" >A</text></g>
<g><line x1="97.4531" y1="80.6349" x2="103.417" y2="80.6349" class="black" /></g>
<g><title>43 (position.label in template: 3512.U)</title><text x="96.2945" y="78.3237" class="black" >U</text></g>
<g><line x1="97.4531" y1="78.1499" x2="103.417" y2="78.1499" class="black" /></g>
<g><title>44 (position.label in template: 3513.G)</title><text x="96.2945" y="75.8397" class="black" >G</text></g>
<g><line x1="97.4531" y1="75.6659" x2="103.417" y2="75.6659" class="black" /></g>
<g><title>45 (position.label in template: 3514.A)</title><text x="96.2945" y="73.3547" class="green" >G</text></g>
<g><line x1="97.4531" y1="73.1809" x2="103.417" y2="73.1809" class="black" /></g>
<g><title>46 (position.label in template: 3515.U)</title><text x="96.2945" y="70.8707" class="green" >G</text></g>
<g><line x1="97.4531" y1="70.6969" x2="103.417" y2="70.6969" class="black" /></g>
<g><title>47 (position.label in template: 3516.U)</title><text x="95.0525" y="68.3867" class="green" >G</text></g>
<g><line x1="96.2111" y1="68.2129" x2="104.659" y2="68.2129" class="black" /></g>
<g><title>48 (position.label in template: 3517.U)</title><text x="93.4435" y="66.4947" class="black" >U</text></g>
<g><title>49 (position.label in template: 3518.A)</title><text x="92.4735" y="64.2087" class="black" >A</text></g>
<g><title>50 (position.label in template: 3519.G)</title><text x="92.2305" y="61.7367" class="black" >G</text></g>
<g><title>50 (inserted)</title><text x="88.3259" y="61.5265" class="numbering-label sequential" >50</text></g>
<g><line x1="91.1892" y1="61.6806" x2="89.3686" y2="61.5826" class="numbering-line sequential" /></g>
<g><title>51 (position.label in template: 3520.U)</title><text x="92.7375" y="59.3057" class="black" >U</text></g>
<g><title>52 (position.label in template: 3521.A)</title><text x="93.9475" y="57.1377" class="black" >A</text></g>
<g><title>53 (position.label in template: 3522.C)</title><text x="95.7495" y="55.4287" class="black" >C</text></g>
<g><title>54 (position.label in template: 3523.G)</title><text x="97.9805" y="54.3377" class="black" >G</text></g>
<g><title>55 (position.label in template: 3524.A)</title><text x="100.435" y="53.9617" class="black" >A</text></g>
<g><title>56 (position.label in template: 3525.G)</title><text x="102.889" y="54.3377" class="black" >G</text></g>
<g><title>57 (position.label in template: 3526.A)</title><text x="105.12" y="55.4287" class="black" >A</text></g>
<g><title>58 (position.label in template: 3527.G)</title><text x="106.923" y="57.1377" class="black" >G</text></g>
<g><title>59 (position.label in template: 3528.G)</title><text x="108.133" y="59.3057" class="black" >G</text></g>
<g><title>60 (position.label in template: 3529.A)</title><text x="108.639" y="61.7367" class="black" >A</text></g>
<g><title>61 (position.label in template: 3530.A)</title><text x="108.396" y="64.2087" class="black" >A</text></g>
<g><title>62 (position.label in template: 3531.C)</title><text x="107.426" y="66.4947" class="black" >C</text></g>
<g><title>63 (position.label in template: 3532.U)</title><text x="105.817" y="68.3867" class="green" >U</text></g>
<g><title>64 (position.label in template: 3533.G)</title><text x="104.575" y="70.8707" class="green" >C</text></g>
<g><title>65 (position.label in template: 3534.U)</title><text x="104.575" y="73.3547" class="green" >C</text></g>
<g><title>66 (position.label in template: 3535.C)</title><text x="104.575" y="75.8397" class="black" >C</text></g>
<g><title>67 (position.label in template: 3536.A)</title><text x="104.575" y="78.3237" class="black" >A</text></g>
<g><title>68 (position.label in template: 3537.U)</title><text x="104.575" y="80.8087" class="black" >U</text></g>
<g><title>69 (position.label in template: 3538.G)</title><text x="104.575" y="83.2927" class="green" >G</text></g>
<g><title>70 (position.label in template: 3539.C)</title><text x="104.575" y="85.7767" class="black" >C</text></g>
<g><title>71 (position.label in template: 3540.C)</title><text x="107.049" y="87.8407" class="black" >C</text></g>
<g><line x1="107.042" y1="88.8255" x2="107.004" y2="94.7893" class="black" /></g>
<g><title>72 (position.label in template: 3541.G)</title><text x="109.533" y="87.8567" class="black" >G</text></g>
<g><line x1="109.526" y1="88.8415" x2="109.489" y2="94.8053" class="black" /></g>
<g><title>73 (position.label in template: 3542.G)</title><text x="112.017" y="87.8717" class="green" >U</text></g>
<g><line x1="112.01" y1="88.8565" x2="111.973" y2="94.8203" class="black" /></g>
<g><title>74 (position.label in template: 3543.A)</title><text x="114.501" y="87.8877" class="green" >G</text></g>
<g><line x1="114.494" y1="88.8725" x2="114.457" y2="94.8363" class="black" /></g>
<g><title>75 (position.label in template: 3544.U)</title><text x="116.986" y="87.9027" class="green" >C</text></g>
<g><line x1="116.979" y1="88.8875" x2="116.942" y2="94.8523" class="black" /></g>
<g><title>76 (position.label in template: 3545.C)</title><text x="118.703" y="85.6497" class="black" >C</text></g>
<g><title>77 (position.label in template: 3546.A)</title><text x="121.403" y="84.7957" class="green" >U</text></g>
<g><title>78 (position.label in template: 3547.C)</title><text x="124.103" y="85.6527" class="black" >C</text></g>
<g><title>79 (position.label in template: 3548.U)</title><text x="125.817" y="87.9077" class="black" >U</text></g>
<g><line x1="125.817" y1="88.8925" x2="125.817" y2="94.8573" class="black" /></g>
<g><title>80 (position.label in template: 3549.G)</title><text x="128.301" y="87.9077" class="green" >A</text></g>
<g><line x1="128.302" y1="88.8925" x2="128.302" y2="94.8573" class="black" /></g>
<g><title>81 (position.label in template: 3550.G)</title><text x="130.786" y="87.9077" class="black" >G</text></g>
<g><line x1="130.786" y1="88.8925" x2="130.786" y2="94.8563" class="black" /></g>
<g><title>82 (position.label in template: 3551.U)</title><text x="133.069" y="86.1647" class="black" >U</text></g>
<g><title>83 (position.label in template: 3552.C)</title><text x="135.781" y="85.2177" class="green" >U</text></g>
<g><title>84 (position.label in template: 3553.U)</title><text x="138.652" y="85.1617" class="black" >U</text></g>
<g><title>85 (position.label in template: 3554.G)</title><text x="141.399" y="86.0017" class="green" >C</text></g>
<g><title>86 (position.label in template: 3555.U)</title><text x="143.748" y="87.6557" class="black" >U</text></g>
<g><line x1="143.748" y1="88.6405" x2="143.748" y2="94.6043" class="black" /></g>
<g><title>87 (position.label in template: 3556.A)</title><text x="146.232" y="87.6557" class="green" >G</text></g>
<g><line x1="146.232" y1="88.6405" x2="146.232" y2="94.6043" class="black" /></g>
<g><title>88 (position.label in template: 3557.G)</title><text x="148.717" y="87.6557" class="black" >G</text></g>
<g><line x1="148.717" y1="88.6405" x2="148.717" y2="94.6043" class="black" /></g>
<g><title>89 (position.label in template: 3558.G)</title><text x="151.201" y="87.6557" class="black" >G</text></g>
<g><line x1="151.201" y1="88.6405" x2="151.201" y2="94.6043" class="black" /></g>
<g><title>90 (position.label in template: 3559.U)</title><text x="153.686" y="87.6557" class="green" >G</text></g>
<g><line x1="153.686" y1="88.6405" x2="153.686" y2="94.6043" class="black" /></g>
<g><title>91 (position.label in template: 3560.U)</title><text x="158.781" y="87.7117" class="green" >U</text></g>
<g><line x1="158.781" y1="88.6965" x2="158.781" y2="94.6613" class="black" /></g>
<g><title>92 (position.label in template: 3561.U)</title><text x="161.266" y="87.7117" class="black" >U</text></g>
<g><line x1="161.266" y1="88.6965" x2="161.266" y2="94.6613" class="black" /></g>
<g><title>93 (position.label in template: 3562.A)</title><text x="163.75" y="87.7117" class="green" >U</text></g>
<g><line x1="163.75" y1="88.6965" x2="163.75" y2="94.6613" class="black" /></g>
<g><title>94 (position.label in template: 3563.U)</title><text x="166.234" y="87.7117" class="green" >G</text></g>
<g><line x1="166.234" y1="88.6965" x2="166.234" y2="94.6613" class="black" /></g>
<g><title>95 (position.label in template: 3564.U)</title><text x="168.719" y="87.7117" class="green" >U</text></g>
<g><line x1="168.719" y1="88.6965" x2="168.719" y2="94.6613" class="black" /></g>
<g><title>96 (position.label in template: 3565.U)</title><text x="171.203" y="87.7117" class="green" >C</text></g>
<g><line x1="171.203" y1="88.6965" x2="171.203" y2="94.6613" class="black" /></g>
<g><title>97 (position.label in template: 3566.G)</title><text x="173.533" y="88.5727" class="black" >G</text></g>
<g><title>98 (position.label in template: 3567.A)</title><text x="174.953" y="90.6107" class="black" >A</text></g>
<g><title>99 (position.label in template: 3568.C)</title><text x="174.953" y="93.0947" class="green" >A</text></g>
<g><title>100 (position.label in template: 3569.A)</title><text x="173.533" y="95.1327" class="green" >C</text></g>
<g><title>100 (inserted)</title><text x="175.925" y="98.2263" class="numbering-label sequential" >100</text></g>
<g><line x1="174.171" y1="95.9577" x2="175.253" y2="97.3574" class="numbering-line sequential" /></g>
<g><title>101 (position.label in template: 3570.A)</title><text x="171.203" y="95.9937" class="green" >G</text></g>
<g><title>102 (position.label in template: 3571.A)</title><text x="168.719" y="95.9937" class="green" >G</text></g>
<g><title>103 (position.label in template: 3572.A)</title><text x="166.234" y="95.9937" class="green" >C</text></g>
<g><title>104 (position.label in template: 3573.U)</title><text x="163.75" y="95.9937" class="green" >A</text></g>
<g><title>105 (position.label in template: 3574.A)</title><text x="161.266" y="95.9937" class="black" >A</text></g>
<g><title>106 (position.label in template: 3575.G)</title><text x="158.781" y="95.9937" class="green" >A</text></g>
<g><title>107 (position.label in template: 3576.U)</title><text x="157.791" y="99.0187" class="black" >U</text></g>
<g><title>108 (position.label in template: 3577.G)</title><text x="154.608" y="98.9837" class="black" >G</text></g>
<g><title>109 (position.label in template: 3578.A)</title><text x="153.686" y="95.9367" class="green" >C</text></g>
<g><title>110 (position.label in template: 3579.C)</title><text x="151.201" y="95.9367" class="black" >C</text></g>
<g><title>111 (position.label in template: 3580.C)</title><text x="148.717" y="95.9367" class="black" >C</text></g>
<g><title>112 (position.label in template: 3581.U)</title><text x="146.232" y="95.9367" class="green" >C</text></g>
<g><title>113 (position.label in template: 3582.G)</title><text x="143.748" y="95.9367" class="black" >G</text></g>
<g><title>114 (position.label in template: 3583.C)</title><text x="140.724" y="97.6437" class="green" >A</text></g>
<g><title>115 (position.label in template: 3584.C)</title><text x="137.31" y="98.2797" class="green" >A</text></g>
<g><title>116 (position.label in template: 3585.G)</title><text x="133.874" y="97.7777" class="black" >G</text></g>
<g><title>117 (position.label in template: 3586.C)</title><text x="130.786" y="96.1887" class="black" >C</text></g>
<g><title>118 (position.label in template: 3587.U)</title><text x="128.302" y="96.1897" class="green" >C</text></g>
<g><title>119 (position.label in template: 3588.A)</title><text x="125.817" y="96.1897" class="black" >A</text></g>
<g><title>120 (position.label in template: 3589.C)</title><text x="123.016" y="97.9017" class="green" >U</text></g>
<g><title>121 (position.label in template: 3590.C)</title><text x="119.733" y="97.8997" class="black" >C</text></g>
<g><title>122 (position.label in template: 3591.A)</title><text x="116.934" y="96.1847" class="green" >G</text></g>
<g><title>123 (position.label in template: 3592.U)</title><text x="114.449" y="96.1687" class="green" >C</text></g>
<g><title>124 (position.label in template: 3593.C)</title><text x="111.965" y="96.1527" class="green" >A</text></g>
<g><title>125 (position.label in template: 3594.C)</title><text x="109.481" y="96.1377" class="black" >C</text></g>
<g><title>126 (position.label in template: 3595.G)</title><text x="106.996" y="96.1217" class="black" >G</text></g>
<g><title>127 (position.label in template: 3596.U)</title><text x="106.923" y="98.5807" class="green" >G</text></g>
<g><title>128 (position.label in template: 3597.U)</title><text x="104.529" y="98.6967" class="black" >U</text></g>
<g><line x1="103.371" y1="98.5229" x2="97.4071" y2="98.5229" class="black" /></g>
<g><title>129 (position.label in template: 3598.G)</title><text x="104.529" y="101.182" class="black" >G</text></g>
<g><line x1="103.371" y1="101.008" x2="97.4071" y2="101.008" class="black" /></g>
<g><title>130 (position.label in template: 3599.G)</title><text x="104.529" y="103.666" class="black" >G</text></g>
<g><line x1="103.371" y1="103.492" x2="97.4071" y2="103.492" class="black" /></g>
<g><title>131 (position.label in template: 3600.A)</title><text x="104.529" y="106.151" class="green" >U</text></g>
<g><line x1="103.371" y1="105.977" x2="97.4071" y2="105.977" class="black" /></g>
<g><title>132 (position.label in template: 3601.U)</title><text x="104.529" y="108.635" class="black" >U</text></g>
<g><line x1="103.371" y1="108.461" x2="97.4071" y2="108.461" class="black" /></g>
<g><title>133 (position.label in template: 3602.A)</title><text x="106.273" y="110.955" class="green" >C</text></g>
<g><title>134 (position.label in template: 3603.A)</title><text x="106.471" y="113.851" class="green" >U</text></g>
<g><title>135 (position.label in template: 3604.U)</title><text x="105.061" y="116.388" class="green" >C</text></g>
<g><line x1="103.903" y1="116.214" x2="97.9381" y2="116.214" class="black" /></g>
<g><title>136 (position.label in template: 3605.G)</title><text x="105.061" y="118.872" class="black" >G</text></g>
<g><line x1="103.903" y1="118.698" x2="97.9381" y2="118.698" class="black" /></g>
<g><title>137 (position.label in template: 3606.G)</title><text x="105.061" y="121.356" class="green" >G</text></g>
<g><line x1="103.903" y1="121.182" x2="97.9381" y2="121.182" class="black" /></g>
<g><title>138 (position.label in template: 3607.C)</title><text x="105.061" y="123.841" class="black" >C</text></g>
<g><line x1="103.903" y1="123.667" x2="97.9381" y2="123.666" class="black" /></g>
<g><title>139 (position.label in template: 3608.U)</title><text x="105.061" y="126.325" class="black" >U</text></g>
<g><line x1="103.903" y1="126.151" x2="97.9381" y2="126.151" class="black" /></g>
<g><title>140 (position.label in template: 3609.G)</title><text x="106.548" y="128.317" class="black" >G</text></g>
<g><title>141 (position.label in template: 3610.A)</title><text x="107.137" y="130.732" class="black" >A</text></g>
<g><title>142 (position.label in template: 3611.A)</title><text x="106.734" y="133.184" class="black" >A</text></g>
<g><title>143 (position.label in template: 3612.C)</title><text x="105.403" y="135.284" class="black" >C</text></g>
<g><title>144 (position.label in template: 3613.G)</title><text x="103.355" y="136.694" class="black" >G</text></g>
<g><title>145 (position.label in template: 3614.C)</title><text x="100.92" y="137.191" class="black" >C</text></g>
<g><title>146 (position.label in template: 3615.C)</title><text x="98.4845" y="136.694" class="black" >C</text></g>
<g><title>147 (position.label in template: 3616.U)</title><text x="96.4375" y="135.284" class="black" >U</text></g>
<g><title>148 (position.label in template: 3617.C)</title><text x="95.1065" y="133.184" class="black" >C</text></g>
<g><title>149 (position.label in template: 3618.U)</title><text x="94.7035" y="130.732" class="black" >U</text></g>
<g><title>150 (position.label in template: 3619.A)</title><text x="95.2925" y="128.317" class="black" >A</text></g>
<g><title>150 (inserted)</title><text x="91.7551" y="126.65" class="numbering-label sequential" >150</text></g>
<g><line x1="94.3492" y1="127.872" x2="93.3192" y2="127.387" class="numbering-line sequential" /></g>
<g><title>151 (position.label in template: 3620.A)</title><text x="96.7795" y="126.325" class="black" >A</text></g>
<g><title>152 (position.label in template: 3621.G)</title><text x="96.7795" y="123.84" class="black" >G</text></g>
<g><title>153 (position.label in template: 3622.U)</title><text x="96.7795" y="121.356" class="green" >C</text></g>
<g><title>154 (position.label in template: 3623.C)</title><text x="96.7795" y="118.872" class="black" >C</text></g>
<g><title>155 (position.label in template: 3624.A)</title><text x="96.7795" y="116.388" class="green" >A</text></g>
<g><title>156 (position.label in template: 3625.G)</title><text x="94.9865" y="114.08" class="black" >G</text></g>
<g><title>157 (position.label in template: 3626.A)</title><text x="94.7865" y="111.165" class="black" >A</text></g>
<g><title>158 (position.label in template: 3627.A)</title><text x="96.2485" y="108.635" class="black" >A</text></g>
<g><title>159 (position.label in template: 3628.U)</title><text x="96.2485" y="106.151" class="green" >G</text></g>
<g><title>160 (position.label in template: 3629.C)</title><text x="96.2485" y="103.666" class="black" >C</text></g>
<g><title>161 (position.label in template: 3630.C)</title><text x="96.2485" y="101.182" class="black" >C</text></g>
<g><title>162 (position.label in template: 3631.A)</title><text x="96.2485" y="98.6967" class="black" >A</text></g>
<g><title>163 (position.label in template: 3632.U)</title><text x="94.5995" y="96.6407" class="green" >A</text></g>
<g><title>164 (position.label in template: 3633.U)</title><text x="92.1145" y="97.8837" class="green" >U</text></g>
<g><title>165 (position.label in template: 3634.C)</title><text x="89.6305" y="96.6407" class="black" >C</text></g>
<g><title>166 (position.label in template: 3635.U)</title><text x="87.1455" y="96.6407" class="green" >C</text></g>
<g><title>167 (position.label in template: 3636.A)</title><text x="84.6615" y="96.6407" class="green" >C</text></g>
<g><title>168 (position.label in template: 3637.G)</title><text x="82.0315" y="99.3147" class="green" >A</text></g>
<g><title>169 (position.label in template: 3638.A)</title><text x="78.4135" y="100.305" class="black" >A</text></g>
<g><title>170 (position.label in template: 3639.A)</title><text x="74.7885" y="99.3417" class="green" >G</text></g>
<g><title>171 (position.label in template: 3640.A)</title><text x="72.1395" y="96.6857" class="black" >A</text></g>
<g><title>172 (position.label in template: 3641.C)</title><text x="69.6545" y="96.6857" class="black" >C</text></g>
<g><title>173 (inserted)</title><text x="69.0654" y="99.2974" class="red" >C</text></g>
<g><title>174 (inserted)</title><text x="66.388" y="99.2974" class="red" >A</text></g>
<g><title>175 (position.label in template: 3642.G)</title><text x="65.7989" y="96.6857" class="black" >G</text></g>
<g><title>176 (position.label in template: 3643.C)</title><text x="63.3139" y="96.6857" class="green" >A</text></g>
<g><title>177 (position.label in template: 3644.A)</title><text x="60.8299" y="96.6857" class="green" >U</text></g>
<g><title>178 (position.label in template: 3645.A)</title><text x="58.3459" y="96.6857" class="green" >G</text></g>
<g><title>179 (position.label in template: 3646.A)</title><text x="55.8609" y="96.6857" class="green" >C</text></g>
<g><title>180 (position.label in template: 3647.C)</title><text x="53.3769" y="96.6857" class="black" >C</text></g>
<g><title>181 (position.label in template: 3648.C)</title><text x="50.8925" y="96.6857" class="black" >C</text></g>
<g><title>182 (position.label in template: 3903.3')</title><text x="48.4426" y="96.2728" class="green" >3'</text></g>
<g><line x1="82.8736" y1="57.4187" x2="82.7213" y2="57.3495" class="gray" /></g>
<g><line x1="80.6117" y1="56.3909" x2="80.4595" y2="56.3217" class="gray" /></g>
<g><line x1="78.3499" y1="55.363" x2="78.1976" y2="55.2938" class="gray" /></g>
<g><line x1="76.0881" y1="54.3351" x2="75.9358" y2="54.2659" class="gray" /></g>
<g><line x1="73.8263" y1="53.3073" x2="73.674" y2="53.2381" class="gray" /></g>
<g><line x1="71.6192" y1="52.1736" x2="71.4749" y2="52.0892" class="gray" /></g>
<g><line x1="69.6204" y1="50.7216" x2="69.4971" y2="50.6086" class="gray" /></g>
<g><line x1="67.7918" y1="50.6126" x2="67.669" y2="50.7262" class="gray" /></g>
<g><line x1="65.9674" y1="52.299" x2="65.8446" y2="52.4125" class="gray" /></g>
<g><line x1="64.143" y1="53.9854" x2="64.0202" y2="54.0989" class="gray" /></g>
<g><line x1="62.635" y1="55.9133" x2="62.5578" y2="56.0617" class="gray" /></g>
<g><line x1="61.489" y1="58.1177" x2="61.4119" y2="58.2661" class="gray" /></g>
<g><line x1="60.343" y1="60.322" x2="60.2659" y2="60.4704" class="gray" /></g>
<g><line x1="59.1971" y1="62.5264" x2="59.12" y2="62.6748" class="gray" /></g>
<g><line x1="58.0511" y1="64.7307" x2="57.974" y2="64.8791" class="gray" /></g>
<g><line x1="56.9052" y1="66.9351" x2="56.8281" y2="67.0835" class="gray" /></g>
<g><line x1="55.7592" y1="69.1394" x2="55.6821" y2="69.2878" class="gray" /></g>
<g><line x1="54.6133" y1="71.3438" x2="54.5362" y2="71.4922" class="gray" /></g>
<g><line x1="53.4673" y1="73.5481" x2="53.3902" y2="73.6965" class="gray" /></g>
<g><line x1="52.3214" y1="75.7525" x2="52.2443" y2="75.9009" class="gray" /></g>
<g><line x1="51.3112" y1="78.0167" x2="51.2536" y2="78.1737" class="gray" /></g>
<g><line x1="50.4562" y1="80.3494" x2="50.3987" y2="80.5064" class="gray" /></g>
<g><line x1="50.5174" y1="82.6309" x2="50.5921" y2="82.7805" class="gray" /></g>
<g><line x1="51.6921" y1="84.8187" x2="51.7762" y2="84.9632" class="gray" /></g>
<g><line x1="52.8335" y1="87.0215" x2="52.9021" y2="87.1741" class="gray" /></g>
<g><line x1="54.5355" y1="88.2309" x2="54.7023" y2="88.2309" class="gray" /></g>
<g><line x1="57.0195" y1="88.2309" x2="57.1873" y2="88.2309" class="gray" /></g>
<g><line x1="59.5045" y1="88.2309" x2="59.6713" y2="88.2309" class="gray" /></g>
<g><line x1="61.9885" y1="88.2309" x2="62.1553" y2="88.2309" class="gray" /></g>
<g><line x1="64.4725" y1="88.2309" x2="64.6403" y2="88.2309" class="gray" /></g>
<g><line x1="66.9575" y1="88.2309" x2="68.4959" y2="88.2309" class="gray" /></g>
<g><line x1="70.8131" y1="88.2309" x2="70.9809" y2="88.2309" class="gray" /></g>
<g><line x1="73.1154" y1="87.6065" x2="75.0865" y2="86.3453" class="gray" /></g>
<g><line x1="77.221" y1="85.7167" x2="79.5619" y2="85.7081" class="gray" /></g>
<g><line x1="81.7008" y1="86.3213" x2="83.6811" y2="87.5685" class="gray" /></g>
<g><line x1="85.8201" y1="88.1859" x2="85.9869" y2="88.1859" class="gray" /></g>
<g><line x1="88.3041" y1="88.1859" x2="88.4719" y2="88.1859" class="gray" /></g>
<g><line x1="90.6667" y1="87.6678" x2="91.0782" y2="87.462" class="gray" /></g>
<g><line x1="93.1508" y1="87.4619" x2="93.5631" y2="87.6679" class="gray" /></g>
<g><line x1="95.2351" y1="87.2173" x2="95.6588" y2="86.5716" class="gray" /></g>
<g><line x1="96.2945" y1="84.4443" x2="96.2945" y2="84.2775" class="gray" /></g>
<g><line x1="96.2945" y1="81.9603" x2="96.2945" y2="81.7935" class="gray" /></g>
<g><line x1="96.2945" y1="79.4763" x2="96.2945" y2="79.3085" class="gray" /></g>
<g><line x1="96.2945" y1="76.9913" x2="96.2945" y2="76.8245" class="gray" /></g>
<g><line x1="96.2945" y1="74.5073" x2="96.2945" y2="74.3395" class="gray" /></g>
<g><line x1="96.2945" y1="72.0223" x2="96.2945" y2="71.8555" class="gray" /></g>
<g><line x1="95.7763" y1="69.6606" x2="95.5706" y2="69.2492" class="gray" /></g>
<g><line x1="94.3019" y1="67.3303" x2="94.194" y2="67.2035" class="gray" /></g>
<g><line x1="92.9909" y1="65.2544" x2="92.926" y2="65.1014" class="gray" /></g>
<g><line x1="92.3601" y1="62.8819" x2="92.3438" y2="62.7159" class="gray" /></g>
<g><line x1="92.467" y1="60.4287" x2="92.5009" y2="60.2661" class="gray" /></g>
<g><line x1="93.3021" y1="58.1202" x2="93.3828" y2="57.9756" class="gray" /></g>
<g><line x1="94.7881" y1="56.1666" x2="94.9088" y2="56.0522" class="gray" /></g>
<g><line x1="96.7903" y1="54.7459" x2="96.9397" y2="54.6729" class="gray" /></g>
<g><line x1="99.1257" y1="53.9885" x2="99.2902" y2="53.9633" class="gray" /></g>
<g><line x1="101.581" y1="53.9634" x2="101.744" y2="53.9884" class="gray" /></g>
<g><line x1="103.93" y1="54.6729" x2="104.08" y2="54.7459" class="gray" /></g>
<g><line x1="105.961" y1="56.0519" x2="106.083" y2="56.1669" class="gray" /></g>
<g><line x1="107.488" y1="57.9756" x2="107.569" y2="58.1202" class="gray" /></g>
<g><line x1="108.37" y1="60.2662" x2="108.403" y2="60.4286" class="gray" /></g>
<g><line x1="108.526" y1="62.7159" x2="108.51" y2="62.8819" class="gray" /></g>
<g><line x1="107.944" y1="65.1014" x2="107.879" y2="65.2544" class="gray" /></g>
<g><line x1="106.676" y1="67.2035" x2="106.568" y2="67.3303" class="gray" /></g>
<g><line x1="105.299" y1="69.2492" x2="105.094" y2="69.6606" class="gray" /></g>
<g><line x1="104.575" y1="71.8555" x2="104.575" y2="72.0223" class="gray" /></g>
<g><line x1="104.575" y1="74.3395" x2="104.575" y2="74.5073" class="gray" /></g>
<g><line x1="104.575" y1="76.8245" x2="104.575" y2="76.9913" class="gray" /></g>
<g><line x1="104.575" y1="79.3085" x2="104.575" y2="79.4763" class="gray" /></g>
<g><line x1="104.575" y1="81.7935" x2="104.575" y2="81.9603" class="gray" /></g>
<g><line x1="104.575" y1="84.2775" x2="104.575" y2="84.4443" class="gray" /></g>
<g><line x1="105.465" y1="86.3451" x2="106.16" y2="86.9247" class="gray" /></g>
<g><line x1="108.208" y1="87.6744" x2="108.375" y2="87.6754" class="gray" /></g>
<g><line x1="110.692" y1="87.6899" x2="110.859" y2="87.6909" class="gray" /></g>
<g><line x1="113.176" y1="87.7054" x2="113.343" y2="87.7064" class="gray" /></g>
<g><line x1="115.66" y1="87.7209" x2="115.828" y2="87.7219" class="gray" /></g>
<g><line x1="117.689" y1="86.8074" x2="118.001" y2="86.3974" class="gray" /></g>
<g><line x1="119.808" y1="85.1265" x2="120.299" y2="84.9713" class="gray" /></g>
<g><line x1="122.508" y1="84.9724" x2="122.999" y2="85.1284" class="gray" /></g>
<g><line x1="124.805" y1="86.4013" x2="125.116" y2="86.8115" class="gray" /></g>
<g><line x1="126.976" y1="87.7339" x2="127.143" y2="87.7339" class="gray" /></g>
<g><line x1="129.46" y1="87.7339" x2="129.628" y2="87.7339" class="gray" /></g>
<g><line x1="131.707" y1="87.0308" x2="132.149" y2="86.694" class="gray" /></g>
<g><line x1="134.163" y1="85.609" x2="134.688" y2="85.4259" class="gray" /></g>
<g><line x1="136.94" y1="85.0213" x2="137.494" y2="85.0105" class="gray" /></g>
<g><line x1="139.76" y1="85.3267" x2="140.292" y2="85.4891" class="gray" /></g>
<g><line x1="142.347" y1="86.4949" x2="142.801" y2="86.8149" class="gray" /></g>
<g><line x1="144.907" y1="87.4819" x2="145.074" y2="87.4819" class="gray" /></g>
<g><line x1="147.391" y1="87.4819" x2="147.559" y2="87.4819" class="gray" /></g>
<g><line x1="149.876" y1="87.4819" x2="150.043" y2="87.4819" class="gray" /></g>
<g><line x1="152.36" y1="87.4819" x2="152.528" y2="87.4819" class="gray" /></g>
<g><line x1="154.845" y1="87.4946" x2="157.623" y2="87.5252" class="gray" /></g>
<g><line x1="159.94" y1="87.5379" x2="160.108" y2="87.5379" class="gray" /></g>
<g><line x1="162.425" y1="87.5379" x2="162.592" y2="87.5379" class="gray" /></g>
<g><line x1="164.909" y1="87.5379" x2="165.076" y2="87.5379" class="gray" /></g>
<g><line x1="167.393" y1="87.5379" x2="167.561" y2="87.5379" class="gray" /></g>
<g><line x1="169.878" y1="87.5379" x2="170.045" y2="87.5379" class="gray" /></g>
<g><line x1="172.29" y1="87.9395" x2="172.447" y2="87.9973" class="gray" /></g>
<g><line x1="174.196" y1="89.3495" x2="174.291" y2="89.4863" class="gray" /></g>
<g><line x1="174.953" y1="91.5955" x2="174.953" y2="91.7623" class="gray" /></g>
<g><line x1="174.291" y1="93.8715" x2="174.196" y2="94.0083" class="gray" /></g>
<g><line x1="172.447" y1="95.3605" x2="172.29" y2="95.4183" class="gray" /></g>
<g><line x1="170.045" y1="95.8199" x2="169.878" y2="95.8199" class="gray" /></g>
<g><line x1="167.561" y1="95.8199" x2="167.393" y2="95.8199" class="gray" /></g>
<g><line x1="165.076" y1="95.8199" x2="164.909" y2="95.8199" class="gray" /></g>
<g><line x1="162.592" y1="95.8199" x2="162.425" y2="95.8199" class="gray" /></g>
<g><line x1="160.108" y1="95.8199" x2="159.94" y2="95.8199" class="gray" /></g>
<g><line x1="158.421" y1="96.921" x2="158.152" y2="97.7438" class="gray" /></g>
<g><line x1="156.633" y1="98.8322" x2="155.767" y2="98.8226" class="gray" /></g>
<g><line x1="154.273" y1="97.701" x2="154.022" y2="96.8718" class="gray" /></g>
<g><line x1="152.528" y1="95.7629" x2="152.36" y2="95.7629" class="gray" /></g>
<g><line x1="150.043" y1="95.7629" x2="149.876" y2="95.7629" class="gray" /></g>
<g><line x1="147.559" y1="95.7629" x2="147.391" y2="95.7629" class="gray" /></g>
<g><line x1="145.074" y1="95.7629" x2="144.907" y2="95.7629" class="gray" /></g>
<g><line x1="142.74" y1="96.3324" x2="141.733" y2="96.9004" class="gray" /></g>
<g><line x1="139.585" y1="97.6821" x2="138.449" y2="97.8937" class="gray" /></g>
<g><line x1="136.164" y1="97.9384" x2="135.021" y2="97.7714" class="gray" /></g>
<g><line x1="132.844" y1="97.0738" x2="131.817" y2="96.545" class="gray" /></g>
<g><line x1="129.628" y1="96.0154" x2="129.461" y2="96.0154" class="gray" /></g>
<g><line x1="127.144" y1="96.0159" x2="126.976" y2="96.0159" class="gray" /></g>
<g><line x1="124.829" y1="96.6201" x2="124.005" y2="97.1237" class="gray" /></g>
<g><line x1="121.858" y1="97.7272" x2="120.892" y2="97.7266" class="gray" /></g>
<g><line x1="118.746" y1="97.1206" x2="117.922" y2="96.6162" class="gray" /></g>
<g><line x1="115.776" y1="96.0034" x2="115.608" y2="96.0024" class="gray" /></g>
<g><line x1="113.291" y1="95.9874" x2="113.124" y2="95.9864" class="gray" /></g>
<g><line x1="110.807" y1="95.9719" x2="110.64" y2="95.9709" class="gray" /></g>
<g><line x1="108.323" y1="95.9564" x2="108.155" y2="95.9554" class="gray" /></g>
<g><line x1="106.962" y1="97.106" x2="106.958" y2="97.2488" class="gray" /></g>
<g><line x1="105.766" y1="98.463" x2="105.687" y2="98.4668" class="gray" /></g>
<g><line x1="104.529" y1="99.6815" x2="104.529" y2="99.8493" class="gray" /></g>
<g><line x1="104.529" y1="102.166" x2="104.529" y2="102.333" class="gray" /></g>
<g><line x1="104.529" y1="104.65" x2="104.529" y2="104.818" class="gray" /></g>
<g><line x1="104.529" y1="107.135" x2="104.529" y2="107.302" class="gray" /></g>
<g><line x1="105.226" y1="109.387" x2="105.577" y2="109.855" class="gray" /></g>
<g><line x1="106.352" y1="111.937" x2="106.392" y2="112.521" class="gray" /></g>
<g><line x1="105.909" y1="114.69" x2="105.624" y2="115.201" class="gray" /></g>
<g><line x1="105.061" y1="117.372" x2="105.061" y2="117.539" class="gray" /></g>
<g><line x1="105.061" y1="119.856" x2="105.061" y2="120.023" class="gray" /></g>
<g><line x1="105.061" y1="122.34" x2="105.061" y2="122.508" class="gray" /></g>
<g><line x1="105.061" y1="124.825" x2="105.061" y2="124.992" class="gray" /></g>
<g><line x1="105.755" y1="127.079" x2="105.855" y2="127.214" class="gray" /></g>
<g><line x1="106.823" y1="129.268" x2="106.863" y2="129.432" class="gray" /></g>
<g><line x1="106.95" y1="131.701" x2="106.922" y2="131.867" class="gray" /></g>
<g><line x1="106.114" y1="133.988" x2="106.024" y2="134.131" class="gray" /></g>
<g><line x1="104.449" y1="135.767" x2="104.31" y2="135.863" class="gray" /></g>
<g><line x1="102.22" y1="136.752" x2="102.056" y2="136.785" class="gray" /></g>
<g><line x1="99.7853" y1="136.785" x2="99.6197" y2="136.752" class="gray" /></g>
<g><line x1="97.5303" y1="135.863" x2="97.3916" y2="135.767" class="gray" /></g>
<g><line x1="95.8172" y1="134.131" x2="95.7267" y2="133.988" class="gray" /></g>
<g><line x1="94.9186" y1="131.867" x2="94.8914" y2="131.701" class="gray" /></g>
<g><line x1="94.978" y1="129.432" x2="95.0179" y2="129.268" class="gray" /></g>
<g><line x1="95.9855" y1="127.214" x2="96.0864" y2="127.079" class="gray" /></g>
<g><line x1="96.7795" y1="124.992" x2="96.7795" y2="124.824" class="gray" /></g>
<g><line x1="96.7795" y1="122.507" x2="96.7795" y2="122.34" class="gray" /></g>
<g><line x1="96.7795" y1="120.023" x2="96.7795" y2="119.856" class="gray" /></g>
<g><line x1="96.7795" y1="117.539" x2="96.7795" y2="117.372" class="gray" /></g>
<g><line x1="96.0687" y1="115.299" x2="95.6973" y2="114.821" class="gray" /></g>
<g><line x1="94.9072" y1="112.75" x2="94.8658" y2="112.147" class="gray" /></g>
<g><line x1="95.3661" y1="109.988" x2="95.6688" y2="109.464" class="gray" /></g>
<g><line x1="96.2485" y1="107.302" x2="96.2485" y2="107.135" class="gray" /></g>
<g><line x1="96.2485" y1="104.818" x2="96.2485" y2="104.65" class="gray" /></g>
<g><line x1="96.2485" y1="102.333" x2="96.2485" y2="102.166" class="gray" /></g>
<g><line x1="96.2485" y1="99.8493" x2="96.2485" y2="99.6815" class="gray" /></g>
<g><line x1="95.5236" y1="97.6191" x2="95.3244" y2="97.3707" class="gray" /></g>
<g><line x1="93.5633" y1="96.9852" x2="93.1507" y2="97.1916" class="gray" /></g>
<g><line x1="91.0784" y1="97.1914" x2="90.6666" y2="96.9854" class="gray" /></g>
<g><line x1="88.4719" y1="96.4669" x2="88.3041" y2="96.4669" class="gray" /></g>
<g><line x1="85.9869" y1="96.4669" x2="85.8201" y2="96.4669" class="gray" /></g>
<g><line x1="83.849" y1="97.2929" x2="82.8439" y2="98.3149" class="gray" /></g>
<g><line x1="80.914" y1="99.4467" x2="79.531" y2="99.8251" class="gray" /></g>
<g><line x1="77.2937" y1="99.8334" x2="75.9082" y2="99.4654" class="gray" /></g>
<g><line x1="73.9703" y1="98.3476" x2="72.9576" y2="97.3322" class="gray" /></g>
<g><line x1="70.9809" y1="96.5119" x2="70.8131" y2="96.5119" class="gray" /></g>
<g><line x1="69.3996" y1="97.6421" x2="69.3203" y2="97.9935" class="gray" /></g>
<g><line x1="67.9068" y1="99.1237" x2="67.5466" y2="99.1237" class="gray" /></g>
<g><line x1="66.1331" y1="97.9935" x2="66.0539" y2="97.6421" class="gray" /></g>
<g><line x1="64.6403" y1="96.5119" x2="64.4725" y2="96.5119" class="gray" /></g>
<g><line x1="62.1553" y1="96.5119" x2="61.9885" y2="96.5119" class="gray" /></g>
<g><line x1="59.6713" y1="96.5119" x2="59.5045" y2="96.5119" class="gray" /></g>
<g><line x1="57.1873" y1="96.5119" x2="57.0195" y2="96.5119" class="gray" /></g>
<g><line x1="54.7023" y1="96.5119" x2="54.5355" y2="96.5119" class="gray" /></g>
<g><line x1="52.2183" y1="96.5119" x2="52.0511" y2="96.5119" class="gray" /></g>
<g><line x1="49.75" y1="96.3193" x2="49.5851" y2="96.2915" class="gray" /></g>
</svg>
