<svg
	xmlns="http://www.w3.org/2000/svg"
	width="307.017"
	height="294.06"
	style="font-size: 3.068569px; font-weight: bold; font-family: Helvetica; " >
<g><style type="text/css" >
<!-- create color definitions -->
<![CDATA[
text.red {fill: rgb(255, 0, 255); }
text.green {fill: rgb(0, 255, 0); }
text.blue {fill: rgb(0, 0, 255); }
text.black {fill: rgb(0, 0, 0); }
text.gray {fill: rgb(204, 204, 204); }
text.brown {fill: rgb(211.65, 104.55, 30.6); }
text {fill: rgb(0, 0, 0); text-anchor: middle; alignment-baseline: middle; }
circle.red {stroke: rgb(255, 0, 255); fill: none; }
circle.green {stroke: rgb(0, 255, 0); fill: none; }
circle.blue {stroke: rgb(0, 0, 255); fill: none; }
circle.black {stroke: rgb(0, 0, 0); fill: none; }
circle.gray {stroke: rgb(204, 204, 204); fill: none; }
circle.brown {stroke: rgb(211.65, 104.55, 30.6); fill: none; }
circle {stroke: rgb(0, 0, 0); }
line.red {stroke: rgb(255, 0, 255); stroke-width: 0.383571; }
line.green {stroke: rgb(0, 255, 0); stroke-width: 0.383571; }
line.blue {stroke: rgb(0, 0, 255); stroke-width: 0.383571; }
line.black {stroke: rgb(0, 0, 0); stroke-width: 0.383571; }
line.gray {stroke: rgb(204, 204, 204); stroke-width: 0.383571; }
line.brown {stroke: rgb(211.65, 104.55, 30.6); stroke-width: 0.383571; }
line {stroke: rgb(0, 0, 0); }
text.numbering-label {fill: rgb(204, 204, 204);}
line.numbering-line {stroke: rgb(204, 204, 204); stroke-width: 0.191786;}
line.predicted {stroke: rgb(0, 0, 0); stroke-dasharray: 2}
text.background {fill: rgb(255, 255, 255);
.template {visibility:hidden}
]]>
</style></g>
<g><title>0 (position.label in template: 0.5')</title><text x="133.708" y="222.221" class="green" >5'</text></g>
<g><title>1 (position.label in template: 1.N)</title><text x="141.275" y="222.221" class="green" >A</text></g>
<g><title>2 (position.label in template: 2.N)</title><text x="148.842" y="222.221" class="green" >U</text></g>
<g><title>3 (position.label in template: 3.N)</title><text x="156.409" y="222.221" class="green" >A</text></g>
<g><title>4 (position.label in template: 6.N)</title><text x="163.73" y="220.307" class="green" >C</text></g>
<g><line x1="165.776" y1="220" x2="173.924" y2="220" class="black" /></g>
<g><title>5 (position.label in template: 7.Y)</title><text x="163.79" y="212.537" class="green" >C</text></g>
<g><line x1="165.836" y1="212.23" x2="173.774" y2="212.23" class="black" /></g>
<g><title>6 (position.label in template: 8.N)</title><text x="163.73" y="205.187" class="green" >C</text></g>
<g><line x1="165.776" y1="204.88" x2="173.924" y2="204.88" class="black" /></g>
<g><title>7 (position.label in template: 9.G)</title><text x="163.37" y="197.417" class="green" >G</text></g>
<g><line x1="165.416" y1="197.11" x2="173.984" y2="197.11" class="black" /></g>
<g><title>8 (position.label in template: 10.N)</title><text x="163.73" y="190.067" class="green" >C</text></g>
<g><line x1="165.776" y1="189.76" x2="173.924" y2="189.76" class="black" /></g>
<g><title>9 (inserted)</title><text x="162.827" y="184.784" class="red" >U</text></g>
<g><title>10 (position.label in template: 11.N)</title><text x="163.73" y="179.5" class="green" >U</text></g>
<g><line x1="165.776" y1="179.193" x2="173.924" y2="179.193" class="black" /></g>
<g><title>10 (inserted)</title><text x="158.875" y="184.409" class="numbering-label sequential" >10</text></g>
<g><line x1="162.435" y1="180.809" x2="160.392" y2="182.874" class="numbering-line sequential" /></g>
<g><title>11 (position.label in template: 12.R)</title><text x="156.11" y="178.14" class="green" >A</text></g>
<g><title>12 (position.label in template: 13.R)</title><text x="148.82" y="176.13" class="green" >A</text></g>
<g><title>13 (position.label in template: 14.U)</title><text x="141.82" y="173.28" class="black" >U</text></g>
<g><title>14 (position.label in template: 15.Y)</title><text x="135.4" y="169.64" class="green" >U</text></g>
<g><title>15 (position.label in template: 16.C)</title><text x="129.04" y="165.25" class="black" >C</text></g>
<g><title>16 (position.label in template: 17.R)</title><text x="123.44" y="160.17" class="green" >A</text></g>
<g><title>17 (position.label in template: 18.N)</title><text x="118.61" y="154.69" class="green" >U</text></g>
<g><title>18 (position.label in template: 19.U)</title><text x="114.19" y="148.25" class="black" >U</text></g>
<g><title>19 (position.label in template: 20.C)</title><text x="110.66" y="141.56" class="black" >C</text></g>
<g><line x1="109.963" y1="139.33" x2="107.167" y2="131.607" class="black" /></g>
<g><title>20 (position.label in template: 21.N)</title><text x="103.67" y="144.23" class="green" >A</text></g>
<g><line x1="103.003" y1="141.989" x2="100.347" y2="134.287" class="black" /></g>
<g><title>20 (inserted)</title><text x="105.918" y="150.758" class="numbering-label sequential" >20</text></g>
<g><line x1="104.269" y1="145.971" x2="105.389" y2="149.224" class="numbering-line sequential" /></g>
<g><title>21 (position.label in template: 22.R)</title><text x="96.37" y="146.48" class="green" >G</text></g>
<g><line x1="95.7347" y1="144.229" x2="93.2253" y2="136.548" class="black" /></g>
<g><title>22 (position.label in template: 23.N)</title><text x="89.37" y="149.15" class="green" >A</text></g>
<g><line x1="88.7031" y1="146.909" x2="86.0469" y2="139.207" class="black" /></g>
<g><title>23 (position.label in template: 24.N)</title><text x="82.22" y="151.62" class="green" >U</text></g>
<g><line x1="81.5551" y1="149.379" x2="78.9049" y2="141.668" class="black" /></g>
<g><title>24 (position.label in template: 25.N)</title><text x="75.08" y="154.08" class="green" >C</text></g>
<g><line x1="74.4131" y1="151.839" x2="71.7569" y2="144.137" class="black" /></g>
<g><title>25 (position.label in template: 26.N)</title><text x="67.93" y="156.54" class="green" >U</text></g>
<g><line x1="67.2631" y1="154.299" x2="64.6069" y2="146.597" class="black" /></g>
<g><title>26 (position.label in template: 27.N)</title><text x="62.65" y="161.96" class="green" >G</text></g>
<g><title>27 (position.label in template: 28.N)</title><text x="55.09" y="161.83" class="green" >U</text></g>
<g><title>28 (position.label in template: 29.N)</title><text x="50" y="156.25" class="green" >A</text></g>
<g><title>29 (position.label in template: 30.R)</title><text x="50.42" y="148.5" class="green" >A</text></g>
<g><title>30 (position.label in template: 31.N)</title><text x="56.45" y="143.96" class="green" >U</text></g>
<g><title>30 (inserted)</title><text x="54.7058" y="137.28" class="numbering-label sequential" >30</text></g>
<g><line x1="55.9849" y1="142.179" x2="55.1064" y2="138.814" class="numbering-line sequential" /></g>
<g><title>31 (position.label in template: 32.N)</title><text x="63.94" y="144.97" class="green" >A</text></g>
<g><title>32 (position.label in template: 33.N)</title><text x="71.09" y="142.51" class="green" >G</text></g>
<g><title>33 (position.label in template: 34.N)</title><text x="78.24" y="140.04" class="green" >A</text></g>
<g><title>34 (position.label in template: 35.N)</title><text x="85.38" y="137.58" class="green" >A</text></g>
<g><title>35 (position.label in template: 36.Y)</title><text x="92.59" y="134.91" class="green" >C</text></g>
<g><title>36 (position.label in template: 37.N)</title><text x="99.68" y="132.66" class="green" >U</text></g>
<g><title>37 (position.label in template: 38.G)</title><text x="106.47" y="129.99" class="black" >G</text></g>
<g><title>38 (position.label in template: 39.U)</title><text x="105.354" y="122.707" class="black" >U</text></g>
<g><title>39 (position.label in template: 40.C)</title><text x="104.882" y="115.355" class="black" >C</text></g>
<g><title>40 (position.label in template: 41.A)</title><text x="105.425" y="108.011" class="black" >A</text></g>
<g><title>41 (position.label in template: 42.Y)</title><text x="106.631" y="100.745" class="green" >U</text></g>
<g><title>42 (position.label in template: 43.N)</title><text x="108.642" y="93.6618" class="green" >U</text></g>
<g><title>43 (position.label in template: 44.C)</title><text x="111.282" y="86.786" class="black" >C</text></g>
<g><title>44 (position.label in template: 45.A)</title><text x="114.936" y="80.4033" class="black" >A</text></g>
<g><title>45 (position.label in template: 46.A)</title><text x="119.218" y="74.4137" class="black" >A</text></g>
<g><title>46 (position.label in template: 47.C)</title><text x="124.038" y="68.8487" class="black" >C</text></g>
<g><title>47 (position.label in template: 48.C)</title><text x="129.52" y="63.9442" class="black" >C</text></g>
<g><title>48 (position.label in template: 49.C)</title><text x="135.546" y="59.7206" class="black" >C</text></g>
<g><title>49 (position.label in template: 50.C)</title><text x="142.008" y="56.2013" class="black" >C</text></g>
<g><title>50 (position.label in template: 51.A)</title><text x="148.843" y="53.4862" class="black" >A</text></g>
<g><title>50 (inserted)</title><text x="146.643" y="46.942" class="numbering-label sequential" >50</text></g>
<g><line x1="148.257" y1="51.7411" x2="147.159" y2="48.4763" class="numbering-line sequential" /></g>
<g><title>51 (position.label in template: 52.A)</title><text x="155.934" y="51.5187" class="black" >A</text></g>
<g><title>52 (position.label in template: 53.A)</title><text x="163.195" y="50.3439" class="black" >A</text></g>
<g><title>53 (position.label in template: 54.A)</title><text x="170.543" y="50" class="black" >A</text></g>
<g><title>54 (position.label in template: 55.N)</title><text x="177.866" y="50.611" class="green" >A</text></g>
<g><title>55 (position.label in template: 56.Y)</title><text x="185.114" y="51.9159" class="green" >U</text></g>
<g><title>56 (position.label in template: 57.N)</title><text x="192.136" y="54.0541" class="green" >C</text></g>
<g><title>57 (position.label in template: 58.U)</title><text x="198.876" y="57.0181" class="black" >U</text></g>
<g><title>58 (position.label in template: 59.A)</title><text x="205.296" y="60.6057" class="black" >A</text></g>
<g><title>59 (position.label in template: 60.N)</title><text x="211.192" y="64.9858" class="green" >G</text></g>
<g><title>60 (position.label in template: 61.N)</title><text x="216.511" y="70.0734" class="green" >U</text></g>
<g><title>61 (position.label in template: 62.N)</title><text x="221.305" y="75.6529" class="green" >G</text></g>
<g><title>62 (position.label in template: 63.N)</title><text x="225.433" y="81.7413" class="green" >C</text></g>
<g><title>63 (position.label in template: 64.N)</title><text x="228.842" y="88.2606" class="green" >U</text></g>
<g><title>64 (position.label in template: 65.N)</title><text x="231.492" y="95.124" class="green" >G</text></g>
<g><title>65 (position.label in template: 66.R)</title><text x="233.318" y="102.248" class="green" >A</text></g>
<g><title>66 (position.label in template: 67.N)</title><text x="234.281" y="109.547" class="green" >U</text></g>
<g><title>67 (position.label in template: 68.A)</title><text x="234.596" y="116.898" class="black" >A</text></g>
<g><title>68 (position.label in template: 69.N)</title><text x="233.972" y="124.229" class="green" >U</text></g>
<g><title>69 (position.label in template: 70.Y)</title><text x="232.498" y="131.44" class="green" >A</text></g>
<g><title>70 (position.label in template: 71.N)</title><text x="230.204" y="138.434" class="green" >A</text></g>
<g><title>71 (position.label in template: 72.Y)</title><text x="227.169" y="145.141" class="green" >C</text></g>
<g><title>72 (position.label in template: 73.U)</title><text x="223.303" y="151.404" class="green" >C</text></g>
<g><title>73 (position.label in template: 74.U)</title><text x="218.704" y="157.157" class="black" >U</text></g>
<g><title>74 (position.label in template: 75.N)</title><text x="213.593" y="162.462" class="green" >U</text></g>
<g><title>75 (inserted)</title><text x="208.058" y="167.319" class="red" >C</text></g>
<g><title>76 (position.label in template: 76.R)</title><text x="201.74" y="171.11" class="green" >A</text></g>
<g><line x1="199.892" y1="171.681" x2="192.578" y2="175.155" class="black" /></g>
<g><title>77 (position.label in template: 77.Y)</title><text x="205.05" y="178.01" class="green" >C</text></g>
<g><line x1="203.195" y1="178.566" x2="195.685" y2="182.06" class="black" /></g>
<g><title>78 (position.label in template: 78.Y)</title><text x="208.15" y="184.9" class="green" >C</text></g>
<g><line x1="206.273" y1="185.407" x2="198.447" y2="188.799" class="black" /></g>
<g><title>79 (position.label in template: 79.N)</title><text x="211.19" y="192.01" class="green" >A</text></g>
<g><line x1="209.324" y1="192.541" x2="201.896" y2="195.875" class="black" /></g>
<g><title>80 (position.label in template: 80.N)</title><text x="216.84" y="197.02" class="green" >A</text></g>
<g><title>81 (position.label in template: 81.N)</title><text x="216.84" y="204.58" class="green" >U</text></g>
<g><line x1="214.974" y1="205.112" x2="207.546" y2="208.454" class="black" /></g>
<g><title>82 (position.label in template: 82.U)</title><text x="219.79" y="211.27" class="green" >U</text></g>
<g><line x1="217.942" y1="211.841" x2="210.628" y2="215.315" class="black" /></g>
<g><title>83 (position.label in template: 83.N)</title><text x="223.04" y="218.38" class="green" >A</text></g>
<g><line x1="221.174" y1="218.911" x2="213.746" y2="222.245" class="black" /></g>
<g><title>84 (position.label in template: 84.R)</title><text x="229.96" y="220.84" class="green" >G</text></g>
<g><title>85 (position.label in template: 85.N)</title><text x="234.5" y="227.21" class="green" >G</text></g>
<g><title>86 (position.label in template: 86.Y)</title><text x="234.79" y="234.56" class="green" >U</text></g>
<g><title>87 (position.label in template: 87.N)</title><text x="230.72" y="241.17" class="green" >U</text></g>
<g><title>88 (position.label in template: 88.Y)</title><text x="223.88" y="244.06" class="green" >C</text></g>
<g><title>89 (position.label in template: 89.N)</title><text x="216.37" y="243.02" class="green" >A</text></g>
<g><title>90 (position.label in template: 90.N)</title><text x="210.87" y="237.83" class="green" >A</text></g>
<g><title>91 (position.label in template: 91.N)</title><text x="209.18" y="230.46" class="green" >A</text></g>
<g><title>92 (position.label in template: 92.N)</title><text x="211.88" y="223.39" class="green" >U</text></g>
<g><title>93 (position.label in template: 93.N)</title><text x="208.78" y="216.5" class="green" >A</text></g>
<g><title>94 (position.label in template: 94.N)</title><text x="205.68" y="209.6" class="green" >A</text></g>
<g><title>95 (position.label in template: 95.N)</title><text x="200.03" y="204.58" class="green" >G</text></g>
<g><title>96 (position.label in template: 96.N)</title><text x="200.03" y="197.02" class="green" >U</text></g>
<g><title>97 (position.label in template: 97.G)</title><text x="196.57" y="189.92" class="green" >G</text></g>
<g><title>98 (position.label in template: 98.N)</title><text x="193.83" y="183.23" class="green" >G</text></g>
<g><title>99 (position.label in template: 99.N)</title><text x="190.73" y="176.34" class="green" >U</text></g>
<g><title>100 (position.label in template: 100.R)</title><text x="183.29" y="178.14" class="green" >A</text></g>
<g><title>100 (inserted)</title><text x="184.735" y="184.891" class="numbering-label sequential" >100</text></g>
<g><line x1="183.675" y1="179.94" x2="184.407" y2="183.357" class="numbering-line sequential" /></g>
<g><title>101 (position.label in template: 101.N)</title><text x="175.97" y="179.5" class="green" >A</text></g>
<g><title>102 (position.label in template: 102.N)</title><text x="176.873" y="184.784" class="green" >U</text></g>
<g><title>103 (position.label in template: 103.N)</title><text x="175.97" y="190.067" class="green" >G</text></g>
<g><title>104 (position.label in template: 104.Y)</title><text x="176.03" y="197.417" class="green" >C</text></g>
<g><title>105 (position.label in template: 105.N)</title><text x="175.97" y="205.187" class="green" >G</text></g>
<g><title>106 (position.label in template: 106.R)</title><text x="175.82" y="212.537" class="green" >G</text></g>
<g><title>107 (position.label in template: 107.N)</title><text x="175.97" y="220.307" class="green" >G</text></g>
<g><title>108 (position.label in template: 108.R)</title><text x="181.17" y="225.447" class="green" >A</text></g>
<g><title>109 (position.label in template: 109.Y)</title><text x="188.93" y="225.447" class="green" >C</text></g>
<g><title>110 (position.label in template: 110.N)</title><text x="196.44" y="225.657" class="green" >A</text></g>
<g><title>111 (position.label in template: 111.N)</title><text x="204" y="225.657" class="green" >A</text></g>
<g><title>112 (position.label in template: 112.R)</title><text x="209.19" y="220.097" class="green" >A</text></g>
<g><line x1="211.236" y1="219.79" x2="219.384" y2="219.79" class="black" /></g>
<g><title>113 (position.label in template: 113.R)</title><text x="209.19" y="212.537" class="green" >A</text></g>
<g><line x1="211.236" y1="212.23" x2="219.594" y2="212.23" class="black" /></g>
<g><title>114 (position.label in template: 114.R)</title><text x="209.19" y="204.977" class="green" >G</text></g>
<g><line x1="211.236" y1="204.67" x2="219.594" y2="204.67" class="black" /></g>
<g><title>115 (position.label in template: 115.R)</title><text x="209.19" y="197.417" class="green" >A</text></g>
<g><line x1="211.236" y1="197.11" x2="219.594" y2="197.11" class="black" /></g>
<g><title>116 (position.label in template: 116.N)</title><text x="209.34" y="190.067" class="green" >C</text></g>
<g><line x1="211.386" y1="189.76" x2="219.534" y2="189.76" class="black" /></g>
<g><title>117 (position.label in template: 117.N)</title><text x="202.79" y="186.287" class="green" >U</text></g>
<g><title>118 (position.label in template: 118.N)</title><text x="209.34" y="182.507" class="green" >A</text></g>
<g><line x1="211.386" y1="182.2" x2="219.534" y2="182.2" class="black" /></g>
<g><title>119 (position.label in template: 119.Y)</title><text x="209.4" y="174.737" class="green" >U</text></g>
<g><line x1="211.446" y1="174.43" x2="219.384" y2="174.43" class="black" /></g>
<g><title>120 (position.label in template: 120.N)</title><text x="209.34" y="167.387" class="green" >C</text></g>
<g><line x1="211.386" y1="167.08" x2="219.534" y2="167.08" class="black" /></g>
<g><title>121 (position.label in template: 121.N)</title><text x="201.78" y="167.387" class="green" >G</text></g>
<g><title>122 (position.label in template: 122.N)</title><text x="201.78" y="159.827" class="green" >A</text></g>
<g><title>123 (position.label in template: 123.N)</title><text x="209.34" y="159.827" class="green" >C</text></g>
<g><line x1="211.386" y1="159.52" x2="219.534" y2="159.52" class="black" /></g>
<g><title>124 (position.label in template: 124.N)</title><text x="209.34" y="152.267" class="green" >A</text></g>
<g><line x1="211.386" y1="151.96" x2="219.534" y2="151.96" class="black" /></g>
<g><title>125 (position.label in template: 125.U)</title><text x="209.19" y="144.497" class="black" >U</text></g>
<g><line x1="211.236" y1="144.19" x2="219.594" y2="144.19" class="black" /></g>
<g><title>126 (position.label in template: 126.N)</title><text x="205.098" y="140.272" class="green" >U</text></g>
<g><title>127 (position.label in template: 127.N)</title><text x="209.323" y="136.18" class="green" >U</text></g>
<g><line x1="211.368" y1="135.873" x2="219.517" y2="135.873" class="black" /></g>
<g><title>128 (position.label in template: 128.G)</title><text x="208.963" y="128.41" class="black" >G</text></g>
<g><line x1="211.008" y1="128.103" x2="219.367" y2="128.103" class="black" /></g>
<g><title>129 (position.label in template: 129.N)</title><text x="209.323" y="121.06" class="green" >A</text></g>
<g><line x1="211.368" y1="120.753" x2="219.517" y2="120.753" class="black" /></g>
<g><title>130 (position.label in template: 130.N)</title><text x="209.323" y="113.5" class="green" >U</text></g>
<g><line x1="211.368" y1="113.193" x2="219.517" y2="113.193" class="black" /></g>
<g><title>131 (position.label in template: 131.A)</title><text x="209.383" y="105.73" class="black" >A</text></g>
<g><line x1="211.428" y1="105.423" x2="219.367" y2="105.423" class="black" /></g>
<g><title>132 (position.label in template: 132.N)</title><text x="205.265" y="100.407" class="green" >C</text></g>
<g><title>133 (position.label in template: 133.N)</title><text x="205.121" y="93.6786" class="green" >A</text></g>
<g><title>134 (position.label in template: 134.N)</title><text x="209.006" y="88.1837" class="green" >C</text></g>
<g><title>135 (position.label in template: 135.N)</title><text x="215.398" y="86.0766" class="green" >U</text></g>
<g><title>136 (position.label in template: 136.U)</title><text x="221.789" y="88.1837" class="green" >A</text></g>
<g><title>137 (position.label in template: 137.A)</title><text x="225.674" y="93.6786" class="green" >U</text></g>
<g><title>138 (position.label in template: 138.U)</title><text x="225.53" y="100.407" class="blue" >U</text></g>
<g><title>139 (position.label in template: 140.U)</title><text x="221.413" y="105.73" class="black" >U</text></g>
<g><title>140 (position.label in template: 141.N)</title><text x="221.563" y="113.5" class="green" >A</text></g>
<g><title>141 (position.label in template: 142.N)</title><text x="221.563" y="121.06" class="green" >U</text></g>
<g><title>142 (position.label in template: 143.C)</title><text x="221.413" y="128.41" class="black" >C</text></g>
<g><title>143 (position.label in template: 144.N)</title><text x="221.563" y="136.18" class="green" >A</text></g>
<g><title>144 (position.label in template: 146.A)</title><text x="221.64" y="144.497" class="black" >A</text></g>
<g><title>145 (position.label in template: 147.N)</title><text x="221.58" y="152.267" class="green" >U</text></g>
<g><title>146 (position.label in template: 148.N)</title><text x="221.58" y="159.827" class="green" >G</text></g>
<g><title>147 (position.label in template: 149.N)</title><text x="221.58" y="167.387" class="green" >G</text></g>
<g><title>148 (position.label in template: 150.R)</title><text x="221.43" y="174.737" class="green" >A</text></g>
<g><title>149 (position.label in template: 151.N)</title><text x="221.58" y="182.507" class="green" >U</text></g>
<g><title>150 (position.label in template: 152.N)</title><text x="221.58" y="190.067" class="green" >G</text></g>
<g><title>150 (inserted)</title><text x="228.484" y="190.039" class="numbering-label sequential" >150</text></g>
<g><line x1="223.421" y1="190.06" x2="225.723" y2="190.05" class="numbering-line sequential" /></g>
<g><title>151 (position.label in template: 153.Y)</title><text x="221.64" y="197.417" class="green" >U</text></g>
<g><title>152 (position.label in template: 154.Y)</title><text x="221.64" y="204.977" class="green" >C</text></g>
<g><title>153 (position.label in template: 155.Y)</title><text x="221.64" y="212.537" class="green" >U</text></g>
<g><title>154 (position.label in template: 156.U)</title><text x="221.43" y="220.097" class="green" >U</text></g>
<g><title>155 (position.label in template: 157.N)</title><text x="226.752" y="225.477" class="green" >A</text></g>
<g><title>156 (position.label in template: 158.Y)</title><text x="234.316" y="225.268" class="green" >U</text></g>
<g><title>157 (position.label in template: 159.Y)</title><text x="241.883" y="225.268" class="green" >U</text></g>
<g><title>158 (position.label in template: 160.U)</title><text x="249.45" y="225.268" class="black" >U</text></g>
<g><title>159 (position.label in template: 161.Y)</title><text x="257.017" y="225.268" class="green" >U</text></g>
<g><title>160 (position.label in template: 166.3')</title><text x="264.584" y="225.268" class="green" >3'</text></g>
<g><line x1="135.754" y1="221.915" x2="139.229" y2="221.915" class="gray" /></g>
<g><line x1="143.321" y1="221.915" x2="146.796" y2="221.915" class="gray" /></g>
<g><line x1="150.888" y1="221.915" x2="154.363" y2="221.915" class="gray" /></g>
<g><line x1="158.388" y1="221.397" x2="161.751" y2="220.518" class="gray" /></g>
<g><line x1="163.746" y1="217.955" x2="163.774" y2="214.276" class="gray" /></g>
<g><line x1="163.773" y1="210.185" x2="163.747" y2="206.926" class="gray" /></g>
<g><line x1="163.635" y1="202.837" x2="163.465" y2="199.154" class="gray" /></g>
<g><line x1="163.47" y1="195.067" x2="163.63" y2="191.803" class="gray" /></g>
<g><line x1="163.385" y1="187.744" x2="163.171" y2="186.493" class="gray" /></g>
<g><line x1="163.171" y1="182.46" x2="163.385" y2="181.21" class="gray" /></g>
<g><line x1="161.716" y1="178.834" x2="158.124" y2="178.193" class="gray" /></g>
<g><line x1="154.138" y1="177.289" x2="150.792" y2="176.367" class="gray" /></g>
<g><line x1="146.925" y1="175.052" x2="143.715" y2="173.745" class="gray" /></g>
<g><line x1="140.04" y1="171.964" x2="137.18" y2="170.342" class="gray" /></g>
<g><line x1="133.716" y1="168.171" x2="130.724" y2="166.105" class="gray" /></g>
<g><line x1="127.525" y1="163.569" x2="124.955" y2="161.238" class="gray" /></g>
<g><line x1="122.087" y1="158.328" x2="119.963" y2="155.918" class="gray" /></g>
<g><line x1="117.452" y1="152.696" x2="115.348" y2="149.63" class="gray" /></g>
<g><line x1="113.235" y1="146.134" x2="111.615" y2="143.062" class="gray" /></g>
<g><line x1="108.749" y1="141.983" x2="105.581" y2="143.193" class="gray" /></g>
<g><line x1="101.715" y1="144.526" x2="98.325" y2="145.571" class="gray" /></g>
<g><line x1="94.4586" y1="146.902" x2="91.2814" y2="148.114" class="gray" /></g>
<g><line x1="87.4364" y1="149.511" x2="84.1536" y2="150.645" class="gray" /></g>
<g><line x1="80.2859" y1="151.98" x2="77.0141" y2="153.107" class="gray" /></g>
<g><line x1="73.1456" y1="154.439" x2="69.8644" y2="155.568" class="gray" /></g>
<g><line x1="66.5025" y1="157.698" x2="64.0775" y2="160.188" class="gray" /></g>
<g><line x1="60.6046" y1="161.618" x2="57.1354" y2="161.558" class="gray" /></g>
<g><line x1="53.7113" y1="160.012" x2="51.3787" y2="157.455" class="gray" /></g>
<g><line x1="50.1107" y1="153.9" x2="50.3093" y2="150.236" class="gray" /></g>
<g><line x1="52.0543" y1="146.963" x2="54.8157" y2="144.884" class="gray" /></g>
<g><line x1="58.4774" y1="143.927" x2="61.9126" y2="144.39" class="gray" /></g>
<g><line x1="65.8744" y1="143.998" x2="69.1556" y2="142.869" class="gray" /></g>
<g><line x1="73.0236" y1="141.535" x2="76.3064" y2="140.401" class="gray" /></g>
<g><line x1="80.1741" y1="139.067" x2="83.4459" y2="137.94" class="gray" /></g>
<g><line x1="87.2984" y1="136.563" x2="90.6716" y2="135.314" class="gray" /></g>
<g><line x1="94.5399" y1="133.984" x2="97.7301" y2="132.972" class="gray" /></g>
<g><line x1="101.584" y1="131.605" x2="104.566" y2="130.432" class="gray" /></g>
<g><line x1="106.16" y1="127.661" x2="105.664" y2="124.423" class="gray" /></g>
<g><line x1="105.223" y1="120.359" x2="105.013" y2="117.09" class="gray" /></g>
<g><line x1="105.033" y1="113.008" x2="105.274" y2="109.744" class="gray" /></g>
<g><line x1="105.76" y1="105.686" x2="106.296" y2="102.456" class="gray" /></g>
<g><line x1="107.19" y1="98.4702" x2="108.083" y2="95.3229" class="gray" /></g>
<g><line x1="109.375" y1="91.4452" x2="110.548" y2="88.3889" class="gray" /></g>
<g><line x1="112.298" y1="84.7038" x2="113.92" y2="81.8718" class="gray" /></g>
<g><line x1="116.126" y1="78.4323" x2="118.028" y2="75.771" class="gray" /></g>
<g><line x1="120.557" y1="72.5605" x2="122.699" y2="70.0882" class="gray" /></g>
<g><line x1="125.562" y1="67.1779" x2="127.996" y2="65.0013" class="gray" /></g>
<g><line x1="131.195" y1="62.4631" x2="133.871" y2="60.588" class="gray" /></g>
<g><line x1="137.342" y1="58.4353" x2="140.211" y2="56.8729" class="gray" /></g>
<g><line x1="143.909" y1="55.1393" x2="146.942" y2="53.9345" class="gray" /></g>
<g><line x1="150.815" y1="52.6324" x2="153.962" y2="51.7589" class="gray" /></g>
<g><line x1="157.953" y1="50.8852" x2="161.176" y2="50.3638" class="gray" /></g>
<g><line x1="165.239" y1="49.9414" x2="168.499" y2="49.7888" class="gray" /></g>
<g><line x1="172.581" y1="49.8632" x2="175.827" y2="50.134" class="gray" /></g>
<g><line x1="179.879" y1="50.6666" x2="183.101" y2="51.2466" class="gray" /></g>
<g><line x1="187.071" y1="52.205" x2="190.179" y2="53.1513" class="gray" /></g>
<g><line x1="194.008" y1="54.5708" x2="197.003" y2="55.8877" class="gray" /></g>
<g><line x1="200.661" y1="57.7091" x2="203.511" y2="59.301" class="gray" /></g>
<g><line x1="206.939" y1="61.5188" x2="209.55" y2="63.459" class="gray" /></g>
<g><line x1="212.671" y1="66.0929" x2="215.033" y2="68.3525" class="gray" /></g>
<g><line x1="217.845" y1="71.3182" x2="219.972" y2="73.7943" class="gray" /></g>
<g><line x1="222.453" y1="77.0392" x2="224.285" y2="79.7412" class="gray" /></g>
<g><line x1="226.381" y1="83.2473" x2="227.894" y2="86.1408" class="gray" /></g>
<g><line x1="229.579" y1="89.8621" x2="230.755" y2="92.9088" class="gray" /></g>
<g><line x1="232" y1="96.7988" x2="232.81" y2="99.9596" class="gray" /></g>
<g><line x1="233.586" y1="103.969" x2="234.014" y2="107.212" class="gray" /></g>
<g><line x1="234.369" y1="111.284" x2="234.508" y2="114.547" class="gray" /></g>
<g><line x1="234.422" y1="118.629" x2="234.146" y2="121.883" class="gray" /></g>
<g><line x1="233.563" y1="125.926" x2="232.908" y2="129.129" class="gray" /></g>
<g><line x1="231.86" y1="133.077" x2="230.841" y2="136.184" class="gray" /></g>
<g><line x1="229.361" y1="139.991" x2="228.013" y2="142.97" class="gray" /></g>
<g><line x1="226.095" y1="146.575" x2="224.377" y2="149.357" class="gray" /></g>
<g><line x1="222.025" y1="152.695" x2="219.981" y2="155.252" class="gray" /></g>
<g><line x1="217.284" y1="158.323" x2="215.012" y2="160.682" class="gray" /></g>
<g><line x1="212.055" y1="163.504" x2="209.595" y2="165.663" class="gray" /></g>
<g><line x1="206.304" y1="168.065" x2="203.494" y2="169.751" class="gray" /></g>
<g><line x1="202.625" y1="172.648" x2="204.165" y2="175.859" class="gray" /></g>
<g><line x1="205.889" y1="179.569" x2="207.311" y2="182.728" class="gray" /></g>
<g><line x1="208.954" y1="186.474" x2="210.386" y2="189.822" class="gray" /></g>
<g><line x1="212.721" y1="193.06" x2="215.309" y2="195.356" class="gray" /></g>
<g><line x1="216.84" y1="198.759" x2="216.84" y2="202.227" class="gray" /></g>
<g><line x1="217.665" y1="206.145" x2="218.965" y2="209.091" class="gray" /></g>
<g><line x1="220.64" y1="212.824" x2="222.19" y2="216.213" class="gray" /></g>
<g><line x1="224.968" y1="218.758" x2="228.032" y2="219.848" class="gray" /></g>
<g><line x1="231.147" y1="222.199" x2="233.313" y2="225.237" class="gray" /></g>
<g><line x1="234.581" y1="228.947" x2="234.709" y2="232.209" class="gray" /></g>
<g><line x1="233.717" y1="235.995" x2="231.793" y2="239.121" class="gray" /></g>
<g><line x1="228.836" y1="241.659" x2="225.764" y2="242.957" class="gray" /></g>
<g><line x1="221.854" y1="243.473" x2="218.396" y2="242.994" class="gray" /></g>
<g><line x1="214.882" y1="241.309" x2="212.358" y2="238.927" class="gray" /></g>
<g><line x1="210.413" y1="235.529" x2="209.637" y2="232.147" class="gray" /></g>
<g><line x1="209.91" y1="228.242" x2="211.15" y2="224.994" class="gray" /></g>
<g><line x1="211.041" y1="221.218" x2="209.619" y2="218.059" class="gray" /></g>
<g><line x1="207.942" y1="214.327" x2="206.518" y2="211.159" class="gray" /></g>
<g><line x1="204.151" y1="207.934" x2="201.559" y2="205.632" class="gray" /></g>
<g><line x1="200.03" y1="202.227" x2="200.03" y2="198.759" class="gray" /></g>
<g><line x1="199.134" y1="194.874" x2="197.466" y2="191.452" class="gray" /></g>
<g><line x1="195.795" y1="187.72" x2="194.605" y2="184.816" class="gray" /></g>
<g><line x1="192.991" y1="181.058" x2="191.569" y2="177.899" class="gray" /></g>
<g><line x1="188.742" y1="176.514" x2="185.278" y2="177.352" class="gray" /></g>
<g><line x1="181.279" y1="178.207" x2="177.981" y2="178.819" class="gray" /></g>
<g><line x1="176.315" y1="181.21" x2="176.529" y2="182.46" class="gray" /></g>
<g><line x1="176.529" y1="186.493" x2="176.315" y2="187.744" class="gray" /></g>
<g><line x1="175.987" y1="191.806" x2="176.013" y2="195.065" class="gray" /></g>
<g><line x1="176.014" y1="199.156" x2="175.986" y2="202.835" class="gray" /></g>
<g><line x1="175.928" y1="206.926" x2="175.862" y2="210.185" class="gray" /></g>
<g><line x1="175.859" y1="214.276" x2="175.931" y2="217.955" class="gray" /></g>
<g><line x1="177.425" y1="221.438" x2="179.715" y2="223.702" class="gray" /></g>
<g><line x1="183.216" y1="225.14" x2="186.884" y2="225.14" class="gray" /></g>
<g><line x1="190.975" y1="225.197" x2="194.395" y2="225.293" class="gray" /></g>
<g><line x1="198.486" y1="225.35" x2="201.954" y2="225.35" class="gray" /></g>
<g><line x1="205.396" y1="223.855" x2="207.794" y2="221.286" class="gray" /></g>
<g><line x1="209.19" y1="217.745" x2="209.19" y2="214.276" class="gray" /></g>
<g><line x1="209.19" y1="210.185" x2="209.19" y2="206.716" class="gray" /></g>
<g><line x1="209.19" y1="202.625" x2="209.19" y2="199.156" class="gray" /></g>
<g><line x1="209.232" y1="195.065" x2="209.298" y2="191.806" class="gray" /></g>
<g><line x1="207.568" y1="188.738" x2="204.562" y2="187.003" class="gray" /></g>
<g><line x1="204.562" y1="184.958" x2="207.568" y2="183.223" class="gray" /></g>
<g><line x1="209.356" y1="180.155" x2="209.384" y2="176.476" class="gray" /></g>
<g><line x1="209.383" y1="172.385" x2="209.357" y2="169.126" class="gray" /></g>
<g><line x1="207.294" y1="167.08" x2="203.826" y2="167.08" class="gray" /></g>
<g><line x1="201.78" y1="165.035" x2="201.78" y2="161.566" class="gray" /></g>
<g><line x1="203.826" y1="159.52" x2="207.294" y2="159.52" class="gray" /></g>
<g><line x1="209.34" y1="157.475" x2="209.34" y2="154.006" class="gray" /></g>
<g><line x1="209.301" y1="149.915" x2="209.229" y2="146.236" class="gray" /></g>
<g><line x1="207.767" y1="142.721" x2="206.521" y2="141.435" class="gray" /></g>
<g><line x1="206.567" y1="138.542" x2="207.853" y2="137.296" class="gray" /></g>
<g><line x1="209.228" y1="133.83" x2="209.057" y2="130.147" class="gray" /></g>
<g><line x1="209.063" y1="126.06" x2="209.222" y2="122.796" class="gray" /></g>
<g><line x1="209.323" y1="118.707" x2="209.323" y2="115.239" class="gray" /></g>
<g><line x1="209.338" y1="111.148" x2="209.367" y2="107.469" class="gray" /></g>
<g><line x1="208.131" y1="103.805" x2="206.517" y2="101.718" class="gray" /></g>
<g><line x1="205.221" y1="98.0547" x2="205.165" y2="95.417" class="gray" /></g>
<g><line x1="206.302" y1="91.7014" x2="207.825" y2="89.5472" class="gray" /></g>
<g><line x1="210.949" y1="87.2363" x2="213.455" y2="86.4103" class="gray" /></g>
<g><line x1="217.34" y1="86.4103" x2="219.846" y2="87.2363" class="gray" /></g>
<g><line x1="222.97" y1="89.5472" x2="224.493" y2="91.7014" class="gray" /></g>
<g><line x1="225.63" y1="95.417" x2="225.574" y2="98.0547" class="gray" /></g>
<g><line x1="224.278" y1="101.718" x2="222.664" y2="103.805" class="gray" /></g>
<g><line x1="221.452" y1="107.469" x2="221.523" y2="111.148" class="gray" /></g>
<g><line x1="221.563" y1="115.239" x2="221.563" y2="118.707" class="gray" /></g>
<g><line x1="221.521" y1="122.798" x2="221.454" y2="126.058" class="gray" /></g>
<g><line x1="221.452" y1="130.149" x2="221.523" y2="133.828" class="gray" /></g>
<g><line x1="221.582" y1="137.919" x2="221.621" y2="142.145" class="gray" /></g>
<g><line x1="221.624" y1="146.236" x2="221.596" y2="149.915" class="gray" /></g>
<g><line x1="221.58" y1="154.006" x2="221.58" y2="157.475" class="gray" /></g>
<g><line x1="221.58" y1="161.566" x2="221.58" y2="165.035" class="gray" /></g>
<g><line x1="221.538" y1="169.126" x2="221.472" y2="172.385" class="gray" /></g>
<g><line x1="221.469" y1="176.476" x2="221.541" y2="180.155" class="gray" /></g>
<g><line x1="221.58" y1="184.246" x2="221.58" y2="187.715" class="gray" /></g>
<g><line x1="221.597" y1="191.806" x2="221.623" y2="195.065" class="gray" /></g>
<g><line x1="221.64" y1="199.156" x2="221.64" y2="202.625" class="gray" /></g>
<g><line x1="221.64" y1="206.716" x2="221.64" y2="210.185" class="gray" /></g>
<g><line x1="221.583" y1="214.275" x2="221.487" y2="217.745" class="gray" /></g>
<g><line x1="222.869" y1="221.245" x2="225.313" y2="223.716" class="gray" /></g>
<g><line x1="228.797" y1="225.113" x2="232.271" y2="225.018" class="gray" /></g>
<g><line x1="236.362" y1="224.961" x2="239.837" y2="224.961" class="gray" /></g>
<g><line x1="243.929" y1="224.961" x2="247.404" y2="224.961" class="gray" /></g>
<g><line x1="251.496" y1="224.961" x2="254.971" y2="224.961" class="gray" /></g>
<g><line x1="259.063" y1="224.961" x2="262.538" y2="224.961" class="gray" /></g>
</svg>
