<svg
	xmlns="http://www.w3.org/2000/svg"
	width="306.842"
	height="259.078"
	style="font-size: 3.060353px; font-weight: bold; font-family: Helvetica; " >
<g><style type="text/css" >
<!-- create color definitions -->
<![CDATA[
text.red {fill: rgb(255, 0, 255); }
text.green {fill: rgb(0, 255, 0); }
text.blue {fill: rgb(0, 0, 255); }
text.black {fill: rgb(0, 0, 0); }
text.gray {fill: rgb(204, 204, 204); }
text.brown {fill: rgb(211.65, 104.55, 30.6); }
text {fill: rgb(0, 0, 0); text-anchor: middle; alignment-baseline: middle; }
circle.red {stroke: rgb(255, 0, 255); fill: none; }
circle.green {stroke: rgb(0, 255, 0); fill: none; }
circle.blue {stroke: rgb(0, 0, 255); fill: none; }
circle.black {stroke: rgb(0, 0, 0); fill: none; }
circle.gray {stroke: rgb(204, 204, 204); fill: none; }
circle.brown {stroke: rgb(211.65, 104.55, 30.6); fill: none; }
circle {stroke: rgb(0, 0, 0); }
line.red {stroke: rgb(255, 0, 255); stroke-width: 0.382544; }
line.green {stroke: rgb(0, 255, 0); stroke-width: 0.382544; }
line.blue {stroke: rgb(0, 0, 255); stroke-width: 0.382544; }
line.black {stroke: rgb(0, 0, 0); stroke-width: 0.382544; }
line.gray {stroke: rgb(204, 204, 204); stroke-width: 0.382544; }
line.brown {stroke: rgb(211.65, 104.55, 30.6); stroke-width: 0.382544; }
line {stroke: rgb(0, 0, 0); }
text.numbering-label {fill: rgb(204, 204, 204);}
line.numbering-line {stroke: rgb(204, 204, 204); stroke-width: 0.191272;}
line.predicted {stroke: rgb(0, 0, 0); stroke-dasharray: 2}
text.background {fill: rgb(255, 255, 255);
.template {visibility:hidden}
]]>
</style></g>
<g><title>0 (position.label in template: 0.5')</title><text x="53.8392" y="121.7" class="green" >5'</text></g>
<g><title>1 (position.label in template: 14.G)</title><text x="54.05" y="114.11" class="green" >G</text></g>
<g><line x1="56.0902" y1="113.804" x2="64.6698" y2="113.804" class="black" /></g>
<g><title>2 (position.label in template: 15.U)</title><text x="54.26" y="106.55" class="green" >U</text></g>
<g><line x1="56.3002" y1="106.244" x2="64.4598" y2="106.244" class="black" /></g>
<g><title>3 (position.label in template: 16.C)</title><text x="54.26" y="98.99" class="black" >C</text></g>
<g><line x1="56.3002" y1="98.684" x2="64.2498" y2="98.684" class="black" /></g>
<g><title>4 (position.label in template: 17.G)</title><text x="54.05" y="91.43" class="black" >G</text></g>
<g><line x1="56.0902" y1="91.124" x2="64.4598" y2="91.124" class="black" /></g>
<g><title>5 (position.label in template: 18.C)</title><text x="54.26" y="83.87" class="black" >C</text></g>
<g><line x1="56.3002" y1="83.564" x2="64.2498" y2="83.564" class="black" /></g>
<g><title>6 (position.label in template: 19.Y)</title><text x="54.47" y="76.31" class="green" >U</text></g>
<g><line x1="56.5102" y1="76.004" x2="64.4598" y2="76.004" class="black" /></g>
<g><title>7 (position.label in template: 20.G)</title><text x="54.05" y="68.75" class="black" >G</text></g>
<g><line x1="56.0902" y1="68.444" x2="64.4598" y2="68.444" class="black" /></g>
<g><title>8 (position.label in template: 21.C)</title><text x="50" y="62.51" class="green" >U</text></g>
<g><title>9 (position.label in template: 22.N)</title><text x="51.08" y="55.22" class="green" >A</text></g>
<g><title>10 (position.label in template: 23.A)</title><text x="56.81" y="50" class="black" >A</text></g>
<g><title>10 (inserted)</title><text x="54.2926" y="43.5909" class="numbering-label sequential" >10</text></g>
<g><line x1="56.1387" y1="48.2909" x2="54.8937" y2="45.121" class="numbering-line sequential" /></g>
<g><title>11 (position.label in template: 24.A)</title><text x="64.37" y="50" class="black" >A</text></g>
<g><title>12 (position.label in template: 25.N)</title><text x="69.98" y="55.22" class="green" >U</text></g>
<g><title>13 (position.label in template: 26.U)</title><text x="70.76" y="62.51" class="green" >C</text></g>
<g><title>14 (position.label in template: 27.C)</title><text x="66.5" y="68.75" class="black" >C</text></g>
<g><title>15 (position.label in template: 28.R)</title><text x="66.5" y="76.31" class="green" >A</text></g>
<g><title>16 (position.label in template: 29.G)</title><text x="66.29" y="83.87" class="black" >G</text></g>
<g><title>17 (position.label in template: 30.C)</title><text x="66.5" y="91.43" class="black" >C</text></g>
<g><title>18 (position.label in template: 31.G)</title><text x="66.29" y="98.99" class="black" >G</text></g>
<g><title>19 (position.label in template: 32.R)</title><text x="66.5" y="106.55" class="green" >A</text></g>
<g><title>20 (position.label in template: 33.Y)</title><text x="66.71" y="114.11" class="green" >C</text></g>
<g><title>20 (inserted)</title><text x="71.8126" y="109.486" class="numbering-label sequential" >20</text></g>
<g><line x1="68.0707" y1="112.877" x2="70.1239" y2="111.017" class="numbering-line sequential" /></g>
<g><title>21 (inserted)</title><text x="76.149" y="117.199" class="red" >C</text></g>
<g><title>22 (inserted)</title><text x="83.365" y="119.56" class="red" >A</text></g>
<g><title>23 (inserted)</title><text x="90.581" y="121.921" class="red" >G</text></g>
<g><title>24 (position.label in template: 37.N)</title><text x="100.02" y="125.01" class="green" >G</text></g>
<g><line x1="100.03" y1="126.744" x2="100.07" y2="134.704" class="black" /></g>
<g><title>25 (position.label in template: 38.Y)</title><text x="100.917" y="117.547" class="green" >U</text></g>
<g><title>26 (position.label in template: 39.N)</title><text x="102.524" y="110.204" class="green" >U</text></g>
<g><title>27 (position.label in template: 40.U)</title><text x="104.826" y="103.048" class="blue" >U</text></g>
<g><title>28 (position.label in template: 41.G)</title><text x="107.801" y="96.1456" class="blue" >G</text></g>
<g><title>29 (position.label in template: 42.R)</title><text x="111.423" y="89.559" class="green" >G</text></g>
<g><title>30 (inserted)</title><text x="115.658" y="83.3489" class="red" >U</text></g>
<g><title>30 (inserted)</title><text x="110.162" y="79.2014" class="numbering-label sequential" >30</text></g>
<g><line x1="114.193" y1="82.2429" x2="111.998" y2="80.5869" class="numbering-line sequential" /></g>
<g><title>31 (inserted)</title><text x="120.468" y="77.5724" class="red" >C</text></g>
<g><title>32 (inserted)</title><text x="125.808" y="72.2822" class="red" >A</text></g>
<g><title>33 (inserted)</title><text x="131.63" y="67.527" class="red" >C</text></g>
<g><title>34 (inserted)</title><text x="137.879" y="63.3503" class="red" >C</text></g>
<g><title>35 (inserted)</title><text x="144.499" y="59.7903" class="red" >U</text></g>
<g><title>36 (inserted)</title><text x="151.43" y="56.8798" class="red" >G</text></g>
<g><title>37 (inserted)</title><text x="158.607" y="54.6453" class="red" >C</text></g>
<g><title>38 (inserted)</title><text x="165.964" y="53.1074" class="red" >G</text></g>
<g><title>39 (inserted)</title><text x="173.436" y="52.2802" class="red" >A</text></g>
<g><title>40 (inserted)</title><text x="180.952" y="52.1713" class="red" >G</text></g>
<g><title>41 (inserted)</title><text x="188.443" y="52.7816" class="red" >A</text></g>
<g><title>42 (inserted)</title><text x="195.843" y="54.1055" class="red" >A</text></g>
<g><title>43 (inserted)</title><text x="203.081" y="56.131" class="red" >A</text></g>
<g><title>44 (inserted)</title><text x="210.093" y="58.8394" class="red" >U</text></g>
<g><title>45 (inserted)</title><text x="216.814" y="62.206" class="red" >C</text></g>
<g><title>46 (inserted)</title><text x="223.182" y="66.1998" class="red" >A</text></g>
<g><title>47 (inserted)</title><text x="229.139" y="70.7843" class="red" >A</text></g>
<g><title>48 (inserted)</title><text x="234.63" y="75.9174" class="red" >G</text></g>
<g><title>49 (inserted)</title><text x="239.605" y="81.5521" class="red" >G</text></g>
<g><title>50 (inserted)</title><text x="244.018" y="87.6368" class="red" >C</text></g>
<g><title>50 (inserted)</title><text x="249.779" y="83.8653" class="numbering-label sequential" >50</text></g>
<g><line x1="245.555" y1="86.6311" x2="247.943" y2="85.0674" class="numbering-line sequential" /></g>
<g><title>51 (inserted)</title><text x="247.83" y="94.1156" class="red" >G</text></g>
<g><title>52 (inserted)</title><text x="251.004" y="100.929" class="red" >C</text></g>
<g><title>53 (inserted)</title><text x="253.512" y="108.015" class="red" >A</text></g>
<g><title>54 (inserted)</title><text x="255.331" y="115.309" class="red" >C</text></g>
<g><title>55 (inserted)</title><text x="256.444" y="122.742" class="red" >A</text></g>
<g><title>56 (inserted)</title><text x="256.842" y="130.249" class="red" >A</text></g>
<g><title>57 (inserted)</title><text x="256.519" y="137.758" class="red" >G</text></g>
<g><title>58 (inserted)</title><text x="255.48" y="145.203" class="red" >C</text></g>
<g><title>59 (inserted)</title><text x="253.734" y="152.514" class="red" >G</text></g>
<g><title>60 (inserted)</title><text x="251.297" y="159.625" class="red" >C</text></g>
<g><title>61 (inserted)</title><text x="248.19" y="166.47" class="red" >C</text></g>
<g><title>62 (inserted)</title><text x="244.444" y="172.986" class="red" >C</text></g>
<g><title>63 (inserted)</title><text x="240.091" y="179.115" class="red" >C</text></g>
<g><title>64 (inserted)</title><text x="235.172" y="184.799" class="red" >A</text></g>
<g><title>65 (inserted)</title><text x="229.733" y="189.986" class="red" >U</text></g>
<g><title>66 (inserted)</title><text x="223.822" y="194.63" class="red" >C</text></g>
<g><title>67 (inserted)</title><text x="217.494" y="198.687" class="red" >C</text></g>
<g><title>68 (inserted)</title><text x="210.807" y="202.12" class="red" >G</text></g>
<g><title>69 (inserted)</title><text x="203.823" y="204.898" class="red" >A</text></g>
<g><title>70 (inserted)</title><text x="196.605" y="206.996" class="red" >U</text></g>
<g><title>71 (inserted)</title><text x="189.219" y="208.394" class="red" >U</text></g>
<g><title>72 (inserted)</title><text x="181.733" y="209.078" class="red" >C</text></g>
<g><title>73 (inserted)</title><text x="174.217" y="209.044" class="red" >A</text></g>
<g><title>74 (inserted)</title><text x="166.738" y="208.292" class="red" >G</text></g>
<g><title>75 (inserted)</title><text x="159.365" y="206.827" class="red" >C</text></g>
<g><title>76 (inserted)</title><text x="152.166" y="204.664" class="red" >U</text></g>
<g><title>77 (inserted)</title><text x="145.207" y="201.823" class="red" >G</text></g>
<g><title>78 (inserted)</title><text x="138.552" y="198.329" class="red" >G</text></g>
<g><title>79 (inserted)</title><text x="132.261" y="194.215" class="red" >C</text></g>
<g><title>80 (inserted)</title><text x="126.392" y="189.518" class="red" >G</text></g>
<g><title>81 (inserted)</title><text x="121" y="184.281" class="red" >C</text></g>
<g><title>82 (inserted)</title><text x="116.133" y="178.553" class="red" >U</text></g>
<g><title>83 (inserted)</title><text x="111.836" y="172.386" class="red" >U</text></g>
<g><title>84 (inserted)</title><text x="108.149" y="165.835" class="red" >U</text></g>
<g><title>85 (inserted)</title><text x="105.104" y="158.963" class="red" >U</text></g>
<g><title>86 (inserted)</title><text x="102.732" y="151.83" class="red" >U</text></g>
<g><title>87 (inserted)</title><text x="101.052" y="144.504" class="red" >U</text></g>
<g><title>88 (position.label in template: 46.Y)</title><text x="100.08" y="137.05" class="green" >U</text></g>
<g><title>89 (position.label in template: 54.3')</title><text x="104.117" y="143.48" class="green" >3'</text></g>
<g><line x1="53.8958" y1="119.354" x2="53.9933" y2="115.843" class="gray" /></g>
<g><line x1="54.1067" y1="111.765" x2="54.2033" y2="108.283" class="gray" /></g>
<g><line x1="54.26" y1="104.204" x2="54.26" y2="100.724" class="gray" /></g>
<g><line x1="54.2033" y1="96.6445" x2="54.1067" y2="93.1634" class="gray" /></g>
<g><line x1="54.1067" y1="89.0845" x2="54.2033" y2="85.6034" class="gray" /></g>
<g><line x1="54.3167" y1="81.5245" x2="54.4133" y2="78.0434" class="gray" /></g>
<g><line x1="54.3568" y1="73.9669" x2="54.1632" y2="70.4811" class="gray" /></g>
<g><line x1="52.9393" y1="66.7326" x2="51.1107" y2="63.9153" class="gray" /></g>
<g><line x1="50.299" y1="60.1858" x2="50.781" y2="56.9322" class="gray" /></g>
<g><line x1="52.5882" y1="53.54" x2="55.3018" y2="51.0679" class="gray" /></g>
<g><line x1="58.8502" y1="49.694" x2="62.3298" y2="49.694" class="gray" /></g>
<g><line x1="65.8636" y1="51.0838" x2="68.4864" y2="53.5242" class="gray" /></g>
<g><line x1="70.1971" y1="56.9426" x2="70.5429" y2="60.1753" class="gray" /></g>
<g><line x1="69.6097" y1="63.889" x2="67.6503" y2="66.759" class="gray" /></g>
<g><line x1="66.5" y1="70.4842" x2="66.5" y2="73.9637" class="gray" /></g>
<g><line x1="66.4433" y1="78.0434" x2="66.3467" y2="81.5245" class="gray" /></g>
<g><line x1="66.3467" y1="85.6034" x2="66.4433" y2="89.0845" class="gray" /></g>
<g><line x1="66.4433" y1="93.1634" x2="66.3467" y2="96.6445" class="gray" /></g>
<g><line x1="66.3467" y1="100.723" x2="66.4433" y2="104.205" class="gray" /></g>
<g><line x1="66.5567" y1="108.283" x2="66.6533" y2="111.765" class="gray" /></g>
<g><line x1="68.6491" y1="114.438" x2="74.21" y2="116.258" class="gray" /></g>
<g><line x1="78.0881" y1="117.527" x2="81.4259" y2="118.619" class="gray" /></g>
<g><line x1="85.3041" y1="119.888" x2="88.6419" y2="120.981" class="gray" /></g>
<g><line x1="92.52" y1="122.25" x2="98.0809" y2="124.069" class="gray" /></g>
<g><line x1="100.264" y1="122.678" x2="100.674" y2="119.267" class="gray" /></g>
<g><line x1="101.353" y1="115.248" x2="102.088" y2="111.891" class="gray" /></g>
<g><line x1="103.149" y1="107.956" x2="104.201" y2="104.685" class="gray" /></g>
<g><line x1="105.633" y1="100.869" x2="106.994" y2="97.7131" class="gray" /></g>
<g><line x1="108.784" y1="94.0518" x2="110.44" y2="91.0407" class="gray" /></g>
<g><line x1="112.573" y1="87.5674" x2="114.509" y2="84.7285" class="gray" /></g>
<g><line x1="116.964" y1="81.475" x2="119.163" y2="78.8342" class="gray" /></g>
<g><line x1="121.918" y1="75.8305" x2="124.359" y2="73.4121" class="gray" /></g>
<g><line x1="127.388" y1="70.6855" x2="130.049" y2="68.5116" class="gray" /></g>
<g><line x1="133.326" y1="66.0873" x2="136.183" y2="64.1779" class="gray" /></g>
<g><line x1="139.676" y1="62.078" x2="142.702" y2="60.4505" class="gray" /></g>
<g><line x1="146.38" y1="58.6943" x2="149.549" y2="57.3637" class="gray" /></g>
<g><line x1="153.378" y1="55.9672" x2="156.659" y2="54.9458" class="gray" /></g>
<g><line x1="160.604" y1="53.9219" x2="163.967" y2="53.2188" class="gray" /></g>
<g><line x1="167.992" y1="52.5769" x2="171.408" y2="52.1987" class="gray" /></g>
<g><line x1="175.476" y1="51.9446" x2="178.912" y2="51.8948" class="gray" /></g>
<g><line x1="182.985" y1="52.0309" x2="186.41" y2="52.3099" class="gray" /></g>
<g><line x1="190.452" y1="52.8349" x2="193.834" y2="53.4401" class="gray" /></g>
<g><line x1="197.807" y1="54.3493" x2="201.117" y2="55.2752" class="gray" /></g>
<g><line x1="204.985" y1="56.5601" x2="208.19" y2="57.7983" class="gray" /></g>
<g><line x1="211.917" y1="59.4472" x2="214.99" y2="60.9862" class="gray" /></g>
<g><line x1="218.542" y1="62.984" x2="221.453" y2="64.8097" class="gray" /></g>
<g><line x1="224.799" y1="67.1381" x2="227.522" y2="69.2339" class="gray" /></g>
<g><line x1="230.629" y1="71.8715" x2="233.139" y2="74.2181" class="gray" /></g>
<g><line x1="235.98" y1="77.1408" x2="238.255" y2="79.7167" class="gray" /></g>
<g><line x1="240.803" y1="82.8976" x2="242.82" y2="85.6792" class="gray" /></g>
<g><line x1="245.053" y1="89.0893" x2="246.795" y2="92.0511" class="gray" /></g>
<g><line x1="248.691" y1="95.659" x2="250.142" y2="98.7738" class="gray" /></g>
<g><line x1="251.685" y1="102.547" x2="252.831" y2="105.786" class="gray" /></g>
<g><line x1="254.006" y1="109.689" x2="254.837" y2="113.023" class="gray" /></g>
<g><line x1="255.633" y1="117.02" x2="256.142" y2="120.419" class="gray" /></g>
<g><line x1="256.552" y1="124.474" x2="256.734" y2="127.905" class="gray" /></g>
<g><line x1="256.754" y1="131.981" x2="256.607" y2="135.414" class="gray" /></g>
<g><line x1="256.237" y1="139.473" x2="255.762" y2="142.876" class="gray" /></g>
<g><line x1="255.006" y1="146.881" x2="254.208" y2="150.224" class="gray" /></g>
<g><line x1="253.072" y1="154.138" x2="251.958" y2="157.389" class="gray" /></g>
<g><line x1="250.453" y1="161.177" x2="249.033" y2="164.306" class="gray" /></g>
<g><line x1="247.173" y1="167.932" x2="245.461" y2="170.911" class="gray" /></g>
<g><line x1="243.262" y1="174.344" x2="241.273" y2="177.145" class="gray" /></g>
<g><line x1="238.756" y1="180.351" x2="236.508" y2="182.95" class="gray" /></g>
<g><line x1="233.696" y1="185.901" x2="231.209" y2="188.272" class="gray" /></g>
<g><line x1="228.128" y1="190.941" x2="225.426" y2="193.063" class="gray" /></g>
<g><line x1="222.104" y1="195.425" x2="219.212" y2="197.28" class="gray" /></g>
<g><line x1="215.679" y1="199.313" x2="212.622" y2="200.882" class="gray" /></g>
<g><line x1="208.912" y1="202.568" x2="205.719" y2="203.838" class="gray" /></g>
<g><line x1="201.864" y1="205.162" x2="198.564" y2="206.121" class="gray" /></g>
<g><line x1="194.6" y1="207.069" x2="191.224" y2="207.708" class="gray" /></g>
<g><line x1="187.187" y1="208.273" x2="183.765" y2="208.587" class="gray" /></g>
<g><line x1="179.693" y1="208.763" x2="176.257" y2="208.748" class="gray" /></g>
<g><line x1="172.187" y1="208.534" x2="168.768" y2="208.19" class="gray" /></g>
<g><line x1="164.737" y1="207.588" x2="161.366" y2="206.919" class="gray" /></g>
<g><line x1="157.411" y1="205.934" x2="154.12" y2="204.945" class="gray" /></g>
<g><line x1="150.277" y1="203.587" x2="147.096" y2="202.288" class="gray" /></g>
<g><line x1="143.401" y1="200.569" x2="140.358" y2="198.972" class="gray" /></g>
<g><line x1="136.844" y1="196.907" x2="133.968" y2="195.026" class="gray" /></g>
<g><line x1="130.668" y1="192.634" x2="127.985" y2="190.487" class="gray" /></g>
<g><line x1="124.929" y1="187.791" x2="122.464" y2="185.397" class="gray" /></g>
<g><line x1="119.679" y1="182.421" x2="117.454" y2="179.802" class="gray" /></g>
<g><line x1="114.967" y1="176.573" x2="113.002" y2="173.754" class="gray" /></g>
<g><line x1="110.835" y1="170.302" x2="109.149" y2="167.307" class="gray" /></g>
<g><line x1="107.322" y1="163.664" x2="105.931" y2="160.522" class="gray" /></g>
<g><line x1="104.46" y1="156.721" x2="103.376" y2="153.46" class="gray" /></g>
<g><line x1="102.276" y1="149.536" x2="101.508" y2="146.186" class="gray" /></g>
<g><line x1="100.788" y1="142.175" x2="100.344" y2="138.767" class="gray" /></g>
<g><line x1="101.165" y1="138.472" x2="103.032" y2="141.446" class="gray" /></g>
</svg>
