<svg
	xmlns="http://www.w3.org/2000/svg"
	width="221.219"
	height="287.903"
	style="font-size: 2.092554px; font-weight: bold; font-family: Helvetica; " >
<g><style type="text/css" >
<!-- create color definitions -->
<![CDATA[
text.red {fill: rgb(255, 0, 255); }
text.green {fill: rgb(0, 255, 0); }
text.blue {fill: rgb(0, 0, 255); }
text.black {fill: rgb(0, 0, 0); }
text.gray {fill: rgb(204, 204, 204); }
text.brown {fill: rgb(211.65, 104.55, 30.6); }
text {fill: rgb(0, 0, 0); text-anchor: middle; alignment-baseline: middle; }
circle.red {stroke: rgb(255, 0, 255); fill: none; }
circle.green {stroke: rgb(0, 255, 0); fill: none; }
circle.blue {stroke: rgb(0, 0, 255); fill: none; }
circle.black {stroke: rgb(0, 0, 0); fill: none; }
circle.gray {stroke: rgb(204, 204, 204); fill: none; }
circle.brown {stroke: rgb(211.65, 104.55, 30.6); fill: none; }
circle {stroke: rgb(0, 0, 0); }
line.red {stroke: rgb(255, 0, 255); stroke-width: 0.261569; }
line.green {stroke: rgb(0, 255, 0); stroke-width: 0.261569; }
line.blue {stroke: rgb(0, 0, 255); stroke-width: 0.261569; }
line.black {stroke: rgb(0, 0, 0); stroke-width: 0.261569; }
line.gray {stroke: rgb(204, 204, 204); stroke-width: 0.261569; }
line.brown {stroke: rgb(211.65, 104.55, 30.6); stroke-width: 0.261569; }
line {stroke: rgb(0, 0, 0); }
text.numbering-label {fill: rgb(204, 204, 204);}
line.numbering-line {stroke: rgb(204, 204, 204); stroke-width: 0.130785;}
line.predicted {stroke: rgb(0, 0, 0); stroke-dasharray: 2}
text.background {fill: rgb(255, 255, 255);
.template {visibility:hidden}
]]>
</style></g>
<g><title>0 (position.label in template: 0.5')</title><text x="165.432" y="46.8233" class="green" >5'</text></g>
<g><title>1 (position.label in template: 1635.C)</title><text x="167.696" y="50" class="green" >A</text></g>
<g><title>2 (position.label in template: 1636.C)</title><text x="169.961" y="53.1767" class="green" >A</text></g>
<g><title>3 (position.label in template: 1637.U)</title><text x="170.4" y="57.0531" class="green" >G</text></g>
<g><title>4 (position.label in template: 1638.G)</title><text x="168.901" y="60.6549" class="black" >G</text></g>
<g><title>5 (position.label in template: 1639.A)</title><text x="165.843" y="63.0774" class="green" >U</text></g>
<g><title>6 (inserted)</title><text x="163.553" y="66.2356" class="red" >U</text></g>
<g><title>7 (inserted)</title><text x="161.263" y="69.3938" class="red" >G</text></g>
<g><title>8 (inserted)</title><text x="158.972" y="72.552" class="red" >G</text></g>
<g><title>9 (inserted)</title><text x="156.682" y="75.7101" class="red" >U</text></g>
<g><title>10 (inserted)</title><text x="154.392" y="78.8683" class="red" >C</text></g>
<g><title>10 (inserted)</title><text x="150.58" y="76.1043" class="numbering-label sequential" >10</text></g>
<g><line x1="153.376" y1="78.1312" x2="151.836" y2="77.0148" class="numbering-line sequential" /></g>
<g><title>11 (position.label in template: 1645.C)</title><text x="152.102" y="82.0265" class="black" >C</text></g>
<g><line x1="152.102" y1="83.2123" x2="152.102" y2="88.3822" class="black" /></g>
<g><title>12 (position.label in template: 1646.U)</title><text x="156.286" y="82.3245" class="black" >U</text></g>
<g><title>13 (position.label in template: 1647.A)</title><text x="158.296" y="86.0065" class="black" >A</text></g>
<g><title>14 (position.label in template: 1648.A)</title><text x="156.286" y="89.6875" class="black" >A</text></g>
<g><title>15 (position.label in template: 1649.G)</title><text x="152.102" y="89.9865" class="black" >G</text></g>
<g><title>16 (position.label in template: 1650.G)</title><text x="151.003" y="95.0885" class="black" >G</text></g>
<g><title>17 (position.label in template: 1651.U)</title><text x="148.437" y="99.6335" class="black" >U</text></g>
<g><title>18 (position.label in template: 1652.A)</title><text x="144.638" y="103.212" class="black" >A</text></g>
<g><title>19 (position.label in template: 1653.G)</title><text x="139.947" y="105.5" class="black" >G</text></g>
<g><line x1="138.552" y1="105.291" x2="133.381" y2="105.291" class="black" /></g>
<g><title>20 (position.label in template: 1654.C)</title><text x="139.356" y="113.574" class="black" >C</text></g>
<g><line x1="137.961" y1="113.365" x2="132.791" y2="113.365" class="black" /></g>
<g><title>20 (inserted)</title><text x="143.924" y="112.435" class="numbering-label sequential" >20</text></g>
<g><line x1="140.574" y1="113.271" x2="142.669" y2="112.748" class="numbering-line sequential" /></g>
<g><title>21 (position.label in template: 1655.A)</title><text x="142.355" y="115.157" class="black" >A</text></g>
<g><title>22 (position.label in template: 1656.A)</title><text x="144.644" y="117.658" class="black" >A</text></g>
<g><title>23 (position.label in template: 1657.A)</title><text x="145.953" y="120.786" class="black" >A</text></g>
<g><title>24 (position.label in template: 1658.A)</title><text x="146.128" y="124.173" class="black" >A</text></g>
<g><title>25 (position.label in template: 1659.U)</title><text x="145.15" y="127.419" class="black" >U</text></g>
<g><title>26 (position.label in template: 1660.U)</title><text x="143.133" y="130.144" class="black" >U</text></g>
<g><title>27 (position.label in template: 1661.C)</title><text x="140.313" y="132.029" class="black" >C</text></g>
<g><title>28 (position.label in template: 1662.C)</title><text x="137.023" y="132.849" class="black" >C</text></g>
<g><title>29 (position.label in template: 1663.U)</title><text x="133.649" y="132.511" class="black" >U</text></g>
<g><title>30 (position.label in template: 1664.U)</title><text x="130.588" y="131.052" class="black" >U</text></g>
<g><title>30 (inserted)</title><text x="127.864" y="134.893" class="numbering-label sequential" >30</text></g>
<g><line x1="129.862" y1="132.077" x2="128.606" y2="133.847" class="numbering-line sequential" /></g>
<g><title>31 (position.label in template: 1665.G)</title><text x="128.199" y="128.646" class="black" >G</text></g>
<g><line x1="127.603" y1="127.176" x2="125.395" y2="122.5" class="black" /></g>
<g><title>32 (position.label in template: 1666.G)</title><text x="124.6" y="130.346" class="green" >A</text></g>
<g><line x1="124.004" y1="128.876" x2="121.796" y2="124.201" class="black" /></g>
<g><title>33 (position.label in template: 1667.C)</title><text x="121.001" y="132.045" class="black" >C</text></g>
<g><line x1="120.405" y1="130.575" x2="118.197" y2="125.9" class="black" /></g>
<g><title>34 (position.label in template: 1668.G)</title><text x="117.401" y="133.745" class="green" >A</text></g>
<g><line x1="116.805" y1="132.275" x2="114.598" y2="127.6" class="black" /></g>
<g><title>35 (position.label in template: 1669.G)</title><text x="113.803" y="135.445" class="black" >G</text></g>
<g><line x1="113.207" y1="133.975" x2="110.999" y2="129.299" class="black" /></g>
<g><title>36 (position.label in template: 1670.G)</title><text x="111.856" y="138.061" class="black" >G</text></g>
<g><title>37 (position.label in template: 1671.U)</title><text x="108.783" y="139.156" class="black" >U</text></g>
<g><title>38 (position.label in template: 1672.A)</title><text x="105.62" y="138.36" class="black" >A</text></g>
<g><title>39 (position.label in template: 1673.A)</title><text x="103.431" y="135.942" class="black" >A</text></g>
<g><title>40 (position.label in template: 1674.G)</title><text x="102.954" y="132.715" class="black" >G</text></g>
<g><title>41 (position.label in template: 1675.U)</title><text x="104.348" y="129.767" class="black" >U</text></g>
<g><title>42 (position.label in template: 1676.U)</title><text x="107.145" y="128.089" class="black" >U</text></g>
<g><title>43 (position.label in template: 1677.C)</title><text x="110.403" y="128.246" class="black" >C</text></g>
<g><title>44 (position.label in template: 1678.C)</title><text x="114.002" y="126.547" class="green" >C</text></g>
<g><title>45 (position.label in template: 1679.G)</title><text x="117.601" y="124.847" class="black" >G</text></g>
<g><title>46 (position.label in template: 1680.U)</title><text x="121.2" y="123.148" class="green" >U</text></g>
<g><title>47 (position.label in template: 1681.C)</title><text x="124.8" y="121.447" class="black" >C</text></g>
<g><title>48 (position.label in template: 1682.C)</title><text x="126.442" y="118.389" class="black" >C</text></g>
<g><title>49 (position.label in template: 1683.U)</title><text x="128.672" y="115.728" class="green" >A</text></g>
<g><title>50 (position.label in template: 1684.G)</title><text x="131.396" y="113.574" class="black" >G</text></g>
<g><title>50 (inserted)</title><text x="127.164" y="111.511" class="numbering-label sequential" >50</text></g>
<g><line x1="130.267" y1="113.024" x2="128.419" y2="112.123" class="numbering-line sequential" /></g>
<g><title>51 (position.label in template: 1685.C)</title><text x="130.821" y="111.32" class="black" >C</text></g>
<g><title>52 (position.label in template: 1686.A)</title><text x="130.789" y="108.287" class="black" >A</text></g>
<g><title>53 (position.label in template: 1687.U)</title><text x="131.986" y="105.5" class="black" >U</text></g>
<g><title>54 (position.label in template: 1688.G)</title><text x="128.553" y="103.787" class="black" >G</text></g>
<g><title>55 (position.label in template: 1689.A)</title><text x="125.453" y="101.525" class="black" >A</text></g>
<g><title>56 (position.label in template: 1690.A)</title><text x="122.776" y="98.7775" class="green" >G</text></g>
<g><title>57 (position.label in template: 1691.U)</title><text x="120.595" y="95.6195" class="green" >C</text></g>
<g><title>58 (inserted)</title><text x="118.644" y="95.6469" class="red" >G</text></g>
<g><title>59 (inserted)</title><text x="114.744" y="95.7017" class="red" >G</text></g>
<g><title>60 (inserted)</title><text x="106.942" y="95.8114" class="red" >U</text></g>
<g><title>61 (inserted)</title><text x="103.041" y="95.8663" class="red" >G</text></g>
<g><title>62 (position.label in template: 1696.U)</title><text x="101.091" y="95.8937" class="black" >U</text></g>
<g><title>63 (position.label in template: 1697.A)</title><text x="98.669" y="98.9117" class="black" >A</text></g>
<g><title>64 (position.label in template: 1698.A)</title><text x="95.549" y="101.202" class="black" >A</text></g>
<g><title>65 (inserted)</title><text x="95.1428" y="103.11" class="red" >C</text></g>
<g><title>66 (inserted)</title><text x="93.5183" y="110.741" class="red" >G</text></g>
<g><title>67 (position.label in template: 1701.A)</title><text x="93.1122" y="112.649" class="black" >A</text></g>
<g><title>68 (inserted)</title><text x="93.3788" y="116.541" class="red" >C</text></g>
<g><title>69 (inserted)</title><text x="93.6453" y="120.433" class="red" >U</text></g>
<g><title>70 (inserted)</title><text x="93.9119" y="124.325" class="red" >U</text></g>
<g><title>71 (inserted)</title><text x="94.1784" y="128.217" class="red" >C</text></g>
<g><title>72 (inserted)</title><text x="94.445" y="132.109" class="red" >A</text></g>
<g><title>73 (inserted)</title><text x="94.7116" y="136.001" class="red" >U</text></g>
<g><title>74 (inserted)</title><text x="94.9781" y="139.893" class="red" >C</text></g>
<g><title>75 (position.label in template: 1709.G)</title><text x="95.2447" y="143.785" class="green" >A</text></g>
<g><title>76 (position.label in template: 1710.C)</title><text x="96.9567" y="148.037" class="black" >C</text></g>
<g><title>77 (position.label in template: 1711.U)</title><text x="96.4217" y="152.59" class="black" >U</text></g>
<g><title>78 (position.label in template: 1712.G)</title><text x="93.7717" y="156.329" class="black" >G</text></g>
<g><title>79 (position.label in template: 1713.U)</title><text x="89.6527" y="158.34" class="black" >U</text></g>
<g><title>80 (inserted)</title><text x="87.4374" y="160.961" class="red" >C</text></g>
<g><title>81 (inserted)</title><text x="84.9189" y="163.94" class="red" >A</text></g>
<g><title>82 (inserted)</title><text x="82.4005" y="166.919" class="red" >C</text></g>
<g><title>83 (inserted)</title><text x="79.882" y="169.899" class="red" >U</text></g>
<g><title>84 (inserted)</title><text x="77.3636" y="172.878" class="red" >A</text></g>
<g><title>85 (inserted)</title><text x="72.3267" y="178.837" class="red" >G</text></g>
<g><title>86 (inserted)</title><text x="69.8083" y="181.816" class="red" >C</text></g>
<g><title>87 (inserted)</title><text x="67.2899" y="184.796" class="red" >C</text></g>
<g><title>88 (inserted)</title><text x="64.7714" y="187.775" class="red" >U</text></g>
<g><title>89 (inserted)</title><text x="62.253" y="190.754" class="red" >G</text></g>
<g><title>90 (position.label in template: 1724.U)</title><text x="60.0377" y="193.375" class="green" >G</text></g>
<g><title>91 (inserted)</title><text x="58.783" y="197.069" class="red" >U</text></g>
<g><title>92 (inserted)</title><text x="57.5283" y="200.763" class="red" >C</text></g>
<g><title>93 (inserted)</title><text x="56.2735" y="204.457" class="red" >U</text></g>
<g><title>94 (inserted)</title><text x="55.0188" y="208.151" class="red" >C</text></g>
<g><title>95 (inserted)</title><text x="53.7641" y="211.844" class="red" >U</text></g>
<g><title>96 (inserted)</title><text x="52.5094" y="215.538" class="red" >C</text></g>
<g><title>97 (inserted)</title><text x="51.2547" y="219.232" class="red" >A</text></g>
<g><title>98 (position.label in template: 1732.G)</title><text x="50" y="222.926" class="black" >G</text></g>
<g><title>99 (position.label in template: 1733.A)</title><text x="52.928" y="225.2" class="black" >A</text></g>
<g><title>100 (position.label in template: 1734.A)</title><text x="56.643" y="228.038" class="black" >A</text></g>
<g><title>100 (inserted)</title><text x="53.4183" y="231.469" class="numbering-label sequential" >100</text></g>
<g><line x1="55.7831" y1="228.953" x2="54.4018" y2="230.422" class="numbering-line sequential" /></g>
<g><title>101 (position.label in template: 1735.A)</title><text x="59.059" y="230.963" class="black" >A</text></g>
<g><title>102 (inserted)</title><text x="60.6643" y="232.071" class="red" >U</text></g>
<g><title>103 (inserted)</title><text x="67.0856" y="236.503" class="red" >U</text></g>
<g><title>104 (position.label in template: 1738.G)</title><text x="68.691" y="237.611" class="black" >G</text></g>
<g><title>105 (position.label in template: 1739.A)</title><text x="73.592" y="237.606" class="black" >A</text></g>
<g><title>106 (position.label in template: 1740.A)</title><text x="78.493" y="237.606" class="green" >C</text></g>
<g><title>107 (position.label in template: 1741.C)</title><text x="83.394" y="237.61" class="green" >U</text></g>
<g><title>108 (position.label in template: 1742.U)</title><text x="88.295" y="237.62" class="green" >C</text></g>
<g><title>109 (position.label in template: 1743.U)</title><text x="93.196" y="237.634" class="green" >A</text></g>
<g><title>110 (position.label in template: 1744.U)</title><text x="98.098" y="237.653" class="black" >U</text></g>
<g><title>111 (position.label in template: 1745.C)</title><text x="102.999" y="237.677" class="black" >C</text></g>
<g><line x1="104.394" y1="237.468" x2="109.564" y2="237.468" class="black" /></g>
<g><title>112 (position.label in template: 1746.C)</title><text x="102.999" y="233.697" class="black" >C</text></g>
<g><line x1="104.394" y1="233.488" x2="109.564" y2="233.488" class="black" /></g>
<g><title>113 (position.label in template: 1747.G)</title><text x="102.999" y="229.717" class="green" >U</text></g>
<g><line x1="104.394" y1="229.508" x2="109.564" y2="229.508" class="black" /></g>
<g><title>114 (position.label in template: 1748.U)</title><text x="102.999" y="225.737" class="black" >U</text></g>
<g><line x1="104.394" y1="225.528" x2="109.564" y2="225.528" class="black" /></g>
<g><title>115 (position.label in template: 1749.G)</title><text x="102.113" y="222.884" class="black" >G</text></g>
<g><title>116 (position.label in template: 1750.A)</title><text x="103.061" y="220.051" class="black" >A</text></g>
<g><title>117 (position.label in template: 1751.A)</title><text x="105.485" y="218.306" class="green" >U</text></g>
<g><title>118 (position.label in template: 1752.G)</title><text x="108.472" y="218.306" class="green" >U</text></g>
<g><title>119 (position.label in template: 1753.A)</title><text x="110.897" y="220.051" class="black" >A</text></g>
<g><title>120 (position.label in template: 1754.U)</title><text x="111.845" y="222.884" class="green" >C</text></g>
<g><title>121 (position.label in template: 1755.G)</title><text x="110.959" y="225.737" class="black" >G</text></g>
<g><title>122 (position.label in template: 1756.C)</title><text x="110.959" y="229.717" class="green" >A</text></g>
<g><title>123 (position.label in template: 1757.G)</title><text x="110.959" y="233.697" class="black" >G</text></g>
<g><title>124 (position.label in template: 1758.G)</title><text x="110.959" y="237.677" class="black" >G</text></g>
<g><title>125 (position.label in template: 1759.C)</title><text x="114.854" y="237.903" class="green" >A</text></g>
<g><title>126 (position.label in template: 1760.A)</title><text x="118.752" y="237.766" class="black" >A</text></g>
<g><title>127 (position.label in template: 1761.A)</title><text x="122.651" y="237.634" class="green" >G</text></g>
<g><title>128 (inserted)</title><text x="125.714" y="235.218" class="red" >C</text></g>
<g><title>129 (inserted)</title><text x="128.778" y="232.803" class="red" >C</text></g>
<g><title>130 (inserted)</title><text x="131.841" y="230.387" class="red" >A</text></g>
<g><title>131 (inserted)</title><text x="134.904" y="227.971" class="red" >A</text></g>
<g><title>132 (inserted)</title><text x="137.967" y="225.555" class="red" >C</text></g>
<g><title>133 (inserted)</title><text x="141.031" y="223.14" class="red" >G</text></g>
<g><title>134 (inserted)</title><text x="144.094" y="220.724" class="red" >G</text></g>
<g><title>135 (inserted)</title><text x="147.157" y="218.308" class="red" >C</text></g>
<g><title>136 (position.label in template: 1771.U)</title><text x="150.22" y="215.893" class="green" >C</text></g>
<g><title>137 (inserted)</title><text x="152.658" y="212.847" class="red" >A</text></g>
<g><title>138 (inserted)</title><text x="155.096" y="209.801" class="red" >G</text></g>
<g><title>139 (inserted)</title><text x="157.534" y="206.756" class="red" >A</text></g>
<g><title>140 (position.label in template: 1775.C)</title><text x="159.972" y="203.71" class="black" >C</text></g>
<g><title>141 (inserted)</title><text x="160.733" y="199.884" class="red" >G</text></g>
<g><title>142 (inserted)</title><text x="161.494" y="196.058" class="red" >G</text></g>
<g><title>143 (inserted)</title><text x="162.255" y="192.232" class="red" >U</text></g>
<g><title>144 (position.label in template: 1779.A)</title><text x="163.016" y="188.405" class="black" >A</text></g>
<g><title>145 (position.label in template: 1780.A)</title><text x="162.089" y="184.616" class="black" >A</text></g>
<g><title>146 (position.label in template: 1781.G)</title><text x="162.608" y="180.75" class="black" >G</text></g>
<g><title>147 (position.label in template: 1782.A)</title><text x="163.976" y="177.096" class="black" >A</text></g>
<g><title>148 (position.label in template: 1783.C)</title><text x="166.834" y="174.441" class="black" >C</text></g>
<g><title>149 (inserted)</title><text x="167.321" y="170.57" class="red" >C</text></g>
<g><title>150 (inserted)</title><text x="167.808" y="166.699" class="red" >C</text></g>
<g><title>150 (inserted)</title><text x="172.48" y="167.287" class="numbering-label sequential" >150</text></g>
<g><line x1="169.054" y1="166.856" x2="170.596" y2="167.05" class="numbering-line sequential" /></g>
<g><title>151 (inserted)</title><text x="168.296" y="162.829" class="red" >U</text></g>
<g><title>152 (inserted)</title><text x="168.783" y="158.958" class="red" >G</text></g>
<g><title>153 (position.label in template: 1788.U)</title><text x="169.27" y="155.088" class="green" >A</text></g>
<g><title>154 (inserted)</title><text x="169.549" y="151.196" class="red" >G</text></g>
<g><title>155 (inserted)</title><text x="169.827" y="147.305" class="red" >C</text></g>
<g><title>156 (inserted)</title><text x="170.105" y="143.414" class="red" >A</text></g>
<g><title>157 (inserted)</title><text x="170.384" y="139.523" class="red" >C</text></g>
<g><title>158 (inserted)</title><text x="170.662" y="135.632" class="red" >C</text></g>
<g><title>159 (inserted)</title><text x="170.94" y="131.74" class="red" >U</text></g>
<g><title>160 (position.label in template: 1795.U)</title><text x="171.219" y="127.849" class="black" >U</text></g>
<g><title>161 (position.label in template: 1796.U)</title><text x="171.106" y="123.95" class="black" >U</text></g>
<g><title>162 (position.label in template: 1797.A)</title><text x="171.214" y="120.05" class="green" >C</text></g>
<g><title>163 (inserted)</title><text x="170.635" y="116.192" class="red" >C</text></g>
<g><title>164 (inserted)</title><text x="170.055" y="112.334" class="red" >U</text></g>
<g><title>165 (inserted)</title><text x="169.475" y="108.476" class="red" >U</text></g>
<g><title>166 (inserted)</title><text x="168.895" y="104.619" class="red" >C</text></g>
<g><title>167 (position.label in template: 1802.U)</title><text x="168.315" y="100.761" class="black" >U</text></g>
<g><title>168 (position.label in template: 1803.A)</title><text x="168.301" y="96.8596" class="green" >C</text></g>
<g><title>169 (inserted)</title><text x="168.286" y="92.9585" class="red" >U</text></g>
<g><title>170 (inserted)</title><text x="168.272" y="89.0573" class="red" >U</text></g>
<g><title>171 (position.label in template: 2593.3')</title><text x="168.257" y="85.1562" class="green" >3'</text></g>
<g><line x1="166.242" y1="47.75" x2="166.887" y2="48.6548" class="gray" /></g>
<g><line x1="168.506" y1="50.9267" x2="169.151" y2="51.8315" class="gray" /></g>
<g><line x1="170.118" y1="54.3536" x2="170.243" y2="55.4577" class="gray" /></g>
<g><line x1="169.864" y1="58.1318" x2="169.437" y2="59.1576" class="gray" /></g>
<g><line x1="167.807" y1="61.3119" x2="166.936" y2="62.0019" class="gray" /></g>
<g><line x1="165.024" y1="63.9975" x2="164.372" y2="64.897" class="gray" /></g>
<g><line x1="162.734" y1="67.1557" x2="162.082" y2="68.0552" class="gray" /></g>
<g><line x1="160.444" y1="70.3139" x2="159.791" y2="71.2134" class="gray" /></g>
<g><line x1="158.153" y1="73.472" x2="157.501" y2="74.3715" class="gray" /></g>
<g><line x1="155.863" y1="76.6302" x2="155.211" y2="77.5297" class="gray" /></g>
<g><line x1="153.573" y1="79.7884" x2="152.921" y2="80.6879" class="gray" /></g>
<g><line x1="153.493" y1="81.9163" x2="154.894" y2="82.0161" class="gray" /></g>
<g><line x1="156.954" y1="83.3397" x2="157.627" y2="84.5728" class="gray" /></g>
<g><line x1="157.627" y1="87.0216" x2="156.954" y2="88.2538" class="gray" /></g>
<g><line x1="154.894" y1="89.5777" x2="153.493" y2="89.6778" class="gray" /></g>
<g><line x1="151.808" y1="91.141" x2="151.297" y2="93.5155" class="gray" /></g>
<g><line x1="150.317" y1="96.094" x2="149.123" y2="98.2094" class="gray" /></g>
<g><line x1="147.421" y1="100.381" x2="145.653" y2="102.047" class="gray" /></g>
<g><line x1="143.384" y1="103.615" x2="141.201" y2="104.68" class="gray" /></g>
<g><line x1="139.845" y1="106.683" x2="139.458" y2="111.974" class="gray" /></g>
<g><line x1="140.59" y1="114.016" x2="141.121" y2="114.297" class="gray" /></g>
<g><line x1="143.297" y1="115.977" x2="143.702" y2="116.42" class="gray" /></g>
<g><line x1="145.182" y1="118.736" x2="145.414" y2="119.29" class="gray" /></g>
<g><line x1="146.025" y1="121.97" x2="146.056" y2="122.571" class="gray" /></g>
<g><line x1="145.725" y1="125.3" x2="145.552" y2="125.874" class="gray" /></g>
<g><line x1="144.32" y1="128.332" x2="143.963" y2="128.814" class="gray" /></g>
<g><line x1="141.973" y1="130.71" x2="141.473" y2="131.045" class="gray" /></g>
<g><line x1="138.959" y1="132.158" x2="138.376" y2="132.303" class="gray" /></g>
<g><line x1="135.635" y1="132.501" x2="135.037" y2="132.441" class="gray" /></g>
<g><line x1="132.39" y1="131.702" x2="131.847" y2="131.443" class="gray" /></g>
<g><line x1="129.605" y1="129.853" x2="129.182" y2="129.427" class="gray" /></g>
<g><line x1="126.937" y1="129.033" x2="125.861" y2="129.541" class="gray" /></g>
<g><line x1="123.338" y1="130.733" x2="122.262" y2="131.241" class="gray" /></g>
<g><line x1="119.739" y1="132.432" x2="118.662" y2="132.941" class="gray" /></g>
<g><line x1="116.139" y1="134.132" x2="115.064" y2="134.64" class="gray" /></g>
<g><line x1="112.97" y1="136.355" x2="112.689" y2="136.733" class="gray" /></g>
<g><line x1="110.542" y1="138.32" x2="110.097" y2="138.479" class="gray" /></g>
<g><line x1="107.43" y1="138.607" x2="106.973" y2="138.492" class="gray" /></g>
<g><line x1="104.684" y1="137.117" x2="104.367" y2="136.767" class="gray" /></g>
<g><line x1="103.227" y1="134.353" x2="103.158" y2="133.886" class="gray" /></g>
<g><line x1="103.55" y1="131.245" x2="103.751" y2="130.819" class="gray" /></g>
<g><line x1="105.544" y1="128.841" x2="105.949" y2="128.598" class="gray" /></g>
<g><line x1="108.538" y1="127.947" x2="109.009" y2="127.97" class="gray" /></g>
<g><line x1="111.664" y1="127.442" x2="112.74" y2="126.934" class="gray" /></g>
<g><line x1="115.263" y1="125.742" x2="116.339" y2="125.234" class="gray" /></g>
<g><line x1="118.862" y1="124.043" x2="119.938" y2="123.535" class="gray" /></g>
<g><line x1="122.461" y1="122.343" x2="123.539" y2="121.834" class="gray" /></g>
<g><line x1="125.46" y1="120.009" x2="125.782" y2="119.409" class="gray" /></g>
<g><line x1="127.338" y1="117.111" x2="127.776" y2="116.588" class="gray" /></g>
<g><line x1="129.766" y1="114.654" x2="130.302" y2="114.231" class="gray" /></g>
<g><line x1="130.806" y1="109.716" x2="130.804" y2="109.473" class="gray" /></g>
<g><line x1="131.339" y1="106.796" x2="131.435" y2="106.573" class="gray" /></g>
<g><line x1="130.738" y1="104.668" x2="129.801" y2="104.201" class="gray" /></g>
<g><line x1="127.426" y1="102.756" x2="126.58" y2="102.139" class="gray" /></g>
<g><line x1="124.479" y1="100.317" x2="123.749" y2="99.5675" class="gray" /></g>
<g><line x1="121.983" y1="97.4203" x2="121.388" y2="96.5581" class="gray" /></g>
<g><line x1="117.25" y1="95.4573" x2="116.139" y2="95.4729" class="gray" /></g>
<g><line x1="113.349" y1="95.5121" x2="108.337" y2="95.5826" class="gray" /></g>
<g><line x1="105.547" y1="95.6218" x2="104.436" y2="95.6374" class="gray" /></g>
<g><line x1="100.218" y1="96.7724" x2="99.5421" y2="97.6144" class="gray" /></g>
<g><line x1="97.5443" y1="99.5279" x2="96.6736" y2="100.167" class="gray" /></g>
<g><line x1="94.8524" y1="104.265" x2="93.8088" y2="109.167" class="gray" /></g>
<g><line x1="93.2075" y1="113.831" x2="93.2834" y2="114.94" class="gray" /></g>
<g><line x1="93.4741" y1="117.723" x2="93.55" y2="118.832" class="gray" /></g>
<g><line x1="93.7406" y1="121.615" x2="93.8166" y2="122.724" class="gray" /></g>
<g><line x1="94.0072" y1="125.507" x2="94.0831" y2="126.616" class="gray" /></g>
<g><line x1="94.2738" y1="129.399" x2="94.3497" y2="130.508" class="gray" /></g>
<g><line x1="94.5403" y1="133.291" x2="94.6162" y2="134.4" class="gray" /></g>
<g><line x1="94.8069" y1="137.183" x2="94.8828" y2="138.292" class="gray" /></g>
<g><line x1="95.0734" y1="141.075" x2="95.1494" y2="142.184" class="gray" /></g>
<g><line x1="95.7657" y1="144.87" x2="96.4356" y2="146.534" class="gray" /></g>
<g><line x1="96.7939" y1="149.213" x2="96.5845" y2="150.995" class="gray" /></g>
<g><line x1="95.615" y1="153.519" x2="94.5783" y2="154.982" class="gray" /></g>
<g><line x1="92.5181" y1="156.732" x2="90.9063" y2="157.519" class="gray" /></g>
<g><line x1="88.7521" y1="159.196" x2="88.3379" y2="159.686" class="gray" /></g>
<g><line x1="86.5368" y1="161.817" x2="85.8195" y2="162.665" class="gray" /></g>
<g><line x1="84.0183" y1="164.796" x2="83.3011" y2="165.645" class="gray" /></g>
<g><line x1="81.4999" y1="167.776" x2="80.7826" y2="168.624" class="gray" /></g>
<g><line x1="78.9815" y1="170.755" x2="78.2642" y2="171.604" class="gray" /></g>
<g><line x1="76.463" y1="173.734" x2="73.2273" y2="177.562" class="gray" /></g>
<g><line x1="71.4262" y1="179.693" x2="70.7089" y2="180.542" class="gray" /></g>
<g><line x1="68.9077" y1="182.672" x2="68.1904" y2="183.521" class="gray" /></g>
<g><line x1="66.3893" y1="185.652" x2="65.672" y2="186.5" class="gray" /></g>
<g><line x1="63.8708" y1="188.631" x2="63.1536" y2="189.48" class="gray" /></g>
<g><line x1="61.3524" y1="191.61" x2="60.9383" y2="192.1" class="gray" /></g>
<g><line x1="59.589" y1="194.487" x2="59.2316" y2="195.539" class="gray" /></g>
<g><line x1="58.3343" y1="198.181" x2="57.9769" y2="199.233" class="gray" /></g>
<g><line x1="57.0796" y1="201.874" x2="56.7222" y2="202.926" class="gray" /></g>
<g><line x1="55.8249" y1="205.568" x2="55.4675" y2="206.62" class="gray" /></g>
<g><line x1="54.5702" y1="209.262" x2="54.2128" y2="210.314" class="gray" /></g>
<g><line x1="53.3154" y1="212.956" x2="52.9581" y2="214.008" class="gray" /></g>
<g><line x1="52.0607" y1="216.65" x2="51.7034" y2="217.702" class="gray" /></g>
<g><line x1="50.806" y1="220.344" x2="50.4487" y2="221.396" class="gray" /></g>
<g><line x1="51.1018" y1="223.572" x2="51.8262" y2="224.135" class="gray" /></g>
<g><line x1="54.0366" y1="225.838" x2="55.5344" y2="226.982" class="gray" /></g>
<g><line x1="57.5314" y1="228.904" x2="58.1706" y2="229.678" class="gray" /></g>
<g><line x1="61.8124" y1="232.654" x2="65.9375" y2="235.501" class="gray" /></g>
<g><line x1="70.086" y1="237.4" x2="72.1969" y2="237.398" class="gray" /></g>
<g><line x1="74.987" y1="237.397" x2="77.0979" y2="237.397" class="gray" /></g>
<g><line x1="79.888" y1="237.398" x2="81.9989" y2="237.4" class="gray" /></g>
<g><line x1="84.789" y1="237.404" x2="86.8999" y2="237.408" class="gray" /></g>
<g><line x1="89.69" y1="237.415" x2="91.8009" y2="237.421" class="gray" /></g>
<g><line x1="94.591" y1="237.43" x2="96.7029" y2="237.438" class="gray" /></g>
<g><line x1="99.493" y1="237.451" x2="101.604" y2="237.461" class="gray" /></g>
<g><line x1="102.999" y1="236.073" x2="102.999" y2="234.883" class="gray" /></g>
<g><line x1="102.999" y1="232.093" x2="102.999" y2="230.903" class="gray" /></g>
<g><line x1="102.999" y1="228.113" x2="102.999" y2="226.923" class="gray" /></g>
<g><line x1="102.585" y1="224.196" x2="102.527" y2="224.007" class="gray" /></g>
<g><line x1="102.556" y1="221.352" x2="102.618" y2="221.165" class="gray" /></g>
<g><line x1="104.193" y1="219.027" x2="104.353" y2="218.912" class="gray" /></g>
<g><line x1="106.88" y1="218.097" x2="107.077" y2="218.097" class="gray" /></g>
<g><line x1="109.604" y1="218.912" x2="109.765" y2="219.027" class="gray" /></g>
<g><line x1="111.34" y1="221.165" x2="111.402" y2="221.352" class="gray" /></g>
<g><line x1="111.431" y1="224.007" x2="111.373" y2="224.196" class="gray" /></g>
<g><line x1="110.959" y1="226.923" x2="110.959" y2="228.113" class="gray" /></g>
<g><line x1="110.959" y1="230.903" x2="110.959" y2="232.093" class="gray" /></g>
<g><line x1="110.959" y1="234.883" x2="110.959" y2="236.073" class="gray" /></g>
<g><line x1="112.352" y1="237.549" x2="113.461" y2="237.613" class="gray" /></g>
<g><line x1="116.248" y1="237.645" x2="117.358" y2="237.606" class="gray" /></g>
<g><line x1="120.147" y1="237.509" x2="121.257" y2="237.472" class="gray" /></g>
<g><line x1="123.747" y1="236.561" x2="124.619" y2="235.873" class="gray" /></g>
<g><line x1="126.81" y1="234.145" x2="127.682" y2="233.457" class="gray" /></g>
<g><line x1="129.873" y1="231.73" x2="130.746" y2="231.042" class="gray" /></g>
<g><line x1="132.936" y1="229.314" x2="133.809" y2="228.626" class="gray" /></g>
<g><line x1="136" y1="226.898" x2="136.872" y2="226.21" class="gray" /></g>
<g><line x1="139.063" y1="224.482" x2="139.935" y2="223.794" class="gray" /></g>
<g><line x1="142.126" y1="222.067" x2="142.998" y2="221.379" class="gray" /></g>
<g><line x1="145.189" y1="219.651" x2="146.062" y2="218.963" class="gray" /></g>
<g><line x1="148.252" y1="217.235" x2="149.125" y2="216.547" class="gray" /></g>
<g><line x1="151.092" y1="214.594" x2="151.786" y2="213.727" class="gray" /></g>
<g><line x1="153.53" y1="211.549" x2="154.224" y2="210.681" class="gray" /></g>
<g><line x1="155.968" y1="208.503" x2="156.662" y2="207.636" class="gray" /></g>
<g><line x1="158.406" y1="205.458" x2="159.1" y2="204.59" class="gray" /></g>
<g><line x1="160.244" y1="202.133" x2="160.461" y2="201.043" class="gray" /></g>
<g><line x1="161.005" y1="198.307" x2="161.222" y2="197.217" class="gray" /></g>
<g><line x1="161.766" y1="194.48" x2="161.983" y2="193.391" class="gray" /></g>
<g><line x1="162.527" y1="190.654" x2="162.743" y2="189.564" class="gray" /></g>
<g><line x1="162.684" y1="186.841" x2="162.42" y2="185.762" class="gray" /></g>
<g><line x1="162.274" y1="183.024" x2="162.422" y2="181.923" class="gray" /></g>
<g><line x1="163.097" y1="179.234" x2="163.487" y2="178.193" class="gray" /></g>
<g><line x1="164.998" y1="175.937" x2="165.812" y2="175.181" class="gray" /></g>
<g><line x1="167.008" y1="172.847" x2="167.147" y2="171.745" class="gray" /></g>
<g><line x1="167.495" y1="168.977" x2="167.634" y2="167.874" class="gray" /></g>
<g><line x1="167.983" y1="165.106" x2="168.121" y2="164.004" class="gray" /></g>
<g><line x1="168.47" y1="161.235" x2="168.609" y2="160.133" class="gray" /></g>
<g><line x1="168.957" y1="157.365" x2="169.096" y2="156.262" class="gray" /></g>
<g><line x1="169.37" y1="153.487" x2="169.449" y2="152.379" class="gray" /></g>
<g><line x1="169.648" y1="149.596" x2="169.727" y2="148.487" class="gray" /></g>
<g><line x1="169.927" y1="145.704" x2="170.006" y2="144.596" class="gray" /></g>
<g><line x1="170.205" y1="141.813" x2="170.284" y2="140.705" class="gray" /></g>
<g><line x1="170.483" y1="137.922" x2="170.563" y2="136.814" class="gray" /></g>
<g><line x1="170.762" y1="134.031" x2="170.841" y2="132.923" class="gray" /></g>
<g><line x1="171.04" y1="130.14" x2="171.119" y2="129.031" class="gray" /></g>
<g><line x1="171.179" y1="126.245" x2="171.147" y2="125.135" class="gray" /></g>
<g><line x1="171.145" y1="122.346" x2="171.176" y2="121.235" class="gray" /></g>
<g><line x1="171.007" y1="118.461" x2="170.842" y2="117.362" class="gray" /></g>
<g><line x1="170.427" y1="114.603" x2="170.262" y2="113.505" class="gray" /></g>
<g><line x1="169.847" y1="110.745" x2="169.682" y2="109.647" class="gray" /></g>
<g><line x1="169.267" y1="106.888" x2="169.102" y2="105.789" class="gray" /></g>
<g><line x1="168.688" y1="103.03" x2="168.522" y2="101.931" class="gray" /></g>
<g><line x1="168.31" y1="99.1565" x2="168.306" y2="98.0454" class="gray" /></g>
<g><line x1="168.295" y1="95.2553" x2="168.291" y2="94.1442" class="gray" /></g>
<g><line x1="168.281" y1="91.3542" x2="168.277" y2="90.2431" class="gray" /></g>
<g><line x1="168.266" y1="87.4531" x2="168.262" y2="86.342" class="gray" /></g>
</svg>
