<svg
	xmlns="http://www.w3.org/2000/svg"
	width="315.417"
	height="294.06"
	style="font-size: 3.068569px; font-weight: bold; font-family: Helvetica; " >
<g><style type="text/css" >
<!-- create color definitions -->
<![CDATA[
text.red {fill: rgb(255, 0, 255); }
text.green {fill: rgb(0, 255, 0); }
text.blue {fill: rgb(0, 0, 255); }
text.black {fill: rgb(0, 0, 0); }
text.gray {fill: rgb(204, 204, 204); }
text.brown {fill: rgb(211.65, 104.55, 30.6); }
text {fill: rgb(0, 0, 0); text-anchor: middle; alignment-baseline: middle; }
circle.red {stroke: rgb(255, 0, 255); fill: none; }
circle.green {stroke: rgb(0, 255, 0); fill: none; }
circle.blue {stroke: rgb(0, 0, 255); fill: none; }
circle.black {stroke: rgb(0, 0, 0); fill: none; }
circle.gray {stroke: rgb(204, 204, 204); fill: none; }
circle.brown {stroke: rgb(211.65, 104.55, 30.6); fill: none; }
circle {stroke: rgb(0, 0, 0); }
line.red {stroke: rgb(255, 0, 255); stroke-width: 0.383571; }
line.green {stroke: rgb(0, 255, 0); stroke-width: 0.383571; }
line.blue {stroke: rgb(0, 0, 255); stroke-width: 0.383571; }
line.black {stroke: rgb(0, 0, 0); stroke-width: 0.383571; }
line.gray {stroke: rgb(204, 204, 204); stroke-width: 0.383571; }
line.brown {stroke: rgb(211.65, 104.55, 30.6); stroke-width: 0.383571; }
line {stroke: rgb(0, 0, 0); }
text.numbering-label {fill: rgb(204, 204, 204);}
line.numbering-line {stroke: rgb(204, 204, 204); stroke-width: 0.191786;}
line.predicted {stroke: rgb(0, 0, 0); stroke-dasharray: 2}
text.background {fill: rgb(255, 255, 255);
.template {visibility:hidden}
]]>
</style></g>
<g><title>0 (position.label in template: 0.5')</title><text x="134.541" y="219.214" class="green" >5'</text></g>
<g><title>1 (position.label in template: 1.N)</title><text x="142.108" y="219.214" class="green" >A</text></g>
<g><title>2 (position.label in template: 2.N)</title><text x="149.675" y="219.214" class="green" >U</text></g>
<g><title>3 (position.label in template: 3.N)</title><text x="157.242" y="219.214" class="green" >C</text></g>
<g><title>4 (position.label in template: 6.N)</title><text x="164.563" y="217.3" class="green" >C</text></g>
<g><line x1="166.609" y1="216.993" x2="174.757" y2="216.993" class="black" /></g>
<g><title>5 (position.label in template: 7.Y)</title><text x="164.623" y="209.53" class="green" >C</text></g>
<g><line x1="166.669" y1="209.223" x2="174.607" y2="209.223" class="black" /></g>
<g><title>6 (position.label in template: 8.N)</title><text x="164.563" y="202.18" class="green" >C</text></g>
<g><line x1="166.609" y1="201.873" x2="174.757" y2="201.873" class="black" /></g>
<g><title>7 (position.label in template: 9.G)</title><text x="164.203" y="194.41" class="green" >G</text></g>
<g><line x1="166.249" y1="194.103" x2="174.817" y2="194.103" class="black" /></g>
<g><title>8 (position.label in template: 10.N)</title><text x="164.563" y="187.06" class="green" >C</text></g>
<g><line x1="166.609" y1="186.753" x2="174.757" y2="186.753" class="black" /></g>
<g><title>9 (position.label in template: 11.N)</title><text x="164.563" y="179.5" class="green" >A</text></g>
<g><line x1="166.609" y1="179.193" x2="174.757" y2="179.193" class="black" /></g>
<g><title>10 (position.label in template: 12.R)</title><text x="157.809" y="175.721" class="green" >A</text></g>
<g><title>10 (inserted)</title><text x="154.422" y="181.737" class="numbering-label sequential" >10</text></g>
<g><line x1="156.906" y1="177.325" x2="155.286" y2="180.203" class="numbering-line sequential" /></g>
<g><title>11 (position.label in template: 13.R)</title><text x="151.075" y="171.906" class="green" >C</text></g>
<g><title>12 (position.label in template: 14.U)</title><text x="144.36" y="168.057" class="blue" >U</text></g>
<g><title>13 (position.label in template: 15.Y)</title><text x="137.666" y="164.172" class="green" >C</text></g>
<g><title>14 (position.label in template: 16.C)</title><text x="130.992" y="160.253" class="blue" >C</text></g>
<g><title>15 (position.label in template: 17.R)</title><text x="124.339" y="156.299" class="green" >A</text></g>
<g><title>16 (position.label in template: 18.N)</title><text x="117.706" y="152.311" class="green" >U</text></g>
<g><title>17 (position.label in template: 19.U)</title><text x="111.094" y="148.287" class="blue" >U</text></g>
<g><title>18 (position.label in template: 21.N)</title><text x="104.503" y="144.23" class="green" >C</text></g>
<g><line x1="103.836" y1="141.989" x2="101.18" y2="134.287" class="black" /></g>
<g><title>19 (position.label in template: 22.R)</title><text x="97.2032" y="146.48" class="green" >A</text></g>
<g><line x1="96.5679" y1="144.229" x2="94.0585" y2="136.548" class="black" /></g>
<g><title>20 (position.label in template: 23.N)</title><text x="90.2032" y="149.15" class="green" >G</text></g>
<g><line x1="89.5362" y1="146.909" x2="86.8801" y2="139.207" class="black" /></g>
<g><title>20 (inserted)</title><text x="92.5605" y="155.639" class="numbering-label sequential" >20</text></g>
<g><line x1="90.8318" y1="150.881" x2="92.0031" y2="154.105" class="numbering-line sequential" /></g>
<g><title>21 (position.label in template: 24.N)</title><text x="83.0532" y="151.62" class="green" >U</text></g>
<g><line x1="82.3883" y1="149.379" x2="79.7381" y2="141.668" class="black" /></g>
<g><title>22 (position.label in template: 25.N)</title><text x="75.9132" y="154.08" class="green" >U</text></g>
<g><line x1="75.2462" y1="151.839" x2="72.5901" y2="144.137" class="black" /></g>
<g><title>23 (position.label in template: 26.N)</title><text x="68.7632" y="156.54" class="green" >C</text></g>
<g><line x1="68.0962" y1="154.299" x2="65.4401" y2="146.597" class="black" /></g>
<g><title>24 (position.label in template: 27.N)</title><text x="64.4577" y="161.617" class="green" >G</text></g>
<g><title>25 (position.label in template: 28.N)</title><text x="57.8916" y="162.714" class="green" >A</text></g>
<g><title>26 (position.label in template: 29.N)</title><text x="52.1703" y="159.31" class="green" >A</text></g>
<g><title>27 (position.label in template: 30.R)</title><text x="50" y="153.017" class="green" >A</text></g>
<g><title>28 (position.label in template: 31.N)</title><text x="52.4072" y="146.81" class="green" >U</text></g>
<g><title>29 (inserted)</title><text x="58.2532" y="143.626" class="red" >U</text></g>
<g><title>30 (position.label in template: 32.N)</title><text x="64.7732" y="144.97" class="green" >G</text></g>
<g><title>30 (inserted)</title><text x="64.2115" y="138.089" class="numbering-label sequential" >30</text></g>
<g><line x1="64.6234" y1="143.135" x2="64.3367" y2="139.623" class="numbering-line sequential" /></g>
<g><title>31 (position.label in template: 33.N)</title><text x="71.9232" y="142.51" class="green" >A</text></g>
<g><title>32 (position.label in template: 34.N)</title><text x="79.0732" y="140.04" class="green" >A</text></g>
<g><title>33 (position.label in template: 35.N)</title><text x="86.2132" y="137.58" class="green" >C</text></g>
<g><title>34 (position.label in template: 36.Y)</title><text x="93.4232" y="134.91" class="green" >U</text></g>
<g><title>35 (position.label in template: 37.N)</title><text x="100.513" y="132.66" class="green" >G</text></g>
<g><title>36 (position.label in template: 39.U)</title><text x="104.158" y="126.138" class="black" >U</text></g>
<g><title>37 (position.label in template: 40.C)</title><text x="105.954" y="119.195" class="black" >C</text></g>
<g><title>38 (position.label in template: 41.A)</title><text x="105.956" y="111.742" class="black" >A</text></g>
<g><title>39 (position.label in template: 42.Y)</title><text x="106.843" y="104.331" class="green" >U</text></g>
<g><title>40 (position.label in template: 43.N)</title><text x="108.469" y="97.0506" class="green" >U</text></g>
<g><title>41 (position.label in template: 44.C)</title><text x="110.858" y="89.9783" class="black" >C</text></g>
<g><title>42 (position.label in template: 45.A)</title><text x="114.047" y="83.2497" class="black" >A</text></g>
<g><title>43 (position.label in template: 46.A)</title><text x="118.132" y="77.0029" class="black" >A</text></g>
<g><title>44 (position.label in template: 47.C)</title><text x="122.782" y="71.1648" class="black" >C</text></g>
<g><title>45 (position.label in template: 48.C)</title><text x="128.048" y="65.8869" class="black" >C</text></g>
<g><title>46 (position.label in template: 49.C)</title><text x="133.948" y="61.323" class="black" >C</text></g>
<g><title>47 (position.label in template: 50.C)</title><text x="140.335" y="57.4671" class="black" >C</text></g>
<g><title>48 (position.label in template: 51.A)</title><text x="147.129" y="54.389" class="black" >A</text></g>
<g><title>49 (position.label in template: 52.A)</title><text x="154.238" y="52.12" class="black" >A</text></g>
<g><title>50 (position.label in template: 53.A)</title><text x="161.55" y="50.6343" class="black" >A</text></g>
<g><title>50 (inserted)</title><text x="160.568" y="43.8003" class="numbering-label sequential" >50</text></g>
<g><line x1="161.288" y1="48.8119" x2="160.788" y2="45.3346" class="numbering-line sequential" /></g>
<g><title>51 (position.label in template: 54.A)</title><text x="168.985" y="50" class="black" >A</text></g>
<g><title>52 (position.label in template: 55.N)</title><text x="176.436" y="50.2799" class="green" >A</text></g>
<g><title>53 (position.label in template: 56.Y)</title><text x="183.809" y="51.4716" class="green" >U</text></g>
<g><title>54 (position.label in template: 57.N)</title><text x="191.036" y="53.2866" class="green" >C</text></g>
<g><title>55 (position.label in template: 58.U)</title><text x="197.931" y="56.1563" class="black" >U</text></g>
<g><title>56 (position.label in template: 59.A)</title><text x="204.552" y="59.599" class="black" >A</text></g>
<g><title>57 (position.label in template: 60.N)</title><text x="210.704" y="63.8121" class="green" >G</text></g>
<g><title>58 (position.label in template: 61.N)</title><text x="216.205" y="68.8614" class="green" >U</text></g>
<g><title>59 (position.label in template: 62.N)</title><text x="221.209" y="74.4001" class="green" >A</text></g>
<g><title>60 (position.label in template: 63.N)</title><text x="225.543" y="80.4784" class="green" >A</text></g>
<g><title>61 (position.label in template: 64.N)</title><text x="229.144" y="87.0177" class="green" >A</text></g>
<g><title>62 (position.label in template: 65.N)</title><text x="231.97" y="93.9279" class="green" >A</text></g>
<g><title>63 (position.label in template: 66.R)</title><text x="233.975" y="101.118" class="green" >A</text></g>
<g><title>64 (position.label in template: 67.N)</title><text x="235.04" y="108.51" class="green" >A</text></g>
<g><title>65 (position.label in template: 68.A)</title><text x="235.481" y="115.963" class="green" >U</text></g>
<g><title>66 (position.label in template: 69.N)</title><text x="234.955" y="123.411" class="green" >A</text></g>
<g><title>67 (position.label in template: 70.Y)</title><text x="233.544" y="130.744" class="green" >U</text></g>
<g><title>68 (position.label in template: 71.N)</title><text x="231.285" y="137.862" class="green" >U</text></g>
<g><title>69 (position.label in template: 72.Y)</title><text x="228.268" y="144.694" class="green" >G</text></g>
<g><title>70 (position.label in template: 73.U)</title><text x="224.393" y="151.077" class="green" >C</text></g>
<g><title>71 (position.label in template: 74.U)</title><text x="219.752" y="156.931" class="green" >C</text></g>
<g><title>72 (position.label in template: 75.N)</title><text x="214.581" y="162.324" class="green" >G</text></g>
<g><title>73 (inserted)</title><text x="208.98" y="167.266" class="red" >A</text></g>
<g><title>74 (position.label in template: 76.R)</title><text x="202.573" y="171.11" class="green" >A</text></g>
<g><line x1="200.725" y1="171.681" x2="193.411" y2="175.155" class="black" /></g>
<g><title>75 (position.label in template: 77.Y)</title><text x="205.883" y="178.01" class="green" >A</text></g>
<g><line x1="204.028" y1="178.566" x2="196.518" y2="182.06" class="black" /></g>
<g><title>76 (position.label in template: 78.Y)</title><text x="208.983" y="184.9" class="green" >C</text></g>
<g><line x1="207.106" y1="185.407" x2="199.28" y2="188.799" class="black" /></g>
<g><title>77 (position.label in template: 79.N)</title><text x="212.023" y="192.01" class="green" >U</text></g>
<g><line x1="210.157" y1="192.541" x2="202.729" y2="195.875" class="black" /></g>
<g><title>78 (position.label in template: 80.N)</title><text x="217.673" y="197.02" class="green" >U</text></g>
<g><title>79 (position.label in template: 81.N)</title><text x="217.673" y="204.58" class="green" >U</text></g>
<g><line x1="215.808" y1="205.112" x2="208.379" y2="208.454" class="black" /></g>
<g><title>80 (position.label in template: 82.U)</title><text x="220.623" y="211.27" class="green" >C</text></g>
<g><line x1="218.775" y1="211.841" x2="211.461" y2="215.315" class="black" /></g>
<g><title>81 (position.label in template: 83.N)</title><text x="223.873" y="218.38" class="green" >A</text></g>
<g><line x1="222.007" y1="218.911" x2="214.579" y2="222.245" class="black" /></g>
<g><title>82 (position.label in template: 84.R)</title><text x="230.793" y="220.84" class="green" >G</text></g>
<g><title>83 (position.label in template: 85.N)</title><text x="235.333" y="227.21" class="green" >G</text></g>
<g><title>84 (position.label in template: 86.Y)</title><text x="235.623" y="234.56" class="green" >C</text></g>
<g><title>85 (position.label in template: 87.N)</title><text x="231.553" y="241.17" class="green" >A</text></g>
<g><title>86 (position.label in template: 88.Y)</title><text x="224.713" y="244.06" class="green" >U</text></g>
<g><title>87 (position.label in template: 89.N)</title><text x="217.203" y="243.02" class="green" >U</text></g>
<g><title>88 (position.label in template: 90.N)</title><text x="211.703" y="237.83" class="green" >A</text></g>
<g><title>89 (position.label in template: 91.N)</title><text x="210.013" y="230.46" class="green" >A</text></g>
<g><title>90 (position.label in template: 92.N)</title><text x="212.713" y="223.39" class="green" >G</text></g>
<g><title>91 (position.label in template: 93.N)</title><text x="209.613" y="216.5" class="green" >G</text></g>
<g><title>92 (position.label in template: 94.N)</title><text x="206.513" y="209.6" class="green" >A</text></g>
<g><title>93 (position.label in template: 95.N)</title><text x="200.863" y="204.58" class="green" >A</text></g>
<g><title>94 (position.label in template: 96.N)</title><text x="200.863" y="197.02" class="green" >A</text></g>
<g><title>95 (position.label in template: 97.G)</title><text x="197.403" y="189.92" class="green" >G</text></g>
<g><title>96 (position.label in template: 98.N)</title><text x="194.663" y="183.23" class="green" >U</text></g>
<g><title>97 (position.label in template: 99.N)</title><text x="191.563" y="176.34" class="green" >A</text></g>
<g><title>98 (position.label in template: 100.R)</title><text x="184.123" y="178.14" class="green" >A</text></g>
<g><title>99 (position.label in template: 101.N)</title><text x="176.803" y="179.5" class="green" >A</text></g>
<g><title>100 (position.label in template: 103.N)</title><text x="176.803" y="187.06" class="green" >G</text></g>
<g><title>100 (inserted)</title><text x="183.707" y="187.032" class="numbering-label sequential" >100</text></g>
<g><line x1="178.644" y1="187.053" x2="180.946" y2="187.043" class="numbering-line sequential" /></g>
<g><title>101 (position.label in template: 104.Y)</title><text x="176.863" y="194.41" class="green" >C</text></g>
<g><title>102 (position.label in template: 105.N)</title><text x="176.803" y="202.18" class="green" >G</text></g>
<g><title>103 (position.label in template: 106.R)</title><text x="176.653" y="209.53" class="green" >G</text></g>
<g><title>104 (position.label in template: 107.N)</title><text x="176.803" y="217.3" class="green" >G</text></g>
<g><title>105 (position.label in template: 108.R)</title><text x="182.003" y="222.44" class="green" >A</text></g>
<g><title>106 (position.label in template: 109.Y)</title><text x="189.763" y="222.44" class="green" >U</text></g>
<g><title>107 (position.label in template: 110.N)</title><text x="197.273" y="222.65" class="green" >C</text></g>
<g><title>108 (position.label in template: 112.R)</title><text x="210.023" y="217.09" class="green" >A</text></g>
<g><line x1="212.069" y1="216.783" x2="220.217" y2="216.783" class="black" /></g>
<g><title>109 (position.label in template: 113.R)</title><text x="210.023" y="209.53" class="green" >G</text></g>
<g><line x1="212.069" y1="209.223" x2="220.427" y2="209.223" class="black" /></g>
<g><title>110 (position.label in template: 114.R)</title><text x="210.023" y="201.97" class="green" >A</text></g>
<g><line x1="212.069" y1="201.663" x2="220.427" y2="201.663" class="black" /></g>
<g><title>111 (position.label in template: 115.R)</title><text x="210.023" y="194.41" class="green" >U</text></g>
<g><line x1="212.069" y1="194.103" x2="220.427" y2="194.103" class="black" /></g>
<g><title>112 (position.label in template: 116.N)</title><text x="210.173" y="187.06" class="green" >A</text></g>
<g><line x1="212.219" y1="186.753" x2="220.367" y2="186.753" class="black" /></g>
<g><title>113 (position.label in template: 117.N)</title><text x="203.623" y="183.28" class="green" >C</text></g>
<g><title>114 (position.label in template: 118.N)</title><text x="210.173" y="179.5" class="green" >U</text></g>
<g><line x1="212.219" y1="179.193" x2="220.367" y2="179.193" class="black" /></g>
<g><title>115 (position.label in template: 119.Y)</title><text x="210.233" y="171.73" class="green" >C</text></g>
<g><line x1="212.279" y1="171.423" x2="220.217" y2="171.423" class="black" /></g>
<g><title>116 (position.label in template: 120.N)</title><text x="210.173" y="164.38" class="green" >C</text></g>
<g><line x1="212.219" y1="164.073" x2="220.367" y2="164.073" class="black" /></g>
<g><title>117 (position.label in template: 121.N)</title><text x="202.613" y="164.38" class="green" >G</text></g>
<g><title>118 (position.label in template: 122.N)</title><text x="202.613" y="156.82" class="green" >A</text></g>
<g><title>119 (position.label in template: 123.N)</title><text x="210.173" y="156.82" class="green" >C</text></g>
<g><line x1="212.219" y1="156.513" x2="220.367" y2="156.513" class="black" /></g>
<g><title>120 (position.label in template: 124.N)</title><text x="210.173" y="149.26" class="green" >U</text></g>
<g><line x1="212.219" y1="148.953" x2="220.367" y2="148.953" class="black" /></g>
<g><title>121 (position.label in template: 125.U)</title><text x="210.023" y="141.49" class="black" >U</text></g>
<g><line x1="212.069" y1="141.183" x2="220.427" y2="141.183" class="black" /></g>
<g><title>122 (position.label in template: 126.N)</title><text x="207.073" y="134.81" class="green" >G</text></g>
<g><title>123 (position.label in template: 127.N)</title><text x="210.173" y="127.91" class="green" >U</text></g>
<g><line x1="212.219" y1="127.603" x2="220.367" y2="127.603" class="black" /></g>
<g><title>124 (position.label in template: 128.G)</title><text x="209.813" y="120.14" class="black" >G</text></g>
<g><line x1="211.859" y1="119.833" x2="220.217" y2="119.833" class="black" /></g>
<g><title>125 (position.label in template: 129.N)</title><text x="210.173" y="112.79" class="green" >A</text></g>
<g><line x1="212.219" y1="112.483" x2="220.367" y2="112.483" class="black" /></g>
<g><title>126 (position.label in template: 130.N)</title><text x="210.173" y="105.23" class="green" >U</text></g>
<g><line x1="212.219" y1="104.923" x2="220.367" y2="104.923" class="black" /></g>
<g><title>127 (position.label in template: 131.A)</title><text x="210.233" y="97.46" class="black" >A</text></g>
<g><line x1="212.279" y1="97.1531" x2="220.217" y2="97.1531" class="black" /></g>
<g><title>128 (position.label in template: 132.N)</title><text x="206.116" y="92.1367" class="green" >C</text></g>
<g><title>129 (position.label in template: 133.N)</title><text x="205.972" y="85.4085" class="green" >A</text></g>
<g><title>130 (position.label in template: 134.N)</title><text x="209.857" y="79.9136" class="green" >C</text></g>
<g><title>131 (position.label in template: 135.N)</title><text x="216.248" y="77.8066" class="green" >U</text></g>
<g><title>132 (position.label in template: 136.U)</title><text x="222.64" y="79.9136" class="green" >A</text></g>
<g><title>133 (position.label in template: 137.A)</title><text x="226.525" y="85.4085" class="green" >U</text></g>
<g><title>134 (position.label in template: 138.U)</title><text x="226.38" y="92.1367" class="blue" >U</text></g>
<g><title>135 (position.label in template: 140.U)</title><text x="222.263" y="97.46" class="black" >U</text></g>
<g><title>136 (position.label in template: 141.N)</title><text x="222.413" y="105.23" class="green" >A</text></g>
<g><title>137 (position.label in template: 142.N)</title><text x="222.413" y="112.79" class="green" >U</text></g>
<g><title>138 (position.label in template: 143.C)</title><text x="222.263" y="120.14" class="black" >C</text></g>
<g><title>139 (position.label in template: 144.N)</title><text x="222.413" y="127.91" class="green" >A</text></g>
<g><title>140 (position.label in template: 145.N)</title><text x="225.513" y="134.81" class="green" >C</text></g>
<g><title>141 (position.label in template: 146.A)</title><text x="222.473" y="141.49" class="black" >A</text></g>
<g><title>142 (position.label in template: 147.N)</title><text x="222.413" y="149.26" class="green" >U</text></g>
<g><title>143 (position.label in template: 148.N)</title><text x="222.413" y="156.82" class="green" >G</text></g>
<g><title>144 (position.label in template: 149.N)</title><text x="222.413" y="164.38" class="green" >G</text></g>
<g><title>145 (position.label in template: 150.R)</title><text x="222.263" y="171.73" class="green" >G</text></g>
<g><title>146 (position.label in template: 151.N)</title><text x="222.413" y="179.5" class="green" >A</text></g>
<g><title>147 (position.label in template: 152.N)</title><text x="222.413" y="187.06" class="green" >G</text></g>
<g><title>148 (position.label in template: 153.Y)</title><text x="222.473" y="194.41" class="green" >A</text></g>
<g><title>149 (position.label in template: 154.Y)</title><text x="222.473" y="201.97" class="green" >U</text></g>
<g><title>150 (position.label in template: 155.Y)</title><text x="222.473" y="209.53" class="green" >C</text></g>
<g><title>150 (inserted)</title><text x="229.377" y="209.626" class="numbering-label sequential" >150</text></g>
<g><line x1="224.314" y1="209.556" x2="226.615" y2="209.588" class="numbering-line sequential" /></g>
<g><title>151 (position.label in template: 156.U)</title><text x="222.263" y="217.09" class="green" >U</text></g>
<g><title>152 (position.label in template: 157.N)</title><text x="227.585" y="222.47" class="green" >A</text></g>
<g><title>153 (position.label in template: 158.Y)</title><text x="235.149" y="222.261" class="green" >U</text></g>
<g><title>154 (position.label in template: 159.Y)</title><text x="242.716" y="222.261" class="green" >U</text></g>
<g><title>155 (position.label in template: 160.U)</title><text x="250.283" y="222.261" class="black" >U</text></g>
<g><title>156 (position.label in template: 161.Y)</title><text x="257.85" y="222.261" class="green" >U</text></g>
<g><title>157 (position.label in template: 162.U)</title><text x="265.417" y="222.261" class="black" >U</text></g>
<g><title>158 (position.label in template: 166.3')</title><text x="272.984" y="222.261" class="green" >3'</text></g>
<g><line x1="136.587" y1="218.907" x2="140.062" y2="218.907" class="gray" /></g>
<g><line x1="144.154" y1="218.907" x2="147.629" y2="218.907" class="gray" /></g>
<g><line x1="151.721" y1="218.907" x2="155.197" y2="218.907" class="gray" /></g>
<g><line x1="159.221" y1="218.39" x2="162.584" y2="217.511" class="gray" /></g>
<g><line x1="164.579" y1="214.947" x2="164.607" y2="211.269" class="gray" /></g>
<g><line x1="164.606" y1="207.177" x2="164.58" y2="203.919" class="gray" /></g>
<g><line x1="164.468" y1="199.83" x2="164.298" y2="196.147" class="gray" /></g>
<g><line x1="164.303" y1="192.06" x2="164.463" y2="188.796" class="gray" /></g>
<g><line x1="164.563" y1="184.707" x2="164.563" y2="181.239" class="gray" /></g>
<g><line x1="162.778" y1="178.194" x2="159.594" y2="176.413" class="gray" /></g>
<g><line x1="156.029" y1="174.406" x2="152.855" y2="172.608" class="gray" /></g>
<g><line x1="149.3" y1="170.582" x2="146.135" y2="168.767" class="gray" /></g>
<g><line x1="142.591" y1="166.723" x2="139.435" y2="164.892" class="gray" /></g>
<g><line x1="135.902" y1="162.83" x2="132.756" y2="160.982" class="gray" /></g>
<g><line x1="129.233" y1="158.901" x2="126.097" y2="157.037" class="gray" /></g>
<g><line x1="122.585" y1="154.938" x2="119.459" y2="153.058" class="gray" /></g>
<g><line x1="115.958" y1="150.94" x2="112.842" y2="149.044" class="gray" /></g>
<g><line x1="109.352" y1="146.908" x2="106.245" y2="144.996" class="gray" /></g>
<g><line x1="102.548" y1="144.526" x2="99.1581" y2="145.571" class="gray" /></g>
<g><line x1="95.2918" y1="146.902" x2="92.1146" y2="148.114" class="gray" /></g>
<g><line x1="88.2696" y1="149.511" x2="84.9868" y2="150.645" class="gray" /></g>
<g><line x1="81.119" y1="151.98" x2="77.8473" y2="153.107" class="gray" /></g>
<g><line x1="73.9788" y1="154.439" x2="70.6976" y2="155.568" class="gray" /></g>
<g><line x1="67.4401" y1="157.793" x2="65.7808" y2="159.75" class="gray" /></g>
<g><line x1="62.44" y1="161.647" x2="59.9093" y2="162.07" class="gray" /></g>
<g><line x1="56.1334" y1="161.361" x2="53.9284" y2="160.049" class="gray" /></g>
<g><line x1="51.5034" y1="157.069" x2="50.6669" y2="154.644" class="gray" /></g>
<g><line x1="50.7397" y1="150.803" x2="51.6674" y2="148.411" class="gray" /></g>
<g><line x1="54.2037" y1="145.525" x2="56.4567" y2="144.298" class="gray" /></g>
<g><line x1="60.2568" y1="143.732" x2="62.7696" y2="144.25" class="gray" /></g>
<g><line x1="66.7076" y1="143.998" x2="69.9888" y2="142.869" class="gray" /></g>
<g><line x1="73.8568" y1="141.535" x2="77.1396" y2="140.401" class="gray" /></g>
<g><line x1="81.0073" y1="139.067" x2="84.279" y2="137.94" class="gray" /></g>
<g><line x1="88.1316" y1="136.563" x2="91.5048" y2="135.314" class="gray" /></g>
<g><line x1="95.3731" y1="133.984" x2="98.5633" y2="132.972" class="gray" /></g>
<g><line x1="101.511" y1="130.567" x2="103.16" y2="127.617" class="gray" /></g>
<g><line x1="104.671" y1="123.85" x2="105.442" y2="120.868" class="gray" /></g>
<g><line x1="105.955" y1="116.842" x2="105.956" y2="113.481" class="gray" /></g>
<g><line x1="106.199" y1="109.404" x2="106.6" y2="106.055" class="gray" /></g>
<g><line x1="107.289" y1="102.027" x2="108.023" y2="98.7403" class="gray" /></g>
<g><line x1="109.123" y1="94.8056" x2="110.203" y2="91.6096" class="gray" /></g>
<g><line x1="111.734" y1="87.8229" x2="113.17" y2="84.7915" class="gray" /></g>
<g><line x1="115.166" y1="81.2307" x2="117.012" y2="78.4081" class="gray" /></g>
<g><line x1="119.406" y1="75.0959" x2="121.507" y2="72.4581" class="gray" /></g>
<g><line x1="124.227" y1="69.4097" x2="126.603" y2="67.0283" class="gray" /></g>
<g><line x1="129.666" y1="64.3285" x2="132.33" y2="62.2677" class="gray" /></g>
<g><line x1="135.7" y1="59.9588" x2="138.584" y2="58.2175" class="gray" /></g>
<g><line x1="142.199" y1="56.3159" x2="145.265" y2="54.9264" class="gray" /></g>
<g><line x1="149.077" y1="53.4602" x2="152.289" y2="52.4351" class="gray" /></g>
<g><line x1="156.243" y1="51.4058" x2="159.545" y2="50.7348" class="gray" /></g>
<g><line x1="163.588" y1="50.1535" x2="166.946" y2="49.867" class="gray" /></g>
<g><line x1="171.029" y1="49.7699" x2="174.392" y2="49.8962" class="gray" /></g>
<g><line x1="178.455" y1="50.2994" x2="181.79" y2="50.8384" class="gray" /></g>
<g><line x1="185.794" y1="51.663" x2="189.052" y2="52.4814" class="gray" /></g>
<g><line x1="192.925" y1="53.7658" x2="196.043" y2="55.0634" class="gray" /></g>
<g><line x1="199.746" y1="56.7932" x2="202.737" y2="58.3484" class="gray" /></g>
<g><line x1="206.24" y1="60.4481" x2="209.016" y2="62.3494" class="gray" /></g>
<g><line x1="212.211" y1="64.8885" x2="214.698" y2="67.1712" class="gray" /></g>
<g><line x1="217.577" y1="70.0725" x2="219.838" y2="72.5753" class="gray" /></g>
<g><line x1="222.397" y1="75.759" x2="224.355" y2="78.5058" class="gray" /></g>
<g><line x1="226.529" y1="81.9635" x2="228.157" y2="84.9189" class="gray" /></g>
<g><line x1="229.918" y1="88.6043" x2="231.196" y2="91.7276" class="gray" /></g>
<g><line x1="232.52" y1="95.5916" x2="233.426" y2="98.8407" class="gray" /></g>
<g><line x1="234.267" y1="102.836" x2="234.748" y2="106.179" class="gray" /></g>
<g><line x1="235.161" y1="110.246" x2="235.36" y2="113.614" class="gray" /></g>
<g><line x1="235.337" y1="117.697" x2="235.1" y2="121.063" class="gray" /></g>
<g><line x1="234.569" y1="125.112" x2="233.93" y2="128.428" class="gray" /></g>
<g><line x1="232.925" y1="132.387" x2="231.904" y2="135.605" class="gray" /></g>
<g><line x1="230.459" y1="139.426" x2="229.095" y2="142.516" class="gray" /></g>
<g><line x1="227.207" y1="146.136" x2="225.455" y2="149.022" class="gray" /></g>
<g><line x1="223.122" y1="152.374" x2="221.023" y2="155.021" class="gray" /></g>
<g><line x1="218.336" y1="158.101" x2="215.997" y2="160.54" class="gray" /></g>
<g><line x1="213.047" y1="163.37" x2="210.514" y2="165.606" class="gray" /></g>
<g><line x1="207.226" y1="168.012" x2="204.327" y2="169.751" class="gray" /></g>
<g><line x1="203.458" y1="172.648" x2="204.998" y2="175.859" class="gray" /></g>
<g><line x1="206.723" y1="179.569" x2="208.144" y2="182.728" class="gray" /></g>
<g><line x1="209.787" y1="186.474" x2="211.219" y2="189.822" class="gray" /></g>
<g><line x1="213.554" y1="193.06" x2="216.143" y2="195.356" class="gray" /></g>
<g><line x1="217.673" y1="198.759" x2="217.673" y2="202.227" class="gray" /></g>
<g><line x1="218.499" y1="206.145" x2="219.798" y2="209.091" class="gray" /></g>
<g><line x1="221.474" y1="212.824" x2="223.023" y2="216.213" class="gray" /></g>
<g><line x1="225.801" y1="218.758" x2="228.866" y2="219.848" class="gray" /></g>
<g><line x1="231.98" y1="222.199" x2="234.146" y2="225.237" class="gray" /></g>
<g><line x1="235.414" y1="228.947" x2="235.543" y2="232.209" class="gray" /></g>
<g><line x1="234.551" y1="235.995" x2="232.626" y2="239.121" class="gray" /></g>
<g><line x1="229.669" y1="241.659" x2="226.598" y2="242.957" class="gray" /></g>
<g><line x1="222.687" y1="243.473" x2="219.23" y2="242.994" class="gray" /></g>
<g><line x1="215.715" y1="241.309" x2="213.191" y2="238.927" class="gray" /></g>
<g><line x1="211.246" y1="235.529" x2="210.47" y2="232.147" class="gray" /></g>
<g><line x1="210.743" y1="228.242" x2="211.983" y2="224.994" class="gray" /></g>
<g><line x1="211.874" y1="221.218" x2="210.453" y2="218.059" class="gray" /></g>
<g><line x1="208.775" y1="214.327" x2="207.352" y2="211.159" class="gray" /></g>
<g><line x1="204.984" y1="207.934" x2="202.392" y2="205.632" class="gray" /></g>
<g><line x1="200.863" y1="202.227" x2="200.863" y2="198.759" class="gray" /></g>
<g><line x1="199.967" y1="194.874" x2="198.299" y2="191.452" class="gray" /></g>
<g><line x1="196.628" y1="187.72" x2="195.439" y2="184.816" class="gray" /></g>
<g><line x1="193.824" y1="181.058" x2="192.403" y2="177.899" class="gray" /></g>
<g><line x1="189.575" y1="176.514" x2="186.112" y2="177.352" class="gray" /></g>
<g><line x1="182.112" y1="178.207" x2="178.814" y2="178.819" class="gray" /></g>
<g><line x1="176.803" y1="181.239" x2="176.803" y2="184.707" class="gray" /></g>
<g><line x1="176.82" y1="188.799" x2="176.846" y2="192.057" class="gray" /></g>
<g><line x1="176.847" y1="196.149" x2="176.819" y2="199.827" class="gray" /></g>
<g><line x1="176.761" y1="203.918" x2="176.695" y2="207.178" class="gray" /></g>
<g><line x1="176.693" y1="211.268" x2="176.764" y2="214.948" class="gray" /></g>
<g><line x1="178.258" y1="218.431" x2="180.548" y2="220.695" class="gray" /></g>
<g><line x1="184.049" y1="222.133" x2="187.717" y2="222.133" class="gray" /></g>
<g><line x1="191.808" y1="222.19" x2="195.228" y2="222.286" class="gray" /></g>
<g><line x1="199.148" y1="221.525" x2="208.148" y2="217.601" class="gray" /></g>
<g><line x1="210.023" y1="214.737" x2="210.023" y2="211.269" class="gray" /></g>
<g><line x1="210.023" y1="207.177" x2="210.023" y2="203.709" class="gray" /></g>
<g><line x1="210.023" y1="199.617" x2="210.023" y2="196.149" class="gray" /></g>
<g><line x1="210.065" y1="192.058" x2="210.131" y2="188.798" class="gray" /></g>
<g><line x1="208.401" y1="185.731" x2="205.395" y2="183.996" class="gray" /></g>
<g><line x1="205.395" y1="181.951" x2="208.401" y2="180.216" class="gray" /></g>
<g><line x1="210.189" y1="177.147" x2="210.217" y2="173.469" class="gray" /></g>
<g><line x1="210.216" y1="169.377" x2="210.19" y2="166.119" class="gray" /></g>
<g><line x1="208.127" y1="164.073" x2="204.659" y2="164.073" class="gray" /></g>
<g><line x1="202.613" y1="162.027" x2="202.613" y2="158.559" class="gray" /></g>
<g><line x1="204.659" y1="156.513" x2="208.127" y2="156.513" class="gray" /></g>
<g><line x1="210.173" y1="154.467" x2="210.173" y2="150.999" class="gray" /></g>
<g><line x1="210.134" y1="146.908" x2="210.063" y2="143.228" class="gray" /></g>
<g><line x1="209.197" y1="139.312" x2="207.9" y2="136.374" class="gray" /></g>
<g><line x1="207.912" y1="132.637" x2="209.335" y2="129.469" class="gray" /></g>
<g><line x1="210.078" y1="125.56" x2="209.908" y2="121.877" class="gray" /></g>
<g><line x1="209.913" y1="117.79" x2="210.073" y2="114.526" class="gray" /></g>
<g><line x1="210.173" y1="110.437" x2="210.173" y2="106.969" class="gray" /></g>
<g><line x1="210.189" y1="102.877" x2="210.217" y2="99.1988" class="gray" /></g>
<g><line x1="208.982" y1="95.535" x2="207.367" y2="93.4481" class="gray" /></g>
<g><line x1="206.072" y1="89.7846" x2="206.015" y2="87.1469" class="gray" /></g>
<g><line x1="207.153" y1="83.4313" x2="208.676" y2="81.2771" class="gray" /></g>
<g><line x1="211.8" y1="78.9663" x2="214.305" y2="78.1402" class="gray" /></g>
<g><line x1="218.191" y1="78.1402" x2="220.697" y2="78.9663" class="gray" /></g>
<g><line x1="223.821" y1="81.2771" x2="225.344" y2="83.4313" class="gray" /></g>
<g><line x1="226.481" y1="87.1469" x2="226.424" y2="89.7846" class="gray" /></g>
<g><line x1="225.129" y1="93.4481" x2="223.515" y2="95.535" class="gray" /></g>
<g><line x1="222.303" y1="99.1985" x2="222.374" y2="102.878" class="gray" /></g>
<g><line x1="222.413" y1="106.969" x2="222.413" y2="110.437" class="gray" /></g>
<g><line x1="222.371" y1="114.528" x2="222.305" y2="117.788" class="gray" /></g>
<g><line x1="222.303" y1="121.878" x2="222.374" y2="125.558" class="gray" /></g>
<g><line x1="223.252" y1="129.469" x2="224.675" y2="132.637" class="gray" /></g>
<g><line x1="224.666" y1="136.365" x2="223.321" y2="139.321" class="gray" /></g>
<g><line x1="222.457" y1="143.229" x2="222.429" y2="146.907" class="gray" /></g>
<g><line x1="222.413" y1="150.999" x2="222.413" y2="154.467" class="gray" /></g>
<g><line x1="222.413" y1="158.559" x2="222.413" y2="162.027" class="gray" /></g>
<g><line x1="222.371" y1="166.118" x2="222.305" y2="169.378" class="gray" /></g>
<g><line x1="222.303" y1="173.468" x2="222.374" y2="177.148" class="gray" /></g>
<g><line x1="222.413" y1="181.239" x2="222.413" y2="184.707" class="gray" /></g>
<g><line x1="222.43" y1="188.799" x2="222.456" y2="192.057" class="gray" /></g>
<g><line x1="222.473" y1="196.149" x2="222.473" y2="199.617" class="gray" /></g>
<g><line x1="222.473" y1="203.709" x2="222.473" y2="207.177" class="gray" /></g>
<g><line x1="222.416" y1="211.268" x2="222.32" y2="214.738" class="gray" /></g>
<g><line x1="223.702" y1="218.238" x2="226.146" y2="220.708" class="gray" /></g>
<g><line x1="229.63" y1="222.106" x2="233.104" y2="222.011" class="gray" /></g>
<g><line x1="237.195" y1="221.954" x2="240.67" y2="221.954" class="gray" /></g>
<g><line x1="244.762" y1="221.954" x2="248.237" y2="221.954" class="gray" /></g>
<g><line x1="252.329" y1="221.954" x2="255.805" y2="221.954" class="gray" /></g>
<g><line x1="259.896" y1="221.954" x2="263.372" y2="221.954" class="gray" /></g>
<g><line x1="267.463" y1="221.954" x2="270.939" y2="221.954" class="gray" /></g>
</svg>
