<svg
	xmlns="http://www.w3.org/2000/svg"
	width="203.154"
	height="335.599"
	style="font-size: 2.569749px; font-weight: bold; font-family: Helvetica; " >
<g><style type="text/css" >
<!-- create color definitions -->
<![CDATA[
text.red {fill: rgb(255, 0, 255); }
text.green {fill: rgb(0, 255, 0); }
text.blue {fill: rgb(0, 0, 255); }
text.black {fill: rgb(0, 0, 0); }
text.gray {fill: rgb(204, 204, 204); }
text.brown {fill: rgb(211.65, 104.55, 30.6); }
text {fill: rgb(0, 0, 0); text-anchor: middle; alignment-baseline: middle; }
circle.red {stroke: rgb(255, 0, 255); fill: none; }
circle.green {stroke: rgb(0, 255, 0); fill: none; }
circle.blue {stroke: rgb(0, 0, 255); fill: none; }
circle.black {stroke: rgb(0, 0, 0); fill: none; }
circle.gray {stroke: rgb(204, 204, 204); fill: none; }
circle.brown {stroke: rgb(211.65, 104.55, 30.6); fill: none; }
circle {stroke: rgb(0, 0, 0); }
line.red {stroke: rgb(255, 0, 255); stroke-width: 0.321219; }
line.green {stroke: rgb(0, 255, 0); stroke-width: 0.321219; }
line.blue {stroke: rgb(0, 0, 255); stroke-width: 0.321219; }
line.black {stroke: rgb(0, 0, 0); stroke-width: 0.321219; }
line.gray {stroke: rgb(204, 204, 204); stroke-width: 0.321219; }
line.brown {stroke: rgb(211.65, 104.55, 30.6); stroke-width: 0.321219; }
line {stroke: rgb(0, 0, 0); }
text.numbering-label {fill: rgb(204, 204, 204);}
line.numbering-line {stroke: rgb(204, 204, 204); stroke-width: 0.160609;}
line.predicted {stroke: rgb(0, 0, 0); stroke-dasharray: 2}
text.background {fill: rgb(255, 255, 255);
.template {visibility:hidden}
]]>
</style></g>
<g><title>0 (position.label in template: 0.5')</title><text x="156.53" y="76.7065" class="green" >5'</text></g>
<g><title>1 (inserted)</title><text x="153.154" y="74.925" class="red" >U</text></g>
<g><title>2 (inserted)</title><text x="149.778" y="73.1435" class="red" >U</text></g>
<g><title>3 (inserted)</title><text x="146.402" y="71.3619" class="red" >U</text></g>
<g><title>4 (inserted)</title><text x="143.026" y="69.5804" class="red" >U</text></g>
<g><title>5 (inserted)</title><text x="139.65" y="67.7989" class="red" >U</text></g>
<g><title>6 (position.label in template: 2028.G)</title><text x="136.275" y="66.0174" class="black" >G</text></g>
<g><title>7 (position.label in template: 2029.A)</title><text x="132.899" y="64.2359" class="black" >A</text></g>
<g><title>8 (position.label in template: 2030.U)</title><text x="130.332" y="61.4104" class="black" >U</text></g>
<g><title>9 (position.label in template: 2031.U)</title><text x="129.942" y="57.6133" class="black" >U</text></g>
<g><title>10 (position.label in template: 2032.A)</title><text x="129.864" y="53.797" class="black" >A</text></g>
<g><title>10 (inserted)</title><text x="135.641" y="54.0345" class="numbering-label sequential" >10</text></g>
<g><title>10 (inserted)</title><text x="135.641" y="54.0345" class="numbering-label template" >2032</text></g>
<g><line x1="131.405" y1="53.8603" x2="134.099" y2="53.9711" class="numbering-line sequential" /></g>
<g><line x1="131.405" y1="53.8603" x2="134.099" y2="53.9711" class="numbering-line template" /></g>
<g><title>11 (position.label in template: 2033.C)</title><text x="130.255" y="50" class="black" >C</text></g>
<g><title>12 (inserted)</title><text x="126.495" y="50.6592" class="red" >G</text></g>
<g><title>13 (inserted)</title><text x="122.736" y="51.3184" class="red" >U</text></g>
<g><title>14 (position.label in template: 2036.C)</title><text x="118.976" y="51.9777" class="black" >C</text></g>
<g><title>15 (position.label in template: 2037.C)</title><text x="115.206" y="52.576" class="black" >C</text></g>
<g><title>16 (position.label in template: 2038.C)</title><text x="111.413" y="52.1459" class="black" >C</text></g>
<g><title>17 (inserted)</title><text x="107.596" y="52.1169" class="red" >U</text></g>
<g><title>18 (inserted)</title><text x="103.779" y="52.0879" class="red" >G</text></g>
<g><title>19 (inserted)</title><text x="99.9624" y="52.0589" class="red" >C</text></g>
<g><title>20 (inserted)</title><text x="96.1455" y="52.03" class="red" >C</text></g>
<g><title>20 (inserted)</title><text x="96.1894" y="46.2482" class="numbering-label sequential" >20</text></g>
<g><line x1="96.1572" y1="50.4881" x2="96.1796" y2="47.5331" class="numbering-line sequential" /></g>
<g><title>21 (inserted)</title><text x="92.3285" y="52.001" class="red" >C</text></g>
<g><title>22 (inserted)</title><text x="88.5115" y="51.972" class="red" >U</text></g>
<g><title>23 (inserted)</title><text x="84.6945" y="51.943" class="red" >U</text></g>
<g><title>24 (inserted)</title><text x="80.8775" y="51.914" class="red" >U</text></g>
<g><title>25 (inserted)</title><text x="77.0606" y="51.885" class="red" >G</text></g>
<g><title>26 (inserted)</title><text x="73.2436" y="51.856" class="red" >U</text></g>
<g><title>27 (position.label in template: 2049.A)</title><text x="69.4266" y="51.827" class="black" >A</text></g>
<g><title>28 (inserted)</title><text x="65.766" y="52.9088" class="red" >C</text></g>
<g><title>29 (inserted)</title><text x="62.1055" y="53.9907" class="red" >A</text></g>
<g><title>30 (position.label in template: 2052.C)</title><text x="58.4449" y="55.0726" class="black" >C</text></g>
<g><title>30 (inserted)</title><text x="53.8115" y="51.614" class="numbering-label sequential" >30</text></g>
<g><title>30 (inserted)</title><text x="53.8115" y="51.614" class="numbering-label template" >2052</text></g>
<g><line x1="57.2093" y1="54.1503" x2="55.3533" y2="52.7649" class="numbering-line sequential" /></g>
<g><line x1="57.2093" y1="54.1503" x2="55.3533" y2="52.7649" class="numbering-line template" /></g>
<g><title>31 (position.label in template: 2053.A)</title><text x="58.4487" y="58.8897" class="black" >A</text></g>
<g><title>32 (position.label in template: 2054.C)</title><text x="58.4525" y="62.7067" class="black" >C</text></g>
<g><title>33 (position.label in template: 2055.C)</title><text x="58.4572" y="66.5238" class="black" >C</text></g>
<g><title>34 (position.label in template: 2056.G)</title><text x="58.461" y="70.3409" class="black" >G</text></g>
<g><line x1="60.1742" y1="70.0839" x2="66.1468" y2="70.0839" class="black" /></g>
<g><title>35 (position.label in template: 2057.C)</title><text x="57.052" y="74.0999" class="black" >C</text></g>
<g><title>36 (position.label in template: 2058.C)</title><text x="58.396" y="78.4929" class="black" >C</text></g>
<g><title>37 (position.label in template: 2059.C)</title><text x="58.438" y="83.0879" class="black" >C</text></g>
<g><line x1="60.1512" y1="82.8309" x2="66.1248" y2="82.8309" class="black" /></g>
<g><title>38 (position.label in template: 2060.G)</title><text x="58.438" y="86.8469" class="black" >G</text></g>
<g><line x1="60.1512" y1="86.5899" x2="66.1248" y2="86.5899" class="black" /></g>
<g><title>39 (position.label in template: 2061.U)</title><text x="56.475" y="90.5359" class="black" >U</text></g>
<g><title>40 (position.label in template: 2062.C)</title><text x="58.44" y="94.3659" class="black" >C</text></g>
<g><line x1="60.1532" y1="94.1089" x2="66.1268" y2="94.1089" class="black" /></g>
<g><title>41 (position.label in template: 2063.G)</title><text x="56.039" y="99.2669" class="black" >G</text></g>
<g><title>42 (position.label in template: 2064.U)</title><text x="55.939" y="103.988" class="green" >C</text></g>
<g><title>43 (position.label in template: 2065.U)</title><text x="58.438" y="107.995" class="black" >U</text></g>
<g><line x1="60.1512" y1="107.738" x2="66.1248" y2="107.738" class="black" /></g>
<g><title>44 (position.label in template: 2066.G)</title><text x="58.438" y="111.755" class="black" >G</text></g>
<g><line x1="60.1512" y1="111.498" x2="66.1248" y2="111.498" class="black" /></g>
<g><title>45 (position.label in template: 2067.U)</title><text x="58.438" y="115.514" class="green" >C</text></g>
<g><line x1="60.1512" y1="115.257" x2="66.1248" y2="115.257" class="black" /></g>
<g><title>46 (position.label in template: 2068.U)</title><text x="58.438" y="119.273" class="green" >C</text></g>
<g><line x1="60.1512" y1="119.016" x2="66.1248" y2="119.016" class="black" /></g>
<g><title>47 (position.label in template: 2069.U)</title><text x="57.028" y="123.033" class="green" >C</text></g>
<g><title>48 (position.label in template: 2070.C)</title><text x="58.438" y="126.793" class="green" >G</text></g>
<g><line x1="60.1512" y1="126.536" x2="66.1248" y2="126.536" class="black" /></g>
<g><title>49 (position.label in template: 2071.C)</title><text x="58.438" y="130.552" class="green" >G</text></g>
<g><line x1="60.1512" y1="130.295" x2="66.1248" y2="130.295" class="black" /></g>
<g><title>50 (position.label in template: 2072.G)</title><text x="57.028" y="134.311" class="black" >G</text></g>
<g><title>50 (inserted)</title><text x="51.3451" y="133.245" class="numbering-label sequential" >50</text></g>
<g><title>50 (inserted)</title><text x="51.3451" y="133.245" class="numbering-label template" >2072</text></g>
<g><line x1="55.5126" y1="134.027" x2="52.8869" y2="133.534" class="numbering-line sequential" /></g>
<g><line x1="55.5126" y1="134.027" x2="52.8869" y2="133.534" class="numbering-line template" /></g>
<g><title>51 (position.label in template: 2073.A)</title><text x="57.028" y="138.072" class="green" >G</text></g>
<g><title>52 (position.label in template: 2074.U)</title><text x="58.438" y="141.831" class="green" >C</text></g>
<g><line x1="60.1512" y1="141.574" x2="66.1248" y2="141.574" class="black" /></g>
<g><title>53 (inserted)</title><text x="54.7204" y="143.163" class="red" >U</text></g>
<g><title>54 (inserted)</title><text x="54.0154" y="147.049" class="red" >G</text></g>
<g><title>55 (position.label in template: 2075.G)</title><text x="57.028" y="149.602" class="green" >A</text></g>
<g><line x1="58.7412" y1="149.345" x2="67.5348" y2="149.345" class="black" /></g>
<g><title>56 (position.label in template: 2076.A)</title><text x="57.028" y="153.361" class="green" >G</text></g>
<g><line x1="58.7412" y1="153.104" x2="67.5348" y2="153.104" class="black" /></g>
<g><title>57 (position.label in template: 2077.U)</title><text x="57.028" y="157.121" class="green" >C</text></g>
<g><line x1="58.7412" y1="156.864" x2="67.5348" y2="156.864" class="black" /></g>
<g><title>58 (position.label in template: 2078.G)</title><text x="57.028" y="160.88" class="green" >C</text></g>
<g><title>59 (position.label in template: 2079.G)</title><text x="58.438" y="164.64" class="green" >A</text></g>
<g><line x1="60.1512" y1="164.383" x2="66.1248" y2="164.383" class="black" /></g>
<g><title>60 (position.label in template: 2080.U)</title><text x="57.028" y="168.399" class="green" >U</text></g>
<g><line x1="58.7412" y1="168.142" x2="67.5348" y2="168.142" class="black" /></g>
<g><title>61 (position.label in template: 2081.G)</title><text x="57.028" y="172.159" class="green" >U</text></g>
<g><line x1="58.7412" y1="171.902" x2="67.5348" y2="171.902" class="black" /></g>
<g><title>62 (position.label in template: 2082.C)</title><text x="57.028" y="175.919" class="green" >U</text></g>
<g><title>63 (position.label in template: 2083.A)</title><text x="58.438" y="179.678" class="green" >C</text></g>
<g><line x1="60.1512" y1="179.421" x2="66.1248" y2="179.421" class="black" /></g>
<g><title>64 (position.label in template: 2085.U)</title><text x="57.3477" y="182.649" class="green" >G</text></g>
<g><title>65 (position.label in template: 2086.A)</title><text x="56.8329" y="185.772" class="blue" >A</text></g>
<g><title>66 (position.label in template: 2087.C)</title><text x="56.9117" y="188.936" class="green" >G</text></g>
<g><title>67 (position.label in template: 2088.A)</title><text x="57.5814" y="192.029" class="blue" >A</text></g>
<g><title>68 (position.label in template: 2089.G)</title><text x="58.8183" y="194.942" class="green" >A</text></g>
<g><line x1="60.5315" y1="194.685" x2="66.5031" y2="194.685" class="black" /></g>
<g><title>69 (position.label in template: 2090.G)</title><text x="58.8183" y="198.701" class="green" >A</text></g>
<g><line x1="60.5315" y1="198.444" x2="66.5031" y2="198.444" class="black" /></g>
<g><title>70 (position.label in template: 2091.U)</title><text x="58.8183" y="202.46" class="green" >U</text></g>
<g><line x1="60.5315" y1="202.203" x2="66.5031" y2="202.203" class="black" /></g>
<g><title>71 (position.label in template: 2092.G)</title><text x="58.8183" y="206.221" class="green" >U</text></g>
<g><line x1="60.5315" y1="205.964" x2="66.5031" y2="205.964" class="black" /></g>
<g><title>72 (position.label in template: 2093.A)</title><text x="57.4083" y="209.98" class="green" >U</text></g>
<g><title>73 (position.label in template: 2094.U)</title><text x="57.4083" y="213.739" class="green" >G</text></g>
<g><title>74 (position.label in template: 2095.C)</title><text x="58.8183" y="217.499" class="green" >G</text></g>
<g><line x1="60.5315" y1="217.242" x2="66.5031" y2="217.242" class="black" /></g>
<g><title>75 (position.label in template: 2096.G)</title><text x="57.4083" y="221.259" class="black" >G</text></g>
<g><title>76 (position.label in template: 2097.G)</title><text x="57.4083" y="225.018" class="black" >G</text></g>
<g><title>77 (position.label in template: 2098.A)</title><text x="57.4083" y="228.778" class="black" >A</text></g>
<g><title>78 (position.label in template: 2099.C)</title><text x="58.0353" y="231.989" class="black" >C</text></g>
<g><title>79 (position.label in template: 2100.A)</title><text x="57.0313" y="235.798" class="green" >C</text></g>
<g><line x1="58.7445" y1="235.541" x2="67.7871" y2="235.541" class="black" /></g>
<g><title>80 (position.label in template: 2101.G)</title><text x="58.5893" y="239.955" class="green" >G</text></g>
<g><line x1="60.3025" y1="239.698" x2="66.2281" y2="239.698" class="black" /></g>
<g><title>81 (position.label in template: 2102.G)</title><text x="58.5893" y="244.111" class="green" >U</text></g>
<g><line x1="60.3025" y1="243.854" x2="66.2281" y2="243.854" class="black" /></g>
<g><title>82 (position.label in template: 2103.C)</title><text x="58.5893" y="248.267" class="green" >U</text></g>
<g><line x1="60.3025" y1="248.01" x2="66.2281" y2="248.01" class="black" /></g>
<g><title>83 (position.label in template: 2104.G)</title><text x="58.5893" y="252.423" class="green" >G</text></g>
<g><line x1="60.3025" y1="252.166" x2="66.2281" y2="252.166" class="black" /></g>
<g><title>84 (position.label in template: 2105.G)</title><text x="58.5893" y="256.579" class="green" >A</text></g>
<g><line x1="60.3025" y1="256.322" x2="66.2281" y2="256.322" class="black" /></g>
<g><title>85 (position.label in template: 2106.U)</title><text x="57.0313" y="260.736" class="black" >U</text></g>
<g><line x1="58.7445" y1="260.479" x2="67.7871" y2="260.479" class="black" /></g>
<g><title>86 (position.label in template: 2107.G)</title><text x="54.0429" y="262.908" class="green" >U</text></g>
<g><title>87 (position.label in template: 2108.U)</title><text x="51.769" y="265.82" class="blue" >U</text></g>
<g><title>88 (inserted)</title><text x="50.3856" y="269.245" class="red" >A</text></g>
<g><title>89 (inserted)</title><text x="50" y="272.92" class="red" >A</text></g>
<g><title>90 (inserted)</title><text x="50.642" y="276.558" class="red" >U</text></g>
<g><title>91 (inserted)</title><text x="52.2618" y="279.878" class="red" >U</text></g>
<g><title>92 (inserted)</title><text x="54.7341" y="282.624" class="red" >U</text></g>
<g><title>93 (inserted)</title><text x="57.8673" y="284.581" class="red" >U</text></g>
<g><title>94 (inserted)</title><text x="61.4186" y="285.599" class="red" >U</text></g>
<g><title>95 (inserted)</title><text x="65.113" y="285.599" class="red" >C</text></g>
<g><title>96 (inserted)</title><text x="68.6644" y="284.581" class="red" >U</text></g>
<g><title>97 (inserted)</title><text x="71.7975" y="282.624" class="red" >A</text></g>
<g><title>98 (inserted)</title><text x="74.2698" y="279.878" class="red" >A</text></g>
<g><title>99 (inserted)</title><text x="75.8896" y="276.558" class="red" >A</text></g>
<g><title>100 (inserted)</title><text x="76.5316" y="272.92" class="red" >U</text></g>
<g><title>100 (inserted)</title><text x="82.31" y="273.122" class="numbering-label sequential" >100</text></g>
<g><line x1="78.0725" y1="272.974" x2="79.9972" y2="273.041" class="numbering-line sequential" /></g>
<g><title>101 (inserted)</title><text x="76.146" y="269.245" class="red" >U</text></g>
<g><title>102 (inserted)</title><text x="74.7626" y="265.82" class="red" >A</text></g>
<g><title>103 (inserted)</title><text x="72.4887" y="262.908" class="red" >C</text></g>
<g><title>104 (position.label in template: 2113.U)</title><text x="69.5003" y="260.736" class="black" >U</text></g>
<g><title>105 (position.label in template: 2114.C)</title><text x="67.9413" y="256.579" class="green" >U</text></g>
<g><title>106 (position.label in template: 2115.C)</title><text x="67.9413" y="252.423" class="green" >U</text></g>
<g><title>107 (position.label in template: 2116.G)</title><text x="67.9413" y="248.267" class="green" >G</text></g>
<g><title>108 (position.label in template: 2117.C)</title><text x="67.9413" y="244.111" class="green" >A</text></g>
<g><title>109 (position.label in template: 2118.C)</title><text x="67.9413" y="239.955" class="green" >U</text></g>
<g><title>110 (position.label in template: 2119.C)</title><text x="69.5003" y="235.798" class="green" >G</text></g>
<g><title>111 (position.label in template: 2120.G)</title><text x="68.9603" y="231.989" class="black" >G</text></g>
<g><title>112 (position.label in template: 2121.A)</title><text x="69.6263" y="228.778" class="black" >A</text></g>
<g><title>113 (position.label in template: 2122.A)</title><text x="69.6263" y="225.018" class="black" >A</text></g>
<g><title>114 (position.label in template: 2123.A)</title><text x="69.6263" y="221.259" class="black" >A</text></g>
<g><title>115 (position.label in template: 2124.G)</title><text x="68.2163" y="217.499" class="green" >C</text></g>
<g><title>116 (position.label in template: 2125.U)</title><text x="69.6263" y="213.739" class="green" >C</text></g>
<g><title>117 (position.label in template: 2126.U)</title><text x="69.6263" y="209.98" class="green" >A</text></g>
<g><title>118 (position.label in template: 2127.C)</title><text x="68.2163" y="206.221" class="green" >A</text></g>
<g><title>119 (position.label in template: 2128.A)</title><text x="68.2163" y="202.46" class="green" >U</text></g>
<g><title>120 (position.label in template: 2129.C)</title><text x="68.2163" y="198.701" class="green" >U</text></g>
<g><title>121 (position.label in template: 2130.C)</title><text x="68.2163" y="194.942" class="green" >U</text></g>
<g><title>122 (position.label in template: 2131.G)</title><text x="69.307" y="191.971" class="green" >A</text></g>
<g><title>123 (position.label in template: 2132.A)</title><text x="69.8222" y="188.848" class="blue" >A</text></g>
<g><title>124 (position.label in template: 2133.U)</title><text x="69.7438" y="185.685" class="blue" >U</text></g>
<g><title>125 (position.label in template: 2134.A)</title><text x="69.0745" y="182.591" class="green" >C</text></g>
<g><title>126 (position.label in template: 2135.U)</title><text x="67.838" y="179.678" class="green" >G</text></g>
<g><title>127 (position.label in template: 2136.U)</title><text x="69.248" y="175.919" class="green" >C</text></g>
<g><title>128 (position.label in template: 2137.U)</title><text x="69.248" y="172.159" class="green" >A</text></g>
<g><title>129 (position.label in template: 2138.C)</title><text x="69.248" y="168.399" class="green" >G</text></g>
<g><title>130 (position.label in template: 2139.U)</title><text x="67.838" y="164.64" class="green" >U</text></g>
<g><title>131 (position.label in template: 2140.U)</title><text x="69.248" y="160.88" class="green" >G</text></g>
<g><title>132 (position.label in template: 2141.C)</title><text x="69.248" y="157.121" class="green" >G</text></g>
<g><title>133 (position.label in template: 2142.A)</title><text x="69.248" y="153.361" class="green" >C</text></g>
<g><title>134 (position.label in template: 2143.A)</title><text x="69.248" y="149.602" class="green" >U</text></g>
<g><title>135 (position.label in template: 2144.U)</title><text x="69.0459" y="145.625" class="blue" >U</text></g>
<g><title>136 (position.label in template: 2145.A)</title><text x="67.838" y="141.831" class="green" >G</text></g>
<g><title>137 (position.label in template: 2146.G)</title><text x="69.248" y="138.072" class="green" >A</text></g>
<g><title>138 (position.label in template: 2147.A)</title><text x="69.248" y="134.311" class="black" >A</text></g>
<g><title>139 (position.label in template: 2148.G)</title><text x="67.838" y="130.552" class="green" >C</text></g>
<g><title>140 (position.label in template: 2149.G)</title><text x="67.838" y="126.793" class="green" >C</text></g>
<g><title>141 (position.label in template: 2150.A)</title><text x="69.248" y="123.033" class="green" >G</text></g>
<g><title>142 (position.label in template: 2151.A)</title><text x="67.838" y="119.273" class="green" >G</text></g>
<g><title>143 (position.label in template: 2152.G)</title><text x="67.838" y="115.514" class="green" >G</text></g>
<g><title>144 (position.label in template: 2153.C)</title><text x="67.838" y="111.755" class="black" >C</text></g>
<g><title>145 (position.label in template: 2154.A)</title><text x="67.838" y="107.995" class="black" >A</text></g>
<g><title>146 (position.label in template: 2155.A)</title><text x="70.019" y="104.896" class="black" >A</text></g>
<g><title>147 (position.label in template: 2156.A)</title><text x="70.826" y="101.193" class="black" >A</text></g>
<g><title>148 (position.label in template: 2157.A)</title><text x="70.131" y="97.4659" class="black" >A</text></g>
<g><title>149 (position.label in template: 2158.G)</title><text x="67.84" y="94.3659" class="black" >G</text></g>
<g><title>150 (position.label in template: 2159.U)</title><text x="69.717" y="90.6069" class="black" >U</text></g>
<g><title>150 (inserted)</title><text x="75.4989" y="90.6054" class="numbering-label sequential" >150</text></g>
<g><title>150 (inserted)</title><text x="75.4989" y="90.6054" class="numbering-label template" >2159</text></g>
<g><line x1="71.2589" y1="90.6065" x2="73.1862" y2="90.606" class="numbering-line sequential" /></g>
<g><line x1="71.2589" y1="90.6065" x2="73.1862" y2="90.606" class="numbering-line template" /></g>
<g><title>151 (position.label in template: 2160.C)</title><text x="67.838" y="86.8469" class="black" >C</text></g>
<g><title>152 (position.label in template: 2161.G)</title><text x="67.838" y="83.0879" class="black" >G</text></g>
<g><title>153 (position.label in template: 2162.U)</title><text x="71.029" y="80.9369" class="black" >U</text></g>
<g><title>154 (position.label in template: 2163.A)</title><text x="71.634" y="77.1359" class="black" >A</text></g>
<g><title>155 (position.label in template: 2164.A)</title><text x="69.27" y="74.0999" class="black" >A</text></g>
<g><title>156 (position.label in template: 2165.C)</title><text x="67.86" y="70.3409" class="black" >C</text></g>
<g><title>157 (position.label in template: 2166.A)</title><text x="69.8621" y="67.091" class="black" >A</text></g>
<g><title>158 (position.label in template: 2167.A)</title><text x="73.5189" y="65.9965" class="black" >A</text></g>
<g><title>159 (position.label in template: 2168.G)</title><text x="76.9774" y="67.6117" class="black" >G</text></g>
<g><title>160 (position.label in template: 2169.G)</title><text x="78.4837" y="71.119" class="black" >G</text></g>
<g><title>161 (position.label in template: 2170.U)</title><text x="78.924" y="74.9106" class="black" >U</text></g>
<g><title>162 (inserted)</title><text x="82.7411" y="74.9228" class="red" >A</text></g>
<g><title>163 (inserted)</title><text x="86.5581" y="74.935" class="red" >G</text></g>
<g><title>164 (inserted)</title><text x="90.3752" y="74.9472" class="red" >C</text></g>
<g><title>165 (inserted)</title><text x="94.1923" y="74.9594" class="red" >U</text></g>
<g><title>166 (inserted)</title><text x="98.0093" y="74.9716" class="red" >G</text></g>
<g><title>167 (inserted)</title><text x="101.826" y="74.9837" class="red" >U</text></g>
<g><title>168 (inserted)</title><text x="105.643" y="74.9959" class="red" >A</text></g>
<g><title>169 (inserted)</title><text x="109.461" y="75.0081" class="red" >G</text></g>
<g><title>170 (inserted)</title><text x="113.278" y="75.0203" class="red" >G</text></g>
<g><title>171 (position.label in template: 2180.U)</title><text x="117.095" y="75.0325" class="black" >U</text></g>
<g><title>172 (position.label in template: 2181.G)</title><text x="119.75" y="77.7744" class="black" >G</text></g>
<g><title>173 (position.label in template: 2182.A)</title><text x="119.75" y="81.5915" class="black" >A</text></g>
<g><title>174 (inserted)</title><text x="119.75" y="85.4085" class="red" >X</text></g>
<g><title>175 (inserted)</title><text x="119.75" y="89.2256" class="red" >X</text></g>
<g><title>176 (inserted)</title><text x="119.75" y="93.0427" class="red" >X</text></g>
<g><title>177 (inserted)</title><text x="119.75" y="96.8598" class="red" >X</text></g>
<g><title>178 (position.label in template: 2202.3')</title><text x="119.75" y="100.677" class="green" >3'</text></g>
<g><line x1="155.014" y1="75.65" x2="154.669" y2="75.4676" class="gray" /></g>
<g><line x1="151.639" y1="73.8684" x2="151.293" y2="73.6861" class="gray" /></g>
<g><line x1="148.263" y1="72.0869" x2="147.917" y2="71.9045" class="gray" /></g>
<g><line x1="144.887" y1="70.3054" x2="144.541" y2="70.123" class="gray" /></g>
<g><line x1="141.511" y1="68.5239" x2="141.165" y2="68.3415" class="gray" /></g>
<g><line x1="138.135" y1="66.7424" x2="137.79" y2="66.56" class="gray" /></g>
<g><line x1="134.759" y1="64.9608" x2="134.414" y2="64.7785" class="gray" /></g>
<g><line x1="131.747" y1="62.7108" x2="131.484" y2="62.4215" class="gray" /></g>
<g><line x1="130.157" y1="59.4492" x2="130.117" y2="59.0605" class="gray" /></g>
<g><line x1="129.907" y1="55.6435" x2="129.899" y2="55.2528" class="gray" /></g>
<g><line x1="130.04" y1="51.8359" x2="130.08" y2="51.4472" class="gray" /></g>
<g><line x1="128.568" y1="50.0389" x2="128.183" y2="50.1064" class="gray" /></g>
<g><line x1="124.808" y1="50.6981" x2="124.423" y2="50.7656" class="gray" /></g>
<g><line x1="121.048" y1="51.3573" x2="120.663" y2="51.4248" class="gray" /></g>
<g><line x1="117.284" y1="51.9893" x2="116.898" y2="52.0505" class="gray" /></g>
<g><line x1="113.504" y1="52.126" x2="113.116" y2="52.082" class="gray" /></g>
<g><line x1="109.7" y1="51.8759" x2="109.309" y2="51.873" class="gray" /></g>
<g><line x1="105.883" y1="51.8469" x2="105.493" y2="51.844" class="gray" /></g>
<g><line x1="102.066" y1="51.818" x2="101.676" y2="51.815" class="gray" /></g>
<g><line x1="98.2493" y1="51.789" x2="97.8586" y2="51.786" class="gray" /></g>
<g><line x1="94.4323" y1="51.76" x2="94.0416" y2="51.757" class="gray" /></g>
<g><line x1="90.6154" y1="51.731" x2="90.2246" y2="51.728" class="gray" /></g>
<g><line x1="86.7984" y1="51.702" x2="86.4076" y2="51.699" class="gray" /></g>
<g><line x1="82.9814" y1="51.673" x2="82.5907" y2="51.67" class="gray" /></g>
<g><line x1="79.1644" y1="51.644" x2="78.7737" y2="51.641" class="gray" /></g>
<g><line x1="75.3474" y1="51.615" x2="74.9567" y2="51.612" class="gray" /></g>
<g><line x1="71.5305" y1="51.586" x2="71.1397" y2="51.583" class="gray" /></g>
<g><line x1="67.7837" y1="52.0556" x2="67.409" y2="52.1663" class="gray" /></g>
<g><line x1="64.1231" y1="53.1374" x2="63.7484" y2="53.2482" class="gray" /></g>
<g><line x1="60.4626" y1="54.2193" x2="60.0878" y2="54.33" class="gray" /></g>
<g><line x1="58.4466" y1="56.5288" x2="58.447" y2="56.9195" class="gray" /></g>
<g><line x1="58.4504" y1="60.3458" x2="58.4508" y2="60.7366" class="gray" /></g>
<g><line x1="58.4546" y1="64.1629" x2="58.4551" y2="64.5537" class="gray" /></g>
<g><line x1="58.4589" y1="67.98" x2="58.4593" y2="68.3708" class="gray" /></g>
<g><line x1="57.8597" y1="71.6881" x2="57.6533" y2="72.2388" class="gray" /></g>
<g><line x1="57.5532" y1="75.4811" x2="57.8948" y2="76.5977" class="gray" /></g>
<g><line x1="58.4117" y1="79.949" x2="58.4223" y2="81.1178" class="gray" /></g>
<g><line x1="58.438" y1="84.5441" x2="58.438" y2="84.8768" class="gray" /></g>
<g><line x1="57.6332" y1="88.1023" x2="57.2798" y2="88.7666" class="gray" /></g>
<g><line x1="57.257" y1="91.8032" x2="57.658" y2="92.5847" class="gray" /></g>
<g><line x1="57.6863" y1="95.6474" x2="56.7927" y2="97.4715" class="gray" /></g>
<g><line x1="56.0027" y1="100.723" x2="55.9753" y2="102.018" class="gray" /></g>
<g><line x1="56.8456" y1="105.185" x2="57.5314" y2="106.284" class="gray" /></g>
<g><line x1="58.438" y1="109.451" x2="58.438" y2="109.785" class="gray" /></g>
<g><line x1="58.438" y1="113.211" x2="58.438" y2="113.544" class="gray" /></g>
<g><line x1="58.438" y1="116.97" x2="58.438" y2="117.303" class="gray" /></g>
<g><line x1="57.8365" y1="120.62" x2="57.6295" y2="121.172" class="gray" /></g>
<g><line x1="57.6295" y1="124.38" x2="57.8365" y2="124.932" class="gray" /></g>
<g><line x1="58.438" y1="128.249" x2="58.438" y2="128.582" class="gray" /></g>
<g><line x1="57.8363" y1="131.899" x2="57.6297" y2="132.45" class="gray" /></g>
<g><line x1="57.028" y1="135.767" x2="57.028" y2="136.102" class="gray" /></g>
<g><line x1="57.6297" y1="139.419" x2="57.8363" y2="139.97" class="gray" /></g>
<g><line x1="56.8253" y1="142.152" x2="56.3331" y2="142.328" class="gray" /></g>
<g><line x1="54.4146" y1="144.592" x2="54.3212" y2="145.106" class="gray" /></g>
<g><line x1="55.3223" y1="147.9" x2="55.7211" y2="148.238" class="gray" /></g>
<g><line x1="57.028" y1="151.058" x2="57.028" y2="151.391" class="gray" /></g>
<g><line x1="57.028" y1="154.817" x2="57.028" y2="155.151" class="gray" /></g>
<g><line x1="57.028" y1="158.577" x2="57.028" y2="158.91" class="gray" /></g>
<g><line x1="57.6295" y1="162.227" x2="57.8365" y2="162.779" class="gray" /></g>
<g><line x1="57.8363" y1="165.987" x2="57.6297" y2="166.538" class="gray" /></g>
<g><line x1="57.028" y1="169.855" x2="57.028" y2="170.189" class="gray" /></g>
<g><line x1="57.028" y1="173.615" x2="57.028" y2="173.949" class="gray" /></g>
<g><line x1="57.6297" y1="177.266" x2="57.8363" y2="177.817" class="gray" /></g>
<g><line x1="58.8183" y1="196.398" x2="58.8183" y2="196.731" class="gray" /></g>
<g><line x1="58.8183" y1="200.157" x2="58.8183" y2="200.49" class="gray" /></g>
<g><line x1="58.8183" y1="203.916" x2="58.8183" y2="204.251" class="gray" /></g>
<g><line x1="58.2166" y1="207.568" x2="58.01" y2="208.119" class="gray" /></g>
<g><line x1="57.4083" y1="211.436" x2="57.4083" y2="211.769" class="gray" /></g>
<g><line x1="58.0098" y1="215.086" x2="58.2168" y2="215.638" class="gray" /></g>
<g><line x1="58.2168" y1="218.846" x2="58.0098" y2="219.398" class="gray" /></g>
<g><line x1="57.4083" y1="222.715" x2="57.4083" y2="223.048" class="gray" /></g>
<g><line x1="57.4083" y1="226.474" x2="57.4083" y2="226.808" class="gray" /></g>
<g><line x1="57.5987" y1="233.389" x2="57.468" y2="233.884" class="gray" /></g>
<g><line x1="57.6326" y1="237.145" x2="57.9881" y2="238.094" class="gray" /></g>
<g><line x1="58.5893" y1="241.411" x2="58.5893" y2="242.141" class="gray" /></g>
<g><line x1="58.5893" y1="245.567" x2="58.5893" y2="246.297" class="gray" /></g>
<g><line x1="58.5893" y1="249.723" x2="58.5893" y2="250.453" class="gray" /></g>
<g><line x1="58.5893" y1="253.879" x2="58.5893" y2="254.609" class="gray" /></g>
<g><line x1="57.9881" y1="257.926" x2="57.6326" y2="258.875" class="gray" /></g>
<g><line x1="55.6456" y1="261.486" x2="55.4287" y2="261.644" class="gray" /></g>
<g><line x1="52.9885" y1="264.001" x2="52.8235" y2="264.213" class="gray" /></g>
<g><line x1="51.1275" y1="267.151" x2="51.0271" y2="267.4" class="gray" /></g>
<g><line x1="50.2068" y1="270.692" x2="50.1788" y2="270.959" class="gray" /></g>
<g><line x1="50.2977" y1="274.35" x2="50.3443" y2="274.614" class="gray" /></g>
<g><line x1="51.3931" y1="277.841" x2="51.5107" y2="278.082" class="gray" /></g>
<g><line x1="53.4083" y1="280.894" x2="53.5877" y2="281.094" class="gray" /></g>
<g><line x1="56.187" y1="283.274" x2="56.4144" y2="283.416" class="gray" /></g>
<g><line x1="59.5141" y1="284.796" x2="59.7718" y2="284.87" class="gray" /></g>
<g><line x1="63.1318" y1="285.342" x2="63.3999" y2="285.342" class="gray" /></g>
<g><line x1="66.7598" y1="284.87" x2="67.0176" y2="284.796" class="gray" /></g>
<g><line x1="70.1173" y1="283.416" x2="70.3446" y2="283.274" class="gray" /></g>
<g><line x1="72.944" y1="281.094" x2="73.1234" y2="280.894" class="gray" /></g>
<g><line x1="75.0209" y1="278.082" x2="75.1385" y2="277.841" class="gray" /></g>
<g><line x1="76.1873" y1="274.614" x2="76.2339" y2="274.35" class="gray" /></g>
<g><line x1="76.3528" y1="270.959" x2="76.3248" y2="270.692" class="gray" /></g>
<g><line x1="75.5045" y1="267.4" x2="75.4041" y2="267.151" class="gray" /></g>
<g><line x1="73.7082" y1="264.213" x2="73.5432" y2="264.001" class="gray" /></g>
<g><line x1="71.1029" y1="261.644" x2="70.8861" y2="261.486" class="gray" /></g>
<g><line x1="68.8987" y1="258.875" x2="68.5429" y2="257.926" class="gray" /></g>
<g><line x1="67.9413" y1="254.609" x2="67.9413" y2="253.879" class="gray" /></g>
<g><line x1="67.9413" y1="250.453" x2="67.9413" y2="249.723" class="gray" /></g>
<g><line x1="67.9413" y1="246.297" x2="67.9413" y2="245.567" class="gray" /></g>
<g><line x1="67.9413" y1="242.141" x2="67.9413" y2="241.411" class="gray" /></g>
<g><line x1="68.5429" y1="238.094" x2="68.8987" y2="237.145" class="gray" /></g>
<g><line x1="69.2598" y1="233.845" x2="69.2008" y2="233.428" class="gray" /></g>
<g><line x1="69.6263" y1="226.808" x2="69.6263" y2="226.474" class="gray" /></g>
<g><line x1="69.6263" y1="223.048" x2="69.6263" y2="222.715" class="gray" /></g>
<g><line x1="69.0248" y1="219.398" x2="68.8178" y2="218.846" class="gray" /></g>
<g><line x1="68.8178" y1="215.638" x2="69.0248" y2="215.086" class="gray" /></g>
<g><line x1="69.6263" y1="211.769" x2="69.6263" y2="211.436" class="gray" /></g>
<g><line x1="69.0246" y1="208.119" x2="68.818" y2="207.568" class="gray" /></g>
<g><line x1="68.2163" y1="204.251" x2="68.2163" y2="203.916" class="gray" /></g>
<g><line x1="68.2163" y1="200.49" x2="68.2163" y2="200.157" class="gray" /></g>
<g><line x1="68.2163" y1="196.731" x2="68.2163" y2="196.398" class="gray" /></g>
<g><line x1="68.4397" y1="177.817" x2="68.6463" y2="177.266" class="gray" /></g>
<g><line x1="69.248" y1="173.949" x2="69.248" y2="173.615" class="gray" /></g>
<g><line x1="69.248" y1="170.189" x2="69.248" y2="169.855" class="gray" /></g>
<g><line x1="68.6463" y1="166.538" x2="68.4397" y2="165.987" class="gray" /></g>
<g><line x1="68.4395" y1="162.779" x2="68.6465" y2="162.227" class="gray" /></g>
<g><line x1="69.248" y1="158.91" x2="69.248" y2="158.577" class="gray" /></g>
<g><line x1="69.248" y1="155.151" x2="69.248" y2="154.817" class="gray" /></g>
<g><line x1="69.248" y1="151.391" x2="69.248" y2="151.058" class="gray" /></g>
<g><line x1="69.1611" y1="147.634" x2="69.1329" y2="147.079" class="gray" /></g>
<g><line x1="68.5263" y1="143.736" x2="68.3577" y2="143.206" class="gray" /></g>
<g><line x1="68.4397" y1="139.97" x2="68.6463" y2="139.419" class="gray" /></g>
<g><line x1="69.248" y1="136.102" x2="69.248" y2="135.767" class="gray" /></g>
<g><line x1="68.6463" y1="132.45" x2="68.4397" y2="131.899" class="gray" /></g>
<g><line x1="67.838" y1="128.582" x2="67.838" y2="128.249" class="gray" /></g>
<g><line x1="68.4395" y1="124.932" x2="68.6465" y2="124.38" class="gray" /></g>
<g><line x1="68.6465" y1="121.172" x2="68.4395" y2="120.62" class="gray" /></g>
<g><line x1="67.838" y1="117.303" x2="67.838" y2="116.97" class="gray" /></g>
<g><line x1="67.838" y1="113.544" x2="67.838" y2="113.211" class="gray" /></g>
<g><line x1="67.838" y1="109.785" x2="67.838" y2="109.451" class="gray" /></g>
<g><line x1="68.824" y1="106.337" x2="69.033" y2="106.04" class="gray" /></g>
<g><line x1="70.3838" y1="102.965" x2="70.4612" y2="102.61" class="gray" /></g>
<g><line x1="70.512" y1="99.2518" x2="70.4451" y2="98.8931" class="gray" /></g>
<g><line x1="69.1128" y1="95.8312" x2="68.8582" y2="95.4867" class="gray" /></g>
<g><line x1="68.6053" y1="92.5762" x2="68.9517" y2="91.8826" class="gray" /></g>
<g><line x1="68.9512" y1="88.8175" x2="68.6038" y2="88.1224" class="gray" /></g>
<g><line x1="67.838" y1="84.8768" x2="67.838" y2="84.5441" class="gray" /></g>
<g><line x1="69.2586" y1="81.8734" x2="69.6084" y2="81.6375" class="gray" /></g>
<g><line x1="71.2983" y1="78.9881" x2="71.3647" y2="78.5708" class="gray" /></g>
<g><line x1="70.5815" y1="75.5272" x2="70.3225" y2="75.1946" class="gray" /></g>
<g><line x1="68.6683" y1="72.2389" x2="68.4617" y2="71.688" class="gray" /></g>
<g><line x1="68.7586" y1="68.6253" x2="68.9635" y2="68.2926" class="gray" /></g>
<g><line x1="71.5033" y1="66.3428" x2="71.8776" y2="66.2308" class="gray" /></g>
<g><line x1="75.0711" y1="66.4645" x2="75.4251" y2="66.6298" class="gray" /></g>
<g><line x1="77.6534" y1="68.9289" x2="77.8076" y2="69.2879" class="gray" /></g>
<g><line x1="78.6813" y1="72.5638" x2="78.7264" y2="72.9519" class="gray" /></g>
<g><line x1="80.6372" y1="74.6591" x2="81.0279" y2="74.6604" class="gray" /></g>
<g><line x1="84.4542" y1="74.6713" x2="84.845" y2="74.6726" class="gray" /></g>
<g><line x1="88.2713" y1="74.6835" x2="88.662" y2="74.6848" class="gray" /></g>
<g><line x1="92.0884" y1="74.6957" x2="92.4791" y2="74.6969" class="gray" /></g>
<g><line x1="95.9054" y1="74.7079" x2="96.2962" y2="74.7091" class="gray" /></g>
<g><line x1="99.7225" y1="74.7201" x2="100.113" y2="74.7213" class="gray" /></g>
<g><line x1="103.54" y1="74.7322" x2="103.93" y2="74.7335" class="gray" /></g>
<g><line x1="107.357" y1="74.7444" x2="107.747" y2="74.7457" class="gray" /></g>
<g><line x1="111.174" y1="74.7566" x2="111.564" y2="74.7579" class="gray" /></g>
<g><line x1="114.991" y1="74.7688" x2="115.382" y2="74.77" class="gray" /></g>
<g><line x1="118.287" y1="76.0061" x2="118.558" y2="76.2868" class="gray" /></g>
<g><line x1="119.75" y1="79.2306" x2="119.75" y2="79.6213" class="gray" /></g>
<g><line x1="119.75" y1="83.0477" x2="119.75" y2="83.4384" class="gray" /></g>
<g><line x1="119.75" y1="86.8647" x2="119.75" y2="87.2555" class="gray" /></g>
<g><line x1="119.75" y1="90.6818" x2="119.75" y2="91.0726" class="gray" /></g>
<g><line x1="119.75" y1="94.4989" x2="119.75" y2="94.8897" class="gray" /></g>
<g><line x1="119.75" y1="98.316" x2="119.75" y2="98.7068" class="gray" /></g>
</svg>
