<svg
	xmlns="http://www.w3.org/2000/svg"
	width="223.11"
	height="179.734"
	style="font-size: 1.737882px; font-weight: bold; font-family: Helvetica; " >
<g><style type="text/css" >
<!-- create color definitions -->
<![CDATA[
text.red {fill: rgb(255, 0, 255); }
text.green {fill: rgb(0, 255, 0); }
text.blue {fill: rgb(0, 0, 255); }
text.black {fill: rgb(0, 0, 0); }
text.gray {fill: rgb(204, 204, 204); }
text.brown {fill: rgb(211.65, 104.55, 30.6); }
text {fill: rgb(0, 0, 0); text-anchor: middle; alignment-baseline: middle; }
circle.red {stroke: rgb(255, 0, 255); fill: none; }
circle.green {stroke: rgb(0, 255, 0); fill: none; }
circle.blue {stroke: rgb(0, 0, 255); fill: none; }
circle.black {stroke: rgb(0, 0, 0); fill: none; }
circle.gray {stroke: rgb(204, 204, 204); fill: none; }
circle.brown {stroke: rgb(211.65, 104.55, 30.6); fill: none; }
circle {stroke: rgb(0, 0, 0); }
line.red {stroke: rgb(255, 0, 255); stroke-width: 0.217235; }
line.green {stroke: rgb(0, 255, 0); stroke-width: 0.217235; }
line.blue {stroke: rgb(0, 0, 255); stroke-width: 0.217235; }
line.black {stroke: rgb(0, 0, 0); stroke-width: 0.217235; }
line.gray {stroke: rgb(204, 204, 204); stroke-width: 0.217235; }
line.brown {stroke: rgb(211.65, 104.55, 30.6); stroke-width: 0.217235; }
line {stroke: rgb(0, 0, 0); }
text.numbering-label {fill: rgb(204, 204, 204);}
line.numbering-line {stroke: rgb(204, 204, 204); stroke-width: 0.108618;}
line.predicted {stroke: rgb(0, 0, 0); stroke-dasharray: 2}
text.background {fill: rgb(255, 255, 255);
.template {visibility:hidden}
]]>
</style></g>
<g><title>0 (position.label in template: 0.5')</title><text x="49.7483" y="47.5284" class="green" >5'</text></g>
<g><title>1 (inserted)</title><text x="50" y="50" class="red" >A</text></g>
<g><title>2 (inserted)</title><text x="50.2517" y="52.4716" class="red" >A</text></g>
<g><title>3 (inserted)</title><text x="50.5034" y="54.9433" class="red" >G</text></g>
<g><title>4 (inserted)</title><text x="50.7552" y="57.4149" class="red" >C</text></g>
<g><title>5 (inserted)</title><text x="51.0069" y="59.8866" class="red" >A</text></g>
<g><title>6 (inserted)</title><text x="51.2586" y="62.3582" class="red" >U</text></g>
<g><title>7 (inserted)</title><text x="51.5103" y="64.8298" class="red" >A</text></g>
<g><title>8 (inserted)</title><text x="51.762" y="67.3015" class="red" >A</text></g>
<g><title>9 (inserted)</title><text x="52.0137" y="69.7731" class="red" >A</text></g>
<g><title>10 (inserted)</title><text x="52.2655" y="72.2448" class="red" >U</text></g>
<g><title>10 (inserted)</title><text x="48.3754" y="72.6409" class="numbering-label sequential" >10</text></g>
<g><line x1="51.2281" y1="72.3504" x2="49.4181" y2="72.5348" class="numbering-line sequential" /></g>
<g><title>11 (inserted)</title><text x="52.5172" y="74.7164" class="red" >G</text></g>
<g><title>12 (inserted)</title><text x="52.7689" y="77.1881" class="red" >G</text></g>
<g><title>13 (position.label in template: 10.U)</title><text x="53.0206" y="79.6597" class="black" >U</text></g>
<g><title>14 (position.label in template: 11.G)</title><text x="53.2723" y="82.1313" class="black" >G</text></g>
<g><title>15 (position.label in template: 12.A)</title><text x="53.3939" y="84.6128" class="green" >G</text></g>
<g><title>16 (position.label in template: 13.A)</title><text x="53.3859" y="87.0972" class="black" >A</text></g>
<g><title>17 (position.label in template: 14.U)</title><text x="53.248" y="89.5778" class="black" >U</text></g>
<g><title>18 (inserted)</title><text x="53.6048" y="92.0365" class="red" >A</text></g>
<g><title>19 (inserted)</title><text x="53.9615" y="94.4952" class="red" >C</text></g>
<g><title>20 (inserted)</title><text x="54.3182" y="96.9538" class="red" >C</text></g>
<g><title>20 (inserted)</title><text x="50.4485" y="97.5153" class="numbering-label sequential" >20</text></g>
<g><line x1="53.2863" y1="97.1036" x2="51.4912" y2="97.364" class="numbering-line sequential" /></g>
<g><title>21 (position.label in template: 18.U)</title><text x="54.675" y="99.4125" class="black" >U</text></g>
<g><title>22 (position.label in template: 19.C)</title><text x="55.9716" y="101.532" class="black" >C</text></g>
<g><title>23 (inserted)</title><text x="58.0993" y="102.814" class="red" >G</text></g>
<g><title>24 (inserted)</title><text x="60.227" y="104.097" class="red" >G</text></g>
<g><title>25 (inserted)</title><text x="62.3547" y="105.38" class="red" >C</text></g>
<g><title>26 (inserted)</title><text x="64.4824" y="106.662" class="red" >U</text></g>
<g><title>27 (inserted)</title><text x="66.6101" y="107.945" class="red" >C</text></g>
<g><title>28 (inserted)</title><text x="68.7378" y="109.228" class="red" >C</text></g>
<g><title>29 (inserted)</title><text x="70.8655" y="110.51" class="red" >U</text></g>
<g><title>30 (inserted)</title><text x="72.9932" y="111.793" class="red" >A</text></g>
<g><title>30 (inserted)</title><text x="70.9744" y="115.142" class="numbering-label sequential" >30</text></g>
<g><line x1="72.4549" y1="112.686" x2="71.4983" y2="114.273" class="numbering-line sequential" /></g>
<g><title>31 (inserted)</title><text x="75.1209" y="113.076" class="red" >A</text></g>
<g><title>32 (inserted)</title><text x="77.2486" y="114.358" class="red" >A</text></g>
<g><title>33 (inserted)</title><text x="79.3763" y="115.641" class="red" >U</text></g>
<g><title>34 (position.label in template: 31.C)</title><text x="81.5041" y="116.924" class="black" >C</text></g>
<g><title>35 (position.label in template: 32.G)</title><text x="83.3934" y="115.311" class="black" >G</text></g>
<g><title>36 (position.label in template: 33.A)</title><text x="85.4563" y="113.926" class="black" >A</text></g>
<g><title>37 (position.label in template: 34.U)</title><text x="87.6648" y="112.788" class="black" >U</text></g>
<g><title>38 (position.label in template: 35.G)</title><text x="89.9897" y="111.912" class="black" >G</text></g>
<g><title>39 (position.label in template: 36.A)</title><text x="92.3999" y="111.309" class="black" >A</text></g>
<g><title>40 (position.label in template: 37.A)</title><text x="94.8635" y="110.989" class="black" >A</text></g>
<g><line x1="96.0221" y1="110.815" x2="104.471" y2="110.815" class="black" /></g>
<g><title>41 (position.label in template: 38.G)</title><text x="96.1055" y="108.504" class="black" >G</text></g>
<g><line x1="97.2641" y1="108.33" x2="103.229" y2="108.331" class="black" /></g>
<g><title>42 (position.label in template: 39.A)</title><text x="96.1055" y="106.02" class="black" >A</text></g>
<g><line x1="97.2641" y1="105.846" x2="103.229" y2="105.846" class="black" /></g>
<g><title>43 (position.label in template: 40.C)</title><text x="96.1065" y="103.535" class="black" >C</text></g>
<g><line x1="97.2651" y1="103.361" x2="103.229" y2="103.362" class="black" /></g>
<g><title>44 (position.label in template: 41.C)</title><text x="94.2395" y="102.12" class="black" >C</text></g>
<g><line x1="93.8432" y1="100.857" x2="91.8028" y2="95.2525" class="black" /></g>
<g><title>45 (position.label in template: 42.G)</title><text x="91.9045" y="102.969" class="black" >G</text></g>
<g><line x1="91.5082" y1="101.706" x2="89.4678" y2="96.1015" class="black" /></g>
<g><title>46 (position.label in template: 43.U)</title><text x="89.5695" y="103.819" class="black" >U</text></g>
<g><line x1="89.1733" y1="102.556" x2="87.1338" y2="96.9525" class="black" /></g>
<g><title>47 (position.label in template: 44.A)</title><text x="87.2355" y="104.669" class="black" >A</text></g>
<g><line x1="86.8392" y1="103.406" x2="84.7988" y2="97.8015" class="black" /></g>
<g><title>48 (position.label in template: 45.G)</title><text x="84.9005" y="105.519" class="black" >G</text></g>
<g><line x1="84.5043" y1="104.256" x2="82.4647" y2="98.6515" class="black" /></g>
<g><title>49 (position.label in template: 46.C)</title><text x="82.4165" y="105.507" class="black" >C</text></g>
<g><title>50 (position.label in template: 47.A)</title><text x="80.3855" y="104.078" class="black" >A</text></g>
<g><title>50 (inserted)</title><text x="77.2804" y="106.454" class="numbering-label sequential" >50</text></g>
<g><line x1="79.5575" y1="104.711" x2="78.4157" y2="105.585" class="numbering-line sequential" /></g>
<g><title>51 (position.label in template: 48.A)</title><text x="79.5355" y="101.743" class="black" >A</text></g>
<g><title>52 (position.label in template: 49.A)</title><text x="80.1735" y="99.3426" class="black" >A</text></g>
<g><title>53 (position.label in template: 50.C)</title><text x="82.0685" y="97.7366" class="black" >C</text></g>
<g><title>54 (position.label in template: 51.U)</title><text x="84.4025" y="96.8866" class="black" >U</text></g>
<g><title>55 (position.label in template: 52.G)</title><text x="86.7375" y="96.0376" class="black" >G</text></g>
<g><title>56 (position.label in template: 53.C)</title><text x="89.0715" y="95.1866" class="black" >C</text></g>
<g><title>57 (position.label in template: 54.G)</title><text x="91.4065" y="94.3376" class="black" >G</text></g>
<g><title>58 (position.label in template: 55.A)</title><text x="92.2935" y="91.0326" class="black" >A</text></g>
<g><title>59 (position.label in template: 56.U)</title><text x="94.3475" y="88.2956" class="black" >U</text></g>
<g><title>60 (position.label in template: 57.A)</title><text x="97.2725" y="86.5206" class="black" >A</text></g>
<g><title>61 (position.label in template: 58.A)</title><text x="100.648" y="85.9616" class="black" >A</text></g>
<g><title>62 (position.label in template: 59.U)</title><text x="103.99" y="86.7006" class="black" >U</text></g>
<g><title>63 (position.label in template: 60.U)</title><text x="106.815" y="88.6306" class="black" >U</text></g>
<g><line x1="107.211" y1="89.5455" x2="109.25" y2="95.15" class="black" /></g>
<g><title>64 (position.label in template: 61.C)</title><text x="109.15" y="87.7816" class="black" >C</text></g>
<g><line x1="109.546" y1="88.6965" x2="111.585" y2="94.3001" class="black" /></g>
<g><title>65 (position.label in template: 62.A)</title><text x="113.38" y="86.2036" class="black" >A</text></g>
<g><line x1="113.776" y1="87.1185" x2="115.816" y2="92.7231" class="black" /></g>
<g><title>66 (position.label in template: 63.C)</title><text x="115.714" y="85.3536" class="black" >C</text></g>
<g><line x1="116.11" y1="86.2685" x2="118.15" y2="91.8731" class="black" /></g>
<g><title>67 (position.label in template: 64.U)</title><text x="118.049" y="84.5036" class="black" >U</text></g>
<g><line x1="118.445" y1="85.4185" x2="120.485" y2="91.0231" class="black" /></g>
<g><title>68 (position.label in template: 65.U)</title><text x="118.537" y="82.0666" class="black" >U</text></g>
<g><title>69 (position.label in template: 66.G)</title><text x="119.606" y="79.8236" class="black" >G</text></g>
<g><title>70 (position.label in template: 67.A)</title><text x="121.192" y="77.9096" class="black" >A</text></g>
<g><title>71 (position.label in template: 68.A)</title><text x="123.197" y="76.4416" class="black" >A</text></g>
<g><title>72 (position.label in template: 69.U)</title><text x="125.501" y="75.5096" class="black" >U</text></g>
<g><title>73 (position.label in template: 70.U)</title><text x="127.963" y="75.1686" class="black" >U</text></g>
<g><title>74 (position.label in template: 71.G)</title><text x="130.433" y="75.4406" class="black" >G</text></g>
<g><title>75 (position.label in template: 72.C)</title><text x="132.763" y="76.3086" class="black" >C</text></g>
<g><title>76 (position.label in template: 73.A)</title><text x="134.808" y="77.7196" class="black" >A</text></g>
<g><title>77 (position.label in template: 74.G)</title><text x="136.446" y="79.5886" class="black" >G</text></g>
<g><title>78 (position.label in template: 75.C)</title><text x="137.578" y="81.8006" class="green" >A</text></g>
<g><title>79 (position.label in template: 76.C)</title><text x="138.134" y="84.2236" class="black" >C</text></g>
<g><title>80 (position.label in template: 77.U)</title><text x="138.08" y="86.7086" class="black" >U</text></g>
<g><title>81 (position.label in template: 78.A)</title><text x="137.421" y="89.1046" class="black" >A</text></g>
<g><title>82 (position.label in template: 79.C)</title><text x="136.195" y="91.2666" class="black" >C</text></g>
<g><title>83 (position.label in template: 80.U)</title><text x="134.477" y="93.0626" class="black" >U</text></g>
<g><title>84 (position.label in template: 81.G)</title><text x="132.372" y="94.3846" class="black" >G</text></g>
<g><title>85 (position.label in template: 82.G)</title><text x="130.009" y="95.1506" class="green" >U</text></g>
<g><title>86 (position.label in template: 83.G)</title><text x="127.529" y="95.3166" class="black" >G</text></g>
<g><title>87 (position.label in template: 84.A)</title><text x="125.084" y="94.8696" class="black" >A</text></g>
<g><title>88 (position.label in template: 85.U)</title><text x="122.822" y="93.8386" class="green" >A</text></g>
<g><title>89 (position.label in template: 86.A)</title><text x="120.882" y="92.2856" class="black" >A</text></g>
<g><title>90 (position.label in template: 87.G)</title><text x="118.547" y="93.1356" class="black" >G</text></g>
<g><title>91 (position.label in template: 88.U)</title><text x="116.213" y="93.9856" class="black" >U</text></g>
<g><title>92 (position.label in template: 89.U)</title><text x="114.559" y="96.0016" class="green" >C</text></g>
<g><title>93 (position.label in template: 90.G)</title><text x="111.982" y="95.5626" class="black" >G</text></g>
<g><title>94 (position.label in template: 91.A)</title><text x="109.647" y="96.4126" class="black" >A</text></g>
<g><title>95 (position.label in template: 92.A)</title><text x="109.18" y="98.6996" class="black" >A</text></g>
<g><title>96 (position.label in template: 93.A)</title><text x="108.079" y="100.758" class="black" >A</text></g>
<g><title>97 (position.label in template: 94.U)</title><text x="106.436" y="102.416" class="black" >U</text></g>
<g><title>98 (position.label in template: 95.G)</title><text x="104.388" y="103.536" class="black" >G</text></g>
<g><title>99 (position.label in template: 96.U)</title><text x="104.388" y="106.02" class="black" >U</text></g>
<g><title>100 (position.label in template: 97.U)</title><text x="104.388" y="108.505" class="black" >U</text></g>
<g><title>100 (inserted)</title><text x="108.181" y="107.556" class="numbering-label sequential" >100</text></g>
<g><line x1="105.399" y1="108.252" x2="106.617" y2="107.947" class="numbering-line sequential" /></g>
<g><title>101 (position.label in template: 98.G)</title><text x="105.63" y="110.989" class="black" >G</text></g>
<g><title>102 (position.label in template: 99.A)</title><text x="107.386" y="112.647" class="black" >A</text></g>
<g><title>103 (position.label in template: 100.A)</title><text x="109.783" y="113.462" class="black" >A</text></g>
<g><title>104 (position.label in template: 101.C)</title><text x="111.445" y="111.974" class="black" >C</text></g>
<g><title>105 (position.label in template: 102.G)</title><text x="112.453" y="110.084" class="black" >G</text></g>
<g><line x1="113.537" y1="110.317" x2="121.446" y2="113.288" class="black" /></g>
<g><title>106 (position.label in template: 103.C)</title><text x="114.49" y="108.195" class="black" >C</text></g>
<g><line x1="115.574" y1="108.428" x2="121.157" y2="110.526" class="black" /></g>
<g><title>107 (position.label in template: 104.A)</title><text x="115.364" y="105.869" class="black" >A</text></g>
<g><line x1="116.448" y1="106.102" x2="122.031" y2="108.2" class="black" /></g>
<g><title>108 (position.label in template: 105.C)</title><text x="118.554" y="103.528" class="black" >C</text></g>
<g><title>109 (position.label in template: 106.A)</title><text x="122.258" y="104.92" class="black" >A</text></g>
<g><title>110 (position.label in template: 107.U)</title><text x="123.116" y="108.782" class="black" >U</text></g>
<g><title>111 (position.label in template: 108.G)</title><text x="122.242" y="111.108" class="black" >G</text></g>
<g><title>112 (position.label in template: 109.A)</title><text x="122.531" y="113.87" class="black" >A</text></g>
<g><title>113 (position.label in template: 110.U)</title><text x="121.653" y="117.023" class="black" >U</text></g>
<g><title>114 (position.label in template: 111.G)</title><text x="121.596" y="120.673" class="green" >G</text></g>
<g><line x1="122.271" y1="121.44" x2="125.746" y2="126.287" class="black" /></g>
<g><title>115 (position.label in template: 112.A)</title><text x="123.615" y="119.225" class="black" >A</text></g>
<g><line x1="124.29" y1="119.992" x2="127.765" y2="124.839" class="black" /></g>
<g><title>116 (position.label in template: 113.C)</title><text x="125.634" y="117.777" class="green" >U</text></g>
<g><line x1="126.309" y1="118.544" x2="129.784" y2="123.391" class="black" /></g>
<g><title>117 (position.label in template: 114.A)</title><text x="127.653" y="116.329" class="black" >A</text></g>
<g><line x1="128.328" y1="117.096" x2="131.803" y2="121.944" class="black" /></g>
<g><title>118 (position.label in template: 115.U)</title><text x="129.672" y="114.882" class="green" >U</text></g>
<g><line x1="130.347" y1="115.649" x2="133.822" y2="120.496" class="black" /></g>
<g><title>119 (position.label in template: 116.C)</title><text x="131.691" y="113.434" class="green" >U</text></g>
<g><line x1="132.366" y1="114.201" x2="135.841" y2="119.048" class="black" /></g>
<g><title>120 (position.label in template: 117.G)</title><text x="134.99" y="111.213" class="black" >G</text></g>
<g><line x1="135.665" y1="111.98" x2="139.139" y2="116.827" class="black" /></g>
<g><title>121 (position.label in template: 118.G)</title><text x="137.009" y="109.765" class="green" >A</text></g>
<g><line x1="137.684" y1="110.532" x2="141.158" y2="115.379" class="black" /></g>
<g><title>122 (position.label in template: 119.U)</title><text x="139.028" y="108.317" class="green" >U</text></g>
<g><line x1="139.703" y1="109.084" x2="143.177" y2="113.931" class="black" /></g>
<g><title>123 (position.label in template: 120.C)</title><text x="141.047" y="106.87" class="green" >U</text></g>
<g><line x1="141.722" y1="107.637" x2="145.196" y2="112.484" class="black" /></g>
<g><title>124 (position.label in template: 121.C)</title><text x="143.066" y="105.422" class="black" >C</text></g>
<g><line x1="143.741" y1="106.189" x2="147.215" y2="111.036" class="black" /></g>
<g><title>125 (position.label in template: 122.U)</title><text x="145.071" y="104.666" class="blue" >U</text></g>
<g><title>126 (position.label in template: 123.U)</title><text x="147.186" y="105.015" class="blue" >U</text></g>
<g><title>127 (position.label in template: 124.U)</title><text x="148.843" y="106.374" class="blue" >U</text></g>
<g><title>128 (inserted)</title><text x="149.598" y="108.38" class="red" >A</text></g>
<g><title>129 (position.label in template: 125.C)</title><text x="149.25" y="110.494" class="blue" >C</text></g>
<g><title>130 (position.label in template: 126.G)</title><text x="147.891" y="112.152" class="black" >G</text></g>
<g><title>131 (position.label in template: 127.G)</title><text x="145.872" y="113.6" class="green" >A</text></g>
<g><title>132 (position.label in template: 128.A)</title><text x="143.853" y="115.047" class="green" >G</text></g>
<g><title>133 (position.label in template: 129.U)</title><text x="141.834" y="116.495" class="green" >U</text></g>
<g><title>134 (position.label in template: 130.U)</title><text x="139.815" y="117.943" class="black" >U</text></g>
<g><title>135 (position.label in template: 131.A)</title><text x="138.938" y="120.092" class="black" >A</text></g>
<g><title>136 (position.label in template: 132.G)</title><text x="136.517" y="120.164" class="green" >A</text></g>
<g><title>137 (position.label in template: 133.G)</title><text x="134.498" y="121.612" class="green" >A</text></g>
<g><title>138 (position.label in template: 134.U)</title><text x="132.479" y="123.06" class="black" >U</text></g>
<g><title>139 (position.label in template: 135.G)</title><text x="130.46" y="124.507" class="green" >A</text></g>
<g><title>140 (position.label in template: 136.U)</title><text x="128.441" y="125.955" class="black" >U</text></g>
<g><title>141 (position.label in template: 137.U)</title><text x="126.422" y="127.403" class="green" >C</text></g>
<g><title>142 (position.label in template: 138.A)</title><text x="127.279" y="129.734" class="black" >A</text></g>
<g><title>143 (inserted)</title><text x="129.694" y="129.149" class="red" >C</text></g>
<g><title>144 (inserted)</title><text x="132.108" y="128.564" class="red" >A</text></g>
<g><title>145 (inserted)</title><text x="134.523" y="127.979" class="red" >C</text></g>
<g><title>146 (inserted)</title><text x="136.937" y="127.394" class="red" >U</text></g>
<g><title>147 (inserted)</title><text x="139.352" y="126.809" class="red" >U</text></g>
<g><title>148 (inserted)</title><text x="141.767" y="126.223" class="red" >G</text></g>
<g><title>149 (inserted)</title><text x="144.181" y="125.638" class="red" >A</text></g>
<g><title>150 (inserted)</title><text x="146.596" y="125.053" class="red" >U</text></g>
<g><title>150 (inserted)</title><text x="147.517" y="128.853" class="numbering-label sequential" >150</text></g>
<g><line x1="146.841" y1="126.067" x2="147.306" y2="127.985" class="numbering-line sequential" /></g>
<g><title>151 (inserted)</title><text x="149.01" y="124.468" class="red" >U</text></g>
<g><title>152 (inserted)</title><text x="151.425" y="123.883" class="red" >G</text></g>
<g><title>153 (inserted)</title><text x="153.839" y="123.298" class="red" >A</text></g>
<g><title>154 (inserted)</title><text x="156.254" y="122.713" class="red" >G</text></g>
<g><title>155 (position.label in template: 151.A)</title><text x="158.668" y="122.128" class="black" >A</text></g>
<g><title>156 (inserted)</title><text x="161.112" y="121.678" class="red" >G</text></g>
<g><title>157 (inserted)</title><text x="163.555" y="121.229" class="red" >U</text></g>
<g><title>158 (inserted)</title><text x="165.999" y="120.779" class="red" >C</text></g>
<g><title>159 (inserted)</title><text x="168.442" y="120.33" class="red" >G</text></g>
<g><title>160 (position.label in template: 156.U)</title><text x="170.885" y="119.88" class="green" >C</text></g>
<g><title>161 (position.label in template: 157.C)</title><text x="173.11" y="118.773" class="green" >A</text></g>
<g><title>162 (position.label in template: 3903.3')</title><text x="175.334" y="117.667" class="green" >3'</text></g>
<g><line x1="49.8657" y1="48.5072" x2="49.8826" y2="48.6736" class="gray" /></g>
<g><line x1="50.1174" y1="50.9788" x2="50.1343" y2="51.1452" class="gray" /></g>
<g><line x1="50.3691" y1="53.4505" x2="50.3861" y2="53.6169" class="gray" /></g>
<g><line x1="50.6208" y1="55.9221" x2="50.6378" y2="56.0885" class="gray" /></g>
<g><line x1="50.8725" y1="58.3938" x2="50.8895" y2="58.5601" class="gray" /></g>
<g><line x1="51.1243" y1="60.8654" x2="51.1412" y2="61.0318" class="gray" /></g>
<g><line x1="51.376" y1="63.337" x2="51.3929" y2="63.5034" class="gray" /></g>
<g><line x1="51.6277" y1="65.8087" x2="51.6446" y2="65.9751" class="gray" /></g>
<g><line x1="51.8794" y1="68.2803" x2="51.8964" y2="68.4467" class="gray" /></g>
<g><line x1="52.1311" y1="70.752" x2="52.1481" y2="70.9184" class="gray" /></g>
<g><line x1="52.3829" y1="73.2236" x2="52.3998" y2="73.39" class="gray" /></g>
<g><line x1="52.6346" y1="75.6952" x2="52.6515" y2="75.8616" class="gray" /></g>
<g><line x1="52.8863" y1="78.1669" x2="52.9032" y2="78.3333" class="gray" /></g>
<g><line x1="53.138" y1="80.6385" x2="53.155" y2="80.8049" class="gray" /></g>
<g><line x1="53.329" y1="83.1147" x2="53.3372" y2="83.2818" class="gray" /></g>
<g><line x1="53.3902" y1="85.5976" x2="53.3896" y2="85.7648" class="gray" /></g>
<g><line x1="53.3216" y1="88.0802" x2="53.3123" y2="88.2472" class="gray" /></g>
<g><line x1="53.4144" y1="90.5506" x2="53.4384" y2="90.7161" class="gray" /></g>
<g><line x1="53.7711" y1="93.0093" x2="53.7951" y2="93.1748" class="gray" /></g>
<g><line x1="54.1279" y1="95.468" x2="54.1519" y2="95.6335" class="gray" /></g>
<g><line x1="54.4846" y1="97.9266" x2="54.5086" y2="98.0922" class="gray" /></g>
<g><line x1="55.2796" y1="100.227" x2="55.3669" y2="100.37" class="gray" /></g>
<g><line x1="56.9638" y1="101.956" x2="57.1071" y2="102.042" class="gray" /></g>
<g><line x1="59.0915" y1="103.239" x2="59.2348" y2="103.325" class="gray" /></g>
<g><line x1="61.2192" y1="104.521" x2="61.3625" y2="104.608" class="gray" /></g>
<g><line x1="63.3469" y1="105.804" x2="63.4902" y2="105.89" class="gray" /></g>
<g><line x1="65.4746" y1="107.087" x2="65.6179" y2="107.173" class="gray" /></g>
<g><line x1="67.6024" y1="108.369" x2="67.7456" y2="108.456" class="gray" /></g>
<g><line x1="69.7301" y1="109.652" x2="69.8733" y2="109.738" class="gray" /></g>
<g><line x1="71.8578" y1="110.935" x2="72.001" y2="111.021" class="gray" /></g>
<g><line x1="73.9855" y1="112.217" x2="74.1287" y2="112.304" class="gray" /></g>
<g><line x1="76.1132" y1="113.5" x2="76.2564" y2="113.586" class="gray" /></g>
<g><line x1="78.2409" y1="114.783" x2="78.3841" y2="114.869" class="gray" /></g>
<g><line x1="80.3686" y1="116.065" x2="80.5118" y2="116.152" class="gray" /></g>
<g><line x1="82.3851" y1="115.998" x2="82.5123" y2="115.889" class="gray" /></g>
<g><line x1="84.3554" y1="114.491" x2="84.4943" y2="114.398" class="gray" /></g>
<g><line x1="86.4862" y1="113.222" x2="86.6349" y2="113.145" class="gray" /></g>
<g><line x1="88.749" y1="112.206" x2="88.9055" y2="112.147" class="gray" /></g>
<g><line x1="91.1137" y1="111.457" x2="91.2759" y2="111.417" class="gray" /></g>
<g><line x1="93.5488" y1="110.986" x2="93.7146" y2="110.964" class="gray" /></g>
<g><line x1="95.3815" y1="109.778" x2="95.5875" y2="109.366" class="gray" /></g>
<g><line x1="96.1055" y1="107.171" x2="96.1055" y2="107.004" class="gray" /></g>
<g><line x1="96.106" y1="104.687" x2="96.1061" y2="104.519" class="gray" /></g>
<g><line x1="95.1832" y1="102.661" x2="95.1629" y2="102.646" class="gray" /></g>
<g><line x1="93.1507" y1="102.342" x2="92.9934" y2="102.399" class="gray" /></g>
<g><line x1="90.8158" y1="103.191" x2="90.6582" y2="103.248" class="gray" /></g>
<g><line x1="88.4809" y1="104.041" x2="88.3242" y2="104.098" class="gray" /></g>
<g><line x1="86.1468" y1="104.891" x2="85.9892" y2="104.948" class="gray" /></g>
<g><line x1="83.7419" y1="105.339" x2="83.5751" y2="105.338" class="gray" /></g>
<g><line x1="81.469" y1="104.666" x2="81.3331" y2="104.57" class="gray" /></g>
<g><line x1="79.9892" y1="102.815" x2="79.9318" y2="102.657" class="gray" /></g>
<g><line x1="79.8332" y1="100.449" x2="79.8759" y2="100.288" class="gray" /></g>
<g><line x1="81.0574" y1="98.4197" x2="81.1847" y2="98.3118" class="gray" /></g>
<g><line x1="83.1572" y1="97.1663" x2="83.3139" y2="97.1092" class="gray" /></g>
<g><line x1="85.4914" y1="96.3169" x2="85.6487" y2="96.2597" class="gray" /></g>
<g><line x1="87.826" y1="95.4669" x2="87.983" y2="95.4096" class="gray" /></g>
<g><line x1="90.1604" y1="94.6169" x2="90.3177" y2="94.5597" class="gray" /></g>
<g><line x1="91.7068" y1="93.0448" x2="91.9932" y2="91.9778" class="gray" /></g>
<g><line x1="92.9889" y1="89.9321" x2="93.6521" y2="89.0484" class="gray" /></g>
<g><line x1="95.338" y1="87.5207" x2="96.282" y2="86.9478" class="gray" /></g>
<g><line x1="98.4155" y1="86.1575" x2="99.5045" y2="85.9771" class="gray" /></g>
<g><line x1="101.779" y1="86.0379" x2="102.858" y2="86.2766" class="gray" /></g>
<g><line x1="104.946" y1="87.1803" x2="105.858" y2="87.8032" class="gray" /></g>
<g><line x1="107.903" y1="88.0609" x2="108.061" y2="88.0037" class="gray" /></g>
<g><line x1="110.235" y1="87.2028" x2="112.294" y2="86.4347" class="gray" /></g>
<g><line x1="114.468" y1="85.6333" x2="114.625" y2="85.5762" class="gray" /></g>
<g><line x1="116.802" y1="84.7835" x2="116.96" y2="84.7261" class="gray" /></g>
<g><line x1="118.276" y1="83.1937" x2="118.309" y2="83.0288" class="gray" /></g>
<g><line x1="119.035" y1="80.8469" x2="119.107" y2="80.6956" class="gray" /></g>
<g><line x1="120.345" y1="78.7577" x2="120.452" y2="78.6279" class="gray" /></g>
<g><line x1="122.126" y1="77.0513" x2="122.262" y2="76.9522" class="gray" /></g>
<g><line x1="124.271" y1="75.8333" x2="124.426" y2="75.7702" class="gray" /></g>
<g><line x1="126.648" y1="75.1768" x2="126.815" y2="75.1537" class="gray" /></g>
<g><line x1="129.114" y1="75.1216" x2="129.281" y2="75.14" class="gray" /></g>
<g><line x1="131.518" y1="75.6712" x2="131.677" y2="75.7303" class="gray" /></g>
<g><line x1="133.716" y1="76.7927" x2="133.854" y2="76.8878" class="gray" /></g>
<g><line x1="135.571" y1="78.4171" x2="135.682" y2="78.5435" class="gray" /></g>
<g><line x1="136.973" y1="80.4461" x2="137.05" y2="80.5954" class="gray" /></g>
<g><line x1="137.837" y1="82.756" x2="137.874" y2="82.9205" class="gray" /></g>
<g><line x1="138.108" y1="85.2081" x2="138.105" y2="85.3765" class="gray" /></g>
<g><line x1="137.772" y1="87.6519" x2="137.728" y2="87.8137" class="gray" /></g>
<g><line x1="136.849" y1="89.9386" x2="136.766" y2="90.0849" class="gray" /></g>
<g><line x1="135.394" y1="91.93" x2="135.277" y2="92.0515" class="gray" /></g>
<g><line x1="133.495" y1="93.505" x2="133.353" y2="93.5946" class="gray" /></g>
<g><line x1="131.269" y1="94.568" x2="131.111" y2="94.6195" class="gray" /></g>
<g><line x1="128.853" y1="95.0541" x2="128.685" y2="95.0654" class="gray" /></g>
<g><line x1="126.389" y1="94.9344" x2="126.223" y2="94.9041" class="gray" /></g>
<g><line x1="124.029" y1="94.2153" x2="123.876" y2="94.1453" class="gray" /></g>
<g><line x1="121.917" y1="92.9407" x2="121.786" y2="92.8358" class="gray" /></g>
<g><line x1="119.793" y1="92.5081" x2="119.635" y2="92.5655" class="gray" /></g>
<g><line x1="117.458" y1="93.3582" x2="117.301" y2="93.4153" class="gray" /></g>
<g><line x1="115.478" y1="94.7075" x2="115.293" y2="94.9321" class="gray" /></g>
<g><line x1="113.416" y1="95.6332" x2="113.124" y2="95.5833" class="gray" /></g>
<g><line x1="110.893" y1="95.7851" x2="110.735" y2="95.8425" class="gray" /></g>
<g><line x1="109.415" y1="97.3739" x2="109.411" y2="97.3906" class="gray" /></g>
<g><line x1="108.633" y1="99.5474" x2="108.625" y2="99.5622" class="gray" /></g>
<g><line x1="107.263" y1="101.407" x2="107.251" y2="101.419" class="gray" /></g>
<g><line x1="105.419" y1="102.798" x2="105.404" y2="102.806" class="gray" /></g>
<g><line x1="104.388" y1="104.52" x2="104.388" y2="104.687" class="gray" /></g>
<g><line x1="104.388" y1="107.004" x2="104.388" y2="107.172" class="gray" /></g>
<g><line x1="104.906" y1="109.367" x2="105.111" y2="109.778" class="gray" /></g>
<g><line x1="106.472" y1="111.61" x2="106.543" y2="111.677" class="gray" /></g>
<g><line x1="108.482" y1="112.846" x2="108.686" y2="112.915" class="gray" /></g>
<g><line x1="113.302" y1="109.122" x2="113.64" y2="108.809" class="gray" /></g>
<g><line x1="114.897" y1="106.936" x2="114.956" y2="106.779" class="gray" /></g>
<g><line x1="116.298" y1="105.009" x2="117.619" y2="104.039" class="gray" /></g>
<g><line x1="119.638" y1="103.761" x2="121.173" y2="104.338" class="gray" /></g>
<g><line x1="122.509" y1="105.877" x2="122.864" y2="107.477" class="gray" /></g>
<g><line x1="122.708" y1="109.692" x2="122.649" y2="109.849" class="gray" /></g>
<g><line x1="122.362" y1="112.086" x2="122.41" y2="112.543" class="gray" /></g>
<g><line x1="122.22" y1="114.812" x2="121.963" y2="115.733" class="gray" /></g>
<g><line x1="121.634" y1="118.007" x2="121.614" y2="119.34" class="gray" /></g>
<g><line x1="122.537" y1="119.824" x2="122.673" y2="119.726" class="gray" /></g>
<g><line x1="124.556" y1="118.376" x2="124.692" y2="118.278" class="gray" /></g>
<g><line x1="126.575" y1="116.928" x2="126.711" y2="116.83" class="gray" /></g>
<g><line x1="128.594" y1="115.48" x2="128.73" y2="115.383" class="gray" /></g>
<g><line x1="130.613" y1="114.033" x2="130.749" y2="113.935" class="gray" /></g>
<g><line x1="132.652" y1="112.613" x2="134.028" y2="111.686" class="gray" /></g>
<g><line x1="135.931" y1="110.364" x2="136.067" y2="110.266" class="gray" /></g>
<g><line x1="137.95" y1="108.916" x2="138.086" y2="108.818" class="gray" /></g>
<g><line x1="139.969" y1="107.468" x2="140.105" y2="107.371" class="gray" /></g>
<g><line x1="141.988" y1="106.021" x2="142.124" y2="105.923" class="gray" /></g>
<g><line x1="146.949" y1="112.653" x2="146.813" y2="112.751" class="gray" /></g>
<g><line x1="144.93" y1="114.101" x2="144.794" y2="114.198" class="gray" /></g>
<g><line x1="142.911" y1="115.548" x2="142.775" y2="115.646" class="gray" /></g>
<g><line x1="140.892" y1="116.996" x2="140.756" y2="117.094" class="gray" /></g>
<g><line x1="139.377" y1="118.841" x2="139.375" y2="118.845" class="gray" /></g>
<g><line x1="137.779" y1="119.952" x2="137.675" y2="119.955" class="gray" /></g>
<g><line x1="135.575" y1="120.665" x2="135.439" y2="120.763" class="gray" /></g>
<g><line x1="133.556" y1="122.113" x2="133.42" y2="122.211" class="gray" /></g>
<g><line x1="131.537" y1="123.561" x2="131.401" y2="123.658" class="gray" /></g>
<g><line x1="129.518" y1="125.008" x2="129.382" y2="125.106" class="gray" /></g>
<g><line x1="127.499" y1="126.456" x2="127.363" y2="126.554" class="gray" /></g>
<g><line x1="126.822" y1="128.316" x2="126.879" y2="128.473" class="gray" /></g>
<g><line x1="128.405" y1="129.288" x2="128.568" y2="129.248" class="gray" /></g>
<g><line x1="130.82" y1="128.702" x2="130.982" y2="128.663" class="gray" /></g>
<g><line x1="133.234" y1="128.117" x2="133.397" y2="128.078" class="gray" /></g>
<g><line x1="135.649" y1="127.532" x2="135.811" y2="127.493" class="gray" /></g>
<g><line x1="138.063" y1="126.947" x2="138.226" y2="126.908" class="gray" /></g>
<g><line x1="140.478" y1="126.362" x2="140.641" y2="126.323" class="gray" /></g>
<g><line x1="142.893" y1="125.777" x2="143.055" y2="125.737" class="gray" /></g>
<g><line x1="145.307" y1="125.192" x2="145.47" y2="125.152" class="gray" /></g>
<g><line x1="147.722" y1="124.607" x2="147.884" y2="124.567" class="gray" /></g>
<g><line x1="150.136" y1="124.021" x2="150.299" y2="123.982" class="gray" /></g>
<g><line x1="152.551" y1="123.436" x2="152.713" y2="123.397" class="gray" /></g>
<g><line x1="154.965" y1="122.851" x2="155.128" y2="122.812" class="gray" /></g>
<g><line x1="157.38" y1="122.266" x2="157.542" y2="122.227" class="gray" /></g>
<g><line x1="159.808" y1="121.744" x2="159.972" y2="121.714" class="gray" /></g>
<g><line x1="162.251" y1="121.295" x2="162.416" y2="121.264" class="gray" /></g>
<g><line x1="164.695" y1="120.845" x2="164.859" y2="120.815" class="gray" /></g>
<g><line x1="167.138" y1="120.396" x2="167.303" y2="120.365" class="gray" /></g>
<g><line x1="169.581" y1="119.946" x2="169.746" y2="119.916" class="gray" /></g>
<g><line x1="171.923" y1="119.19" x2="172.072" y2="119.116" class="gray" /></g>
<g><line x1="174.147" y1="118.083" x2="174.297" y2="118.009" class="gray" /></g>
</svg>
