<svg
	xmlns="http://www.w3.org/2000/svg"
	width="311.963"
	height="226.965"
	style="font-size: 1.791440px; font-weight: bold; font-family: Helvetica; " >
<g><style type="text/css" >
<!-- create color definitions -->
<![CDATA[
text.red {fill: rgb(255, 0, 255); }
text.green {fill: rgb(0, 255, 0); }
text.blue {fill: rgb(0, 0, 255); }
text.black {fill: rgb(0, 0, 0); }
text.gray {fill: rgb(204, 204, 204); }
text.brown {fill: rgb(211.65, 104.55, 30.6); }
text {fill: rgb(0, 0, 0); text-anchor: middle; alignment-baseline: middle; }
circle.red {stroke: rgb(255, 0, 255); fill: none; }
circle.green {stroke: rgb(0, 255, 0); fill: none; }
circle.blue {stroke: rgb(0, 0, 255); fill: none; }
circle.black {stroke: rgb(0, 0, 0); fill: none; }
circle.gray {stroke: rgb(204, 204, 204); fill: none; }
circle.brown {stroke: rgb(211.65, 104.55, 30.6); fill: none; }
circle {stroke: rgb(0, 0, 0); }
line.red {stroke: rgb(255, 0, 255); stroke-width: 0.223930; }
line.green {stroke: rgb(0, 255, 0); stroke-width: 0.223930; }
line.blue {stroke: rgb(0, 0, 255); stroke-width: 0.223930; }
line.black {stroke: rgb(0, 0, 0); stroke-width: 0.223930; }
line.gray {stroke: rgb(204, 204, 204); stroke-width: 0.223930; }
line.brown {stroke: rgb(211.65, 104.55, 30.6); stroke-width: 0.223930; }
line {stroke: rgb(0, 0, 0); }
text.numbering-label {fill: rgb(204, 204, 204);}
line.numbering-line {stroke: rgb(204, 204, 204); stroke-width: 0.111965;}
line.predicted {stroke: rgb(0, 0, 0); stroke-dasharray: 2}
text.background {fill: rgb(255, 255, 255);
.template {visibility:hidden}
]]>
</style></g>
<g><title>0 (position.label in template: 0.5')</title><text x="186.397" y="47.371" class="green" >5'</text></g>
<g><title>1 (position.label in template: 3035.G)</title><text x="185.134" y="50" class="black" >G</text></g>
<g><title>2 (position.label in template: 3036.A)</title><text x="183.87" y="52.629" class="black" >A</text></g>
<g><title>3 (position.label in template: 3037.U)</title><text x="183.181" y="55.4636" class="black" >U</text></g>
<g><title>4 (position.label in template: 3038.G)</title><text x="181.249" y="57.6487" class="black" >G</text></g>
<g><title>5 (position.label in template: 3039.U)</title><text x="179.59" y="60.0482" class="black" >U</text></g>
<g><title>6 (position.label in template: 3040.C)</title><text x="180.835" y="62.6862" class="black" >C</text></g>
<g><line x1="180.068" y1="63.4219" x2="175.354" y2="69.0401" class="black" /></g>
<g><title>7 (position.label in template: 3041.G)</title><text x="184.058" y="64.7332" class="black" >G</text></g>
<g><line x1="183.461" y1="65.5882" x2="179.793" y2="71.9398" class="black" /></g>
<g><title>8 (position.label in template: 3042.G)</title><text x="186.584" y="66.1922" class="black" >G</text></g>
<g><line x1="185.987" y1="67.0472" x2="182.319" y2="73.3988" class="black" /></g>
<g><title>9 (position.label in template: 3043.C)</title><text x="189.11" y="67.6512" class="black" >C</text></g>
<g><line x1="188.513" y1="68.5062" x2="184.845" y2="74.8578" class="black" /></g>
<g><title>10 (position.label in template: 3044.U)</title><text x="191.636" y="69.1092" class="black" >U</text></g>
<g><title>10 (inserted)</title><text x="193.6" y="65.5891" class="numbering-label sequential" >10</text></g>
<g><title>10 (inserted)</title><text x="193.6" y="65.5891" class="numbering-label template" >3044</text></g>
<g><line x1="192.16" y1="68.1705" x2="193.1" y2="66.4848" class="numbering-line sequential" /></g>
<g><line x1="192.16" y1="68.1705" x2="193.1" y2="66.4848" class="numbering-line template" /></g>
<g><title>11 (position.label in template: 3045.C)</title><text x="198.258" y="72.7542" class="black" >C</text></g>
<g><line x1="197.661" y1="73.6094" x2="193.994" y2="79.9617" class="black" /></g>
<g><title>12 (position.label in template: 3046.U)</title><text x="204.684" y="76.4842" class="black" >U</text></g>
<g><line x1="204.087" y1="77.3394" x2="200.42" y2="83.6917" class="black" /></g>
<g><title>13 (position.label in template: 3047.U)</title><text x="207.211" y="77.9432" class="black" >U</text></g>
<g><line x1="206.614" y1="78.7983" x2="202.947" y2="85.1498" class="black" /></g>
<g><title>14 (position.label in template: 3048.C)</title><text x="209.738" y="79.4012" class="black" >C</text></g>
<g><line x1="209.141" y1="80.2563" x2="205.473" y2="86.6088" class="black" /></g>
<g><title>15 (position.label in template: 3049.C)</title><text x="212.264" y="80.8602" class="black" >C</text></g>
<g><line x1="211.667" y1="81.7153" x2="207.999" y2="88.0677" class="black" /></g>
<g><title>16 (position.label in template: 3050.U)</title><text x="214.79" y="82.3182" class="black" >U</text></g>
<g><line x1="214.193" y1="83.1733" x2="210.525" y2="89.5257" class="black" /></g>
<g><title>17 (position.label in template: 3051.A)</title><text x="218.535" y="83.1282" class="black" >A</text></g>
<g><title>18 (position.label in template: 3052.U)</title><text x="223.149" y="85.0432" class="green" >A</text></g>
<g><title>19 (position.label in template: 3053.C)</title><text x="227.586" y="86.7472" class="black" >C</text></g>
<g><line x1="227.586" y1="87.7623" x2="227.586" y2="95.0967" class="black" /></g>
<g><title>20 (position.label in template: 3054.A)</title><text x="230.503" y="86.7472" class="green" >C</text></g>
<g><line x1="230.503" y1="87.7623" x2="230.503" y2="95.0967" class="black" /></g>
<g><title>20 (inserted)</title><text x="230.503" y="82.7164" class="numbering-label sequential" >20</text></g>
<g><title>20 (inserted)</title><text x="230.503" y="82.7164" class="numbering-label template" >3054</text></g>
<g><line x1="230.503" y1="85.6723" x2="230.503" y2="83.6122" class="numbering-line sequential" /></g>
<g><line x1="230.503" y1="85.6723" x2="230.503" y2="83.6122" class="numbering-line template" /></g>
<g><title>21 (position.label in template: 3055.U)</title><text x="233.42" y="86.7472" class="black" >U</text></g>
<g><line x1="233.42" y1="87.7623" x2="233.42" y2="95.0967" class="black" /></g>
<g><title>22 (position.label in template: 3056.U)</title><text x="240.297" y="84.9882" class="green" >A</text></g>
<g><line x1="240.297" y1="86.0033" x2="240.297" y2="96.2547" class="black" /></g>
<g><title>23 (position.label in template: 3057.G)</title><text x="243.214" y="86.4472" class="black" >G</text></g>
<g><line x1="243.214" y1="87.4623" x2="243.214" y2="94.7967" class="black" /></g>
<g><title>24 (position.label in template: 3058.U)</title><text x="246.131" y="86.4472" class="green" >C</text></g>
<g><line x1="246.131" y1="87.4623" x2="246.131" y2="94.7967" class="black" /></g>
<g><title>25 (position.label in template: 3059.G)</title><text x="249.048" y="86.4472" class="black" >G</text></g>
<g><line x1="249.048" y1="87.4623" x2="249.048" y2="94.7967" class="black" /></g>
<g><title>26 (position.label in template: 3060.A)</title><text x="251.964" y="86.4472" class="green" >C</text></g>
<g><line x1="251.964" y1="87.4623" x2="251.964" y2="94.7967" class="black" /></g>
<g><title>27 (position.label in template: 3061.A)</title><text x="254.881" y="86.4472" class="green" >C</text></g>
<g><line x1="254.881" y1="87.4623" x2="254.881" y2="94.7967" class="black" /></g>
<g><title>28 (position.label in template: 3062.G)</title><text x="257.78" y="86.1162" class="black" >G</text></g>
<g><title>29 (position.label in template: 3063.C)</title><text x="260.409" y="87.3802" class="black" >C</text></g>
<g><title>30 (position.label in template: 3064.A)</title><text x="261.963" y="89.8502" class="black" >A</text></g>
<g><title>30 (inserted)</title><text x="265.836" y="88.733" class="numbering-label sequential" >30</text></g>
<g><title>30 (inserted)</title><text x="265.836" y="88.733" class="numbering-label template" >3064</text></g>
<g><line x1="262.996" y1="89.5522" x2="264.761" y2="89.043" class="numbering-line sequential" /></g>
<g><line x1="262.996" y1="89.5522" x2="264.761" y2="89.043" class="numbering-line template" /></g>
<g><title>31 (position.label in template: 3065.G)</title><text x="261.963" y="92.7672" class="black" >G</text></g>
<g><title>32 (position.label in template: 3066.A)</title><text x="260.409" y="95.2362" class="black" >A</text></g>
<g><title>33 (position.label in template: 3067.A)</title><text x="257.78" y="96.4992" class="black" >A</text></g>
<g><title>34 (position.label in template: 3068.U)</title><text x="254.881" y="96.1702" class="green" >G</text></g>
<g><title>35 (position.label in template: 3069.U)</title><text x="251.964" y="96.1702" class="green" >A</text></g>
<g><title>36 (position.label in template: 3070.C)</title><text x="249.048" y="96.1702" class="black" >C</text></g>
<g><title>37 (position.label in template: 3071.A)</title><text x="246.131" y="96.1702" class="green" >G</text></g>
<g><title>38 (position.label in template: 3072.C)</title><text x="243.214" y="96.1702" class="black" >C</text></g>
<g><title>39 (position.label in template: 3073.C)</title><text x="240.297" y="97.6282" class="green" >U</text></g>
<g><title>40 (position.label in template: 3074.A)</title><text x="238.639" y="99.0862" class="black" >A</text></g>
<g><title>41 (position.label in template: 3075.A)</title><text x="235.603" y="99.3472" class="black" >A</text></g>
<g><title>42 (position.label in template: 3076.G)</title><text x="233.42" y="96.4702" class="black" >G</text></g>
<g><title>43 (position.label in template: 3077.U)</title><text x="230.503" y="96.4702" class="green" >G</text></g>
<g><title>44 (position.label in template: 3078.G)</title><text x="227.586" y="96.4702" class="black" >G</text></g>
<g><title>45 (position.label in template: 3079.U)</title><text x="224.91" y="97.6642" class="black" >U</text></g>
<g><title>46 (position.label in template: 3080.U)</title><text x="222.631" y="99.2412" class="black" >U</text></g>
<g><line x1="221.437" y1="99.062" x2="214.103" y2="99.062" class="black" /></g>
<g><title>47 (position.label in template: 3081.G)</title><text x="222.631" y="102.158" class="black" >G</text></g>
<g><line x1="221.437" y1="101.979" x2="214.103" y2="101.979" class="black" /></g>
<g><title>48 (position.label in template: 3082.G)</title><text x="222.631" y="105.075" class="black" >G</text></g>
<g><line x1="221.437" y1="104.896" x2="214.103" y2="104.896" class="black" /></g>
<g><title>49 (position.label in template: 3083.A)</title><text x="224.09" y="107.992" class="black" >A</text></g>
<g><line x1="222.896" y1="107.813" x2="212.645" y2="107.813" class="black" /></g>
<g><title>50 (position.label in template: 3084.U)</title><text x="224.128" y="110.91" class="black" >U</text></g>
<g><title>50 (inserted)</title><text x="228.068" y="111.764" class="numbering-label sequential" >50</text></g>
<g><title>50 (inserted)</title><text x="228.068" y="111.764" class="numbering-label template" >3084</text></g>
<g><line x1="225.179" y1="111.138" x2="226.993" y2="111.531" class="numbering-line sequential" /></g>
<g><line x1="225.179" y1="111.138" x2="226.993" y2="111.531" class="numbering-line template" /></g>
<g><title>51 (position.label in template: 3085.U)</title><text x="222.885" y="113.551" class="black" >U</text></g>
<g><title>52 (position.label in template: 3086.G)</title><text x="220.614" y="115.382" class="black" >G</text></g>
<g><title>53 (position.label in template: 3087.U)</title><text x="217.77" y="116.036" class="black" >U</text></g>
<g><title>54 (position.label in template: 3088.U)</title><text x="214.927" y="115.382" class="black" >U</text></g>
<g><title>55 (position.label in template: 3089.C)</title><text x="212.655" y="113.551" class="black" >C</text></g>
<g><title>56 (position.label in template: 3090.A)</title><text x="211.413" y="110.91" class="black" >A</text></g>
<g><title>57 (position.label in template: 3091.C)</title><text x="211.45" y="107.992" class="black" >C</text></g>
<g><title>58 (position.label in template: 3092.C)</title><text x="212.908" y="105.075" class="black" >C</text></g>
<g><title>59 (position.label in template: 3093.C)</title><text x="212.908" y="102.158" class="black" >C</text></g>
<g><title>60 (position.label in template: 3094.A)</title><text x="212.908" y="99.2412" class="black" >A</text></g>
<g><title>61 (position.label in template: 3095.C)</title><text x="209.78" y="100.441" class="black" >C</text></g>
<g><title>62 (position.label in template: 3096.C)</title><text x="206.381" y="101.053" class="green" >U</text></g>
<g><title>63 (position.label in template: 3097.A)</title><text x="203.016" y="98.7892" class="green" >G</text></g>
<g><title>64 (position.label in template: 3098.A)</title><text x="204.605" y="95.0342" class="black" >A</text></g>
<g><title>65 (position.label in template: 3099.U)</title><text x="207.958" y="94.0132" class="green" >C</text></g>
<g><title>66 (position.label in template: 3100.A)</title><text x="209.928" y="90.7392" class="black" >A</text></g>
<g><title>67 (position.label in template: 3101.G)</title><text x="207.402" y="89.2812" class="black" >G</text></g>
<g><title>68 (position.label in template: 3102.G)</title><text x="204.875" y="87.8222" class="black" >G</text></g>
<g><title>69 (position.label in template: 3103.G)</title><text x="202.349" y="86.3632" class="black" >G</text></g>
<g><title>70 (position.label in template: 3104.A)</title><text x="199.823" y="84.9052" class="black" >A</text></g>
<g><title>71 (position.label in template: 3105.A)</title><text x="196.741" y="86.1242" class="black" >A</text></g>
<g><title>72 (position.label in template: 3106.C)</title><text x="193.865" y="84.4552" class="black" >C</text></g>
<g><title>73 (position.label in template: 3107.G)</title><text x="193.397" y="81.1752" class="black" >G</text></g>
<g><title>74 (position.label in template: 3108.U)</title><text x="190.193" y="82.9302" class="black" >U</text></g>
<g><title>75 (position.label in template: 3109.G)</title><text x="186.981" y="81.1622" class="black" >G</text></g>
<g><title>76 (position.label in template: 3110.A)</title><text x="186.773" y="77.5302" class="black" >A</text></g>
<g><title>77 (position.label in template: 3111.G)</title><text x="184.247" y="76.0712" class="black" >G</text></g>
<g><title>78 (position.label in template: 3112.C)</title><text x="181.721" y="74.6122" class="black" >C</text></g>
<g><title>79 (position.label in template: 3113.U)</title><text x="179.195" y="73.1532" class="black" >U</text></g>
<g><title>80 (position.label in template: 3114.G)</title><text x="176.381" y="73.6192" class="black" >G</text></g>
<g><title>81 (position.label in template: 3115.G)</title><text x="174.586" y="70.1342" class="black" >G</text></g>
<g><title>82 (position.label in template: 3116.G)</title><text x="171.564" y="66.9362" class="black" >G</text></g>
<g><title>83 (position.label in template: 3117.U)</title><text x="169.024" y="68.6522" class="black" >U</text></g>
<g><title>84 (position.label in template: 3118.U)</title><text x="165.777" y="69.6042" class="black" >U</text></g>
<g><title>85 (position.label in template: 3119.U)</title><text x="162.387" y="70.4032" class="black" >U</text></g>
<g><title>86 (position.label in template: 3120.A)</title><text x="159.236" y="70.7672" class="black" >A</text></g>
<g><title>87 (position.label in template: 3121.G)</title><text x="155.588" y="71.4572" class="black" >G</text></g>
<g><line x1="154.394" y1="71.278" x2="147.06" y2="71.278" class="black" /></g>
<g><title>88 (position.label in template: 3122.A)</title><text x="155.588" y="74.3742" class="black" >A</text></g>
<g><line x1="154.394" y1="74.195" x2="147.06" y2="74.195" class="black" /></g>
<g><title>89 (position.label in template: 3123.C)</title><text x="155.588" y="77.2912" class="black" >C</text></g>
<g><line x1="154.394" y1="77.112" x2="147.06" y2="77.112" class="black" /></g>
<g><title>90 (position.label in template: 3124.C)</title><text x="155.588" y="80.2082" class="black" >C</text></g>
<g><line x1="154.394" y1="80.029" x2="147.06" y2="80.029" class="black" /></g>
<g><title>91 (position.label in template: 3125.G)</title><text x="155.626" y="85.5912" class="black" >G</text></g>
<g><line x1="154.432" y1="85.412" x2="147.098" y2="85.412" class="black" /></g>
<g><title>92 (position.label in template: 3126.U)</title><text x="155.626" y="88.5082" class="black" >U</text></g>
<g><line x1="154.432" y1="88.329" x2="147.098" y2="88.329" class="black" /></g>
<g><title>93 (position.label in template: 3127.C)</title><text x="155.626" y="91.4252" class="black" >C</text></g>
<g><line x1="154.432" y1="91.246" x2="147.098" y2="91.246" class="black" /></g>
<g><title>94 (position.label in template: 3128.G)</title><text x="154.616" y="94.1612" class="black" >G</text></g>
<g><title>95 (position.label in template: 3129.U)</title><text x="152.223" y="95.8292" class="black" >U</text></g>
<g><title>96 (position.label in template: 3130.G)</title><text x="149.307" y="95.8292" class="black" >G</text></g>
<g><title>97 (position.label in template: 3131.A)</title><text x="146.914" y="94.1612" class="black" >A</text></g>
<g><title>98 (position.label in template: 3132.G)</title><text x="145.903" y="91.4252" class="black" >G</text></g>
<g><title>99 (position.label in template: 3133.A)</title><text x="145.903" y="88.5082" class="black" >A</text></g>
<g><title>100 (position.label in template: 3134.C)</title><text x="145.903" y="85.5912" class="black" >C</text></g>
<g><title>100 (inserted)</title><text x="142.011" y="86.6388" class="numbering-label sequential" >100</text></g>
<g><title>100 (inserted)</title><text x="142.011" y="86.6388" class="numbering-label template" >3134</text></g>
<g><line x1="144.865" y1="85.8705" x2="143.623" y2="86.2048" class="numbering-line sequential" /></g>
<g><line x1="144.865" y1="85.8705" x2="143.623" y2="86.2048" class="numbering-line template" /></g>
<g><title>101 (position.label in template: 3135.A)</title><text x="144.375" y="82.8312" class="black" >A</text></g>
<g><title>102 (position.label in template: 3136.G)</title><text x="145.865" y="80.2082" class="black" >G</text></g>
<g><title>103 (position.label in template: 3137.G)</title><text x="145.865" y="77.2912" class="black" >G</text></g>
<g><title>104 (position.label in template: 3138.U)</title><text x="145.865" y="74.3742" class="black" >U</text></g>
<g><title>105 (position.label in template: 3139.U)</title><text x="145.865" y="71.4572" class="black" >U</text></g>
<g><title>106 (position.label in template: 3140.A)</title><text x="146.049" y="67.9672" class="green" >G</text></g>
<g><title>107 (position.label in template: 3141.G)</title><text x="143.042" y="66.5992" class="black" >G</text></g>
<g><title>108 (position.label in template: 3142.U)</title><text x="140.018" y="64.8302" class="black" >U</text></g>
<g><title>109 (position.label in template: 3143.U)</title><text x="137.422" y="62.4542" class="black" >U</text></g>
<g><title>110 (inserted)</title><text x="136.6" y="63.6586" class="red" >U</text></g>
<g><title>111 (inserted)</title><text x="133.31" y="68.4764" class="red" >U</text></g>
<g><title>112 (position.label in template: 3146.A)</title><text x="132.487" y="69.6808" class="black" >A</text></g>
<g><title>113 (position.label in template: 3147.C)</title><text x="129.781" y="74.1738" class="black" >C</text></g>
<g><title>114 (inserted)</title><text x="127.546" y="78.1621" class="red" >C</text></g>
<g><title>115 (inserted)</title><text x="126.12" y="80.7068" class="red" >C</text></g>
<g><title>116 (inserted)</title><text x="124.694" y="83.2514" class="red" >U</text></g>
<g><title>117 (position.label in template: 3151.A)</title><text x="122.459" y="87.2398" class="black" >A</text></g>
<g><title>118 (inserted)</title><text x="118.99" y="91.6117" class="red" >C</text></g>
<g><title>119 (inserted)</title><text x="117.176" y="93.8965" class="red" >U</text></g>
<g><title>120 (inserted)</title><text x="115.363" y="96.1813" class="red" >U</text></g>
<g><title>121 (inserted)</title><text x="113.549" y="98.4661" class="red" >G</text></g>
<g><title>122 (inserted)</title><text x="111.736" y="100.751" class="red" >G</text></g>
<g><title>123 (position.label in template: 3157.G)</title><text x="108.266" y="105.123" class="green" >C</text></g>
<g><title>124 (position.label in template: 3158.A)</title><text x="106.488" y="109.91" class="green" >U</text></g>
<g><title>125 (position.label in template: 3159.C)</title><text x="108.42" y="116.174" class="green" >G</text></g>
<g><title>126 (position.label in template: 3160.A)</title><text x="111.61" y="122.743" class="green" >G</text></g>
<g><title>127 (position.label in template: 3161.G)</title><text x="117.848" y="128.573" class="green" >A</text></g>
<g><line x1="117.848" y1="129.588" x2="117.848" y2="136.922" class="black" /></g>
<g><title>128 (inserted)</title><text x="117.309" y="125.703" class="red" >G</text></g>
<g><title>129 (inserted)</title><text x="116.525" y="122.889" class="red" >A</text></g>
<g><title>130 (inserted)</title><text x="115.504" y="120.153" class="red" >U</text></g>
<g><title>131 (inserted)</title><text x="114.252" y="117.515" class="red" >U</text></g>
<g><title>132 (inserted)</title><text x="112.78" y="114.993" class="red" >G</text></g>
<g><title>133 (inserted)</title><text x="111.096" y="112.606" class="red" >C</text></g>
<g><title>134 (inserted)</title><text x="109.215" y="110.373" class="red" >G</text></g>
<g><title>135 (inserted)</title><text x="107.15" y="108.308" class="red" >A</text></g>
<g><title>136 (inserted)</title><text x="104.915" y="106.428" class="red" >G</text></g>
<g><title>137 (inserted)</title><text x="102.528" y="104.746" class="red" >U</text></g>
<g><title>138 (inserted)</title><text x="100.006" y="103.274" class="red" >A</text></g>
<g><title>139 (inserted)</title><text x="97.3664" y="102.023" class="red" >A</text></g>
<g><title>140 (inserted)</title><text x="94.63" y="101.003" class="red" >A</text></g>
<g><title>141 (inserted)</title><text x="91.8163" y="100.221" class="red" >A</text></g>
<g><title>142 (inserted)</title><text x="88.946" y="99.6823" class="red" >G</text></g>
<g><title>143 (inserted)</title><text x="86.0402" y="99.3913" class="red" >A</text></g>
<g><title>144 (inserted)</title><text x="83.1201" y="99.35" class="red" >U</text></g>
<g><title>145 (inserted)</title><text x="80.2071" y="99.5587" class="red" >U</text></g>
<g><title>146 (inserted)</title><text x="77.3227" y="100.016" class="red" >A</text></g>
<g><title>147 (inserted)</title><text x="74.4881" y="100.718" class="red" >U</text></g>
<g><title>148 (inserted)</title><text x="71.7239" y="101.661" class="red" >C</text></g>
<g><title>149 (inserted)</title><text x="69.0505" y="102.836" class="red" >C</text></g>
<g><title>150 (inserted)</title><text x="66.4874" y="104.236" class="red" >G</text></g>
<g><title>150 (inserted)</title><text x="64.4057" y="100.784" class="numbering-label sequential" >150</text></g>
<g><line x1="65.9323" y1="103.315" x2="64.9459" y2="101.68" class="numbering-line sequential" /></g>
<g><title>151 (inserted)</title><text x="64.0536" y="105.85" class="red" >C</text></g>
<g><title>152 (inserted)</title><text x="61.7668" y="107.666" class="red" >C</text></g>
<g><title>153 (inserted)</title><text x="59.6437" y="109.672" class="red" >A</text></g>
<g><title>154 (inserted)</title><text x="57.7001" y="111.851" class="red" >A</text></g>
<g><title>155 (inserted)</title><text x="55.9501" y="114.189" class="red" >A</text></g>
<g><title>156 (inserted)</title><text x="54.4066" y="116.668" class="red" >G</text></g>
<g><title>157 (inserted)</title><text x="53.0809" y="119.27" class="red" >C</text></g>
<g><title>158 (inserted)</title><text x="51.9827" y="121.977" class="red" >G</text></g>
<g><title>159 (inserted)</title><text x="51.12" y="124.767" class="red" >G</text></g>
<g><title>160 (inserted)</title><text x="50.4993" y="127.62" class="red" >A</text></g>
<g><title>161 (inserted)</title><text x="50.1251" y="130.517" class="red" >G</text></g>
<g><title>162 (inserted)</title><text x="50" y="133.434" class="red" >G</text></g>
<g><title>163 (inserted)</title><text x="50.1251" y="136.352" class="red" >C</text></g>
<g><title>164 (inserted)</title><text x="50.4993" y="139.248" class="red" >A</text></g>
<g><title>165 (inserted)</title><text x="51.12" y="142.102" class="red" >G</text></g>
<g><title>166 (inserted)</title><text x="51.9827" y="144.892" class="red" >U</text></g>
<g><title>167 (inserted)</title><text x="53.0809" y="147.598" class="red" >C</text></g>
<g><title>168 (inserted)</title><text x="54.4066" y="150.2" class="red" >C</text></g>
<g><title>169 (inserted)</title><text x="55.9501" y="152.679" class="red" >G</text></g>
<g><title>170 (inserted)</title><text x="57.7001" y="155.017" class="red" >U</text></g>
<g><title>171 (inserted)</title><text x="59.6437" y="157.197" class="red" >U</text></g>
<g><title>172 (inserted)</title><text x="61.7668" y="159.202" class="red" >U</text></g>
<g><title>173 (inserted)</title><text x="64.0536" y="161.019" class="red" >U</text></g>
<g><title>174 (inserted)</title><text x="66.4874" y="162.633" class="red" >U</text></g>
<g><title>175 (inserted)</title><text x="69.0505" y="164.033" class="red" >U</text></g>
<g><title>176 (inserted)</title><text x="71.7239" y="165.208" class="red" >U</text></g>
<g><title>177 (inserted)</title><text x="74.4881" y="166.15" class="red" >C</text></g>
<g><title>178 (inserted)</title><text x="77.3227" y="166.853" class="red" >U</text></g>
<g><title>179 (inserted)</title><text x="80.2071" y="167.31" class="red" >G</text></g>
<g><title>180 (inserted)</title><text x="83.1201" y="167.519" class="red" >G</text></g>
<g><title>181 (inserted)</title><text x="86.0402" y="167.477" class="red" >G</text></g>
<g><title>182 (inserted)</title><text x="88.946" y="167.186" class="red" >U</text></g>
<g><title>183 (inserted)</title><text x="91.8163" y="166.648" class="red" >C</text></g>
<g><title>184 (inserted)</title><text x="94.63" y="165.865" class="red" >U</text></g>
<g><title>185 (inserted)</title><text x="97.3664" y="164.845" class="red" >G</text></g>
<g><title>186 (inserted)</title><text x="100.006" y="163.595" class="red" >C</text></g>
<g><title>187 (inserted)</title><text x="102.528" y="162.123" class="red" >C</text></g>
<g><title>188 (inserted)</title><text x="104.915" y="160.441" class="red" >G</text></g>
<g><title>189 (inserted)</title><text x="107.15" y="158.561" class="red" >U</text></g>
<g><title>190 (inserted)</title><text x="109.215" y="156.496" class="red" >U</text></g>
<g><title>191 (inserted)</title><text x="111.096" y="154.262" class="red" >C</text></g>
<g><title>192 (inserted)</title><text x="112.78" y="151.876" class="red" >G</text></g>
<g><title>193 (inserted)</title><text x="114.252" y="149.354" class="red" >G</text></g>
<g><title>194 (inserted)</title><text x="115.504" y="146.715" class="red" >U</text></g>
<g><title>195 (inserted)</title><text x="116.525" y="143.979" class="red" >G</text></g>
<g><title>196 (inserted)</title><text x="117.309" y="141.166" class="red" >G</text></g>
<g><title>197 (position.label in template: 3312.C)</title><text x="117.848" y="138.296" class="green" >C</text></g>
<g><title>198 (position.label in template: 3313.A)</title><text x="116.352" y="140.8" class="black" >A</text></g>
<g><title>199 (position.label in template: 3314.U)</title><text x="117.238" y="143.579" class="black" >U</text></g>
<g><title>200 (position.label in template: 3315.G)</title><text x="118.538" y="146.19" class="black" >G</text></g>
<g><title>200 (inserted)</title><text x="114.783" y="147.657" class="numbering-label sequential" >200</text></g>
<g><title>200 (inserted)</title><text x="114.783" y="147.657" class="numbering-label template" >3315</text></g>
<g><line x1="117.537" y1="146.581" x2="117.076" y2="146.761" class="numbering-line sequential" /></g>
<g><line x1="117.537" y1="146.581" x2="117.076" y2="146.761" class="numbering-line template" /></g>
<g><title>201 (position.label in template: 3316.C)</title><text x="119.353" y="148.991" class="green" >U</text></g>
<g><title>202 (position.label in template: 3317.G)</title><text x="120.18" y="151.788" class="black" >G</text></g>
<g><title>203 (inserted)</title><text x="121.006" y="154.586" class="red" >C</text></g>
<g><title>204 (inserted)</title><text x="121.833" y="157.383" class="red" >U</text></g>
<g><title>205 (inserted)</title><text x="122.66" y="160.181" class="red" >U</text></g>
<g><title>206 (inserted)</title><text x="123.486" y="162.978" class="red" >G</text></g>
<g><title>207 (inserted)</title><text x="124.313" y="165.775" class="red" >G</text></g>
<g><title>208 (inserted)</title><text x="125.139" y="168.573" class="red" >C</text></g>
<g><title>209 (inserted)</title><text x="125.966" y="171.37" class="red" >G</text></g>
<g><title>210 (inserted)</title><text x="126.793" y="174.167" class="red" >C</text></g>
<g><title>211 (inserted)</title><text x="127.619" y="176.965" class="red" >U</text></g>
<g><title>212 (position.label in template: 3552.3')</title><text x="128.446" y="179.762" class="green" >3'</text></g>
<g><line x1="185.88" y1="48.2683" x2="185.651" y2="48.7445" class="gray" /></g>
<g><line x1="184.616" y1="50.8972" x2="184.387" y2="51.3735" class="gray" /></g>
<g><line x1="183.588" y1="53.6104" x2="183.463" y2="54.1239" class="gray" /></g>
<g><line x1="182.39" y1="56.1791" x2="182.04" y2="56.5749" class="gray" /></g>
<g><line x1="180.57" y1="58.452" x2="180.27" y2="58.8866" class="gray" /></g>
<g><line x1="180.1" y1="60.9491" x2="180.326" y2="61.427" class="gray" /></g>
<g><line x1="181.843" y1="63.1473" x2="183.05" y2="63.9137" class="gray" /></g>
<g><line x1="185.092" y1="65.1514" x2="185.55" y2="65.4157" class="gray" /></g>
<g><line x1="187.618" y1="66.6104" x2="188.076" y2="66.8747" class="gray" /></g>
<g><line x1="190.145" y1="68.0691" x2="190.602" y2="68.333" class="gray" /></g>
<g><line x1="192.683" y1="69.5059" x2="197.212" y2="71.9991" class="gray" /></g>
<g><line x1="199.291" y1="73.1746" x2="203.651" y2="75.7055" class="gray" /></g>
<g><line x1="205.719" y1="76.9022" x2="206.177" y2="77.1669" class="gray" /></g>
<g><line x1="208.246" y1="78.3609" x2="208.704" y2="78.6252" class="gray" /></g>
<g><line x1="210.772" y1="79.8194" x2="211.23" y2="80.0837" class="gray" /></g>
<g><line x1="213.299" y1="81.2781" x2="213.756" y2="81.542" class="gray" /></g>
<g><line x1="215.958" y1="82.3915" x2="217.368" y2="82.6966" class="gray" /></g>
<g><line x1="219.638" y1="83.4068" x2="222.046" y2="84.4062" class="gray" /></g>
<g><line x1="224.264" y1="85.2922" x2="226.471" y2="86.1399" class="gray" /></g>
<g><line x1="228.781" y1="86.568" x2="229.309" y2="86.568" class="gray" /></g>
<g><line x1="231.698" y1="86.568" x2="232.226" y2="86.568" class="gray" /></g>
<g><line x1="234.577" y1="86.2721" x2="239.14" y2="85.105" class="gray" /></g>
<g><line x1="241.365" y1="85.3433" x2="242.146" y2="85.7338" class="gray" /></g>
<g><line x1="244.409" y1="86.268" x2="244.937" y2="86.268" class="gray" /></g>
<g><line x1="247.326" y1="86.268" x2="247.854" y2="86.268" class="gray" /></g>
<g><line x1="250.243" y1="86.268" x2="250.77" y2="86.268" class="gray" /></g>
<g><line x1="253.159" y1="86.268" x2="253.687" y2="86.268" class="gray" /></g>
<g><line x1="256.068" y1="86.1325" x2="256.594" y2="86.0725" class="gray" /></g>
<g><line x1="258.857" y1="86.4545" x2="259.333" y2="86.6835" class="gray" /></g>
<g><line x1="261.045" y1="88.2119" x2="261.327" y2="88.6602" class="gray" /></g>
<g><line x1="261.963" y1="90.8653" x2="261.963" y2="91.3937" class="gray" /></g>
<g><line x1="261.327" y1="93.5988" x2="261.045" y2="94.0463" class="gray" /></g>
<g><line x1="259.333" y1="95.5742" x2="258.857" y2="95.8029" class="gray" /></g>
<g><line x1="256.594" y1="96.1854" x2="256.068" y2="96.1257" class="gray" /></g>
<g><line x1="253.687" y1="95.991" x2="253.159" y2="95.991" class="gray" /></g>
<g><line x1="250.77" y1="95.991" x2="250.243" y2="95.991" class="gray" /></g>
<g><line x1="247.854" y1="95.991" x2="247.326" y2="95.991" class="gray" /></g>
<g><line x1="244.937" y1="95.991" x2="244.409" y2="95.991" class="gray" /></g>
<g><line x1="242.146" y1="96.525" x2="241.366" y2="96.9151" class="gray" /></g>
<g><line x1="237.449" y1="99.0093" x2="236.793" y2="99.0657" class="gray" /></g>
<g><line x1="234.881" y1="98.2166" x2="234.142" y2="97.2424" class="gray" /></g>
<g><line x1="232.226" y1="96.291" x2="231.698" y2="96.291" class="gray" /></g>
<g><line x1="229.309" y1="96.291" x2="228.781" y2="96.291" class="gray" /></g>
<g><line x1="226.496" y1="96.7777" x2="226.001" y2="96.9984" class="gray" /></g>
<g><line x1="223.928" y1="98.1646" x2="223.613" y2="98.3824" class="gray" /></g>
<g><line x1="222.631" y1="100.256" x2="222.631" y2="100.785" class="gray" /></g>
<g><line x1="222.631" y1="103.173" x2="222.631" y2="103.702" class="gray" /></g>
<g><line x1="223.166" y1="105.964" x2="223.556" y2="106.745" class="gray" /></g>
<g><line x1="224.106" y1="109.007" x2="224.113" y2="109.537" class="gray" /></g>
<g><line x1="223.62" y1="111.812" x2="223.394" y2="112.291" class="gray" /></g>
<g><line x1="221.956" y1="114.122" x2="221.544" y2="114.453" class="gray" /></g>
<g><line x1="219.45" y1="115.471" x2="218.934" y2="115.589" class="gray" /></g>
<g><line x1="216.606" y1="115.589" x2="216.091" y2="115.471" class="gray" /></g>
<g><line x1="213.997" y1="114.454" x2="213.585" y2="114.121" class="gray" /></g>
<g><line x1="212.147" y1="112.291" x2="211.922" y2="111.812" class="gray" /></g>
<g><line x1="211.428" y1="109.537" x2="211.435" y2="109.007" class="gray" /></g>
<g><line x1="211.984" y1="106.745" x2="212.374" y2="105.964" class="gray" /></g>
<g><line x1="212.908" y1="103.702" x2="212.908" y2="103.173" class="gray" /></g>
<g><line x1="212.908" y1="100.785" x2="212.908" y2="100.256" class="gray" /></g>
<g><line x1="211.793" y1="99.4898" x2="210.895" y2="99.8343" class="gray" /></g>
<g><line x1="208.605" y1="100.474" x2="207.557" y2="100.662" class="gray" /></g>
<g><line x1="205.39" y1="100.207" x2="204.007" y2="99.2767" class="gray" /></g>
<g><line x1="203.482" y1="97.5102" x2="204.14" y2="95.9549" class="gray" /></g>
<g><line x1="205.748" y1="94.5071" x2="206.816" y2="94.1819" class="gray" /></g>
<g><line x1="208.574" y1="92.8107" x2="209.313" y2="91.5834" class="gray" /></g>
<g><line x1="208.894" y1="89.963" x2="208.437" y2="89.6991" class="gray" /></g>
<g><line x1="206.368" y1="88.5049" x2="205.91" y2="88.2402" class="gray" /></g>
<g><line x1="203.841" y1="87.0457" x2="203.383" y2="86.7814" class="gray" /></g>
<g><line x1="201.315" y1="85.587" x2="200.858" y2="85.3231" class="gray" /></g>
<g><line x1="198.713" y1="85.1653" x2="197.852" y2="85.5058" class="gray" /></g>
<g><line x1="195.708" y1="85.3456" x2="194.898" y2="84.8755" class="gray" /></g>
<g><line x1="193.697" y1="83.0937" x2="193.566" y2="82.1783" class="gray" /></g>
<g><line x1="192.35" y1="81.5698" x2="191.241" y2="82.1773" class="gray" /></g>
<g><line x1="189.147" y1="82.1751" x2="188.028" y2="81.5589" class="gray" /></g>
<g><line x1="186.913" y1="79.7907" x2="186.842" y2="78.5434" class="gray" /></g>
<g><line x1="185.739" y1="76.7537" x2="185.281" y2="76.4894" class="gray" /></g>
<g><line x1="183.213" y1="75.2947" x2="182.755" y2="75.0304" class="gray" /></g>
<g><line x1="180.687" y1="73.8357" x2="180.229" y2="73.5714" class="gray" /></g>
<g><line x1="178.017" y1="73.1691" x2="177.56" y2="73.2449" class="gray" /></g>
<g><line x1="175.834" y1="72.3783" x2="175.133" y2="71.0168" class="gray" /></g>
<g><line x1="173.766" y1="69.087" x2="172.385" y2="67.6251" class="gray" /></g>
<g><line x1="170.575" y1="67.4256" x2="170.014" y2="67.8044" class="gray" /></g>
<g><line x1="167.878" y1="68.809" x2="166.923" y2="69.089" class="gray" /></g>
<g><line x1="164.615" y1="69.699" x2="163.55" y2="69.95" class="gray" /></g>
<g><line x1="161.201" y1="70.3611" x2="160.423" y2="70.451" class="gray" /></g>
<g><line x1="158.063" y1="70.81" x2="156.762" y2="71.0561" class="gray" /></g>
<g><line x1="155.588" y1="72.4723" x2="155.588" y2="73.0007" class="gray" /></g>
<g><line x1="155.588" y1="75.3893" x2="155.588" y2="75.9177" class="gray" /></g>
<g><line x1="155.588" y1="78.3063" x2="155.588" y2="78.8347" class="gray" /></g>
<g><line x1="155.597" y1="81.2233" x2="155.618" y2="84.2178" class="gray" /></g>
<g><line x1="155.626" y1="86.6063" x2="155.626" y2="87.1347" class="gray" /></g>
<g><line x1="155.626" y1="89.5233" x2="155.626" y2="90.0517" class="gray" /></g>
<g><line x1="155.213" y1="92.3664" x2="155.03" y2="92.8616" class="gray" /></g>
<g><line x1="153.637" y1="94.665" x2="153.203" y2="94.9671" class="gray" /></g>
<g><line x1="151.029" y1="95.65" x2="150.502" y2="95.65" class="gray" /></g>
<g><line x1="148.328" y1="94.9671" x2="147.894" y2="94.665" class="gray" /></g>
<g><line x1="146.5" y1="92.8618" x2="146.317" y2="92.3663" class="gray" /></g>
<g><line x1="145.903" y1="90.0517" x2="145.903" y2="89.5233" class="gray" /></g>
<g><line x1="145.903" y1="87.1347" x2="145.903" y2="86.6063" class="gray" /></g>
<g><line x1="145.325" y1="84.3672" x2="144.954" y2="83.6969" class="gray" /></g>
<g><line x1="144.965" y1="81.6136" x2="145.275" y2="81.0675" class="gray" /></g>
<g><line x1="145.865" y1="78.8347" x2="145.865" y2="78.3063" class="gray" /></g>
<g><line x1="145.865" y1="75.9177" x2="145.865" y2="75.3893" class="gray" /></g>
<g><line x1="145.865" y1="73.0007" x2="145.865" y2="72.4723" class="gray" /></g>
<g><line x1="145.928" y1="70.0854" x2="145.986" y2="68.9807" class="gray" /></g>
<g><line x1="144.962" y1="67.2935" x2="144.129" y2="66.9146" class="gray" /></g>
<g><line x1="142.011" y1="65.817" x2="141.049" y2="65.2541" class="gray" /></g>
<g><line x1="139.137" y1="63.8447" x2="138.303" y2="63.0814" class="gray" /></g>
<g><line x1="135.926" y1="64.4657" x2="133.983" y2="67.3109" class="gray" /></g>
<g><line x1="131.871" y1="70.5247" x2="130.398" y2="72.9716" class="gray" /></g>
<g><line x1="129.197" y1="75.0365" x2="128.13" y2="76.9411" class="gray" /></g>
<g><line x1="126.962" y1="79.0249" x2="126.704" y2="79.4858" class="gray" /></g>
<g><line x1="125.536" y1="81.5695" x2="125.278" y2="82.0304" class="gray" /></g>
<g><line x1="124.111" y1="84.1141" x2="123.043" y2="86.0188" class="gray" /></g>
<g><line x1="121.717" y1="87.9961" x2="119.732" y2="90.497" class="gray" /></g>
<g><line x1="118.247" y1="92.368" x2="117.919" y2="92.7819" class="gray" /></g>
<g><line x1="116.434" y1="94.6528" x2="116.105" y2="95.0667" class="gray" /></g>
<g><line x1="114.62" y1="96.9376" x2="114.292" y2="97.3515" class="gray" /></g>
<g><line x1="112.807" y1="99.2224" x2="112.479" y2="99.6363" class="gray" /></g>
<g><line x1="110.994" y1="101.507" x2="109.009" y2="104.008" class="gray" /></g>
<g><line x1="107.851" y1="106.063" x2="106.904" y2="108.611" class="gray" /></g>
<g><line x1="106.84" y1="110.872" x2="108.068" y2="114.853" class="gray" /></g>
<g><line x1="108.942" y1="117.069" x2="111.089" y2="121.489" class="gray" /></g>
<g><line x1="112.483" y1="123.379" x2="116.976" y2="127.578" class="gray" /></g>
<g><line x1="117.628" y1="127.22" x2="117.529" y2="126.697" class="gray" /></g>
<g><line x1="116.988" y1="124.373" x2="116.846" y2="123.861" class="gray" /></g>
<g><line x1="116.108" y1="121.591" x2="115.922" y2="121.093" class="gray" /></g>
<g><line x1="114.992" y1="118.895" x2="114.764" y2="118.415" class="gray" /></g>
<g><line x1="113.65" y1="116.304" x2="113.382" y2="115.845" class="gray" /></g>
<g><line x1="112.091" y1="113.838" x2="111.785" y2="113.403" class="gray" /></g>
<g><line x1="110.327" y1="111.514" x2="109.984" y2="111.107" class="gray" /></g>
<g><line x1="108.371" y1="109.349" x2="107.994" y2="108.973" class="gray" /></g>
<g><line x1="106.236" y1="107.36" x2="105.829" y2="107.018" class="gray" /></g>
<g><line x1="103.939" y1="105.561" x2="103.504" y2="105.254" class="gray" /></g>
<g><line x1="101.496" y1="103.964" x2="101.037" y2="103.696" class="gray" /></g>
<g><line x1="98.9263" y1="102.583" x2="98.4457" y2="102.355" class="gray" /></g>
<g><line x1="96.2474" y1="101.427" x2="95.7491" y2="101.241" class="gray" /></g>
<g><line x1="93.4793" y1="100.504" x2="92.967" y2="100.362" class="gray" /></g>
<g><line x1="90.6425" y1="99.8215" x2="90.1198" y2="99.7234" class="gray" /></g>
<g><line x1="87.7577" y1="99.3841" x2="87.2285" y2="99.3312" class="gray" /></g>
<g><line x1="84.846" y1="99.1953" x2="84.3142" y2="99.1877" class="gray" /></g>
<g><line x1="81.9288" y1="99.2562" x2="81.3984" y2="99.2942" class="gray" /></g>
<g><line x1="79.0276" y1="99.5665" x2="78.5023" y2="99.6498" class="gray" /></g>
<g><line x1="76.1635" y1="100.124" x2="75.6473" y2="100.252" class="gray" /></g>
<g><line x1="73.3577" y1="100.924" x2="72.8543" y2="101.096" class="gray" /></g>
<g><line x1="70.6306" y1="101.962" x2="70.1438" y2="102.176" class="gray" /></g>
<g><line x1="68.0023" y1="103.229" x2="67.5356" y2="103.484" class="gray" /></g>
<g><line x1="65.4921" y1="104.717" x2="65.0489" y2="105.011" class="gray" /></g>
<g><line x1="63.1184" y1="106.413" x2="62.702" y2="106.744" class="gray" /></g>
<g><line x1="60.8986" y1="108.307" x2="60.5119" y2="108.672" class="gray" /></g>
<g><line x1="58.8489" y1="110.384" x2="58.495" y2="110.781" class="gray" /></g>
<g><line x1="56.9844" y1="112.628" x2="56.6658" y2="113.054" class="gray" /></g>
<g><line x1="55.3189" y1="115.024" x2="55.0378" y2="115.475" class="gray" /></g>
<g><line x1="53.8644" y1="117.553" x2="53.623" y2="118.027" class="gray" /></g>
<g><line x1="52.6318" y1="120.198" x2="52.4318" y2="120.691" class="gray" /></g>
<g><line x1="51.6299" y1="122.938" x2="51.4728" y2="123.446" class="gray" /></g>
<g><line x1="50.8662" y1="125.754" x2="50.7532" y2="126.274" class="gray" /></g>
<g><line x1="50.3463" y1="128.626" x2="50.2781" y2="129.153" class="gray" /></g>
<g><line x1="50.0739" y1="131.531" x2="50.0511" y2="132.062" class="gray" /></g>
<g><line x1="50.0511" y1="134.448" x2="50.0739" y2="134.98" class="gray" /></g>
<g><line x1="50.2781" y1="137.357" x2="50.3463" y2="137.885" class="gray" /></g>
<g><line x1="50.7532" y1="140.236" x2="50.8662" y2="140.756" class="gray" /></g>
<g><line x1="51.4728" y1="143.064" x2="51.6299" y2="143.572" class="gray" /></g>
<g><line x1="52.4318" y1="145.82" x2="52.6318" y2="146.312" class="gray" /></g>
<g><line x1="53.623" y1="148.483" x2="53.8644" y2="148.957" class="gray" /></g>
<g><line x1="55.0378" y1="151.035" x2="55.3189" y2="151.486" class="gray" /></g>
<g><line x1="56.6658" y1="153.456" x2="56.9844" y2="153.882" class="gray" /></g>
<g><line x1="58.495" y1="155.73" x2="58.8489" y2="156.127" class="gray" /></g>
<g><line x1="60.5119" y1="157.838" x2="60.8986" y2="158.203" class="gray" /></g>
<g><line x1="62.702" y1="159.766" x2="63.1184" y2="160.097" class="gray" /></g>
<g><line x1="65.0489" y1="161.5" x2="65.4921" y2="161.794" class="gray" /></g>
<g><line x1="67.5356" y1="163.026" x2="68.0023" y2="163.281" class="gray" /></g>
<g><line x1="70.1438" y1="164.334" x2="70.6306" y2="164.548" class="gray" /></g>
<g><line x1="72.8543" y1="165.414" x2="73.3577" y2="165.586" class="gray" /></g>
<g><line x1="75.6473" y1="166.258" x2="76.1635" y2="166.386" class="gray" /></g>
<g><line x1="78.5023" y1="166.86" x2="79.0276" y2="166.944" class="gray" /></g>
<g><line x1="81.3984" y1="167.216" x2="81.9288" y2="167.254" class="gray" /></g>
<g><line x1="84.3142" y1="167.323" x2="84.846" y2="167.315" class="gray" /></g>
<g><line x1="87.2285" y1="167.179" x2="87.7577" y2="167.126" class="gray" /></g>
<g><line x1="90.1198" y1="166.787" x2="90.6425" y2="166.689" class="gray" /></g>
<g><line x1="92.967" y1="166.149" x2="93.4793" y2="166.006" class="gray" /></g>
<g><line x1="95.7491" y1="165.269" x2="96.2474" y2="165.083" class="gray" /></g>
<g><line x1="98.4457" y1="164.155" x2="98.9263" y2="163.927" class="gray" /></g>
<g><line x1="101.037" y1="162.814" x2="101.496" y2="162.546" class="gray" /></g>
<g><line x1="103.504" y1="161.256" x2="103.939" y2="160.95" class="gray" /></g>
<g><line x1="105.829" y1="159.493" x2="106.236" y2="159.15" class="gray" /></g>
<g><line x1="107.994" y1="157.537" x2="108.371" y2="157.161" class="gray" /></g>
<g><line x1="109.984" y1="155.403" x2="110.327" y2="154.997" class="gray" /></g>
<g><line x1="111.785" y1="153.107" x2="112.091" y2="152.672" class="gray" /></g>
<g><line x1="113.382" y1="150.665" x2="113.65" y2="150.206" class="gray" /></g>
<g><line x1="114.764" y1="148.096" x2="114.992" y2="147.615" class="gray" /></g>
<g><line x1="115.922" y1="145.417" x2="116.108" y2="144.919" class="gray" /></g>
<g><line x1="116.846" y1="142.65" x2="116.988" y2="142.137" class="gray" /></g>
<g><line x1="117.529" y1="139.813" x2="117.628" y2="139.29" class="gray" /></g>
<g><line x1="117.236" y1="139.142" x2="116.965" y2="139.595" class="gray" /></g>
<g><line x1="116.715" y1="141.758" x2="116.875" y2="142.262" class="gray" /></g>
<g><line x1="117.77" y1="144.469" x2="118.006" y2="144.942" class="gray" /></g>
<g><line x1="118.872" y1="147.158" x2="119.019" y2="147.665" class="gray" /></g>
<g><line x1="119.691" y1="149.957" x2="119.841" y2="150.464" class="gray" /></g>
<g><line x1="120.518" y1="152.755" x2="120.668" y2="153.261" class="gray" /></g>
<g><line x1="121.345" y1="155.552" x2="121.494" y2="156.059" class="gray" /></g>
<g><line x1="122.171" y1="158.349" x2="122.321" y2="158.856" class="gray" /></g>
<g><line x1="122.998" y1="161.147" x2="123.148" y2="161.653" class="gray" /></g>
<g><line x1="123.825" y1="163.944" x2="123.974" y2="164.451" class="gray" /></g>
<g><line x1="124.651" y1="166.742" x2="124.801" y2="167.248" class="gray" /></g>
<g><line x1="125.478" y1="169.539" x2="125.628" y2="170.046" class="gray" /></g>
<g><line x1="126.305" y1="172.336" x2="126.454" y2="172.843" class="gray" /></g>
<g><line x1="127.131" y1="175.134" x2="127.281" y2="175.64" class="gray" /></g>
<g><line x1="127.958" y1="177.931" x2="128.108" y2="178.438" class="gray" /></g>
</svg>
