<svg
	xmlns="http://www.w3.org/2000/svg"
	width="341.922"
	height="272.66"
	style="font-size: 3.045014px; font-weight: bold; font-family: Helvetica; " >
<g><style type="text/css" >
<!-- create color definitions -->
<![CDATA[
text.red {fill: rgb(255, 0, 255); }
text.green {fill: rgb(0, 255, 0); }
text.blue {fill: rgb(0, 0, 255); }
text.black {fill: rgb(0, 0, 0); }
text.gray {fill: rgb(204, 204, 204); }
text.brown {fill: rgb(211.65, 104.55, 30.6); }
text {fill: rgb(0, 0, 0); text-anchor: middle; alignment-baseline: middle; }
circle.red {stroke: rgb(255, 0, 255); fill: none; }
circle.green {stroke: rgb(0, 255, 0); fill: none; }
circle.blue {stroke: rgb(0, 0, 255); fill: none; }
circle.black {stroke: rgb(0, 0, 0); fill: none; }
circle.gray {stroke: rgb(204, 204, 204); fill: none; }
circle.brown {stroke: rgb(211.65, 104.55, 30.6); fill: none; }
circle {stroke: rgb(0, 0, 0); }
line.red {stroke: rgb(255, 0, 255); stroke-width: 0.380627; }
line.green {stroke: rgb(0, 255, 0); stroke-width: 0.380627; }
line.blue {stroke: rgb(0, 0, 255); stroke-width: 0.380627; }
line.black {stroke: rgb(0, 0, 0); stroke-width: 0.380627; }
line.gray {stroke: rgb(204, 204, 204); stroke-width: 0.380627; }
line.brown {stroke: rgb(211.65, 104.55, 30.6); stroke-width: 0.380627; }
line {stroke: rgb(0, 0, 0); }
text.numbering-label {fill: rgb(204, 204, 204);}
line.numbering-line {stroke: rgb(204, 204, 204); stroke-width: 0.190313;}
line.predicted {stroke: rgb(0, 0, 0); stroke-dasharray: 2}
text.background {fill: rgb(255, 255, 255);
.template {visibility:hidden}
]]>
</style></g>
<g><title>0 (position.label in template: 0.5')</title><text x="92.1381" y="216.236" class="green" >5'</text></g>
<g><title>1 (position.label in template: 9.U)</title><text x="92.1381" y="208.678" class="green" >U</text></g>
<g><line x1="94.1681" y1="208.374" x2="102.138" y2="208.374" class="black" /></g>
<g><title>2 (position.label in template: 10.C)</title><text x="92.1381" y="201.118" class="green" >U</text></g>
<g><line x1="94.1681" y1="200.814" x2="102.138" y2="200.814" class="black" /></g>
<g><title>3 (position.label in template: 11.A)</title><text x="92.3481" y="193.558" class="black" >A</text></g>
<g><line x1="94.3781" y1="193.254" x2="102.348" y2="193.254" class="black" /></g>
<g><title>4 (position.label in template: 12.U)</title><text x="87.4281" y="187.648" class="green" >A</text></g>
<g><title>5 (position.label in template: 13.U)</title><text x="87.4281" y="180.088" class="black" >U</text></g>
<g><title>6 (position.label in template: 14.G)</title><text x="91.9281" y="174.168" class="green" >U</text></g>
<g><line x1="93.9581" y1="173.864" x2="102.348" y2="173.864" class="black" /></g>
<g><title>7 (position.label in template: 15.A)</title><text x="92.3481" y="166.608" class="black" >A</text></g>
<g><line x1="94.3781" y1="166.304" x2="102.348" y2="166.304" class="black" /></g>
<g><title>8 (position.label in template: 16.U)</title><text x="92.1381" y="159.048" class="green" >U</text></g>
<g><line x1="94.1681" y1="158.744" x2="102.558" y2="158.744" class="black" /></g>
<g><title>9 (position.label in template: 17.G)</title><text x="91.9281" y="151.488" class="black" >G</text></g>
<g><line x1="93.9581" y1="151.184" x2="102.348" y2="151.184" class="black" /></g>
<g><title>10 (inserted)</title><text x="84.646" y="149.961" class="red" >C</text></g>
<g><title>10 (inserted)</title><text x="82.7267" y="156.538" class="numbering-label sequential" >10</text></g>
<g><line x1="84.1342" y1="151.715" x2="83.171" y2="155.016" class="numbering-line sequential" /></g>
<g><title>11 (inserted)</title><text x="77.6856" y="147.332" class="red" >C</text></g>
<g><title>12 (inserted)</title><text x="71.2126" y="143.663" class="red" >U</text></g>
<g><title>13 (inserted)</title><text x="65.3811" y="139.042" class="red" >U</text></g>
<g><title>14 (inserted)</title><text x="60.33" y="133.579" class="red" >U</text></g>
<g><title>15 (inserted)</title><text x="56.1796" y="127.404" class="red" >A</text></g>
<g><title>16 (inserted)</title><text x="53.0287" y="120.663" class="red" >C</text></g>
<g><title>17 (inserted)</title><text x="50.9524" y="113.518" class="red" >U</text></g>
<g><title>18 (inserted)</title><text x="50" y="106.139" class="red" >C</text></g>
<g><title>19 (inserted)</title><text x="50.1943" y="98.7014" class="red" >U</text></g>
<g><title>20 (inserted)</title><text x="51.5306" y="91.3819" class="red" >G</text></g>
<g><title>20 (inserted)</title><text x="44.9058" y="89.635" class="numbering-label sequential" >20</text></g>
<g><line x1="49.764" y1="90.9161" x2="46.7328" y2="90.1168" class="numbering-line sequential" /></g>
<g><title>21 (inserted)</title><text x="53.9772" y="84.3552" class="red" >U</text></g>
<g><title>22 (inserted)</title><text x="57.4757" y="77.7886" class="red" >U</text></g>
<g><title>23 (inserted)</title><text x="61.9429" y="71.8384" class="red" >U</text></g>
<g><title>24 (inserted)</title><text x="67.2723" y="66.6464" class="red" >U</text></g>
<g><title>25 (inserted)</title><text x="73.3371" y="62.3362" class="red" >C</text></g>
<g><title>26 (inserted)</title><text x="79.9928" y="59.0103" class="red" >U</text></g>
<g><title>27 (inserted)</title><text x="87.081" y="56.7481" class="red" >G</text></g>
<g><title>28 (inserted)</title><text x="94.4328" y="55.6034" class="red" >A</text></g>
<g><title>29 (inserted)</title><text x="101.873" y="55.6034" class="red" >G</text></g>
<g><title>30 (inserted)</title><text x="109.225" y="56.7481" class="red" >U</text></g>
<g><title>30 (inserted)</title><text x="110.798" y="50.0799" class="numbering-label sequential" >30</text></g>
<g><line x1="109.645" y1="54.9699" x2="110.439" y2="51.6024" class="numbering-line sequential" /></g>
<g><title>31 (inserted)</title><text x="116.313" y="59.0103" class="red" >U</text></g>
<g><title>32 (inserted)</title><text x="122.969" y="62.3362" class="red" >G</text></g>
<g><title>33 (inserted)</title><text x="129.034" y="66.6464" class="red" >A</text></g>
<g><title>34 (inserted)</title><text x="134.363" y="71.8384" class="red" >G</text></g>
<g><title>35 (inserted)</title><text x="138.83" y="77.7886" class="red" >U</text></g>
<g><title>36 (inserted)</title><text x="142.329" y="84.3552" class="red" >U</text></g>
<g><title>37 (inserted)</title><text x="144.775" y="91.3819" class="red" >A</text></g>
<g><title>38 (inserted)</title><text x="146.112" y="98.7014" class="red" >U</text></g>
<g><title>39 (inserted)</title><text x="146.306" y="106.139" class="red" >U</text></g>
<g><title>40 (inserted)</title><text x="145.354" y="113.518" class="red" >U</text></g>
<g><title>41 (inserted)</title><text x="143.277" y="120.663" class="red" >U</text></g>
<g><title>42 (inserted)</title><text x="140.126" y="127.404" class="red" >U</text></g>
<g><title>43 (inserted)</title><text x="135.976" y="133.579" class="red" >G</text></g>
<g><title>44 (inserted)</title><text x="130.925" y="139.042" class="red" >C</text></g>
<g><title>45 (inserted)</title><text x="125.094" y="143.663" class="red" >U</text></g>
<g><title>46 (position.label in template: 41.U)</title><text x="118.621" y="147.332" class="blue" >U</text></g>
<g><title>47 (inserted)</title><text x="111.66" y="149.961" class="red" >G</text></g>
<g><title>48 (position.label in template: 43.U)</title><text x="104.378" y="151.488" class="black" >U</text></g>
<g><title>49 (position.label in template: 44.A)</title><text x="104.588" y="159.048" class="green" >G</text></g>
<g><title>50 (position.label in template: 45.U)</title><text x="104.378" y="166.608" class="black" >U</text></g>
<g><title>50 (inserted)</title><text x="111.229" y="166.703" class="numbering-label sequential" >50</text></g>
<g><line x1="106.205" y1="166.634" x2="109.402" y2="166.678" class="numbering-line sequential" /></g>
<g><title>51 (position.label in template: 46.U)</title><text x="104.378" y="174.168" class="green" >A</text></g>
<g><title>52 (position.label in template: 47.U)</title><text x="109.088" y="180.088" class="black" >U</text></g>
<g><title>53 (position.label in template: 48.U)</title><text x="109.088" y="187.648" class="black" >U</text></g>
<g><title>54 (position.label in template: 49.U)</title><text x="104.378" y="193.558" class="black" >U</text></g>
<g><title>55 (position.label in template: 50.G)</title><text x="104.168" y="201.118" class="green" >G</text></g>
<g><title>56 (position.label in template: 51.G)</title><text x="104.168" y="208.678" class="green" >A</text></g>
<g><title>57 (inserted)</title><text x="107.157" y="215.619" class="red" >A</text></g>
<g><title>58 (position.label in template: 53.U)</title><text x="110.147" y="222.56" class="green" >A</text></g>
<g><title>59 (position.label in template: 54.U)</title><text x="117.707" y="222.56" class="green" >G</text></g>
<g><title>60 (position.label in template: 55.U)</title><text x="125.267" y="222.56" class="black" >U</text></g>
<g><title>61 (position.label in template: 56.U)</title><text x="132.827" y="222.56" class="green" >C</text></g>
<g><title>62 (position.label in template: 57.G)</title><text x="140.177" y="222.56" class="green" >A</text></g>
<g><title>63 (position.label in template: 58.A)</title><text x="148.147" y="222.56" class="black" >A</text></g>
<g><title>64 (position.label in template: 59.U)</title><text x="155.507" y="222.56" class="black" >U</text></g>
<g><title>65 (position.label in template: 60.A)</title><text x="163.267" y="222.56" class="black" >A</text></g>
<g><title>66 (position.label in template: 61.A)</title><text x="170.827" y="222.56" class="green" >G</text></g>
<g><title>67 (position.label in template: 63.G)</title><text x="185.537" y="222.56" class="green" >A</text></g>
<g><title>68 (position.label in template: 64.A)</title><text x="193.507" y="222.56" class="black" >A</text></g>
<g><title>69 (position.label in template: 65.G)</title><text x="200.657" y="222.56" class="black" >G</text></g>
<g><title>70 (position.label in template: 66.A)</title><text x="208.627" y="222.56" class="black" >A</text></g>
<g><title>71 (position.label in template: 67.A)</title><text x="216.187" y="222.56" class="black" >A</text></g>
<g><title>72 (position.label in template: 68.A)</title><text x="223.747" y="222.56" class="black" >A</text></g>
<g><title>73 (position.label in template: 69.G)</title><text x="230.897" y="222.56" class="green" >A</text></g>
<g><title>74 (position.label in template: 70.A)</title><text x="238.867" y="222.56" class="black" >A</text></g>
<g><title>75 (position.label in template: 71.U)</title><text x="244.007" y="217.21" class="black" >U</text></g>
<g><line x1="246.037" y1="216.906" x2="254.427" y2="216.906" class="black" /></g>
<g><title>76 (position.label in template: 72.G)</title><text x="243.797" y="209.65" class="black" >G</text></g>
<g><line x1="245.827" y1="209.346" x2="254.217" y2="209.346" class="black" /></g>
<g><title>77 (position.label in template: 73.C)</title><text x="244.007" y="202.09" class="black" >C</text></g>
<g><line x1="246.037" y1="201.786" x2="254.007" y2="201.786" class="black" /></g>
<g><title>78 (position.label in template: 74.C)</title><text x="244.007" y="194.53" class="black" >C</text></g>
<g><line x1="246.037" y1="194.226" x2="254.007" y2="194.226" class="black" /></g>
<g><title>79 (position.label in template: 75.U)</title><text x="244.007" y="186.97" class="black" >U</text></g>
<g><line x1="246.037" y1="186.666" x2="254.427" y2="186.666" class="black" /></g>
<g><title>80 (position.label in template: 76.C)</title><text x="244.007" y="179.41" class="black" >C</text></g>
<g><line x1="246.037" y1="179.106" x2="254.007" y2="179.106" class="black" /></g>
<g><title>81 (position.label in template: 77.U)</title><text x="244.007" y="171.85" class="black" >U</text></g>
<g><line x1="246.037" y1="171.546" x2="254.007" y2="171.546" class="black" /></g>
<g><title>82 (position.label in template: 78.U)</title><text x="237.297" y="168.37" class="black" >U</text></g>
<g><title>83 (position.label in template: 79.C)</title><text x="232.277" y="162.72" class="black" >C</text></g>
<g><title>84 (position.label in template: 80.U)</title><text x="229.587" y="155.66" class="black" >U</text></g>
<g><title>85 (position.label in template: 81.U)</title><text x="229.587" y="148.1" class="black" >U</text></g>
<g><title>86 (position.label in template: 82.U)</title><text x="232.277" y="141.03" class="black" >U</text></g>
<g><title>87 (position.label in template: 83.C)</title><text x="237.297" y="135.39" class="black" >C</text></g>
<g><title>88 (position.label in template: 84.A)</title><text x="244.217" y="131.9" class="black" >A</text></g>
<g><line x1="246.247" y1="131.596" x2="254.217" y2="131.596" class="black" /></g>
<g><title>89 (position.label in template: 85.G)</title><text x="243.797" y="124.34" class="black" >G</text></g>
<g><line x1="245.827" y1="124.036" x2="254.217" y2="124.036" class="black" /></g>
<g><title>90 (position.label in template: 86.C)</title><text x="244.007" y="116.78" class="black" >C</text></g>
<g><line x1="246.037" y1="116.476" x2="254.007" y2="116.476" class="black" /></g>
<g><title>91 (position.label in template: 87.A)</title><text x="244.217" y="109.22" class="black" >A</text></g>
<g><line x1="246.247" y1="108.916" x2="254.217" y2="108.916" class="black" /></g>
<g><title>92 (position.label in template: 88.G)</title><text x="243.797" y="101.66" class="black" >G</text></g>
<g><line x1="245.827" y1="101.356" x2="254.217" y2="101.356" class="black" /></g>
<g><title>93 (position.label in template: 89.C)</title><text x="244.007" y="94.1003" class="black" >C</text></g>
<g><line x1="246.037" y1="93.7958" x2="254.007" y2="93.7958" class="black" /></g>
<g><title>94 (position.label in template: 90.A)</title><text x="244.217" y="86.5403" class="black" >A</text></g>
<g><line x1="246.247" y1="86.2358" x2="254.217" y2="86.2358" class="black" /></g>
<g><title>95 (position.label in template: 91.A)</title><text x="244.217" y="78.9803" class="black" >A</text></g>
<g><line x1="246.247" y1="78.6758" x2="254.217" y2="78.6758" class="black" /></g>
<g><title>96 (position.label in template: 92.G)</title><text x="243.797" y="71.4203" class="black" >G</text></g>
<g><line x1="245.827" y1="71.1158" x2="254.217" y2="71.1158" class="black" /></g>
<g><title>97 (position.label in template: 93.A)</title><text x="244.217" y="63.8603" class="black" >A</text></g>
<g><line x1="246.247" y1="63.5558" x2="254.217" y2="63.5558" class="black" /></g>
<g><title>98 (position.label in template: 94.U)</title><text x="241.998" y="58.0515" class="blue" >U</text></g>
<g><title>99 (position.label in template: 95.U)</title><text x="244.474" y="52.3474" class="green" >C</text></g>
<g><title>100 (inserted)</title><text x="250.232" y="50" class="red" >C</text></g>
<g><title>100 (inserted)</title><text x="250.232" y="43.1487" class="numbering-label sequential" >100</text></g>
<g><line x1="250.232" y1="48.173" x2="250.232" y2="44.6712" class="numbering-line sequential" /></g>
<g><title>101 (position.label in template: 96.A)</title><text x="255.99" y="52.3474" class="green" >G</text></g>
<g><title>102 (position.label in template: 97.U)</title><text x="258.465" y="58.0515" class="blue" >U</text></g>
<g><title>103 (position.label in template: 98.U)</title><text x="256.247" y="63.8603" class="black" >U</text></g>
<g><title>104 (position.label in template: 99.C)</title><text x="256.247" y="71.4203" class="black" >C</text></g>
<g><title>105 (position.label in template: 100.U)</title><text x="256.247" y="78.9803" class="black" >U</text></g>
<g><title>106 (position.label in template: 101.U)</title><text x="256.247" y="86.5403" class="black" >U</text></g>
<g><title>107 (position.label in template: 102.G)</title><text x="256.037" y="94.1003" class="black" >G</text></g>
<g><title>108 (position.label in template: 103.U)</title><text x="256.247" y="101.66" class="black" >U</text></g>
<g><title>109 (position.label in template: 104.U)</title><text x="256.247" y="109.22" class="black" >U</text></g>
<g><title>110 (position.label in template: 105.A)</title><text x="263.007" y="113" class="black" >A</text></g>
<g><title>111 (position.label in template: 106.G)</title><text x="256.037" y="116.78" class="black" >G</text></g>
<g><title>112 (position.label in template: 107.C)</title><text x="256.247" y="124.34" class="black" >C</text></g>
<g><title>113 (position.label in template: 108.U)</title><text x="256.247" y="131.9" class="black" >U</text></g>
<g><title>114 (position.label in template: 109.U)</title><text x="263.597" y="133.7" class="black" >U</text></g>
<g><title>115 (position.label in template: 110.U)</title><text x="269.747" y="138.09" class="black" >U</text></g>
<g><title>116 (position.label in template: 111.G)</title><text x="273.617" y="144.45" class="black" >G</text></g>
<g><title>117 (position.label in template: 112.U)</title><text x="275.257" y="151.88" class="black" >U</text></g>
<g><title>118 (position.label in template: 113.U)</title><text x="273.827" y="159.3" class="black" >U</text></g>
<g><title>119 (position.label in template: 114.C)</title><text x="269.747" y="165.66" class="black" >C</text></g>
<g><title>120 (position.label in template: 115.U)</title><text x="263.597" y="170.06" class="black" >U</text></g>
<g><title>121 (position.label in template: 116.G)</title><text x="256.037" y="171.85" class="black" >G</text></g>
<g><title>122 (position.label in template: 117.G)</title><text x="256.037" y="179.41" class="black" >G</text></g>
<g><title>123 (position.label in template: 118.A)</title><text x="256.457" y="186.97" class="black" >A</text></g>
<g><title>124 (position.label in template: 119.G)</title><text x="256.037" y="194.53" class="black" >G</text></g>
<g><title>125 (position.label in template: 120.G)</title><text x="256.037" y="202.09" class="black" >G</text></g>
<g><title>126 (position.label in template: 121.C)</title><text x="256.247" y="209.65" class="black" >C</text></g>
<g><title>127 (position.label in template: 122.A)</title><text x="256.457" y="217.21" class="black" >A</text></g>
<g><title>128 (position.label in template: 123.C)</title><text x="261.693" y="222.66" class="black" >C</text></g>
<g><title>129 (position.label in template: 124.A)</title><text x="269.25" y="222.66" class="black" >A</text></g>
<g><title>130 (position.label in template: 125.G)</title><text x="276.808" y="222.66" class="green" >U</text></g>
<g><title>131 (position.label in template: 126.A)</title><text x="284.365" y="222.66" class="black" >A</text></g>
<g><title>132 (position.label in template: 127.U)</title><text x="291.922" y="222.66" class="black" >U</text></g>
<g><title>133 (position.label in template: 128.3')</title><text x="299.48" y="222.66" class="green" >3'</text></g>
<g><line x1="92.1381" y1="213.901" x2="92.1381" y2="210.404" class="gray" /></g>
<g><line x1="92.1381" y1="206.344" x2="92.1381" y2="202.844" class="gray" /></g>
<g><line x1="92.1944" y1="198.784" x2="92.2917" y2="195.283" class="gray" /></g>
<g><line x1="91.0493" y1="191.694" x2="88.7269" y2="188.904" class="gray" /></g>
<g><line x1="87.4281" y1="185.314" x2="87.4281" y2="181.814" class="gray" /></g>
<g><line x1="88.6565" y1="178.168" x2="90.6996" y2="175.48" class="gray" /></g>
<g><line x1="92.0407" y1="171.837" x2="92.2354" y2="168.331" class="gray" /></g>
<g><line x1="92.2917" y1="164.274" x2="92.1944" y2="160.773" class="gray" /></g>
<g><line x1="92.0817" y1="156.714" x2="91.9844" y2="153.213" class="gray" /></g>
<g><line x1="89.9413" y1="150.767" x2="86.6328" y2="150.073" class="gray" /></g>
<g><line x1="82.747" y1="148.939" x2="79.5846" y2="147.745" class="gray" /></g>
<g><line x1="75.9195" y1="146.026" x2="72.9787" y2="144.36" class="gray" /></g>
<g><line x1="69.6216" y1="142.098" x2="66.9721" y2="139.998" class="gray" /></g>
<g><line x1="64.003" y1="137.247" x2="61.7081" y2="134.765" class="gray" /></g>
<g><line x1="59.1976" y1="131.59" x2="57.312" y2="128.784" class="gray" /></g>
<g><line x1="55.3199" y1="125.26" x2="53.8884" y2="122.198" class="gray" /></g>
<g><line x1="52.4622" y1="118.409" x2="51.5189" y2="115.163" class="gray" /></g>
<g><line x1="50.6925" y1="111.201" x2="50.2598" y2="107.848" class="gray" /></g>
<g><line x1="50.053" y1="103.805" x2="50.1413" y2="100.426" class="gray" /></g>
<g><line x1="50.5589" y1="96.3999" x2="51.166" y2="93.0744" class="gray" /></g>
<g><line x1="52.1981" y1="89.1603" x2="53.3097" y2="85.9679" class="gray" /></g>
<g><line x1="54.9317" y1="82.2591" x2="56.5212" y2="79.2757" class="gray" /></g>
<g><line x1="58.6945" y1="75.8607" x2="60.7241" y2="73.1574" class="gray" /></g>
<g><line x1="63.3969" y1="70.1174" x2="65.8182" y2="67.7585" class="gray" /></g>
<g><line x1="68.927" y1="65.1659" x2="71.6824" y2="63.2077" class="gray" /></g>
<g><line x1="75.153" y1="61.1243" x2="78.1769" y2="59.6132" class="gray" /></g>
<g><line x1="81.9267" y1="58.0886" x2="85.1471" y2="57.0608" class="gray" /></g>
<g><line x1="89.0868" y1="56.1313" x2="92.427" y2="55.6112" class="gray" /></g>
<g><line x1="96.4628" y1="55.2989" x2="99.8433" y2="55.2989" class="gray" /></g>
<g><line x1="103.879" y1="55.6112" x2="107.219" y2="56.1313" class="gray" /></g>
<g><line x1="111.159" y1="57.0608" x2="114.379" y2="58.0886" class="gray" /></g>
<g><line x1="118.129" y1="59.6132" x2="121.153" y2="61.1243" class="gray" /></g>
<g><line x1="124.624" y1="63.2077" x2="127.379" y2="65.1659" class="gray" /></g>
<g><line x1="130.488" y1="67.7585" x2="132.909" y2="70.1174" class="gray" /></g>
<g><line x1="135.582" y1="73.1574" x2="137.612" y2="75.8607" class="gray" /></g>
<g><line x1="139.785" y1="79.2757" x2="141.374" y2="82.2591" class="gray" /></g>
<g><line x1="142.996" y1="85.9679" x2="144.108" y2="89.1603" class="gray" /></g>
<g><line x1="145.14" y1="93.0744" x2="145.747" y2="96.3999" class="gray" /></g>
<g><line x1="146.165" y1="100.426" x2="146.253" y2="103.805" class="gray" /></g>
<g><line x1="146.046" y1="107.848" x2="145.614" y2="111.201" class="gray" /></g>
<g><line x1="144.787" y1="115.163" x2="143.844" y2="118.409" class="gray" /></g>
<g><line x1="142.418" y1="122.198" x2="140.986" y2="125.26" class="gray" /></g>
<g><line x1="138.994" y1="128.784" x2="137.108" y2="131.59" class="gray" /></g>
<g><line x1="134.598" y1="134.765" x2="132.303" y2="137.247" class="gray" /></g>
<g><line x1="129.334" y1="139.998" x2="126.685" y2="142.098" class="gray" /></g>
<g><line x1="123.327" y1="144.36" x2="120.387" y2="146.026" class="gray" /></g>
<g><line x1="116.721" y1="147.745" x2="113.559" y2="148.939" class="gray" /></g>
<g><line x1="109.673" y1="150.073" x2="106.365" y2="150.767" class="gray" /></g>
<g><line x1="104.434" y1="153.213" x2="104.532" y2="156.714" class="gray" /></g>
<g><line x1="104.532" y1="160.773" x2="104.434" y2="164.274" class="gray" /></g>
<g><line x1="104.378" y1="168.334" x2="104.378" y2="171.834" class="gray" /></g>
<g><line x1="105.642" y1="175.452" x2="107.824" y2="178.195" class="gray" /></g>
<g><line x1="109.088" y1="181.814" x2="109.088" y2="185.314" class="gray" /></g>
<g><line x1="107.823" y1="188.931" x2="105.643" y2="191.666" class="gray" /></g>
<g><line x1="104.322" y1="195.283" x2="104.224" y2="198.784" class="gray" /></g>
<g><line x1="104.168" y1="202.844" x2="104.168" y2="206.344" class="gray" /></g>
<g><line x1="104.971" y1="210.238" x2="106.354" y2="213.45" class="gray" /></g>
<g><line x1="107.96" y1="217.179" x2="109.344" y2="220.391" class="gray" /></g>
<g><line x1="112.177" y1="222.256" x2="115.677" y2="222.256" class="gray" /></g>
<g><line x1="119.737" y1="222.256" x2="123.237" y2="222.256" class="gray" /></g>
<g><line x1="127.297" y1="222.256" x2="130.797" y2="222.256" class="gray" /></g>
<g><line x1="134.857" y1="222.256" x2="138.147" y2="222.256" class="gray" /></g>
<g><line x1="142.207" y1="222.256" x2="146.117" y2="222.256" class="gray" /></g>
<g><line x1="150.177" y1="222.256" x2="153.477" y2="222.256" class="gray" /></g>
<g><line x1="157.537" y1="222.256" x2="161.237" y2="222.256" class="gray" /></g>
<g><line x1="165.297" y1="222.256" x2="168.797" y2="222.256" class="gray" /></g>
<g><line x1="172.857" y1="222.256" x2="183.507" y2="222.256" class="gray" /></g>
<g><line x1="187.567" y1="222.256" x2="191.477" y2="222.256" class="gray" /></g>
<g><line x1="195.537" y1="222.256" x2="198.627" y2="222.256" class="gray" /></g>
<g><line x1="202.687" y1="222.256" x2="206.597" y2="222.256" class="gray" /></g>
<g><line x1="210.657" y1="222.256" x2="214.157" y2="222.256" class="gray" /></g>
<g><line x1="218.217" y1="222.256" x2="221.717" y2="222.256" class="gray" /></g>
<g><line x1="225.777" y1="222.256" x2="228.867" y2="222.256" class="gray" /></g>
<g><line x1="232.927" y1="222.256" x2="236.837" y2="222.256" class="gray" /></g>
<g><line x1="240.273" y1="220.792" x2="242.6" y2="218.37" class="gray" /></g>
<g><line x1="243.95" y1="214.877" x2="243.853" y2="211.375" class="gray" /></g>
<g><line x1="243.853" y1="207.317" x2="243.95" y2="203.815" class="gray" /></g>
<g><line x1="244.007" y1="199.756" x2="244.007" y2="196.256" class="gray" /></g>
<g><line x1="244.007" y1="192.196" x2="244.007" y2="188.696" class="gray" /></g>
<g><line x1="244.007" y1="184.636" x2="244.007" y2="181.136" class="gray" /></g>
<g><line x1="244.007" y1="177.076" x2="244.007" y2="173.576" class="gray" /></g>
<g><line x1="242.205" y1="170.611" x2="239.099" y2="169" class="gray" /></g>
<g><line x1="235.948" y1="166.548" x2="233.625" y2="163.933" class="gray" /></g>
<g><line x1="231.554" y1="160.519" x2="230.31" y2="157.253" class="gray" /></g>
<g><line x1="229.587" y1="153.326" x2="229.587" y2="149.826" class="gray" /></g>
<g><line x1="230.309" y1="145.899" x2="231.555" y2="142.623" class="gray" /></g>
<g><line x1="233.626" y1="139.209" x2="235.947" y2="136.602" class="gray" /></g>
<g><line x1="239.109" y1="134.172" x2="242.404" y2="132.51" class="gray" /></g>
<g><line x1="244.104" y1="129.569" x2="243.909" y2="126.063" class="gray" /></g>
<g><line x1="243.853" y1="122.007" x2="243.95" y2="118.505" class="gray" /></g>
<g><line x1="244.063" y1="114.447" x2="244.16" y2="110.945" class="gray" /></g>
<g><line x1="244.104" y1="106.889" x2="243.909" y2="103.383" class="gray" /></g>
<g><line x1="243.853" y1="99.3266" x2="243.95" y2="95.8251" class="gray" /></g>
<g><line x1="244.063" y1="91.7666" x2="244.16" y2="88.2651" class="gray" /></g>
<g><line x1="244.217" y1="84.2058" x2="244.217" y2="80.7058" class="gray" /></g>
<g><line x1="244.104" y1="76.649" x2="243.909" y2="73.1427" class="gray" /></g>
<g><line x1="243.909" y1="69.089" x2="244.104" y2="65.5827" class="gray" /></g>
<g><line x1="243.493" y1="61.6594" x2="242.723" y2="59.6434" class="gray" /></g>
<g><line x1="242.807" y1="55.8848" x2="243.666" y2="53.9051" class="gray" /></g>
<g><line x1="246.354" y1="51.2766" x2="248.352" y2="50.4619" class="gray" /></g>
<g><line x1="252.112" y1="50.4619" x2="254.11" y2="51.2766" class="gray" /></g>
<g><line x1="256.798" y1="53.9051" x2="257.657" y2="55.8848" class="gray" /></g>
<g><line x1="257.741" y1="59.6434" x2="256.971" y2="61.6594" class="gray" /></g>
<g><line x1="256.247" y1="65.5858" x2="256.247" y2="69.0858" class="gray" /></g>
<g><line x1="256.247" y1="73.1458" x2="256.247" y2="76.6458" class="gray" /></g>
<g><line x1="256.247" y1="80.7058" x2="256.247" y2="84.2058" class="gray" /></g>
<g><line x1="256.19" y1="88.2651" x2="256.093" y2="91.7666" class="gray" /></g>
<g><line x1="256.093" y1="95.8251" x2="256.19" y2="99.3266" class="gray" /></g>
<g><line x1="256.247" y1="103.386" x2="256.247" y2="106.886" class="gray" /></g>
<g><line x1="258.019" y1="109.907" x2="261.235" y2="111.705" class="gray" /></g>
<g><line x1="261.222" y1="113.664" x2="257.821" y2="115.508" class="gray" /></g>
<g><line x1="256.093" y1="118.505" x2="256.19" y2="122.007" class="gray" /></g>
<g><line x1="256.247" y1="126.066" x2="256.247" y2="129.566" class="gray" /></g>
<g><line x1="258.218" y1="132.079" x2="261.625" y2="132.913" class="gray" /></g>
<g><line x1="265.249" y1="134.575" x2="268.094" y2="136.606" class="gray" /></g>
<g><line x1="270.802" y1="139.52" x2="272.562" y2="142.412" class="gray" /></g>
<g><line x1="274.054" y1="146.128" x2="274.819" y2="149.594" class="gray" /></g>
<g><line x1="274.873" y1="153.569" x2="274.211" y2="157.003" class="gray" /></g>
<g><line x1="272.731" y1="160.704" x2="270.843" y2="163.647" class="gray" /></g>
<g><line x1="268.096" y1="166.537" x2="265.248" y2="168.575" class="gray" /></g>
<g><line x1="261.621" y1="170.224" x2="258.012" y2="171.078" class="gray" /></g>
<g><line x1="256.037" y1="173.576" x2="256.037" y2="177.076" class="gray" /></g>
<g><line x1="256.149" y1="181.133" x2="256.344" y2="184.639" class="gray" /></g>
<g><line x1="256.344" y1="188.693" x2="256.149" y2="192.199" class="gray" /></g>
<g><line x1="256.037" y1="196.256" x2="256.037" y2="199.756" class="gray" /></g>
<g><line x1="256.093" y1="203.815" x2="256.19" y2="207.317" class="gray" /></g>
<g><line x1="256.303" y1="211.375" x2="256.4" y2="214.877" class="gray" /></g>
<g><line x1="257.863" y1="218.37" x2="260.286" y2="220.892" class="gray" /></g>
<g><line x1="263.723" y1="222.356" x2="267.22" y2="222.356" class="gray" /></g>
<g><line x1="271.28" y1="222.356" x2="274.778" y2="222.356" class="gray" /></g>
<g><line x1="278.838" y1="222.356" x2="282.335" y2="222.356" class="gray" /></g>
<g><line x1="286.395" y1="222.356" x2="289.892" y2="222.356" class="gray" /></g>
<g><line x1="293.952" y1="222.356" x2="297.45" y2="222.356" class="gray" /></g>
</svg>
