<svg
	xmlns="http://www.w3.org/2000/svg"
	width="233.74"
	height="243.117"
	style="font-size: 3.048045px; font-weight: bold; font-family: Helvetica; " >
<g><style type="text/css" >
<!-- create color definitions -->
<![CDATA[
text.red {fill: rgb(255, 0, 255); }
text.green {fill: rgb(0, 255, 0); }
text.blue {fill: rgb(0, 0, 255); }
text.black {fill: rgb(0, 0, 0); }
text.gray {fill: rgb(204, 204, 204); }
text.brown {fill: rgb(211.65, 104.55, 30.6); }
text {fill: rgb(0, 0, 0); text-anchor: middle; alignment-baseline: middle; }
circle.red {stroke: rgb(255, 0, 255); fill: none; }
circle.green {stroke: rgb(0, 255, 0); fill: none; }
circle.blue {stroke: rgb(0, 0, 255); fill: none; }
circle.black {stroke: rgb(0, 0, 0); fill: none; }
circle.gray {stroke: rgb(204, 204, 204); fill: none; }
circle.brown {stroke: rgb(211.65, 104.55, 30.6); fill: none; }
circle {stroke: rgb(0, 0, 0); }
line.red {stroke: rgb(255, 0, 255); stroke-width: 0.381006; }
line.green {stroke: rgb(0, 255, 0); stroke-width: 0.381006; }
line.blue {stroke: rgb(0, 0, 255); stroke-width: 0.381006; }
line.black {stroke: rgb(0, 0, 0); stroke-width: 0.381006; }
line.gray {stroke: rgb(204, 204, 204); stroke-width: 0.381006; }
line.brown {stroke: rgb(211.65, 104.55, 30.6); stroke-width: 0.381006; }
line {stroke: rgb(0, 0, 0); }
text.numbering-label {fill: rgb(204, 204, 204);}
line.numbering-line {stroke: rgb(204, 204, 204); stroke-width: 0.190503;}
line.predicted {stroke: rgb(0, 0, 0); stroke-dasharray: 2}
text.background {fill: rgb(255, 255, 255);
.template {visibility:hidden}
]]>
</style></g>
<g><title>0 (position.label in template: 0.5')</title><text x="112.294" y="48.8561" class="green" >5'</text></g>
<g><title>1 (inserted)</title><text x="112.352" y="56.3664" class="red" >G</text></g>
<g><title>2 (position.label in template: 2.N)</title><text x="112.41" y="63.8767" class="green" >C</text></g>
<g><line x1="114.442" y1="63.5719" x2="122.618" y2="63.5719" class="black" /></g>
<g><title>3 (position.label in template: 3.Y)</title><text x="112.47" y="71.6467" class="green" >C</text></g>
<g><line x1="114.502" y1="71.3419" x2="122.258" y2="71.3419" class="black" /></g>
<g><title>4 (position.label in template: 4.N)</title><text x="112.41" y="78.9967" class="green" >U</text></g>
<g><line x1="114.442" y1="78.6919" x2="122.618" y2="78.6919" class="black" /></g>
<g><title>5 (position.label in template: 5.Y)</title><text x="112.47" y="86.7667" class="green" >U</text></g>
<g><line x1="114.502" y1="86.4619" x2="122.468" y2="86.4619" class="black" /></g>
<g><title>6 (position.label in template: 6.Y)</title><text x="112.47" y="94.3267" class="green" >C</text></g>
<g><line x1="114.502" y1="94.0219" x2="122.468" y2="94.0219" class="black" /></g>
<g><title>7 (position.label in template: 7.R)</title><text x="112.26" y="101.887" class="green" >G</text></g>
<g><line x1="114.292" y1="101.547" x2="122.618" y2="101.406" class="black" /></g>
<g><title>8 (position.label in template: 8.U)</title><text x="105.44" y="105.147" class="black" >U</text></g>
<g><title>9 (position.label in template: 9.R)</title><text x="100.09" y="110.497" class="green" >G</text></g>
<g><title>10 (position.label in template: 10.G)</title><text x="96.62" y="117.317" class="black" >G</text></g>
<g><line x1="96.6549" y1="119.044" x2="96.7951" y2="127.22" class="black" /></g>
<g><title>10 (inserted)</title><text x="92.9631" y="111.515" class="numbering-label sequential" >10</text></g>
<g><line x1="95.6448" y1="115.77" x2="93.9237" y2="113.039" class="numbering-line sequential" /></g>
<g><title>11 (position.label in template: 11.C)</title><text x="89.27" y="117.317" class="green" >U</text></g>
<g><line x1="89.2351" y1="119.044" x2="89.0949" y2="127.22" class="black" /></g>
<g><title>12 (position.label in template: 12.U)</title><text x="81.71" y="117.317" class="green" >G</text></g>
<g><line x1="81.7449" y1="119.044" x2="81.8851" y2="127.22" class="black" /></g>
<g><title>13 (position.label in template: 13.Y)</title><text x="74.36" y="117.317" class="green" >U</text></g>
<g><line x1="74.3251" y1="119.044" x2="74.1849" y2="127.22" class="black" /></g>
<g><title>14 (position.label in template: 14.A)</title><text x="69.02" y="111.957" class="black" >A</text></g>
<g><title>15 (position.label in template: 15.G)</title><text x="61.19" y="110.477" class="green" >A</text></g>
<g><title>16 (position.label in template: 16.U)</title><text x="54.41" y="113.367" class="black" >U</text></g>
<g><title>17 (position.label in template: 17.G)</title><text x="50" y="119.657" class="black" >G</text></g>
<g><title>18 (position.label in template: 18.G)</title><text x="50" y="127.217" class="black" >G</text></g>
<g><title>19 (position.label in template: 19.U)</title><text x="54.41" y="133.497" class="black" >U</text></g>
<g><title>20 (position.label in template: 20.N)</title><text x="61.55" y="136.177" class="green" >U</text></g>
<g><title>20 (inserted)</title><text x="60.8912" y="143.003" class="numbering-label sequential" >20</text></g>
<g><line x1="61.3743" y1="137.997" x2="61.0383" y2="141.479" class="numbering-line sequential" /></g>
<g><title>21 (position.label in template: 21.A)</title><text x="69.02" y="134.907" class="black" >A</text></g>
<g><title>22 (position.label in template: 22.R)</title><text x="74.15" y="129.557" class="green" >G</text></g>
<g><title>23 (position.label in template: 23.A)</title><text x="81.92" y="129.557" class="green" >C</text></g>
<g><title>24 (position.label in template: 24.G)</title><text x="89.06" y="129.557" class="green" >A</text></g>
<g><title>25 (position.label in template: 25.C)</title><text x="96.83" y="129.557" class="black" >C</text></g>
<g><title>26 (position.label in template: 26.R)</title><text x="100.09" y="136.367" class="green" >A</text></g>
<g><title>27 (position.label in template: 27.Y)</title><text x="105.65" y="141.717" class="green" >C</text></g>
<g><line x1="107.562" y1="142.099" x2="115.068" y2="144.795" class="black" /></g>
<g><title>28 (position.label in template: 28.Y)</title><text x="103.13" y="148.847" class="green" >U</text></g>
<g><line x1="105.043" y1="149.228" x2="112.557" y2="151.925" class="black" /></g>
<g><title>29 (position.label in template: 29.N)</title><text x="100.56" y="155.767" class="green" >G</text></g>
<g><line x1="102.476" y1="156.138" x2="110.184" y2="158.856" class="black" /></g>
<g><title>30 (position.label in template: 30.N)</title><text x="98.05" y="162.897" class="green" >A</text></g>
<g><line x1="99.9663" y1="163.268" x2="107.674" y2="165.986" class="black" /></g>
<g><title>30 (inserted)</title><text x="91.5825" y="160.615" class="numbering-label sequential" >30</text></g>
<g><line x1="96.3253" y1="162.288" x2="93.4113" y2="161.26" class="numbering-line sequential" /></g>
<g><title>31 (position.label in template: 31.N)</title><text x="95.53" y="170.027" class="green" >A</text></g>
<g><line x1="97.4463" y1="170.398" x2="105.154" y2="173.116" class="black" /></g>
<g><title>32 (position.label in template: 32.C)</title><text x="88.85" y="174.047" class="black" >C</text></g>
<g><title>33 (position.label in template: 33.U)</title><text x="85.96" y="181.037" class="green" >C</text></g>
<g><title>34 (position.label in template: 34.N)</title><text x="88.03" y="188.137" class="green" >G</text></g>
<g><title>35 (position.label in template: 35.G)</title><text x="93.63" y="193.007" class="black" >G</text></g>
<g><title>36 (position.label in template: 36.U)</title><text x="101.4" y="193.117" class="black" >U</text></g>
<g><title>37 (position.label in template: 37.A)</title><text x="107.69" y="188.627" class="black" >A</text></g>
<g><title>38 (position.label in template: 38.A)</title><text x="109.82" y="181.367" class="green" >U</text></g>
<g><title>39 (position.label in template: 39.N)</title><text x="107.07" y="174.097" class="green" >U</text></g>
<g><title>40 (position.label in template: 40.N)</title><text x="109.59" y="166.967" class="green" >U</text></g>
<g><title>41 (position.label in template: 41.N)</title><text x="112.1" y="159.837" class="green" >C</text></g>
<g><title>42 (position.label in template: 42.R)</title><text x="114.47" y="152.917" class="green" >A</text></g>
<g><title>43 (position.label in template: 43.R)</title><text x="116.98" y="145.787" class="green" >G</text></g>
<g><title>44 (position.label in template: 44.A)</title><text x="122.068" y="141.708" class="blue" >A</text></g>
<g><title>45 (position.label in template: 45.G)</title><text x="126.279" y="136.729" class="blue" >G</text></g>
<g><title>46 (position.label in template: 46.R)</title><text x="129.458" y="131.035" class="green" >G</text></g>
<g><title>47 (position.label in template: 47.U)</title><text x="131.487" y="124.838" class="blue" >U</text></g>
<g><title>48 (position.label in template: 49.N)</title><text x="132.29" y="118.367" class="green" >C</text></g>
<g><line x1="132.154" y1="116.034" x2="131.606" y2="107.879" class="black" /></g>
<g><title>49 (position.label in template: 50.Y)</title><text x="139.76" y="118.067" class="green" >C</text></g>
<g><line x1="139.597" y1="115.736" x2="138.933" y2="107.457" class="black" /></g>
<g><title>50 (position.label in template: 51.N)</title><text x="147.37" y="117.357" class="green" >G</text></g>
<g><line x1="147.234" y1="115.024" x2="146.686" y2="106.869" class="black" /></g>
<g><title>50 (inserted)</title><text x="145.783" y="124.029" class="numbering-label sequential" >50</text></g>
<g><line x1="146.947" y1="119.136" x2="146.146" y2="122.505" class="numbering-line sequential" /></g>
<g><title>51 (inserted)</title><text x="151.24" y="120.797" class="red" >U</text></g>
<g><title>52 (position.label in template: 52.R)</title><text x="154.68" y="116.927" class="green" >G</text></g>
<g><line x1="154.571" y1="114.593" x2="154.139" y2="106.561" class="black" /></g>
<g><title>53 (position.label in template: 53.G)</title><text x="162.05" y="116.307" class="black" >G</text></g>
<g><line x1="161.941" y1="113.973" x2="161.509" y2="105.931" class="black" /></g>
<g><title>54 (position.label in template: 54.U)</title><text x="168.3" y="120.907" class="black" >U</text></g>
<g><title>55 (position.label in template: 55.U)</title><text x="175.87" y="120.807" class="black" >U</text></g>
<g><title>56 (position.label in template: 56.C)</title><text x="181.82" y="116.137" class="black" >C</text></g>
<g><title>57 (position.label in template: 57.R)</title><text x="183.74" y="108.827" class="green" >G</text></g>
<g><title>58 (position.label in template: 58.A)</title><text x="181.03" y="101.967" class="black" >A</text></g>
<g><title>59 (position.label in template: 59.N)</title><text x="174.58" y="97.9467" class="green" >U</text></g>
<g><title>60 (position.label in template: 60.U)</title><text x="166.82" y="98.9367" class="black" >U</text></g>
<g><title>61 (position.label in template: 61.C)</title><text x="161.4" y="104.207" class="black" >C</text></g>
<g><title>62 (position.label in template: 62.Y)</title><text x="154.03" y="104.837" class="green" >C</text></g>
<g><title>63 (position.label in template: 63.N)</title><text x="146.55" y="105.147" class="green" >C</text></g>
<g><title>64 (position.label in template: 64.R)</title><text x="138.77" y="105.737" class="green" >G</text></g>
<g><title>65 (position.label in template: 65.N)</title><text x="131.47" y="106.157" class="green" >G</text></g>
<g><title>66 (position.label in template: 66.N)</title><text x="124.65" y="101.677" class="green" >C</text></g>
<g><title>67 (position.label in template: 67.R)</title><text x="124.5" y="94.3267" class="green" >G</text></g>
<g><title>68 (position.label in template: 68.R)</title><text x="124.5" y="86.7667" class="green" >A</text></g>
<g><title>69 (position.label in template: 69.N)</title><text x="124.65" y="78.9967" class="green" >A</text></g>
<g><title>70 (position.label in template: 70.G)</title><text x="124.29" y="71.6467" class="green" >G</text></g>
<g><title>71 (position.label in template: 71.N)</title><text x="124.65" y="63.8767" class="green" >G</text></g>
<g><title>72 (position.label in template: 73.N)</title><text x="127.525" y="56.9383" class="green" >A</text></g>
<g><title>73 (inserted)</title><text x="130.401" y="50" class="red" >A</text></g>
<g><title>74 (position.label in template: 74.3')</title><text x="133.276" y="43.0617" class="green" >3'</text></g>
<g><line x1="112.31" y1="50.5833" x2="112.336" y2="54.0296" class="gray" /></g>
<g><line x1="112.368" y1="58.0935" x2="112.394" y2="61.5399" class="gray" /></g>
<g><line x1="112.426" y1="65.6038" x2="112.454" y2="69.3099" class="gray" /></g>
<g><line x1="112.453" y1="73.3738" x2="112.427" y2="76.6599" class="gray" /></g>
<g><line x1="112.426" y1="80.7238" x2="112.454" y2="84.4299" class="gray" /></g>
<g><line x1="112.47" y1="88.4939" x2="112.47" y2="91.9898" class="gray" /></g>
<g><line x1="112.414" y1="96.0531" x2="112.316" y2="99.5506" class="gray" /></g>
<g><line x1="110.427" y1="102.458" x2="107.273" y2="103.966" class="gray" /></g>
<g><line x1="104.003" y1="106.279" x2="101.527" y2="108.755" class="gray" /></g>
<g><line x1="99.1685" y1="112.003" x2="97.5415" y2="115.201" class="gray" /></g>
<g><line x1="94.588" y1="117.012" x2="91.302" y2="117.012" class="gray" /></g>
<g><line x1="87.238" y1="117.012" x2="83.742" y2="117.012" class="gray" /></g>
<g><line x1="79.678" y1="117.012" x2="76.392" y2="117.012" class="gray" /></g>
<g><line x1="72.9258" y1="115.572" x2="70.4542" y2="113.091" class="gray" /></g>
<g><line x1="67.0233" y1="111.274" x2="63.1867" y2="110.549" class="gray" /></g>
<g><line x1="59.3207" y1="110.969" x2="56.2793" y2="112.265" class="gray" /></g>
<g><line x1="53.2435" y1="114.726" x2="51.1665" y2="117.688" class="gray" /></g>
<g><line x1="50" y1="121.384" x2="50" y2="124.88" class="gray" /></g>
<g><line x1="51.1678" y1="128.575" x2="53.2422" y2="131.529" class="gray" /></g>
<g><line x1="56.3124" y1="133.906" x2="59.6476" y2="135.158" class="gray" /></g>
<g><line x1="63.5533" y1="135.531" x2="67.0167" y2="134.942" class="gray" /></g>
<g><line x1="70.4264" y1="133.135" x2="72.7436" y2="130.719" class="gray" /></g>
<g><line x1="76.182" y1="129.252" x2="79.888" y2="129.252" class="gray" /></g>
<g><line x1="83.952" y1="129.252" x2="87.028" y2="129.252" class="gray" /></g>
<g><line x1="91.092" y1="129.252" x2="94.798" y2="129.252" class="gray" /></g>
<g><line x1="97.7074" y1="131.085" x2="99.2126" y2="134.229" class="gray" /></g>
<g><line x1="101.554" y1="137.471" x2="104.186" y2="140.003" class="gray" /></g>
<g><line x1="104.973" y1="143.328" x2="103.807" y2="146.626" class="gray" /></g>
<g><line x1="102.423" y1="150.447" x2="101.267" y2="153.557" class="gray" /></g>
<g><line x1="99.8852" y1="157.379" x2="98.7248" y2="160.675" class="gray" /></g>
<g><line x1="97.3729" y1="164.508" x2="96.2071" y2="167.806" class="gray" /></g>
<g><line x1="93.7889" y1="170.77" x2="90.5911" y2="172.694" class="gray" /></g>
<g><line x1="88.0736" y1="175.62" x2="86.7364" y2="178.854" class="gray" /></g>
<g><line x1="86.5288" y1="182.683" x2="87.4612" y2="185.881" class="gray" /></g>
<g><line x1="89.5633" y1="189.165" x2="92.0967" y2="191.368" class="gray" /></g>
<g><line x1="95.6618" y1="192.731" x2="99.3682" y2="192.783" class="gray" /></g>
<g><line x1="103.054" y1="191.631" x2="106.036" y2="189.502" class="gray" /></g>
<g><line x1="108.262" y1="186.372" x2="109.248" y2="183.012" class="gray" /></g>
<g><line x1="109.101" y1="179.161" x2="107.789" y2="175.692" class="gray" /></g>
<g><line x1="107.747" y1="171.876" x2="108.913" y2="168.578" class="gray" /></g>
<g><line x1="110.265" y1="164.745" x2="111.425" y2="161.449" class="gray" /></g>
<g><line x1="112.758" y1="157.609" x2="113.812" y2="154.534" class="gray" /></g>
<g><line x1="115.145" y1="150.695" x2="116.305" y2="147.399" class="gray" /></g>
<g><line x1="118.565" y1="144.211" x2="120.482" y2="142.674" class="gray" /></g>
<g><line x1="123.38" y1="139.851" x2="124.967" y2="137.976" class="gray" /></g>
<g><line x1="127.27" y1="134.65" x2="128.468" y2="132.505" class="gray" /></g>
<g><line x1="130.09" y1="128.799" x2="130.855" y2="126.464" class="gray" /></g>
<g><line x1="131.737" y1="122.517" x2="132.04" y2="120.078" class="gray" /></g>
<g><line x1="134.32" y1="117.98" x2="137.73" y2="117.843" class="gray" /></g>
<g><line x1="141.783" y1="117.573" x2="145.347" y2="117.241" class="gray" /></g>
<g><line x1="148.889" y1="118.402" x2="149.721" y2="119.142" class="gray" /></g>
<g><line x1="152.59" y1="118.973" x2="153.33" y2="118.141" class="gray" /></g>
<g><line x1="156.705" y1="116.452" x2="160.025" y2="116.172" class="gray" /></g>
<g><line x1="163.687" y1="117.206" x2="166.663" y2="119.397" class="gray" /></g>
<g><line x1="170.332" y1="120.575" x2="173.838" y2="120.529" class="gray" /></g>
<g><line x1="177.468" y1="119.247" x2="180.222" y2="117.086" class="gray" /></g>
<g><line x1="182.336" y1="113.867" x2="183.224" y2="110.487" class="gray" /></g>
<g><line x1="182.993" y1="106.632" x2="181.777" y2="103.552" class="gray" /></g>
<g><line x1="179.305" y1="100.587" x2="176.305" y2="98.7167" class="gray" /></g>
<g><line x1="172.564" y1="97.899" x2="168.836" y2="98.3747" class="gray" /></g>
<g><line x1="165.363" y1="100.048" x2="162.857" y2="102.485" class="gray" /></g>
<g><line x1="159.375" y1="104.075" x2="156.055" y2="104.359" class="gray" /></g>
<g><line x1="152" y1="104.616" x2="148.58" y2="104.758" class="gray" /></g>
<g><line x1="144.524" y1="104.996" x2="140.796" y2="105.278" class="gray" /></g>
<g><line x1="136.741" y1="105.549" x2="133.499" y2="105.735" class="gray" /></g>
<g><line x1="129.772" y1="104.736" x2="126.348" y2="102.488" class="gray" /></g>
<g><line x1="124.609" y1="99.3403" x2="124.541" y2="96.0535" class="gray" /></g>
<g><line x1="124.5" y1="91.9898" x2="124.5" y2="88.4939" class="gray" /></g>
<g><line x1="124.539" y1="84.4302" x2="124.611" y2="80.7235" class="gray" /></g>
<g><line x1="124.551" y1="76.6623" x2="124.389" y2="73.3715" class="gray" /></g>
<g><line x1="124.384" y1="69.312" x2="124.556" y2="65.6017" class="gray" /></g>
<g><line x1="125.428" y1="61.6946" x2="126.747" y2="58.5108" class="gray" /></g>
<g><line x1="128.303" y1="54.7563" x2="129.623" y2="51.5724" class="gray" /></g>
<g><line x1="131.179" y1="47.818" x2="132.498" y2="44.6341" class="gray" /></g>
</svg>
