<svg
	xmlns="http://www.w3.org/2000/svg"
	width="332.451"
	height="299.8"
	style="font-size: 3.045014px; font-weight: bold; font-family: Helvetica; " >
<g><style type="text/css" >
<!-- create color definitions -->
<![CDATA[
text.red {fill: rgb(255, 0, 255); }
text.green {fill: rgb(0, 255, 0); }
text.blue {fill: rgb(0, 0, 255); }
text.black {fill: rgb(0, 0, 0); }
text.gray {fill: rgb(204, 204, 204); }
text.brown {fill: rgb(211.65, 104.55, 30.6); }
text {fill: rgb(0, 0, 0); text-anchor: middle; alignment-baseline: middle; }
circle.red {stroke: rgb(255, 0, 255); fill: none; }
circle.green {stroke: rgb(0, 255, 0); fill: none; }
circle.blue {stroke: rgb(0, 0, 255); fill: none; }
circle.black {stroke: rgb(0, 0, 0); fill: none; }
circle.gray {stroke: rgb(204, 204, 204); fill: none; }
circle.brown {stroke: rgb(211.65, 104.55, 30.6); fill: none; }
circle {stroke: rgb(0, 0, 0); }
line.red {stroke: rgb(255, 0, 255); stroke-width: 0.380627; }
line.green {stroke: rgb(0, 255, 0); stroke-width: 0.380627; }
line.blue {stroke: rgb(0, 0, 255); stroke-width: 0.380627; }
line.black {stroke: rgb(0, 0, 0); stroke-width: 0.380627; }
line.gray {stroke: rgb(204, 204, 204); stroke-width: 0.380627; }
line.brown {stroke: rgb(211.65, 104.55, 30.6); stroke-width: 0.380627; }
line {stroke: rgb(0, 0, 0); }
text.numbering-label {fill: rgb(204, 204, 204);}
line.numbering-line {stroke: rgb(204, 204, 204); stroke-width: 0.190313;}
line.predicted {stroke: rgb(0, 0, 0); stroke-dasharray: 2}
text.background {fill: rgb(255, 255, 255);
.template {visibility:hidden}
]]>
</style></g>
<g><title>0 (position.label in template: 0.5')</title><text x="90.2311" y="131.074" class="green" >5'</text></g>
<g><title>1 (position.label in template: 23.Y)</title><text x="82.9341" y="129.108" class="green" >U</text></g>
<g><line x1="84.9638" y1="128.836" x2="93.0844" y2="128.97" class="black" /></g>
<g><title>2 (position.label in template: 24.U)</title><text x="75.7599" y="127.174" class="blue" >U</text></g>
<g><title>3 (position.label in template: 25.A)</title><text x="69.0694" y="123.942" class="green" >G</text></g>
<g><title>4 (position.label in template: 26.A)</title><text x="63.0954" y="119.524" class="blue" >A</text></g>
<g><title>5 (position.label in template: 27.G)</title><text x="58.0456" y="114.073" class="green" >U</text></g>
<g><title>6 (position.label in template: 28.A)</title><text x="54.0957" y="107.78" class="blue" >A</text></g>
<g><title>7 (inserted)</title><text x="51.3829" y="100.863" class="red" >A</text></g>
<g><title>8 (inserted)</title><text x="50.0017" y="93.5619" class="red" >U</text></g>
<g><title>9 (inserted)</title><text x="50" y="86.1317" class="red" >U</text></g>
<g><title>10 (inserted)</title><text x="51.378" y="78.8304" class="red" >U</text></g>
<g><title>10 (inserted)</title><text x="44.7933" y="76.9376" class="numbering-label sequential" >10</text></g>
<g><line x1="49.6221" y1="78.3256" x2="46.6203" y2="77.4628" class="numbering-line sequential" /></g>
<g><title>11 (inserted)</title><text x="54.0876" y="71.9119" class="red" >G</text></g>
<g><title>12 (inserted)</title><text x="58.0348" y="65.6167" class="red" >U</text></g>
<g><title>13 (inserted)</title><text x="63.0821" y="60.164" class="red" >U</text></g>
<g><title>14 (inserted)</title><text x="69.0541" y="55.7432" class="red" >G</text></g>
<g><title>15 (inserted)</title><text x="75.7431" y="52.5081" class="red" >A</text></g>
<g><title>16 (inserted)</title><text x="82.9165" y="50.5713" class="red" >C</text></g>
<g><title>17 (inserted)</title><text x="90.3247" y="50" class="red" >A</text></g>
<g><title>18 (inserted)</title><text x="97.7102" y="50.8142" class="red" >G</text></g>
<g><title>19 (inserted)</title><text x="104.816" y="52.9855" class="red" >G</text></g>
<g><title>20 (inserted)</title><text x="111.395" y="56.4384" class="red" >A</text></g>
<g><title>20 (inserted)</title><text x="115.131" y="50.6952" class="numbering-label sequential" >20</text></g>
<g><line x1="112.391" y1="54.9069" x2="114.141" y2="52.2177" class="numbering-line sequential" /></g>
<g><title>21 (inserted)</title><text x="117.219" y="61.0529" class="red" >U</text></g>
<g><title>22 (inserted)</title><text x="122.085" y="66.6685" class="red" >U</text></g>
<g><title>23 (inserted)</title><text x="125.823" y="73.0898" class="red" >U</text></g>
<g><title>24 (inserted)</title><text x="128.304" y="80.0935" class="red" >C</text></g>
<g><title>25 (inserted)</title><text x="129.441" y="87.4362" class="red" >U</text></g>
<g><title>26 (inserted)</title><text x="129.196" y="94.8623" class="red" >U</text></g>
<g><title>27 (inserted)</title><text x="127.576" y="102.114" class="red" >U</text></g>
<g><title>28 (inserted)</title><text x="124.637" y="108.938" class="red" >U</text></g>
<g><title>29 (inserted)</title><text x="120.483" y="115.099" class="red" >G</text></g>
<g><title>30 (inserted)</title><text x="115.257" y="120.38" class="red" >U</text></g>
<g><title>30 (inserted)</title><text x="119.656" y="125.632" class="numbering-label sequential" >30</text></g>
<g><line x1="116.43" y1="121.781" x2="118.381" y2="124.11" class="numbering-line sequential" /></g>
<g><title>31 (inserted)</title><text x="109.141" y="124.6" class="red" >U</text></g>
<g><title>32 (inserted)</title><text x="102.348" y="127.611" class="red" >U</text></g>
<g><title>33 (position.label in template: 37.N)</title><text x="95.1141" y="129.308" class="green" >U</text></g>
<g><title>34 (inserted)</title><text x="95.9222" y="132.999" class="red" >U</text></g>
<g><title>35 (inserted)</title><text x="99.1545" y="147.764" class="red" >C</text></g>
<g><title>36 (position.label in template: 40.U)</title><text x="99.9626" y="151.455" class="black" >U</text></g>
<g><title>37 (position.label in template: 41.U)</title><text x="99.9626" y="159.015" class="black" >U</text></g>
<g><title>38 (inserted)</title><text x="99.9626" y="166.573" class="red" >G</text></g>
<g><title>39 (inserted)</title><text x="99.9626" y="174.13" class="red" >U</text></g>
<g><title>40 (inserted)</title><text x="99.9626" y="181.688" class="red" >G</text></g>
<g><title>41 (inserted)</title><text x="99.9626" y="189.245" class="red" >U</text></g>
<g><title>42 (inserted)</title><text x="99.9626" y="196.803" class="red" >G</text></g>
<g><title>43 (position.label in template: 47.U)</title><text x="99.9626" y="204.36" class="black" >U</text></g>
<g><title>44 (position.label in template: 48.U)</title><text x="99.9626" y="211.92" class="black" >U</text></g>
<g><title>45 (inserted)</title><text x="100.034" y="215.698" class="red" >U</text></g>
<g><title>46 (inserted)</title><text x="100.176" y="223.254" class="red" >G</text></g>
<g><title>47 (inserted)</title><text x="100.461" y="238.366" class="red" >A</text></g>
<g><title>48 (inserted)</title><text x="100.604" y="245.923" class="red" >A</text></g>
<g><title>49 (position.label in template: 53.U)</title><text x="100.675" y="249.701" class="green" >A</text></g>
<g><title>50 (position.label in template: 54.U)</title><text x="108.235" y="249.701" class="black" >U</text></g>
<g><title>50 (inserted)</title><text x="108.235" y="256.552" class="numbering-label sequential" >50</text></g>
<g><line x1="108.235" y1="251.528" x2="108.235" y2="255.029" class="numbering-line sequential" /></g>
<g><title>51 (position.label in template: 55.U)</title><text x="115.795" y="249.701" class="black" >U</text></g>
<g><title>52 (position.label in template: 56.U)</title><text x="123.355" y="249.701" class="green" >C</text></g>
<g><title>53 (position.label in template: 57.G)</title><text x="130.705" y="249.701" class="black" >G</text></g>
<g><title>54 (position.label in template: 58.A)</title><text x="138.675" y="249.701" class="black" >A</text></g>
<g><title>55 (position.label in template: 59.U)</title><text x="146.035" y="249.701" class="black" >U</text></g>
<g><title>56 (position.label in template: 60.A)</title><text x="153.795" y="249.701" class="black" >A</text></g>
<g><title>57 (position.label in template: 62.A)</title><text x="168.915" y="249.701" class="green" >U</text></g>
<g><title>58 (position.label in template: 63.G)</title><text x="176.065" y="249.701" class="black" >G</text></g>
<g><title>59 (position.label in template: 64.A)</title><text x="184.035" y="249.701" class="black" >A</text></g>
<g><title>60 (position.label in template: 65.G)</title><text x="191.185" y="249.701" class="black" >G</text></g>
<g><title>61 (position.label in template: 66.A)</title><text x="199.155" y="249.701" class="black" >A</text></g>
<g><title>62 (position.label in template: 67.A)</title><text x="206.715" y="249.701" class="black" >A</text></g>
<g><title>63 (position.label in template: 68.A)</title><text x="214.275" y="249.701" class="black" >A</text></g>
<g><title>64 (position.label in template: 69.G)</title><text x="221.425" y="249.701" class="black" >G</text></g>
<g><title>65 (position.label in template: 70.A)</title><text x="229.395" y="249.701" class="black" >A</text></g>
<g><title>66 (position.label in template: 71.U)</title><text x="234.535" y="244.351" class="black" >U</text></g>
<g><line x1="236.565" y1="244.046" x2="244.955" y2="244.046" class="black" /></g>
<g><title>67 (position.label in template: 72.G)</title><text x="234.325" y="236.791" class="black" >G</text></g>
<g><line x1="236.355" y1="236.486" x2="244.745" y2="236.486" class="black" /></g>
<g><title>68 (position.label in template: 73.C)</title><text x="234.535" y="229.231" class="black" >C</text></g>
<g><line x1="236.565" y1="228.926" x2="244.535" y2="228.926" class="black" /></g>
<g><title>69 (position.label in template: 74.C)</title><text x="234.535" y="221.671" class="black" >C</text></g>
<g><line x1="236.565" y1="221.366" x2="244.535" y2="221.366" class="black" /></g>
<g><title>70 (position.label in template: 75.U)</title><text x="234.535" y="214.111" class="black" >U</text></g>
<g><line x1="236.565" y1="213.806" x2="244.955" y2="213.806" class="black" /></g>
<g><title>71 (position.label in template: 76.C)</title><text x="234.535" y="206.551" class="black" >C</text></g>
<g><line x1="236.565" y1="206.246" x2="244.535" y2="206.246" class="black" /></g>
<g><title>72 (position.label in template: 77.U)</title><text x="234.535" y="198.991" class="black" >U</text></g>
<g><line x1="236.565" y1="198.686" x2="244.535" y2="198.686" class="black" /></g>
<g><title>73 (position.label in template: 78.U)</title><text x="227.825" y="195.511" class="black" >U</text></g>
<g><title>74 (position.label in template: 79.C)</title><text x="222.805" y="189.861" class="black" >C</text></g>
<g><title>75 (position.label in template: 80.U)</title><text x="220.115" y="182.801" class="black" >U</text></g>
<g><title>76 (position.label in template: 81.U)</title><text x="220.115" y="175.241" class="black" >U</text></g>
<g><title>77 (position.label in template: 82.U)</title><text x="222.805" y="168.171" class="black" >U</text></g>
<g><title>78 (position.label in template: 83.C)</title><text x="227.825" y="162.531" class="black" >C</text></g>
<g><title>79 (position.label in template: 84.A)</title><text x="234.745" y="159.041" class="black" >A</text></g>
<g><line x1="236.775" y1="158.736" x2="244.745" y2="158.736" class="black" /></g>
<g><title>80 (position.label in template: 85.G)</title><text x="234.325" y="151.481" class="black" >G</text></g>
<g><line x1="236.355" y1="151.176" x2="244.745" y2="151.176" class="black" /></g>
<g><title>81 (position.label in template: 86.C)</title><text x="234.535" y="143.921" class="black" >C</text></g>
<g><line x1="236.565" y1="143.616" x2="244.535" y2="143.616" class="black" /></g>
<g><title>82 (position.label in template: 87.A)</title><text x="234.745" y="136.361" class="black" >A</text></g>
<g><line x1="236.775" y1="136.056" x2="244.745" y2="136.056" class="black" /></g>
<g><title>83 (position.label in template: 88.G)</title><text x="234.325" y="128.801" class="black" >G</text></g>
<g><line x1="236.355" y1="128.496" x2="244.745" y2="128.496" class="black" /></g>
<g><title>84 (position.label in template: 89.C)</title><text x="234.535" y="121.241" class="black" >C</text></g>
<g><line x1="236.565" y1="120.936" x2="244.535" y2="120.936" class="black" /></g>
<g><title>85 (position.label in template: 90.A)</title><text x="234.745" y="113.681" class="black" >A</text></g>
<g><line x1="236.775" y1="113.376" x2="244.745" y2="113.376" class="black" /></g>
<g><title>86 (position.label in template: 91.A)</title><text x="234.745" y="106.121" class="black" >A</text></g>
<g><line x1="236.775" y1="105.816" x2="244.745" y2="105.816" class="black" /></g>
<g><title>87 (position.label in template: 92.G)</title><text x="234.325" y="98.5606" class="black" >G</text></g>
<g><line x1="236.355" y1="98.2561" x2="244.745" y2="98.2561" class="black" /></g>
<g><title>88 (position.label in template: 93.A)</title><text x="234.745" y="91.0006" class="black" >A</text></g>
<g><line x1="236.775" y1="90.6961" x2="244.745" y2="90.6961" class="black" /></g>
<g><title>89 (position.label in template: 94.U)</title><text x="232.527" y="85.1918" class="blue" >U</text></g>
<g><title>90 (position.label in template: 95.U)</title><text x="235.002" y="79.4877" class="green" >C</text></g>
<g><title>91 (inserted)</title><text x="240.76" y="77.1403" class="red" >C</text></g>
<g><title>92 (position.label in template: 96.A)</title><text x="246.518" y="79.4877" class="green" >G</text></g>
<g><title>93 (position.label in template: 97.U)</title><text x="248.993" y="85.1918" class="blue" >U</text></g>
<g><title>94 (position.label in template: 98.U)</title><text x="246.775" y="91.0006" class="black" >U</text></g>
<g><title>95 (position.label in template: 99.C)</title><text x="246.775" y="98.5606" class="black" >C</text></g>
<g><title>96 (position.label in template: 100.U)</title><text x="246.775" y="106.121" class="black" >U</text></g>
<g><title>97 (position.label in template: 101.U)</title><text x="246.775" y="113.681" class="black" >U</text></g>
<g><title>98 (position.label in template: 102.G)</title><text x="246.565" y="121.241" class="black" >G</text></g>
<g><title>99 (position.label in template: 103.U)</title><text x="246.775" y="128.801" class="black" >U</text></g>
<g><title>100 (position.label in template: 104.U)</title><text x="246.775" y="136.361" class="black" >U</text></g>
<g><title>100 (inserted)</title><text x="252.66" y="132.852" class="numbering-label sequential" >100</text></g>
<g><line x1="248.344" y1="135.425" x2="250.106" y2="134.375" class="numbering-line sequential" /></g>
<g><title>101 (position.label in template: 105.A)</title><text x="253.535" y="140.141" class="black" >A</text></g>
<g><title>102 (position.label in template: 106.G)</title><text x="246.565" y="143.921" class="black" >G</text></g>
<g><title>103 (position.label in template: 107.C)</title><text x="246.775" y="151.481" class="black" >C</text></g>
<g><title>104 (position.label in template: 108.U)</title><text x="246.775" y="159.041" class="black" >U</text></g>
<g><title>105 (position.label in template: 109.U)</title><text x="254.125" y="160.841" class="black" >U</text></g>
<g><title>106 (position.label in template: 110.U)</title><text x="260.275" y="165.231" class="black" >U</text></g>
<g><title>107 (position.label in template: 111.G)</title><text x="264.145" y="171.591" class="black" >G</text></g>
<g><title>108 (position.label in template: 112.U)</title><text x="265.785" y="179.021" class="black" >U</text></g>
<g><title>109 (position.label in template: 113.U)</title><text x="264.355" y="186.441" class="black" >U</text></g>
<g><title>110 (position.label in template: 114.C)</title><text x="260.275" y="192.801" class="black" >C</text></g>
<g><title>111 (position.label in template: 115.U)</title><text x="254.125" y="197.201" class="black" >U</text></g>
<g><title>112 (position.label in template: 116.G)</title><text x="246.565" y="198.991" class="black" >G</text></g>
<g><title>113 (position.label in template: 117.G)</title><text x="246.565" y="206.551" class="black" >G</text></g>
<g><title>114 (position.label in template: 118.A)</title><text x="246.985" y="214.111" class="black" >A</text></g>
<g><title>115 (position.label in template: 119.G)</title><text x="246.565" y="221.671" class="black" >G</text></g>
<g><title>116 (position.label in template: 120.G)</title><text x="246.565" y="229.231" class="black" >G</text></g>
<g><title>117 (position.label in template: 121.C)</title><text x="246.775" y="236.791" class="black" >C</text></g>
<g><title>118 (position.label in template: 122.A)</title><text x="246.985" y="244.351" class="black" >A</text></g>
<g><title>119 (position.label in template: 123.C)</title><text x="252.221" y="249.8" class="black" >C</text></g>
<g><title>120 (position.label in template: 124.A)</title><text x="259.778" y="249.8" class="black" >A</text></g>
<g><title>121 (position.label in template: 125.G)</title><text x="267.336" y="249.8" class="green" >U</text></g>
<g><title>122 (position.label in template: 126.A)</title><text x="274.893" y="249.8" class="black" >A</text></g>
<g><title>123 (position.label in template: 127.U)</title><text x="282.451" y="249.8" class="black" >U</text></g>
<g><title>124 (position.label in template: 128.3')</title><text x="290.008" y="249.8" class="green" >3'</text></g>
<g><line x1="88.2711" y1="130.242" x2="84.8942" y2="129.331" class="gray" /></g>
<g><line x1="80.974" y1="128.275" x2="77.7199" y2="127.398" class="gray" /></g>
<g><line x1="73.932" y1="125.986" x2="70.8973" y2="124.52" class="gray" /></g>
<g><line x1="67.4373" y1="122.43" x2="64.7276" y2="120.426" class="gray" /></g>
<g><line x1="61.7158" y1="117.73" x2="59.4253" y2="115.258" class="gray" /></g>
<g><line x1="56.9665" y1="112.049" x2="55.1748" y2="109.195" class="gray" /></g>
<g><line x1="53.3545" y1="105.586" x2="52.1241" y2="102.448" class="gray" /></g>
<g><line x1="51.0055" y1="98.5635" x2="50.379" y2="95.2521" class="gray" /></g>
<g><line x1="50.0012" y1="91.2274" x2="50.0005" y2="87.8572" class="gray" /></g>
<g><line x1="50.3765" y1="83.8324" x2="51.0015" y2="80.5207" class="gray" /></g>
<g><line x1="52.1183" y1="76.6357" x2="53.3473" y2="73.4976" class="gray" /></g>
<g><line x1="55.166" y1="69.8875" x2="56.9564" y2="67.0321" class="gray" /></g>
<g><line x1="59.4138" y1="63.8225" x2="61.7031" y2="61.3492" class="gray" /></g>
<g><line x1="64.7137" y1="58.6517" x2="67.4225" y2="56.6465" class="gray" /></g>
<g><line x1="70.8816" y1="54.5548" x2="73.9156" y2="53.0875" class="gray" /></g>
<g><line x1="77.7029" y1="51.6744" x2="80.9566" y2="50.7959" class="gray" /></g>
<g><line x1="84.9405" y1="50.1107" x2="88.3007" y2="49.8516" class="gray" /></g>
<g><line x1="92.3425" y1="49.9179" x2="95.6924" y2="50.2872" class="gray" /></g>
<g><line x1="99.6516" y1="51.1029" x2="102.875" y2="52.0878" class="gray" /></g>
<g><line x1="106.614" y1="53.6244" x2="109.598" y2="55.1906" class="gray" /></g>
<g><line x1="112.986" y1="57.3947" x2="115.628" y2="59.4877" class="gray" /></g>
<g><line x1="118.548" y1="62.2826" x2="120.755" y2="64.8297" class="gray" /></g>
<g><line x1="123.106" y1="68.1183" x2="124.801" y2="71.0309" class="gray" /></g>
<g><line x1="126.501" y1="74.6988" x2="127.626" y2="77.8755" class="gray" /></g>
<g><line x1="128.615" y1="81.7951" x2="129.131" y2="85.1256" class="gray" /></g>
<g><line x1="129.374" y1="89.1606" x2="129.263" y2="92.5289" class="gray" /></g>
<g><line x1="128.753" y1="96.539" x2="128.018" y2="99.8281" class="gray" /></g>
<g><line x1="126.773" y1="103.674" x2="125.44" y2="106.769" class="gray" /></g>
<g><line x1="123.502" y1="110.317" x2="121.618" y2="113.111" class="gray" /></g>
<g><line x1="119.055" y1="116.237" x2="116.685" y2="118.633" class="gray" /></g>
<g><line x1="113.586" y1="121.229" x2="110.812" y2="123.143" class="gray" /></g>
<g><line x1="107.285" y1="125.118" x2="104.204" y2="126.484" class="gray" /></g>
<g><line x1="100.372" y1="127.77" x2="97.0904" y2="128.539" class="gray" /></g>
<g><line x1="96.3563" y1="134.677" x2="98.7204" y2="145.477" class="gray" /></g>
<g><line x1="99.9626" y1="153.181" x2="99.9626" y2="156.681" class="gray" /></g>
<g><line x1="99.9626" y1="160.741" x2="99.9626" y2="164.238" class="gray" /></g>
<g><line x1="99.9626" y1="168.298" x2="99.9626" y2="171.796" class="gray" /></g>
<g><line x1="99.9626" y1="175.856" x2="99.9626" y2="179.353" class="gray" /></g>
<g><line x1="99.9626" y1="183.413" x2="99.9626" y2="186.911" class="gray" /></g>
<g><line x1="99.9626" y1="190.971" x2="99.9626" y2="194.468" class="gray" /></g>
<g><line x1="99.9626" y1="198.528" x2="99.9626" y2="202.026" class="gray" /></g>
<g><line x1="99.9626" y1="206.086" x2="99.9626" y2="209.586" class="gray" /></g>
<g><line x1="100.072" y1="217.423" x2="100.138" y2="220.92" class="gray" /></g>
<g><line x1="100.215" y1="224.979" x2="100.423" y2="236.032" class="gray" /></g>
<g><line x1="100.5" y1="240.092" x2="100.565" y2="243.588" class="gray" /></g>
<g><line x1="102.705" y1="249.396" x2="106.205" y2="249.396" class="gray" /></g>
<g><line x1="110.265" y1="249.396" x2="113.765" y2="249.396" class="gray" /></g>
<g><line x1="117.825" y1="249.396" x2="121.325" y2="249.396" class="gray" /></g>
<g><line x1="125.385" y1="249.396" x2="128.675" y2="249.396" class="gray" /></g>
<g><line x1="132.735" y1="249.396" x2="136.645" y2="249.396" class="gray" /></g>
<g><line x1="140.705" y1="249.396" x2="144.005" y2="249.396" class="gray" /></g>
<g><line x1="148.065" y1="249.396" x2="151.765" y2="249.396" class="gray" /></g>
<g><line x1="155.825" y1="249.396" x2="166.885" y2="249.396" class="gray" /></g>
<g><line x1="170.945" y1="249.396" x2="174.035" y2="249.396" class="gray" /></g>
<g><line x1="178.095" y1="249.396" x2="182.005" y2="249.396" class="gray" /></g>
<g><line x1="186.065" y1="249.396" x2="189.155" y2="249.396" class="gray" /></g>
<g><line x1="193.215" y1="249.396" x2="197.125" y2="249.396" class="gray" /></g>
<g><line x1="201.185" y1="249.396" x2="204.685" y2="249.396" class="gray" /></g>
<g><line x1="208.745" y1="249.396" x2="212.245" y2="249.396" class="gray" /></g>
<g><line x1="216.305" y1="249.396" x2="219.395" y2="249.396" class="gray" /></g>
<g><line x1="223.455" y1="249.396" x2="227.365" y2="249.396" class="gray" /></g>
<g><line x1="230.801" y1="247.932" x2="233.129" y2="245.51" class="gray" /></g>
<g><line x1="234.479" y1="242.017" x2="234.381" y2="238.515" class="gray" /></g>
<g><line x1="234.381" y1="234.457" x2="234.479" y2="230.955" class="gray" /></g>
<g><line x1="234.535" y1="226.896" x2="234.535" y2="223.396" class="gray" /></g>
<g><line x1="234.535" y1="219.336" x2="234.535" y2="215.836" class="gray" /></g>
<g><line x1="234.535" y1="211.776" x2="234.535" y2="208.276" class="gray" /></g>
<g><line x1="234.535" y1="204.216" x2="234.535" y2="200.716" class="gray" /></g>
<g><line x1="232.733" y1="197.752" x2="229.627" y2="196.141" class="gray" /></g>
<g><line x1="226.477" y1="193.689" x2="224.153" y2="191.074" class="gray" /></g>
<g><line x1="222.082" y1="187.659" x2="220.838" y2="184.393" class="gray" /></g>
<g><line x1="220.115" y1="180.466" x2="220.115" y2="176.966" class="gray" /></g>
<g><line x1="220.837" y1="173.039" x2="222.083" y2="169.763" class="gray" /></g>
<g><line x1="224.155" y1="166.35" x2="226.475" y2="163.742" class="gray" /></g>
<g><line x1="229.638" y1="161.312" x2="232.932" y2="159.65" class="gray" /></g>
<g><line x1="234.632" y1="156.709" x2="234.438" y2="153.203" class="gray" /></g>
<g><line x1="234.381" y1="149.147" x2="234.479" y2="145.645" class="gray" /></g>
<g><line x1="234.591" y1="141.587" x2="234.689" y2="138.085" class="gray" /></g>
<g><line x1="234.632" y1="134.029" x2="234.438" y2="130.523" class="gray" /></g>
<g><line x1="234.381" y1="126.467" x2="234.479" y2="122.965" class="gray" /></g>
<g><line x1="234.591" y1="118.907" x2="234.689" y2="115.405" class="gray" /></g>
<g><line x1="234.745" y1="111.346" x2="234.745" y2="107.846" class="gray" /></g>
<g><line x1="234.632" y1="103.789" x2="234.438" y2="100.283" class="gray" /></g>
<g><line x1="234.438" y1="96.2292" x2="234.632" y2="92.723" class="gray" /></g>
<g><line x1="234.021" y1="88.7997" x2="233.251" y2="86.7837" class="gray" /></g>
<g><line x1="233.335" y1="83.025" x2="234.194" y2="81.0454" class="gray" /></g>
<g><line x1="236.882" y1="78.4168" x2="238.88" y2="77.6022" class="gray" /></g>
<g><line x1="242.64" y1="77.6022" x2="244.638" y2="78.4168" class="gray" /></g>
<g><line x1="247.326" y1="81.0454" x2="248.185" y2="83.025" class="gray" /></g>
<g><line x1="248.269" y1="86.7837" x2="247.499" y2="88.7997" class="gray" /></g>
<g><line x1="246.775" y1="92.7261" x2="246.775" y2="96.2261" class="gray" /></g>
<g><line x1="246.775" y1="100.286" x2="246.775" y2="103.786" class="gray" /></g>
<g><line x1="246.775" y1="107.846" x2="246.775" y2="111.346" class="gray" /></g>
<g><line x1="246.719" y1="115.405" x2="246.621" y2="118.907" class="gray" /></g>
<g><line x1="246.621" y1="122.965" x2="246.719" y2="126.467" class="gray" /></g>
<g><line x1="246.775" y1="130.526" x2="246.775" y2="134.026" class="gray" /></g>
<g><line x1="248.547" y1="137.047" x2="251.763" y2="138.845" class="gray" /></g>
<g><line x1="251.751" y1="140.804" x2="248.349" y2="142.648" class="gray" /></g>
<g><line x1="246.621" y1="145.645" x2="246.719" y2="149.147" class="gray" /></g>
<g><line x1="246.775" y1="153.206" x2="246.775" y2="156.706" class="gray" /></g>
<g><line x1="248.747" y1="159.219" x2="252.153" y2="160.053" class="gray" /></g>
<g><line x1="255.777" y1="161.716" x2="258.623" y2="163.747" class="gray" /></g>
<g><line x1="261.33" y1="166.66" x2="263.09" y2="169.552" class="gray" /></g>
<g><line x1="264.583" y1="173.268" x2="265.347" y2="176.734" class="gray" /></g>
<g><line x1="265.401" y1="180.709" x2="264.739" y2="184.143" class="gray" /></g>
<g><line x1="263.259" y1="187.845" x2="261.371" y2="190.787" class="gray" /></g>
<g><line x1="258.624" y1="193.677" x2="255.776" y2="195.715" class="gray" /></g>
<g><line x1="252.15" y1="197.364" x2="248.54" y2="198.218" class="gray" /></g>
<g><line x1="246.565" y1="200.716" x2="246.565" y2="204.216" class="gray" /></g>
<g><line x1="246.678" y1="208.273" x2="246.872" y2="211.779" class="gray" /></g>
<g><line x1="246.872" y1="215.833" x2="246.678" y2="219.339" class="gray" /></g>
<g><line x1="246.565" y1="223.396" x2="246.565" y2="226.896" class="gray" /></g>
<g><line x1="246.621" y1="230.955" x2="246.719" y2="234.457" class="gray" /></g>
<g><line x1="246.831" y1="238.515" x2="246.929" y2="242.017" class="gray" /></g>
<g><line x1="248.391" y1="245.51" x2="250.814" y2="248.032" class="gray" /></g>
<g><line x1="254.251" y1="249.496" x2="257.748" y2="249.496" class="gray" /></g>
<g><line x1="261.808" y1="249.496" x2="265.306" y2="249.496" class="gray" /></g>
<g><line x1="269.366" y1="249.496" x2="272.863" y2="249.496" class="gray" /></g>
<g><line x1="276.923" y1="249.496" x2="280.421" y2="249.496" class="gray" /></g>
<g><line x1="284.481" y1="249.496" x2="287.978" y2="249.496" class="gray" /></g>
</svg>
