<svg
	xmlns="http://www.w3.org/2000/svg"
	width="291.664"
	height="278.11"
	style="font-size: 3.045014px; font-weight: bold; font-family: Helvetica; " >
<g><style type="text/css" >
<!-- create color definitions -->
<![CDATA[
text.red {fill: rgb(255, 0, 255); }
text.green {fill: rgb(0, 255, 0); }
text.blue {fill: rgb(0, 0, 255); }
text.black {fill: rgb(0, 0, 0); }
text.gray {fill: rgb(204, 204, 204); }
text.brown {fill: rgb(211.65, 104.55, 30.6); }
text {fill: rgb(0, 0, 0); text-anchor: middle; alignment-baseline: middle; }
circle.red {stroke: rgb(255, 0, 255); fill: none; }
circle.green {stroke: rgb(0, 255, 0); fill: none; }
circle.blue {stroke: rgb(0, 0, 255); fill: none; }
circle.black {stroke: rgb(0, 0, 0); fill: none; }
circle.gray {stroke: rgb(204, 204, 204); fill: none; }
circle.brown {stroke: rgb(211.65, 104.55, 30.6); fill: none; }
circle {stroke: rgb(0, 0, 0); }
line.red {stroke: rgb(255, 0, 255); stroke-width: 0.380627; }
line.green {stroke: rgb(0, 255, 0); stroke-width: 0.380627; }
line.blue {stroke: rgb(0, 0, 255); stroke-width: 0.380627; }
line.black {stroke: rgb(0, 0, 0); stroke-width: 0.380627; }
line.gray {stroke: rgb(204, 204, 204); stroke-width: 0.380627; }
line.brown {stroke: rgb(211.65, 104.55, 30.6); stroke-width: 0.380627; }
line {stroke: rgb(0, 0, 0); }
text.numbering-label {fill: rgb(204, 204, 204);}
line.numbering-line {stroke: rgb(204, 204, 204); stroke-width: 0.190313;}
line.predicted {stroke: rgb(0, 0, 0); stroke-dasharray: 2}
text.background {fill: rgb(255, 255, 255);
.template {visibility:hidden}
]]>
</style></g>
<g><title>0 (position.label in template: 0.5')</title><text x="54.9224" y="145.18" class="green" >5'</text></g>
<g><title>1 (position.label in template: 19.U)</title><text x="55.1323" y="137.625" class="black" >U</text></g>
<g><title>2 (position.label in template: 20.A)</title><text x="55.3421" y="130.071" class="black" >A</text></g>
<g><title>3 (position.label in template: 21.G)</title><text x="59.7817" y="123.955" class="green" >G</text></g>
<g><line x1="61.8117" y1="123.65" x2="70.2016" y2="123.65" class="black" /></g>
<g><title>4 (position.label in template: 22.A)</title><text x="60.2017" y="116.395" class="green" >U</text></g>
<g><line x1="62.2317" y1="116.09" x2="70.2016" y2="116.09" class="black" /></g>
<g><title>5 (position.label in template: 23.Y)</title><text x="60.2017" y="108.835" class="green" >U</text></g>
<g><line x1="62.2314" y1="108.564" x2="70.3519" y2="108.697" class="black" /></g>
<g><title>6 (position.label in template: 24.U)</title><text x="54.423" y="104.845" class="blue" >U</text></g>
<g><title>7 (inserted)</title><text x="50.8075" y="98.8245" class="red" >U</text></g>
<g><title>8 (inserted)</title><text x="50" y="91.8486" class="red" >U</text></g>
<g><title>9 (inserted)</title><text x="52.1448" y="85.1618" class="red" >U</text></g>
<g><title>10 (inserted)</title><text x="56.859" y="79.957" class="red" >C</text></g>
<g><title>10 (inserted)</title><text x="52.8671" y="74.3889" class="numbering-label sequential" >10</text></g>
<g><line x1="55.7945" y1="78.4722" x2="53.9586" y2="75.9114" class="numbering-line sequential" /></g>
<g><title>11 (inserted)</title><text x="63.3017" y="77.163" class="red" >C</text></g>
<g><title>12 (inserted)</title><text x="70.3231" y="77.2783" class="red" >U</text></g>
<g><title>13 (inserted)</title><text x="76.6706" y="80.2823" class="red" >U</text></g>
<g><title>14 (inserted)</title><text x="81.2114" y="85.6391" class="red" >U</text></g>
<g><title>15 (inserted)</title><text x="83.1355" y="92.3927" class="red" >C</text></g>
<g><title>16 (inserted)</title><text x="82.0994" y="99.3383" class="red" >U</text></g>
<g><title>17 (inserted)</title><text x="78.2882" y="105.236" class="red" >U</text></g>
<g><title>18 (position.label in template: 37.N)</title><text x="72.3817" y="109.035" class="green" >U</text></g>
<g><title>19 (position.label in template: 38.U)</title><text x="72.2317" y="116.395" class="green" >G</text></g>
<g><title>20 (position.label in template: 39.U)</title><text x="72.2317" y="123.955" class="green" >C</text></g>
<g><title>20 (inserted)</title><text x="78.699" y="121.693" class="numbering-label sequential" >20</text></g>
<g><line x1="73.9563" y1="123.352" x2="76.872" y2="122.332" class="numbering-line sequential" /></g>
<g><title>21 (position.label in template: 40.U)</title><text x="76.9417" y="129.865" class="black" >U</text></g>
<g><title>22 (position.label in template: 41.U)</title><text x="76.9417" y="137.425" class="black" >U</text></g>
<g><title>23 (inserted)</title><text x="76.9417" y="144.982" class="red" >G</text></g>
<g><title>24 (inserted)</title><text x="76.9417" y="152.54" class="red" >U</text></g>
<g><title>25 (inserted)</title><text x="76.9417" y="160.097" class="red" >G</text></g>
<g><title>26 (inserted)</title><text x="76.9417" y="167.655" class="red" >G</text></g>
<g><title>27 (inserted)</title><text x="76.9417" y="175.212" class="red" >G</text></g>
<g><title>28 (position.label in template: 47.U)</title><text x="76.9417" y="182.769" class="black" >U</text></g>
<g><title>29 (position.label in template: 48.U)</title><text x="76.9417" y="190.329" class="black" >U</text></g>
<g><title>30 (inserted)</title><text x="77.0129" y="194.108" class="red" >G</text></g>
<g><title>30 (inserted)</title><text x="70.1628" y="194.237" class="numbering-label sequential" >30</text></g>
<g><line x1="75.1862" y1="194.142" x2="71.9898" y2="194.202" class="numbering-line sequential" /></g>
<g><title>31 (inserted)</title><text x="77.1554" y="201.664" class="red" >G</text></g>
<g><title>32 (inserted)</title><text x="77.4403" y="216.776" class="red" >U</text></g>
<g><title>33 (inserted)</title><text x="77.5828" y="224.332" class="red" >U</text></g>
<g><title>34 (position.label in template: 53.U)</title><text x="77.6541" y="228.11" class="black" >U</text></g>
<g><title>35 (position.label in template: 54.U)</title><text x="85.2141" y="228.11" class="green" >C</text></g>
<g><title>36 (position.label in template: 55.U)</title><text x="92.7741" y="228.11" class="black" >U</text></g>
<g><title>37 (position.label in template: 56.U)</title><text x="100.334" y="228.11" class="black" >U</text></g>
<g><title>38 (position.label in template: 57.G)</title><text x="107.684" y="228.11" class="black" >G</text></g>
<g><title>39 (inserted)</title><text x="115.242" y="228.11" class="red" >G</text></g>
<g><title>40 (position.label in template: 58.A)</title><text x="122.799" y="228.11" class="black" >A</text></g>
<g><title>41 (position.label in template: 59.U)</title><text x="130.159" y="228.11" class="black" >U</text></g>
<g><title>42 (position.label in template: 60.A)</title><text x="137.919" y="228.11" class="black" >A</text></g>
<g><title>43 (position.label in template: 61.A)</title><text x="145.479" y="228.11" class="green" >U</text></g>
<g><title>44 (position.label in template: 62.A)</title><text x="153.039" y="228.11" class="black" >A</text></g>
<g><title>45 (position.label in template: 67.A)</title><text x="160.596" y="228.11" class="black" >A</text></g>
<g><title>46 (position.label in template: 68.A)</title><text x="168.156" y="228.11" class="black" >A</text></g>
<g><title>47 (position.label in template: 69.G)</title><text x="175.306" y="228.11" class="black" >G</text></g>
<g><title>48 (position.label in template: 70.A)</title><text x="183.276" y="228.11" class="black" >A</text></g>
<g><title>49 (inserted)</title><text x="188.512" y="222.66" class="red" >U</text></g>
<g><title>50 (position.label in template: 71.U)</title><text x="193.748" y="217.21" class="black" >U</text></g>
<g><line x1="195.778" y1="216.906" x2="204.168" y2="216.906" class="black" /></g>
<g><title>50 (inserted)</title><text x="187.357" y="214.741" class="numbering-label sequential" >50</text></g>
<g><line x1="192.044" y1="216.552" x2="189.184" y2="215.447" class="numbering-line sequential" /></g>
<g><title>51 (position.label in template: 72.G)</title><text x="193.538" y="209.65" class="black" >G</text></g>
<g><line x1="195.568" y1="209.346" x2="203.958" y2="209.346" class="black" /></g>
<g><title>52 (position.label in template: 73.C)</title><text x="193.748" y="202.09" class="black" >C</text></g>
<g><line x1="195.778" y1="201.786" x2="203.748" y2="201.786" class="black" /></g>
<g><title>53 (position.label in template: 74.C)</title><text x="193.748" y="194.53" class="black" >C</text></g>
<g><line x1="195.778" y1="194.226" x2="203.748" y2="194.226" class="black" /></g>
<g><title>54 (position.label in template: 75.U)</title><text x="193.748" y="186.97" class="black" >U</text></g>
<g><line x1="195.778" y1="186.666" x2="204.168" y2="186.666" class="black" /></g>
<g><title>55 (position.label in template: 76.C)</title><text x="193.748" y="179.41" class="black" >C</text></g>
<g><line x1="195.778" y1="179.106" x2="203.748" y2="179.106" class="black" /></g>
<g><title>56 (position.label in template: 77.U)</title><text x="193.748" y="171.85" class="black" >U</text></g>
<g><line x1="195.778" y1="171.546" x2="203.748" y2="171.546" class="black" /></g>
<g><title>57 (position.label in template: 78.U)</title><text x="187.038" y="168.37" class="black" >U</text></g>
<g><title>58 (position.label in template: 79.C)</title><text x="182.018" y="162.72" class="black" >C</text></g>
<g><title>59 (position.label in template: 80.U)</title><text x="179.328" y="155.66" class="black" >U</text></g>
<g><title>60 (position.label in template: 81.U)</title><text x="179.328" y="148.1" class="black" >U</text></g>
<g><title>61 (position.label in template: 82.U)</title><text x="182.018" y="141.03" class="black" >U</text></g>
<g><title>62 (position.label in template: 83.C)</title><text x="187.038" y="135.39" class="black" >C</text></g>
<g><title>63 (position.label in template: 84.A)</title><text x="193.958" y="131.9" class="black" >A</text></g>
<g><line x1="195.988" y1="131.596" x2="203.958" y2="131.596" class="black" /></g>
<g><title>64 (position.label in template: 85.G)</title><text x="193.538" y="124.34" class="black" >G</text></g>
<g><line x1="195.568" y1="124.036" x2="203.958" y2="124.036" class="black" /></g>
<g><title>65 (position.label in template: 86.C)</title><text x="193.748" y="116.78" class="black" >C</text></g>
<g><line x1="195.778" y1="116.476" x2="203.748" y2="116.476" class="black" /></g>
<g><title>66 (position.label in template: 87.A)</title><text x="193.958" y="109.22" class="black" >A</text></g>
<g><line x1="195.988" y1="108.916" x2="203.958" y2="108.916" class="black" /></g>
<g><title>67 (position.label in template: 88.G)</title><text x="193.538" y="101.66" class="black" >G</text></g>
<g><line x1="195.568" y1="101.356" x2="203.958" y2="101.356" class="black" /></g>
<g><title>68 (position.label in template: 89.C)</title><text x="193.748" y="94.1003" class="black" >C</text></g>
<g><line x1="195.778" y1="93.7958" x2="203.748" y2="93.7958" class="black" /></g>
<g><title>69 (position.label in template: 90.A)</title><text x="193.958" y="86.5403" class="black" >A</text></g>
<g><line x1="195.988" y1="86.2358" x2="203.958" y2="86.2358" class="black" /></g>
<g><title>70 (position.label in template: 91.A)</title><text x="193.958" y="78.9803" class="black" >A</text></g>
<g><line x1="195.988" y1="78.6758" x2="203.958" y2="78.6758" class="black" /></g>
<g><title>71 (position.label in template: 92.G)</title><text x="193.538" y="71.4203" class="black" >G</text></g>
<g><line x1="195.568" y1="71.1158" x2="203.958" y2="71.1158" class="black" /></g>
<g><title>72 (position.label in template: 93.A)</title><text x="193.958" y="63.8603" class="black" >A</text></g>
<g><line x1="195.988" y1="63.5558" x2="203.958" y2="63.5558" class="black" /></g>
<g><title>73 (position.label in template: 94.U)</title><text x="191.74" y="58.0515" class="blue" >U</text></g>
<g><title>74 (inserted)</title><text x="194.215" y="52.3474" class="red" >C</text></g>
<g><title>75 (position.label in template: 95.U)</title><text x="199.973" y="50" class="blue" >U</text></g>
<g><title>76 (position.label in template: 96.A)</title><text x="205.731" y="52.3474" class="blue" >A</text></g>
<g><title>77 (position.label in template: 97.U)</title><text x="208.206" y="58.0515" class="blue" >U</text></g>
<g><title>78 (position.label in template: 98.U)</title><text x="205.988" y="63.8603" class="black" >U</text></g>
<g><title>79 (position.label in template: 99.C)</title><text x="205.988" y="71.4203" class="black" >C</text></g>
<g><title>80 (position.label in template: 100.U)</title><text x="205.988" y="78.9803" class="black" >U</text></g>
<g><title>81 (position.label in template: 101.U)</title><text x="205.988" y="86.5403" class="black" >U</text></g>
<g><title>82 (position.label in template: 102.G)</title><text x="205.778" y="94.1003" class="black" >G</text></g>
<g><title>83 (position.label in template: 103.U)</title><text x="205.988" y="101.66" class="black" >U</text></g>
<g><title>84 (position.label in template: 104.U)</title><text x="205.988" y="109.22" class="black" >U</text></g>
<g><title>85 (position.label in template: 105.A)</title><text x="212.748" y="113" class="black" >A</text></g>
<g><title>86 (position.label in template: 106.G)</title><text x="205.778" y="116.78" class="black" >G</text></g>
<g><title>87 (position.label in template: 107.C)</title><text x="205.988" y="124.34" class="black" >C</text></g>
<g><title>88 (position.label in template: 108.U)</title><text x="205.988" y="131.9" class="black" >U</text></g>
<g><title>89 (position.label in template: 109.U)</title><text x="213.338" y="133.7" class="black" >U</text></g>
<g><title>90 (position.label in template: 110.U)</title><text x="219.488" y="138.09" class="black" >U</text></g>
<g><title>91 (position.label in template: 111.G)</title><text x="223.358" y="144.45" class="black" >G</text></g>
<g><title>92 (position.label in template: 112.U)</title><text x="224.998" y="151.88" class="black" >U</text></g>
<g><title>93 (position.label in template: 113.U)</title><text x="223.568" y="159.3" class="black" >U</text></g>
<g><title>94 (position.label in template: 114.C)</title><text x="219.488" y="165.66" class="black" >C</text></g>
<g><title>95 (position.label in template: 115.U)</title><text x="213.338" y="170.06" class="black" >U</text></g>
<g><title>96 (position.label in template: 116.G)</title><text x="205.778" y="171.85" class="black" >G</text></g>
<g><title>97 (position.label in template: 117.G)</title><text x="205.778" y="179.41" class="black" >G</text></g>
<g><title>98 (position.label in template: 118.A)</title><text x="206.198" y="186.97" class="black" >A</text></g>
<g><title>99 (position.label in template: 119.G)</title><text x="205.778" y="194.53" class="black" >G</text></g>
<g><title>100 (position.label in template: 120.G)</title><text x="205.778" y="202.09" class="black" >G</text></g>
<g><title>100 (inserted)</title><text x="212.629" y="201.995" class="numbering-label sequential" >100</text></g>
<g><line x1="207.605" y1="202.065" x2="209.888" y2="202.033" class="numbering-line sequential" /></g>
<g><title>101 (position.label in template: 121.C)</title><text x="205.988" y="209.65" class="black" >C</text></g>
<g><title>102 (position.label in template: 122.A)</title><text x="206.198" y="217.21" class="black" >A</text></g>
<g><title>103 (position.label in template: 123.C)</title><text x="211.434" y="222.66" class="black" >C</text></g>
<g><title>104 (position.label in template: 124.A)</title><text x="218.992" y="222.66" class="black" >A</text></g>
<g><title>105 (position.label in template: 125.G)</title><text x="226.549" y="222.66" class="green" >U</text></g>
<g><title>106 (position.label in template: 126.A)</title><text x="234.106" y="222.66" class="black" >A</text></g>
<g><title>107 (position.label in template: 127.U)</title><text x="241.664" y="222.66" class="black" >U</text></g>
<g><title>108 (position.label in template: 128.3')</title><text x="249.221" y="222.66" class="green" >3'</text></g>
<g><line x1="54.9788" y1="142.846" x2="55.0759" y2="139.35" class="gray" /></g>
<g><line x1="55.1886" y1="135.292" x2="55.2858" y2="131.796" class="gray" /></g>
<g><line x1="56.5346" y1="128.123" x2="58.5891" y2="125.293" class="gray" /></g>
<g><line x1="59.8943" y1="121.623" x2="60.089" y2="118.117" class="gray" /></g>
<g><line x1="60.2017" y1="114.06" x2="60.2017" y2="110.56" class="gray" /></g>
<g><line x1="58.5312" y1="107.377" x2="56.0935" y2="105.694" class="gray" /></g>
<g><line x1="53.3779" y1="102.8" x2="51.8526" y2="100.26" class="gray" /></g>
<g><line x1="50.574" y1="96.5034" x2="50.2334" y2="93.5607" class="gray" /></g>
<g><line x1="50.62" y1="89.6111" x2="51.5248" y2="86.7903" class="gray" /></g>
<g><line x1="53.5075" y1="83.3527" x2="55.4963" y2="81.1571" class="gray" /></g>
<g><line x1="58.7215" y1="78.8448" x2="61.4393" y2="77.6662" class="gray" /></g>
<g><line x1="65.3314" y1="76.8918" x2="68.2934" y2="76.9405" class="gray" /></g>
<g><line x1="72.158" y1="77.8422" x2="74.8357" y2="79.1094" class="gray" /></g>
<g><line x1="77.9832" y1="81.5263" x2="79.8988" y2="83.7861" class="gray" /></g>
<g><line x1="81.7676" y1="87.2869" x2="82.5793" y2="90.1359" class="gray" /></g>
<g><line x1="82.836" y1="94.096" x2="82.3989" y2="97.026" class="gray" /></g>
<g><line x1="80.9977" y1="100.739" x2="79.3899" y2="103.227" class="gray" /></g>
<g><line x1="76.5807" y1="106.03" x2="74.0891" y2="107.632" class="gray" /></g>
<g><line x1="72.3403" y1="110.76" x2="72.273" y2="114.061" class="gray" /></g>
<g><line x1="72.2317" y1="118.12" x2="72.2317" y2="121.62" class="gray" /></g>
<g><line x1="73.4968" y1="125.238" x2="75.6765" y2="127.973" class="gray" /></g>
<g><line x1="76.9417" y1="131.59" x2="76.9417" y2="135.09" class="gray" /></g>
<g><line x1="76.9417" y1="139.15" x2="76.9417" y2="142.648" class="gray" /></g>
<g><line x1="76.9417" y1="146.708" x2="76.9417" y2="150.205" class="gray" /></g>
<g><line x1="76.9417" y1="154.265" x2="76.9417" y2="157.763" class="gray" /></g>
<g><line x1="76.9417" y1="161.823" x2="76.9417" y2="165.32" class="gray" /></g>
<g><line x1="76.9417" y1="169.38" x2="76.9417" y2="172.878" class="gray" /></g>
<g><line x1="76.9417" y1="176.938" x2="76.9417" y2="180.435" class="gray" /></g>
<g><line x1="76.9417" y1="184.495" x2="76.9417" y2="187.995" class="gray" /></g>
<g><line x1="77.0512" y1="195.833" x2="77.1171" y2="199.329" class="gray" /></g>
<g><line x1="77.1937" y1="203.389" x2="77.4021" y2="214.442" class="gray" /></g>
<g><line x1="77.4786" y1="218.501" x2="77.5446" y2="221.998" class="gray" /></g>
<g><line x1="79.6841" y1="227.805" x2="83.1841" y2="227.805" class="gray" /></g>
<g><line x1="87.2441" y1="227.805" x2="90.7441" y2="227.805" class="gray" /></g>
<g><line x1="94.8041" y1="227.805" x2="98.3041" y2="227.805" class="gray" /></g>
<g><line x1="102.364" y1="227.805" x2="105.654" y2="227.805" class="gray" /></g>
<g><line x1="109.714" y1="227.805" x2="113.212" y2="227.805" class="gray" /></g>
<g><line x1="117.272" y1="227.805" x2="120.769" y2="227.805" class="gray" /></g>
<g><line x1="124.829" y1="227.805" x2="128.129" y2="227.805" class="gray" /></g>
<g><line x1="132.189" y1="227.805" x2="135.889" y2="227.805" class="gray" /></g>
<g><line x1="139.949" y1="227.805" x2="143.449" y2="227.805" class="gray" /></g>
<g><line x1="147.509" y1="227.805" x2="151.009" y2="227.805" class="gray" /></g>
<g><line x1="155.069" y1="227.805" x2="158.566" y2="227.805" class="gray" /></g>
<g><line x1="162.626" y1="227.805" x2="166.126" y2="227.805" class="gray" /></g>
<g><line x1="170.186" y1="227.805" x2="173.276" y2="227.805" class="gray" /></g>
<g><line x1="177.336" y1="227.805" x2="181.246" y2="227.805" class="gray" /></g>
<g><line x1="184.683" y1="226.342" x2="187.106" y2="223.82" class="gray" /></g>
<g><line x1="189.919" y1="220.892" x2="192.342" y2="218.37" class="gray" /></g>
<g><line x1="193.692" y1="214.877" x2="193.595" y2="211.375" class="gray" /></g>
<g><line x1="193.595" y1="207.317" x2="193.692" y2="203.815" class="gray" /></g>
<g><line x1="193.748" y1="199.756" x2="193.748" y2="196.256" class="gray" /></g>
<g><line x1="193.748" y1="192.196" x2="193.748" y2="188.696" class="gray" /></g>
<g><line x1="193.748" y1="184.636" x2="193.748" y2="181.136" class="gray" /></g>
<g><line x1="193.748" y1="177.076" x2="193.748" y2="173.576" class="gray" /></g>
<g><line x1="191.946" y1="170.611" x2="188.84" y2="169" class="gray" /></g>
<g><line x1="185.69" y1="166.548" x2="183.367" y2="163.933" class="gray" /></g>
<g><line x1="181.295" y1="160.519" x2="180.051" y2="157.253" class="gray" /></g>
<g><line x1="179.328" y1="153.326" x2="179.328" y2="149.826" class="gray" /></g>
<g><line x1="180.05" y1="145.899" x2="181.296" y2="142.623" class="gray" /></g>
<g><line x1="183.368" y1="139.209" x2="185.689" y2="136.602" class="gray" /></g>
<g><line x1="188.851" y1="134.172" x2="192.146" y2="132.51" class="gray" /></g>
<g><line x1="193.846" y1="129.569" x2="193.651" y2="126.063" class="gray" /></g>
<g><line x1="193.595" y1="122.007" x2="193.692" y2="118.505" class="gray" /></g>
<g><line x1="193.805" y1="114.447" x2="193.902" y2="110.945" class="gray" /></g>
<g><line x1="193.846" y1="106.889" x2="193.651" y2="103.383" class="gray" /></g>
<g><line x1="193.595" y1="99.3266" x2="193.692" y2="95.8251" class="gray" /></g>
<g><line x1="193.805" y1="91.7666" x2="193.902" y2="88.2651" class="gray" /></g>
<g><line x1="193.958" y1="84.2058" x2="193.958" y2="80.7058" class="gray" /></g>
<g><line x1="193.846" y1="76.649" x2="193.651" y2="73.1427" class="gray" /></g>
<g><line x1="193.651" y1="69.089" x2="193.846" y2="65.5827" class="gray" /></g>
<g><line x1="193.234" y1="61.6594" x2="192.464" y2="59.6434" class="gray" /></g>
<g><line x1="192.548" y1="55.8848" x2="193.407" y2="53.9051" class="gray" /></g>
<g><line x1="196.095" y1="51.2766" x2="198.093" y2="50.4619" class="gray" /></g>
<g><line x1="201.853" y1="50.4619" x2="203.851" y2="51.2766" class="gray" /></g>
<g><line x1="206.539" y1="53.9051" x2="207.398" y2="55.8848" class="gray" /></g>
<g><line x1="207.482" y1="59.6434" x2="206.712" y2="61.6594" class="gray" /></g>
<g><line x1="205.988" y1="65.5858" x2="205.988" y2="69.0858" class="gray" /></g>
<g><line x1="205.988" y1="73.1458" x2="205.988" y2="76.6458" class="gray" /></g>
<g><line x1="205.988" y1="80.7058" x2="205.988" y2="84.2058" class="gray" /></g>
<g><line x1="205.932" y1="88.2651" x2="205.835" y2="91.7666" class="gray" /></g>
<g><line x1="205.835" y1="95.8251" x2="205.932" y2="99.3266" class="gray" /></g>
<g><line x1="205.988" y1="103.386" x2="205.988" y2="106.886" class="gray" /></g>
<g><line x1="207.76" y1="109.907" x2="210.976" y2="111.705" class="gray" /></g>
<g><line x1="210.964" y1="113.664" x2="207.563" y2="115.508" class="gray" /></g>
<g><line x1="205.835" y1="118.505" x2="205.932" y2="122.007" class="gray" /></g>
<g><line x1="205.988" y1="126.066" x2="205.988" y2="129.566" class="gray" /></g>
<g><line x1="207.96" y1="132.079" x2="211.366" y2="132.913" class="gray" /></g>
<g><line x1="214.99" y1="134.575" x2="217.836" y2="136.606" class="gray" /></g>
<g><line x1="220.543" y1="139.52" x2="222.303" y2="142.412" class="gray" /></g>
<g><line x1="223.796" y1="146.128" x2="224.561" y2="149.594" class="gray" /></g>
<g><line x1="224.614" y1="153.569" x2="223.952" y2="157.003" class="gray" /></g>
<g><line x1="222.472" y1="160.704" x2="220.584" y2="163.647" class="gray" /></g>
<g><line x1="217.837" y1="166.537" x2="214.989" y2="168.575" class="gray" /></g>
<g><line x1="211.363" y1="170.224" x2="207.754" y2="171.078" class="gray" /></g>
<g><line x1="205.778" y1="173.576" x2="205.778" y2="177.076" class="gray" /></g>
<g><line x1="205.891" y1="181.133" x2="206.086" y2="184.639" class="gray" /></g>
<g><line x1="206.086" y1="188.693" x2="205.891" y2="192.199" class="gray" /></g>
<g><line x1="205.778" y1="196.256" x2="205.778" y2="199.756" class="gray" /></g>
<g><line x1="205.835" y1="203.815" x2="205.932" y2="207.317" class="gray" /></g>
<g><line x1="206.045" y1="211.375" x2="206.142" y2="214.877" class="gray" /></g>
<g><line x1="207.605" y1="218.37" x2="210.028" y2="220.892" class="gray" /></g>
<g><line x1="213.464" y1="222.356" x2="216.962" y2="222.356" class="gray" /></g>
<g><line x1="221.022" y1="222.356" x2="224.519" y2="222.356" class="gray" /></g>
<g><line x1="228.579" y1="222.356" x2="232.076" y2="222.356" class="gray" /></g>
<g><line x1="236.136" y1="222.356" x2="239.634" y2="222.356" class="gray" /></g>
<g><line x1="243.694" y1="222.356" x2="247.191" y2="222.356" class="gray" /></g>
</svg>
