<svg
	xmlns="http://www.w3.org/2000/svg"
	width="224.051"
	height="183.766"
	style="font-size: 1.737882px; font-weight: bold; font-family: Helvetica; " >
<g><style type="text/css" >
<!-- create color definitions -->
<![CDATA[
text.red {fill: rgb(255, 0, 255); }
text.green {fill: rgb(0, 255, 0); }
text.blue {fill: rgb(0, 0, 255); }
text.black {fill: rgb(0, 0, 0); }
text.gray {fill: rgb(204, 204, 204); }
text.brown {fill: rgb(211.65, 104.55, 30.6); }
text {fill: rgb(0, 0, 0); text-anchor: middle; alignment-baseline: middle; }
circle.red {stroke: rgb(255, 0, 255); fill: none; }
circle.green {stroke: rgb(0, 255, 0); fill: none; }
circle.blue {stroke: rgb(0, 0, 255); fill: none; }
circle.black {stroke: rgb(0, 0, 0); fill: none; }
circle.gray {stroke: rgb(204, 204, 204); fill: none; }
circle.brown {stroke: rgb(211.65, 104.55, 30.6); fill: none; }
circle {stroke: rgb(0, 0, 0); }
line.red {stroke: rgb(255, 0, 255); stroke-width: 0.217235; }
line.green {stroke: rgb(0, 255, 0); stroke-width: 0.217235; }
line.blue {stroke: rgb(0, 0, 255); stroke-width: 0.217235; }
line.black {stroke: rgb(0, 0, 0); stroke-width: 0.217235; }
line.gray {stroke: rgb(204, 204, 204); stroke-width: 0.217235; }
line.brown {stroke: rgb(211.65, 104.55, 30.6); stroke-width: 0.217235; }
line {stroke: rgb(0, 0, 0); }
text.numbering-label {fill: rgb(204, 204, 204);}
line.numbering-line {stroke: rgb(204, 204, 204); stroke-width: 0.108618;}
line.predicted {stroke: rgb(0, 0, 0); stroke-dasharray: 2}
text.background {fill: rgb(255, 255, 255);
.template {visibility:hidden}
]]>
</style></g>
<g><title>0 (position.label in template: 0.5')</title><text x="82.0687" y="82.0413" class="green" >5'</text></g>
<g><title>1 (position.label in template: 3458.G)</title><text x="80.0303" y="83.4616" class="black" >G</text></g>
<g><title>2 (position.label in template: 3459.U)</title><text x="77.9919" y="84.8819" class="black" >U</text></g>
<g><title>3 (position.label in template: 3460.G)</title><text x="75.5075" y="84.8819" class="black" >G</text></g>
<g><title>4 (position.label in template: 3461.A)</title><text x="73.4691" y="83.4616" class="black" >A</text></g>
<g><title>5 (inserted)</title><text x="72.9225" y="81.038" class="red" >G</text></g>
<g><title>6 (inserted)</title><text x="72.3759" y="78.6145" class="red" >A</text></g>
<g><title>7 (inserted)</title><text x="71.8293" y="76.1909" class="red" >N</text></g>
<g><title>8 (position.label in template: 3465.A)</title><text x="71.2827" y="73.7674" class="black" >A</text></g>
<g><title>9 (inserted)</title><text x="71.5607" y="71.2985" class="red" >G</text></g>
<g><title>10 (inserted)</title><text x="71.8386" y="68.8297" class="red" >U</text></g>
<g><title>10 (inserted)</title><text x="75.7243" y="69.2672" class="numbering-label sequential" >10</text></g>
<g><line x1="72.8748" y1="68.9464" x2="74.6816" y2="69.1498" class="numbering-line sequential" /></g>
<g><title>11 (inserted)</title><text x="72.1166" y="66.3609" class="red" >G</text></g>
<g><title>12 (position.label in template: 3470.A)</title><text x="72.3946" y="63.8921" class="black" >A</text></g>
<g><title>13 (position.label in template: 3471.G)</title><text x="70.1328" y="62.8642" class="black" >G</text></g>
<g><title>14 (position.label in template: 3472.U)</title><text x="67.9885" y="61.6095" class="green" >A</text></g>
<g><title>15 (position.label in template: 3473.U)</title><text x="66.1562" y="59.9317" class="green" >G</text></g>
<g><title>16 (inserted)</title><text x="64.3318" y="61.6181" class="red" >G</text></g>
<g><title>17 (inserted)</title><text x="62.5074" y="63.3044" class="red" >G</text></g>
<g><title>18 (position.label in template: 3476.A)</title><text x="60.6829" y="64.9908" class="green" >U</text></g>
<g><title>19 (position.label in template: 3477.C)</title><text x="59.4563" y="67.1513" class="black" >C</text></g>
<g><title>20 (inserted)</title><text x="58.3783" y="69.3897" class="red" >U</text></g>
<g><title>20 (inserted)</title><text x="54.8554" y="67.6929" class="numbering-label sequential" >20</text></g>
<g><line x1="57.4388" y1="68.9372" x2="55.8981" y2="68.1951" class="numbering-line sequential" /></g>
<g><title>21 (inserted)</title><text x="57.3002" y="71.628" class="red" >C</text></g>
<g><title>22 (inserted)</title><text x="56.2222" y="73.8664" class="red" >U</text></g>
<g><title>23 (inserted)</title><text x="55.1441" y="76.1047" class="red" >C</text></g>
<g><title>24 (position.label in template: 3491.A)</title><text x="54.0661" y="78.343" class="black" >A</text></g>
<g><title>25 (position.label in template: 3492.U)</title><text x="55.1757" y="80.5659" class="green" >C</text></g>
<g><title>26 (position.label in template: 3493.U)</title><text x="56.4247" y="82.7135" class="green" >N</text></g>
<g><title>27 (position.label in template: 3494.G)</title><text x="57.443" y="84.9797" class="green" >U</text></g>
<g><line x1="57.443" y1="85.9645" x2="57.443" y2="91.9283" class="black" /></g>
<g><title>28 (position.label in template: 3495.U)</title><text x="59.927" y="84.9797" class="green" >G</text></g>
<g><line x1="59.927" y1="85.9645" x2="59.927" y2="91.9283" class="black" /></g>
<g><title>29 (position.label in template: 3496.U)</title><text x="62.412" y="84.9797" class="black" >U</text></g>
<g><line x1="62.412" y1="85.9645" x2="62.412" y2="91.9283" class="black" /></g>
<g><title>30 (position.label in template: 3499.C)</title><text x="66.2675" y="84.9797" class="green" >C</text></g>
<g><line x1="66.2675" y1="85.9645" x2="66.2675" y2="91.9283" class="black" /></g>
<g><title>30 (inserted)</title><text x="66.2675" y="81.0694" class="numbering-label sequential" >30</text></g>
<g><line x1="66.2675" y1="83.9369" x2="66.2675" y2="81.9384" class="numbering-line sequential" /></g>
<g><title>31 (position.label in template: 3500.G)</title><text x="68.7515" y="84.9797" class="black" >G</text></g>
<g><line x1="68.7515" y1="85.9645" x2="68.7515" y2="91.9283" class="black" /></g>
<g><title>32 (position.label in template: 3501.U)</title><text x="71.2365" y="84.9797" class="black" >U</text></g>
<g><line x1="71.2365" y1="85.9645" x2="71.2365" y2="91.9283" class="black" /></g>
<g><title>33 (position.label in template: 3502.A)</title><text x="75.1595" y="82.4697" class="green" >G</text></g>
<g><title>34 (position.label in template: 3503.A)</title><text x="79.8175" y="82.4527" class="black" >A</text></g>
<g><title>35 (position.label in template: 3504.U)</title><text x="83.7585" y="84.9347" class="green" >G</text></g>
<g><line x1="83.7585" y1="85.9195" x2="83.7585" y2="91.8833" class="black" /></g>
<g><title>36 (position.label in template: 3505.A)</title><text x="86.2425" y="84.9347" class="green" >N</text></g>
<g><line x1="86.2425" y1="85.9195" x2="86.2425" y2="91.8833" class="black" /></g>
<g><title>37 (position.label in template: 3506.G)</title><text x="88.7275" y="84.9347" class="black" >G</text></g>
<g><line x1="88.7275" y1="85.9195" x2="88.7275" y2="91.8833" class="black" /></g>
<g><title>38 (position.label in template: 3507.U)</title><text x="91.2115" y="83.6927" class="green" >A</text></g>
<g><line x1="91.2115" y1="84.6775" x2="91.2115" y2="93.1263" class="black" /></g>
<g><title>39 (position.label in template: 3508.A)</title><text x="93.6965" y="84.9347" class="green" >A</text></g>
<g><line x1="93.6965" y1="85.9195" x2="93.6965" y2="91.8833" class="black" /></g>
<g><title>40 (position.label in template: 3509.G)</title><text x="95.3915" y="82.3517" class="black" >G</text></g>
<g><line x1="96.5501" y1="82.1779" x2="102.514" y2="82.1779" class="black" /></g>
<g><title>41 (position.label in template: 3510.C)</title><text x="95.3915" y="79.8677" class="green" >U</text></g>
<g><line x1="96.5501" y1="79.6939" x2="102.514" y2="79.6939" class="black" /></g>
<g><title>42 (position.label in template: 3511.A)</title><text x="95.3915" y="77.3837" class="black" >A</text></g>
<g><line x1="96.5501" y1="77.2099" x2="102.514" y2="77.2099" class="black" /></g>
<g><title>43 (position.label in template: 3512.U)</title><text x="95.3915" y="74.8987" class="black" >U</text></g>
<g><line x1="96.5501" y1="74.7249" x2="102.514" y2="74.7249" class="black" /></g>
<g><title>44 (position.label in template: 3513.G)</title><text x="95.3915" y="72.4147" class="black" >G</text></g>
<g><line x1="96.5501" y1="72.2409" x2="102.514" y2="72.2409" class="black" /></g>
<g><title>45 (position.label in template: 3514.A)</title><text x="95.3915" y="69.9297" class="green" >G</text></g>
<g><line x1="96.5501" y1="69.7559" x2="102.514" y2="69.7559" class="black" /></g>
<g><title>46 (position.label in template: 3515.U)</title><text x="95.3915" y="67.4457" class="green" >G</text></g>
<g><line x1="96.5501" y1="67.2719" x2="102.514" y2="67.2719" class="black" /></g>
<g><title>47 (position.label in template: 3516.U)</title><text x="94.1495" y="64.9617" class="green" >G</text></g>
<g><line x1="95.3081" y1="64.7879" x2="103.756" y2="64.7879" class="black" /></g>
<g><title>48 (position.label in template: 3517.U)</title><text x="92.5035" y="63.1571" class="blue" >U</text></g>
<g><title>49 (position.label in template: 3518.A)</title><text x="91.4396" y="60.9584" class="blue" >A</text></g>
<g><title>50 (position.label in template: 3519.G)</title><text x="91.0458" y="58.5478" class="blue" >G</text></g>
<g><title>50 (inserted)</title><text x="87.1362" y="58.6163" class="numbering-label sequential" >50</text></g>
<g><line x1="90.0033" y1="58.5661" x2="88.1789" y2="58.598" class="numbering-line sequential" /></g>
<g><title>51 (position.label in template: 3520.U)</title><text x="91.3549" y="56.1249" class="blue" >U</text></g>
<g><title>52 (position.label in template: 3521.A)</title><text x="92.3412" y="53.8903" class="blue" >A</text></g>
<g><title>53 (position.label in template: 3522.C)</title><text x="93.923" y="52.0292" class="blue" >C</text></g>
<g><title>54 (position.label in template: 3523.G)</title><text x="95.9694" y="50.6956" class="blue" >G</text></g>
<g><title>55 (position.label in template: 3524.A)</title><text x="98.3108" y="50" class="blue" >A</text></g>
<g><title>56 (position.label in template: 3525.G)</title><text x="100.753" y="50" class="blue" >G</text></g>
<g><title>57 (inserted)</title><text x="103.095" y="50.6956" class="red" >C</text></g>
<g><title>58 (position.label in template: 3526.A)</title><text x="105.141" y="52.0292" class="blue" >A</text></g>
<g><title>59 (position.label in template: 3527.G)</title><text x="106.723" y="53.8903" class="blue" >G</text></g>
<g><title>60 (position.label in template: 3528.G)</title><text x="107.709" y="56.1249" class="blue" >G</text></g>
<g><title>61 (position.label in template: 3529.A)</title><text x="108.018" y="58.5478" class="blue" >A</text></g>
<g><title>62 (position.label in template: 3530.A)</title><text x="107.625" y="60.9584" class="blue" >A</text></g>
<g><title>63 (position.label in template: 3531.C)</title><text x="106.561" y="63.1571" class="blue" >C</text></g>
<g><title>64 (position.label in template: 3532.U)</title><text x="104.915" y="64.9617" class="green" >U</text></g>
<g><title>65 (position.label in template: 3533.G)</title><text x="103.673" y="67.4457" class="green" >C</text></g>
<g><title>66 (position.label in template: 3534.U)</title><text x="103.673" y="69.9297" class="green" >C</text></g>
<g><title>67 (position.label in template: 3535.C)</title><text x="103.673" y="72.4147" class="black" >C</text></g>
<g><title>68 (position.label in template: 3536.A)</title><text x="103.673" y="74.8987" class="black" >A</text></g>
<g><title>69 (position.label in template: 3537.U)</title><text x="103.673" y="77.3837" class="black" >U</text></g>
<g><title>70 (position.label in template: 3538.G)</title><text x="103.673" y="79.8677" class="green" >G</text></g>
<g><title>71 (position.label in template: 3539.C)</title><text x="103.673" y="82.3517" class="black" >C</text></g>
<g><title>72 (position.label in template: 3540.C)</title><text x="106.147" y="84.4157" class="black" >C</text></g>
<g><line x1="106.139" y1="85.4005" x2="106.101" y2="91.3643" class="black" /></g>
<g><title>73 (position.label in template: 3541.G)</title><text x="108.631" y="84.4317" class="black" >G</text></g>
<g><line x1="108.623" y1="85.4165" x2="108.586" y2="91.3803" class="black" /></g>
<g><title>74 (position.label in template: 3542.G)</title><text x="111.115" y="84.4467" class="green" >U</text></g>
<g><line x1="111.107" y1="85.4315" x2="111.07" y2="91.3953" class="black" /></g>
<g><title>75 (position.label in template: 3543.A)</title><text x="113.599" y="84.4627" class="green" >G</text></g>
<g><line x1="113.591" y1="85.4475" x2="113.554" y2="91.4113" class="black" /></g>
<g><title>76 (position.label in template: 3544.U)</title><text x="116.084" y="84.4777" class="green" >C</text></g>
<g><line x1="116.076" y1="85.4625" x2="116.039" y2="91.4273" class="black" /></g>
<g><title>77 (position.label in template: 3545.C)</title><text x="117.801" y="82.2247" class="black" >C</text></g>
<g><title>78 (position.label in template: 3546.A)</title><text x="120.501" y="81.3707" class="green" >U</text></g>
<g><title>79 (position.label in template: 3547.C)</title><text x="123.201" y="82.2277" class="black" >C</text></g>
<g><title>80 (position.label in template: 3548.U)</title><text x="124.915" y="84.4827" class="black" >U</text></g>
<g><line x1="124.915" y1="85.4675" x2="124.915" y2="91.4323" class="black" /></g>
<g><title>81 (position.label in template: 3549.G)</title><text x="127.399" y="84.4827" class="black" >G</text></g>
<g><line x1="127.399" y1="85.4675" x2="127.399" y2="91.4323" class="black" /></g>
<g><title>82 (position.label in template: 3550.G)</title><text x="129.884" y="84.4827" class="black" >G</text></g>
<g><line x1="129.884" y1="85.4675" x2="129.884" y2="91.4313" class="black" /></g>
<g><title>83 (position.label in template: 3551.U)</title><text x="132.167" y="82.7397" class="black" >U</text></g>
<g><title>84 (position.label in template: 3552.C)</title><text x="134.879" y="81.7927" class="green" >U</text></g>
<g><title>85 (position.label in template: 3553.U)</title><text x="137.75" y="81.7367" class="black" >U</text></g>
<g><title>86 (position.label in template: 3554.G)</title><text x="140.497" y="82.5767" class="green" >C</text></g>
<g><title>87 (position.label in template: 3555.U)</title><text x="142.846" y="84.2307" class="black" >U</text></g>
<g><line x1="142.846" y1="85.2155" x2="142.846" y2="91.1793" class="black" /></g>
<g><title>88 (position.label in template: 3556.A)</title><text x="145.33" y="84.2307" class="green" >G</text></g>
<g><line x1="145.33" y1="85.2155" x2="145.33" y2="91.1793" class="black" /></g>
<g><title>89 (position.label in template: 3557.G)</title><text x="147.815" y="84.2307" class="black" >G</text></g>
<g><line x1="147.815" y1="85.2155" x2="147.815" y2="91.1793" class="black" /></g>
<g><title>90 (position.label in template: 3558.G)</title><text x="150.299" y="84.2307" class="green" >A</text></g>
<g><line x1="150.299" y1="85.2155" x2="150.299" y2="91.1793" class="black" /></g>
<g><title>91 (position.label in template: 3559.U)</title><text x="152.784" y="84.2307" class="green" >G</text></g>
<g><line x1="152.784" y1="85.2155" x2="152.784" y2="91.1793" class="black" /></g>
<g><title>92 (position.label in template: 3560.U)</title><text x="157.879" y="84.2867" class="black" >U</text></g>
<g><line x1="157.879" y1="85.2715" x2="157.879" y2="91.2363" class="black" /></g>
<g><title>93 (position.label in template: 3561.U)</title><text x="160.364" y="84.2867" class="black" >U</text></g>
<g><line x1="160.364" y1="85.2715" x2="160.364" y2="91.2363" class="black" /></g>
<g><title>94 (position.label in template: 3562.A)</title><text x="162.848" y="84.2867" class="green" >U</text></g>
<g><line x1="162.848" y1="85.2715" x2="162.848" y2="91.2363" class="black" /></g>
<g><title>95 (position.label in template: 3563.U)</title><text x="165.332" y="84.2867" class="green" >G</text></g>
<g><line x1="165.332" y1="85.2715" x2="165.332" y2="91.2363" class="black" /></g>
<g><title>96 (position.label in template: 3564.U)</title><text x="167.817" y="84.2867" class="green" >U</text></g>
<g><line x1="167.817" y1="85.2715" x2="167.817" y2="91.2363" class="black" /></g>
<g><title>97 (position.label in template: 3565.U)</title><text x="170.301" y="84.2867" class="green" >C</text></g>
<g><line x1="170.301" y1="85.2715" x2="170.301" y2="91.2363" class="black" /></g>
<g><title>98 (position.label in template: 3566.G)</title><text x="172.631" y="85.1477" class="black" >G</text></g>
<g><title>99 (position.label in template: 3567.A)</title><text x="174.051" y="87.1857" class="black" >A</text></g>
<g><title>100 (position.label in template: 3568.C)</title><text x="174.051" y="89.6697" class="green" >A</text></g>
<g><title>100 (inserted)</title><text x="177.781" y="90.8412" class="numbering-label sequential" >100</text></g>
<g><line x1="175.045" y1="89.9821" x2="176.217" y2="90.35" class="numbering-line sequential" /></g>
<g><title>101 (position.label in template: 3569.A)</title><text x="172.631" y="91.7077" class="green" >C</text></g>
<g><title>102 (position.label in template: 3570.A)</title><text x="170.301" y="92.5687" class="green" >G</text></g>
<g><title>103 (position.label in template: 3571.A)</title><text x="167.817" y="92.5687" class="green" >G</text></g>
<g><title>104 (position.label in template: 3572.A)</title><text x="165.332" y="92.5687" class="green" >C</text></g>
<g><title>105 (position.label in template: 3573.U)</title><text x="162.848" y="92.5687" class="green" >A</text></g>
<g><title>106 (position.label in template: 3574.A)</title><text x="160.364" y="92.5687" class="black" >A</text></g>
<g><title>107 (position.label in template: 3575.G)</title><text x="157.879" y="92.5687" class="black" >G</text></g>
<g><title>108 (position.label in template: 3576.U)</title><text x="156.889" y="95.5937" class="black" >U</text></g>
<g><title>109 (position.label in template: 3577.G)</title><text x="153.706" y="95.5587" class="black" >G</text></g>
<g><title>110 (position.label in template: 3578.A)</title><text x="152.784" y="92.5117" class="green" >C</text></g>
<g><title>111 (position.label in template: 3579.C)</title><text x="150.299" y="92.5117" class="green" >U</text></g>
<g><title>112 (position.label in template: 3580.C)</title><text x="147.815" y="92.5117" class="black" >C</text></g>
<g><title>113 (position.label in template: 3581.U)</title><text x="145.33" y="92.5117" class="green" >C</text></g>
<g><title>114 (position.label in template: 3582.G)</title><text x="142.846" y="92.5117" class="black" >G</text></g>
<g><title>115 (position.label in template: 3583.C)</title><text x="139.822" y="94.2187" class="green" >A</text></g>
<g><title>116 (position.label in template: 3584.C)</title><text x="136.408" y="94.8547" class="black" >C</text></g>
<g><title>117 (position.label in template: 3585.G)</title><text x="132.972" y="94.3527" class="black" >G</text></g>
<g><title>118 (position.label in template: 3586.C)</title><text x="129.884" y="92.7637" class="black" >C</text></g>
<g><title>119 (position.label in template: 3587.U)</title><text x="127.4" y="92.7647" class="black" >U</text></g>
<g><title>120 (position.label in template: 3588.A)</title><text x="124.915" y="92.7647" class="black" >A</text></g>
<g><title>121 (position.label in template: 3589.C)</title><text x="122.114" y="94.4767" class="green" >U</text></g>
<g><title>122 (position.label in template: 3590.C)</title><text x="118.831" y="94.4747" class="black" >C</text></g>
<g><title>123 (position.label in template: 3591.A)</title><text x="116.032" y="92.7597" class="green" >G</text></g>
<g><title>124 (position.label in template: 3592.U)</title><text x="113.547" y="92.7437" class="green" >C</text></g>
<g><title>125 (position.label in template: 3593.C)</title><text x="111.063" y="92.7277" class="green" >A</text></g>
<g><title>126 (position.label in template: 3594.C)</title><text x="108.579" y="92.7127" class="black" >C</text></g>
<g><title>127 (position.label in template: 3595.G)</title><text x="106.094" y="92.6967" class="black" >G</text></g>
<g><title>128 (position.label in template: 3596.U)</title><text x="106.021" y="95.1557" class="green" >G</text></g>
<g><title>129 (position.label in template: 3597.U)</title><text x="103.627" y="95.2717" class="black" >U</text></g>
<g><line x1="102.468" y1="95.0979" x2="96.5041" y2="95.0979" class="black" /></g>
<g><title>130 (position.label in template: 3598.G)</title><text x="103.627" y="97.7567" class="black" >G</text></g>
<g><line x1="102.468" y1="97.5829" x2="96.5041" y2="97.5829" class="black" /></g>
<g><title>131 (position.label in template: 3599.G)</title><text x="103.627" y="100.241" class="black" >G</text></g>
<g><line x1="102.468" y1="100.067" x2="96.5041" y2="100.067" class="black" /></g>
<g><title>132 (position.label in template: 3600.A)</title><text x="103.627" y="102.726" class="green" >U</text></g>
<g><line x1="102.468" y1="102.552" x2="96.5041" y2="102.552" class="black" /></g>
<g><title>133 (position.label in template: 3601.U)</title><text x="103.627" y="105.21" class="black" >U</text></g>
<g><line x1="102.468" y1="105.036" x2="96.5041" y2="105.036" class="black" /></g>
<g><title>134 (position.label in template: 3602.A)</title><text x="105.371" y="107.53" class="green" >C</text></g>
<g><title>135 (position.label in template: 3603.A)</title><text x="105.569" y="110.426" class="green" >U</text></g>
<g><title>136 (position.label in template: 3604.U)</title><text x="104.159" y="112.963" class="green" >C</text></g>
<g><line x1="103" y1="112.789" x2="97.0351" y2="112.789" class="black" /></g>
<g><title>137 (position.label in template: 3605.G)</title><text x="104.159" y="115.447" class="black" >G</text></g>
<g><line x1="103" y1="115.273" x2="97.0351" y2="115.273" class="black" /></g>
<g><title>138 (position.label in template: 3606.G)</title><text x="104.159" y="117.931" class="green" >G</text></g>
<g><line x1="103" y1="117.757" x2="97.0351" y2="117.757" class="black" /></g>
<g><title>139 (position.label in template: 3607.C)</title><text x="104.159" y="120.416" class="black" >C</text></g>
<g><line x1="103" y1="120.242" x2="97.0351" y2="120.241" class="black" /></g>
<g><title>140 (position.label in template: 3608.U)</title><text x="104.159" y="122.9" class="black" >U</text></g>
<g><line x1="103" y1="122.726" x2="97.0351" y2="122.726" class="black" /></g>
<g><title>141 (position.label in template: 3609.G)</title><text x="105.646" y="124.892" class="black" >G</text></g>
<g><title>142 (position.label in template: 3610.A)</title><text x="106.235" y="127.307" class="black" >A</text></g>
<g><title>143 (position.label in template: 3611.A)</title><text x="105.832" y="129.759" class="black" >A</text></g>
<g><title>144 (position.label in template: 3612.C)</title><text x="104.501" y="131.859" class="black" >C</text></g>
<g><title>145 (position.label in template: 3613.G)</title><text x="102.453" y="133.269" class="black" >G</text></g>
<g><title>146 (position.label in template: 3614.C)</title><text x="100.018" y="133.766" class="black" >C</text></g>
<g><title>147 (position.label in template: 3615.C)</title><text x="97.5815" y="133.269" class="black" >C</text></g>
<g><title>148 (position.label in template: 3616.U)</title><text x="95.5345" y="131.859" class="black" >U</text></g>
<g><title>149 (position.label in template: 3617.C)</title><text x="94.2035" y="129.759" class="black" >C</text></g>
<g><title>150 (position.label in template: 3618.U)</title><text x="93.8005" y="127.307" class="black" >U</text></g>
<g><title>150 (inserted)</title><text x="89.8932" y="127.157" class="numbering-label sequential" >150</text></g>
<g><line x1="92.7586" y1="127.267" x2="91.4573" y2="127.217" class="numbering-line sequential" /></g>
<g><title>151 (position.label in template: 3619.A)</title><text x="94.3895" y="124.892" class="black" >A</text></g>
<g><title>152 (position.label in template: 3620.A)</title><text x="95.8765" y="122.9" class="black" >A</text></g>
<g><title>153 (position.label in template: 3621.G)</title><text x="95.8765" y="120.415" class="black" >G</text></g>
<g><title>154 (position.label in template: 3622.U)</title><text x="95.8765" y="117.931" class="green" >C</text></g>
<g><title>155 (position.label in template: 3623.C)</title><text x="95.8765" y="115.447" class="black" >C</text></g>
<g><title>156 (position.label in template: 3624.A)</title><text x="95.8765" y="112.963" class="green" >A</text></g>
<g><title>157 (position.label in template: 3625.G)</title><text x="94.0835" y="110.655" class="black" >G</text></g>
<g><title>158 (position.label in template: 3626.A)</title><text x="93.8835" y="107.74" class="black" >A</text></g>
<g><title>159 (position.label in template: 3627.A)</title><text x="95.3455" y="105.21" class="black" >A</text></g>
<g><title>160 (position.label in template: 3628.U)</title><text x="95.3455" y="102.726" class="green" >G</text></g>
<g><title>161 (position.label in template: 3629.C)</title><text x="95.3455" y="100.241" class="black" >C</text></g>
<g><title>162 (position.label in template: 3630.C)</title><text x="95.3455" y="97.7567" class="black" >C</text></g>
<g><title>163 (position.label in template: 3631.A)</title><text x="95.3455" y="95.2717" class="black" >A</text></g>
<g><title>164 (position.label in template: 3632.U)</title><text x="93.6965" y="93.2157" class="green" >A</text></g>
<g><title>165 (position.label in template: 3633.U)</title><text x="91.2115" y="94.4587" class="green" >U</text></g>
<g><title>166 (position.label in template: 3634.C)</title><text x="88.7275" y="93.2157" class="black" >C</text></g>
<g><title>167 (position.label in template: 3635.U)</title><text x="86.2425" y="93.2157" class="green" >C</text></g>
<g><title>168 (position.label in template: 3636.A)</title><text x="83.7585" y="93.2157" class="green" >C</text></g>
<g><title>169 (position.label in template: 3637.G)</title><text x="81.1285" y="95.8897" class="green" >A</text></g>
<g><title>170 (position.label in template: 3638.A)</title><text x="77.5105" y="96.8797" class="black" >A</text></g>
<g><title>171 (position.label in template: 3639.A)</title><text x="73.8855" y="95.9167" class="green" >G</text></g>
<g><title>172 (position.label in template: 3640.A)</title><text x="71.2365" y="93.2607" class="black" >A</text></g>
<g><title>173 (position.label in template: 3641.C)</title><text x="68.7515" y="93.2607" class="black" >C</text></g>
<g><title>174 (position.label in template: 3642.G)</title><text x="66.2675" y="93.2607" class="green" >C</text></g>
<g><title>175 (inserted)</title><text x="65.6785" y="95.8724" class="red" >A</text></g>
<g><title>176 (inserted)</title><text x="63.0011" y="95.8724" class="red" >G</text></g>
<g><title>177 (position.label in template: 3645.A)</title><text x="62.412" y="93.2607" class="black" >A</text></g>
<g><title>178 (position.label in template: 3646.A)</title><text x="59.927" y="93.2607" class="green" >U</text></g>
<g><title>179 (position.label in template: 3647.C)</title><text x="57.443" y="93.2607" class="green" >G</text></g>
<g><title>180 (position.label in template: 3648.C)</title><text x="54.9586" y="93.2607" class="black" >C</text></g>
<g><title>181 (position.label in template: 3649.A)</title><text x="52.4844" y="93.0357" class="green" >C</text></g>
<g><title>182 (position.label in template: 3650.A)</title><text x="50" y="93.0536" class="green" >C</text></g>
<g><title>183 (position.label in template: 3651.A)</title><text x="50.8145" y="95.4007" class="black" >A</text></g>
<g><title>184 (position.label in template: 3652.U)</title><text x="51.4157" y="97.8113" class="black" >U</text></g>
<g><title>185 (position.label in template: 3903.3')</title><text x="52.0169" y="100.222" class="green" >3'</text></g>
<g><line x1="81.1181" y1="82.5298" x2="80.9809" y2="82.6255" class="gray" /></g>
<g><line x1="79.0797" y1="83.9501" x2="78.9425" y2="84.0457" class="gray" /></g>
<g><line x1="76.8333" y1="84.7081" x2="76.6661" y2="84.7081" class="gray" /></g>
<g><line x1="74.5569" y1="84.0457" x2="74.4197" y2="83.9501" class="gray" /></g>
<g><line x1="73.2142" y1="82.1576" x2="73.1774" y2="81.9944" class="gray" /></g>
<g><line x1="72.6676" y1="79.734" x2="72.6308" y2="79.5709" class="gray" /></g>
<g><line x1="72.121" y1="77.3105" x2="72.0842" y2="77.1473" class="gray" /></g>
<g><line x1="71.5744" y1="74.8869" x2="71.5376" y2="74.7238" class="gray" /></g>
<g><line x1="71.4123" y1="72.4423" x2="71.431" y2="72.2761" class="gray" /></g>
<g><line x1="71.6903" y1="69.9734" x2="71.709" y2="69.8072" class="gray" /></g>
<g><line x1="71.9683" y1="67.5046" x2="71.987" y2="67.3384" class="gray" /></g>
<g><line x1="72.2463" y1="65.0358" x2="72.265" y2="64.8696" class="gray" /></g>
<g><line x1="71.3398" y1="63.239" x2="71.1876" y2="63.1698" class="gray" /></g>
<g><line x1="69.1328" y1="62.1053" x2="68.9885" y2="62.0208" class="gray" /></g>
<g><line x1="67.134" y1="60.6533" x2="67.0107" y2="60.5403" class="gray" /></g>
<g><line x1="65.3054" y1="60.5443" x2="65.1826" y2="60.6578" class="gray" /></g>
<g><line x1="63.481" y1="62.2307" x2="63.3582" y2="62.3442" class="gray" /></g>
<g><line x1="61.6566" y1="63.9171" x2="61.5337" y2="64.0306" class="gray" /></g>
<g><line x1="60.1109" y1="65.8246" x2="60.0283" y2="65.97" class="gray" /></g>
<g><line x1="58.9536" y1="68.0214" x2="58.881" y2="68.1721" class="gray" /></g>
<g><line x1="57.8755" y1="70.2597" x2="57.803" y2="70.4104" class="gray" /></g>
<g><line x1="56.7975" y1="72.4981" x2="56.7249" y2="72.6487" class="gray" /></g>
<g><line x1="55.7194" y1="74.7364" x2="55.6469" y2="74.8871" class="gray" /></g>
<g><line x1="54.6414" y1="76.9747" x2="54.5688" y2="77.1254" class="gray" /></g>
<g><line x1="54.5835" y1="79.2059" x2="54.6582" y2="79.3555" class="gray" /></g>
<g><line x1="55.7582" y1="81.3936" x2="55.8422" y2="81.5382" class="gray" /></g>
<g><line x1="56.8996" y1="83.5965" x2="56.9682" y2="83.7491" class="gray" /></g>
<g><line x1="58.6016" y1="84.8059" x2="58.7684" y2="84.8059" class="gray" /></g>
<g><line x1="61.0856" y1="84.8059" x2="61.2534" y2="84.8059" class="gray" /></g>
<g><line x1="63.5706" y1="84.8059" x2="65.109" y2="84.8059" class="gray" /></g>
<g><line x1="67.4261" y1="84.8059" x2="67.593" y2="84.8059" class="gray" /></g>
<g><line x1="69.9101" y1="84.8059" x2="70.078" y2="84.8059" class="gray" /></g>
<g><line x1="72.2125" y1="84.1815" x2="74.1836" y2="82.9203" class="gray" /></g>
<g><line x1="76.3181" y1="82.2917" x2="78.659" y2="82.2831" class="gray" /></g>
<g><line x1="80.7979" y1="82.8963" x2="82.7782" y2="84.1435" class="gray" /></g>
<g><line x1="84.9171" y1="84.7609" x2="85.084" y2="84.7609" class="gray" /></g>
<g><line x1="87.4011" y1="84.7609" x2="87.569" y2="84.7609" class="gray" /></g>
<g><line x1="89.7638" y1="84.2428" x2="90.1753" y2="84.037" class="gray" /></g>
<g><line x1="92.2479" y1="84.0369" x2="92.6602" y2="84.2429" class="gray" /></g>
<g><line x1="94.3322" y1="83.7922" x2="94.7559" y2="83.1465" class="gray" /></g>
<g><line x1="95.3915" y1="81.0193" x2="95.3915" y2="80.8525" class="gray" /></g>
<g><line x1="95.3915" y1="78.5353" x2="95.3915" y2="78.3685" class="gray" /></g>
<g><line x1="95.3915" y1="76.0513" x2="95.3915" y2="75.8835" class="gray" /></g>
<g><line x1="95.3915" y1="73.5663" x2="95.3915" y2="73.3995" class="gray" /></g>
<g><line x1="95.3915" y1="71.0823" x2="95.3915" y2="70.9145" class="gray" /></g>
<g><line x1="95.3915" y1="68.5973" x2="95.3915" y2="68.4305" class="gray" /></g>
<g><line x1="94.8734" y1="66.2356" x2="94.6677" y2="65.8242" class="gray" /></g>
<g><line x1="93.3688" y1="63.9319" x2="93.2843" y2="63.8393" class="gray" /></g>
<g><line x1="91.9989" y1="61.9404" x2="91.9442" y2="61.8275" class="gray" /></g>
<g><line x1="91.2528" y1="59.6412" x2="91.2326" y2="59.5175" class="gray" /></g>
<g><line x1="91.1924" y1="57.2248" x2="91.2083" y2="57.1004" class="gray" /></g>
<g><line x1="91.8227" y1="54.8912" x2="91.8734" y2="54.7765" class="gray" /></g>
<g><line x1="93.0915" y1="52.8338" x2="93.1727" y2="52.7382" class="gray" /></g>
<g><line x1="94.8937" y1="51.2228" x2="94.9987" y2="51.1544" class="gray" /></g>
<g><line x1="97.08" y1="50.1919" x2="97.2002" y2="50.1562" class="gray" /></g>
<g><line x1="99.4694" y1="49.8262" x2="99.5947" y2="49.8262" class="gray" /></g>
<g><line x1="101.864" y1="50.1562" x2="101.984" y2="50.1919" class="gray" /></g>
<g><line x1="104.065" y1="51.1544" x2="104.17" y2="51.2228" class="gray" /></g>
<g><line x1="105.891" y1="52.7382" x2="105.973" y2="52.8338" class="gray" /></g>
<g><line x1="107.191" y1="54.7765" x2="107.241" y2="54.8912" class="gray" /></g>
<g><line x1="107.856" y1="57.1004" x2="107.872" y2="57.2248" class="gray" /></g>
<g><line x1="107.831" y1="59.5175" x2="107.811" y2="59.6412" class="gray" /></g>
<g><line x1="107.12" y1="61.8275" x2="107.065" y2="61.9404" class="gray" /></g>
<g><line x1="105.78" y1="63.8393" x2="105.695" y2="63.9319" class="gray" /></g>
<g><line x1="104.396" y1="65.8242" x2="104.191" y2="66.2356" class="gray" /></g>
<g><line x1="103.673" y1="68.4305" x2="103.673" y2="68.5973" class="gray" /></g>
<g><line x1="103.673" y1="70.9145" x2="103.673" y2="71.0823" class="gray" /></g>
<g><line x1="103.673" y1="73.3995" x2="103.673" y2="73.5663" class="gray" /></g>
<g><line x1="103.673" y1="75.8835" x2="103.673" y2="76.0513" class="gray" /></g>
<g><line x1="103.673" y1="78.3685" x2="103.673" y2="78.5353" class="gray" /></g>
<g><line x1="103.673" y1="80.8525" x2="103.673" y2="81.0193" class="gray" /></g>
<g><line x1="104.562" y1="82.9201" x2="105.257" y2="83.4997" class="gray" /></g>
<g><line x1="107.305" y1="84.2494" x2="107.472" y2="84.2504" class="gray" /></g>
<g><line x1="109.789" y1="84.2649" x2="109.956" y2="84.2659" class="gray" /></g>
<g><line x1="112.273" y1="84.2804" x2="112.44" y2="84.2814" class="gray" /></g>
<g><line x1="114.757" y1="84.2959" x2="114.925" y2="84.2969" class="gray" /></g>
<g><line x1="116.786" y1="83.3824" x2="117.098" y2="82.9724" class="gray" /></g>
<g><line x1="118.905" y1="81.7015" x2="119.396" y2="81.5463" class="gray" /></g>
<g><line x1="121.605" y1="81.5474" x2="122.096" y2="81.7034" class="gray" /></g>
<g><line x1="123.902" y1="82.9763" x2="124.213" y2="83.3865" class="gray" /></g>
<g><line x1="126.073" y1="84.3089" x2="126.24" y2="84.3089" class="gray" /></g>
<g><line x1="128.557" y1="84.3089" x2="128.725" y2="84.3089" class="gray" /></g>
<g><line x1="130.804" y1="83.6058" x2="131.246" y2="83.269" class="gray" /></g>
<g><line x1="133.26" y1="82.1839" x2="133.785" y2="82.0008" class="gray" /></g>
<g><line x1="136.037" y1="81.5963" x2="136.591" y2="81.5855" class="gray" /></g>
<g><line x1="138.857" y1="81.9017" x2="139.389" y2="82.0641" class="gray" /></g>
<g><line x1="141.444" y1="83.0699" x2="141.898" y2="83.3899" class="gray" /></g>
<g><line x1="144.004" y1="84.0569" x2="144.171" y2="84.0569" class="gray" /></g>
<g><line x1="146.488" y1="84.0569" x2="146.656" y2="84.0569" class="gray" /></g>
<g><line x1="148.973" y1="84.0569" x2="149.14" y2="84.0569" class="gray" /></g>
<g><line x1="151.457" y1="84.0569" x2="151.625" y2="84.0569" class="gray" /></g>
<g><line x1="153.942" y1="84.0696" x2="156.72" y2="84.1002" class="gray" /></g>
<g><line x1="159.037" y1="84.1129" x2="159.205" y2="84.1129" class="gray" /></g>
<g><line x1="161.522" y1="84.1129" x2="161.689" y2="84.1129" class="gray" /></g>
<g><line x1="164.006" y1="84.1129" x2="164.173" y2="84.1129" class="gray" /></g>
<g><line x1="166.49" y1="84.1129" x2="166.658" y2="84.1129" class="gray" /></g>
<g><line x1="168.975" y1="84.1129" x2="169.142" y2="84.1129" class="gray" /></g>
<g><line x1="171.387" y1="84.5145" x2="171.544" y2="84.5723" class="gray" /></g>
<g><line x1="173.293" y1="85.9245" x2="173.388" y2="86.0613" class="gray" /></g>
<g><line x1="174.051" y1="88.1705" x2="174.051" y2="88.3373" class="gray" /></g>
<g><line x1="173.388" y1="90.4465" x2="173.293" y2="90.5833" class="gray" /></g>
<g><line x1="171.544" y1="91.9355" x2="171.387" y2="91.9933" class="gray" /></g>
<g><line x1="169.142" y1="92.3949" x2="168.975" y2="92.3949" class="gray" /></g>
<g><line x1="166.658" y1="92.3949" x2="166.49" y2="92.3949" class="gray" /></g>
<g><line x1="164.173" y1="92.3949" x2="164.006" y2="92.3949" class="gray" /></g>
<g><line x1="161.689" y1="92.3949" x2="161.522" y2="92.3949" class="gray" /></g>
<g><line x1="159.205" y1="92.3949" x2="159.037" y2="92.3949" class="gray" /></g>
<g><line x1="157.518" y1="93.496" x2="157.249" y2="94.3188" class="gray" /></g>
<g><line x1="155.73" y1="95.4072" x2="154.864" y2="95.3976" class="gray" /></g>
<g><line x1="153.37" y1="94.276" x2="153.119" y2="93.4468" class="gray" /></g>
<g><line x1="151.625" y1="92.3379" x2="151.457" y2="92.3379" class="gray" /></g>
<g><line x1="149.14" y1="92.3379" x2="148.973" y2="92.3379" class="gray" /></g>
<g><line x1="146.656" y1="92.3379" x2="146.488" y2="92.3379" class="gray" /></g>
<g><line x1="144.171" y1="92.3379" x2="144.004" y2="92.3379" class="gray" /></g>
<g><line x1="141.837" y1="92.9074" x2="140.83" y2="93.4754" class="gray" /></g>
<g><line x1="138.683" y1="94.2571" x2="137.547" y2="94.4687" class="gray" /></g>
<g><line x1="135.261" y1="94.5134" x2="134.118" y2="94.3464" class="gray" /></g>
<g><line x1="131.941" y1="93.6488" x2="130.914" y2="93.12" class="gray" /></g>
<g><line x1="128.725" y1="92.5904" x2="128.558" y2="92.5904" class="gray" /></g>
<g><line x1="126.241" y1="92.5909" x2="126.073" y2="92.5909" class="gray" /></g>
<g><line x1="123.926" y1="93.1951" x2="123.102" y2="93.6987" class="gray" /></g>
<g><line x1="120.955" y1="94.3022" x2="119.989" y2="94.3016" class="gray" /></g>
<g><line x1="117.843" y1="93.6956" x2="117.019" y2="93.1912" class="gray" /></g>
<g><line x1="114.873" y1="92.5784" x2="114.705" y2="92.5774" class="gray" /></g>
<g><line x1="112.388" y1="92.5624" x2="112.221" y2="92.5614" class="gray" /></g>
<g><line x1="109.904" y1="92.5469" x2="109.737" y2="92.5459" class="gray" /></g>
<g><line x1="107.42" y1="92.5314" x2="107.252" y2="92.5304" class="gray" /></g>
<g><line x1="106.059" y1="93.681" x2="106.055" y2="93.8238" class="gray" /></g>
<g><line x1="104.863" y1="95.038" x2="104.784" y2="95.0418" class="gray" /></g>
<g><line x1="103.627" y1="96.2565" x2="103.627" y2="96.4243" class="gray" /></g>
<g><line x1="103.627" y1="98.7415" x2="103.627" y2="98.9083" class="gray" /></g>
<g><line x1="103.627" y1="101.225" x2="103.627" y2="101.393" class="gray" /></g>
<g><line x1="103.627" y1="103.71" x2="103.627" y2="103.877" class="gray" /></g>
<g><line x1="104.323" y1="105.962" x2="104.674" y2="106.43" class="gray" /></g>
<g><line x1="105.45" y1="108.512" x2="105.49" y2="109.096" class="gray" /></g>
<g><line x1="105.006" y1="111.265" x2="104.721" y2="111.776" class="gray" /></g>
<g><line x1="104.159" y1="113.947" x2="104.159" y2="114.114" class="gray" /></g>
<g><line x1="104.159" y1="116.431" x2="104.159" y2="116.598" class="gray" /></g>
<g><line x1="104.159" y1="118.915" x2="104.159" y2="119.083" class="gray" /></g>
<g><line x1="104.159" y1="121.4" x2="104.159" y2="121.567" class="gray" /></g>
<g><line x1="104.852" y1="123.654" x2="104.952" y2="123.789" class="gray" /></g>
<g><line x1="105.92" y1="125.843" x2="105.96" y2="126.007" class="gray" /></g>
<g><line x1="106.047" y1="128.276" x2="106.019" y2="128.442" class="gray" /></g>
<g><line x1="105.211" y1="130.563" x2="105.121" y2="130.706" class="gray" /></g>
<g><line x1="103.546" y1="132.342" x2="103.407" y2="132.438" class="gray" /></g>
<g><line x1="101.317" y1="133.327" x2="101.153" y2="133.36" class="gray" /></g>
<g><line x1="98.8823" y1="133.36" x2="98.7167" y2="133.326" class="gray" /></g>
<g><line x1="96.6274" y1="132.438" x2="96.4887" y2="132.342" class="gray" /></g>
<g><line x1="94.9143" y1="130.706" x2="94.8238" y2="130.563" class="gray" /></g>
<g><line x1="94.0156" y1="128.442" x2="93.9884" y2="128.276" class="gray" /></g>
<g><line x1="94.0751" y1="126.007" x2="94.115" y2="125.843" class="gray" /></g>
<g><line x1="95.0826" y1="123.789" x2="95.1835" y2="123.654" class="gray" /></g>
<g><line x1="95.8765" y1="121.567" x2="95.8765" y2="121.399" class="gray" /></g>
<g><line x1="95.8765" y1="119.082" x2="95.8765" y2="118.915" class="gray" /></g>
<g><line x1="95.8765" y1="116.598" x2="95.8765" y2="116.431" class="gray" /></g>
<g><line x1="95.8765" y1="114.114" x2="95.8765" y2="113.947" class="gray" /></g>
<g><line x1="95.1658" y1="111.874" x2="94.7943" y2="111.396" class="gray" /></g>
<g><line x1="94.0042" y1="109.325" x2="93.9628" y2="108.722" class="gray" /></g>
<g><line x1="94.4632" y1="106.563" x2="94.7659" y2="106.039" class="gray" /></g>
<g><line x1="95.3455" y1="103.877" x2="95.3455" y2="103.71" class="gray" /></g>
<g><line x1="95.3455" y1="101.393" x2="95.3455" y2="101.225" class="gray" /></g>
<g><line x1="95.3455" y1="98.9083" x2="95.3455" y2="98.7415" class="gray" /></g>
<g><line x1="95.3455" y1="96.4243" x2="95.3455" y2="96.2565" class="gray" /></g>
<g><line x1="94.6207" y1="94.1941" x2="94.4214" y2="93.9457" class="gray" /></g>
<g><line x1="92.6604" y1="93.5602" x2="92.2477" y2="93.7666" class="gray" /></g>
<g><line x1="90.1754" y1="93.7664" x2="89.7636" y2="93.5604" class="gray" /></g>
<g><line x1="87.569" y1="93.0419" x2="87.4011" y2="93.0419" class="gray" /></g>
<g><line x1="85.084" y1="93.0419" x2="84.9171" y2="93.0419" class="gray" /></g>
<g><line x1="82.9461" y1="93.8679" x2="81.941" y2="94.8899" class="gray" /></g>
<g><line x1="80.011" y1="96.0217" x2="78.628" y2="96.4001" class="gray" /></g>
<g><line x1="76.3908" y1="96.4084" x2="75.0053" y2="96.0404" class="gray" /></g>
<g><line x1="73.0674" y1="94.9226" x2="72.0547" y2="93.9072" class="gray" /></g>
<g><line x1="70.078" y1="93.0869" x2="69.9101" y2="93.0869" class="gray" /></g>
<g><line x1="67.593" y1="93.0869" x2="67.4261" y2="93.0869" class="gray" /></g>
<g><line x1="66.0126" y1="94.2171" x2="65.9334" y2="94.5684" class="gray" /></g>
<g><line x1="64.5199" y1="95.6986" x2="64.1597" y2="95.6986" class="gray" /></g>
<g><line x1="62.7462" y1="94.5684" x2="62.6669" y2="94.2171" class="gray" /></g>
<g><line x1="61.2534" y1="93.0869" x2="61.0856" y2="93.0869" class="gray" /></g>
<g><line x1="58.7684" y1="93.0869" x2="58.6016" y2="93.0869" class="gray" /></g>
<g><line x1="56.2844" y1="93.0869" x2="56.1172" y2="93.0869" class="gray" /></g>
<g><line x1="53.8048" y1="92.982" x2="53.6382" y2="92.9669" class="gray" /></g>
<g><line x1="51.3258" y1="92.8703" x2="51.1586" y2="92.8715" class="gray" /></g>
<g><line x1="50.3798" y1="93.9744" x2="50.4346" y2="94.1324" class="gray" /></g>
<g><line x1="51.0948" y1="96.3511" x2="51.1353" y2="96.5134" class="gray" /></g>
<g><line x1="51.696" y1="98.7617" x2="51.7365" y2="98.924" class="gray" /></g>
</svg>
