<svg
	xmlns="http://www.w3.org/2000/svg"
	width="282.341"
	height="272.66"
	style="font-size: 3.045014px; font-weight: bold; font-family: Helvetica; " >
<g><style type="text/css" >
<!-- create color definitions -->
<![CDATA[
text.red {fill: rgb(255, 0, 255); }
text.green {fill: rgb(0, 255, 0); }
text.blue {fill: rgb(0, 0, 255); }
text.black {fill: rgb(0, 0, 0); }
text.gray {fill: rgb(204, 204, 204); }
text.brown {fill: rgb(211.65, 104.55, 30.6); }
text {fill: rgb(0, 0, 0); text-anchor: middle; alignment-baseline: middle; }
circle.red {stroke: rgb(255, 0, 255); fill: none; }
circle.green {stroke: rgb(0, 255, 0); fill: none; }
circle.blue {stroke: rgb(0, 0, 255); fill: none; }
circle.black {stroke: rgb(0, 0, 0); fill: none; }
circle.gray {stroke: rgb(204, 204, 204); fill: none; }
circle.brown {stroke: rgb(211.65, 104.55, 30.6); fill: none; }
circle {stroke: rgb(0, 0, 0); }
line.red {stroke: rgb(255, 0, 255); stroke-width: 0.380627; }
line.green {stroke: rgb(0, 255, 0); stroke-width: 0.380627; }
line.blue {stroke: rgb(0, 0, 255); stroke-width: 0.380627; }
line.black {stroke: rgb(0, 0, 0); stroke-width: 0.380627; }
line.gray {stroke: rgb(204, 204, 204); stroke-width: 0.380627; }
line.brown {stroke: rgb(211.65, 104.55, 30.6); stroke-width: 0.380627; }
line {stroke: rgb(0, 0, 0); }
text.numbering-label {fill: rgb(204, 204, 204);}
line.numbering-line {stroke: rgb(204, 204, 204); stroke-width: 0.190313;}
line.predicted {stroke: rgb(0, 0, 0); stroke-dasharray: 2}
text.background {fill: rgb(255, 255, 255);
.template {visibility:hidden}
]]>
</style></g>
<g><title>0 (position.label in template: 0.5')</title><text x="60.4037" y="73.6004" class="green" >5'</text></g>
<g><title>1 (position.label in template: 34.R)</title><text x="58.4287" y="80.8952" class="green" >U</text></g>
<g><title>2 (position.label in template: 35.G)</title><text x="56.4536" y="88.19" class="black" >G</text></g>
<g><title>3 (position.label in template: 36.G)</title><text x="51.9416" y="94.2527" class="green" >U</text></g>
<g><title>4 (inserted)</title><text x="51.4562" y="101.795" class="red" >U</text></g>
<g><title>5 (inserted)</title><text x="50.9708" y="109.336" class="red" >U</text></g>
<g><title>6 (inserted)</title><text x="50.4854" y="116.878" class="red" >U</text></g>
<g><title>7 (position.label in template: 40.U)</title><text x="50" y="124.42" class="green" >C</text></g>
<g><title>8 (position.label in template: 41.U)</title><text x="50" y="131.978" class="green" >A</text></g>
<g><title>9 (inserted)</title><text x="50" y="139.535" class="red" >U</text></g>
<g><title>10 (inserted)</title><text x="50" y="147.092" class="red" >U</text></g>
<g><title>10 (inserted)</title><text x="43.1487" y="147.092" class="numbering-label sequential" >10</text></g>
<g><line x1="48.173" y1="147.092" x2="44.9757" y2="147.092" class="numbering-line sequential" /></g>
<g><title>11 (inserted)</title><text x="50" y="154.65" class="red" >A</text></g>
<g><title>12 (inserted)</title><text x="50" y="162.207" class="red" >G</text></g>
<g><title>13 (inserted)</title><text x="50" y="169.765" class="red" >U</text></g>
<g><title>14 (position.label in template: 47.U)</title><text x="50" y="177.322" class="green" >G</text></g>
<g><title>15 (position.label in template: 48.U)</title><text x="50" y="184.88" class="black" >U</text></g>
<g><title>16 (inserted)</title><text x="50.1425" y="192.436" class="red" >G</text></g>
<g><title>17 (inserted)</title><text x="50.285" y="199.992" class="red" >G</text></g>
<g><title>18 (inserted)</title><text x="50.4275" y="207.548" class="red" >U</text></g>
<g><title>19 (inserted)</title><text x="50.5699" y="215.104" class="red" >A</text></g>
<g><title>20 (position.label in template: 53.U)</title><text x="50.7124" y="222.66" class="green" >G</text></g>
<g><title>20 (inserted)</title><text x="45.9137" y="227.55" class="numbering-label sequential" >20</text></g>
<g><line x1="49.4328" y1="223.964" x2="47.4078" y2="226.028" class="numbering-line sequential" /></g>
<g><title>21 (position.label in template: 54.U)</title><text x="58.2699" y="222.66" class="black" >U</text></g>
<g><title>22 (position.label in template: 55.U)</title><text x="65.8273" y="222.66" class="green" >A</text></g>
<g><title>23 (position.label in template: 56.U)</title><text x="73.3848" y="222.66" class="black" >U</text></g>
<g><title>24 (position.label in template: 57.G)</title><text x="80.9422" y="222.66" class="green" >C</text></g>
<g><title>25 (position.label in template: 58.A)</title><text x="88.4996" y="222.66" class="green" >U</text></g>
<g><title>26 (position.label in template: 59.U)</title><text x="96.0571" y="222.66" class="black" >U</text></g>
<g><title>27 (position.label in template: 60.A)</title><text x="103.615" y="222.66" class="green" >G</text></g>
<g><title>28 (position.label in template: 61.A)</title><text x="111.172" y="222.66" class="black" >A</text></g>
<g><title>29 (position.label in template: 62.A)</title><text x="118.729" y="222.66" class="black" >A</text></g>
<g><title>30 (position.label in template: 63.G)</title><text x="126.287" y="222.66" class="black" >G</text></g>
<g><title>30 (inserted)</title><text x="126.287" y="229.511" class="numbering-label sequential" >30</text></g>
<g><line x1="126.287" y1="224.487" x2="126.287" y2="227.989" class="numbering-line sequential" /></g>
<g><title>31 (position.label in template: 64.A)</title><text x="133.844" y="222.66" class="black" >A</text></g>
<g><title>32 (position.label in template: 65.G)</title><text x="141.402" y="222.66" class="black" >G</text></g>
<g><title>33 (position.label in template: 66.A)</title><text x="148.959" y="222.66" class="black" >A</text></g>
<g><title>34 (position.label in template: 67.A)</title><text x="156.517" y="222.66" class="black" >A</text></g>
<g><title>35 (position.label in template: 68.A)</title><text x="164.074" y="222.66" class="black" >A</text></g>
<g><title>36 (position.label in template: 69.G)</title><text x="171.632" y="222.66" class="black" >G</text></g>
<g><title>37 (position.label in template: 70.A)</title><text x="179.189" y="222.66" class="black" >A</text></g>
<g><title>38 (position.label in template: 71.U)</title><text x="184.425" y="217.21" class="black" >U</text></g>
<g><line x1="186.455" y1="216.906" x2="194.845" y2="216.906" class="black" /></g>
<g><title>39 (position.label in template: 72.G)</title><text x="184.215" y="209.65" class="black" >G</text></g>
<g><line x1="186.245" y1="209.346" x2="194.635" y2="209.346" class="black" /></g>
<g><title>40 (position.label in template: 73.C)</title><text x="184.425" y="202.09" class="black" >C</text></g>
<g><line x1="186.455" y1="201.786" x2="194.425" y2="201.786" class="black" /></g>
<g><title>41 (position.label in template: 74.C)</title><text x="184.425" y="194.53" class="black" >C</text></g>
<g><line x1="186.455" y1="194.226" x2="194.425" y2="194.226" class="black" /></g>
<g><title>42 (position.label in template: 75.U)</title><text x="184.425" y="186.97" class="black" >U</text></g>
<g><line x1="186.455" y1="186.666" x2="194.845" y2="186.666" class="black" /></g>
<g><title>43 (position.label in template: 76.C)</title><text x="184.425" y="179.41" class="black" >C</text></g>
<g><line x1="186.455" y1="179.106" x2="194.425" y2="179.106" class="black" /></g>
<g><title>44 (position.label in template: 77.U)</title><text x="184.425" y="171.85" class="black" >U</text></g>
<g><line x1="186.455" y1="171.546" x2="194.425" y2="171.546" class="black" /></g>
<g><title>45 (position.label in template: 78.U)</title><text x="177.715" y="168.37" class="black" >U</text></g>
<g><title>46 (position.label in template: 79.C)</title><text x="172.695" y="162.72" class="black" >C</text></g>
<g><title>47 (position.label in template: 80.U)</title><text x="170.005" y="155.66" class="black" >U</text></g>
<g><title>48 (position.label in template: 81.U)</title><text x="170.005" y="148.1" class="black" >U</text></g>
<g><title>49 (position.label in template: 82.U)</title><text x="172.695" y="141.03" class="black" >U</text></g>
<g><title>50 (position.label in template: 83.C)</title><text x="177.715" y="135.39" class="black" >C</text></g>
<g><title>50 (inserted)</title><text x="173.553" y="129.948" class="numbering-label sequential" >50</text></g>
<g><line x1="176.605" y1="133.939" x2="174.717" y2="131.47" class="numbering-line sequential" /></g>
<g><title>51 (position.label in template: 84.A)</title><text x="184.635" y="131.9" class="black" >A</text></g>
<g><line x1="186.665" y1="131.596" x2="194.635" y2="131.596" class="black" /></g>
<g><title>52 (position.label in template: 85.G)</title><text x="184.215" y="124.34" class="black" >G</text></g>
<g><line x1="186.245" y1="124.036" x2="194.635" y2="124.036" class="black" /></g>
<g><title>53 (position.label in template: 86.C)</title><text x="184.425" y="116.78" class="black" >C</text></g>
<g><line x1="186.455" y1="116.476" x2="194.425" y2="116.476" class="black" /></g>
<g><title>54 (position.label in template: 87.A)</title><text x="184.635" y="109.22" class="black" >A</text></g>
<g><line x1="186.665" y1="108.916" x2="194.635" y2="108.916" class="black" /></g>
<g><title>55 (position.label in template: 88.G)</title><text x="184.215" y="101.66" class="black" >G</text></g>
<g><line x1="186.245" y1="101.356" x2="194.635" y2="101.356" class="black" /></g>
<g><title>56 (position.label in template: 89.C)</title><text x="184.425" y="94.1003" class="black" >C</text></g>
<g><line x1="186.455" y1="93.7958" x2="194.425" y2="93.7958" class="black" /></g>
<g><title>57 (position.label in template: 90.A)</title><text x="184.635" y="86.5403" class="black" >A</text></g>
<g><line x1="186.665" y1="86.2358" x2="194.635" y2="86.2358" class="black" /></g>
<g><title>58 (position.label in template: 91.A)</title><text x="184.635" y="78.9803" class="black" >A</text></g>
<g><line x1="186.665" y1="78.6758" x2="194.635" y2="78.6758" class="black" /></g>
<g><title>59 (position.label in template: 92.G)</title><text x="184.215" y="71.4203" class="black" >G</text></g>
<g><line x1="186.245" y1="71.1158" x2="194.635" y2="71.1158" class="black" /></g>
<g><title>60 (position.label in template: 93.A)</title><text x="184.635" y="63.8603" class="black" >A</text></g>
<g><line x1="186.665" y1="63.5558" x2="194.635" y2="63.5558" class="black" /></g>
<g><title>61 (position.label in template: 94.U)</title><text x="182.417" y="58.0515" class="blue" >U</text></g>
<g><title>62 (inserted)</title><text x="184.892" y="52.3474" class="red" >C</text></g>
<g><title>63 (position.label in template: 95.U)</title><text x="190.65" y="50" class="green" >C</text></g>
<g><title>64 (position.label in template: 96.A)</title><text x="196.408" y="52.3474" class="blue" >A</text></g>
<g><title>65 (position.label in template: 97.U)</title><text x="198.883" y="58.0515" class="blue" >U</text></g>
<g><title>66 (position.label in template: 98.U)</title><text x="196.665" y="63.8603" class="black" >U</text></g>
<g><title>67 (position.label in template: 99.C)</title><text x="196.665" y="71.4203" class="black" >C</text></g>
<g><title>68 (position.label in template: 100.U)</title><text x="196.665" y="78.9803" class="black" >U</text></g>
<g><title>69 (position.label in template: 101.U)</title><text x="196.665" y="86.5403" class="black" >U</text></g>
<g><title>70 (position.label in template: 102.G)</title><text x="196.455" y="94.1003" class="black" >G</text></g>
<g><title>71 (position.label in template: 103.U)</title><text x="196.665" y="101.66" class="black" >U</text></g>
<g><title>72 (position.label in template: 104.U)</title><text x="196.665" y="109.22" class="black" >U</text></g>
<g><title>73 (position.label in template: 105.A)</title><text x="203.425" y="113" class="black" >A</text></g>
<g><title>74 (position.label in template: 106.G)</title><text x="196.455" y="116.78" class="black" >G</text></g>
<g><title>75 (position.label in template: 107.C)</title><text x="196.665" y="124.34" class="black" >C</text></g>
<g><title>76 (position.label in template: 108.U)</title><text x="196.665" y="131.9" class="black" >U</text></g>
<g><title>77 (position.label in template: 109.U)</title><text x="204.015" y="133.7" class="black" >U</text></g>
<g><title>78 (position.label in template: 110.U)</title><text x="210.165" y="138.09" class="black" >U</text></g>
<g><title>79 (position.label in template: 111.G)</title><text x="214.035" y="144.45" class="black" >G</text></g>
<g><title>80 (position.label in template: 112.U)</title><text x="215.675" y="151.88" class="black" >U</text></g>
<g><title>81 (position.label in template: 113.U)</title><text x="214.245" y="159.3" class="black" >U</text></g>
<g><title>82 (position.label in template: 114.C)</title><text x="210.165" y="165.66" class="black" >C</text></g>
<g><title>83 (position.label in template: 115.U)</title><text x="204.015" y="170.06" class="black" >U</text></g>
<g><title>84 (position.label in template: 116.G)</title><text x="196.455" y="171.85" class="black" >G</text></g>
<g><title>85 (position.label in template: 117.G)</title><text x="196.455" y="179.41" class="black" >G</text></g>
<g><title>86 (position.label in template: 118.A)</title><text x="196.875" y="186.97" class="black" >A</text></g>
<g><title>87 (position.label in template: 119.G)</title><text x="196.455" y="194.53" class="black" >G</text></g>
<g><title>88 (position.label in template: 120.G)</title><text x="196.455" y="202.09" class="black" >G</text></g>
<g><title>89 (position.label in template: 121.C)</title><text x="196.665" y="209.65" class="black" >C</text></g>
<g><title>90 (position.label in template: 122.A)</title><text x="196.875" y="217.21" class="black" >A</text></g>
<g><title>91 (position.label in template: 123.C)</title><text x="202.111" y="222.66" class="black" >C</text></g>
<g><title>92 (position.label in template: 124.A)</title><text x="209.668" y="222.66" class="black" >A</text></g>
<g><title>93 (position.label in template: 125.G)</title><text x="217.226" y="222.66" class="green" >U</text></g>
<g><title>94 (position.label in template: 126.A)</title><text x="224.783" y="222.66" class="black" >A</text></g>
<g><title>95 (position.label in template: 127.U)</title><text x="232.341" y="222.66" class="black" >U</text></g>
<g><title>96 (position.label in template: 128.3')</title><text x="239.898" y="222.66" class="green" >3'</text></g>
<g><line x1="59.8732" y1="75.2554" x2="58.9592" y2="78.6313" class="gray" /></g>
<g><line x1="57.8981" y1="82.5502" x2="56.9841" y2="85.9261" class="gray" /></g>
<g><line x1="55.2416" y1="89.514" x2="53.1536" y2="92.3197" class="gray" /></g>
<g><line x1="51.8112" y1="95.9741" x2="51.5866" y2="99.4643" class="gray" /></g>
<g><line x1="51.3258" y1="103.516" x2="51.1012" y2="107.006" class="gray" /></g>
<g><line x1="50.8404" y1="111.058" x2="50.6158" y2="114.548" class="gray" /></g>
<g><line x1="50.355" y1="118.6" x2="50.1304" y2="122.09" class="gray" /></g>
<g><line x1="50" y1="126.146" x2="50" y2="129.643" class="gray" /></g>
<g><line x1="50" y1="133.703" x2="50" y2="137.2" class="gray" /></g>
<g><line x1="50" y1="141.26" x2="50" y2="144.758" class="gray" /></g>
<g><line x1="50" y1="148.818" x2="50" y2="152.315" class="gray" /></g>
<g><line x1="50" y1="156.375" x2="50" y2="159.873" class="gray" /></g>
<g><line x1="50" y1="163.933" x2="50" y2="167.43" class="gray" /></g>
<g><line x1="50" y1="171.49" x2="50" y2="174.988" class="gray" /></g>
<g><line x1="50" y1="179.048" x2="50" y2="182.545" class="gray" /></g>
<g><line x1="50.0383" y1="186.605" x2="50.1042" y2="190.102" class="gray" /></g>
<g><line x1="50.1808" y1="194.161" x2="50.2467" y2="197.658" class="gray" /></g>
<g><line x1="50.3232" y1="201.717" x2="50.3892" y2="205.214" class="gray" /></g>
<g><line x1="50.4657" y1="209.273" x2="50.5317" y2="212.77" class="gray" /></g>
<g><line x1="50.6082" y1="216.829" x2="50.6741" y2="220.326" class="gray" /></g>
<g><line x1="52.7424" y1="222.356" x2="56.2399" y2="222.356" class="gray" /></g>
<g><line x1="60.2999" y1="222.356" x2="63.7973" y2="222.356" class="gray" /></g>
<g><line x1="67.8573" y1="222.356" x2="71.3547" y2="222.356" class="gray" /></g>
<g><line x1="75.4148" y1="222.356" x2="78.9122" y2="222.356" class="gray" /></g>
<g><line x1="82.9722" y1="222.356" x2="86.4696" y2="222.356" class="gray" /></g>
<g><line x1="90.5296" y1="222.356" x2="94.0271" y2="222.356" class="gray" /></g>
<g><line x1="98.0871" y1="222.356" x2="101.585" y2="222.356" class="gray" /></g>
<g><line x1="105.645" y1="222.356" x2="109.142" y2="222.356" class="gray" /></g>
<g><line x1="113.202" y1="222.356" x2="116.699" y2="222.356" class="gray" /></g>
<g><line x1="120.759" y1="222.356" x2="124.257" y2="222.356" class="gray" /></g>
<g><line x1="128.317" y1="222.356" x2="131.814" y2="222.356" class="gray" /></g>
<g><line x1="135.874" y1="222.356" x2="139.372" y2="222.356" class="gray" /></g>
<g><line x1="143.432" y1="222.356" x2="146.929" y2="222.356" class="gray" /></g>
<g><line x1="150.989" y1="222.356" x2="154.487" y2="222.356" class="gray" /></g>
<g><line x1="158.547" y1="222.356" x2="162.044" y2="222.356" class="gray" /></g>
<g><line x1="166.104" y1="222.356" x2="169.602" y2="222.356" class="gray" /></g>
<g><line x1="173.662" y1="222.356" x2="177.159" y2="222.356" class="gray" /></g>
<g><line x1="180.595" y1="220.892" x2="183.018" y2="218.37" class="gray" /></g>
<g><line x1="184.368" y1="214.877" x2="184.271" y2="211.375" class="gray" /></g>
<g><line x1="184.271" y1="207.317" x2="184.368" y2="203.815" class="gray" /></g>
<g><line x1="184.425" y1="199.756" x2="184.425" y2="196.256" class="gray" /></g>
<g><line x1="184.425" y1="192.196" x2="184.425" y2="188.696" class="gray" /></g>
<g><line x1="184.425" y1="184.636" x2="184.425" y2="181.136" class="gray" /></g>
<g><line x1="184.425" y1="177.076" x2="184.425" y2="173.576" class="gray" /></g>
<g><line x1="182.623" y1="170.611" x2="179.517" y2="169" class="gray" /></g>
<g><line x1="176.367" y1="166.548" x2="174.043" y2="163.933" class="gray" /></g>
<g><line x1="171.972" y1="160.519" x2="170.728" y2="157.253" class="gray" /></g>
<g><line x1="170.005" y1="153.326" x2="170.005" y2="149.826" class="gray" /></g>
<g><line x1="170.727" y1="145.899" x2="171.973" y2="142.623" class="gray" /></g>
<g><line x1="174.045" y1="139.209" x2="176.365" y2="136.602" class="gray" /></g>
<g><line x1="179.527" y1="134.172" x2="182.822" y2="132.51" class="gray" /></g>
<g><line x1="184.522" y1="129.569" x2="184.327" y2="126.063" class="gray" /></g>
<g><line x1="184.271" y1="122.007" x2="184.368" y2="118.505" class="gray" /></g>
<g><line x1="184.481" y1="114.447" x2="184.578" y2="110.945" class="gray" /></g>
<g><line x1="184.522" y1="106.889" x2="184.327" y2="103.383" class="gray" /></g>
<g><line x1="184.271" y1="99.3266" x2="184.368" y2="95.8251" class="gray" /></g>
<g><line x1="184.481" y1="91.7666" x2="184.578" y2="88.2651" class="gray" /></g>
<g><line x1="184.635" y1="84.2058" x2="184.635" y2="80.7058" class="gray" /></g>
<g><line x1="184.522" y1="76.649" x2="184.327" y2="73.1427" class="gray" /></g>
<g><line x1="184.327" y1="69.089" x2="184.522" y2="65.5827" class="gray" /></g>
<g><line x1="183.911" y1="61.6594" x2="183.141" y2="59.6434" class="gray" /></g>
<g><line x1="183.225" y1="55.8848" x2="184.084" y2="53.9051" class="gray" /></g>
<g><line x1="186.772" y1="51.2766" x2="188.77" y2="50.4619" class="gray" /></g>
<g><line x1="192.53" y1="50.4619" x2="194.528" y2="51.2766" class="gray" /></g>
<g><line x1="197.216" y1="53.9051" x2="198.075" y2="55.8848" class="gray" /></g>
<g><line x1="198.159" y1="59.6434" x2="197.389" y2="61.6594" class="gray" /></g>
<g><line x1="196.665" y1="65.5858" x2="196.665" y2="69.0858" class="gray" /></g>
<g><line x1="196.665" y1="73.1458" x2="196.665" y2="76.6458" class="gray" /></g>
<g><line x1="196.665" y1="80.7058" x2="196.665" y2="84.2058" class="gray" /></g>
<g><line x1="196.608" y1="88.2651" x2="196.511" y2="91.7666" class="gray" /></g>
<g><line x1="196.511" y1="95.8251" x2="196.608" y2="99.3266" class="gray" /></g>
<g><line x1="196.665" y1="103.386" x2="196.665" y2="106.886" class="gray" /></g>
<g><line x1="198.437" y1="109.907" x2="201.653" y2="111.705" class="gray" /></g>
<g><line x1="201.64" y1="113.664" x2="198.239" y2="115.508" class="gray" /></g>
<g><line x1="196.511" y1="118.505" x2="196.608" y2="122.007" class="gray" /></g>
<g><line x1="196.665" y1="126.066" x2="196.665" y2="129.566" class="gray" /></g>
<g><line x1="198.637" y1="132.079" x2="202.043" y2="132.913" class="gray" /></g>
<g><line x1="205.667" y1="134.575" x2="208.513" y2="136.606" class="gray" /></g>
<g><line x1="211.22" y1="139.52" x2="212.98" y2="142.412" class="gray" /></g>
<g><line x1="214.472" y1="146.128" x2="215.237" y2="149.594" class="gray" /></g>
<g><line x1="215.291" y1="153.569" x2="214.629" y2="157.003" class="gray" /></g>
<g><line x1="213.149" y1="160.704" x2="211.261" y2="163.647" class="gray" /></g>
<g><line x1="208.514" y1="166.537" x2="205.666" y2="168.575" class="gray" /></g>
<g><line x1="202.039" y1="170.224" x2="198.43" y2="171.078" class="gray" /></g>
<g><line x1="196.455" y1="173.576" x2="196.455" y2="177.076" class="gray" /></g>
<g><line x1="196.567" y1="181.133" x2="196.762" y2="184.639" class="gray" /></g>
<g><line x1="196.762" y1="188.693" x2="196.567" y2="192.199" class="gray" /></g>
<g><line x1="196.455" y1="196.256" x2="196.455" y2="199.756" class="gray" /></g>
<g><line x1="196.511" y1="203.815" x2="196.608" y2="207.317" class="gray" /></g>
<g><line x1="196.721" y1="211.375" x2="196.818" y2="214.877" class="gray" /></g>
<g><line x1="198.281" y1="218.37" x2="200.704" y2="220.892" class="gray" /></g>
<g><line x1="204.141" y1="222.356" x2="207.638" y2="222.356" class="gray" /></g>
<g><line x1="211.698" y1="222.356" x2="215.196" y2="222.356" class="gray" /></g>
<g><line x1="219.256" y1="222.356" x2="222.753" y2="222.356" class="gray" /></g>
<g><line x1="226.813" y1="222.356" x2="230.311" y2="222.356" class="gray" /></g>
<g><line x1="234.371" y1="222.356" x2="237.868" y2="222.356" class="gray" /></g>
</svg>
