<svg
	xmlns="http://www.w3.org/2000/svg"
	width="265.183"
	height="341.352"
	style="font-size: 3.048045px; font-weight: bold; font-family: Helvetica; " >
<g><style type="text/css" >
<!-- create color definitions -->
<![CDATA[
text.red {fill: rgb(255, 0, 255); }
text.green {fill: rgb(0, 255, 0); }
text.blue {fill: rgb(0, 0, 255); }
text.black {fill: rgb(0, 0, 0); }
text.gray {fill: rgb(204, 204, 204); }
text.brown {fill: rgb(211.65, 104.55, 30.6); }
text {fill: rgb(0, 0, 0); text-anchor: middle; alignment-baseline: middle; }
circle.red {stroke: rgb(255, 0, 255); fill: none; }
circle.green {stroke: rgb(0, 255, 0); fill: none; }
circle.blue {stroke: rgb(0, 0, 255); fill: none; }
circle.black {stroke: rgb(0, 0, 0); fill: none; }
circle.gray {stroke: rgb(204, 204, 204); fill: none; }
circle.brown {stroke: rgb(211.65, 104.55, 30.6); fill: none; }
circle {stroke: rgb(0, 0, 0); }
line.red {stroke: rgb(255, 0, 255); stroke-width: 0.381006; }
line.green {stroke: rgb(0, 255, 0); stroke-width: 0.381006; }
line.blue {stroke: rgb(0, 0, 255); stroke-width: 0.381006; }
line.black {stroke: rgb(0, 0, 0); stroke-width: 0.381006; }
line.gray {stroke: rgb(204, 204, 204); stroke-width: 0.381006; }
line.brown {stroke: rgb(211.65, 104.55, 30.6); stroke-width: 0.381006; }
line {stroke: rgb(0, 0, 0); }
text.numbering-label {fill: rgb(204, 204, 204);}
line.numbering-line {stroke: rgb(204, 204, 204); stroke-width: 0.190503;}
line.predicted {stroke: rgb(0, 0, 0); stroke-dasharray: 2}
text.background {fill: rgb(255, 255, 255);
.template {visibility:hidden}
]]>
</style></g>
<g><title>0 (position.label in template: 0.5')</title><text x="143.125" y="47.8379" class="green" >5'</text></g>
<g><title>1 (position.label in template: 1.G)</title><text x="143.493" y="55.3395" class="black" >G</text></g>
<g><line x1="145.525" y1="55.0347" x2="153.911" y2="55.0347" class="black" /></g>
<g><title>2 (position.label in template: 2.N)</title><text x="143.853" y="62.6895" class="green" >C</text></g>
<g><line x1="145.885" y1="62.3847" x2="154.061" y2="62.3847" class="black" /></g>
<g><title>3 (position.label in template: 3.Y)</title><text x="143.913" y="70.4595" class="green" >C</text></g>
<g><line x1="145.945" y1="70.1547" x2="153.701" y2="70.1547" class="black" /></g>
<g><title>4 (position.label in template: 4.N)</title><text x="143.853" y="77.8095" class="green" >C</text></g>
<g><line x1="145.885" y1="77.5047" x2="154.061" y2="77.5047" class="black" /></g>
<g><title>5 (position.label in template: 5.Y)</title><text x="143.913" y="85.5795" class="green" >C</text></g>
<g><line x1="145.945" y1="85.2747" x2="153.911" y2="85.2747" class="black" /></g>
<g><title>6 (position.label in template: 6.Y)</title><text x="143.913" y="93.1395" class="green" >G</text></g>
<g><line x1="145.945" y1="92.8347" x2="153.911" y2="92.8347" class="black" /></g>
<g><title>7 (position.label in template: 7.R)</title><text x="143.703" y="100.699" class="green" >U</text></g>
<g><line x1="145.734" y1="100.36" x2="154.061" y2="100.219" class="black" /></g>
<g><title>8 (position.label in template: 8.U)</title><text x="136.883" y="103.959" class="black" >U</text></g>
<g><title>9 (position.label in template: 9.R)</title><text x="131.533" y="109.309" class="green" >G</text></g>
<g><title>10 (position.label in template: 10.G)</title><text x="128.063" y="116.129" class="black" >G</text></g>
<g><line x1="128.098" y1="117.856" x2="128.238" y2="126.033" class="black" /></g>
<g><title>10 (inserted)</title><text x="124.406" y="110.328" class="numbering-label sequential" >10</text></g>
<g><line x1="127.088" y1="114.582" x2="125.366" y2="111.852" class="numbering-line sequential" /></g>
<g><title>11 (position.label in template: 11.C)</title><text x="120.713" y="116.129" class="black" >C</text></g>
<g><line x1="120.678" y1="117.856" x2="120.538" y2="126.033" class="black" /></g>
<g><title>12 (position.label in template: 12.U)</title><text x="113.153" y="116.129" class="black" >U</text></g>
<g><line x1="113.188" y1="117.856" x2="113.328" y2="126.033" class="black" /></g>
<g><title>13 (position.label in template: 13.Y)</title><text x="105.803" y="116.129" class="green" >A</text></g>
<g><line x1="105.768" y1="117.856" x2="105.628" y2="126.033" class="black" /></g>
<g><title>14 (position.label in template: 14.A)</title><text x="100.508" y="111.949" class="blue" >A</text></g>
<g><title>15 (position.label in template: 15.G)</title><text x="93.7657" y="111.723" class="blue" >G</text></g>
<g><title>16 (position.label in template: 16.U)</title><text x="88.2029" y="115.539" class="blue" >U</text></g>
<g><title>17 (position.label in template: 17.G)</title><text x="85.9876" y="121.911" class="blue" >G</text></g>
<g><title>18 (position.label in template: 18.G)</title><text x="87.983" y="128.356" class="blue" >G</text></g>
<g><title>19 (position.label in template: 19.U)</title><text x="93.4116" y="132.361" class="blue" >U</text></g>
<g><title>20 (position.label in template: 21.A)</title><text x="100.158" y="132.366" class="blue" >A</text></g>
<g><title>20 (inserted)</title><text x="102.293" y="138.883" class="numbering-label sequential" >20</text></g>
<g><line x1="100.727" y1="134.104" x2="101.794" y2="137.359" class="numbering-line sequential" /></g>
<g><title>21 (position.label in template: 22.R)</title><text x="105.593" y="128.369" class="green" >U</text></g>
<g><title>22 (position.label in template: 23.A)</title><text x="113.363" y="128.369" class="black" >A</text></g>
<g><title>23 (position.label in template: 24.G)</title><text x="120.503" y="128.369" class="black" >G</text></g>
<g><title>24 (position.label in template: 25.C)</title><text x="128.273" y="128.369" class="black" >C</text></g>
<g><title>25 (position.label in template: 26.R)</title><text x="131.533" y="135.179" class="green" >G</text></g>
<g><title>26 (position.label in template: 27.Y)</title><text x="137.093" y="140.529" class="green" >U</text></g>
<g><line x1="139.005" y1="140.912" x2="146.51" y2="143.608" class="black" /></g>
<g><title>27 (position.label in template: 28.Y)</title><text x="134.573" y="147.659" class="green" >G</text></g>
<g><line x1="136.485" y1="148.041" x2="144" y2="150.738" class="black" /></g>
<g><title>28 (position.label in template: 29.N)</title><text x="132.003" y="154.579" class="green" >U</text></g>
<g><line x1="133.919" y1="154.951" x2="141.626" y2="157.669" class="black" /></g>
<g><title>29 (position.label in template: 30.N)</title><text x="129.493" y="161.709" class="green" >C</text></g>
<g><line x1="131.409" y1="162.081" x2="139.116" y2="164.799" class="black" /></g>
<g><title>30 (position.label in template: 31.N)</title><text x="126.973" y="168.839" class="green" >A</text></g>
<g><line x1="128.889" y1="169.211" x2="136.596" y2="171.929" class="black" /></g>
<g><title>30 (inserted)</title><text x="123.485" y="162.934" class="numbering-label sequential" >30</text></g>
<g><line x1="126.043" y1="167.265" x2="124.385" y2="164.458" class="numbering-line sequential" /></g>
<g><title>31 (position.label in template: 32.C)</title><text x="119.678" y="167.506" class="blue" >C</text></g>
<g><title>32 (position.label in template: 33.U)</title><text x="112.277" y="167.05" class="blue" >U</text></g>
<g><title>33 (position.label in template: 34.N)</title><text x="104.874" y="167.479" class="green" >A</text></g>
<g><title>34 (position.label in template: 35.G)</title><text x="97.5744" y="168.786" class="blue" >G</text></g>
<g><title>35 (position.label in template: 36.U)</title><text x="90.4825" y="170.952" class="blue" >U</text></g>
<g><title>36 (position.label in template: 37.A)</title><text x="83.699" y="173.948" class="blue" >A</text></g>
<g><title>37 (inserted)</title><text x="77.3204" y="177.729" class="red" >A</text></g>
<g><title>38 (inserted)</title><text x="71.4374" y="182.244" class="red" >U</text></g>
<g><title>39 (inserted)</title><text x="66.1336" y="187.426" class="red" >C</text></g>
<g><title>40 (inserted)</title><text x="61.4846" y="193.203" class="red" >U</text></g>
<g><title>41 (inserted)</title><text x="57.5564" y="199.493" class="red" >C</text></g>
<g><title>42 (inserted)</title><text x="54.4049" y="206.205" class="red" >C</text></g>
<g><title>43 (inserted)</title><text x="52.0749" y="213.245" class="red" >A</text></g>
<g><title>44 (inserted)</title><text x="50.5996" y="220.512" class="red" >A</text></g>
<g><title>45 (inserted)</title><text x="50" y="227.903" class="red" >A</text></g>
<g><title>46 (inserted)</title><text x="50.2846" y="235.313" class="red" >C</text></g>
<g><title>47 (inserted)</title><text x="51.4493" y="242.637" class="red" >A</text></g>
<g><title>48 (inserted)</title><text x="53.4776" y="249.77" class="red" >C</text></g>
<g><title>49 (inserted)</title><text x="56.3406" y="256.61" class="red" >C</text></g>
<g><title>50 (inserted)</title><text x="59.9976" y="263.061" class="red" >A</text></g>
<g><title>50 (inserted)</title><text x="54.2438" y="266.793" class="numbering-label sequential" >50</text></g>
<g><line x1="58.4633" y1="264.056" x2="56.0726" y2="265.607" class="numbering-line sequential" /></g>
<g><title>51 (inserted)</title><text x="64.3966" y="269.031" class="red" >C</text></g>
<g><title>52 (inserted)</title><text x="69.4751" y="274.434" class="red" >A</text></g>
<g><title>53 (inserted)</title><text x="75.1607" y="279.195" class="red" >U</text></g>
<g><title>54 (inserted)</title><text x="81.3726" y="283.244" class="red" >G</text></g>
<g><title>55 (inserted)</title><text x="88.0225" y="286.526" class="red" >G</text></g>
<g><title>56 (inserted)</title><text x="95.0157" y="288.992" class="red" >U</text></g>
<g><title>57 (inserted)</title><text x="102.253" y="290.609" class="red" >G</text></g>
<g><title>58 (inserted)</title><text x="109.631" y="291.352" class="red" >U</text></g>
<g><title>59 (inserted)</title><text x="117.045" y="291.211" class="red" >U</text></g>
<g><title>60 (inserted)</title><text x="124.39" y="290.189" class="red" >C</text></g>
<g><title>61 (inserted)</title><text x="131.56" y="288.3" class="red" >C</text></g>
<g><title>62 (inserted)</title><text x="138.455" y="285.571" class="red" >A</text></g>
<g><title>63 (inserted)</title><text x="144.976" y="282.04" class="red" >A</text></g>
<g><title>64 (inserted)</title><text x="151.03" y="277.758" class="red" >A</text></g>
<g><title>65 (inserted)</title><text x="156.532" y="272.785" class="red" >G</text></g>
<g><title>66 (inserted)</title><text x="161.402" y="267.193" class="red" >G</text></g>
<g><title>67 (inserted)</title><text x="165.572" y="261.061" class="red" >U</text></g>
<g><title>68 (inserted)</title><text x="168.982" y="254.477" class="red" >G</text></g>
<g><title>69 (inserted)</title><text x="171.584" y="247.533" class="red" >A</text></g>
<g><title>70 (inserted)</title><text x="173.34" y="240.328" class="red" >U</text></g>
<g><title>71 (inserted)</title><text x="174.227" y="232.966" class="red" >C</text></g>
<g><title>72 (inserted)</title><text x="174.231" y="225.551" class="red" >A</text></g>
<g><title>73 (inserted)</title><text x="173.352" y="218.187" class="red" >C</text></g>
<g><title>74 (inserted)</title><text x="171.602" y="210.981" class="red" >C</text></g>
<g><title>75 (inserted)</title><text x="169.007" y="204.035" class="red" >A</text></g>
<g><title>76 (inserted)</title><text x="165.604" y="197.446" class="red" >U</text></g>
<g><title>77 (inserted)</title><text x="161.44" y="191.31" class="red" >G</text></g>
<g><title>78 (inserted)</title><text x="156.576" y="185.713" class="red" >A</text></g>
<g><title>79 (inserted)</title><text x="151.08" y="180.735" class="red" >U</text></g>
<g><title>80 (position.label in template: 38.A)</title><text x="145.03" y="176.447" class="blue" >A</text></g>
<g><title>81 (position.label in template: 39.N)</title><text x="138.513" y="172.909" class="green" >U</text></g>
<g><title>82 (position.label in template: 40.N)</title><text x="141.033" y="165.779" class="green" >G</text></g>
<g><title>83 (position.label in template: 41.N)</title><text x="143.543" y="158.649" class="green" >A</text></g>
<g><title>84 (position.label in template: 42.R)</title><text x="145.913" y="151.729" class="green" >C</text></g>
<g><title>85 (position.label in template: 43.R)</title><text x="148.423" y="144.599" class="green" >A</text></g>
<g><title>86 (position.label in template: 44.A)</title><text x="156.153" y="144.399" class="black" >A</text></g>
<g><title>87 (position.label in template: 45.G)</title><text x="162.553" y="142.359" class="black" >G</text></g>
<g><title>88 (position.label in template: 46.R)</title><text x="168.103" y="137.009" class="green" >A</text></g>
<g><title>89 (position.label in template: 47.U)</title><text x="171.373" y="130.199" class="black" >U</text></g>
<g><title>90 (position.label in template: 48.C)</title><text x="168.683" y="123.289" class="black" >C</text></g>
<g><title>91 (position.label in template: 49.N)</title><text x="163.733" y="117.179" class="green" >A</text></g>
<g><line x1="163.597" y1="114.847" x2="163.049" y2="106.692" class="black" /></g>
<g><title>92 (position.label in template: 50.Y)</title><text x="171.203" y="116.879" class="green" >C</text></g>
<g><line x1="171.04" y1="114.549" x2="170.375" y2="106.27" class="black" /></g>
<g><title>93 (position.label in template: 51.N)</title><text x="178.813" y="116.169" class="green" >U</text></g>
<g><line x1="178.677" y1="113.837" x2="178.129" y2="105.682" class="black" /></g>
<g><title>94 (position.label in template: 52.R)</title><text x="186.123" y="115.739" class="green" >G</text></g>
<g><line x1="186.014" y1="113.406" x2="185.582" y2="105.374" class="black" /></g>
<g><title>95 (position.label in template: 53.G)</title><text x="193.493" y="115.119" class="black" >G</text></g>
<g><line x1="193.384" y1="112.786" x2="192.952" y2="104.744" class="black" /></g>
<g><title>96 (position.label in template: 54.U)</title><text x="199.743" y="119.719" class="black" >U</text></g>
<g><title>97 (position.label in template: 55.U)</title><text x="207.313" y="119.619" class="black" >U</text></g>
<g><title>98 (position.label in template: 56.C)</title><text x="213.263" y="114.949" class="black" >C</text></g>
<g><title>99 (position.label in template: 57.R)</title><text x="215.183" y="107.639" class="green" >G</text></g>
<g><title>100 (position.label in template: 58.A)</title><text x="212.473" y="100.779" class="black" >A</text></g>
<g><title>100 (inserted)</title><text x="217.719" y="96.3625" class="numbering-label sequential" >100</text></g>
<g><line x1="213.872" y1="99.6016" x2="215.909" y2="97.8865" class="numbering-line sequential" /></g>
<g><title>101 (position.label in template: 59.N)</title><text x="206.023" y="96.7595" class="green" >U</text></g>
<g><title>102 (position.label in template: 60.U)</title><text x="198.263" y="97.7495" class="black" >U</text></g>
<g><title>103 (position.label in template: 61.C)</title><text x="192.843" y="103.019" class="black" >C</text></g>
<g><title>104 (position.label in template: 62.Y)</title><text x="185.473" y="103.649" class="green" >C</text></g>
<g><title>105 (position.label in template: 63.N)</title><text x="177.993" y="103.959" class="green" >A</text></g>
<g><title>106 (position.label in template: 64.R)</title><text x="170.213" y="104.549" class="green" >G</text></g>
<g><title>107 (position.label in template: 65.N)</title><text x="162.913" y="104.969" class="green" >U</text></g>
<g><title>108 (position.label in template: 66.N)</title><text x="156.093" y="100.489" class="green" >A</text></g>
<g><title>109 (position.label in template: 67.R)</title><text x="155.943" y="93.1395" class="green" >C</text></g>
<g><title>110 (position.label in template: 68.R)</title><text x="155.943" y="85.5795" class="green" >G</text></g>
<g><title>111 (position.label in template: 69.N)</title><text x="156.093" y="77.8095" class="green" >G</text></g>
<g><title>112 (position.label in template: 70.G)</title><text x="155.733" y="70.4595" class="green" >G</text></g>
<g><title>113 (position.label in template: 71.N)</title><text x="156.093" y="62.6895" class="green" >G</text></g>
<g><title>114 (position.label in template: 72.C)</title><text x="155.943" y="55.3395" class="black" >C</text></g>
<g><title>115 (position.label in template: 73.N)</title><text x="161.225" y="50" class="green" >A</text></g>
<g><title>116 (position.label in template: 74.3')</title><text x="156.621" y="44.0655" class="green" >3'</text></g>
<g><line x1="143.225" y1="49.5627" x2="143.393" y2="53.0051" class="gray" /></g>
<g><line x1="143.592" y1="57.0643" x2="143.753" y2="60.3551" class="gray" /></g>
<g><line x1="143.868" y1="64.4166" x2="143.897" y2="68.1227" class="gray" /></g>
<g><line x1="143.896" y1="72.1866" x2="143.869" y2="75.4727" class="gray" /></g>
<g><line x1="143.868" y1="79.5366" x2="143.897" y2="83.2427" class="gray" /></g>
<g><line x1="143.913" y1="87.3067" x2="143.913" y2="90.8026" class="gray" /></g>
<g><line x1="143.856" y1="94.8659" x2="143.759" y2="98.3634" class="gray" /></g>
<g><line x1="141.869" y1="101.271" x2="138.716" y2="102.778" class="gray" /></g>
<g><line x1="135.446" y1="105.092" x2="132.97" y2="107.568" class="gray" /></g>
<g><line x1="130.611" y1="110.816" x2="128.984" y2="114.014" class="gray" /></g>
<g><line x1="126.031" y1="115.825" x2="122.745" y2="115.825" class="gray" /></g>
<g><line x1="118.681" y1="115.825" x2="115.185" y2="115.825" class="gray" /></g>
<g><line x1="111.121" y1="115.825" x2="107.835" y2="115.825" class="gray" /></g>
<g><line x1="104.208" y1="114.565" x2="102.103" y2="112.903" class="gray" /></g>
<g><line x1="98.4772" y1="111.576" x2="95.7966" y2="111.486" class="gray" /></g>
<g><line x1="92.0901" y1="112.567" x2="89.8785" y2="114.085" class="gray" /></g>
<g><line x1="87.5356" y1="117.154" x2="86.6548" y2="119.687" class="gray" /></g>
<g><line x1="86.5886" y1="123.548" x2="87.382" y2="126.11" class="gray" /></g>
<g><line x1="89.6181" y1="129.257" x2="91.7765" y2="130.85" class="gray" /></g>
<g><line x1="95.4436" y1="132.058" x2="98.1258" y2="132.06" class="gray" /></g>
<g><line x1="101.795" y1="130.858" x2="103.956" y2="129.269" class="gray" /></g>
<g><line x1="107.625" y1="128.065" x2="111.331" y2="128.065" class="gray" /></g>
<g><line x1="115.395" y1="128.065" x2="118.471" y2="128.065" class="gray" /></g>
<g><line x1="122.535" y1="128.065" x2="126.241" y2="128.065" class="gray" /></g>
<g><line x1="129.15" y1="129.898" x2="130.655" y2="133.042" class="gray" /></g>
<g><line x1="132.997" y1="136.284" x2="135.628" y2="138.816" class="gray" /></g>
<g><line x1="136.416" y1="142.141" x2="135.25" y2="145.439" class="gray" /></g>
<g><line x1="133.865" y1="149.26" x2="132.71" y2="152.37" class="gray" /></g>
<g><line x1="131.328" y1="156.191" x2="130.167" y2="159.488" class="gray" /></g>
<g><line x1="128.816" y1="163.321" x2="127.65" y2="166.619" class="gray" /></g>
<g><line x1="124.974" y1="168.169" x2="121.677" y2="167.566" class="gray" /></g>
<g><line x1="117.65" y1="167.076" x2="114.305" y2="166.87" class="gray" /></g>
<g><line x1="110.248" y1="166.863" x2="106.902" y2="167.056" class="gray" /></g>
<g><line x1="102.874" y1="167.532" x2="99.5746" y2="168.123" class="gray" /></g>
<g><line x1="95.631" y1="169.074" x2="92.4259" y2="170.054" class="gray" /></g>
<g><line x1="88.6237" y1="171.468" x2="85.5579" y2="172.822" class="gray" /></g>
<g><line x1="81.9511" y1="174.679" x2="79.0683" y2="176.388" class="gray" /></g>
<g><line x1="75.7083" y1="178.662" x2="73.0495" y2="180.702" class="gray" /></g>
<g><line x1="69.984" y1="183.359" x2="67.587" y2="185.701" class="gray" /></g>
<g><line x1="64.8597" y1="188.705" x2="62.7585" y2="191.315" class="gray" /></g>
<g><line x1="60.4081" y1="194.622" x2="58.6328" y2="197.465" class="gray" /></g>
<g><line x1="56.6928" y1="201.027" x2="55.2685" y2="204.061" class="gray" /></g>
<g><line x1="53.7664" y1="207.83" x2="52.7134" y2="211.011" class="gray" /></g>
<g><line x1="51.6706" y1="214.932" x2="51.0039" y2="218.216" class="gray" /></g>
<g><line x1="50.4353" y1="222.233" x2="50.1643" y2="225.573" class="gray" /></g>
<g><line x1="50.078" y1="229.629" x2="50.2066" y2="232.978" class="gray" /></g>
<g><line x1="50.6037" y1="237.015" x2="51.1301" y2="240.325" class="gray" /></g>
<g><line x1="52.0051" y1="244.287" x2="52.9218" y2="247.51" class="gray" /></g>
<g><line x1="54.2621" y1="251.339" x2="55.5561" y2="254.431" class="gray" /></g>
<g><line x1="57.3427" y1="258.073" x2="58.9955" y2="260.988" class="gray" /></g>
<g><line x1="61.2031" y1="264.392" x2="63.1912" y2="267.09" class="gray" /></g>
<g><line x1="65.7883" y1="270.207" x2="68.0834" y2="272.649" class="gray" /></g>
<g><line x1="71.0331" y1="275.434" x2="73.6027" y2="277.585" class="gray" /></g>
<g><line x1="76.8629" y1="280" x2="79.6704" y2="281.83" class="gray" /></g>
<g><line x1="83.1948" y1="283.839" x2="86.2002" y2="285.322" class="gray" /></g>
<g><line x1="89.9388" y1="286.897" x2="93.0994" y2="288.012" class="gray" /></g>
<g><line x1="96.9989" y1="289.13" x2="100.27" y2="289.861" class="gray" /></g>
<g><line x1="104.275" y1="290.507" x2="107.609" y2="290.843" class="gray" /></g>
<g><line x1="111.663" y1="291.009" x2="115.013" y2="290.945" class="gray" /></g>
<g><line x1="119.058" y1="290.627" x2="122.377" y2="290.165" class="gray" /></g>
<g><line x1="126.355" y1="289.367" x2="129.595" y2="288.513" class="gray" /></g>
<g><line x1="133.45" y1="287.247" x2="136.566" y2="286.014" class="gray" /></g>
<g><line x1="140.242" y1="284.298" x2="143.189" y2="282.703" class="gray" /></g>
<g><line x1="146.635" y1="280.562" x2="149.371" y2="278.626" class="gray" /></g>
<g><line x1="152.538" y1="276.09" x2="155.024" y2="273.843" class="gray" /></g>
<g><line x1="157.866" y1="270.948" x2="160.067" y2="268.421" class="gray" /></g>
<g><line x1="162.544" y1="265.208" x2="164.429" y2="262.437" class="gray" /></g>
<g><line x1="166.506" y1="258.952" x2="168.047" y2="255.976" class="gray" /></g>
<g><line x1="169.695" y1="252.269" x2="170.871" y2="249.131" class="gray" /></g>
<g><line x1="172.065" y1="245.254" x2="172.859" y2="241.998" class="gray" /></g>
<g><line x1="173.583" y1="238.006" x2="173.984" y2="234.679" class="gray" /></g>
<g><line x1="174.228" y1="230.629" x2="174.23" y2="227.278" class="gray" /></g>
<g><line x1="173.99" y1="223.228" x2="173.592" y2="219.9" class="gray" /></g>
<g><line x1="172.872" y1="215.908" x2="172.082" y2="212.651" class="gray" /></g>
<g><line x1="170.891" y1="208.773" x2="169.718" y2="205.633" class="gray" /></g>
<g><line x1="168.075" y1="201.925" x2="166.537" y2="198.947" class="gray" /></g>
<g><line x1="164.463" y1="195.46" x2="162.581" y2="192.687" class="gray" /></g>
<g><line x1="160.107" y1="189.472" x2="157.909" y2="186.942" class="gray" /></g>
<g><line x1="155.07" y1="184.044" x2="152.586" y2="181.795" class="gray" /></g>
<g><line x1="149.422" y1="179.255" x2="146.688" y2="177.317" class="gray" /></g>
<g><line x1="143.244" y1="175.173" x2="140.299" y2="173.574" class="gray" /></g>
<g><line x1="139.19" y1="170.689" x2="140.356" y2="167.391" class="gray" /></g>
<g><line x1="141.707" y1="163.558" x2="142.868" y2="160.261" class="gray" /></g>
<g><line x1="144.201" y1="156.422" x2="145.254" y2="153.347" class="gray" /></g>
<g><line x1="146.587" y1="149.508" x2="147.748" y2="146.211" class="gray" /></g>
<g><line x1="150.454" y1="144.242" x2="154.121" y2="144.147" class="gray" /></g>
<g><line x1="158.089" y1="143.478" x2="160.617" y2="142.672" class="gray" /></g>
<g><line x1="164.016" y1="140.644" x2="166.64" y2="138.115" class="gray" /></g>
<g><line x1="168.982" y1="134.873" x2="170.493" y2="131.726" class="gray" /></g>
<g><line x1="170.636" y1="128.001" x2="169.42" y2="124.878" class="gray" /></g>
<g><line x1="167.404" y1="121.406" x2="165.012" y2="118.454" class="gray" /></g>
<g><line x1="165.763" y1="116.793" x2="169.172" y2="116.656" class="gray" /></g>
<g><line x1="173.226" y1="116.386" x2="176.789" y2="116.053" class="gray" /></g>
<g><line x1="180.841" y1="115.745" x2="184.094" y2="115.554" class="gray" /></g>
<g><line x1="188.148" y1="115.264" x2="191.468" y2="114.985" class="gray" /></g>
<g><line x1="195.129" y1="116.019" x2="198.106" y2="118.21" class="gray" /></g>
<g><line x1="201.775" y1="119.388" x2="205.281" y2="119.342" class="gray" /></g>
<g><line x1="208.911" y1="118.06" x2="211.664" y2="115.899" class="gray" /></g>
<g><line x1="213.779" y1="112.679" x2="214.666" y2="109.3" class="gray" /></g>
<g><line x1="214.436" y1="105.445" x2="213.219" y2="102.365" class="gray" /></g>
<g><line x1="210.748" y1="99.3999" x2="207.747" y2="97.5295" class="gray" /></g>
<g><line x1="204.007" y1="96.7118" x2="200.278" y2="97.1875" class="gray" /></g>
<g><line x1="196.806" y1="98.8612" x2="194.3" y2="101.298" class="gray" /></g>
<g><line x1="190.818" y1="102.888" x2="187.497" y2="103.172" class="gray" /></g>
<g><line x1="183.442" y1="103.429" x2="180.023" y2="103.571" class="gray" /></g>
<g><line x1="175.966" y1="103.808" x2="172.239" y2="104.091" class="gray" /></g>
<g><line x1="168.184" y1="104.361" x2="164.941" y2="104.548" class="gray" /></g>
<g><line x1="161.214" y1="103.549" x2="157.791" y2="101.3" class="gray" /></g>
<g><line x1="156.051" y1="98.1531" x2="155.984" y2="94.8663" class="gray" /></g>
<g><line x1="155.943" y1="90.8026" x2="155.943" y2="87.3067" class="gray" /></g>
<g><line x1="155.982" y1="83.243" x2="156.053" y2="79.5363" class="gray" /></g>
<g><line x1="155.993" y1="75.4751" x2="155.832" y2="72.1843" class="gray" /></g>
<g><line x1="155.827" y1="68.1248" x2="155.999" y2="64.4145" class="gray" /></g>
<g><line x1="156.051" y1="60.3531" x2="155.984" y2="57.0663" class="gray" /></g>
<g><line x1="157.372" y1="53.59" x2="159.796" y2="51.1398" class="gray" /></g>
<g><line x1="159.979" y1="48.0896" x2="157.867" y2="45.3663" class="gray" /></g>
</svg>
