<svg
	xmlns="http://www.w3.org/2000/svg"
	width="750.383"
	height="647.979"
	style="font-size: 3.045014px; font-weight: bold; font-family: Helvetica; " >
<g><style type="text/css" >
<!-- create color definitions -->
<![CDATA[
text.red {fill: rgb(255, 0, 255); }
text.green {fill: rgb(0, 255, 0); }
text.blue {fill: rgb(0, 0, 255); }
text.black {fill: rgb(0, 0, 0); }
text.gray {fill: rgb(204, 204, 204); }
text.brown {fill: rgb(211.65, 104.55, 30.6); }
text {fill: rgb(0, 0, 0); text-anchor: middle; alignment-baseline: middle; }
circle.red {stroke: rgb(255, 0, 255); fill: none; }
circle.green {stroke: rgb(0, 255, 0); fill: none; }
circle.blue {stroke: rgb(0, 0, 255); fill: none; }
circle.black {stroke: rgb(0, 0, 0); fill: none; }
circle.gray {stroke: rgb(204, 204, 204); fill: none; }
circle.brown {stroke: rgb(211.65, 104.55, 30.6); fill: none; }
circle {stroke: rgb(0, 0, 0); }
line.red {stroke: rgb(255, 0, 255); stroke-width: 0.380627; }
line.green {stroke: rgb(0, 255, 0); stroke-width: 0.380627; }
line.blue {stroke: rgb(0, 0, 255); stroke-width: 0.380627; }
line.black {stroke: rgb(0, 0, 0); stroke-width: 0.380627; }
line.gray {stroke: rgb(204, 204, 204); stroke-width: 0.380627; }
line.brown {stroke: rgb(211.65, 104.55, 30.6); stroke-width: 0.380627; }
line {stroke: rgb(0, 0, 0); }
text.numbering-label {fill: rgb(204, 204, 204);}
line.numbering-line {stroke: rgb(204, 204, 204); stroke-width: 0.190313;}
line.predicted {stroke: rgb(0, 0, 0); stroke-dasharray: 2}
text.background {fill: rgb(255, 255, 255);
.template {visibility:hidden}
]]>
</style></g>
<g><title>0 (position.label in template: 0.5')</title><text x="44.9492" y="44.3783" class="green" >5'</text></g>
<g><title>1 (position.label in template: 25.A)</title><text x="50" y="50" class="black" >A</text></g>
<g><title>2 (inserted)</title><text x="55.0508" y="55.6217" class="red" >U</text></g>
<g><title>3 (inserted)</title><text x="60.1017" y="61.2435" class="red" >G</text></g>
<g><title>4 (inserted)</title><text x="65.1525" y="66.8652" class="red" >G</text></g>
<g><title>5 (inserted)</title><text x="70.2034" y="72.487" class="red" >U</text></g>
<g><title>6 (inserted)</title><text x="75.2542" y="78.1087" class="red" >U</text></g>
<g><title>7 (inserted)</title><text x="80.305" y="83.7304" class="red" >C</text></g>
<g><title>8 (inserted)</title><text x="85.3559" y="89.3522" class="red" >U</text></g>
<g><title>9 (inserted)</title><text x="90.4067" y="94.9739" class="red" >C</text></g>
<g><title>10 (inserted)</title><text x="95.4576" y="100.596" class="red" >A</text></g>
<g><title>10 (inserted)</title><text x="100.554" y="96.0168" class="numbering-label sequential" >10</text></g>
<g><line x1="96.8166" y1="99.3746" x2="98.8594" y2="97.5393" class="numbering-line sequential" /></g>
<g><title>11 (inserted)</title><text x="100.508" y="106.217" class="red" >A</text></g>
<g><title>12 (inserted)</title><text x="105.559" y="111.839" class="red" >A</text></g>
<g><title>13 (inserted)</title><text x="110.61" y="117.461" class="red" >G</text></g>
<g><title>14 (inserted)</title><text x="115.661" y="123.083" class="red" >C</text></g>
<g><title>15 (inserted)</title><text x="120.712" y="128.704" class="red" >C</text></g>
<g><title>16 (inserted)</title><text x="125.763" y="134.326" class="red" >G</text></g>
<g><title>17 (inserted)</title><text x="130.813" y="139.948" class="red" >A</text></g>
<g><title>18 (inserted)</title><text x="135.864" y="145.57" class="red" >A</text></g>
<g><title>19 (inserted)</title><text x="140.915" y="151.191" class="red" >U</text></g>
<g><title>20 (inserted)</title><text x="145.966" y="156.813" class="red" >C</text></g>
<g><title>20 (inserted)</title><text x="151.062" y="152.234" class="numbering-label sequential" >20</text></g>
<g><line x1="147.325" y1="155.592" x2="149.368" y2="153.757" class="numbering-line sequential" /></g>
<g><title>21 (inserted)</title><text x="151.017" y="162.435" class="red" >G</text></g>
<g><title>22 (inserted)</title><text x="156.068" y="168.057" class="red" >U</text></g>
<g><title>23 (inserted)</title><text x="161.118" y="173.678" class="red" >U</text></g>
<g><title>24 (inserted)</title><text x="166.169" y="179.3" class="red" >U</text></g>
<g><title>25 (inserted)</title><text x="171.22" y="184.922" class="red" >U</text></g>
<g><title>26 (inserted)</title><text x="176.271" y="190.544" class="red" >U</text></g>
<g><title>27 (inserted)</title><text x="181.322" y="196.165" class="red" >C</text></g>
<g><title>28 (inserted)</title><text x="186.373" y="201.787" class="red" >U</text></g>
<g><title>29 (inserted)</title><text x="191.424" y="207.409" class="red" >U</text></g>
<g><title>30 (inserted)</title><text x="196.474" y="213.03" class="red" >U</text></g>
<g><title>30 (inserted)</title><text x="201.571" y="208.452" class="numbering-label sequential" >30</text></g>
<g><line x1="197.833" y1="211.809" x2="199.876" y2="209.974" class="numbering-line sequential" /></g>
<g><title>31 (inserted)</title><text x="201.525" y="218.652" class="red" >C</text></g>
<g><title>32 (inserted)</title><text x="206.576" y="224.274" class="red" >A</text></g>
<g><title>33 (inserted)</title><text x="211.627" y="229.896" class="red" >A</text></g>
<g><title>34 (inserted)</title><text x="216.678" y="235.517" class="red" >A</text></g>
<g><title>35 (inserted)</title><text x="221.729" y="241.139" class="red" >U</text></g>
<g><title>36 (inserted)</title><text x="226.779" y="246.761" class="red" >U</text></g>
<g><title>37 (inserted)</title><text x="231.83" y="252.383" class="red" >U</text></g>
<g><title>38 (inserted)</title><text x="236.881" y="258.004" class="red" >G</text></g>
<g><title>39 (inserted)</title><text x="241.932" y="263.626" class="red" >U</text></g>
<g><title>40 (inserted)</title><text x="246.983" y="269.248" class="red" >U</text></g>
<g><title>41 (inserted)</title><text x="252.034" y="274.87" class="red" >C</text></g>
<g><title>42 (inserted)</title><text x="257.084" y="280.491" class="red" >U</text></g>
<g><title>43 (inserted)</title><text x="262.135" y="286.113" class="red" >C</text></g>
<g><title>44 (inserted)</title><text x="267.186" y="291.735" class="red" >G</text></g>
<g><title>45 (inserted)</title><text x="272.237" y="297.357" class="red" >U</text></g>
<g><title>46 (inserted)</title><text x="277.288" y="302.978" class="red" >U</text></g>
<g><title>47 (inserted)</title><text x="282.339" y="308.6" class="red" >U</text></g>
<g><title>48 (inserted)</title><text x="287.389" y="314.222" class="red" >A</text></g>
<g><title>49 (inserted)</title><text x="292.44" y="319.844" class="red" >A</text></g>
<g><title>50 (inserted)</title><text x="297.491" y="325.465" class="red" >U</text></g>
<g><title>50 (inserted)</title><text x="302.588" y="320.886" class="numbering-label sequential" >50</text></g>
<g><line x1="298.85" y1="324.244" x2="300.893" y2="322.409" class="numbering-line sequential" /></g>
<g><title>51 (inserted)</title><text x="302.542" y="331.087" class="red" >C</text></g>
<g><title>52 (inserted)</title><text x="307.593" y="336.709" class="red" >A</text></g>
<g><title>53 (inserted)</title><text x="312.644" y="342.331" class="red" >U</text></g>
<g><title>54 (inserted)</title><text x="317.695" y="347.952" class="red" >U</text></g>
<g><title>55 (inserted)</title><text x="322.745" y="353.574" class="red" >G</text></g>
<g><title>56 (inserted)</title><text x="327.796" y="359.196" class="red" >A</text></g>
<g><title>57 (inserted)</title><text x="332.847" y="364.817" class="red" >U</text></g>
<g><title>58 (inserted)</title><text x="337.898" y="370.439" class="red" >G</text></g>
<g><title>59 (inserted)</title><text x="342.949" y="376.061" class="red" >A</text></g>
<g><title>60 (inserted)</title><text x="348" y="381.683" class="red" >U</text></g>
<g><title>61 (inserted)</title><text x="353.05" y="387.304" class="red" >A</text></g>
<g><title>62 (inserted)</title><text x="358.101" y="392.926" class="red" >G</text></g>
<g><title>63 (inserted)</title><text x="363.152" y="398.548" class="red" >A</text></g>
<g><title>64 (inserted)</title><text x="368.203" y="404.17" class="red" >C</text></g>
<g><title>65 (inserted)</title><text x="373.254" y="409.791" class="red" >U</text></g>
<g><title>66 (inserted)</title><text x="378.305" y="415.413" class="red" >A</text></g>
<g><title>67 (inserted)</title><text x="383.355" y="421.035" class="red" >A</text></g>
<g><title>68 (inserted)</title><text x="388.406" y="426.657" class="red" >G</text></g>
<g><title>69 (inserted)</title><text x="393.457" y="432.278" class="red" >A</text></g>
<g><title>70 (inserted)</title><text x="398.508" y="437.9" class="red" >A</text></g>
<g><title>71 (inserted)</title><text x="403.559" y="443.522" class="red" >A</text></g>
<g><title>72 (inserted)</title><text x="408.61" y="449.144" class="red" >A</text></g>
<g><title>73 (inserted)</title><text x="413.66" y="454.765" class="red" >U</text></g>
<g><title>74 (inserted)</title><text x="418.711" y="460.387" class="red" >U</text></g>
<g><title>75 (inserted)</title><text x="423.762" y="466.009" class="red" >A</text></g>
<g><title>76 (inserted)</title><text x="428.813" y="471.631" class="red" >G</text></g>
<g><title>77 (inserted)</title><text x="433.864" y="477.252" class="red" >G</text></g>
<g><title>78 (inserted)</title><text x="438.915" y="482.874" class="red" >G</text></g>
<g><title>79 (inserted)</title><text x="443.965" y="488.496" class="red" >U</text></g>
<g><title>80 (inserted)</title><text x="449.016" y="494.118" class="red" >U</text></g>
<g><title>81 (position.label in template: 40.U)</title><text x="454.067" y="499.739" class="black" >U</text></g>
<g><title>82 (position.label in template: 41.U)</title><text x="454.067" y="507.297" class="black" >U</text></g>
<g><title>83 (inserted)</title><text x="454.067" y="514.854" class="red" >U</text></g>
<g><title>84 (inserted)</title><text x="454.067" y="522.412" class="red" >U</text></g>
<g><title>85 (inserted)</title><text x="454.067" y="529.969" class="red" >A</text></g>
<g><title>86 (inserted)</title><text x="454.067" y="537.526" class="red" >U</text></g>
<g><title>87 (inserted)</title><text x="454.067" y="545.084" class="red" >U</text></g>
<g><title>88 (position.label in template: 47.U)</title><text x="454.067" y="552.641" class="black" >U</text></g>
<g><title>89 (position.label in template: 48.U)</title><text x="454.067" y="560.199" class="black" >U</text></g>
<g><title>90 (inserted)</title><text x="454.21" y="567.755" class="red" >U</text></g>
<g><title>91 (inserted)</title><text x="454.352" y="575.311" class="red" >G</text></g>
<g><title>92 (inserted)</title><text x="454.495" y="582.867" class="red" >G</text></g>
<g><title>93 (inserted)</title><text x="454.637" y="590.423" class="red" >U</text></g>
<g><title>94 (position.label in template: 53.U)</title><text x="454.78" y="597.979" class="black" >U</text></g>
<g><title>95 (position.label in template: 54.U)</title><text x="462.337" y="597.979" class="black" >U</text></g>
<g><title>96 (position.label in template: 55.U)</title><text x="469.894" y="597.979" class="black" >U</text></g>
<g><title>97 (position.label in template: 56.U)</title><text x="477.452" y="597.979" class="black" >U</text></g>
<g><title>98 (position.label in template: 57.G)</title><text x="485.009" y="597.979" class="black" >G</text></g>
<g><title>99 (position.label in template: 58.A)</title><text x="492.567" y="597.979" class="black" >A</text></g>
<g><title>100 (position.label in template: 59.U)</title><text x="500.124" y="597.979" class="black" >U</text></g>
<g><title>100 (inserted)</title><text x="500.124" y="604.831" class="numbering-label sequential" >100</text></g>
<g><line x1="500.124" y1="599.806" x2="500.124" y2="603.308" class="numbering-line sequential" /></g>
<g><title>101 (position.label in template: 60.A)</title><text x="507.682" y="597.979" class="black" >A</text></g>
<g><title>102 (position.label in template: 61.A)</title><text x="515.239" y="597.979" class="black" >A</text></g>
<g><title>103 (position.label in template: 62.A)</title><text x="522.797" y="597.979" class="black" >A</text></g>
<g><title>104 (position.label in template: 63.G)</title><text x="530.354" y="597.979" class="black" >G</text></g>
<g><title>105 (position.label in template: 64.A)</title><text x="537.911" y="597.979" class="black" >A</text></g>
<g><title>106 (position.label in template: 65.G)</title><text x="545.469" y="597.979" class="black" >G</text></g>
<g><title>107 (position.label in template: 66.A)</title><text x="553.026" y="597.979" class="black" >A</text></g>
<g><title>108 (position.label in template: 67.A)</title><text x="560.584" y="597.979" class="black" >A</text></g>
<g><title>109 (position.label in template: 68.A)</title><text x="568.141" y="597.979" class="black" >A</text></g>
<g><title>110 (position.label in template: 69.G)</title><text x="575.699" y="597.979" class="black" >G</text></g>
<g><title>111 (position.label in template: 70.A)</title><text x="583.256" y="597.979" class="black" >A</text></g>
<g><title>112 (position.label in template: 71.U)</title><text x="588.492" y="592.53" class="black" >U</text></g>
<g><line x1="590.522" y1="592.225" x2="598.912" y2="592.225" class="black" /></g>
<g><title>113 (position.label in template: 72.G)</title><text x="588.282" y="584.97" class="green" >G</text></g>
<g><line x1="590.312" y1="584.665" x2="598.702" y2="584.665" class="black" /></g>
<g><title>114 (position.label in template: 73.C)</title><text x="588.492" y="577.41" class="black" >C</text></g>
<g><line x1="590.522" y1="577.105" x2="598.492" y2="577.105" class="black" /></g>
<g><title>115 (position.label in template: 74.C)</title><text x="588.492" y="569.85" class="black" >C</text></g>
<g><line x1="590.522" y1="569.545" x2="598.492" y2="569.545" class="black" /></g>
<g><title>116 (position.label in template: 75.U)</title><text x="588.492" y="562.29" class="green" >U</text></g>
<g><line x1="590.522" y1="561.985" x2="598.912" y2="561.985" class="black" /></g>
<g><title>117 (position.label in template: 76.C)</title><text x="588.492" y="554.73" class="black" >C</text></g>
<g><line x1="590.522" y1="554.425" x2="598.492" y2="554.425" class="black" /></g>
<g><title>118 (position.label in template: 77.U)</title><text x="588.492" y="547.17" class="green" >U</text></g>
<g><line x1="590.522" y1="546.865" x2="598.492" y2="546.865" class="black" /></g>
<g><title>119 (position.label in template: 78.U)</title><text x="588.423" y="539.882" class="blue" >U</text></g>
<g><title>120 (position.label in template: 79.C)</title><text x="588.39" y="532.594" class="blue" >C</text></g>
<g><title>121 (position.label in template: 80.U)</title><text x="588.392" y="525.306" class="blue" >U</text></g>
<g><title>122 (position.label in template: 81.U)</title><text x="588.431" y="518.018" class="blue" >U</text></g>
<g><title>123 (position.label in template: 82.U)</title><text x="588.505" y="510.731" class="blue" >U</text></g>
<g><title>124 (position.label in template: 83.C)</title><text x="588.615" y="503.444" class="blue" >C</text></g>
<g><title>125 (position.label in template: 84.A)</title><text x="588.76" y="496.157" class="black" >A</text></g>
<g><line x1="590.79" y1="495.853" x2="598.76" y2="495.853" class="black" /></g>
<g><title>126 (position.label in template: 85.G)</title><text x="588.34" y="488.597" class="green" >G</text></g>
<g><line x1="590.37" y1="488.293" x2="598.76" y2="488.293" class="black" /></g>
<g><title>127 (position.label in template: 86.C)</title><text x="588.55" y="481.037" class="green" >C</text></g>
<g><line x1="590.58" y1="480.733" x2="598.55" y2="480.733" class="black" /></g>
<g><title>128 (position.label in template: 87.A)</title><text x="588.76" y="473.477" class="black" >A</text></g>
<g><line x1="590.79" y1="473.173" x2="598.76" y2="473.173" class="black" /></g>
<g><title>129 (position.label in template: 88.G)</title><text x="588.34" y="465.917" class="green" >G</text></g>
<g><line x1="590.37" y1="465.613" x2="598.76" y2="465.613" class="black" /></g>
<g><title>130 (position.label in template: 89.C)</title><text x="588.55" y="458.357" class="black" >C</text></g>
<g><line x1="590.58" y1="458.053" x2="598.55" y2="458.053" class="black" /></g>
<g><title>131 (position.label in template: 90.A)</title><text x="588.76" y="450.797" class="black" >A</text></g>
<g><line x1="590.79" y1="450.493" x2="598.76" y2="450.493" class="black" /></g>
<g><title>132 (position.label in template: 91.A)</title><text x="588.76" y="443.237" class="black" >A</text></g>
<g><line x1="590.79" y1="442.933" x2="598.76" y2="442.933" class="black" /></g>
<g><title>133 (position.label in template: 92.G)</title><text x="588.34" y="435.677" class="black" >G</text></g>
<g><line x1="590.37" y1="435.373" x2="598.76" y2="435.373" class="black" /></g>
<g><title>134 (position.label in template: 93.A)</title><text x="588.76" y="428.117" class="black" >A</text></g>
<g><line x1="590.79" y1="427.813" x2="598.76" y2="427.813" class="black" /></g>
<g><title>135 (position.label in template: 94.U)</title><text x="581.303" y="427.426" class="blue" >U</text></g>
<g><title>136 (position.label in template: 95.U)</title><text x="573.913" y="426.208" class="blue" >U</text></g>
<g><title>137 (position.label in template: 96.A)</title><text x="566.628" y="424.47" class="blue" >A</text></g>
<g><title>138 (inserted)</title><text x="559.485" y="422.22" class="red" >U</text></g>
<g><title>139 (inserted)</title><text x="552.518" y="419.469" class="red" >U</text></g>
<g><title>140 (inserted)</title><text x="545.765" y="416.232" class="red" >C</text></g>
<g><title>141 (inserted)</title><text x="539.257" y="412.524" class="red" >U</text></g>
<g><title>142 (inserted)</title><text x="533.029" y="408.365" class="red" >U</text></g>
<g><title>143 (inserted)</title><text x="527.111" y="403.775" class="red" >G</text></g>
<g><title>144 (inserted)</title><text x="521.533" y="398.777" class="red" >U</text></g>
<g><title>145 (inserted)</title><text x="516.324" y="393.396" class="red" >U</text></g>
<g><title>146 (inserted)</title><text x="511.508" y="387.66" class="red" >A</text></g>
<g><title>147 (inserted)</title><text x="507.111" y="381.597" class="red" >G</text></g>
<g><title>148 (inserted)</title><text x="503.155" y="375.238" class="red" >C</text></g>
<g><title>149 (inserted)</title><text x="499.659" y="368.614" class="red" >U</text></g>
<g><title>150 (inserted)</title><text x="496.642" y="361.76" class="red" >U</text></g>
<g><title>150 (inserted)</title><text x="490.277" y="364.296" class="numbering-label sequential" >150</text></g>
<g><line x1="494.944" y1="362.436" x2="493.018" y2="363.204" class="numbering-line sequential" /></g>
<g><title>151 (inserted)</title><text x="494.117" y="354.708" class="red" >U</text></g>
<g><title>152 (inserted)</title><text x="492.099" y="347.496" class="red" >G</text></g>
<g><title>153 (inserted)</title><text x="490.596" y="340.159" class="red" >U</text></g>
<g><title>154 (inserted)</title><text x="489.618" y="332.734" class="red" >U</text></g>
<g><title>155 (inserted)</title><text x="489.167" y="325.258" class="red" >C</text></g>
<g><title>156 (inserted)</title><text x="489.248" y="317.769" class="red" >U</text></g>
<g><title>157 (inserted)</title><text x="489.859" y="310.304" class="red" >G</text></g>
<g><title>158 (inserted)</title><text x="490.997" y="302.902" class="red" >G</text></g>
<g><title>159 (inserted)</title><text x="492.657" y="295.598" class="red" >A</text></g>
<g><title>160 (inserted)</title><text x="494.83" y="288.431" class="red" >G</text></g>
<g><title>161 (inserted)</title><text x="497.506" y="281.436" class="red" >G</text></g>
<g><title>162 (inserted)</title><text x="500.67" y="274.648" class="red" >C</text></g>
<g><title>163 (inserted)</title><text x="504.308" y="268.101" class="red" >A</text></g>
<g><title>164 (inserted)</title><text x="508.4" y="261.828" class="red" >C</text></g>
<g><title>165 (inserted)</title><text x="512.926" y="255.861" class="red" >A</text></g>
<g><title>166 (inserted)</title><text x="517.864" y="250.23" class="red" >G</text></g>
<g><title>167 (inserted)</title><text x="523.188" y="244.963" class="red" >A</text></g>
<g><title>168 (inserted)</title><text x="528.872" y="240.086" class="red" >U</text></g>
<g><title>169 (inserted)</title><text x="534.887" y="235.624" class="red" >C</text></g>
<g><title>170 (inserted)</title><text x="541.204" y="231.6" class="red" >A</text></g>
<g><title>171 (inserted)</title><text x="547.789" y="228.033" class="red" >A</text></g>
<g><title>172 (inserted)</title><text x="554.611" y="224.942" class="red" >U</text></g>
<g><title>173 (inserted)</title><text x="561.635" y="222.341" class="red" >C</text></g>
<g><title>174 (inserted)</title><text x="568.825" y="220.246" class="red" >G</text></g>
<g><title>175 (inserted)</title><text x="576.146" y="218.664" class="red" >C</text></g>
<g><title>176 (inserted)</title><text x="583.56" y="217.606" class="red" >C</text></g>
<g><title>177 (inserted)</title><text x="591.03" y="217.075" class="red" >A</text></g>
<g><title>178 (inserted)</title><text x="598.52" y="217.075" class="red" >U</text></g>
<g><title>179 (inserted)</title><text x="605.991" y="217.606" class="red" >U</text></g>
<g><title>180 (inserted)</title><text x="613.405" y="218.664" class="red" >A</text></g>
<g><title>181 (inserted)</title><text x="620.725" y="220.246" class="red" >U</text></g>
<g><title>182 (inserted)</title><text x="627.916" y="222.341" class="red" >G</text></g>
<g><title>183 (inserted)</title><text x="634.939" y="224.942" class="red" >A</text></g>
<g><title>184 (inserted)</title><text x="641.761" y="228.033" class="red" >G</text></g>
<g><title>185 (inserted)</title><text x="648.347" y="231.6" class="red" >A</text></g>
<g><title>186 (inserted)</title><text x="654.663" y="235.624" class="red" >G</text></g>
<g><title>187 (inserted)</title><text x="660.678" y="240.086" class="red" >G</text></g>
<g><title>188 (inserted)</title><text x="666.362" y="244.963" class="red" >G</text></g>
<g><title>189 (inserted)</title><text x="671.687" y="250.23" class="red" >A</text></g>
<g><title>190 (inserted)</title><text x="676.624" y="255.861" class="red" >U</text></g>
<g><title>191 (inserted)</title><text x="681.151" y="261.828" class="red" >U</text></g>
<g><title>192 (inserted)</title><text x="685.243" y="268.101" class="red" >U</text></g>
<g><title>193 (inserted)</title><text x="688.88" y="274.648" class="red" >U</text></g>
<g><title>194 (inserted)</title><text x="692.045" y="281.436" class="red" >U</text></g>
<g><title>195 (inserted)</title><text x="694.72" y="288.431" class="red" >U</text></g>
<g><title>196 (inserted)</title><text x="696.893" y="295.598" class="red" >U</text></g>
<g><title>197 (inserted)</title><text x="698.553" y="302.902" class="red" >A</text></g>
<g><title>198 (inserted)</title><text x="699.692" y="310.304" class="red" >U</text></g>
<g><title>199 (inserted)</title><text x="700.303" y="317.769" class="red" >A</text></g>
<g><title>200 (inserted)</title><text x="700.383" y="325.258" class="red" >A</text></g>
<g><title>200 (inserted)</title><text x="707.232" y="325.427" class="numbering-label sequential" >200</text></g>
<g><line x1="702.21" y1="325.303" x2="704.492" y2="325.359" class="numbering-line sequential" /></g>
<g><title>201 (inserted)</title><text x="699.933" y="332.734" class="red" >U</text></g>
<g><title>202 (inserted)</title><text x="698.954" y="340.159" class="red" >U</text></g>
<g><title>203 (inserted)</title><text x="697.452" y="347.496" class="red" >U</text></g>
<g><title>204 (inserted)</title><text x="695.433" y="354.708" class="red" >G</text></g>
<g><title>205 (inserted)</title><text x="692.909" y="361.76" class="red" >C</text></g>
<g><title>206 (inserted)</title><text x="689.891" y="368.614" class="red" >A</text></g>
<g><title>207 (inserted)</title><text x="686.395" y="375.238" class="red" >G</text></g>
<g><title>208 (inserted)</title><text x="682.439" y="381.597" class="red" >A</text></g>
<g><title>209 (inserted)</title><text x="678.042" y="387.66" class="red" >G</text></g>
<g><title>210 (inserted)</title><text x="673.227" y="393.396" class="red" >U</text></g>
<g><title>211 (inserted)</title><text x="668.017" y="398.777" class="red" >U</text></g>
<g><title>212 (inserted)</title><text x="662.439" y="403.775" class="red" >G</text></g>
<g><title>213 (inserted)</title><text x="656.521" y="408.365" class="red" >U</text></g>
<g><title>214 (inserted)</title><text x="650.293" y="412.524" class="red" >U</text></g>
<g><title>215 (inserted)</title><text x="643.786" y="416.232" class="red" >C</text></g>
<g><title>216 (inserted)</title><text x="637.032" y="419.469" class="red" >U</text></g>
<g><title>217 (inserted)</title><text x="630.066" y="422.22" class="red" >U</text></g>
<g><title>218 (inserted)</title><text x="622.922" y="424.47" class="red" >C</text></g>
<g><title>219 (inserted)</title><text x="615.637" y="426.208" class="red" >C</text></g>
<g><title>220 (inserted)</title><text x="608.248" y="427.426" class="red" >U</text></g>
<g><title>221 (position.label in template: 98.U)</title><text x="600.79" y="428.117" class="black" >U</text></g>
<g><title>222 (position.label in template: 99.C)</title><text x="600.79" y="435.677" class="black" >C</text></g>
<g><title>223 (inserted)</title><text x="604.57" y="439.457" class="red" >U</text></g>
<g><title>224 (position.label in template: 100.U)</title><text x="600.79" y="443.237" class="black" >U</text></g>
<g><title>225 (position.label in template: 101.U)</title><text x="600.79" y="450.797" class="black" >U</text></g>
<g><title>226 (position.label in template: 102.G)</title><text x="600.58" y="458.357" class="black" >G</text></g>
<g><title>227 (position.label in template: 103.U)</title><text x="600.79" y="465.917" class="green" >C</text></g>
<g><title>228 (position.label in template: 104.U)</title><text x="600.79" y="473.477" class="black" >U</text></g>
<g><title>229 (position.label in template: 105.A)</title><text x="607.55" y="477.257" class="green" >G</text></g>
<g><title>230 (position.label in template: 106.G)</title><text x="600.58" y="481.037" class="green" >A</text></g>
<g><title>231 (position.label in template: 107.C)</title><text x="600.79" y="488.597" class="green" >U</text></g>
<g><title>232 (position.label in template: 108.U)</title><text x="600.79" y="496.157" class="black" >U</text></g>
<g><title>233 (position.label in template: 109.U)</title><text x="607.012" y="498.934" class="green" >A</text></g>
<g><title>234 (position.label in template: 110.U)</title><text x="612.323" y="503.2" class="blue" >U</text></g>
<g><title>235 (position.label in template: 111.G)</title><text x="616.376" y="508.676" class="green" >C</text></g>
<g><title>236 (inserted)</title><text x="618.905" y="515.003" class="red" >C</text></g>
<g><title>237 (inserted)</title><text x="619.742" y="521.764" class="red" >C</text></g>
<g><title>238 (position.label in template: 112.U)</title><text x="618.834" y="528.516" class="blue" >U</text></g>
<g><title>239 (position.label in template: 113.U)</title><text x="616.239" y="534.815" class="green" >C</text></g>
<g><title>240 (position.label in template: 114.C)</title><text x="612.129" y="540.249" class="green" >U</text></g>
<g><title>241 (position.label in template: 115.U)</title><text x="606.772" y="544.459" class="blue" >U</text></g>
<g><title>242 (position.label in template: 116.G)</title><text x="600.522" y="547.17" class="green" >U</text></g>
<g><title>243 (position.label in template: 117.G)</title><text x="600.522" y="554.73" class="black" >G</text></g>
<g><title>244 (position.label in template: 118.A)</title><text x="600.942" y="562.29" class="green" >U</text></g>
<g><title>245 (position.label in template: 119.G)</title><text x="600.522" y="569.85" class="black" >G</text></g>
<g><title>246 (position.label in template: 120.G)</title><text x="600.522" y="577.41" class="black" >G</text></g>
<g><title>247 (position.label in template: 121.C)</title><text x="600.732" y="584.97" class="green" >U</text></g>
<g><title>248 (position.label in template: 122.A)</title><text x="600.942" y="592.53" class="black" >A</text></g>
<g><title>249 (position.label in template: 123.C)</title><text x="606.178" y="597.979" class="black" >C</text></g>
<g><title>250 (position.label in template: 124.A)</title><text x="613.735" y="597.979" class="black" >A</text></g>
<g><title>250 (inserted)</title><text x="613.735" y="604.831" class="numbering-label sequential" >250</text></g>
<g><line x1="613.735" y1="599.806" x2="613.735" y2="603.308" class="numbering-line sequential" /></g>
<g><title>251 (position.label in template: 125.G)</title><text x="621.293" y="597.979" class="green" >U</text></g>
<g><title>252 (position.label in template: 126.A)</title><text x="628.85" y="597.979" class="black" >A</text></g>
<g><title>253 (position.label in template: 127.U)</title><text x="636.408" y="597.979" class="green" >A</text></g>
<g><title>254 (position.label in template: 128.3')</title><text x="643.965" y="597.979" class="green" >3'</text></g>
<g><line x1="46.3059" y1="45.5838" x2="48.6433" y2="48.1854" class="gray" /></g>
<g><line x1="51.3567" y1="51.2056" x2="53.6941" y2="53.8072" class="gray" /></g>
<g><line x1="56.4075" y1="56.8273" x2="58.745" y2="59.4289" class="gray" /></g>
<g><line x1="61.4584" y1="62.449" x2="63.7958" y2="65.0507" class="gray" /></g>
<g><line x1="66.5092" y1="68.0708" x2="68.8466" y2="70.6724" class="gray" /></g>
<g><line x1="71.5601" y1="73.6925" x2="73.8975" y2="76.2941" class="gray" /></g>
<g><line x1="76.6109" y1="79.3143" x2="78.9483" y2="81.9159" class="gray" /></g>
<g><line x1="81.6617" y1="84.936" x2="83.9992" y2="87.5376" class="gray" /></g>
<g><line x1="86.7126" y1="90.5577" x2="89.05" y2="93.1594" class="gray" /></g>
<g><line x1="91.7634" y1="96.1795" x2="94.1008" y2="98.7811" class="gray" /></g>
<g><line x1="96.8143" y1="101.801" x2="99.1517" y2="104.403" class="gray" /></g>
<g><line x1="101.865" y1="107.423" x2="104.203" y2="110.025" class="gray" /></g>
<g><line x1="106.916" y1="113.045" x2="109.253" y2="115.646" class="gray" /></g>
<g><line x1="111.967" y1="118.666" x2="114.304" y2="121.268" class="gray" /></g>
<g><line x1="117.018" y1="124.288" x2="119.355" y2="126.89" class="gray" /></g>
<g><line x1="122.068" y1="129.91" x2="124.406" y2="132.512" class="gray" /></g>
<g><line x1="127.119" y1="135.532" x2="129.457" y2="138.133" class="gray" /></g>
<g><line x1="132.17" y1="141.153" x2="134.508" y2="143.755" class="gray" /></g>
<g><line x1="137.221" y1="146.775" x2="139.558" y2="149.377" class="gray" /></g>
<g><line x1="142.272" y1="152.397" x2="144.609" y2="154.999" class="gray" /></g>
<g><line x1="147.323" y1="158.019" x2="149.66" y2="160.62" class="gray" /></g>
<g><line x1="152.374" y1="163.64" x2="154.711" y2="166.242" class="gray" /></g>
<g><line x1="157.424" y1="169.262" x2="159.762" y2="171.864" class="gray" /></g>
<g><line x1="162.475" y1="174.884" x2="164.813" y2="177.485" class="gray" /></g>
<g><line x1="167.526" y1="180.506" x2="169.863" y2="183.107" class="gray" /></g>
<g><line x1="172.577" y1="186.127" x2="174.914" y2="188.729" class="gray" /></g>
<g><line x1="177.628" y1="191.749" x2="179.965" y2="194.351" class="gray" /></g>
<g><line x1="182.679" y1="197.371" x2="185.016" y2="199.972" class="gray" /></g>
<g><line x1="187.729" y1="202.993" x2="190.067" y2="205.594" class="gray" /></g>
<g><line x1="192.78" y1="208.614" x2="195.118" y2="211.216" class="gray" /></g>
<g><line x1="197.831" y1="214.236" x2="200.168" y2="216.838" class="gray" /></g>
<g><line x1="202.882" y1="219.858" x2="205.219" y2="222.459" class="gray" /></g>
<g><line x1="207.933" y1="225.48" x2="210.27" y2="228.081" class="gray" /></g>
<g><line x1="212.984" y1="231.101" x2="215.321" y2="233.703" class="gray" /></g>
<g><line x1="218.034" y1="236.723" x2="220.372" y2="239.325" class="gray" /></g>
<g><line x1="223.085" y1="242.345" x2="225.423" y2="244.946" class="gray" /></g>
<g><line x1="228.136" y1="247.966" x2="230.474" y2="250.568" class="gray" /></g>
<g><line x1="233.187" y1="253.588" x2="235.524" y2="256.19" class="gray" /></g>
<g><line x1="238.238" y1="259.21" x2="240.575" y2="261.812" class="gray" /></g>
<g><line x1="243.289" y1="264.832" x2="245.626" y2="267.433" class="gray" /></g>
<g><line x1="248.339" y1="270.453" x2="250.677" y2="273.055" class="gray" /></g>
<g><line x1="253.39" y1="276.075" x2="255.728" y2="278.677" class="gray" /></g>
<g><line x1="258.441" y1="281.697" x2="260.779" y2="284.299" class="gray" /></g>
<g><line x1="263.492" y1="287.319" x2="265.829" y2="289.92" class="gray" /></g>
<g><line x1="268.543" y1="292.94" x2="270.88" y2="295.542" class="gray" /></g>
<g><line x1="273.594" y1="298.562" x2="275.931" y2="301.164" class="gray" /></g>
<g><line x1="278.644" y1="304.184" x2="280.982" y2="306.786" class="gray" /></g>
<g><line x1="283.695" y1="309.806" x2="286.033" y2="312.407" class="gray" /></g>
<g><line x1="288.746" y1="315.427" x2="291.084" y2="318.029" class="gray" /></g>
<g><line x1="293.797" y1="321.049" x2="296.134" y2="323.651" class="gray" /></g>
<g><line x1="298.848" y1="326.671" x2="301.185" y2="329.272" class="gray" /></g>
<g><line x1="303.899" y1="332.293" x2="306.236" y2="334.894" class="gray" /></g>
<g><line x1="308.95" y1="337.914" x2="311.287" y2="340.516" class="gray" /></g>
<g><line x1="314" y1="343.536" x2="316.338" y2="346.138" class="gray" /></g>
<g><line x1="319.051" y1="349.158" x2="321.389" y2="351.759" class="gray" /></g>
<g><line x1="324.102" y1="354.78" x2="326.439" y2="357.381" class="gray" /></g>
<g><line x1="329.153" y1="360.401" x2="331.49" y2="363.003" class="gray" /></g>
<g><line x1="334.204" y1="366.023" x2="336.541" y2="368.625" class="gray" /></g>
<g><line x1="339.255" y1="371.645" x2="341.592" y2="374.246" class="gray" /></g>
<g><line x1="344.305" y1="377.267" x2="346.643" y2="379.868" class="gray" /></g>
<g><line x1="349.356" y1="382.888" x2="351.694" y2="385.49" class="gray" /></g>
<g><line x1="354.407" y1="388.51" x2="356.745" y2="391.112" class="gray" /></g>
<g><line x1="359.458" y1="394.132" x2="361.795" y2="396.733" class="gray" /></g>
<g><line x1="364.509" y1="399.753" x2="366.846" y2="402.355" class="gray" /></g>
<g><line x1="369.56" y1="405.375" x2="371.897" y2="407.977" class="gray" /></g>
<g><line x1="374.61" y1="410.997" x2="376.948" y2="413.599" class="gray" /></g>
<g><line x1="379.661" y1="416.619" x2="381.999" y2="419.22" class="gray" /></g>
<g><line x1="384.712" y1="422.24" x2="387.05" y2="424.842" class="gray" /></g>
<g><line x1="389.763" y1="427.862" x2="392.1" y2="430.464" class="gray" /></g>
<g><line x1="394.814" y1="433.484" x2="397.151" y2="436.086" class="gray" /></g>
<g><line x1="399.865" y1="439.106" x2="402.202" y2="441.707" class="gray" /></g>
<g><line x1="404.915" y1="444.727" x2="407.253" y2="447.329" class="gray" /></g>
<g><line x1="409.966" y1="450.349" x2="412.304" y2="452.951" class="gray" /></g>
<g><line x1="415.017" y1="455.971" x2="417.355" y2="458.573" class="gray" /></g>
<g><line x1="420.068" y1="461.593" x2="422.405" y2="464.194" class="gray" /></g>
<g><line x1="425.119" y1="467.214" x2="427.456" y2="469.816" class="gray" /></g>
<g><line x1="430.17" y1="472.836" x2="432.507" y2="475.438" class="gray" /></g>
<g><line x1="435.221" y1="478.458" x2="437.558" y2="481.059" class="gray" /></g>
<g><line x1="440.271" y1="484.08" x2="442.609" y2="486.681" class="gray" /></g>
<g><line x1="445.322" y1="489.701" x2="447.66" y2="492.303" class="gray" /></g>
<g><line x1="450.373" y1="495.323" x2="452.71" y2="497.925" class="gray" /></g>
<g><line x1="454.067" y1="501.465" x2="454.067" y2="504.962" class="gray" /></g>
<g><line x1="454.067" y1="509.022" x2="454.067" y2="512.52" class="gray" /></g>
<g><line x1="454.067" y1="516.58" x2="454.067" y2="520.077" class="gray" /></g>
<g><line x1="454.067" y1="524.137" x2="454.067" y2="527.635" class="gray" /></g>
<g><line x1="454.067" y1="531.695" x2="454.067" y2="535.192" class="gray" /></g>
<g><line x1="454.067" y1="539.252" x2="454.067" y2="542.749" class="gray" /></g>
<g><line x1="454.067" y1="546.809" x2="454.067" y2="550.307" class="gray" /></g>
<g><line x1="454.067" y1="554.367" x2="454.067" y2="557.864" class="gray" /></g>
<g><line x1="454.105" y1="561.924" x2="454.171" y2="565.421" class="gray" /></g>
<g><line x1="454.248" y1="569.48" x2="454.314" y2="572.977" class="gray" /></g>
<g><line x1="454.39" y1="577.036" x2="454.456" y2="580.533" class="gray" /></g>
<g><line x1="454.533" y1="584.592" x2="454.599" y2="588.089" class="gray" /></g>
<g><line x1="454.675" y1="592.148" x2="454.741" y2="595.645" class="gray" /></g>
<g><line x1="456.81" y1="597.675" x2="460.307" y2="597.675" class="gray" /></g>
<g><line x1="464.367" y1="597.675" x2="467.864" y2="597.675" class="gray" /></g>
<g><line x1="471.924" y1="597.675" x2="475.422" y2="597.675" class="gray" /></g>
<g><line x1="479.482" y1="597.675" x2="482.979" y2="597.675" class="gray" /></g>
<g><line x1="487.039" y1="597.675" x2="490.537" y2="597.675" class="gray" /></g>
<g><line x1="494.597" y1="597.675" x2="498.094" y2="597.675" class="gray" /></g>
<g><line x1="502.154" y1="597.675" x2="505.652" y2="597.675" class="gray" /></g>
<g><line x1="509.712" y1="597.675" x2="513.209" y2="597.675" class="gray" /></g>
<g><line x1="517.269" y1="597.675" x2="520.767" y2="597.675" class="gray" /></g>
<g><line x1="524.827" y1="597.675" x2="528.324" y2="597.675" class="gray" /></g>
<g><line x1="532.384" y1="597.675" x2="535.881" y2="597.675" class="gray" /></g>
<g><line x1="539.941" y1="597.675" x2="543.439" y2="597.675" class="gray" /></g>
<g><line x1="547.499" y1="597.675" x2="550.996" y2="597.675" class="gray" /></g>
<g><line x1="555.056" y1="597.675" x2="558.554" y2="597.675" class="gray" /></g>
<g><line x1="562.614" y1="597.675" x2="566.111" y2="597.675" class="gray" /></g>
<g><line x1="570.171" y1="597.675" x2="573.669" y2="597.675" class="gray" /></g>
<g><line x1="577.729" y1="597.675" x2="581.226" y2="597.675" class="gray" /></g>
<g><line x1="584.663" y1="596.211" x2="587.086" y2="593.689" class="gray" /></g>
<g><line x1="588.436" y1="590.196" x2="588.338" y2="586.694" class="gray" /></g>
<g><line x1="588.338" y1="582.636" x2="588.436" y2="579.134" class="gray" /></g>
<g><line x1="588.492" y1="575.075" x2="588.492" y2="571.575" class="gray" /></g>
<g><line x1="588.492" y1="567.515" x2="588.492" y2="564.015" class="gray" /></g>
<g><line x1="588.492" y1="559.955" x2="588.492" y2="556.455" class="gray" /></g>
<g><line x1="588.492" y1="552.395" x2="588.492" y2="548.895" class="gray" /></g>
<g><line x1="588.473" y1="544.835" x2="588.442" y2="541.607" class="gray" /></g>
<g><line x1="588.414" y1="537.547" x2="588.399" y2="534.32" class="gray" /></g>
<g><line x1="588.391" y1="530.26" x2="588.392" y2="527.032" class="gray" /></g>
<g><line x1="588.403" y1="522.972" x2="588.42" y2="519.744" class="gray" /></g>
<g><line x1="588.451" y1="515.684" x2="588.484" y2="512.456" class="gray" /></g>
<g><line x1="588.535" y1="508.397" x2="588.584" y2="505.169" class="gray" /></g>
<g><line x1="588.655" y1="501.11" x2="588.72" y2="497.883" class="gray" /></g>
<g><line x1="588.648" y1="493.826" x2="588.453" y2="490.32" class="gray" /></g>
<g><line x1="588.397" y1="486.264" x2="588.494" y2="482.762" class="gray" /></g>
<g><line x1="588.607" y1="478.704" x2="588.704" y2="475.202" class="gray" /></g>
<g><line x1="588.648" y1="471.146" x2="588.453" y2="467.64" class="gray" /></g>
<g><line x1="588.397" y1="463.584" x2="588.494" y2="460.082" class="gray" /></g>
<g><line x1="588.607" y1="456.024" x2="588.704" y2="452.522" class="gray" /></g>
<g><line x1="588.76" y1="448.463" x2="588.76" y2="444.963" class="gray" /></g>
<g><line x1="588.648" y1="440.906" x2="588.453" y2="437.4" class="gray" /></g>
<g><line x1="588.453" y1="433.346" x2="588.648" y2="429.84" class="gray" /></g>
<g><line x1="586.739" y1="427.626" x2="583.324" y2="427.309" class="gray" /></g>
<g><line x1="579.3" y1="426.792" x2="575.916" y2="426.234" class="gray" /></g>
<g><line x1="571.938" y1="425.433" x2="568.603" y2="424.637" class="gray" /></g>
<g><line x1="564.692" y1="423.556" x2="561.421" y2="422.525" class="gray" /></g>
<g><line x1="557.596" y1="421.17" x2="554.407" y2="419.91" class="gray" /></g>
<g><line x1="550.688" y1="418.287" x2="547.595" y2="416.805" class="gray" /></g>
<g><line x1="544.001" y1="414.922" x2="541.021" y2="413.225" class="gray" /></g>
<g><line x1="537.569" y1="411.092" x2="534.717" y2="409.188" class="gray" /></g>
<g><line x1="531.425" y1="406.816" x2="528.715" y2="404.714" class="gray" /></g>
<g><line x1="525.599" y1="402.116" x2="523.045" y2="399.827" class="gray" /></g>
<g><line x1="520.121" y1="397.014" x2="517.736" y2="394.55" class="gray" /></g>
<g><line x1="515.018" y1="391.537" x2="512.813" y2="388.91" class="gray" /></g>
<g><line x1="510.316" y1="385.712" x2="508.303" y2="382.936" class="gray" /></g>
<g><line x1="506.039" y1="379.569" x2="504.227" y2="376.657" class="gray" /></g>
<g><line x1="502.208" y1="373.138" x2="500.607" y2="370.105" class="gray" /></g>
<g><line x1="498.841" y1="366.452" x2="497.46" y2="363.313" class="gray" /></g>
<g><line x1="495.957" y1="359.544" x2="494.801" y2="356.315" class="gray" /></g>
<g><line x1="493.57" y1="352.449" x2="492.646" y2="349.146" class="gray" /></g>
<g><line x1="491.692" y1="345.203" x2="491.004" y2="341.843" class="gray" /></g>
<g><line x1="490.331" y1="337.842" x2="489.883" y2="334.442" class="gray" /></g>
<g><line x1="489.495" y1="330.403" x2="489.289" y2="326.979" class="gray" /></g>
<g><line x1="489.189" y1="322.923" x2="489.226" y2="319.494" class="gray" /></g>
<g><line x1="489.413" y1="315.441" x2="489.693" y2="312.023" class="gray" /></g>
<g><line x1="490.167" y1="307.993" x2="490.689" y2="304.604" class="gray" /></g>
<g><line x1="491.447" y1="300.618" x2="492.207" y2="297.273" class="gray" /></g>
<g><line x1="493.246" y1="293.351" x2="494.241" y2="290.069" class="gray" /></g>
<g><line x1="495.555" y1="286.231" x2="496.781" y2="283.027" class="gray" /></g>
<g><line x1="498.363" y1="279.292" x2="499.812" y2="276.183" class="gray" /></g>
<g><line x1="501.656" y1="272.569" x2="503.322" y2="269.571" class="gray" /></g>
<g><line x1="505.417" y1="266.096" x2="507.291" y2="263.224" class="gray" /></g>
<g><line x1="509.627" y1="259.906" x2="511.699" y2="257.174" class="gray" /></g>
<g><line x1="514.264" y1="254.03" x2="516.525" y2="251.452" class="gray" /></g>
<g><line x1="519.307" y1="248.498" x2="521.745" y2="246.086" class="gray" /></g>
<g><line x1="524.729" y1="243.336" x2="527.331" y2="241.103" class="gray" /></g>
<g><line x1="530.503" y1="238.572" x2="533.257" y2="236.529" class="gray" /></g>
<g><line x1="536.599" y1="234.229" x2="539.492" y2="232.386" class="gray" /></g>
<g><line x1="542.989" y1="230.328" x2="546.004" y2="228.695" class="gray" /></g>
<g><line x1="549.638" y1="226.89" x2="552.762" y2="225.475" class="gray" /></g>
<g><line x1="556.515" y1="223.932" x2="559.731" y2="222.742" class="gray" /></g>
<g><line x1="563.584" y1="221.469" x2="566.876" y2="220.509" class="gray" /></g>
<g><line x1="570.809" y1="219.512" x2="574.161" y2="218.788" class="gray" /></g>
<g><line x1="578.155" y1="218.073" x2="581.55" y2="217.588" class="gray" /></g>
<g><line x1="585.585" y1="217.157" x2="589.006" y2="216.914" class="gray" /></g>
<g><line x1="593.06" y1="216.77" x2="596.49" y2="216.77" class="gray" /></g>
<g><line x1="600.545" y1="216.914" x2="603.966" y2="217.157" class="gray" /></g>
<g><line x1="608" y1="217.588" x2="611.395" y2="218.073" class="gray" /></g>
<g><line x1="615.389" y1="218.788" x2="618.741" y2="219.512" class="gray" /></g>
<g><line x1="622.674" y1="220.509" x2="625.967" y2="221.469" class="gray" /></g>
<g><line x1="629.819" y1="222.742" x2="633.036" y2="223.932" class="gray" /></g>
<g><line x1="636.788" y1="225.475" x2="639.912" y2="226.89" class="gray" /></g>
<g><line x1="643.546" y1="228.695" x2="646.562" y2="230.328" class="gray" /></g>
<g><line x1="650.059" y1="232.386" x2="652.951" y2="234.229" class="gray" /></g>
<g><line x1="656.293" y1="236.529" x2="659.048" y2="238.572" class="gray" /></g>
<g><line x1="662.219" y1="241.103" x2="664.822" y2="243.336" class="gray" /></g>
<g><line x1="667.805" y1="246.086" x2="670.243" y2="248.498" class="gray" /></g>
<g><line x1="673.025" y1="251.452" x2="675.286" y2="254.03" class="gray" /></g>
<g><line x1="677.851" y1="257.174" x2="679.924" y2="259.906" class="gray" /></g>
<g><line x1="682.26" y1="263.224" x2="684.134" y2="266.096" class="gray" /></g>
<g><line x1="686.229" y1="269.571" x2="687.894" y2="272.569" class="gray" /></g>
<g><line x1="689.738" y1="276.183" x2="691.187" y2="279.292" class="gray" /></g>
<g><line x1="692.77" y1="283.027" x2="693.995" y2="286.231" class="gray" /></g>
<g><line x1="695.309" y1="290.069" x2="696.304" y2="293.351" class="gray" /></g>
<g><line x1="697.343" y1="297.273" x2="698.103" y2="300.618" class="gray" /></g>
<g><line x1="698.862" y1="304.604" x2="699.383" y2="307.993" class="gray" /></g>
<g><line x1="699.857" y1="312.023" x2="700.137" y2="315.441" class="gray" /></g>
<g><line x1="700.324" y1="319.494" x2="700.361" y2="322.923" class="gray" /></g>
<g><line x1="700.261" y1="326.979" x2="700.055" y2="330.403" class="gray" /></g>
<g><line x1="699.668" y1="334.442" x2="699.219" y2="337.842" class="gray" /></g>
<g><line x1="698.547" y1="341.843" x2="697.859" y2="345.203" class="gray" /></g>
<g><line x1="696.905" y1="349.146" x2="695.98" y2="352.449" class="gray" /></g>
<g><line x1="694.749" y1="356.315" x2="693.593" y2="359.544" class="gray" /></g>
<g><line x1="692.091" y1="363.313" x2="690.709" y2="366.452" class="gray" /></g>
<g><line x1="688.943" y1="370.105" x2="687.343" y2="373.138" class="gray" /></g>
<g><line x1="685.323" y1="376.657" x2="683.511" y2="379.569" class="gray" /></g>
<g><line x1="681.247" y1="382.936" x2="679.234" y2="385.712" class="gray" /></g>
<g><line x1="676.737" y1="388.91" x2="674.532" y2="391.537" class="gray" /></g>
<g><line x1="671.815" y1="394.55" x2="669.429" y2="397.014" class="gray" /></g>
<g><line x1="666.505" y1="399.827" x2="663.951" y2="402.116" class="gray" /></g>
<g><line x1="660.835" y1="404.714" x2="658.125" y2="406.816" class="gray" /></g>
<g><line x1="654.833" y1="409.188" x2="651.981" y2="411.092" class="gray" /></g>
<g><line x1="648.529" y1="413.225" x2="645.549" y2="414.922" class="gray" /></g>
<g><line x1="641.955" y1="416.805" x2="638.862" y2="418.287" class="gray" /></g>
<g><line x1="635.144" y1="419.91" x2="631.954" y2="421.17" class="gray" /></g>
<g><line x1="628.13" y1="422.525" x2="624.859" y2="423.556" class="gray" /></g>
<g><line x1="620.948" y1="424.637" x2="617.612" y2="425.433" class="gray" /></g>
<g><line x1="613.634" y1="426.234" x2="610.251" y2="426.792" class="gray" /></g>
<g><line x1="606.226" y1="427.309" x2="602.812" y2="427.626" class="gray" /></g>
<g><line x1="600.79" y1="429.843" x2="600.79" y2="433.343" class="gray" /></g>
<g><line x1="602.226" y1="436.808" x2="603.135" y2="437.718" class="gray" /></g>
<g><line x1="603.135" y1="440.588" x2="602.226" y2="441.498" class="gray" /></g>
<g><line x1="600.79" y1="444.963" x2="600.79" y2="448.463" class="gray" /></g>
<g><line x1="600.734" y1="452.522" x2="600.637" y2="456.024" class="gray" /></g>
<g><line x1="600.637" y1="460.082" x2="600.734" y2="463.584" class="gray" /></g>
<g><line x1="600.79" y1="467.643" x2="600.79" y2="471.143" class="gray" /></g>
<g><line x1="602.562" y1="474.164" x2="605.778" y2="475.962" class="gray" /></g>
<g><line x1="605.766" y1="477.921" x2="602.365" y2="479.765" class="gray" /></g>
<g><line x1="600.637" y1="482.762" x2="600.734" y2="486.264" class="gray" /></g>
<g><line x1="600.79" y1="490.323" x2="600.79" y2="493.823" class="gray" /></g>
<g><line x1="602.644" y1="496.68" x2="605.158" y2="497.802" class="gray" /></g>
<g><line x1="608.594" y1="499.9" x2="610.741" y2="501.624" class="gray" /></g>
<g><line x1="613.531" y1="504.527" x2="615.169" y2="506.74" class="gray" /></g>
<g><line x1="617.13" y1="510.257" x2="618.151" y2="512.813" class="gray" /></g>
<g><line x1="619.154" y1="516.713" x2="619.493" y2="519.445" class="gray" /></g>
<g><line x1="619.471" y1="523.471" x2="619.104" y2="526.199" class="gray" /></g>
<g><line x1="618.06" y1="530.088" x2="617.012" y2="532.634" class="gray" /></g>
<g><line x1="615.014" y1="536.13" x2="613.353" y2="538.325" class="gray" /></g>
<g><line x1="610.533" y1="541.199" x2="608.368" y2="542.9" class="gray" /></g>
<g><line x1="604.91" y1="544.962" x2="602.384" y2="546.057" class="gray" /></g>
<g><line x1="600.522" y1="548.895" x2="600.522" y2="552.395" class="gray" /></g>
<g><line x1="600.635" y1="556.452" x2="600.829" y2="559.958" class="gray" /></g>
<g><line x1="600.829" y1="564.012" x2="600.635" y2="567.518" class="gray" /></g>
<g><line x1="600.522" y1="571.575" x2="600.522" y2="575.075" class="gray" /></g>
<g><line x1="600.578" y1="579.134" x2="600.676" y2="582.636" class="gray" /></g>
<g><line x1="600.788" y1="586.694" x2="600.886" y2="590.196" class="gray" /></g>
<g><line x1="602.348" y1="593.689" x2="604.772" y2="596.211" class="gray" /></g>
<g><line x1="608.208" y1="597.675" x2="611.705" y2="597.675" class="gray" /></g>
<g><line x1="615.765" y1="597.675" x2="619.263" y2="597.675" class="gray" /></g>
<g><line x1="623.323" y1="597.675" x2="626.82" y2="597.675" class="gray" /></g>
<g><line x1="630.88" y1="597.675" x2="634.378" y2="597.675" class="gray" /></g>
<g><line x1="638.438" y1="597.675" x2="641.935" y2="597.675" class="gray" /></g>
</svg>
