<svg
	xmlns="http://www.w3.org/2000/svg"
	width="229.106"
	height="209.22"
	style="font-size: 3.048045px; font-weight: bold; font-family: Helvetica; " >
<g><style type="text/css" >
<!-- create color definitions -->
<![CDATA[
text.red {fill: rgb(255, 0, 255); }
text.green {fill: rgb(0, 255, 0); }
text.blue {fill: rgb(0, 0, 255); }
text.black {fill: rgb(0, 0, 0); }
text.gray {fill: rgb(204, 204, 204); }
text.brown {fill: rgb(211.65, 104.55, 30.6); }
text {fill: rgb(0, 0, 0); text-anchor: middle; alignment-baseline: middle; }
circle.red {stroke: rgb(255, 0, 255); fill: none; }
circle.green {stroke: rgb(0, 255, 0); fill: none; }
circle.blue {stroke: rgb(0, 0, 255); fill: none; }
circle.black {stroke: rgb(0, 0, 0); fill: none; }
circle.gray {stroke: rgb(204, 204, 204); fill: none; }
circle.brown {stroke: rgb(211.65, 104.55, 30.6); fill: none; }
circle {stroke: rgb(0, 0, 0); }
line.red {stroke: rgb(255, 0, 255); stroke-width: 0.381006; }
line.green {stroke: rgb(0, 255, 0); stroke-width: 0.381006; }
line.blue {stroke: rgb(0, 0, 255); stroke-width: 0.381006; }
line.black {stroke: rgb(0, 0, 0); stroke-width: 0.381006; }
line.gray {stroke: rgb(204, 204, 204); stroke-width: 0.381006; }
line.brown {stroke: rgb(211.65, 104.55, 30.6); stroke-width: 0.381006; }
line {stroke: rgb(0, 0, 0); }
text.numbering-label {fill: rgb(204, 204, 204);}
line.numbering-line {stroke: rgb(204, 204, 204); stroke-width: 0.190503;}
line.predicted {stroke: rgb(0, 0, 0); stroke-dasharray: 2}
text.background {fill: rgb(255, 255, 255);
.template {visibility:hidden}
]]>
</style></g>
<g><title>0 (position.label in template: 0.5')</title><text x="108.134" y="49.9432" class="green" >5'</text></g>
<g><title>1 (position.label in template: 6.Y)</title><text x="107.925" y="57.4508" class="green" >G</text></g>
<g><line x1="109.957" y1="57.146" x2="117.923" y2="57.146" class="black" /></g>
<g><title>2 (position.label in template: 7.R)</title><text x="107.715" y="65.0108" class="green" >G</text></g>
<g><line x1="109.747" y1="64.6716" x2="118.073" y2="64.5304" class="black" /></g>
<g><title>3 (position.label in template: 8.U)</title><text x="100.895" y="68.2708" class="black" >U</text></g>
<g><title>4 (position.label in template: 9.R)</title><text x="95.5451" y="73.6208" class="green" >A</text></g>
<g><title>5 (position.label in template: 10.G)</title><text x="92.0751" y="80.4408" class="green" >G</text></g>
<g><line x1="92.11" y1="82.1677" x2="92.2503" y2="90.3443" class="black" /></g>
<g><title>6 (position.label in template: 11.C)</title><text x="84.7251" y="80.4408" class="black" >C</text></g>
<g><line x1="84.6903" y1="82.1677" x2="84.55" y2="90.3443" class="black" /></g>
<g><title>7 (position.label in template: 12.U)</title><text x="77.1651" y="80.4408" class="black" >U</text></g>
<g><line x1="77.2" y1="82.1677" x2="77.3403" y2="90.3443" class="black" /></g>
<g><title>8 (position.label in template: 13.Y)</title><text x="69.8151" y="80.4408" class="green" >C</text></g>
<g><line x1="69.7803" y1="82.1677" x2="69.64" y2="90.3443" class="black" /></g>
<g><title>9 (position.label in template: 14.A)</title><text x="64.5206" y="76.26" class="blue" >A</text></g>
<g><title>10 (position.label in template: 15.G)</title><text x="57.7781" y="76.0339" class="blue" >G</text></g>
<g><title>10 (inserted)</title><text x="55.8571" y="69.4503" class="numbering-label sequential" >10</text></g>
<g><line x1="57.2659" y1="74.2782" x2="56.3018" y2="70.9743" class="numbering-line sequential" /></g>
<g><title>11 (position.label in template: 16.U)</title><text x="52.2153" y="79.8505" class="blue" >U</text></g>
<g><title>12 (position.label in template: 17.G)</title><text x="50" y="86.2227" class="blue" >G</text></g>
<g><title>13 (position.label in template: 18.G)</title><text x="51.9954" y="92.667" class="blue" >G</text></g>
<g><title>14 (position.label in template: 19.U)</title><text x="57.424" y="96.6723" class="blue" >U</text></g>
<g><title>15 (position.label in template: 20.N)</title><text x="64.1703" y="96.6776" class="green" >A</text></g>
<g><title>16 (position.label in template: 22.R)</title><text x="69.6051" y="92.6808" class="green" >G</text></g>
<g><title>17 (position.label in template: 23.A)</title><text x="77.3751" y="92.6808" class="black" >A</text></g>
<g><title>18 (position.label in template: 24.G)</title><text x="84.5151" y="92.6808" class="black" >G</text></g>
<g><title>19 (position.label in template: 25.C)</title><text x="92.2851" y="92.6808" class="green" >U</text></g>
<g><title>20 (position.label in template: 26.R)</title><text x="95.4022" y="102.337" class="green" >G</text></g>
<g><title>20 (inserted)</title><text x="88.883" y="104.466" class="numbering-label sequential" >20</text></g>
<g><line x1="93.6637" y1="102.904" x2="90.7118" y2="103.868" class="numbering-line sequential" /></g>
<g><title>21 (position.label in template: 28.Y)</title><text x="98.5851" y="111.971" class="green" >C</text></g>
<g><line x1="100.498" y1="112.352" x2="108.013" y2="115.05" class="black" /></g>
<g><title>22 (inserted)</title><text x="95.924" y="116.61" class="red" >U</text></g>
<g><title>23 (position.label in template: 29.N)</title><text x="94.9519" y="121.87" class="green" >U</text></g>
<g><line x1="96.8682" y1="122.241" x2="104.576" y2="124.959" class="black" /></g>
<g><title>24 (position.label in template: 30.N)</title><text x="92.4419" y="129" class="green" >G</text></g>
<g><line x1="94.3582" y1="129.371" x2="102.066" y2="132.089" class="black" /></g>
<g><title>25 (position.label in template: 31.N)</title><text x="89.9219" y="136.13" class="green" >C</text></g>
<g><line x1="91.8382" y1="136.501" x2="99.5455" y2="139.219" class="black" /></g>
<g><title>26 (position.label in template: 32.C)</title><text x="83.2419" y="140.15" class="black" >C</text></g>
<g><title>27 (position.label in template: 33.U)</title><text x="80.3519" y="147.14" class="black" >U</text></g>
<g><title>28 (position.label in template: 34.N)</title><text x="82.4219" y="154.24" class="green" >U</text></g>
<g><title>29 (position.label in template: 35.G)</title><text x="88.0219" y="159.11" class="black" >G</text></g>
<g><title>30 (position.label in template: 36.U)</title><text x="95.7919" y="159.22" class="black" >U</text></g>
<g><title>30 (inserted)</title><text x="97.8316" y="165.767" class="numbering-label sequential" >30</text></g>
<g><line x1="96.3358" y1="160.966" x2="97.3569" y2="164.243" class="numbering-line sequential" /></g>
<g><title>31 (position.label in template: 37.A)</title><text x="102.082" y="154.73" class="green" >G</text></g>
<g><title>32 (position.label in template: 38.A)</title><text x="104.212" y="147.47" class="green" >U</text></g>
<g><title>33 (position.label in template: 39.N)</title><text x="101.462" y="140.2" class="green" >G</text></g>
<g><title>34 (position.label in template: 40.N)</title><text x="103.982" y="133.07" class="green" >C</text></g>
<g><title>35 (position.label in template: 41.N)</title><text x="106.492" y="125.94" class="green" >A</text></g>
<g><title>36 (inserted)</title><text x="109.048" y="121.281" class="red" >U</text></g>
<g><title>37 (position.label in template: 42.R)</title><text x="109.925" y="116.041" class="green" >G</text></g>
<g><title>38 (position.label in template: 44.A)</title><text x="115.51" y="112.092" class="blue" >A</text></g>
<g><title>39 (position.label in template: 45.G)</title><text x="120.24" y="107.151" class="blue" >G</text></g>
<g><title>40 (position.label in template: 46.R)</title><text x="123.942" y="101.4" class="green" >G</text></g>
<g><title>41 (position.label in template: 47.U)</title><text x="126.482" y="95.049" class="green" >C</text></g>
<g><title>42 (position.label in template: 48.C)</title><text x="127.765" y="88.3306" class="blue" >C</text></g>
<g><title>43 (position.label in template: 49.N)</title><text x="127.745" y="81.4908" class="green" >C</text></g>
<g><line x1="127.609" y1="79.1585" x2="127.061" y2="71.0035" class="black" /></g>
<g><title>44 (position.label in template: 50.Y)</title><text x="135.215" y="81.1908" class="green" >U</text></g>
<g><line x1="135.053" y1="78.8605" x2="134.388" y2="70.5815" class="black" /></g>
<g><title>45 (position.label in template: 51.N)</title><text x="142.825" y="80.4808" class="green" >G</text></g>
<g><line x1="142.689" y1="78.1485" x2="142.141" y2="69.9935" class="black" /></g>
<g><title>46 (position.label in template: 52.R)</title><text x="150.135" y="80.0508" class="green" >G</text></g>
<g><line x1="150.026" y1="77.7169" x2="149.594" y2="69.6851" class="black" /></g>
<g><title>47 (position.label in template: 53.G)</title><text x="157.505" y="79.4308" class="black" >G</text></g>
<g><line x1="157.396" y1="77.0969" x2="156.964" y2="69.0551" class="black" /></g>
<g><title>48 (position.label in template: 54.U)</title><text x="162.756" y="83.8166" class="blue" >U</text></g>
<g><title>49 (position.label in template: 55.U)</title><text x="169.551" y="84.6071" class="blue" >U</text></g>
<g><title>50 (position.label in template: 56.C)</title><text x="175.668" y="81.5437" class="blue" >C</text></g>
<g><title>50 (inserted)</title><text x="180.365" y="86.5414" class="numbering-label sequential" >50</text></g>
<g><line x1="176.921" y1="82.8764" x2="178.933" y2="85.0174" class="numbering-line sequential" /></g>
<g><title>51 (position.label in template: 57.R)</title><text x="179.106" y="75.6286" class="green" >A</text></g>
<g><title>52 (position.label in template: 58.A)</title><text x="178.739" y="68.7971" class="blue" >A</text></g>
<g><title>53 (position.label in template: 59.N)</title><text x="174.688" y="63.2843" class="green" >U</text></g>
<g><title>54 (position.label in template: 60.U)</title><text x="168.277" y="60.8938" class="blue" >U</text></g>
<g><title>55 (inserted)</title><text x="161.606" y="62.4078" class="red" >C</text></g>
<g><title>56 (position.label in template: 61.C)</title><text x="156.855" y="67.3308" class="black" >C</text></g>
<g><title>57 (position.label in template: 62.Y)</title><text x="149.485" y="67.9608" class="green" >U</text></g>
<g><title>58 (position.label in template: 63.N)</title><text x="142.005" y="68.2708" class="green" >C</text></g>
<g><title>59 (position.label in template: 64.R)</title><text x="134.225" y="68.8608" class="green" >A</text></g>
<g><title>60 (position.label in template: 65.N)</title><text x="126.925" y="69.2808" class="green" >G</text></g>
<g><title>61 (inserted)</title><text x="129.842" y="63.3932" class="red" >U</text></g>
<g><title>62 (inserted)</title><text x="124.35" y="59.7857" class="red" >A</text></g>
<g><title>63 (position.label in template: 66.N)</title><text x="120.105" y="64.8008" class="green" >C</text></g>
<g><title>64 (position.label in template: 67.R)</title><text x="119.955" y="57.4508" class="green" >C</text></g>
<g><title>65 (position.label in template: 73.N)</title><text x="120.9" y="50" class="green" >A</text></g>
<g><title>66 (position.label in template: 74.3')</title><text x="118.403" y="42.9168" class="green" >3'</text></g>
<g><line x1="108.077" y1="51.6696" x2="107.982" y2="55.1148" class="gray" /></g>
<g><line x1="107.869" y1="59.1773" x2="107.772" y2="62.6748" class="gray" /></g>
<g><line x1="105.882" y1="65.5824" x2="102.728" y2="67.0897" class="gray" /></g>
<g><line x1="99.4583" y1="69.4029" x2="96.982" y2="71.8791" class="gray" /></g>
<g><line x1="94.6237" y1="75.1271" x2="92.9966" y2="78.3249" class="gray" /></g>
<g><line x1="90.0431" y1="80.136" x2="86.7572" y2="80.136" class="gray" /></g>
<g><line x1="82.6931" y1="80.136" x2="79.1972" y2="80.136" class="gray" /></g>
<g><line x1="75.1331" y1="80.136" x2="71.8472" y2="80.136" class="gray" /></g>
<g><line x1="68.2204" y1="78.8767" x2="66.1153" y2="77.2145" class="gray" /></g>
<g><line x1="62.4897" y1="75.8871" x2="59.809" y2="75.7972" class="gray" /></g>
<g><line x1="56.1026" y1="76.8787" x2="53.8909" y2="78.3961" class="gray" /></g>
<g><line x1="51.5481" y1="81.4651" x2="50.6673" y2="83.9985" class="gray" /></g>
<g><line x1="50.601" y1="87.859" x2="51.3944" y2="90.4211" class="gray" /></g>
<g><line x1="53.6306" y1="93.5686" x2="55.7889" y2="95.161" class="gray" /></g>
<g><line x1="59.4561" y1="96.3691" x2="62.1382" y2="96.3712" class="gray" /></g>
<g><line x1="65.8073" y1="95.1689" x2="67.9681" y2="93.5799" class="gray" /></g>
<g><line x1="71.6372" y1="92.376" x2="75.3431" y2="92.376" class="gray" /></g>
<g><line x1="79.4072" y1="92.376" x2="82.4831" y2="92.376" class="gray" /></g>
<g><line x1="86.5472" y1="92.376" x2="90.2531" y2="92.376" class="gray" /></g>
<g><line x1="92.9094" y1="94.3098" x2="94.7779" y2="100.098" class="gray" /></g>
<g><line x1="96.0396" y1="103.961" x2="97.9477" y2="109.737" class="gray" /></g>
<g><line x1="97.5741" y1="113.429" x2="96.935" y2="114.543" class="gray" /></g>
<g><line x1="95.5547" y1="118.304" x2="95.3212" y2="119.567" class="gray" /></g>
<g><line x1="94.2771" y1="123.482" x2="93.1166" y2="126.778" class="gray" /></g>
<g><line x1="91.7647" y1="130.611" x2="90.599" y2="133.909" class="gray" /></g>
<g><line x1="88.1808" y1="136.873" x2="84.983" y2="138.797" class="gray" /></g>
<g><line x1="82.4655" y1="141.723" x2="81.1283" y2="144.957" class="gray" /></g>
<g><line x1="80.9206" y1="148.786" x2="81.8531" y2="151.984" class="gray" /></g>
<g><line x1="83.9552" y1="155.268" x2="86.4886" y2="157.471" class="gray" /></g>
<g><line x1="90.0537" y1="158.834" x2="93.7601" y2="158.886" class="gray" /></g>
<g><line x1="97.4458" y1="157.734" x2="100.428" y2="155.605" class="gray" /></g>
<g><line x1="102.654" y1="152.475" x2="103.64" y2="149.115" class="gray" /></g>
<g><line x1="103.493" y1="145.264" x2="102.181" y2="141.795" class="gray" /></g>
<g><line x1="102.139" y1="137.979" x2="103.305" y2="134.681" class="gray" /></g>
<g><line x1="104.657" y1="130.848" x2="105.817" y2="127.552" class="gray" /></g>
<g><line x1="107.469" y1="123.853" x2="108.07" y2="122.758" class="gray" /></g>
<g><line x1="109.383" y1="118.972" x2="109.59" y2="117.74" class="gray" /></g>
<g><line x1="111.584" y1="114.563" x2="113.851" y2="112.96" class="gray" /></g>
<g><line x1="116.915" y1="110.319" x2="118.835" y2="108.314" class="gray" /></g>
<g><line x1="121.34" y1="105.138" x2="122.842" y2="102.804" class="gray" /></g>
<g><line x1="124.697" y1="99.2084" x2="125.727" y2="96.631" class="gray" /></g>
<g><line x1="126.863" y1="92.7483" x2="127.384" y2="90.0218" class="gray" /></g>
<g><line x1="127.759" y1="85.9938" x2="127.751" y2="83.218" class="gray" /></g>
<g><line x1="129.776" y1="81.1045" x2="133.185" y2="80.9676" class="gray" /></g>
<g><line x1="137.238" y1="80.6972" x2="140.802" y2="80.3648" class="gray" /></g>
<g><line x1="144.854" y1="80.0567" x2="148.107" y2="79.8653" class="gray" /></g>
<g><line x1="152.16" y1="79.5757" x2="155.48" y2="79.2964" class="gray" /></g>
<g><line x1="159.065" y1="80.4287" x2="161.196" y2="82.2091" class="gray" /></g>
<g><line x1="164.774" y1="83.7466" x2="167.533" y2="84.0675" class="gray" /></g>
<g><line x1="171.368" y1="83.3924" x2="173.851" y2="82.1488" class="gray" /></g>
<g><line x1="176.689" y1="79.482" x2="178.085" y2="77.0807" class="gray" /></g>
<g><line x1="178.997" y1="73.2947" x2="178.848" y2="70.5214" class="gray" /></g>
<g><line x1="177.535" y1="66.8549" x2="175.891" y2="64.6169" class="gray" /></g>
<g><line x1="172.784" y1="62.2695" x2="170.181" y2="61.299" class="gray" /></g>
<g><line x1="166.296" y1="61.0387" x2="163.587" y2="61.6533" class="gray" /></g>
<g><line x1="160.195" y1="63.5652" x2="158.266" y2="65.5638" class="gray" /></g>
<g><line x1="154.83" y1="67.1991" x2="151.51" y2="67.4829" class="gray" /></g>
<g><line x1="147.455" y1="67.7402" x2="144.035" y2="67.8819" class="gray" /></g>
<g><line x1="139.979" y1="68.1197" x2="136.251" y2="68.4024" class="gray" /></g>
<g><line x1="132.196" y1="68.6727" x2="128.954" y2="68.8593" class="gray" /></g>
<g><line x1="127.827" y1="67.1552" x2="128.94" y2="64.9092" class="gray" /></g>
<g><line x1="128.144" y1="61.9727" x2="126.049" y2="60.5966" class="gray" /></g>
<g><line x1="123.037" y1="61.0319" x2="121.418" y2="62.945" class="gray" /></g>
<g><line x1="120.064" y1="62.4644" x2="119.997" y2="59.1776" class="gray" /></g>
<g><line x1="120.211" y1="55.1301" x2="120.645" y2="51.7111" class="gray" /></g>
<g><line x1="120.225" y1="47.7788" x2="119.079" y2="44.5284" class="gray" /></g>
</svg>
