<svg
	xmlns="http://www.w3.org/2000/svg"
	width="274.933"
	height="243.311"
	style="font-size: 3.060353px; font-weight: bold; font-family: Helvetica; " >
<g><style type="text/css" >
<!-- create color definitions -->
<![CDATA[
text.red {fill: rgb(255, 0, 255); }
text.green {fill: rgb(0, 255, 0); }
text.blue {fill: rgb(0, 0, 255); }
text.black {fill: rgb(0, 0, 0); }
text.gray {fill: rgb(204, 204, 204); }
text.brown {fill: rgb(211.65, 104.55, 30.6); }
text {fill: rgb(0, 0, 0); text-anchor: middle; alignment-baseline: middle; }
circle.red {stroke: rgb(255, 0, 255); fill: none; }
circle.green {stroke: rgb(0, 255, 0); fill: none; }
circle.blue {stroke: rgb(0, 0, 255); fill: none; }
circle.black {stroke: rgb(0, 0, 0); fill: none; }
circle.gray {stroke: rgb(204, 204, 204); fill: none; }
circle.brown {stroke: rgb(211.65, 104.55, 30.6); fill: none; }
circle {stroke: rgb(0, 0, 0); }
line.red {stroke: rgb(255, 0, 255); stroke-width: 0.382544; }
line.green {stroke: rgb(0, 255, 0); stroke-width: 0.382544; }
line.blue {stroke: rgb(0, 0, 255); stroke-width: 0.382544; }
line.black {stroke: rgb(0, 0, 0); stroke-width: 0.382544; }
line.gray {stroke: rgb(204, 204, 204); stroke-width: 0.382544; }
line.brown {stroke: rgb(211.65, 104.55, 30.6); stroke-width: 0.382544; }
line {stroke: rgb(0, 0, 0); }
text.numbering-label {fill: rgb(204, 204, 204);}
line.numbering-line {stroke: rgb(204, 204, 204); stroke-width: 0.191272;}
line.predicted {stroke: rgb(0, 0, 0); stroke-dasharray: 2}
text.background {fill: rgb(255, 255, 255);
.template {visibility:hidden}
]]>
</style></g>
<g><title>0 (position.label in template: 0.5')</title><text x="53.8392" y="121.7" class="green" >5'</text></g>
<g><title>1 (position.label in template: 14.G)</title><text x="54.05" y="114.11" class="green" >G</text></g>
<g><line x1="56.0902" y1="113.804" x2="64.6698" y2="113.804" class="black" /></g>
<g><title>2 (position.label in template: 15.U)</title><text x="54.26" y="106.55" class="green" >U</text></g>
<g><line x1="56.3002" y1="106.244" x2="64.4598" y2="106.244" class="black" /></g>
<g><title>3 (position.label in template: 16.C)</title><text x="54.26" y="98.99" class="black" >C</text></g>
<g><line x1="56.3002" y1="98.684" x2="64.2498" y2="98.684" class="black" /></g>
<g><title>4 (position.label in template: 17.G)</title><text x="54.05" y="91.43" class="black" >G</text></g>
<g><line x1="56.0902" y1="91.124" x2="64.4598" y2="91.124" class="black" /></g>
<g><title>5 (position.label in template: 18.C)</title><text x="54.26" y="83.87" class="black" >C</text></g>
<g><line x1="56.3002" y1="83.564" x2="64.2498" y2="83.564" class="black" /></g>
<g><title>6 (position.label in template: 19.Y)</title><text x="54.47" y="76.31" class="green" >U</text></g>
<g><line x1="56.5102" y1="76.004" x2="64.4598" y2="76.004" class="black" /></g>
<g><title>7 (position.label in template: 20.G)</title><text x="54.05" y="68.75" class="black" >G</text></g>
<g><line x1="56.0902" y1="68.444" x2="64.4598" y2="68.444" class="black" /></g>
<g><title>8 (position.label in template: 21.C)</title><text x="50" y="62.51" class="black" >C</text></g>
<g><title>9 (position.label in template: 22.N)</title><text x="51.08" y="55.22" class="green" >A</text></g>
<g><title>10 (position.label in template: 23.A)</title><text x="56.81" y="50" class="black" >A</text></g>
<g><title>10 (inserted)</title><text x="54.2926" y="43.5909" class="numbering-label sequential" >10</text></g>
<g><line x1="56.1387" y1="48.2909" x2="54.8937" y2="45.121" class="numbering-line sequential" /></g>
<g><title>11 (position.label in template: 24.A)</title><text x="64.37" y="50" class="black" >A</text></g>
<g><title>12 (position.label in template: 25.N)</title><text x="69.98" y="55.22" class="green" >A</text></g>
<g><title>13 (position.label in template: 26.U)</title><text x="70.76" y="62.51" class="black" >U</text></g>
<g><title>14 (position.label in template: 27.C)</title><text x="66.5" y="68.75" class="black" >C</text></g>
<g><title>15 (position.label in template: 28.R)</title><text x="66.5" y="76.31" class="green" >A</text></g>
<g><title>16 (position.label in template: 29.G)</title><text x="66.29" y="83.87" class="black" >G</text></g>
<g><title>17 (position.label in template: 30.C)</title><text x="66.5" y="91.43" class="black" >C</text></g>
<g><title>18 (position.label in template: 31.G)</title><text x="66.29" y="98.99" class="black" >G</text></g>
<g><title>19 (position.label in template: 32.R)</title><text x="66.5" y="106.55" class="green" >A</text></g>
<g><title>20 (position.label in template: 33.Y)</title><text x="66.71" y="114.11" class="green" >A</text></g>
<g><title>20 (inserted)</title><text x="72.6524" y="110.631" class="numbering-label sequential" >20</text></g>
<g><line x1="68.2946" y1="113.182" x2="70.8162" y2="111.706" class="numbering-line sequential" /></g>
<g><title>21 (position.label in template: 34.C)</title><text x="77.19" y="124.81" class="black" >C</text></g>
<g><line x1="77.155" y1="126.544" x2="77.015" y2="134.704" class="black" /></g>
<g><title>22 (position.label in template: 35.G)</title><text x="84.54" y="124.81" class="green" >G</text></g>
<g><line x1="84.575" y1="126.544" x2="84.715" y2="134.704" class="black" /></g>
<g><title>23 (position.label in template: 36.G)</title><text x="92.1" y="124.81" class="green" >G</text></g>
<g><line x1="92.135" y1="126.544" x2="92.275" y2="134.704" class="black" /></g>
<g><title>24 (position.label in template: 37.N)</title><text x="100.02" y="125.01" class="green" >G</text></g>
<g><line x1="100.03" y1="126.744" x2="100.07" y2="134.704" class="black" /></g>
<g><title>25 (position.label in template: 38.Y)</title><text x="101.144" y="117.619" class="green" >U</text></g>
<g><title>26 (position.label in template: 39.N)</title><text x="103.141" y="110.416" class="green" >G</text></g>
<g><title>27 (position.label in template: 40.U)</title><text x="105.982" y="103.501" class="blue" >U</text></g>
<g><title>28 (position.label in template: 41.G)</title><text x="109.627" y="96.974" class="blue" >G</text></g>
<g><title>29 (position.label in template: 42.R)</title><text x="114.023" y="90.9278" class="green" >G</text></g>
<g><title>30 (position.label in template: 43.N)</title><text x="119.109" y="85.4484" class="green" >U</text></g>
<g><title>30 (inserted)</title><text x="114.35" y="80.4714" class="numbering-label sequential" >30</text></g>
<g><line x1="117.84" y1="84.1212" x2="115.813" y2="82.0016" class="numbering-line sequential" /></g>
<g><title>31 (inserted)</title><text x="124.811" y="80.6139" class="red" >A</text></g>
<g><title>32 (inserted)</title><text x="131.048" y="76.4932" class="red" >G</text></g>
<g><title>33 (inserted)</title><text x="137.732" y="73.145" class="red" >C</text></g>
<g><title>34 (inserted)</title><text x="144.767" y="70.6169" class="red" >C</text></g>
<g><title>35 (inserted)</title><text x="152.053" y="68.945" class="red" >C</text></g>
<g><title>36 (inserted)</title><text x="159.487" y="68.1531" class="red" >G</text></g>
<g><title>37 (inserted)</title><text x="166.961" y="68.2524" class="red" >G</text></g>
<g><title>38 (inserted)</title><text x="174.371" y="69.2417" class="red" >U</text></g>
<g><title>39 (inserted)</title><text x="181.611" y="71.1066" class="red" >U</text></g>
<g><title>40 (inserted)</title><text x="188.576" y="73.8208" class="red" >C</text></g>
<g><title>41 (inserted)</title><text x="195.168" y="77.3456" class="red" >C</text></g>
<g><title>42 (inserted)</title><text x="201.294" y="81.6306" class="red" >U</text></g>
<g><title>43 (inserted)</title><text x="206.865" y="86.615" class="red" >U</text></g>
<g><title>44 (inserted)</title><text x="211.803" y="92.2276" class="red" >C</text></g>
<g><title>45 (inserted)</title><text x="216.037" y="98.3885" class="red" >A</text></g>
<g><title>46 (inserted)</title><text x="219.507" y="105.01" class="red" >U</text></g>
<g><title>47 (inserted)</title><text x="222.163" y="111.998" class="red" >A</text></g>
<g><title>48 (inserted)</title><text x="223.968" y="119.252" class="red" >G</text></g>
<g><title>49 (inserted)</title><text x="224.896" y="126.67" class="red" >A</text></g>
<g><title>50 (inserted)</title><text x="224.933" y="134.145" class="red" >U</text></g>
<g><title>50 (inserted)</title><text x="231.808" y="134.522" class="numbering-label sequential" >50</text></g>
<g><line x1="226.766" y1="134.246" x2="229.972" y2="134.422" class="numbering-line sequential" /></g>
<g><title>51 (inserted)</title><text x="224.079" y="141.572" class="red" >C</text></g>
<g><title>52 (inserted)</title><text x="222.347" y="148.844" class="red" >C</text></g>
<g><title>53 (inserted)</title><text x="219.76" y="155.858" class="red" >C</text></g>
<g><title>54 (inserted)</title><text x="216.357" y="162.514" class="red" >A</text></g>
<g><title>55 (inserted)</title><text x="212.184" y="168.717" class="red" >A</text></g>
<g><title>56 (inserted)</title><text x="207.303" y="174.378" class="red" >A</text></g>
<g><title>57 (inserted)</title><text x="201.781" y="179.418" class="red" >A</text></g>
<g><title>58 (inserted)</title><text x="195.699" y="183.764" class="red" >A</text></g>
<g><title>59 (inserted)</title><text x="189.142" y="187.354" class="red" >C</text></g>
<g><title>60 (inserted)</title><text x="182.204" y="190.138" class="red" >G</text></g>
<g><title>61 (inserted)</title><text x="174.983" y="192.075" class="red" >C</text></g>
<g><title>62 (inserted)</title><text x="167.584" y="193.138" class="red" >U</text></g>
<g><title>63 (inserted)</title><text x="160.11" y="193.311" class="red" >C</text></g>
<g><title>64 (inserted)</title><text x="152.669" y="192.594" class="red" >A</text></g>
<g><title>65 (inserted)</title><text x="145.367" y="190.994" class="red" >A</text></g>
<g><title>66 (inserted)</title><text x="138.307" y="188.537" class="red" >G</text></g>
<g><title>67 (inserted)</title><text x="131.59" y="185.255" class="red" >G</text></g>
<g><title>68 (inserted)</title><text x="125.312" y="181.197" class="red" >G</text></g>
<g><title>69 (inserted)</title><text x="119.562" y="176.419" class="red" >C</text></g>
<g><title>70 (inserted)</title><text x="114.422" y="170.991" class="red" >G</text></g>
<g><title>71 (inserted)</title><text x="109.966" y="164.989" class="red" >U</text></g>
<g><title>72 (inserted)</title><text x="106.257" y="158.499" class="red" >U</text></g>
<g><title>73 (inserted)</title><text x="103.347" y="151.613" class="red" >U</text></g>
<g><title>74 (inserted)</title><text x="101.278" y="144.429" class="red" >U</text></g>
<g><title>75 (position.label in template: 46.Y)</title><text x="100.08" y="137.05" class="green" >U</text></g>
<g><title>76 (position.label in template: 47.C)</title><text x="92.31" y="137.05" class="green" >U</text></g>
<g><title>77 (position.label in template: 48.C)</title><text x="84.75" y="137.05" class="green" >U</text></g>
<g><title>78 (position.label in template: 49.G)</title><text x="76.98" y="137.05" class="black" >G</text></g>
<g><title>79 (position.label in template: 54.3')</title><text x="77.6114" y="144.616" class="green" >3'</text></g>
<g><line x1="53.8958" y1="119.354" x2="53.9933" y2="115.843" class="gray" /></g>
<g><line x1="54.1067" y1="111.765" x2="54.2033" y2="108.283" class="gray" /></g>
<g><line x1="54.26" y1="104.204" x2="54.26" y2="100.724" class="gray" /></g>
<g><line x1="54.2033" y1="96.6445" x2="54.1067" y2="93.1634" class="gray" /></g>
<g><line x1="54.1067" y1="89.0845" x2="54.2033" y2="85.6034" class="gray" /></g>
<g><line x1="54.3167" y1="81.5245" x2="54.4133" y2="78.0434" class="gray" /></g>
<g><line x1="54.3568" y1="73.9669" x2="54.1632" y2="70.4811" class="gray" /></g>
<g><line x1="52.9393" y1="66.7326" x2="51.1107" y2="63.9153" class="gray" /></g>
<g><line x1="50.299" y1="60.1858" x2="50.781" y2="56.9322" class="gray" /></g>
<g><line x1="52.5882" y1="53.54" x2="55.3018" y2="51.0679" class="gray" /></g>
<g><line x1="58.8502" y1="49.694" x2="62.3298" y2="49.694" class="gray" /></g>
<g><line x1="65.8636" y1="51.0838" x2="68.4864" y2="53.5242" class="gray" /></g>
<g><line x1="70.1971" y1="56.9426" x2="70.5429" y2="60.1753" class="gray" /></g>
<g><line x1="69.6097" y1="63.889" x2="67.6503" y2="66.759" class="gray" /></g>
<g><line x1="66.5" y1="70.4842" x2="66.5" y2="73.9637" class="gray" /></g>
<g><line x1="66.4433" y1="78.0434" x2="66.3467" y2="81.5245" class="gray" /></g>
<g><line x1="66.3467" y1="85.6034" x2="66.4433" y2="89.0845" class="gray" /></g>
<g><line x1="66.4433" y1="93.1634" x2="66.3467" y2="96.6445" class="gray" /></g>
<g><line x1="66.3467" y1="100.723" x2="66.4433" y2="104.205" class="gray" /></g>
<g><line x1="66.5567" y1="108.283" x2="66.6533" y2="111.765" class="gray" /></g>
<g><line x1="68.1376" y1="115.262" x2="75.7624" y2="123.046" class="gray" /></g>
<g><line x1="79.2302" y1="124.504" x2="82.4998" y2="124.504" class="gray" /></g>
<g><line x1="86.5802" y1="124.504" x2="90.0598" y2="124.504" class="gray" /></g>
<g><line x1="94.1396" y1="124.555" x2="97.9804" y2="124.652" class="gray" /></g>
<g><line x1="100.327" y1="122.687" x2="100.838" y2="119.33" class="gray" /></g>
<g><line x1="101.689" y1="115.347" x2="102.596" y2="112.076" class="gray" /></g>
<g><line x1="103.917" y1="108.222" x2="105.207" y2="105.082" class="gray" /></g>
<g><line x1="106.977" y1="101.414" x2="108.632" y2="98.4493" class="gray" /></g>
<g><line x1="110.827" y1="95.0178" x2="112.824" y2="92.2719" class="gray" /></g>
<g><line x1="115.411" y1="89.1263" x2="117.721" y2="86.6378" class="gray" /></g>
<g><line x1="120.665" y1="83.8229" x2="123.254" y2="81.6273" class="gray" /></g>
<g><line x1="126.513" y1="79.1832" x2="129.346" y2="77.3118" class="gray" /></g>
<g><line x1="132.872" y1="75.2734" x2="135.908" y2="73.7527" class="gray" /></g>
<g><line x1="139.652" y1="72.149" x2="142.847" y2="71.0008" class="gray" /></g>
<g><line x1="146.755" y1="69.8545" x2="150.065" y2="69.0952" class="gray" /></g>
<g><line x1="154.082" y1="68.4228" x2="157.458" y2="68.0632" class="gray" /></g>
<g><line x1="161.527" y1="67.8741" x2="164.921" y2="67.9193" class="gray" /></g>
<g><line x1="168.984" y1="68.2164" x2="172.349" y2="68.6656" class="gray" /></g>
<g><line x1="176.347" y1="69.4446" x2="179.635" y2="70.2916" class="gray" /></g>
<g><line x1="183.512" y1="71.5414" x2="186.675" y2="72.774" class="gray" /></g>
<g><line x1="190.375" y1="74.4768" x2="193.369" y2="76.0776" class="gray" /></g>
<g><line x1="196.84" y1="78.209" x2="199.622" y2="80.1551" class="gray" /></g>
<g><line x1="202.814" y1="82.6849" x2="205.345" y2="84.9486" class="gray" /></g>
<g><line x1="208.213" y1="87.8407" x2="210.456" y2="90.3898" class="gray" /></g>
<g><line x1="212.959" y1="93.603" x2="214.882" y2="96.401" class="gray" /></g>
<g><line x1="216.984" y1="99.8896" x2="218.56" y2="102.897" class="gray" /></g>
<g><line x1="220.232" y1="106.611" x2="221.438" y2="109.785" class="gray" /></g>
<g><line x1="222.656" y1="113.672" x2="223.475" y2="116.966" class="gray" /></g>
<g><line x1="224.221" y1="120.971" x2="224.643" y2="124.34" class="gray" /></g>
<g><line x1="224.906" y1="128.404" x2="224.923" y2="131.799" class="gray" /></g>
<g><line x1="224.7" y1="135.866" x2="224.312" y2="139.239" class="gray" /></g>
<g><line x1="223.606" y1="143.251" x2="222.82" y2="146.553" class="gray" /></g>
<g><line x1="221.641" y1="150.452" x2="220.466" y2="153.638" class="gray" /></g>
<g><line x1="218.832" y1="157.369" x2="217.286" y2="160.391" class="gray" /></g>
<g><line x1="215.218" y1="163.901" x2="213.323" y2="166.718" class="gray" /></g>
<g><line x1="210.852" y1="169.956" x2="208.635" y2="172.527" class="gray" /></g>
<g><line x1="205.796" y1="175.448" x2="203.288" y2="177.736" class="gray" /></g>
<g><line x1="200.121" y1="180.298" x2="197.359" y2="182.272" class="gray" /></g>
<g><line x1="193.909" y1="184.438" x2="190.931" y2="186.068" class="gray" /></g>
<g><line x1="187.248" y1="187.808" x2="184.097" y2="189.072" class="gray" /></g>
<g><line x1="180.233" y1="190.36" x2="176.954" y2="191.24" class="gray" /></g>
<g><line x1="172.964" y1="192.059" x2="169.603" y2="192.541" class="gray" /></g>
<g><line x1="165.544" y1="192.879" x2="162.15" y2="192.958" class="gray" /></g>
<g><line x1="158.079" y1="192.81" x2="154.7" y2="192.484" class="gray" /></g>
<g><line x1="150.676" y1="191.851" x2="147.36" y2="191.125" class="gray" /></g>
<g><line x1="143.44" y1="190.018" x2="140.234" y2="188.901" class="gray" /></g>
<g><line x1="136.474" y1="187.335" x2="133.423" y2="185.845" class="gray" /></g>
<g><line x1="129.877" y1="183.842" x2="127.025" y2="181.998" class="gray" /></g>
<g><line x1="123.743" y1="179.587" x2="121.131" y2="177.417" class="gray" /></g>
<g><line x1="118.159" y1="174.632" x2="115.825" y2="172.166" class="gray" /></g>
<g><line x1="113.206" y1="169.047" x2="111.182" y2="166.321" class="gray" /></g>
<g><line x1="108.954" y1="162.912" x2="107.269" y2="159.964" class="gray" /></g>
<g><line x1="105.462" y1="156.313" x2="104.141" y2="153.186" class="gray" /></g>
<g><line x1="102.782" y1="149.346" x2="101.843" y2="146.083" class="gray" /></g>
<g><line x1="100.951" y1="142.109" x2="100.407" y2="138.758" class="gray" /></g>
<g><line x1="98.0398" y1="136.744" x2="94.3502" y2="136.744" class="gray" /></g>
<g><line x1="90.2698" y1="136.744" x2="86.7902" y2="136.744" class="gray" /></g>
<g><line x1="82.7098" y1="136.744" x2="79.0202" y2="136.744" class="gray" /></g>
<g><line x1="77.1497" y1="138.777" x2="77.4417" y2="142.277" class="gray" /></g>
</svg>
