<svg
	xmlns="http://www.w3.org/2000/svg"
	width="231.346"
	height="241.929"
	style="font-size: 3.048045px; font-weight: bold; font-family: Helvetica; " >
<g><style type="text/css" >
<!-- create color definitions -->
<![CDATA[
text.red {fill: rgb(255, 0, 255); }
text.green {fill: rgb(0, 255, 0); }
text.blue {fill: rgb(0, 0, 255); }
text.black {fill: rgb(0, 0, 0); }
text.gray {fill: rgb(204, 204, 204); }
text.brown {fill: rgb(211.65, 104.55, 30.6); }
text {fill: rgb(0, 0, 0); text-anchor: middle; alignment-baseline: middle; }
circle.red {stroke: rgb(255, 0, 255); fill: none; }
circle.green {stroke: rgb(0, 255, 0); fill: none; }
circle.blue {stroke: rgb(0, 0, 255); fill: none; }
circle.black {stroke: rgb(0, 0, 0); fill: none; }
circle.gray {stroke: rgb(204, 204, 204); fill: none; }
circle.brown {stroke: rgb(211.65, 104.55, 30.6); fill: none; }
circle {stroke: rgb(0, 0, 0); }
line.red {stroke: rgb(255, 0, 255); stroke-width: 0.381006; }
line.green {stroke: rgb(0, 255, 0); stroke-width: 0.381006; }
line.blue {stroke: rgb(0, 0, 255); stroke-width: 0.381006; }
line.black {stroke: rgb(0, 0, 0); stroke-width: 0.381006; }
line.gray {stroke: rgb(204, 204, 204); stroke-width: 0.381006; }
line.brown {stroke: rgb(211.65, 104.55, 30.6); stroke-width: 0.381006; }
line {stroke: rgb(0, 0, 0); }
text.numbering-label {fill: rgb(204, 204, 204);}
line.numbering-line {stroke: rgb(204, 204, 204); stroke-width: 0.190503;}
line.predicted {stroke: rgb(0, 0, 0); stroke-dasharray: 2}
text.background {fill: rgb(255, 255, 255);
.template {visibility:hidden}
]]>
</style></g>
<g><title>0 (position.label in template: 0.5')</title><text x="109.289" y="47.8379" class="green" >5'</text></g>
<g><title>1 (position.label in template: 1.G)</title><text x="109.656" y="55.3395" class="black" >G</text></g>
<g><line x1="111.688" y1="55.0347" x2="120.074" y2="55.0347" class="black" /></g>
<g><title>2 (position.label in template: 2.N)</title><text x="110.016" y="62.6895" class="green" >C</text></g>
<g><line x1="112.048" y1="62.3847" x2="120.224" y2="62.3847" class="black" /></g>
<g><title>3 (position.label in template: 3.Y)</title><text x="110.076" y="70.4595" class="green" >C</text></g>
<g><line x1="112.108" y1="70.1547" x2="119.864" y2="70.1547" class="black" /></g>
<g><title>4 (position.label in template: 4.N)</title><text x="110.016" y="77.8095" class="green" >G</text></g>
<g><line x1="112.048" y1="77.5047" x2="120.224" y2="77.5047" class="black" /></g>
<g><title>5 (position.label in template: 5.Y)</title><text x="110.076" y="85.5795" class="green" >C</text></g>
<g><line x1="112.108" y1="85.2747" x2="120.074" y2="85.2747" class="black" /></g>
<g><title>6 (position.label in template: 6.Y)</title><text x="110.076" y="93.1395" class="green" >U</text></g>
<g><line x1="112.108" y1="92.8347" x2="120.074" y2="92.8347" class="black" /></g>
<g><title>7 (position.label in template: 7.R)</title><text x="109.866" y="100.699" class="green" >U</text></g>
<g><line x1="111.898" y1="100.36" x2="120.224" y2="100.219" class="black" /></g>
<g><title>8 (position.label in template: 8.U)</title><text x="103.046" y="103.959" class="black" >U</text></g>
<g><title>9 (position.label in template: 9.R)</title><text x="97.696" y="109.309" class="green" >A</text></g>
<g><title>10 (position.label in template: 10.G)</title><text x="94.226" y="116.129" class="black" >G</text></g>
<g><line x1="94.2609" y1="117.856" x2="94.4012" y2="126.033" class="black" /></g>
<g><title>10 (inserted)</title><text x="90.5691" y="110.328" class="numbering-label sequential" >10</text></g>
<g><line x1="93.2509" y1="114.582" x2="91.5297" y2="111.852" class="numbering-line sequential" /></g>
<g><title>11 (position.label in template: 11.C)</title><text x="86.876" y="116.129" class="black" >C</text></g>
<g><line x1="86.8412" y1="117.856" x2="86.7009" y2="126.033" class="black" /></g>
<g><title>12 (position.label in template: 12.U)</title><text x="79.316" y="116.129" class="black" >U</text></g>
<g><line x1="79.3509" y1="117.856" x2="79.4912" y2="126.033" class="black" /></g>
<g><title>13 (position.label in template: 13.Y)</title><text x="71.966" y="116.129" class="green" >C</text></g>
<g><line x1="71.9312" y1="117.856" x2="71.7909" y2="126.033" class="black" /></g>
<g><title>14 (position.label in template: 14.A)</title><text x="67.0153" y="111.398" class="blue" >A</text></g>
<g><title>15 (position.label in template: 15.G)</title><text x="60.2825" y="110.148" class="blue" >G</text></g>
<g><title>16 (position.label in template: 16.U)</title><text x="53.9629" y="112.786" class="green" >C</text></g>
<g><title>17 (inserted)</title><text x="50.1175" y="118.452" class="red" >U</text></g>
<g><title>18 (position.label in template: 17.G)</title><text x="50" y="125.299" class="blue" >G</text></g>
<g><title>19 (position.label in template: 18.G)</title><text x="53.6488" y="131.094" class="blue" >G</text></g>
<g><title>20 (position.label in template: 19.U)</title><text x="59.8741" y="133.947" class="blue" >U</text></g>
<g><title>20 (inserted)</title><text x="58.9157" y="140.738" class="numbering-label sequential" >20</text></g>
<g><line x1="59.6186" y1="135.758" x2="59.1308" y2="139.214" class="numbering-line sequential" /></g>
<g><title>21 (position.label in template: 21.A)</title><text x="66.6459" y="132.928" class="blue" >A</text></g>
<g><title>22 (position.label in template: 22.R)</title><text x="71.756" y="128.369" class="green" >G</text></g>
<g><title>23 (position.label in template: 23.A)</title><text x="79.526" y="128.369" class="black" >A</text></g>
<g><title>24 (position.label in template: 24.G)</title><text x="86.666" y="128.369" class="black" >G</text></g>
<g><title>25 (position.label in template: 25.C)</title><text x="94.436" y="128.369" class="black" >C</text></g>
<g><title>26 (position.label in template: 26.R)</title><text x="97.696" y="135.179" class="green" >A</text></g>
<g><title>27 (position.label in template: 27.Y)</title><text x="103.256" y="140.529" class="green" >U</text></g>
<g><line x1="105.168" y1="140.912" x2="112.674" y2="143.608" class="black" /></g>
<g><title>28 (position.label in template: 28.Y)</title><text x="100.736" y="147.659" class="green" >C</text></g>
<g><line x1="102.649" y1="148.041" x2="110.163" y2="150.738" class="black" /></g>
<g><title>29 (position.label in template: 29.N)</title><text x="98.166" y="154.579" class="green" >G</text></g>
<g><line x1="100.082" y1="154.951" x2="107.79" y2="157.669" class="black" /></g>
<g><title>30 (position.label in template: 30.N)</title><text x="95.656" y="161.709" class="green" >C</text></g>
<g><line x1="97.5724" y1="162.081" x2="105.28" y2="164.799" class="black" /></g>
<g><title>30 (inserted)</title><text x="89.1885" y="159.428" class="numbering-label sequential" >30</text></g>
<g><line x1="93.9314" y1="161.101" x2="91.0173" y2="160.073" class="numbering-line sequential" /></g>
<g><title>31 (position.label in template: 31.N)</title><text x="93.136" y="168.839" class="green" >A</text></g>
<g><line x1="95.0524" y1="169.211" x2="102.76" y2="171.929" class="black" /></g>
<g><title>32 (position.label in template: 32.C)</title><text x="86.456" y="172.859" class="green" >U</text></g>
<g><title>33 (position.label in template: 33.U)</title><text x="83.566" y="179.849" class="black" >U</text></g>
<g><title>34 (position.label in template: 34.N)</title><text x="85.636" y="186.949" class="green" >C</text></g>
<g><title>35 (position.label in template: 35.G)</title><text x="91.236" y="191.819" class="black" >G</text></g>
<g><title>36 (position.label in template: 36.U)</title><text x="99.006" y="191.929" class="black" >U</text></g>
<g><title>37 (position.label in template: 37.A)</title><text x="105.296" y="187.439" class="black" >A</text></g>
<g><title>38 (position.label in template: 38.A)</title><text x="107.426" y="180.179" class="black" >A</text></g>
<g><title>39 (position.label in template: 39.N)</title><text x="104.676" y="172.909" class="green" >U</text></g>
<g><title>40 (position.label in template: 40.N)</title><text x="107.196" y="165.779" class="green" >G</text></g>
<g><title>41 (position.label in template: 41.N)</title><text x="109.706" y="158.649" class="green" >C</text></g>
<g><title>42 (position.label in template: 42.R)</title><text x="112.076" y="151.729" class="green" >G</text></g>
<g><title>43 (position.label in template: 43.R)</title><text x="114.586" y="144.599" class="green" >G</text></g>
<g><title>44 (position.label in template: 44.A)</title><text x="122.316" y="144.399" class="green" >G</text></g>
<g><title>45 (position.label in template: 45.G)</title><text x="128.716" y="142.359" class="black" >G</text></g>
<g><title>46 (position.label in template: 46.R)</title><text x="134.266" y="137.009" class="green" >G</text></g>
<g><title>47 (position.label in template: 47.U)</title><text x="137.536" y="130.199" class="black" >U</text></g>
<g><title>48 (position.label in template: 48.C)</title><text x="134.846" y="123.289" class="black" >C</text></g>
<g><title>49 (position.label in template: 49.N)</title><text x="129.896" y="117.179" class="green" >G</text></g>
<g><line x1="129.76" y1="114.847" x2="129.212" y2="106.692" class="black" /></g>
<g><title>50 (position.label in template: 50.Y)</title><text x="137.366" y="116.879" class="green" >C</text></g>
<g><line x1="137.203" y1="114.549" x2="136.539" y2="106.27" class="black" /></g>
<g><title>50 (inserted)</title><text x="137.824" y="123.722" class="numbering-label sequential" >50</text></g>
<g><line x1="137.488" y1="118.704" x2="137.722" y2="122.198" class="numbering-line sequential" /></g>
<g><title>51 (position.label in template: 51.N)</title><text x="144.976" y="116.169" class="green" >G</text></g>
<g><line x1="144.84" y1="113.837" x2="144.292" y2="105.682" class="black" /></g>
<g><title>52 (position.label in template: 52.R)</title><text x="152.286" y="115.739" class="green" >U</text></g>
<g><line x1="152.177" y1="113.406" x2="151.745" y2="105.374" class="black" /></g>
<g><title>53 (position.label in template: 53.G)</title><text x="159.656" y="115.119" class="black" >G</text></g>
<g><line x1="159.547" y1="112.786" x2="159.115" y2="104.744" class="black" /></g>
<g><title>54 (position.label in template: 54.U)</title><text x="165.906" y="119.719" class="black" >U</text></g>
<g><title>55 (position.label in template: 55.U)</title><text x="173.476" y="119.619" class="black" >U</text></g>
<g><title>56 (position.label in template: 56.C)</title><text x="179.426" y="114.949" class="black" >C</text></g>
<g><title>57 (position.label in template: 57.R)</title><text x="181.346" y="107.639" class="green" >G</text></g>
<g><title>58 (position.label in template: 58.A)</title><text x="178.636" y="100.779" class="black" >A</text></g>
<g><title>59 (position.label in template: 59.N)</title><text x="172.186" y="96.7595" class="green" >G</text></g>
<g><title>60 (position.label in template: 60.U)</title><text x="164.426" y="97.7495" class="black" >U</text></g>
<g><title>61 (position.label in template: 61.C)</title><text x="159.006" y="103.019" class="black" >C</text></g>
<g><title>62 (position.label in template: 62.Y)</title><text x="151.636" y="103.649" class="green" >A</text></g>
<g><title>63 (position.label in template: 63.N)</title><text x="144.156" y="103.959" class="green" >C</text></g>
<g><title>64 (position.label in template: 64.R)</title><text x="136.376" y="104.549" class="green" >G</text></g>
<g><title>65 (position.label in template: 65.N)</title><text x="129.076" y="104.969" class="green" >C</text></g>
<g><title>66 (position.label in template: 66.N)</title><text x="122.256" y="100.489" class="green" >A</text></g>
<g><title>67 (position.label in template: 67.R)</title><text x="122.106" y="93.1395" class="green" >A</text></g>
<g><title>68 (position.label in template: 68.R)</title><text x="122.106" y="85.5795" class="green" >G</text></g>
<g><title>69 (position.label in template: 69.N)</title><text x="122.256" y="77.8095" class="green" >C</text></g>
<g><title>70 (position.label in template: 70.G)</title><text x="121.896" y="70.4595" class="green" >G</text></g>
<g><title>71 (position.label in template: 71.N)</title><text x="122.256" y="62.6895" class="green" >G</text></g>
<g><title>72 (position.label in template: 72.C)</title><text x="122.106" y="55.3395" class="black" >C</text></g>
<g><title>73 (position.label in template: 73.N)</title><text x="127.388" y="50" class="green" >A</text></g>
<g><title>74 (position.label in template: 74.3')</title><text x="122.785" y="44.0655" class="green" >3'</text></g>
<g><line x1="109.388" y1="49.5627" x2="109.557" y2="53.0051" class="gray" /></g>
<g><line x1="109.755" y1="57.0643" x2="109.917" y2="60.3551" class="gray" /></g>
<g><line x1="110.032" y1="64.4166" x2="110.06" y2="68.1227" class="gray" /></g>
<g><line x1="110.059" y1="72.1866" x2="110.033" y2="75.4727" class="gray" /></g>
<g><line x1="110.032" y1="79.5366" x2="110.06" y2="83.2427" class="gray" /></g>
<g><line x1="110.076" y1="87.3067" x2="110.076" y2="90.8026" class="gray" /></g>
<g><line x1="110.02" y1="94.8659" x2="109.922" y2="98.3634" class="gray" /></g>
<g><line x1="108.033" y1="101.271" x2="104.879" y2="102.778" class="gray" /></g>
<g><line x1="101.609" y1="105.092" x2="99.1329" y2="107.568" class="gray" /></g>
<g><line x1="96.7746" y1="110.816" x2="95.1475" y2="114.014" class="gray" /></g>
<g><line x1="92.194" y1="115.825" x2="88.9081" y2="115.825" class="gray" /></g>
<g><line x1="84.844" y1="115.825" x2="81.3481" y2="115.825" class="gray" /></g>
<g><line x1="77.284" y1="115.825" x2="73.9981" y2="115.825" class="gray" /></g>
<g><line x1="70.497" y1="114.421" x2="68.4844" y2="112.497" class="gray" /></g>
<g><line x1="65.0175" y1="110.722" x2="62.2803" y2="110.214" class="gray" /></g>
<g><line x1="58.4073" y1="110.626" x2="55.8381" y2="111.698" class="gray" /></g>
<g><line x1="52.8219" y1="114.162" x2="51.2585" y2="116.466" class="gray" /></g>
<g><line x1="50.0826" y1="120.179" x2="50.0349" y2="122.962" class="gray" /></g>
<g><line x1="51.0827" y1="126.714" x2="52.5661" y2="129.07" class="gray" /></g>
<g><line x1="55.4961" y1="131.636" x2="58.0269" y2="132.796" class="gray" /></g>
<g><line x1="61.8835" y1="133.34" x2="64.6365" y2="132.926" class="gray" /></g>
<g><line x1="68.1623" y1="131.271" x2="70.2397" y2="129.417" class="gray" /></g>
<g><line x1="73.7881" y1="128.065" x2="77.494" y2="128.065" class="gray" /></g>
<g><line x1="81.5581" y1="128.065" x2="84.634" y2="128.065" class="gray" /></g>
<g><line x1="88.6981" y1="128.065" x2="92.404" y2="128.065" class="gray" /></g>
<g><line x1="95.3134" y1="129.898" x2="96.8186" y2="133.042" class="gray" /></g>
<g><line x1="99.1603" y1="136.284" x2="101.792" y2="138.816" class="gray" /></g>
<g><line x1="102.579" y1="142.141" x2="101.413" y2="145.439" class="gray" /></g>
<g><line x1="100.029" y1="149.26" x2="98.8735" y2="152.37" class="gray" /></g>
<g><line x1="97.4913" y1="156.191" x2="96.3308" y2="159.488" class="gray" /></g>
<g><line x1="94.9789" y1="163.321" x2="93.8132" y2="166.619" class="gray" /></g>
<g><line x1="91.395" y1="169.582" x2="88.1971" y2="171.507" class="gray" /></g>
<g><line x1="85.6796" y1="174.433" x2="84.3424" y2="177.667" class="gray" /></g>
<g><line x1="84.1348" y1="181.495" x2="85.0673" y2="184.694" class="gray" /></g>
<g><line x1="87.1694" y1="187.978" x2="89.7027" y2="190.181" class="gray" /></g>
<g><line x1="93.2679" y1="191.543" x2="96.9742" y2="191.596" class="gray" /></g>
<g><line x1="100.66" y1="190.444" x2="103.642" y2="188.315" class="gray" /></g>
<g><line x1="105.868" y1="185.185" x2="106.854" y2="181.825" class="gray" /></g>
<g><line x1="106.707" y1="177.974" x2="105.395" y2="174.505" class="gray" /></g>
<g><line x1="105.353" y1="170.689" x2="106.519" y2="167.391" class="gray" /></g>
<g><line x1="107.871" y1="163.558" x2="109.031" y2="160.261" class="gray" /></g>
<g><line x1="110.364" y1="156.422" x2="111.418" y2="153.347" class="gray" /></g>
<g><line x1="112.751" y1="149.508" x2="113.911" y2="146.211" class="gray" /></g>
<g><line x1="116.617" y1="144.242" x2="120.285" y2="144.147" class="gray" /></g>
<g><line x1="124.252" y1="143.478" x2="126.78" y2="142.672" class="gray" /></g>
<g><line x1="130.179" y1="140.644" x2="132.803" y2="138.115" class="gray" /></g>
<g><line x1="135.146" y1="134.873" x2="136.656" y2="131.726" class="gray" /></g>
<g><line x1="136.799" y1="128.001" x2="135.583" y2="124.878" class="gray" /></g>
<g><line x1="133.567" y1="121.406" x2="131.175" y2="118.454" class="gray" /></g>
<g><line x1="131.926" y1="116.793" x2="135.336" y2="116.656" class="gray" /></g>
<g><line x1="139.389" y1="116.386" x2="142.953" y2="116.053" class="gray" /></g>
<g><line x1="147.005" y1="115.745" x2="150.258" y2="115.554" class="gray" /></g>
<g><line x1="154.311" y1="115.264" x2="157.631" y2="114.985" class="gray" /></g>
<g><line x1="161.293" y1="116.019" x2="164.269" y2="118.21" class="gray" /></g>
<g><line x1="167.938" y1="119.388" x2="171.444" y2="119.342" class="gray" /></g>
<g><line x1="175.075" y1="118.06" x2="177.828" y2="115.899" class="gray" /></g>
<g><line x1="179.942" y1="112.679" x2="180.83" y2="109.3" class="gray" /></g>
<g><line x1="180.599" y1="105.445" x2="179.383" y2="102.365" class="gray" /></g>
<g><line x1="176.912" y1="99.3999" x2="173.911" y2="97.5295" class="gray" /></g>
<g><line x1="170.17" y1="96.7118" x2="166.442" y2="97.1875" class="gray" /></g>
<g><line x1="162.969" y1="98.8612" x2="160.463" y2="101.298" class="gray" /></g>
<g><line x1="156.981" y1="102.888" x2="153.661" y2="103.172" class="gray" /></g>
<g><line x1="149.606" y1="103.429" x2="146.186" y2="103.571" class="gray" /></g>
<g><line x1="142.13" y1="103.808" x2="138.402" y2="104.091" class="gray" /></g>
<g><line x1="134.347" y1="104.361" x2="131.105" y2="104.548" class="gray" /></g>
<g><line x1="127.378" y1="103.549" x2="123.954" y2="101.3" class="gray" /></g>
<g><line x1="122.215" y1="98.1531" x2="122.147" y2="94.8663" class="gray" /></g>
<g><line x1="122.106" y1="90.8026" x2="122.106" y2="87.3067" class="gray" /></g>
<g><line x1="122.145" y1="83.243" x2="122.217" y2="79.5363" class="gray" /></g>
<g><line x1="122.157" y1="75.4751" x2="121.995" y2="72.1843" class="gray" /></g>
<g><line x1="121.99" y1="68.1248" x2="122.162" y2="64.4145" class="gray" /></g>
<g><line x1="122.215" y1="60.3531" x2="122.147" y2="57.0663" class="gray" /></g>
<g><line x1="123.535" y1="53.59" x2="125.959" y2="51.1398" class="gray" /></g>
<g><line x1="126.142" y1="48.0896" x2="124.03" y2="45.3663" class="gray" /></g>
</svg>
