<svg
	xmlns="http://www.w3.org/2000/svg"
	width="273.513"
	height="215.478"
	style="font-size: 3.060353px; font-weight: bold; font-family: Helvetica; " >
<g><style type="text/css" >
<!-- create color definitions -->
<![CDATA[
text.red {fill: rgb(255, 0, 255); }
text.green {fill: rgb(0, 255, 0); }
text.blue {fill: rgb(0, 0, 255); }
text.black {fill: rgb(0, 0, 0); }
text.gray {fill: rgb(204, 204, 204); }
text.brown {fill: rgb(211.65, 104.55, 30.6); }
text {fill: rgb(0, 0, 0); text-anchor: middle; alignment-baseline: middle; }
circle.red {stroke: rgb(255, 0, 255); fill: none; }
circle.green {stroke: rgb(0, 255, 0); fill: none; }
circle.blue {stroke: rgb(0, 0, 255); fill: none; }
circle.black {stroke: rgb(0, 0, 0); fill: none; }
circle.gray {stroke: rgb(204, 204, 204); fill: none; }
circle.brown {stroke: rgb(211.65, 104.55, 30.6); fill: none; }
circle {stroke: rgb(0, 0, 0); }
line.red {stroke: rgb(255, 0, 255); stroke-width: 0.382544; }
line.green {stroke: rgb(0, 255, 0); stroke-width: 0.382544; }
line.blue {stroke: rgb(0, 0, 255); stroke-width: 0.382544; }
line.black {stroke: rgb(0, 0, 0); stroke-width: 0.382544; }
line.gray {stroke: rgb(204, 204, 204); stroke-width: 0.382544; }
line.brown {stroke: rgb(211.65, 104.55, 30.6); stroke-width: 0.382544; }
line {stroke: rgb(0, 0, 0); }
text.numbering-label {fill: rgb(204, 204, 204);}
line.numbering-line {stroke: rgb(204, 204, 204); stroke-width: 0.191272;}
line.predicted {stroke: rgb(0, 0, 0); stroke-dasharray: 2}
text.background {fill: rgb(255, 255, 255);
.template {visibility:hidden}
]]>
</style></g>
<g><title>0 (position.label in template: 0.5')</title><text x="42.4075" y="119.553" class="green" >5'</text></g>
<g><title>1 (position.label in template: 1.Y)</title><text x="50" y="119.553" class="green" >U</text></g>
<g><title>2 (position.label in template: 2.U)</title><text x="57.5925" y="119.553" class="black" >U</text></g>
<g><title>3 (position.label in template: 3.A)</title><text x="65.1849" y="119.553" class="black" >A</text></g>
<g><title>4 (position.label in template: 4.N)</title><text x="72.7744" y="119.766" class="green" >C</text></g>
<g><title>5 (position.label in template: 5.N)</title><text x="80.3669" y="119.766" class="green" >C</text></g>
<g><title>6 (position.label in template: 6.N)</title><text x="87.9594" y="119.766" class="green" >C</text></g>
<g><title>7 (position.label in template: 7.U)</title><text x="95.5488" y="119.55" class="black" >U</text></g>
<g><title>8 (position.label in template: 8.Y)</title><text x="103.141" y="119.55" class="green" >C</text></g>
<g><title>9 (position.label in template: 9.N)</title><text x="110.731" y="119.762" class="green" >C</text></g>
<g><title>10 (inserted)</title><text x="118.323" y="119.762" class="red" >U</text></g>
<g><title>10 (inserted)</title><text x="118.323" y="112.877" class="numbering-label sequential" >10</text></g>
<g><line x1="118.323" y1="117.926" x2="118.323" y2="114.407" class="numbering-line sequential" /></g>
<g><title>11 (position.label in template: 10.N)</title><text x="125.916" y="119.762" class="green" >G</text></g>
<g><title>12 (position.label in template: 11.N)</title><text x="133.508" y="119.762" class="green" >C</text></g>
<g><title>13 (position.label in template: 12.Y)</title><text x="141.098" y="119.553" class="green" >A</text></g>
<g><title>14 (position.label in template: 13.N)</title><text x="148.687" y="119.766" class="green" >C</text></g>
<g><title>15 (position.label in template: 14.G)</title><text x="153.753" y="114.11" class="green" >G</text></g>
<g><line x1="155.793" y1="113.804" x2="164.373" y2="113.804" class="black" /></g>
<g><title>16 (position.label in template: 15.U)</title><text x="153.963" y="106.55" class="green" >U</text></g>
<g><line x1="156.003" y1="106.244" x2="164.163" y2="106.244" class="black" /></g>
<g><title>17 (position.label in template: 16.C)</title><text x="153.963" y="98.99" class="black" >C</text></g>
<g><line x1="156.003" y1="98.684" x2="163.953" y2="98.684" class="black" /></g>
<g><title>18 (position.label in template: 17.G)</title><text x="153.753" y="91.43" class="black" >G</text></g>
<g><line x1="155.793" y1="91.124" x2="164.163" y2="91.124" class="black" /></g>
<g><title>19 (position.label in template: 18.C)</title><text x="153.963" y="83.87" class="black" >C</text></g>
<g><line x1="156.003" y1="83.564" x2="163.953" y2="83.564" class="black" /></g>
<g><title>20 (position.label in template: 19.Y)</title><text x="154.173" y="76.31" class="green" >U</text></g>
<g><line x1="156.213" y1="76.004" x2="164.163" y2="76.004" class="black" /></g>
<g><title>20 (inserted)</title><text x="147.288" y="76.4056" class="numbering-label sequential" >20</text></g>
<g><line x1="152.337" y1="76.3355" x2="149.124" y2="76.3801" class="numbering-line sequential" /></g>
<g><title>21 (position.label in template: 20.G)</title><text x="153.753" y="68.75" class="black" >G</text></g>
<g><line x1="155.793" y1="68.444" x2="164.163" y2="68.444" class="black" /></g>
<g><title>22 (position.label in template: 21.C)</title><text x="149.703" y="62.51" class="green" >U</text></g>
<g><title>23 (position.label in template: 22.N)</title><text x="150.783" y="55.22" class="green" >A</text></g>
<g><title>24 (position.label in template: 23.A)</title><text x="156.513" y="50" class="black" >A</text></g>
<g><title>25 (position.label in template: 24.A)</title><text x="164.073" y="50" class="black" >A</text></g>
<g><title>26 (position.label in template: 25.N)</title><text x="169.683" y="55.22" class="green" >U</text></g>
<g><title>27 (position.label in template: 26.U)</title><text x="170.463" y="62.51" class="green" >C</text></g>
<g><title>28 (position.label in template: 27.C)</title><text x="166.203" y="68.75" class="black" >C</text></g>
<g><title>29 (position.label in template: 28.R)</title><text x="166.203" y="76.31" class="green" >A</text></g>
<g><title>30 (position.label in template: 29.G)</title><text x="165.993" y="83.87" class="black" >G</text></g>
<g><title>30 (inserted)</title><text x="172.879" y="83.87" class="numbering-label sequential" >30</text></g>
<g><line x1="167.829" y1="83.87" x2="171.042" y2="83.87" class="numbering-line sequential" /></g>
<g><title>31 (position.label in template: 30.C)</title><text x="166.203" y="91.43" class="black" >C</text></g>
<g><title>32 (position.label in template: 31.G)</title><text x="165.993" y="98.99" class="black" >G</text></g>
<g><title>33 (position.label in template: 32.R)</title><text x="166.203" y="106.55" class="green" >A</text></g>
<g><title>34 (position.label in template: 33.Y)</title><text x="166.413" y="114.11" class="green" >C</text></g>
<g><title>35 (position.label in template: 34.C)</title><text x="176.893" y="124.81" class="black" >C</text></g>
<g><line x1="176.858" y1="126.544" x2="176.718" y2="134.704" class="black" /></g>
<g><title>36 (position.label in template: 35.G)</title><text x="184.243" y="124.81" class="black" >G</text></g>
<g><line x1="184.278" y1="126.544" x2="184.418" y2="134.704" class="black" /></g>
<g><title>37 (position.label in template: 36.G)</title><text x="191.803" y="124.81" class="black" >G</text></g>
<g><line x1="191.838" y1="126.544" x2="191.978" y2="134.704" class="black" /></g>
<g><title>38 (position.label in template: 37.N)</title><text x="199.723" y="125.01" class="green" >G</text></g>
<g><line x1="199.733" y1="126.744" x2="199.773" y2="134.704" class="black" /></g>
<g><title>39 (position.label in template: 38.Y)</title><text x="205.123" y="119.45" class="green" >U</text></g>
<g><title>40 (position.label in template: 39.N)</title><text x="212.473" y="118.18" class="green" >U</text></g>
<g><title>41 (position.label in template: 40.U)</title><text x="219.313" y="120.86" class="black" >U</text></g>
<g><title>42 (position.label in template: 41.G)</title><text x="223.303" y="127.14" class="black" >G</text></g>
<g><title>43 (position.label in template: 42.R)</title><text x="223.513" y="134.71" class="green" >G</text></g>
<g><title>44 (position.label in template: 43.N)</title><text x="219.463" y="141.2" class="green" >U</text></g>
<g><title>45 (position.label in template: 44.A)</title><text x="212.533" y="143.88" class="black" >A</text></g>
<g><title>46 (position.label in template: 45.R)</title><text x="204.913" y="142.4" class="green" >G</text></g>
<g><title>47 (position.label in template: 46.Y)</title><text x="199.783" y="137.05" class="green" >C</text></g>
<g><title>48 (position.label in template: 47.C)</title><text x="192.013" y="137.05" class="black" >C</text></g>
<g><title>49 (position.label in template: 48.C)</title><text x="184.453" y="137.05" class="black" >C</text></g>
<g><title>50 (position.label in template: 49.G)</title><text x="176.683" y="137.05" class="black" >G</text></g>
<g><title>50 (inserted)</title><text x="179.456" y="143.352" class="numbering-label sequential" >50</text></g>
<g><line x1="177.422" y1="138.731" x2="178.783" y2="141.822" class="numbering-line sequential" /></g>
<g><title>51 (position.label in template: 50.N)</title><text x="171.612" y="142.701" class="green" >A</text></g>
<g><title>52 (position.label in template: 51.N)</title><text x="171.612" y="150.293" class="green" >C</text></g>
<g><title>53 (position.label in template: 52.N)</title><text x="171.612" y="157.886" class="green" >U</text></g>
<g><title>54 (position.label in template: 53.N)</title><text x="171.612" y="165.478" class="green" >U</text></g>
<g><title>55 (position.label in template: 54.3')</title><text x="171.612" y="173.071" class="green" >3'</text></g>
<g><line x1="44.4478" y1="119.247" x2="47.9598" y2="119.247" class="gray" /></g>
<g><line x1="52.0402" y1="119.247" x2="55.5522" y2="119.247" class="gray" /></g>
<g><line x1="59.6327" y1="119.247" x2="63.1447" y2="119.247" class="gray" /></g>
<g><line x1="67.2244" y1="119.304" x2="70.735" y2="119.403" class="gray" /></g>
<g><line x1="74.8147" y1="119.46" x2="78.3267" y2="119.46" class="gray" /></g>
<g><line x1="82.4071" y1="119.46" x2="85.9191" y2="119.46" class="gray" /></g>
<g><line x1="89.9988" y1="119.402" x2="93.5094" y2="119.302" class="gray" /></g>
<g><line x1="97.589" y1="119.244" x2="101.101" y2="119.244" class="gray" /></g>
<g><line x1="105.181" y1="119.301" x2="108.691" y2="119.399" class="gray" /></g>
<g><line x1="112.771" y1="119.456" x2="116.283" y2="119.456" class="gray" /></g>
<g><line x1="120.363" y1="119.456" x2="123.875" y2="119.456" class="gray" /></g>
<g><line x1="127.956" y1="119.456" x2="131.468" y2="119.456" class="gray" /></g>
<g><line x1="135.548" y1="119.4" x2="139.058" y2="119.304" class="gray" /></g>
<g><line x1="143.137" y1="119.304" x2="146.648" y2="119.402" class="gray" /></g>
<g><line x1="150.048" y1="117.94" x2="152.392" y2="115.324" class="gray" /></g>
<g><line x1="153.809" y1="111.765" x2="153.906" y2="108.283" class="gray" /></g>
<g><line x1="153.963" y1="104.204" x2="153.963" y2="100.724" class="gray" /></g>
<g><line x1="153.906" y1="96.6445" x2="153.809" y2="93.1634" class="gray" /></g>
<g><line x1="153.809" y1="89.0845" x2="153.906" y2="85.6034" class="gray" /></g>
<g><line x1="154.019" y1="81.5245" x2="154.116" y2="78.0434" class="gray" /></g>
<g><line x1="154.06" y1="73.9669" x2="153.866" y2="70.4811" class="gray" /></g>
<g><line x1="152.642" y1="66.7326" x2="150.814" y2="63.9153" class="gray" /></g>
<g><line x1="150.002" y1="60.1858" x2="150.484" y2="56.9322" class="gray" /></g>
<g><line x1="152.291" y1="53.54" x2="155.005" y2="51.0679" class="gray" /></g>
<g><line x1="158.553" y1="49.694" x2="162.033" y2="49.694" class="gray" /></g>
<g><line x1="165.566" y1="51.0838" x2="168.189" y2="53.5242" class="gray" /></g>
<g><line x1="169.9" y1="56.9426" x2="170.246" y2="60.1753" class="gray" /></g>
<g><line x1="169.312" y1="63.889" x2="167.353" y2="66.759" class="gray" /></g>
<g><line x1="166.203" y1="70.4842" x2="166.203" y2="73.9637" class="gray" /></g>
<g><line x1="166.146" y1="78.0434" x2="166.049" y2="81.5245" class="gray" /></g>
<g><line x1="166.049" y1="85.6034" x2="166.146" y2="89.0845" class="gray" /></g>
<g><line x1="166.146" y1="93.1634" x2="166.049" y2="96.6445" class="gray" /></g>
<g><line x1="166.049" y1="100.723" x2="166.146" y2="104.205" class="gray" /></g>
<g><line x1="166.259" y1="108.283" x2="166.356" y2="111.765" class="gray" /></g>
<g><line x1="167.84" y1="115.262" x2="175.465" y2="123.046" class="gray" /></g>
<g><line x1="178.933" y1="124.504" x2="182.203" y2="124.504" class="gray" /></g>
<g><line x1="186.283" y1="124.504" x2="189.763" y2="124.504" class="gray" /></g>
<g><line x1="193.842" y1="124.555" x2="197.683" y2="124.652" class="gray" /></g>
<g><line x1="201.144" y1="123.24" x2="203.701" y2="120.608" class="gray" /></g>
<g><line x1="207.133" y1="118.797" x2="210.462" y2="118.221" class="gray" /></g>
<g><line x1="214.372" y1="118.618" x2="217.413" y2="119.81" class="gray" /></g>
<g><line x1="220.407" y1="122.276" x2="222.209" y2="125.112" class="gray" /></g>
<g><line x1="223.359" y1="128.873" x2="223.456" y2="132.365" class="gray" /></g>
<g><line x1="222.433" y1="136.135" x2="220.543" y2="139.163" class="gray" /></g>
<g><line x1="217.56" y1="141.63" x2="214.436" y2="142.838" class="gray" /></g>
<g><line x1="210.53" y1="143.185" x2="206.916" y2="142.483" class="gray" /></g>
<g><line x1="203.501" y1="140.621" x2="201.195" y2="138.217" class="gray" /></g>
<g><line x1="197.743" y1="136.744" x2="194.053" y2="136.744" class="gray" /></g>
<g><line x1="189.973" y1="136.744" x2="186.493" y2="136.744" class="gray" /></g>
<g><line x1="182.413" y1="136.744" x2="178.723" y2="136.744" class="gray" /></g>
<g><line x1="175.32" y1="138.262" x2="172.975" y2="140.876" class="gray" /></g>
<g><line x1="171.612" y1="144.435" x2="171.612" y2="147.947" class="gray" /></g>
<g><line x1="171.612" y1="152.028" x2="171.612" y2="155.54" class="gray" /></g>
<g><line x1="171.612" y1="159.62" x2="171.612" y2="163.132" class="gray" /></g>
<g><line x1="171.612" y1="167.213" x2="171.612" y2="170.725" class="gray" /></g>
</svg>
