<svg
	xmlns="http://www.w3.org/2000/svg"
	width="223.44"
	height="275.654"
	style="font-size: 3.045014px; font-weight: bold; font-family: Helvetica; " >
<g><style type="text/css" >
<!-- create color definitions -->
<![CDATA[
text.red {fill: rgb(255, 0, 255); }
text.green {fill: rgb(0, 255, 0); }
text.blue {fill: rgb(0, 0, 255); }
text.black {fill: rgb(0, 0, 0); }
text.gray {fill: rgb(204, 204, 204); }
text.brown {fill: rgb(211.65, 104.55, 30.6); }
text {fill: rgb(0, 0, 0); text-anchor: middle; alignment-baseline: middle; }
circle.red {stroke: rgb(255, 0, 255); fill: none; }
circle.green {stroke: rgb(0, 255, 0); fill: none; }
circle.blue {stroke: rgb(0, 0, 255); fill: none; }
circle.black {stroke: rgb(0, 0, 0); fill: none; }
circle.gray {stroke: rgb(204, 204, 204); fill: none; }
circle.brown {stroke: rgb(211.65, 104.55, 30.6); fill: none; }
circle {stroke: rgb(0, 0, 0); }
line.red {stroke: rgb(255, 0, 255); stroke-width: 0.380627; }
line.green {stroke: rgb(0, 255, 0); stroke-width: 0.380627; }
line.blue {stroke: rgb(0, 0, 255); stroke-width: 0.380627; }
line.black {stroke: rgb(0, 0, 0); stroke-width: 0.380627; }
line.gray {stroke: rgb(204, 204, 204); stroke-width: 0.380627; }
line.brown {stroke: rgb(211.65, 104.55, 30.6); stroke-width: 0.380627; }
line {stroke: rgb(0, 0, 0); }
text.numbering-label {fill: rgb(204, 204, 204);}
line.numbering-line {stroke: rgb(204, 204, 204); stroke-width: 0.190313;}
line.predicted {stroke: rgb(0, 0, 0); stroke-dasharray: 2}
text.background {fill: rgb(255, 255, 255);
.template {visibility:hidden}
]]>
</style></g>
<g><title>0 (position.label in template: 0.5')</title><text x="78.3353" y="232.746" class="green" >5'</text></g>
<g><title>1 (position.label in template: 8.A)</title><text x="78.1255" y="225.191" class="black" >A</text></g>
<g><line x1="80.1555" y1="224.887" x2="88.1254" y2="224.887" class="black" /></g>
<g><title>2 (position.label in template: 9.U)</title><text x="77.9155" y="217.631" class="green" >U</text></g>
<g><line x1="79.9455" y1="217.327" x2="87.9154" y2="217.327" class="black" /></g>
<g><title>3 (position.label in template: 10.C)</title><text x="77.9155" y="210.071" class="green" >G</text></g>
<g><line x1="79.9455" y1="209.767" x2="87.9154" y2="209.767" class="black" /></g>
<g><title>4 (inserted)</title><text x="71.2234" y="212.435" class="red" >A</text></g>
<g><title>5 (position.label in template: 12.U)</title><text x="64.1319" y="212.143" class="blue" >U</text></g>
<g><title>6 (position.label in template: 13.U)</title><text x="57.657" y="209.236" class="blue" >U</text></g>
<g><title>7 (inserted)</title><text x="52.7262" y="204.131" class="red" >A</text></g>
<g><title>8 (inserted)</title><text x="50.0459" y="197.56" class="red" >A</text></g>
<g><title>9 (inserted)</title><text x="50" y="190.462" class="red" >U</text></g>
<g><title>10 (inserted)</title><text x="52.5951" y="183.856" class="red" >G</text></g>
<g><title>10 (inserted)</title><text x="46.8076" y="180.19" class="numbering-label sequential" >10</text></g>
<g><line x1="51.0518" y1="182.879" x2="48.6346" y2="181.347" class="numbering-line sequential" /></g>
<g><title>11 (inserted)</title><text x="57.4595" y="178.688" class="red" >A</text></g>
<g><title>12 (position.label in template: 19.U)</title><text x="63.8963" y="175.698" class="blue" >U</text></g>
<g><title>13 (position.label in template: 20.A)</title><text x="70.9834" y="175.314" class="blue" >A</text></g>
<g><title>14 (position.label in template: 21.G)</title><text x="77.7055" y="177.591" class="black" >G</text></g>
<g><line x1="79.7355" y1="177.287" x2="88.1254" y2="177.287" class="black" /></g>
<g><title>15 (position.label in template: 22.A)</title><text x="78.1255" y="170.031" class="black" >A</text></g>
<g><line x1="80.1555" y1="169.727" x2="88.1254" y2="169.727" class="black" /></g>
<g><title>16 (position.label in template: 23.Y)</title><text x="78.1255" y="162.471" class="green" >U</text></g>
<g><line x1="80.1552" y1="162.2" x2="88.2757" y2="162.334" class="black" /></g>
<g><title>17 (position.label in template: 24.U)</title><text x="71.3955" y="158.641" class="black" >U</text></g>
<g><title>18 (position.label in template: 25.A)</title><text x="67.0855" y="152.581" class="black" >A</text></g>
<g><title>19 (position.label in template: 26.A)</title><text x="65.3155" y="145.231" class="black" >A</text></g>
<g><title>20 (position.label in template: 27.G)</title><text x="66.1355" y="137.771" class="black" >G</text></g>
<g><title>20 (inserted)</title><text x="59.7357" y="135.325" class="numbering-label sequential" >20</text></g>
<g><line x1="64.4289" y1="137.119" x2="61.5627" y2="136.024" class="numbering-line sequential" /></g>
<g><title>21 (position.label in template: 28.A)</title><text x="70.6055" y="131.391" class="black" >A</text></g>
<g><title>22 (position.label in template: 29.A)</title><text x="76.8355" y="127.111" class="black" >A</text></g>
<g><title>23 (position.label in template: 30.A)</title><text x="84.2455" y="125.601" class="black" >A</text></g>
<g><title>24 (position.label in template: 31.N)</title><text x="91.5955" y="127.311" class="green" >A</text></g>
<g><title>25 (position.label in template: 32.U)</title><text x="97.6755" y="131.391" class="black" >U</text></g>
<g><title>26 (position.label in template: 33.N)</title><text x="101.875" y="137.981" class="green" >U</text></g>
<g><title>27 (position.label in template: 34.R)</title><text x="102.965" y="145.231" class="green" >G</text></g>
<g><title>28 (position.label in template: 35.G)</title><text x="100.975" y="152.581" class="black" >G</text></g>
<g><title>29 (position.label in template: 36.G)</title><text x="96.4655" y="158.641" class="black" >G</text></g>
<g><title>30 (position.label in template: 37.N)</title><text x="90.3055" y="162.671" class="green" >G</text></g>
<g><title>30 (inserted)</title><text x="96.2985" y="165.992" class="numbering-label sequential" >30</text></g>
<g><line x1="91.9036" y1="163.557" x2="94.4715" y2="164.979" class="numbering-line sequential" /></g>
<g><title>31 (position.label in template: 38.U)</title><text x="90.1555" y="170.031" class="black" >U</text></g>
<g><title>32 (position.label in template: 39.U)</title><text x="90.1555" y="177.591" class="black" >U</text></g>
<g><title>33 (position.label in template: 40.U)</title><text x="90.1644" y="188.418" class="blue" >U</text></g>
<g><title>34 (position.label in template: 41.U)</title><text x="90.0944" y="199.245" class="blue" >U</text></g>
<g><title>35 (position.label in template: 50.G)</title><text x="89.9455" y="210.071" class="green" >G</text></g>
<g><title>36 (position.label in template: 51.G)</title><text x="89.9455" y="217.631" class="green" >A</text></g>
<g><title>37 (position.label in template: 52.U)</title><text x="90.1555" y="225.191" class="black" >U</text></g>
<g><title>38 (position.label in template: 67.A)</title><text x="97.7042" y="225.554" class="black" >A</text></g>
<g><title>39 (position.label in template: 68.A)</title><text x="105.264" y="225.554" class="black" >A</text></g>
<g><title>40 (position.label in template: 69.G)</title><text x="112.414" y="225.554" class="black" >G</text></g>
<g><title>41 (position.label in template: 70.A)</title><text x="120.384" y="225.554" class="black" >A</text></g>
<g><title>42 (position.label in template: 71.U)</title><text x="125.524" y="220.204" class="black" >U</text></g>
<g><line x1="127.554" y1="219.899" x2="135.944" y2="219.899" class="black" /></g>
<g><title>43 (position.label in template: 72.G)</title><text x="125.314" y="212.644" class="black" >G</text></g>
<g><line x1="127.344" y1="212.339" x2="135.734" y2="212.339" class="black" /></g>
<g><title>44 (position.label in template: 73.C)</title><text x="125.524" y="205.084" class="black" >C</text></g>
<g><line x1="127.554" y1="204.779" x2="135.524" y2="204.779" class="black" /></g>
<g><title>45 (position.label in template: 74.C)</title><text x="125.524" y="197.524" class="black" >C</text></g>
<g><line x1="127.554" y1="197.219" x2="135.524" y2="197.219" class="black" /></g>
<g><title>46 (position.label in template: 75.U)</title><text x="125.524" y="189.964" class="black" >U</text></g>
<g><line x1="127.554" y1="189.659" x2="135.944" y2="189.659" class="black" /></g>
<g><title>47 (position.label in template: 76.C)</title><text x="125.524" y="182.404" class="black" >C</text></g>
<g><line x1="127.554" y1="182.099" x2="135.524" y2="182.099" class="black" /></g>
<g><title>48 (position.label in template: 77.U)</title><text x="125.524" y="174.844" class="black" >U</text></g>
<g><line x1="127.554" y1="174.539" x2="135.524" y2="174.539" class="black" /></g>
<g><title>49 (position.label in template: 78.U)</title><text x="118.814" y="171.364" class="black" >U</text></g>
<g><title>50 (position.label in template: 79.C)</title><text x="113.794" y="165.714" class="black" >C</text></g>
<g><title>50 (inserted)</title><text x="107.936" y="169.267" class="numbering-label sequential" >50</text></g>
<g><line x1="112.232" y1="166.661" x2="109.763" y2="168.159" class="numbering-line sequential" /></g>
<g><title>51 (position.label in template: 80.U)</title><text x="111.104" y="158.654" class="black" >U</text></g>
<g><title>52 (position.label in template: 81.U)</title><text x="111.104" y="151.094" class="black" >U</text></g>
<g><title>53 (position.label in template: 82.U)</title><text x="113.794" y="144.024" class="black" >U</text></g>
<g><title>54 (position.label in template: 83.C)</title><text x="118.814" y="138.384" class="black" >C</text></g>
<g><title>55 (position.label in template: 84.A)</title><text x="125.734" y="134.894" class="black" >A</text></g>
<g><line x1="127.764" y1="134.589" x2="135.734" y2="134.589" class="black" /></g>
<g><title>56 (position.label in template: 85.G)</title><text x="125.314" y="127.334" class="black" >G</text></g>
<g><line x1="127.344" y1="127.029" x2="135.734" y2="127.029" class="black" /></g>
<g><title>57 (position.label in template: 86.C)</title><text x="125.524" y="119.774" class="black" >C</text></g>
<g><line x1="127.554" y1="119.469" x2="135.524" y2="119.469" class="black" /></g>
<g><title>58 (inserted)</title><text x="124.769" y="114.472" class="red" >U</text></g>
<g><title>59 (position.label in template: 87.A)</title><text x="125.817" y="109.22" class="black" >A</text></g>
<g><line x1="127.847" y1="108.916" x2="135.817" y2="108.916" class="black" /></g>
<g><title>60 (position.label in template: 88.G)</title><text x="125.397" y="101.66" class="black" >G</text></g>
<g><line x1="127.427" y1="101.356" x2="135.817" y2="101.356" class="black" /></g>
<g><title>61 (position.label in template: 89.C)</title><text x="125.607" y="94.1003" class="black" >C</text></g>
<g><line x1="127.637" y1="93.7958" x2="135.607" y2="93.7958" class="black" /></g>
<g><title>62 (position.label in template: 90.A)</title><text x="125.817" y="86.5403" class="black" >A</text></g>
<g><line x1="127.847" y1="86.2358" x2="135.817" y2="86.2358" class="black" /></g>
<g><title>63 (position.label in template: 91.A)</title><text x="125.817" y="78.9803" class="black" >A</text></g>
<g><line x1="127.847" y1="78.6758" x2="135.817" y2="78.6758" class="black" /></g>
<g><title>64 (position.label in template: 92.G)</title><text x="125.397" y="71.4203" class="black" >G</text></g>
<g><line x1="127.427" y1="71.1158" x2="135.817" y2="71.1158" class="black" /></g>
<g><title>65 (position.label in template: 93.A)</title><text x="125.817" y="63.8603" class="black" >A</text></g>
<g><line x1="127.847" y1="63.5558" x2="135.817" y2="63.5558" class="black" /></g>
<g><title>66 (position.label in template: 94.U)</title><text x="123.599" y="58.0515" class="blue" >U</text></g>
<g><title>67 (inserted)</title><text x="126.074" y="52.3474" class="red" >C</text></g>
<g><title>68 (position.label in template: 95.U)</title><text x="131.832" y="50" class="green" >C</text></g>
<g><title>69 (position.label in template: 96.A)</title><text x="137.59" y="52.3474" class="blue" >A</text></g>
<g><title>70 (position.label in template: 97.U)</title><text x="140.066" y="58.0515" class="blue" >U</text></g>
<g><title>71 (position.label in template: 98.U)</title><text x="137.847" y="63.8603" class="black" >U</text></g>
<g><title>72 (position.label in template: 99.C)</title><text x="137.847" y="71.4203" class="black" >C</text></g>
<g><title>73 (position.label in template: 100.U)</title><text x="137.847" y="78.9803" class="black" >U</text></g>
<g><title>74 (position.label in template: 101.U)</title><text x="137.847" y="86.5403" class="black" >U</text></g>
<g><title>75 (position.label in template: 102.G)</title><text x="137.637" y="94.1003" class="black" >G</text></g>
<g><title>76 (position.label in template: 103.U)</title><text x="137.847" y="101.66" class="black" >U</text></g>
<g><title>77 (position.label in template: 104.U)</title><text x="137.847" y="109.22" class="black" >U</text></g>
<g><title>78 (position.label in template: 105.A)</title><text x="138.602" y="114.522" class="blue" >A</text></g>
<g><title>79 (position.label in template: 106.G)</title><text x="137.554" y="119.774" class="black" >G</text></g>
<g><title>80 (position.label in template: 107.C)</title><text x="137.764" y="127.334" class="black" >C</text></g>
<g><title>81 (position.label in template: 108.U)</title><text x="137.764" y="134.894" class="black" >U</text></g>
<g><title>82 (position.label in template: 109.U)</title><text x="145.114" y="136.694" class="black" >U</text></g>
<g><title>83 (position.label in template: 110.U)</title><text x="151.264" y="141.084" class="black" >U</text></g>
<g><title>84 (position.label in template: 111.G)</title><text x="155.134" y="147.444" class="black" >G</text></g>
<g><title>85 (position.label in template: 112.U)</title><text x="156.774" y="154.874" class="black" >U</text></g>
<g><title>86 (position.label in template: 113.U)</title><text x="155.344" y="162.294" class="black" >U</text></g>
<g><title>87 (position.label in template: 114.C)</title><text x="151.264" y="168.654" class="black" >C</text></g>
<g><title>88 (position.label in template: 115.U)</title><text x="145.114" y="173.054" class="black" >U</text></g>
<g><title>89 (position.label in template: 116.G)</title><text x="137.554" y="174.844" class="black" >G</text></g>
<g><title>90 (position.label in template: 117.G)</title><text x="137.554" y="182.404" class="black" >G</text></g>
<g><title>91 (position.label in template: 118.A)</title><text x="137.974" y="189.964" class="black" >A</text></g>
<g><title>92 (position.label in template: 119.G)</title><text x="137.554" y="197.524" class="black" >G</text></g>
<g><title>93 (position.label in template: 120.G)</title><text x="137.554" y="205.084" class="black" >G</text></g>
<g><title>94 (position.label in template: 121.C)</title><text x="137.764" y="212.644" class="black" >C</text></g>
<g><title>95 (position.label in template: 122.A)</title><text x="137.974" y="220.204" class="black" >A</text></g>
<g><title>96 (position.label in template: 123.C)</title><text x="143.21" y="225.654" class="black" >C</text></g>
<g><title>97 (position.label in template: 124.A)</title><text x="150.768" y="225.654" class="black" >A</text></g>
<g><title>98 (position.label in template: 125.G)</title><text x="158.325" y="225.654" class="green" >U</text></g>
<g><title>99 (position.label in template: 126.A)</title><text x="165.882" y="225.654" class="black" >A</text></g>
<g><title>100 (position.label in template: 127.U)</title><text x="173.44" y="225.654" class="black" >U</text></g>
<g><title>101 (position.label in template: 128.3')</title><text x="180.997" y="225.654" class="green" >3'</text></g>
<g><line x1="78.2789" y1="230.412" x2="78.1818" y2="226.916" class="gray" /></g>
<g><line x1="78.0691" y1="222.857" x2="77.9718" y2="219.356" class="gray" /></g>
<g><line x1="77.9155" y1="215.297" x2="77.9155" y2="211.797" class="gray" /></g>
<g><line x1="76.0014" y1="210.443" x2="73.1374" y2="211.455" class="gray" /></g>
<g><line x1="69.1951" y1="212.047" x2="66.1602" y2="211.922" class="gray" /></g>
<g><line x1="62.28" y1="211.007" x2="59.509" y2="209.763" class="gray" /></g>
<g><line x1="56.2467" y1="207.472" x2="54.1365" y2="205.287" class="gray" /></g>
<g><line x1="51.9596" y1="201.947" x2="50.8125" y2="199.135" class="gray" /></g>
<g><line x1="50.0328" y1="195.225" x2="50.0131" y2="192.188" class="gray" /></g>
<g><line x1="50.7423" y1="188.268" x2="51.8529" y2="185.441" class="gray" /></g>
<g><line x1="53.9864" y1="182.074" x2="56.0682" y2="179.862" class="gray" /></g>
<g><line x1="59.3006" y1="177.528" x2="62.0552" y2="176.248" class="gray" /></g>
<g><line x1="65.9233" y1="175.283" x2="68.9563" y2="175.119" class="gray" /></g>
<g><line x1="72.906" y1="175.661" x2="75.7828" y2="176.635" class="gray" /></g>
<g><line x1="77.8181" y1="175.26" x2="78.0129" y2="171.754" class="gray" /></g>
<g><line x1="78.1255" y1="167.697" x2="78.1255" y2="164.197" class="gray" /></g>
<g><line x1="76.3611" y1="161.163" x2="73.1598" y2="159.341" class="gray" /></g>
<g><line x1="70.2189" y1="156.683" x2="68.262" y2="153.931" class="gray" /></g>
<g><line x1="66.6102" y1="150.303" x2="65.7907" y2="146.9" class="gray" /></g>
<g><line x1="65.5373" y1="142.909" x2="65.9137" y2="139.485" class="gray" /></g>
<g><line x1="67.3003" y1="135.804" x2="69.4406" y2="132.749" class="gray" /></g>
<g><line x1="72.2787" y1="129.937" x2="75.1623" y2="127.956" class="gray" /></g>
<g><line x1="78.8246" y1="126.402" x2="82.2563" y2="125.702" class="gray" /></g>
<g><line x1="86.2227" y1="125.757" x2="89.6183" y2="126.547" class="gray" /></g>
<g><line x1="93.2811" y1="128.138" x2="95.9898" y2="129.956" class="gray" /></g>
<g><line x1="98.7665" y1="132.799" x2="100.784" y2="135.965" class="gray" /></g>
<g><line x1="102.177" y1="139.684" x2="102.664" y2="142.919" class="gray" /></g>
<g><line x1="102.435" y1="146.886" x2="101.506" y2="150.317" class="gray" /></g>
<g><line x1="99.7635" y1="153.905" x2="97.6774" y2="156.708" class="gray" /></g>
<g><line x1="94.7667" y1="159.448" x2="92.0042" y2="161.256" class="gray" /></g>
<g><line x1="90.2641" y1="164.396" x2="90.1968" y2="167.697" class="gray" /></g>
<g><line x1="90.1555" y1="171.757" x2="90.1555" y2="175.257" class="gray" /></g>
<g><line x1="90.1571" y1="179.317" x2="90.1627" y2="186.084" class="gray" /></g>
<g><line x1="90.1513" y1="190.144" x2="90.1075" y2="196.911" class="gray" /></g>
<g><line x1="90.0665" y1="200.97" x2="89.9734" y2="207.737" class="gray" /></g>
<g><line x1="89.9455" y1="211.797" x2="89.9455" y2="215.297" class="gray" /></g>
<g><line x1="90.0018" y1="219.356" x2="90.0991" y2="222.857" class="gray" /></g>
<g><line x1="92.1831" y1="224.984" x2="95.6765" y2="225.152" class="gray" /></g>
<g><line x1="99.7342" y1="225.249" x2="103.234" y2="225.249" class="gray" /></g>
<g><line x1="107.294" y1="225.249" x2="110.384" y2="225.249" class="gray" /></g>
<g><line x1="114.444" y1="225.249" x2="118.354" y2="225.249" class="gray" /></g>
<g><line x1="121.791" y1="223.785" x2="124.118" y2="221.363" class="gray" /></g>
<g><line x1="125.468" y1="217.87" x2="125.371" y2="214.368" class="gray" /></g>
<g><line x1="125.371" y1="210.31" x2="125.468" y2="206.808" class="gray" /></g>
<g><line x1="125.524" y1="202.749" x2="125.524" y2="199.249" class="gray" /></g>
<g><line x1="125.524" y1="195.189" x2="125.524" y2="191.689" class="gray" /></g>
<g><line x1="125.524" y1="187.629" x2="125.524" y2="184.129" class="gray" /></g>
<g><line x1="125.524" y1="180.069" x2="125.524" y2="176.569" class="gray" /></g>
<g><line x1="123.722" y1="173.605" x2="120.616" y2="171.994" class="gray" /></g>
<g><line x1="117.466" y1="169.542" x2="115.143" y2="166.927" class="gray" /></g>
<g><line x1="113.071" y1="163.512" x2="111.827" y2="160.246" class="gray" /></g>
<g><line x1="111.104" y1="156.319" x2="111.104" y2="152.819" class="gray" /></g>
<g><line x1="111.826" y1="148.892" x2="113.072" y2="145.617" class="gray" /></g>
<g><line x1="115.144" y1="142.203" x2="117.465" y2="139.596" class="gray" /></g>
<g><line x1="120.627" y1="137.165" x2="123.922" y2="135.503" class="gray" /></g>
<g><line x1="125.622" y1="132.562" x2="125.427" y2="129.056" class="gray" /></g>
<g><line x1="125.371" y1="125" x2="125.468" y2="121.498" class="gray" /></g>
<g><line x1="125.238" y1="117.459" x2="125.056" y2="116.177" class="gray" /></g>
<g><line x1="125.167" y1="112.177" x2="125.42" y2="110.907" class="gray" /></g>
<g><line x1="125.705" y1="106.889" x2="125.51" y2="103.383" class="gray" /></g>
<g><line x1="125.454" y1="99.3266" x2="125.551" y2="95.8251" class="gray" /></g>
<g><line x1="125.664" y1="91.7666" x2="125.761" y2="88.2651" class="gray" /></g>
<g><line x1="125.817" y1="84.2058" x2="125.817" y2="80.7058" class="gray" /></g>
<g><line x1="125.705" y1="76.649" x2="125.51" y2="73.1427" class="gray" /></g>
<g><line x1="125.51" y1="69.089" x2="125.705" y2="65.5827" class="gray" /></g>
<g><line x1="125.093" y1="61.6594" x2="124.323" y2="59.6434" class="gray" /></g>
<g><line x1="124.407" y1="55.8848" x2="125.266" y2="53.9051" class="gray" /></g>
<g><line x1="127.954" y1="51.2766" x2="129.953" y2="50.4619" class="gray" /></g>
<g><line x1="133.712" y1="50.4619" x2="135.71" y2="51.2766" class="gray" /></g>
<g><line x1="138.398" y1="53.9051" x2="139.257" y2="55.8848" class="gray" /></g>
<g><line x1="139.341" y1="59.6434" x2="138.572" y2="61.6594" class="gray" /></g>
<g><line x1="137.847" y1="65.5858" x2="137.847" y2="69.0858" class="gray" /></g>
<g><line x1="137.847" y1="73.1458" x2="137.847" y2="76.6458" class="gray" /></g>
<g><line x1="137.847" y1="80.7058" x2="137.847" y2="84.2058" class="gray" /></g>
<g><line x1="137.791" y1="88.2651" x2="137.694" y2="91.7666" class="gray" /></g>
<g><line x1="137.694" y1="95.8251" x2="137.791" y2="99.3266" class="gray" /></g>
<g><line x1="137.847" y1="103.386" x2="137.847" y2="106.886" class="gray" /></g>
<g><line x1="138.133" y1="110.926" x2="138.316" y2="112.208" class="gray" /></g>
<g><line x1="138.205" y1="116.208" x2="137.951" y2="117.478" class="gray" /></g>
<g><line x1="137.611" y1="121.498" x2="137.708" y2="125" class="gray" /></g>
<g><line x1="137.764" y1="129.059" x2="137.764" y2="132.559" class="gray" /></g>
<g><line x1="139.736" y1="135.072" x2="143.142" y2="135.906" class="gray" /></g>
<g><line x1="146.766" y1="137.569" x2="149.612" y2="139.6" class="gray" /></g>
<g><line x1="152.319" y1="142.513" x2="154.079" y2="145.405" class="gray" /></g>
<g><line x1="155.572" y1="149.122" x2="156.337" y2="152.587" class="gray" /></g>
<g><line x1="156.39" y1="156.563" x2="155.728" y2="159.996" class="gray" /></g>
<g><line x1="154.248" y1="163.698" x2="152.36" y2="166.641" class="gray" /></g>
<g><line x1="149.613" y1="169.53" x2="146.765" y2="171.568" class="gray" /></g>
<g><line x1="143.139" y1="173.217" x2="139.53" y2="174.071" class="gray" /></g>
<g><line x1="137.554" y1="176.569" x2="137.554" y2="180.069" class="gray" /></g>
<g><line x1="137.667" y1="184.126" x2="137.862" y2="187.632" class="gray" /></g>
<g><line x1="137.862" y1="191.686" x2="137.667" y2="195.192" class="gray" /></g>
<g><line x1="137.554" y1="199.249" x2="137.554" y2="202.749" class="gray" /></g>
<g><line x1="137.611" y1="206.808" x2="137.708" y2="210.31" class="gray" /></g>
<g><line x1="137.821" y1="214.368" x2="137.918" y2="217.87" class="gray" /></g>
<g><line x1="139.381" y1="221.363" x2="141.804" y2="223.885" class="gray" /></g>
<g><line x1="145.24" y1="225.349" x2="148.738" y2="225.349" class="gray" /></g>
<g><line x1="152.798" y1="225.349" x2="156.295" y2="225.349" class="gray" /></g>
<g><line x1="160.355" y1="225.349" x2="163.852" y2="225.349" class="gray" /></g>
<g><line x1="167.912" y1="225.349" x2="171.41" y2="225.349" class="gray" /></g>
<g><line x1="175.47" y1="225.349" x2="178.967" y2="225.349" class="gray" /></g>
</svg>
