<svg
	xmlns="http://www.w3.org/2000/svg"
	width="287.396"
	height="272.66"
	style="font-size: 3.045014px; font-weight: bold; font-family: Helvetica; " >
<g><style type="text/css" >
<!-- create color definitions -->
<![CDATA[
text.red {fill: rgb(255, 0, 255); }
text.green {fill: rgb(0, 255, 0); }
text.blue {fill: rgb(0, 0, 255); }
text.black {fill: rgb(0, 0, 0); }
text.gray {fill: rgb(204, 204, 204); }
text.brown {fill: rgb(211.65, 104.55, 30.6); }
text {fill: rgb(0, 0, 0); text-anchor: middle; alignment-baseline: middle; }
circle.red {stroke: rgb(255, 0, 255); fill: none; }
circle.green {stroke: rgb(0, 255, 0); fill: none; }
circle.blue {stroke: rgb(0, 0, 255); fill: none; }
circle.black {stroke: rgb(0, 0, 0); fill: none; }
circle.gray {stroke: rgb(204, 204, 204); fill: none; }
circle.brown {stroke: rgb(211.65, 104.55, 30.6); fill: none; }
circle {stroke: rgb(0, 0, 0); }
line.red {stroke: rgb(255, 0, 255); stroke-width: 0.380627; }
line.green {stroke: rgb(0, 255, 0); stroke-width: 0.380627; }
line.blue {stroke: rgb(0, 0, 255); stroke-width: 0.380627; }
line.black {stroke: rgb(0, 0, 0); stroke-width: 0.380627; }
line.gray {stroke: rgb(204, 204, 204); stroke-width: 0.380627; }
line.brown {stroke: rgb(211.65, 104.55, 30.6); stroke-width: 0.380627; }
line {stroke: rgb(0, 0, 0); }
text.numbering-label {fill: rgb(204, 204, 204);}
line.numbering-line {stroke: rgb(204, 204, 204); stroke-width: 0.190313;}
line.predicted {stroke: rgb(0, 0, 0); stroke-dasharray: 2}
text.background {fill: rgb(255, 255, 255);
.template {visibility:hidden}
]]>
</style></g>
<g><title>0 (position.label in template: 0.5')</title><text x="60.5297" y="155.94" class="green" >5'</text></g>
<g><title>1 (position.label in template: 24.U)</title><text x="56.1495" y="149.782" class="black" >U</text></g>
<g><title>2 (position.label in template: 25.A)</title><text x="51.7694" y="143.623" class="green" >U</text></g>
<g><title>3 (position.label in template: 26.A)</title><text x="50" y="136.276" class="green" >G</text></g>
<g><title>4 (position.label in template: 27.G)</title><text x="50.8257" y="128.764" class="black" >G</text></g>
<g><title>5 (position.label in template: 28.A)</title><text x="55.1623" y="122.574" class="green" >U</text></g>
<g><title>6 (position.label in template: 29.A)</title><text x="61.3914" y="118.295" class="black" >A</text></g>
<g><title>7 (inserted)</title><text x="63.693" y="125.493" class="red" >A</text></g>
<g><title>8 (inserted)</title><text x="65.9946" y="132.692" class="red" >A</text></g>
<g><title>9 (inserted)</title><text x="68.2962" y="139.89" class="red" >U</text></g>
<g><title>10 (position.label in template: 40.U)</title><text x="70.5978" y="147.088" class="green" >A</text></g>
<g><title>10 (inserted)</title><text x="63.8284" y="148.144" class="numbering-label sequential" >10</text></g>
<g><line x1="68.7926" y1="147.37" x2="65.6554" y2="147.859" class="numbering-line sequential" /></g>
<g><title>11 (position.label in template: 41.U)</title><text x="70.5978" y="154.646" class="black" >U</text></g>
<g><title>12 (inserted)</title><text x="70.5978" y="162.203" class="red" >U</text></g>
<g><title>13 (inserted)</title><text x="70.5978" y="169.761" class="red" >U</text></g>
<g><title>14 (inserted)</title><text x="70.5978" y="177.318" class="red" >A</text></g>
<g><title>15 (inserted)</title><text x="70.5978" y="184.876" class="red" >U</text></g>
<g><title>16 (inserted)</title><text x="70.5978" y="192.433" class="red" >U</text></g>
<g><title>17 (position.label in template: 47.U)</title><text x="70.5978" y="199.991" class="black" >U</text></g>
<g><title>18 (position.label in template: 48.U)</title><text x="70.5978" y="207.548" class="black" >U</text></g>
<g><title>19 (inserted)</title><text x="70.7403" y="215.104" class="red" >U</text></g>
<g><title>20 (position.label in template: 53.U)</title><text x="70.8828" y="222.66" class="green" >C</text></g>
<g><title>20 (inserted)</title><text x="66.0841" y="227.55" class="numbering-label sequential" >20</text></g>
<g><line x1="69.6031" y1="223.964" x2="67.5781" y2="226.028" class="numbering-line sequential" /></g>
<g><title>21 (position.label in template: 54.U)</title><text x="78.4402" y="222.66" class="black" >U</text></g>
<g><title>22 (position.label in template: 55.U)</title><text x="85.9977" y="222.66" class="black" >U</text></g>
<g><title>23 (position.label in template: 56.U)</title><text x="93.5551" y="222.66" class="black" >U</text></g>
<g><title>24 (position.label in template: 57.G)</title><text x="101.113" y="222.66" class="black" >G</text></g>
<g><title>25 (position.label in template: 58.A)</title><text x="108.67" y="222.66" class="black" >A</text></g>
<g><title>26 (position.label in template: 59.U)</title><text x="116.227" y="222.66" class="green" >A</text></g>
<g><title>27 (position.label in template: 60.A)</title><text x="123.785" y="222.66" class="green" >C</text></g>
<g><title>28 (position.label in template: 61.A)</title><text x="131.342" y="222.66" class="black" >A</text></g>
<g><title>29 (position.label in template: 62.A)</title><text x="138.9" y="222.66" class="green" >U</text></g>
<g><title>30 (position.label in template: 63.G)</title><text x="146.457" y="222.66" class="green" >U</text></g>
<g><title>30 (inserted)</title><text x="146.457" y="229.511" class="numbering-label sequential" >30</text></g>
<g><line x1="146.457" y1="224.487" x2="146.457" y2="227.989" class="numbering-line sequential" /></g>
<g><title>31 (position.label in template: 66.A)</title><text x="154.015" y="222.66" class="green" >U</text></g>
<g><title>32 (position.label in template: 67.A)</title><text x="161.572" y="222.66" class="green" >G</text></g>
<g><title>33 (position.label in template: 68.A)</title><text x="169.13" y="222.66" class="green" >U</text></g>
<g><title>34 (position.label in template: 69.G)</title><text x="176.687" y="222.66" class="black" >G</text></g>
<g><title>35 (position.label in template: 70.A)</title><text x="184.244" y="222.66" class="black" >A</text></g>
<g><title>36 (position.label in template: 71.U)</title><text x="189.48" y="217.21" class="black" >U</text></g>
<g><line x1="191.51" y1="216.906" x2="199.9" y2="216.906" class="black" /></g>
<g><title>37 (position.label in template: 72.G)</title><text x="189.27" y="209.65" class="black" >G</text></g>
<g><line x1="191.3" y1="209.346" x2="199.69" y2="209.346" class="black" /></g>
<g><title>38 (position.label in template: 73.C)</title><text x="189.48" y="202.09" class="black" >C</text></g>
<g><line x1="191.51" y1="201.786" x2="199.48" y2="201.786" class="black" /></g>
<g><title>39 (position.label in template: 74.C)</title><text x="189.48" y="194.53" class="black" >C</text></g>
<g><line x1="191.51" y1="194.226" x2="199.48" y2="194.226" class="black" /></g>
<g><title>40 (position.label in template: 75.U)</title><text x="189.48" y="186.97" class="black" >U</text></g>
<g><line x1="191.51" y1="186.666" x2="199.9" y2="186.666" class="black" /></g>
<g><title>41 (position.label in template: 76.C)</title><text x="189.48" y="179.41" class="black" >C</text></g>
<g><line x1="191.51" y1="179.106" x2="199.48" y2="179.106" class="black" /></g>
<g><title>42 (position.label in template: 77.U)</title><text x="189.48" y="171.85" class="black" >U</text></g>
<g><line x1="191.51" y1="171.546" x2="199.48" y2="171.546" class="black" /></g>
<g><title>43 (position.label in template: 78.U)</title><text x="182.77" y="168.37" class="black" >U</text></g>
<g><title>44 (position.label in template: 79.C)</title><text x="177.75" y="162.72" class="black" >C</text></g>
<g><title>45 (position.label in template: 80.U)</title><text x="175.06" y="155.66" class="black" >U</text></g>
<g><title>46 (position.label in template: 81.U)</title><text x="175.06" y="148.1" class="black" >U</text></g>
<g><title>47 (position.label in template: 82.U)</title><text x="177.75" y="141.03" class="black" >U</text></g>
<g><title>48 (position.label in template: 83.C)</title><text x="182.77" y="135.39" class="black" >C</text></g>
<g><title>49 (position.label in template: 84.A)</title><text x="189.69" y="131.9" class="black" >A</text></g>
<g><line x1="191.72" y1="131.596" x2="199.69" y2="131.596" class="black" /></g>
<g><title>50 (position.label in template: 85.G)</title><text x="189.27" y="124.34" class="black" >G</text></g>
<g><line x1="191.3" y1="124.036" x2="199.69" y2="124.036" class="black" /></g>
<g><title>50 (inserted)</title><text x="182.42" y="124.435" class="numbering-label sequential" >50</text></g>
<g><line x1="187.443" y1="124.366" x2="184.247" y2="124.41" class="numbering-line sequential" /></g>
<g><title>51 (position.label in template: 86.C)</title><text x="189.48" y="116.78" class="black" >C</text></g>
<g><line x1="191.51" y1="116.476" x2="199.48" y2="116.476" class="black" /></g>
<g><title>52 (position.label in template: 87.A)</title><text x="189.69" y="109.22" class="black" >A</text></g>
<g><line x1="191.72" y1="108.916" x2="199.69" y2="108.916" class="black" /></g>
<g><title>53 (position.label in template: 88.G)</title><text x="189.27" y="101.66" class="black" >G</text></g>
<g><line x1="191.3" y1="101.356" x2="199.69" y2="101.356" class="black" /></g>
<g><title>54 (position.label in template: 89.C)</title><text x="189.48" y="94.1003" class="black" >C</text></g>
<g><line x1="191.51" y1="93.7958" x2="199.48" y2="93.7958" class="black" /></g>
<g><title>55 (position.label in template: 90.A)</title><text x="189.69" y="86.5403" class="black" >A</text></g>
<g><line x1="191.72" y1="86.2358" x2="199.69" y2="86.2358" class="black" /></g>
<g><title>56 (position.label in template: 91.A)</title><text x="189.69" y="78.9803" class="black" >A</text></g>
<g><line x1="191.72" y1="78.6758" x2="199.69" y2="78.6758" class="black" /></g>
<g><title>57 (position.label in template: 92.G)</title><text x="189.27" y="71.4203" class="black" >G</text></g>
<g><line x1="191.3" y1="71.1158" x2="199.69" y2="71.1158" class="black" /></g>
<g><title>58 (position.label in template: 93.A)</title><text x="189.69" y="63.8603" class="black" >A</text></g>
<g><line x1="191.72" y1="63.5558" x2="199.69" y2="63.5558" class="black" /></g>
<g><title>59 (inserted)</title><text x="187.472" y="58.0515" class="red" >U</text></g>
<g><title>60 (position.label in template: 94.U)</title><text x="189.947" y="52.3474" class="blue" >U</text></g>
<g><title>61 (position.label in template: 95.U)</title><text x="195.705" y="50" class="blue" >U</text></g>
<g><title>62 (position.label in template: 96.A)</title><text x="201.463" y="52.3474" class="blue" >A</text></g>
<g><title>63 (position.label in template: 97.U)</title><text x="203.939" y="58.0515" class="blue" >U</text></g>
<g><title>64 (position.label in template: 98.U)</title><text x="201.72" y="63.8603" class="black" >U</text></g>
<g><title>65 (position.label in template: 99.C)</title><text x="201.72" y="71.4203" class="black" >C</text></g>
<g><title>66 (position.label in template: 100.U)</title><text x="201.72" y="78.9803" class="black" >U</text></g>
<g><title>67 (position.label in template: 101.U)</title><text x="201.72" y="86.5403" class="black" >U</text></g>
<g><title>68 (position.label in template: 102.G)</title><text x="201.51" y="94.1003" class="black" >G</text></g>
<g><title>69 (position.label in template: 103.U)</title><text x="201.72" y="101.66" class="black" >U</text></g>
<g><title>70 (position.label in template: 104.U)</title><text x="201.72" y="109.22" class="black" >U</text></g>
<g><title>71 (position.label in template: 105.A)</title><text x="208.48" y="113" class="black" >A</text></g>
<g><title>72 (position.label in template: 106.G)</title><text x="201.51" y="116.78" class="black" >G</text></g>
<g><title>73 (position.label in template: 107.C)</title><text x="201.72" y="124.34" class="black" >C</text></g>
<g><title>74 (position.label in template: 108.U)</title><text x="201.72" y="131.9" class="black" >U</text></g>
<g><title>75 (position.label in template: 109.U)</title><text x="209.07" y="133.7" class="black" >U</text></g>
<g><title>76 (position.label in template: 110.U)</title><text x="215.22" y="138.09" class="black" >U</text></g>
<g><title>77 (position.label in template: 111.G)</title><text x="219.09" y="144.45" class="black" >G</text></g>
<g><title>78 (position.label in template: 112.U)</title><text x="220.73" y="151.88" class="black" >U</text></g>
<g><title>79 (position.label in template: 113.U)</title><text x="219.3" y="159.3" class="black" >U</text></g>
<g><title>80 (position.label in template: 114.C)</title><text x="215.22" y="165.66" class="black" >C</text></g>
<g><title>81 (position.label in template: 115.U)</title><text x="209.07" y="170.06" class="black" >U</text></g>
<g><title>82 (position.label in template: 116.G)</title><text x="201.51" y="171.85" class="black" >G</text></g>
<g><title>83 (position.label in template: 117.G)</title><text x="201.51" y="179.41" class="black" >G</text></g>
<g><title>84 (position.label in template: 118.A)</title><text x="201.93" y="186.97" class="black" >A</text></g>
<g><title>85 (position.label in template: 119.G)</title><text x="201.51" y="194.53" class="black" >G</text></g>
<g><title>86 (position.label in template: 120.G)</title><text x="201.51" y="202.09" class="black" >G</text></g>
<g><title>87 (position.label in template: 121.C)</title><text x="201.72" y="209.65" class="black" >C</text></g>
<g><title>88 (position.label in template: 122.A)</title><text x="201.93" y="217.21" class="black" >A</text></g>
<g><title>89 (position.label in template: 123.C)</title><text x="207.166" y="222.66" class="black" >C</text></g>
<g><title>90 (position.label in template: 124.A)</title><text x="214.724" y="222.66" class="black" >A</text></g>
<g><title>91 (position.label in template: 125.G)</title><text x="222.281" y="222.66" class="green" >U</text></g>
<g><title>92 (position.label in template: 126.A)</title><text x="229.839" y="222.66" class="black" >A</text></g>
<g><title>93 (position.label in template: 127.U)</title><text x="237.396" y="222.66" class="black" >U</text></g>
<g><title>94 (position.label in template: 128.3')</title><text x="244.953" y="222.66" class="green" >3'</text></g>
<g><line x1="59.3532" y1="153.982" x2="57.3261" y2="151.132" class="gray" /></g>
<g><line x1="54.973" y1="147.823" x2="52.9459" y2="144.973" class="gray" /></g>
<g><line x1="51.2941" y1="141.345" x2="50.4753" y2="137.945" class="gray" /></g>
<g><line x1="50.2218" y1="133.953" x2="50.6039" y2="130.477" class="gray" /></g>
<g><line x1="51.9906" y1="126.796" x2="53.9974" y2="123.932" class="gray" /></g>
<g><line x1="56.8355" y1="121.12" x2="59.7182" y2="119.14" class="gray" /></g>
<g><line x1="62.0096" y1="119.924" x2="63.0747" y2="123.255" class="gray" /></g>
<g><line x1="64.3112" y1="127.122" x2="65.3763" y2="130.453" class="gray" /></g>
<g><line x1="66.6128" y1="134.321" x2="67.678" y2="137.652" class="gray" /></g>
<g><line x1="68.9144" y1="141.519" x2="69.9796" y2="144.85" class="gray" /></g>
<g><line x1="70.5978" y1="148.814" x2="70.5978" y2="152.311" class="gray" /></g>
<g><line x1="70.5978" y1="156.371" x2="70.5978" y2="159.869" class="gray" /></g>
<g><line x1="70.5978" y1="163.929" x2="70.5978" y2="167.426" class="gray" /></g>
<g><line x1="70.5978" y1="171.486" x2="70.5978" y2="174.984" class="gray" /></g>
<g><line x1="70.5978" y1="179.044" x2="70.5978" y2="182.541" class="gray" /></g>
<g><line x1="70.5978" y1="186.601" x2="70.5978" y2="190.099" class="gray" /></g>
<g><line x1="70.5978" y1="194.159" x2="70.5978" y2="197.656" class="gray" /></g>
<g><line x1="70.5978" y1="201.716" x2="70.5978" y2="205.213" class="gray" /></g>
<g><line x1="70.6361" y1="209.273" x2="70.702" y2="212.77" class="gray" /></g>
<g><line x1="70.7786" y1="216.829" x2="70.8445" y2="220.326" class="gray" /></g>
<g><line x1="72.9128" y1="222.356" x2="76.4102" y2="222.356" class="gray" /></g>
<g><line x1="80.4702" y1="222.356" x2="83.9677" y2="222.356" class="gray" /></g>
<g><line x1="88.0277" y1="222.356" x2="91.5251" y2="222.356" class="gray" /></g>
<g><line x1="95.5851" y1="222.356" x2="99.0825" y2="222.356" class="gray" /></g>
<g><line x1="103.143" y1="222.356" x2="106.64" y2="222.356" class="gray" /></g>
<g><line x1="110.7" y1="222.356" x2="114.197" y2="222.356" class="gray" /></g>
<g><line x1="118.257" y1="222.356" x2="121.755" y2="222.356" class="gray" /></g>
<g><line x1="125.815" y1="222.356" x2="129.312" y2="222.356" class="gray" /></g>
<g><line x1="133.372" y1="222.356" x2="136.87" y2="222.356" class="gray" /></g>
<g><line x1="140.93" y1="222.356" x2="144.427" y2="222.356" class="gray" /></g>
<g><line x1="148.487" y1="222.356" x2="151.985" y2="222.356" class="gray" /></g>
<g><line x1="156.045" y1="222.356" x2="159.542" y2="222.356" class="gray" /></g>
<g><line x1="163.602" y1="222.356" x2="167.1" y2="222.356" class="gray" /></g>
<g><line x1="171.16" y1="222.356" x2="174.657" y2="222.356" class="gray" /></g>
<g><line x1="178.717" y1="222.356" x2="182.214" y2="222.356" class="gray" /></g>
<g><line x1="185.651" y1="220.892" x2="188.074" y2="218.37" class="gray" /></g>
<g><line x1="189.424" y1="214.877" x2="189.327" y2="211.375" class="gray" /></g>
<g><line x1="189.327" y1="207.317" x2="189.424" y2="203.815" class="gray" /></g>
<g><line x1="189.48" y1="199.756" x2="189.48" y2="196.256" class="gray" /></g>
<g><line x1="189.48" y1="192.196" x2="189.48" y2="188.696" class="gray" /></g>
<g><line x1="189.48" y1="184.636" x2="189.48" y2="181.136" class="gray" /></g>
<g><line x1="189.48" y1="177.076" x2="189.48" y2="173.576" class="gray" /></g>
<g><line x1="187.678" y1="170.611" x2="184.572" y2="169" class="gray" /></g>
<g><line x1="181.422" y1="166.548" x2="179.099" y2="163.933" class="gray" /></g>
<g><line x1="177.028" y1="160.519" x2="175.783" y2="157.253" class="gray" /></g>
<g><line x1="175.06" y1="153.326" x2="175.06" y2="149.826" class="gray" /></g>
<g><line x1="175.782" y1="145.899" x2="177.028" y2="142.623" class="gray" /></g>
<g><line x1="179.1" y1="139.209" x2="181.421" y2="136.602" class="gray" /></g>
<g><line x1="184.583" y1="134.172" x2="187.878" y2="132.51" class="gray" /></g>
<g><line x1="189.578" y1="129.569" x2="189.383" y2="126.063" class="gray" /></g>
<g><line x1="189.327" y1="122.007" x2="189.424" y2="118.505" class="gray" /></g>
<g><line x1="189.537" y1="114.447" x2="189.634" y2="110.945" class="gray" /></g>
<g><line x1="189.578" y1="106.889" x2="189.383" y2="103.383" class="gray" /></g>
<g><line x1="189.327" y1="99.3266" x2="189.424" y2="95.8251" class="gray" /></g>
<g><line x1="189.537" y1="91.7666" x2="189.634" y2="88.2651" class="gray" /></g>
<g><line x1="189.69" y1="84.2058" x2="189.69" y2="80.7058" class="gray" /></g>
<g><line x1="189.578" y1="76.649" x2="189.383" y2="73.1427" class="gray" /></g>
<g><line x1="189.383" y1="69.089" x2="189.578" y2="65.5827" class="gray" /></g>
<g><line x1="188.966" y1="61.6594" x2="188.196" y2="59.6434" class="gray" /></g>
<g><line x1="188.28" y1="55.8848" x2="189.139" y2="53.9051" class="gray" /></g>
<g><line x1="191.827" y1="51.2766" x2="193.826" y2="50.4619" class="gray" /></g>
<g><line x1="197.585" y1="50.4619" x2="199.583" y2="51.2766" class="gray" /></g>
<g><line x1="202.271" y1="53.9051" x2="203.13" y2="55.8848" class="gray" /></g>
<g><line x1="203.214" y1="59.6434" x2="202.445" y2="61.6594" class="gray" /></g>
<g><line x1="201.72" y1="65.5858" x2="201.72" y2="69.0858" class="gray" /></g>
<g><line x1="201.72" y1="73.1458" x2="201.72" y2="76.6458" class="gray" /></g>
<g><line x1="201.72" y1="80.7058" x2="201.72" y2="84.2058" class="gray" /></g>
<g><line x1="201.664" y1="88.2651" x2="201.567" y2="91.7666" class="gray" /></g>
<g><line x1="201.567" y1="95.8251" x2="201.664" y2="99.3266" class="gray" /></g>
<g><line x1="201.72" y1="103.386" x2="201.72" y2="106.886" class="gray" /></g>
<g><line x1="203.492" y1="109.907" x2="206.708" y2="111.705" class="gray" /></g>
<g><line x1="206.696" y1="113.664" x2="203.295" y2="115.508" class="gray" /></g>
<g><line x1="201.567" y1="118.505" x2="201.664" y2="122.007" class="gray" /></g>
<g><line x1="201.72" y1="126.066" x2="201.72" y2="129.566" class="gray" /></g>
<g><line x1="203.692" y1="132.079" x2="207.099" y2="132.913" class="gray" /></g>
<g><line x1="210.723" y1="134.575" x2="213.568" y2="136.606" class="gray" /></g>
<g><line x1="216.276" y1="139.52" x2="218.035" y2="142.412" class="gray" /></g>
<g><line x1="219.528" y1="146.128" x2="220.293" y2="149.594" class="gray" /></g>
<g><line x1="220.346" y1="153.569" x2="219.684" y2="157.003" class="gray" /></g>
<g><line x1="218.204" y1="160.704" x2="216.316" y2="163.647" class="gray" /></g>
<g><line x1="213.569" y1="166.537" x2="210.721" y2="168.575" class="gray" /></g>
<g><line x1="207.095" y1="170.224" x2="203.486" y2="171.078" class="gray" /></g>
<g><line x1="201.51" y1="173.576" x2="201.51" y2="177.076" class="gray" /></g>
<g><line x1="201.623" y1="181.133" x2="201.818" y2="184.639" class="gray" /></g>
<g><line x1="201.818" y1="188.693" x2="201.623" y2="192.199" class="gray" /></g>
<g><line x1="201.51" y1="196.256" x2="201.51" y2="199.756" class="gray" /></g>
<g><line x1="201.567" y1="203.815" x2="201.664" y2="207.317" class="gray" /></g>
<g><line x1="201.777" y1="211.375" x2="201.874" y2="214.877" class="gray" /></g>
<g><line x1="203.337" y1="218.37" x2="205.76" y2="220.892" class="gray" /></g>
<g><line x1="209.196" y1="222.356" x2="212.694" y2="222.356" class="gray" /></g>
<g><line x1="216.754" y1="222.356" x2="220.251" y2="222.356" class="gray" /></g>
<g><line x1="224.311" y1="222.356" x2="227.809" y2="222.356" class="gray" /></g>
<g><line x1="231.869" y1="222.356" x2="235.366" y2="222.356" class="gray" /></g>
<g><line x1="239.426" y1="222.356" x2="242.923" y2="222.356" class="gray" /></g>
</svg>
