<svg
	xmlns="http://www.w3.org/2000/svg"
	width="287.188"
	height="249.309"
	style="font-size: 3.060353px; font-weight: bold; font-family: Helvetica; " >
<g><style type="text/css" >
<!-- create color definitions -->
<![CDATA[
text.red {fill: rgb(255, 0, 255); }
text.green {fill: rgb(0, 255, 0); }
text.blue {fill: rgb(0, 0, 255); }
text.black {fill: rgb(0, 0, 0); }
text.gray {fill: rgb(204, 204, 204); }
text.brown {fill: rgb(211.65, 104.55, 30.6); }
text {fill: rgb(0, 0, 0); text-anchor: middle; alignment-baseline: middle; }
circle.red {stroke: rgb(255, 0, 255); fill: none; }
circle.green {stroke: rgb(0, 255, 0); fill: none; }
circle.blue {stroke: rgb(0, 0, 255); fill: none; }
circle.black {stroke: rgb(0, 0, 0); fill: none; }
circle.gray {stroke: rgb(204, 204, 204); fill: none; }
circle.brown {stroke: rgb(211.65, 104.55, 30.6); fill: none; }
circle {stroke: rgb(0, 0, 0); }
line.red {stroke: rgb(255, 0, 255); stroke-width: 0.382544; }
line.green {stroke: rgb(0, 255, 0); stroke-width: 0.382544; }
line.blue {stroke: rgb(0, 0, 255); stroke-width: 0.382544; }
line.black {stroke: rgb(0, 0, 0); stroke-width: 0.382544; }
line.gray {stroke: rgb(204, 204, 204); stroke-width: 0.382544; }
line.brown {stroke: rgb(211.65, 104.55, 30.6); stroke-width: 0.382544; }
line {stroke: rgb(0, 0, 0); }
text.numbering-label {fill: rgb(204, 204, 204);}
line.numbering-line {stroke: rgb(204, 204, 204); stroke-width: 0.191272;}
line.predicted {stroke: rgb(0, 0, 0); stroke-dasharray: 2}
text.background {fill: rgb(255, 255, 255);
.template {visibility:hidden}
]]>
</style></g>
<g><title>0 (position.label in template: 0.5')</title><text x="53.8392" y="121.7" class="green" >5'</text></g>
<g><title>1 (position.label in template: 14.G)</title><text x="54.05" y="114.11" class="green" >G</text></g>
<g><line x1="56.0902" y1="113.804" x2="64.6698" y2="113.804" class="black" /></g>
<g><title>2 (position.label in template: 15.U)</title><text x="54.26" y="106.55" class="green" >U</text></g>
<g><line x1="56.3002" y1="106.244" x2="64.4598" y2="106.244" class="black" /></g>
<g><title>3 (position.label in template: 16.C)</title><text x="54.26" y="98.99" class="black" >C</text></g>
<g><line x1="56.3002" y1="98.684" x2="64.2498" y2="98.684" class="black" /></g>
<g><title>4 (position.label in template: 17.G)</title><text x="54.05" y="91.43" class="black" >G</text></g>
<g><line x1="56.0902" y1="91.124" x2="64.4598" y2="91.124" class="black" /></g>
<g><title>5 (position.label in template: 18.C)</title><text x="54.26" y="83.87" class="black" >C</text></g>
<g><line x1="56.3002" y1="83.564" x2="64.2498" y2="83.564" class="black" /></g>
<g><title>6 (position.label in template: 19.Y)</title><text x="54.47" y="76.31" class="green" >U</text></g>
<g><line x1="56.5102" y1="76.004" x2="64.4598" y2="76.004" class="black" /></g>
<g><title>7 (position.label in template: 20.G)</title><text x="54.05" y="68.75" class="black" >G</text></g>
<g><line x1="56.0902" y1="68.444" x2="64.4598" y2="68.444" class="black" /></g>
<g><title>8 (position.label in template: 21.C)</title><text x="50" y="62.51" class="black" >C</text></g>
<g><title>9 (position.label in template: 22.N)</title><text x="51.08" y="55.22" class="green" >A</text></g>
<g><title>10 (position.label in template: 23.A)</title><text x="56.81" y="50" class="black" >A</text></g>
<g><title>10 (inserted)</title><text x="54.2926" y="43.5909" class="numbering-label sequential" >10</text></g>
<g><line x1="56.1387" y1="48.2909" x2="54.8937" y2="45.121" class="numbering-line sequential" /></g>
<g><title>11 (position.label in template: 24.A)</title><text x="64.37" y="50" class="black" >A</text></g>
<g><title>12 (position.label in template: 25.N)</title><text x="69.98" y="55.22" class="green" >A</text></g>
<g><title>13 (position.label in template: 26.U)</title><text x="70.76" y="62.51" class="black" >U</text></g>
<g><title>14 (position.label in template: 27.C)</title><text x="66.5" y="68.75" class="black" >C</text></g>
<g><title>15 (position.label in template: 28.R)</title><text x="66.5" y="76.31" class="green" >A</text></g>
<g><title>16 (position.label in template: 29.G)</title><text x="66.29" y="83.87" class="black" >G</text></g>
<g><title>17 (position.label in template: 30.C)</title><text x="66.5" y="91.43" class="black" >C</text></g>
<g><title>18 (position.label in template: 31.G)</title><text x="66.29" y="98.99" class="black" >G</text></g>
<g><title>19 (position.label in template: 32.R)</title><text x="66.5" y="106.55" class="green" >G</text></g>
<g><title>20 (position.label in template: 33.Y)</title><text x="66.71" y="114.11" class="green" >C</text></g>
<g><title>20 (inserted)</title><text x="71.8126" y="109.486" class="numbering-label sequential" >20</text></g>
<g><line x1="68.0707" y1="112.877" x2="70.1239" y2="111.017" class="numbering-line sequential" /></g>
<g><title>21 (inserted)</title><text x="76.149" y="117.199" class="red" >C</text></g>
<g><title>22 (inserted)</title><text x="83.365" y="119.56" class="red" >G</text></g>
<g><title>23 (inserted)</title><text x="90.581" y="121.921" class="red" >G</text></g>
<g><title>24 (position.label in template: 37.N)</title><text x="100.02" y="125.01" class="green" >G</text></g>
<g><line x1="100.03" y1="126.744" x2="100.07" y2="134.704" class="black" /></g>
<g><title>25 (position.label in template: 38.Y)</title><text x="101.045" y="117.591" class="green" >U</text></g>
<g><title>26 (position.label in template: 39.N)</title><text x="102.871" y="110.328" class="green" >G</text></g>
<g><title>27 (position.label in template: 40.U)</title><text x="105.478" y="103.307" class="blue" >U</text></g>
<g><title>28 (position.label in template: 41.G)</title><text x="108.833" y="96.6108" class="green" >A</text></g>
<g><title>29 (position.label in template: 42.R)</title><text x="112.896" y="90.32" class="green" >G</text></g>
<g><title>30 (inserted)</title><text x="117.621" y="84.5088" class="red" >G</text></g>
<g><title>30 (inserted)</title><text x="112.523" y="79.8803" class="numbering-label sequential" >30</text></g>
<g><line x1="116.261" y1="83.2746" x2="114.359" y2="81.5474" class="numbering-line sequential" /></g>
<g><title>31 (inserted)</title><text x="122.95" y="79.2465" class="red" >A</text></g>
<g><title>32 (inserted)</title><text x="128.82" y="74.5954" class="red" >G</text></g>
<g><title>33 (inserted)</title><text x="135.161" y="70.611" class="red" >C</text></g>
<g><title>34 (inserted)</title><text x="141.899" y="67.3405" class="red" >C</text></g>
<g><title>35 (inserted)</title><text x="148.952" y="64.8229" class="red" >C</text></g>
<g><title>36 (inserted)</title><text x="156.238" y="63.0879" class="red" >G</text></g>
<g><title>37 (inserted)</title><text x="163.669" y="62.1563" class="red" >A</text></g>
<g><title>38 (inserted)</title><text x="171.158" y="62.0391" class="red" >U</text></g>
<g><title>39 (inserted)</title><text x="178.614" y="62.7378" class="red" >G</text></g>
<g><title>40 (inserted)</title><text x="185.951" y="64.2439" class="red" >U</text></g>
<g><title>41 (inserted)</title><text x="193.079" y="66.5396" class="red" >U</text></g>
<g><title>42 (inserted)</title><text x="199.916" y="69.5977" class="red" >C</text></g>
<g><title>43 (inserted)</title><text x="206.379" y="73.3818" class="red" >G</text></g>
<g><title>44 (inserted)</title><text x="212.392" y="77.8469" class="red" >C</text></g>
<g><title>45 (inserted)</title><text x="217.883" y="82.9399" class="red" >A</text></g>
<g><title>46 (inserted)</title><text x="222.787" y="88.6004" class="red" >C</text></g>
<g><title>47 (inserted)</title><text x="227.045" y="94.761" class="red" >C</text></g>
<g><title>48 (inserted)</title><text x="230.608" y="101.349" class="red" >G</text></g>
<g><title>49 (inserted)</title><text x="233.433" y="108.285" class="red" >U</text></g>
<g><title>50 (inserted)</title><text x="235.485" y="115.487" class="red" >G</text></g>
<g><title>50 (inserted)</title><text x="242.201" y="113.964" class="numbering-label sequential" >50</text></g>
<g><line x1="237.276" y1="115.081" x2="240.364" y2="114.38" class="numbering-line sequential" /></g>
<g><title>51 (inserted)</title><text x="236.742" y="122.871" class="red" >C</text></g>
<g><title>52 (inserted)</title><text x="237.188" y="130.347" class="red" >A</text></g>
<g><title>53 (inserted)</title><text x="236.817" y="137.827" class="red" >C</text></g>
<g><title>54 (inserted)</title><text x="235.634" y="145.222" class="red" >G</text></g>
<g><title>55 (inserted)</title><text x="233.653" y="152.445" class="red" >A</text></g>
<g><title>56 (inserted)</title><text x="230.897" y="159.409" class="red" >G</text></g>
<g><title>57 (inserted)</title><text x="227.4" y="166.031" class="red" >C</text></g>
<g><title>58 (inserted)</title><text x="223.203" y="172.234" class="red" >G</text></g>
<g><title>59 (inserted)</title><text x="218.356" y="177.943" class="red" >C</text></g>
<g><title>60 (inserted)</title><text x="212.916" y="183.091" class="red" >C</text></g>
<g><title>61 (inserted)</title><text x="206.948" y="187.616" class="red" >C</text></g>
<g><title>62 (inserted)</title><text x="200.523" y="191.464" class="red" >G</text></g>
<g><title>63 (inserted)</title><text x="193.717" y="194.59" class="red" >A</text></g>
<g><title>64 (inserted)</title><text x="186.612" y="196.957" class="red" >C</text></g>
<g><title>65 (inserted)</title><text x="179.291" y="198.536" class="red" >U</text></g>
<g><title>66 (inserted)</title><text x="171.842" y="199.309" class="red" >U</text></g>
<g><title>67 (inserted)</title><text x="164.352" y="199.266" class="red" >C</text></g>
<g><title>68 (inserted)</title><text x="156.912" y="198.409" class="red" >U</text></g>
<g><title>69 (inserted)</title><text x="149.61" y="196.746" class="red" >C</text></g>
<g><title>70 (inserted)</title><text x="142.532" y="194.299" class="red" >G</text></g>
<g><title>71 (inserted)</title><text x="135.762" y="191.096" class="red" >G</text></g>
<g><title>72 (inserted)</title><text x="129.381" y="187.175" class="red" >G</text></g>
<g><title>73 (inserted)</title><text x="123.465" y="182.583" class="red" >U</text></g>
<g><title>74 (inserted)</title><text x="118.084" y="177.374" class="red" >G</text></g>
<g><title>75 (inserted)</title><text x="113.301" y="171.61" class="red" >C</text></g>
<g><title>76 (inserted)</title><text x="109.175" y="165.36" class="red" >U</text></g>
<g><title>77 (inserted)</title><text x="105.754" y="158.698" class="red" >U</text></g>
<g><title>78 (inserted)</title><text x="103.078" y="151.703" class="red" >U</text></g>
<g><title>79 (inserted)</title><text x="101.179" y="144.458" class="red" >U</text></g>
<g><title>80 (position.label in template: 46.Y)</title><text x="100.08" y="137.05" class="green" >U</text></g>
<g><title>81 (position.label in template: 54.3')</title><text x="104.117" y="143.48" class="green" >3'</text></g>
<g><line x1="53.8958" y1="119.354" x2="53.9933" y2="115.843" class="gray" /></g>
<g><line x1="54.1067" y1="111.765" x2="54.2033" y2="108.283" class="gray" /></g>
<g><line x1="54.26" y1="104.204" x2="54.26" y2="100.724" class="gray" /></g>
<g><line x1="54.2033" y1="96.6445" x2="54.1067" y2="93.1634" class="gray" /></g>
<g><line x1="54.1067" y1="89.0845" x2="54.2033" y2="85.6034" class="gray" /></g>
<g><line x1="54.3167" y1="81.5245" x2="54.4133" y2="78.0434" class="gray" /></g>
<g><line x1="54.3568" y1="73.9669" x2="54.1632" y2="70.4811" class="gray" /></g>
<g><line x1="52.9393" y1="66.7326" x2="51.1107" y2="63.9153" class="gray" /></g>
<g><line x1="50.299" y1="60.1858" x2="50.781" y2="56.9322" class="gray" /></g>
<g><line x1="52.5882" y1="53.54" x2="55.3018" y2="51.0679" class="gray" /></g>
<g><line x1="58.8502" y1="49.694" x2="62.3298" y2="49.694" class="gray" /></g>
<g><line x1="65.8636" y1="51.0838" x2="68.4864" y2="53.5242" class="gray" /></g>
<g><line x1="70.1971" y1="56.9426" x2="70.5429" y2="60.1753" class="gray" /></g>
<g><line x1="69.6097" y1="63.889" x2="67.6503" y2="66.759" class="gray" /></g>
<g><line x1="66.5" y1="70.4842" x2="66.5" y2="73.9637" class="gray" /></g>
<g><line x1="66.4433" y1="78.0434" x2="66.3467" y2="81.5245" class="gray" /></g>
<g><line x1="66.3467" y1="85.6034" x2="66.4433" y2="89.0845" class="gray" /></g>
<g><line x1="66.4433" y1="93.1634" x2="66.3467" y2="96.6445" class="gray" /></g>
<g><line x1="66.3467" y1="100.723" x2="66.4433" y2="104.205" class="gray" /></g>
<g><line x1="66.5567" y1="108.283" x2="66.6533" y2="111.765" class="gray" /></g>
<g><line x1="68.6491" y1="114.438" x2="74.21" y2="116.258" class="gray" /></g>
<g><line x1="78.0881" y1="117.527" x2="81.4259" y2="118.619" class="gray" /></g>
<g><line x1="85.3041" y1="119.888" x2="88.6419" y2="120.981" class="gray" /></g>
<g><line x1="92.52" y1="122.25" x2="98.0809" y2="124.069" class="gray" /></g>
<g><line x1="100.299" y1="122.683" x2="100.766" y2="119.306" class="gray" /></g>
<g><line x1="101.543" y1="115.306" x2="102.374" y2="112.001" class="gray" /></g>
<g><line x1="103.581" y1="108.109" x2="104.768" y2="104.913" class="gray" /></g>
<g><line x1="106.392" y1="101.177" x2="107.919" y2="98.1289" class="gray" /></g>
<g><line x1="109.94" y1="94.5911" x2="111.789" y2="91.7277" class="gray" /></g>
<g><line x1="114.183" y1="88.4309" x2="116.334" y2="85.7859" class="gray" /></g>
<g><line x1="119.073" y1="82.7692" x2="121.498" y2="80.374" class="gray" /></g>
<g><line x1="124.549" y1="77.6734" x2="127.221" y2="75.5564" class="gray" /></g>
<g><line x1="130.547" y1="73.204" x2="133.434" y2="71.3904" class="gray" /></g>
<g><line x1="136.997" y1="69.414" x2="140.063" y2="67.9254" class="gray" /></g>
<g><line x1="143.82" y1="66.3486" x2="147.031" y2="65.2027" class="gray" /></g>
<g><line x1="150.937" y1="64.0442" x2="154.253" y2="63.2545" class="gray" /></g>
<g><line x1="158.262" y1="62.5281" x2="161.645" y2="62.1041" class="gray" /></g>
<g><line x1="165.709" y1="61.8183" x2="169.118" y2="61.765" class="gray" /></g>
<g><line x1="173.189" y1="61.9234" x2="176.583" y2="62.2414" class="gray" /></g>
<g><line x1="180.613" y1="62.842" x2="183.952" y2="63.5276" class="gray" /></g>
<g><line x1="187.893" y1="64.5633" x2="191.137" y2="65.6082" class="gray" /></g>
<g><line x1="194.942" y1="67.0667" x2="198.053" y2="68.4586" class="gray" /></g>
<g><line x1="201.676" y1="70.3225" x2="204.618" y2="72.0449" class="gray" /></g>
<g><line x1="208.017" y1="74.2921" x2="210.754" y2="76.3244" class="gray" /></g>
<g><line x1="213.887" y1="78.9283" x2="216.387" y2="81.2464" class="gray" /></g>
<g><line x1="219.219" y1="84.1759" x2="221.451" y2="86.7523" class="gray" /></g>
<g><line x1="223.947" y1="89.9726" x2="225.885" y2="92.7767" class="gray" /></g>
<g><line x1="228.016" y1="96.2496" x2="229.638" y2="99.248" class="gray" /></g>
<g><line x1="231.378" y1="102.932" x2="232.663" y2="106.089" class="gray" /></g>
<g><line x1="233.992" y1="109.941" x2="234.926" y2="113.219" class="gray" /></g>
<g><line x1="235.828" y1="117.193" x2="236.4" y2="120.553" class="gray" /></g>
<g><line x1="236.863" y1="124.601" x2="237.066" y2="128.004" class="gray" /></g>
<g><line x1="237.087" y1="132.078" x2="236.918" y2="135.483" class="gray" /></g>
<g><line x1="236.494" y1="139.535" x2="235.956" y2="142.901" class="gray" /></g>
<g><line x1="235.094" y1="146.884" x2="234.192" y2="150.171" class="gray" /></g>
<g><line x1="232.902" y1="154.036" x2="231.648" y2="157.206" class="gray" /></g>
<g><line x1="229.945" y1="160.907" x2="228.353" y2="163.921" class="gray" /></g>
<g><line x1="226.257" y1="167.415" x2="224.347" y2="170.238" class="gray" /></g>
<g><line x1="221.883" y1="173.483" x2="219.677" y2="176.082" class="gray" /></g>
<g><line x1="216.874" y1="179.04" x2="214.398" y2="181.383" class="gray" /></g>
<g><line x1="211.29" y1="184.017" x2="208.574" y2="186.077" class="gray" /></g>
<g><line x1="205.198" y1="188.358" x2="202.273" y2="190.11" class="gray" /></g>
<g><line x1="198.669" y1="192.009" x2="195.571" y2="193.432" class="gray" /></g>
<g><line x1="191.782" y1="194.929" x2="188.548" y2="196.006" class="gray" /></g>
<g><line x1="184.618" y1="197.081" x2="181.285" y2="197.8" class="gray" /></g>
<g><line x1="177.262" y1="198.44" x2="173.871" y2="198.792" class="gray" /></g>
<g><line x1="169.801" y1="198.991" x2="166.393" y2="198.972" class="gray" /></g>
<g><line x1="162.326" y1="198.727" x2="158.939" y2="198.336" class="gray" /></g>
<g><line x1="154.923" y1="197.65" x2="151.599" y2="196.893" class="gray" /></g>
<g><line x1="147.682" y1="195.774" x2="144.46" y2="194.66" class="gray" /></g>
<g><line x1="140.687" y1="193.121" x2="137.606" y2="191.663" class="gray" /></g>
<g><line x1="134.024" y1="189.722" x2="131.119" y2="187.937" class="gray" /></g>
<g><line x1="127.769" y1="185.618" x2="125.076" y2="183.528" class="gray" /></g>
<g><line x1="121.999" y1="180.858" x2="119.55" y2="178.487" class="gray" /></g>
<g><line x1="116.781" y1="175.498" x2="114.604" y2="172.874" class="gray" /></g>
<g><line x1="112.177" y1="169.601" x2="110.299" y2="166.757" class="gray" /></g>
<g><line x1="108.243" y1="163.239" x2="106.686" y2="160.207" class="gray" /></g>
<g><line x1="105.025" y1="156.486" x2="103.807" y2="153.302" class="gray" /></g>
<g><line x1="102.56" y1="149.423" x2="101.696" y2="146.126" class="gray" /></g>
<g><line x1="100.88" y1="142.134" x2="100.379" y2="138.762" class="gray" /></g>
<g><line x1="101.165" y1="138.472" x2="103.032" y2="141.446" class="gray" /></g>
</svg>
