<svg
	xmlns="http://www.w3.org/2000/svg"
	width="237.271"
	height="369.704"
	style="font-size: 3.053824px; font-weight: bold; font-family: Helvetica; " >
<g><style type="text/css" >
<!-- create color definitions -->
<![CDATA[
text.red {fill: rgb(255, 0, 255); }
text.green {fill: rgb(0, 255, 0); }
text.blue {fill: rgb(0, 0, 255); }
text.black {fill: rgb(0, 0, 0); }
text.gray {fill: rgb(204, 204, 204); }
text.brown {fill: rgb(211.65, 104.55, 30.6); }
text {fill: rgb(0, 0, 0); text-anchor: middle; alignment-baseline: middle; }
circle.red {stroke: rgb(255, 0, 255); fill: none; }
circle.green {stroke: rgb(0, 255, 0); fill: none; }
circle.blue {stroke: rgb(0, 0, 255); fill: none; }
circle.black {stroke: rgb(0, 0, 0); fill: none; }
circle.gray {stroke: rgb(204, 204, 204); fill: none; }
circle.brown {stroke: rgb(211.65, 104.55, 30.6); fill: none; }
circle {stroke: rgb(0, 0, 0); }
line.red {stroke: rgb(255, 0, 255); stroke-width: 0.381728; }
line.green {stroke: rgb(0, 255, 0); stroke-width: 0.381728; }
line.blue {stroke: rgb(0, 0, 255); stroke-width: 0.381728; }
line.black {stroke: rgb(0, 0, 0); stroke-width: 0.381728; }
line.gray {stroke: rgb(204, 204, 204); stroke-width: 0.381728; }
line.brown {stroke: rgb(211.65, 104.55, 30.6); stroke-width: 0.381728; }
line {stroke: rgb(0, 0, 0); }
text.numbering-label {fill: rgb(204, 204, 204);}
line.numbering-line {stroke: rgb(204, 204, 204); stroke-width: 0.190864;}
line.predicted {stroke: rgb(0, 0, 0); stroke-dasharray: 2}
text.background {fill: rgb(255, 255, 255);
.template {visibility:hidden}
]]>
</style></g>
<g><title>0 (position.label in template: 0.5')</title><text x="112.41" y="321.889" class="green" >5'</text></g>
<g><title>1 (position.label in template: 8.G)</title><text x="112.41" y="314.329" class="green" >U</text></g>
<g><line x1="114.446" y1="314.023" x2="122.824" y2="314.023" class="black" /></g>
<g><title>2 (position.label in template: 9.G)</title><text x="112.41" y="306.769" class="black" >G</text></g>
<g><line x1="114.446" y1="306.463" x2="122.824" y2="306.463" class="black" /></g>
<g><title>3 (position.label in template: 10.G)</title><text x="112.41" y="299.209" class="black" >G</text></g>
<g><line x1="114.446" y1="298.903" x2="122.824" y2="298.903" class="black" /></g>
<g><title>4 (position.label in template: 11.U)</title><text x="112.62" y="291.649" class="green" >C</text></g>
<g><line x1="114.656" y1="291.343" x2="122.824" y2="291.343" class="black" /></g>
<g><title>5 (position.label in template: 12.A)</title><text x="112.83" y="284.089" class="black" >A</text></g>
<g><line x1="114.866" y1="283.783" x2="122.824" y2="283.783" class="black" /></g>
<g><title>6 (position.label in template: 13.A)</title><text x="112.83" y="276.529" class="black" >A</text></g>
<g><line x1="114.866" y1="276.223" x2="122.824" y2="276.223" class="black" /></g>
<g><title>7 (position.label in template: 14.G)</title><text x="112.41" y="268.969" class="black" >G</text></g>
<g><line x1="114.446" y1="268.663" x2="122.824" y2="268.663" class="black" /></g>
<g><title>8 (position.label in template: 15.U)</title><text x="112.62" y="261.409" class="black" >U</text></g>
<g><line x1="114.656" y1="261.103" x2="122.614" y2="261.103" class="black" /></g>
<g><title>9 (position.label in template: 16.C)</title><text x="109.52" y="254.519" class="black" >C</text></g>
<g><title>10 (position.label in template: 17.Y)</title><text x="112.83" y="247.619" class="green" >C</text></g>
<g><line x1="114.866" y1="247.313" x2="122.824" y2="247.313" class="black" /></g>
<g><title>10 (inserted)</title><text x="106.112" y="246.178" class="numbering-label sequential" >10</text></g>
<g><line x1="111.039" y1="247.235" x2="107.944" y2="246.571" class="numbering-line sequential" /></g>
<g><title>11 (position.label in template: 18.U)</title><text x="112.62" y="240.059" class="black" >U</text></g>
<g><line x1="114.656" y1="239.753" x2="123.034" y2="239.753" class="black" /></g>
<g><title>12 (position.label in template: 19.A)</title><text x="112.83" y="232.499" class="black" >A</text></g>
<g><line x1="114.866" y1="232.193" x2="122.824" y2="232.193" class="black" /></g>
<g><title>13 (position.label in template: 20.Y)</title><text x="112.83" y="224.939" class="green" >C</text></g>
<g><line x1="114.866" y1="224.633" x2="122.824" y2="224.633" class="black" /></g>
<g><title>14 (position.label in template: 21.A)</title><text x="112.83" y="217.379" class="black" >A</text></g>
<g><line x1="114.866" y1="217.073" x2="122.824" y2="217.073" class="black" /></g>
<g><title>15 (position.label in template: 22.C)</title><text x="112.62" y="209.819" class="black" >C</text></g>
<g><line x1="114.656" y1="209.513" x2="122.614" y2="209.513" class="black" /></g>
<g><title>16 (position.label in template: 23.G)</title><text x="112.41" y="202.259" class="green" >A</text></g>
<g><line x1="114.446" y1="201.953" x2="122.824" y2="201.953" class="black" /></g>
<g><title>17 (position.label in template: 24.R)</title><text x="112.62" y="194.699" class="green" >A</text></g>
<g><line x1="114.656" y1="194.393" x2="123.034" y2="194.393" class="black" /></g>
<g><title>18 (position.label in template: 25.C)</title><text x="112.62" y="187.139" class="black" >C</text></g>
<g><line x1="114.656" y1="186.833" x2="122.614" y2="186.833" class="black" /></g>
<g><title>19 (position.label in template: 26.C)</title><text x="105.206" y="186.077" class="blue" >C</text></g>
<g><title>20 (position.label in template: 27.A)</title><text x="97.9522" y="184.215" class="blue" >A</text></g>
<g><title>20 (inserted)</title><text x="95.8836" y="190.768" class="numbering-label sequential" >20</text></g>
<g><line x1="97.4006" y1="185.963" x2="96.3656" y2="189.241" class="numbering-line sequential" /></g>
<g><title>21 (position.label in template: 28.G)</title><text x="90.9437" y="181.575" class="blue" >G</text></g>
<g><title>22 (position.label in template: 29.C)</title><text x="84.2643" y="178.187" class="blue" >C</text></g>
<g><title>23 (position.label in template: 30.U)</title><text x="77.9934" y="174.092" class="blue" >U</text></g>
<g><title>24 (position.label in template: 31.C)</title><text x="72.2055" y="169.339" class="blue" >C</text></g>
<g><title>25 (position.label in template: 32.C)</title><text x="66.9694" y="163.984" class="blue" >C</text></g>
<g><title>26 (position.label in template: 33.Y)</title><text x="62.3473" y="158.091" class="green" >U</text></g>
<g><title>27 (position.label in template: 35.Y)</title><text x="58.3941" y="151.73" class="green" >G</text></g>
<g><title>28 (position.label in template: 36.N)</title><text x="55.1569" y="144.976" class="green" >A</text></g>
<g><title>29 (position.label in template: 37.G)</title><text x="52.674" y="137.91" class="blue" >G</text></g>
<g><title>30 (position.label in template: 38.A)</title><text x="50.975" y="130.616" class="blue" >A</text></g>
<g><title>30 (inserted)</title><text x="44.208" y="131.807" class="numbering-label sequential" >30</text></g>
<g><line x1="49.1705" y1="130.934" x2="46.0403" y2="131.485" class="numbering-line sequential" /></g>
<g><title>31 (position.label in template: 39.A)</title><text x="50.0801" y="123.18" class="blue" >A</text></g>
<g><title>32 (position.label in template: 40.U)</title><text x="50" y="115.691" class="blue" >U</text></g>
<g><title>33 (position.label in template: 41.C)</title><text x="50.7355" y="108.238" class="blue" >C</text></g>
<g><title>34 (position.label in template: 42.C)</title><text x="52.278" y="100.909" class="blue" >C</text></g>
<g><title>35 (position.label in template: 43.C)</title><text x="54.6091" y="93.7913" class="green" >U</text></g>
<g><title>36 (position.label in template: 44.C)</title><text x="57.701" y="86.9699" class="blue" >C</text></g>
<g><title>37 (position.label in template: 45.C)</title><text x="61.5172" y="80.5256" class="blue" >C</text></g>
<g><title>38 (position.label in template: 46.A)</title><text x="66.0121" y="74.535" class="blue" >A</text></g>
<g><title>39 (position.label in template: 47.G)</title><text x="71.1324" y="69.0692" class="blue" >G</text></g>
<g><title>40 (position.label in template: 48.G)</title><text x="76.8173" y="64.1933" class="blue" >G</text></g>
<g><title>41 (position.label in template: 49.G)</title><text x="82.9991" y="59.9652" class="blue" >G</text></g>
<g><title>42 (position.label in template: 50.Y)</title><text x="89.6044" y="56.4351" class="green" >C</text></g>
<g><title>43 (position.label in template: 51.N)</title><text x="96.5548" y="53.645" class="green" >G</text></g>
<g><title>44 (position.label in template: 52.N)</title><text x="103.768" y="51.6281" class="green" >G</text></g>
<g><title>45 (position.label in template: 53.G)</title><text x="111.157" y="50.4082" class="blue" >G</text></g>
<g><title>46 (position.label in template: 54.A)</title><text x="118.635" y="50" class="blue" >A</text></g>
<g><title>47 (position.label in template: 55.N)</title><text x="126.114" y="50.4082" class="green" >A</text></g>
<g><title>48 (position.label in template: 56.N)</title><text x="133.503" y="51.6281" class="green" >C</text></g>
<g><title>49 (position.label in template: 57.G)</title><text x="140.716" y="53.645" class="blue" >G</text></g>
<g><title>50 (position.label in template: 58.C)</title><text x="147.666" y="56.4351" class="blue" >C</text></g>
<g><title>50 (inserted)</title><text x="150.57" y="50.2076" class="numbering-label sequential" >50</text></g>
<g><line x1="148.44" y1="54.7745" x2="149.858" y2="51.7345" class="numbering-line sequential" /></g>
<g><title>51 (position.label in template: 59.A)</title><text x="154.272" y="59.9652" class="blue" >A</text></g>
<g><title>52 (position.label in template: 60.G)</title><text x="160.453" y="64.1933" class="blue" >G</text></g>
<g><title>53 (position.label in template: 61.C)</title><text x="166.138" y="69.0692" class="blue" >C</text></g>
<g><title>54 (position.label in template: 62.A)</title><text x="171.259" y="74.535" class="blue" >A</text></g>
<g><title>55 (position.label in template: 63.A)</title><text x="175.754" y="80.5256" class="blue" >A</text></g>
<g><title>56 (position.label in template: 64.G)</title><text x="179.57" y="86.9699" class="green" >A</text></g>
<g><title>57 (position.label in template: 65.G)</title><text x="182.662" y="93.7913" class="blue" >G</text></g>
<g><title>58 (position.label in template: 66.G)</title><text x="184.993" y="100.909" class="blue" >G</text></g>
<g><title>59 (position.label in template: 67.U)</title><text x="186.535" y="108.238" class="blue" >U</text></g>
<g><title>60 (position.label in template: 68.A)</title><text x="187.271" y="115.691" class="blue" >A</text></g>
<g><title>61 (position.label in template: 69.N)</title><text x="187.191" y="123.18" class="green" >A</text></g>
<g><title>62 (position.label in template: 70.N)</title><text x="186.296" y="130.616" class="green" >U</text></g>
<g><title>63 (position.label in template: 71.N)</title><text x="184.597" y="137.91" class="green" >C</text></g>
<g><title>64 (position.label in template: 72.G)</title><text x="182.114" y="144.976" class="blue" >G</text></g>
<g><title>65 (position.label in template: 73.G)</title><text x="178.877" y="151.73" class="blue" >G</text></g>
<g><title>66 (position.label in template: 74.U)</title><text x="174.923" y="158.091" class="blue" >U</text></g>
<g><title>67 (position.label in template: 75.Y)</title><text x="170.301" y="163.984" class="green" >U</text></g>
<g><title>68 (position.label in template: 76.G)</title><text x="165.065" y="169.339" class="blue" >G</text></g>
<g><title>69 (position.label in template: 77.U)</title><text x="159.277" y="174.092" class="blue" >U</text></g>
<g><title>70 (position.label in template: 78.A)</title><text x="153.006" y="178.187" class="blue" >A</text></g>
<g><title>71 (position.label in template: 79.G)</title><text x="146.327" y="181.575" class="blue" >G</text></g>
<g><title>72 (position.label in template: 80.C)</title><text x="139.318" y="184.215" class="blue" >C</text></g>
<g><title>73 (position.label in template: 81.G)</title><text x="132.064" y="186.077" class="blue" >G</text></g>
<g><title>74 (position.label in template: 82.G)</title><text x="124.65" y="187.139" class="black" >G</text></g>
<g><title>75 (position.label in template: 83.Y)</title><text x="125.07" y="194.699" class="green" >U</text></g>
<g><title>76 (position.label in template: 84.G)</title><text x="131.2" y="198.479" class="black" >G</text></g>
<g><title>77 (position.label in template: 85.C)</title><text x="124.86" y="202.259" class="green" >U</text></g>
<g><title>78 (position.label in template: 86.G)</title><text x="124.65" y="209.819" class="black" >G</text></g>
<g><title>79 (position.label in template: 87.A)</title><text x="131.61" y="213.599" class="black" >A</text></g>
<g><title>80 (position.label in template: 88.U)</title><text x="124.86" y="217.379" class="black" >U</text></g>
<g><title>81 (position.label in template: 89.R)</title><text x="124.86" y="224.939" class="green" >G</text></g>
<g><title>82 (position.label in template: 90.U)</title><text x="124.86" y="232.499" class="black" >U</text></g>
<g><title>83 (position.label in template: 91.A)</title><text x="125.07" y="240.059" class="black" >A</text></g>
<g><title>84 (position.label in template: 92.R)</title><text x="124.86" y="247.619" class="green" >G</text></g>
<g><title>85 (position.label in template: 93.N)</title><text x="132.56" y="248.129" class="green" >A</text></g>
<g><title>86 (position.label in template: 94.Y)</title><text x="136.31" y="254.519" class="green" >U</text></g>
<g><title>87 (position.label in template: 95.N)</title><text x="132.56" y="261.319" class="green" >C</text></g>
<g><title>88 (position.label in template: 96.G)</title><text x="124.65" y="261.409" class="black" >G</text></g>
<g><title>89 (position.label in template: 97.C)</title><text x="124.86" y="268.969" class="black" >C</text></g>
<g><title>90 (position.label in template: 98.U)</title><text x="124.86" y="276.529" class="black" >U</text></g>
<g><title>91 (position.label in template: 99.U)</title><text x="124.86" y="284.089" class="black" >U</text></g>
<g><title>92 (position.label in template: 100.R)</title><text x="124.86" y="291.649" class="green" >G</text></g>
<g><title>93 (position.label in template: 101.C)</title><text x="124.86" y="299.209" class="black" >C</text></g>
<g><title>94 (position.label in template: 102.C)</title><text x="124.86" y="306.769" class="black" >C</text></g>
<g><title>95 (position.label in template: 103.C)</title><text x="124.86" y="314.329" class="green" >A</text></g>
<g><title>96 (position.label in template: 104.N)</title><text x="130.177" y="319.704" class="green" >U</text></g>
<g><title>97 (position.label in template: 105.N)</title><text x="137.738" y="319.704" class="green" >U</text></g>
<g><title>98 (position.label in template: 106.Y)</title><text x="145.296" y="319.495" class="green" >U</text></g>
<g><title>99 (position.label in template: 108.3')</title><text x="152.853" y="319.287" class="green" >3'</text></g>
<g><line x1="112.41" y1="319.548" x2="112.41" y2="316.059" class="gray" /></g>
<g><line x1="112.41" y1="311.988" x2="112.41" y2="308.499" class="gray" /></g>
<g><line x1="112.41" y1="304.428" x2="112.41" y2="300.939" class="gray" /></g>
<g><line x1="112.467" y1="296.868" x2="112.564" y2="293.379" class="gray" /></g>
<g><line x1="112.677" y1="289.308" x2="112.774" y2="285.819" class="gray" /></g>
<g><line x1="112.83" y1="281.748" x2="112.83" y2="278.259" class="gray" /></g>
<g><line x1="112.717" y1="274.191" x2="112.523" y2="270.696" class="gray" /></g>
<g><line x1="112.467" y1="266.628" x2="112.564" y2="263.139" class="gray" /></g>
<g><line x1="111.785" y1="259.247" x2="110.356" y2="256.07" class="gray" /></g>
<g><line x1="110.401" y1="252.378" x2="111.95" y2="249.149" class="gray" /></g>
<g><line x1="112.774" y1="245.278" x2="112.677" y2="241.789" class="gray" /></g>
<g><line x1="112.677" y1="237.718" x2="112.774" y2="234.229" class="gray" /></g>
<g><line x1="112.83" y1="230.158" x2="112.83" y2="226.669" class="gray" /></g>
<g><line x1="112.83" y1="222.598" x2="112.83" y2="219.109" class="gray" /></g>
<g><line x1="112.774" y1="215.038" x2="112.677" y2="211.549" class="gray" /></g>
<g><line x1="112.564" y1="207.478" x2="112.467" y2="203.989" class="gray" /></g>
<g><line x1="112.467" y1="199.918" x2="112.564" y2="196.429" class="gray" /></g>
<g><line x1="112.62" y1="192.358" x2="112.62" y2="188.869" class="gray" /></g>
<g><line x1="110.605" y1="186.545" x2="107.222" y2="186.061" class="gray" /></g>
<g><line x1="103.235" y1="185.266" x2="99.9241" y2="184.416" class="gray" /></g>
<g><line x1="96.0471" y1="183.192" x2="92.8489" y2="181.987" class="gray" /></g>
<g><line x1="89.128" y1="180.348" x2="86.08" y2="178.802" class="gray" /></g>
<g><line x1="82.5597" y1="176.768" x2="79.6981" y2="174.9" class="gray" /></g>
<g><line x1="76.4201" y1="172.494" x2="73.7789" y2="170.325" class="gray" /></g>
<g><line x1="70.7822" y1="167.578" x2="68.3928" y2="165.134" class="gray" /></g>
<g><line x1="65.713" y1="162.076" x2="63.6037" y2="159.387" class="gray" /></g>
<g><line x1="61.2727" y1="156.056" x2="59.4687" y2="153.153" class="gray" /></g>
<g><line x1="57.5141" y1="149.588" x2="56.0368" y2="146.506" class="gray" /></g>
<g><line x1="54.4819" y1="142.75" x2="53.3489" y2="139.525" class="gray" /></g>
<g><line x1="52.2122" y1="135.622" x2="51.4369" y2="132.293" class="gray" /></g>
<g><line x1="50.7318" y1="128.289" x2="50.3234" y2="124.896" class="gray" /></g>
<g><line x1="50.0584" y1="120.839" x2="50.0218" y2="117.421" class="gray" /></g>
<g><line x1="50.1999" y1="113.36" x2="50.5356" y2="109.958" class="gray" /></g>
<g><line x1="51.1548" y1="105.94" x2="51.8587" y2="102.596" class="gray" /></g>
<g><line x1="52.9117" y1="98.6686" x2="53.9754" y2="95.4207" class="gray" /></g>
<g><line x1="55.4496" y1="91.6317" x2="56.8605" y2="88.5188" class="gray" /></g>
<g><line x1="58.7384" y1="84.9127" x2="60.4798" y2="81.972" class="gray" /></g>
<g><line x1="62.739" y1="78.5918" x2="64.7902" y2="75.858" class="gray" /></g>
<g><line x1="67.404" y1="72.7438" x2="69.7405" y2="70.2496" class="gray" /></g>
<g><line x1="72.6778" y1="67.4384" x2="75.2719" y2="65.2134" class="gray" /></g>
<g><line x1="78.4977" y1="62.7386" x2="81.3187" y2="60.8092" class="gray" /></g>
<g><line x1="84.7947" y1="58.7002" x2="87.8089" y2="57.0893" class="gray" /></g>
<g><line x1="91.4938" y1="55.3713" x2="94.6655" y2="54.0981" class="gray" /></g>
<g><line x1="98.5155" y1="52.7914" x2="101.807" y2="51.871" class="gray" /></g>
<g><line x1="105.776" y1="50.9911" x2="109.148" y2="50.4344" class="gray" /></g>
<g><line x1="113.19" y1="49.9919" x2="116.602" y2="49.8056" class="gray" /></g>
<g><line x1="120.668" y1="49.8056" x2="124.081" y2="49.9919" class="gray" /></g>
<g><line x1="128.122" y1="50.4344" x2="131.494" y2="50.9911" class="gray" /></g>
<g><line x1="135.464" y1="51.871" x2="138.755" y2="52.7914" class="gray" /></g>
<g><line x1="142.605" y1="54.0981" x2="145.777" y2="55.3713" class="gray" /></g>
<g><line x1="149.462" y1="57.0893" x2="152.476" y2="58.7002" class="gray" /></g>
<g><line x1="155.952" y1="60.8092" x2="158.773" y2="62.7386" class="gray" /></g>
<g><line x1="161.999" y1="65.2134" x2="164.593" y2="67.4384" class="gray" /></g>
<g><line x1="167.53" y1="70.2496" x2="169.867" y2="72.7438" class="gray" /></g>
<g><line x1="172.48" y1="75.858" x2="174.532" y2="78.5918" class="gray" /></g>
<g><line x1="176.791" y1="81.972" x2="178.532" y2="84.9127" class="gray" /></g>
<g><line x1="180.41" y1="88.5188" x2="181.821" y2="91.6317" class="gray" /></g>
<g><line x1="183.295" y1="95.4207" x2="184.359" y2="98.6686" class="gray" /></g>
<g><line x1="185.412" y1="102.596" x2="186.116" y2="105.94" class="gray" /></g>
<g><line x1="186.735" y1="109.958" x2="187.071" y2="113.36" class="gray" /></g>
<g><line x1="187.249" y1="117.421" x2="187.212" y2="120.839" class="gray" /></g>
<g><line x1="186.947" y1="124.896" x2="186.539" y2="128.289" class="gray" /></g>
<g><line x1="185.834" y1="132.293" x2="185.059" y2="135.622" class="gray" /></g>
<g><line x1="183.922" y1="139.525" x2="182.789" y2="142.75" class="gray" /></g>
<g><line x1="181.234" y1="146.506" x2="179.757" y2="149.588" class="gray" /></g>
<g><line x1="177.802" y1="153.153" x2="175.998" y2="156.056" class="gray" /></g>
<g><line x1="173.667" y1="159.387" x2="171.558" y2="162.076" class="gray" /></g>
<g><line x1="168.878" y1="165.134" x2="166.488" y2="167.578" class="gray" /></g>
<g><line x1="163.492" y1="170.325" x2="160.851" y2="172.494" class="gray" /></g>
<g><line x1="157.573" y1="174.9" x2="154.711" y2="176.768" class="gray" /></g>
<g><line x1="151.191" y1="178.802" x2="148.143" y2="180.348" class="gray" /></g>
<g><line x1="144.422" y1="181.987" x2="141.224" y2="183.192" class="gray" /></g>
<g><line x1="137.347" y1="184.416" x2="134.036" y2="185.266" class="gray" /></g>
<g><line x1="130.049" y1="186.061" x2="126.666" y2="186.545" class="gray" /></g>
<g><line x1="124.763" y1="188.866" x2="124.957" y2="192.361" class="gray" /></g>
<g><line x1="126.803" y1="195.462" x2="129.467" y2="197.105" class="gray" /></g>
<g><line x1="129.452" y1="199.216" x2="126.609" y2="200.911" class="gray" /></g>
<g><line x1="124.804" y1="203.989" x2="124.707" y2="207.478" class="gray" /></g>
<g><line x1="126.439" y1="210.485" x2="129.821" y2="212.322" class="gray" /></g>
<g><line x1="129.834" y1="214.288" x2="126.637" y2="216.079" class="gray" /></g>
<g><line x1="124.86" y1="219.109" x2="124.86" y2="222.598" class="gray" /></g>
<g><line x1="124.86" y1="226.669" x2="124.86" y2="230.158" class="gray" /></g>
<g><line x1="124.917" y1="234.229" x2="125.014" y2="237.718" class="gray" /></g>
<g><line x1="125.014" y1="241.789" x2="124.917" y2="245.278" class="gray" /></g>
<g><line x1="126.892" y1="247.448" x2="130.529" y2="247.689" class="gray" /></g>
<g><line x1="133.591" y1="249.579" x2="135.28" y2="252.458" class="gray" /></g>
<g><line x1="135.327" y1="255.996" x2="133.543" y2="259.231" class="gray" /></g>
<g><line x1="130.525" y1="261.037" x2="126.686" y2="261.08" class="gray" /></g>
<g><line x1="124.707" y1="263.139" x2="124.804" y2="266.628" class="gray" /></g>
<g><line x1="124.86" y1="270.699" x2="124.86" y2="274.188" class="gray" /></g>
<g><line x1="124.86" y1="278.259" x2="124.86" y2="281.748" class="gray" /></g>
<g><line x1="124.86" y1="285.819" x2="124.86" y2="289.308" class="gray" /></g>
<g><line x1="124.86" y1="293.379" x2="124.86" y2="296.868" class="gray" /></g>
<g><line x1="124.86" y1="300.939" x2="124.86" y2="304.428" class="gray" /></g>
<g><line x1="124.86" y1="308.499" x2="124.86" y2="311.988" class="gray" /></g>
<g><line x1="126.292" y1="315.471" x2="128.746" y2="317.951" class="gray" /></g>
<g><line x1="132.213" y1="319.398" x2="135.702" y2="319.398" class="gray" /></g>
<g><line x1="139.773" y1="319.342" x2="143.261" y2="319.246" class="gray" /></g>
<g><line x1="147.331" y1="319.134" x2="150.818" y2="319.038" class="gray" /></g>
</svg>
