<svg
	xmlns="http://www.w3.org/2000/svg"
	width="233.539"
	height="241.898"
	style="font-size: 3.048045px; font-weight: bold; font-family: Helvetica; " >
<g><style type="text/css" >
<!-- create color definitions -->
<![CDATA[
text.red {fill: rgb(255, 0, 255); }
text.green {fill: rgb(0, 255, 0); }
text.blue {fill: rgb(0, 0, 255); }
text.black {fill: rgb(0, 0, 0); }
text.gray {fill: rgb(204, 204, 204); }
text.brown {fill: rgb(211.65, 104.55, 30.6); }
text {fill: rgb(0, 0, 0); text-anchor: middle; alignment-baseline: middle; }
circle.red {stroke: rgb(255, 0, 255); fill: none; }
circle.green {stroke: rgb(0, 255, 0); fill: none; }
circle.blue {stroke: rgb(0, 0, 255); fill: none; }
circle.black {stroke: rgb(0, 0, 0); fill: none; }
circle.gray {stroke: rgb(204, 204, 204); fill: none; }
circle.brown {stroke: rgb(211.65, 104.55, 30.6); fill: none; }
circle {stroke: rgb(0, 0, 0); }
line.red {stroke: rgb(255, 0, 255); stroke-width: 0.381006; }
line.green {stroke: rgb(0, 255, 0); stroke-width: 0.381006; }
line.blue {stroke: rgb(0, 0, 255); stroke-width: 0.381006; }
line.black {stroke: rgb(0, 0, 0); stroke-width: 0.381006; }
line.gray {stroke: rgb(204, 204, 204); stroke-width: 0.381006; }
line.brown {stroke: rgb(211.65, 104.55, 30.6); stroke-width: 0.381006; }
line {stroke: rgb(0, 0, 0); }
text.numbering-label {fill: rgb(204, 204, 204);}
line.numbering-line {stroke: rgb(204, 204, 204); stroke-width: 0.190503;}
line.predicted {stroke: rgb(0, 0, 0); stroke-dasharray: 2}
text.background {fill: rgb(255, 255, 255);
.template {visibility:hidden}
]]>
</style></g>
<g><title>0 (position.label in template: 0.5')</title><text x="112.167" y="49.428" class="green" >5'</text></g>
<g><title>1 (position.label in template: 2.N)</title><text x="112.225" y="56.9383" class="green" >U</text></g>
<g><line x1="114.257" y1="56.6335" x2="122.433" y2="56.6335" class="black" /></g>
<g><title>2 (position.label in template: 3.Y)</title><text x="112.285" y="64.7083" class="green" >G</text></g>
<g><line x1="114.317" y1="64.4035" x2="122.073" y2="64.4035" class="black" /></g>
<g><title>3 (position.label in template: 4.N)</title><text x="112.225" y="72.0583" class="green" >G</text></g>
<g><line x1="114.257" y1="71.7535" x2="122.433" y2="71.7535" class="black" /></g>
<g><title>4 (inserted)</title><text x="111.353" y="77.3173" class="red" >A</text></g>
<g><title>5 (position.label in template: 5.Y)</title><text x="112.269" y="82.5687" class="green" >G</text></g>
<g><line x1="114.301" y1="82.2639" x2="122.267" y2="82.2639" class="black" /></g>
<g><title>6 (position.label in template: 6.Y)</title><text x="112.269" y="90.1287" class="green" >U</text></g>
<g><line x1="114.301" y1="89.8239" x2="122.267" y2="89.8239" class="black" /></g>
<g><title>7 (position.label in template: 7.R)</title><text x="112.059" y="97.6887" class="green" >G</text></g>
<g><line x1="114.091" y1="97.3494" x2="122.417" y2="97.2083" class="black" /></g>
<g><title>8 (position.label in template: 8.U)</title><text x="104.364" y="102.784" class="blue" >U</text></g>
<g><title>9 (position.label in template: 9.R)</title><text x="96.7001" y="107.928" class="green" >A</text></g>
<g><title>10 (position.label in template: 11.C)</title><text x="89.0688" y="113.119" class="green" >G</text></g>
<g><line x1="89.0339" y1="114.846" x2="88.8937" y2="123.022" class="black" /></g>
<g><title>10 (inserted)</title><text x="86.8513" y="106.629" class="numbering-label sequential" >10</text></g>
<g><line x1="88.4775" y1="111.388" x2="87.372" y2="108.153" class="numbering-line sequential" /></g>
<g><title>11 (position.label in template: 12.U)</title><text x="81.5088" y="113.119" class="green" >C</text></g>
<g><line x1="81.5437" y1="114.846" x2="81.6839" y2="123.022" class="black" /></g>
<g><title>12 (position.label in template: 13.Y)</title><text x="74.1588" y="113.119" class="green" >U</text></g>
<g><line x1="74.1239" y1="114.846" x2="73.9837" y2="123.022" class="black" /></g>
<g><title>13 (position.label in template: 14.A)</title><text x="69.6194" y="108.201" class="green" >C</text></g>
<g><title>14 (position.label in template: 15.G)</title><text x="63.2196" y="106.245" class="green" >A</text></g>
<g><title>15 (position.label in template: 16.U)</title><text x="56.7067" y="107.784" class="green" >G</text></g>
<g><title>16 (position.label in template: 17.G)</title><text x="51.859" y="112.397" class="green" >U</text></g>
<g><title>17 (position.label in template: 18.G)</title><text x="50" y="118.826" class="blue" >G</text></g>
<g><title>18 (position.label in template: 19.U)</title><text x="51.6373" y="125.315" class="green" >G</text></g>
<g><title>19 (position.label in template: 20.N)</title><text x="56.324" y="130.092" class="green" >U</text></g>
<g><title>20 (position.label in template: 21.A)</title><text x="62.7802" y="131.853" class="blue" >A</text></g>
<g><title>20 (inserted)</title><text x="62.7668" y="138.711" class="numbering-label sequential" >20</text></g>
<g><line x1="62.7767" y1="133.682" x2="62.7698" y2="137.187" class="numbering-line sequential" /></g>
<g><title>21 (inserted)</title><text x="69.2434" y="130.117" class="red" >U</text></g>
<g><title>22 (position.label in template: 22.R)</title><text x="73.9488" y="125.359" class="green" >G</text></g>
<g><title>23 (position.label in template: 23.A)</title><text x="81.7188" y="125.359" class="green" >G</text></g>
<g><title>24 (position.label in template: 24.G)</title><text x="88.8588" y="125.359" class="green" >U</text></g>
<g><title>25 (position.label in template: 26.R)</title><text x="95.855" y="135.032" class="green" >A</text></g>
<g><title>26 (position.label in template: 28.Y)</title><text x="102.929" y="144.649" class="green" >U</text></g>
<g><line x1="104.841" y1="145.03" x2="112.356" y2="147.727" class="black" /></g>
<g><title>27 (inserted)</title><text x="100.268" y="149.288" class="red" >U</text></g>
<g><title>28 (position.label in template: 29.N)</title><text x="99.2955" y="154.548" class="green" >U</text></g>
<g><line x1="101.212" y1="154.919" x2="108.919" y2="157.637" class="black" /></g>
<g><title>29 (position.label in template: 30.N)</title><text x="96.7855" y="161.678" class="green" >G</text></g>
<g><line x1="98.7019" y1="162.049" x2="106.409" y2="164.767" class="black" /></g>
<g><title>30 (position.label in template: 31.N)</title><text x="94.2655" y="168.808" class="green" >C</text></g>
<g><line x1="96.1819" y1="169.179" x2="103.889" y2="171.897" class="black" /></g>
<g><title>30 (inserted)</title><text x="88.9757" y="164.443" class="numbering-label sequential" >30</text></g>
<g><line x1="92.8549" y1="167.644" x2="90.8045" y2="165.952" class="numbering-line sequential" /></g>
<g><title>31 (position.label in template: 32.C)</title><text x="87.5855" y="172.828" class="green" >U</text></g>
<g><title>32 (position.label in template: 33.U)</title><text x="84.6955" y="179.818" class="black" >U</text></g>
<g><title>33 (position.label in template: 34.N)</title><text x="86.7655" y="186.918" class="green" >A</text></g>
<g><title>34 (position.label in template: 35.G)</title><text x="92.3655" y="191.788" class="black" >G</text></g>
<g><title>35 (position.label in template: 36.U)</title><text x="100.136" y="191.898" class="black" >U</text></g>
<g><title>36 (position.label in template: 37.A)</title><text x="106.426" y="187.408" class="black" >A</text></g>
<g><title>37 (position.label in template: 38.A)</title><text x="108.556" y="180.148" class="green" >U</text></g>
<g><title>38 (position.label in template: 39.N)</title><text x="105.806" y="172.878" class="green" >G</text></g>
<g><title>39 (position.label in template: 40.N)</title><text x="108.326" y="165.748" class="green" >U</text></g>
<g><title>40 (position.label in template: 41.N)</title><text x="110.836" y="158.618" class="green" >G</text></g>
<g><title>41 (inserted)</title><text x="113.392" y="153.959" class="red" >C</text></g>
<g><title>42 (position.label in template: 42.R)</title><text x="114.269" y="148.719" class="green" >A</text></g>
<g><title>43 (position.label in template: 44.A)</title><text x="119.853" y="144.769" class="blue" >A</text></g>
<g><title>44 (position.label in template: 45.G)</title><text x="124.583" y="139.829" class="blue" >G</text></g>
<g><title>45 (position.label in template: 46.R)</title><text x="128.286" y="134.078" class="green" >G</text></g>
<g><title>46 (position.label in template: 47.U)</title><text x="130.825" y="127.727" class="green" >C</text></g>
<g><title>47 (position.label in template: 48.C)</title><text x="132.109" y="121.008" class="blue" >C</text></g>
<g><title>48 (position.label in template: 49.N)</title><text x="132.089" y="114.169" class="green" >C</text></g>
<g><line x1="131.953" y1="111.836" x2="131.405" y2="103.681" class="black" /></g>
<g><title>49 (position.label in template: 50.Y)</title><text x="139.559" y="113.869" class="green" >U</text></g>
<g><line x1="139.396" y1="111.538" x2="138.731" y2="103.259" class="black" /></g>
<g><title>50 (position.label in template: 51.N)</title><text x="147.169" y="113.159" class="green" >G</text></g>
<g><line x1="147.033" y1="110.826" x2="146.485" y2="102.671" class="black" /></g>
<g><title>50 (inserted)</title><text x="147.691" y="119.997" class="numbering-label sequential" >50</text></g>
<g><line x1="147.308" y1="114.982" x2="147.575" y2="118.473" class="numbering-line sequential" /></g>
<g><title>51 (position.label in template: 52.R)</title><text x="154.479" y="112.729" class="green" >G</text></g>
<g><line x1="154.37" y1="110.395" x2="153.938" y2="102.363" class="black" /></g>
<g><title>52 (position.label in template: 53.G)</title><text x="161.849" y="112.109" class="black" >G</text></g>
<g><line x1="161.74" y1="109.775" x2="161.308" y2="101.733" class="black" /></g>
<g><title>53 (position.label in template: 54.U)</title><text x="168.099" y="116.709" class="black" >U</text></g>
<g><title>54 (position.label in template: 55.U)</title><text x="175.669" y="116.609" class="black" >U</text></g>
<g><title>55 (position.label in template: 56.C)</title><text x="181.619" y="111.939" class="black" >C</text></g>
<g><title>56 (position.label in template: 57.R)</title><text x="183.539" y="104.629" class="green" >C</text></g>
<g><title>57 (position.label in template: 58.A)</title><text x="180.829" y="97.7687" class="black" >A</text></g>
<g><title>58 (position.label in template: 59.N)</title><text x="174.379" y="93.7487" class="green" >U</text></g>
<g><title>59 (position.label in template: 60.U)</title><text x="166.619" y="94.7387" class="green" >C</text></g>
<g><title>60 (position.label in template: 61.C)</title><text x="161.199" y="100.009" class="black" >C</text></g>
<g><title>61 (position.label in template: 62.Y)</title><text x="153.829" y="100.639" class="green" >C</text></g>
<g><title>62 (position.label in template: 63.N)</title><text x="146.349" y="100.949" class="green" >C</text></g>
<g><title>63 (position.label in template: 64.R)</title><text x="138.569" y="101.539" class="green" >A</text></g>
<g><title>64 (position.label in template: 65.N)</title><text x="131.269" y="101.959" class="green" >G</text></g>
<g><title>65 (position.label in template: 66.N)</title><text x="124.449" y="97.4787" class="green" >C</text></g>
<g><title>66 (position.label in template: 67.R)</title><text x="124.299" y="90.1287" class="green" >A</text></g>
<g><title>67 (position.label in template: 68.R)</title><text x="124.299" y="82.5687" class="green" >C</text></g>
<g><title>68 (inserted)</title><text x="125.276" y="77.3276" class="red" >C</text></g>
<g><title>69 (position.label in template: 69.N)</title><text x="124.465" y="72.0583" class="green" >C</text></g>
<g><title>70 (position.label in template: 70.G)</title><text x="124.105" y="64.7083" class="green" >C</text></g>
<g><title>71 (position.label in template: 71.N)</title><text x="124.465" y="56.9383" class="green" >A</text></g>
<g><title>72 (position.label in template: 73.N)</title><text x="127.34" y="50" class="green" >A</text></g>
<g><title>73 (position.label in template: 74.3')</title><text x="127.906" y="42.5108" class="green" >3'</text></g>
<g><line x1="112.182" y1="51.1552" x2="112.209" y2="54.6016" class="gray" /></g>
<g><line x1="112.24" y1="58.6655" x2="112.269" y2="62.3716" class="gray" /></g>
<g><line x1="112.268" y1="66.4355" x2="112.241" y2="69.7216" class="gray" /></g>
<g><line x1="111.892" y1="73.7582" x2="111.685" y2="75.0078" class="gray" /></g>
<g><line x1="111.702" y1="79.0143" x2="111.92" y2="80.2621" class="gray" /></g>
<g><line x1="112.269" y1="84.2959" x2="112.269" y2="87.7918" class="gray" /></g>
<g><line x1="112.212" y1="91.8551" x2="112.115" y2="95.3526" class="gray" /></g>
<g><line x1="110.365" y1="98.5058" x2="106.058" y2="101.358" class="gray" /></g>
<g><line x1="102.676" y1="103.612" x2="98.3874" y2="106.491" class="gray" /></g>
<g><line x1="95.0199" y1="108.766" x2="90.749" y2="111.671" class="gray" /></g>
<g><line x1="87.0368" y1="112.814" x2="83.5408" y2="112.814" class="gray" /></g>
<g><line x1="79.4768" y1="112.814" x2="76.1908" y2="112.814" class="gray" /></g>
<g><line x1="72.7804" y1="111.321" x2="70.9978" y2="109.39" class="gray" /></g>
<g><line x1="67.6762" y1="107.303" x2="65.1629" y2="106.534" class="gray" /></g>
<g><line x1="61.242" y1="106.407" x2="58.6843" y2="107.012" class="gray" /></g>
<g><line x1="55.2347" y1="108.88" x2="53.331" y2="110.692" class="gray" /></g>
<g><line x1="51.2945" y1="114.044" x2="50.5645" y2="116.569" class="gray" /></g>
<g><line x1="50.4972" y1="120.491" x2="51.1402" y2="123.04" class="gray" /></g>
<g><line x1="53.0604" y1="126.46" x2="54.9009" y2="128.337" class="gray" /></g>
<g><line x1="58.2844" y1="130.322" x2="60.8198" y2="131.013" class="gray" /></g>
<g><line x1="64.7427" y1="131.021" x2="67.2809" y2="130.34" class="gray" /></g>
<g><line x1="70.6722" y1="128.368" x2="72.52" y2="126.499" class="gray" /></g>
<g><line x1="75.9808" y1="125.054" x2="79.6868" y2="125.054" class="gray" /></g>
<g><line x1="83.7508" y1="125.054" x2="86.8268" y2="125.054" class="gray" /></g>
<g><line x1="90.0496" y1="126.7" x2="94.6642" y2="133.081" class="gray" /></g>
<g><line x1="97.0591" y1="136.364" x2="101.725" y2="142.707" class="gray" /></g>
<g><line x1="101.918" y1="146.107" x2="101.279" y2="147.221" class="gray" /></g>
<g><line x1="99.8983" y1="150.982" x2="99.6649" y2="152.245" class="gray" /></g>
<g><line x1="98.6208" y1="156.159" x2="97.4603" y2="159.456" class="gray" /></g>
<g><line x1="96.1084" y1="163.289" x2="94.9427" y2="166.587" class="gray" /></g>
<g><line x1="92.5245" y1="169.55" x2="89.3266" y2="171.475" class="gray" /></g>
<g><line x1="86.8091" y1="174.401" x2="85.4719" y2="177.635" class="gray" /></g>
<g><line x1="85.2643" y1="181.464" x2="86.1968" y2="184.662" class="gray" /></g>
<g><line x1="88.2989" y1="187.946" x2="90.8322" y2="190.149" class="gray" /></g>
<g><line x1="94.3974" y1="191.511" x2="98.1037" y2="191.564" class="gray" /></g>
<g><line x1="101.789" y1="190.412" x2="104.772" y2="188.283" class="gray" /></g>
<g><line x1="106.998" y1="185.153" x2="107.983" y2="181.793" class="gray" /></g>
<g><line x1="107.837" y1="177.942" x2="106.524" y2="174.473" class="gray" /></g>
<g><line x1="106.483" y1="170.657" x2="107.648" y2="167.359" class="gray" /></g>
<g><line x1="109" y1="163.526" x2="110.161" y2="160.229" class="gray" /></g>
<g><line x1="111.813" y1="156.531" x2="112.414" y2="155.436" class="gray" /></g>
<g><line x1="113.727" y1="151.65" x2="113.933" y2="150.418" class="gray" /></g>
<g><line x1="115.928" y1="147.241" x2="118.194" y2="145.638" class="gray" /></g>
<g><line x1="121.259" y1="142.997" x2="123.178" y2="140.992" class="gray" /></g>
<g><line x1="125.683" y1="137.816" x2="127.186" y2="135.482" class="gray" /></g>
<g><line x1="129.04" y1="131.886" x2="130.071" y2="129.309" class="gray" /></g>
<g><line x1="131.207" y1="125.426" x2="131.727" y2="122.7" class="gray" /></g>
<g><line x1="132.103" y1="118.672" x2="132.095" y2="115.896" class="gray" /></g>
<g><line x1="134.119" y1="113.782" x2="137.528" y2="113.645" class="gray" /></g>
<g><line x1="141.582" y1="113.375" x2="145.146" y2="113.043" class="gray" /></g>
<g><line x1="149.197" y1="112.735" x2="152.45" y2="112.543" class="gray" /></g>
<g><line x1="156.504" y1="112.254" x2="159.824" y2="111.974" class="gray" /></g>
<g><line x1="163.485" y1="113.008" x2="166.462" y2="115.199" class="gray" /></g>
<g><line x1="170.131" y1="116.377" x2="173.637" y2="116.331" class="gray" /></g>
<g><line x1="177.267" y1="115.049" x2="180.02" y2="112.888" class="gray" /></g>
<g><line x1="182.135" y1="109.669" x2="183.023" y2="106.289" class="gray" /></g>
<g><line x1="182.792" y1="102.434" x2="181.575" y2="99.3538" class="gray" /></g>
<g><line x1="179.104" y1="96.3891" x2="176.103" y2="94.5187" class="gray" /></g>
<g><line x1="172.363" y1="93.701" x2="168.634" y2="94.1767" class="gray" /></g>
<g><line x1="165.162" y1="95.8504" x2="162.656" y2="98.2873" class="gray" /></g>
<g><line x1="159.174" y1="99.8769" x2="155.853" y2="100.161" class="gray" /></g>
<g><line x1="151.799" y1="100.418" x2="148.379" y2="100.56" class="gray" /></g>
<g><line x1="144.323" y1="100.798" x2="140.595" y2="101.08" class="gray" /></g>
<g><line x1="136.54" y1="101.351" x2="133.297" y2="101.537" class="gray" /></g>
<g><line x1="129.57" y1="100.538" x2="126.147" y2="98.2895" class="gray" /></g>
<g><line x1="124.407" y1="95.1423" x2="124.34" y2="91.8555" class="gray" /></g>
<g><line x1="124.299" y1="87.7918" x2="124.299" y2="84.2959" class="gray" /></g>
<g><line x1="124.671" y1="80.2663" x2="124.903" y2="79.0204" class="gray" /></g>
<g><line x1="124.967" y1="75.0144" x2="124.774" y2="73.7619" class="gray" /></g>
<g><line x1="124.365" y1="69.7239" x2="124.204" y2="66.4331" class="gray" /></g>
<g><line x1="124.199" y1="62.3737" x2="124.371" y2="58.6634" class="gray" /></g>
<g><line x1="125.243" y1="54.7563" x2="126.562" y2="51.5724" class="gray" /></g>
<g><line x1="127.493" y1="47.6689" x2="127.753" y2="44.2323" class="gray" /></g>
</svg>
