<svg
	xmlns="http://www.w3.org/2000/svg"
	width="242.808"
	height="244.061"
	style="font-size: 3.048045px; font-weight: bold; font-family: Helvetica; " >
<g><style type="text/css" >
<!-- create color definitions -->
<![CDATA[
text.red {fill: rgb(255, 0, 255); }
text.green {fill: rgb(0, 255, 0); }
text.blue {fill: rgb(0, 0, 255); }
text.black {fill: rgb(0, 0, 0); }
text.gray {fill: rgb(204, 204, 204); }
text.brown {fill: rgb(211.65, 104.55, 30.6); }
text {fill: rgb(0, 0, 0); text-anchor: middle; alignment-baseline: middle; }
circle.red {stroke: rgb(255, 0, 255); fill: none; }
circle.green {stroke: rgb(0, 255, 0); fill: none; }
circle.blue {stroke: rgb(0, 0, 255); fill: none; }
circle.black {stroke: rgb(0, 0, 0); fill: none; }
circle.gray {stroke: rgb(204, 204, 204); fill: none; }
circle.brown {stroke: rgb(211.65, 104.55, 30.6); fill: none; }
circle {stroke: rgb(0, 0, 0); }
line.red {stroke: rgb(255, 0, 255); stroke-width: 0.381006; }
line.green {stroke: rgb(0, 255, 0); stroke-width: 0.381006; }
line.blue {stroke: rgb(0, 0, 255); stroke-width: 0.381006; }
line.black {stroke: rgb(0, 0, 0); stroke-width: 0.381006; }
line.gray {stroke: rgb(204, 204, 204); stroke-width: 0.381006; }
line.brown {stroke: rgb(211.65, 104.55, 30.6); stroke-width: 0.381006; }
line {stroke: rgb(0, 0, 0); }
text.numbering-label {fill: rgb(204, 204, 204);}
line.numbering-line {stroke: rgb(204, 204, 204); stroke-width: 0.190503;}
line.predicted {stroke: rgb(0, 0, 0); stroke-dasharray: 2}
text.background {fill: rgb(255, 255, 255);
.template {visibility:hidden}
]]>
</style></g>
<g><title>0 (position.label in template: 0.5')</title><text x="117.648" y="47.8379" class="green" >5'</text></g>
<g><title>1 (position.label in template: 1.G)</title><text x="118.016" y="55.3395" class="black" >G</text></g>
<g><line x1="120.048" y1="55.0347" x2="128.434" y2="55.0347" class="black" /></g>
<g><title>2 (position.label in template: 2.N)</title><text x="118.376" y="62.6895" class="green" >C</text></g>
<g><line x1="120.408" y1="62.3847" x2="128.584" y2="62.3847" class="black" /></g>
<g><title>3 (position.label in template: 3.Y)</title><text x="118.436" y="70.4595" class="green" >C</text></g>
<g><line x1="120.468" y1="70.1547" x2="128.224" y2="70.1547" class="black" /></g>
<g><title>4 (position.label in template: 4.N)</title><text x="118.376" y="77.8095" class="green" >U</text></g>
<g><line x1="120.408" y1="77.5047" x2="128.584" y2="77.5047" class="black" /></g>
<g><title>5 (position.label in template: 5.Y)</title><text x="118.436" y="85.5795" class="green" >U</text></g>
<g><line x1="120.468" y1="85.2747" x2="128.434" y2="85.2747" class="black" /></g>
<g><title>6 (position.label in template: 6.Y)</title><text x="118.436" y="93.1395" class="green" >C</text></g>
<g><line x1="120.468" y1="92.8347" x2="128.434" y2="92.8347" class="black" /></g>
<g><title>7 (position.label in template: 7.R)</title><text x="118.226" y="100.699" class="green" >G</text></g>
<g><line x1="120.257" y1="100.36" x2="128.584" y2="100.219" class="black" /></g>
<g><title>8 (position.label in template: 8.U)</title><text x="108.003" y="105.765" class="blue" >U</text></g>
<g><title>9 (position.label in template: 9.R)</title><text x="97.8194" y="110.908" class="green" >G</text></g>
<g><title>10 (position.label in template: 12.U)</title><text x="87.6757" y="116.129" class="green" >G</text></g>
<g><line x1="87.7105" y1="117.856" x2="87.8508" y2="126.033" class="black" /></g>
<g><title>10 (inserted)</title><text x="85.7142" y="109.558" class="numbering-label sequential" >10</text></g>
<g><line x1="87.1526" y1="114.377" x2="86.1691" y2="111.082" class="numbering-line sequential" /></g>
<g><title>11 (position.label in template: 13.Y)</title><text x="80.3257" y="116.129" class="green" >U</text></g>
<g><line x1="80.2908" y1="117.856" x2="80.1505" y2="126.033" class="black" /></g>
<g><title>12 (position.label in template: 14.A)</title><text x="75.0704" y="115.236" class="blue" >A</text></g>
<g><title>13 (inserted)</title><text x="69.8151" y="116.129" class="red" >U</text></g>
<g><line x1="69.7803" y1="117.856" x2="69.64" y2="126.033" class="black" /></g>
<g><title>14 (position.label in template: 15.G)</title><text x="64.5206" y="111.949" class="green" >A</text></g>
<g><title>15 (position.label in template: 16.U)</title><text x="57.7781" y="111.723" class="green" >A</text></g>
<g><title>16 (position.label in template: 17.G)</title><text x="52.2153" y="115.539" class="green" >C</text></g>
<g><title>17 (position.label in template: 18.G)</title><text x="50" y="121.911" class="blue" >G</text></g>
<g><title>18 (position.label in template: 19.U)</title><text x="51.9954" y="128.356" class="green" >G</text></g>
<g><title>19 (position.label in template: 20.N)</title><text x="57.424" y="132.361" class="green" >U</text></g>
<g><title>20 (position.label in template: 21.A)</title><text x="64.1703" y="132.366" class="blue" >A</text></g>
<g><title>20 (inserted)</title><text x="66.3058" y="138.883" class="numbering-label sequential" >20</text></g>
<g><line x1="64.7397" y1="134.104" x2="65.8064" y2="137.359" class="numbering-line sequential" /></g>
<g><title>21 (inserted)</title><text x="69.6051" y="128.369" class="red" >G</text></g>
<g><title>22 (inserted)</title><text x="74.8604" y="129.263" class="red" >C</text></g>
<g><title>23 (position.label in template: 22.R)</title><text x="80.1157" y="128.369" class="green" >A</text></g>
<g><title>24 (position.label in template: 23.A)</title><text x="87.8857" y="128.369" class="green" >C</text></g>
<g><title>25 (position.label in template: 26.R)</title><text x="98.4441" y="138.066" class="green" >A</text></g>
<g><title>26 (position.label in template: 28.Y)</title><text x="109.096" y="147.659" class="green" >C</text></g>
<g><line x1="111.008" y1="148.041" x2="118.523" y2="150.738" class="black" /></g>
<g><title>27 (position.label in template: 29.N)</title><text x="106.526" y="154.579" class="green" >U</text></g>
<g><line x1="108.442" y1="154.951" x2="116.149" y2="157.669" class="black" /></g>
<g><title>28 (position.label in template: 30.N)</title><text x="104.016" y="161.709" class="green" >C</text></g>
<g><line x1="105.932" y1="162.081" x2="113.639" y2="164.799" class="black" /></g>
<g><title>29 (position.label in template: 31.N)</title><text x="101.496" y="168.839" class="green" >G</text></g>
<g><line x1="103.412" y1="169.211" x2="111.119" y2="171.929" class="black" /></g>
<g><title>30 (position.label in template: 32.C)</title><text x="95.3946" y="171.589" class="green" >G</text></g>
<g><title>30 (inserted)</title><text x="91.0411" y="166.29" class="numbering-label sequential" >30</text></g>
<g><line x1="94.2337" y1="170.176" x2="92.2932" y2="167.814" class="numbering-line sequential" /></g>
<g><title>31 (position.label in template: 33.U)</title><text x="91.5134" y="177.04" class="blue" >U</text></g>
<g><title>32 (position.label in template: 34.N)</title><text x="90.9118" y="183.705" class="green" >C</text></g>
<g><title>33 (position.label in template: 35.G)</title><text x="93.7543" y="189.764" class="green" >C</text></g>
<g><title>34 (position.label in template: 36.U)</title><text x="99.2644" y="193.561" class="green" >G</text></g>
<g><title>35 (position.label in template: 37.A)</title><text x="105.938" y="194.061" class="green" >U</text></g>
<g><title>36 (position.label in template: 38.A)</title><text x="111.952" y="191.126" class="blue" >A</text></g>
<g><title>37 (inserted)</title><text x="115.665" y="185.558" class="red" >U</text></g>
<g><title>38 (inserted)</title><text x="116.062" y="178.878" class="red" >U</text></g>
<g><title>39 (position.label in template: 39.N)</title><text x="113.036" y="172.909" class="green" >C</text></g>
<g><title>40 (position.label in template: 40.N)</title><text x="115.556" y="165.779" class="green" >G</text></g>
<g><title>41 (position.label in template: 41.N)</title><text x="118.066" y="158.649" class="green" >A</text></g>
<g><title>42 (position.label in template: 42.R)</title><text x="120.436" y="151.729" class="green" >G</text></g>
<g><title>43 (position.label in template: 44.A)</title><text x="125.574" y="144.818" class="blue" >A</text></g>
<g><title>44 (position.label in template: 45.G)</title><text x="130.673" y="137.878" class="blue" >G</text></g>
<g><title>45 (position.label in template: 46.R)</title><text x="135.731" y="130.907" class="green" >G</text></g>
<g><title>46 (position.label in template: 47.U)</title><text x="140.749" y="123.908" class="blue" >U</text></g>
<g><title>47 (position.label in template: 50.Y)</title><text x="145.726" y="116.879" class="green" >C</text></g>
<g><line x1="145.563" y1="114.549" x2="144.898" y2="106.27" class="black" /></g>
<g><title>48 (position.label in template: 51.N)</title><text x="153.336" y="116.169" class="green" >C</text></g>
<g><line x1="153.199" y1="113.837" x2="152.652" y2="105.682" class="black" /></g>
<g><title>49 (inserted)</title><text x="158.591" y="116.756" class="red" >A</text></g>
<g><title>50 (position.label in template: 52.R)</title><text x="163.748" y="115.584" class="green" >G</text></g>
<g><line x1="163.639" y1="113.25" x2="163.207" y2="105.219" class="black" /></g>
<g><title>50 (inserted)</title><text x="164.719" y="122.373" class="numbering-label sequential" >50</text></g>
<g><line x1="164.007" y1="117.395" x2="164.501" y2="120.849" class="numbering-line sequential" /></g>
<g><title>51 (position.label in template: 53.G)</title><text x="171.118" y="114.964" class="black" >G</text></g>
<g><line x1="171.009" y1="112.63" x2="170.577" y2="104.589" class="black" /></g>
<g><title>52 (position.label in template: 54.U)</title><text x="177.368" y="119.564" class="black" >U</text></g>
<g><title>53 (position.label in template: 55.U)</title><text x="184.938" y="119.464" class="black" >U</text></g>
<g><title>54 (position.label in template: 56.C)</title><text x="190.888" y="114.794" class="black" >C</text></g>
<g><title>55 (position.label in template: 57.R)</title><text x="192.808" y="107.484" class="green" >G</text></g>
<g><title>56 (position.label in template: 58.A)</title><text x="190.098" y="100.624" class="black" >A</text></g>
<g><title>57 (position.label in template: 59.N)</title><text x="183.648" y="96.6042" class="green" >G</text></g>
<g><title>58 (position.label in template: 60.U)</title><text x="175.888" y="97.5942" class="black" >U</text></g>
<g><title>59 (position.label in template: 61.C)</title><text x="170.468" y="102.864" class="black" >C</text></g>
<g><title>60 (position.label in template: 62.Y)</title><text x="163.098" y="103.494" class="green" >C</text></g>
<g><title>61 (inserted)</title><text x="157.767" y="102.82" class="red" >C</text></g>
<g><title>62 (position.label in template: 63.N)</title><text x="152.516" y="103.959" class="green" >G</text></g>
<g><title>63 (position.label in template: 64.R)</title><text x="144.736" y="104.549" class="green" >G</text></g>
<g><title>64 (position.label in template: 66.N)</title><text x="130.616" y="100.489" class="green" >C</text></g>
<g><title>65 (position.label in template: 67.R)</title><text x="130.466" y="93.1395" class="green" >G</text></g>
<g><title>66 (position.label in template: 68.R)</title><text x="130.466" y="85.5795" class="green" >A</text></g>
<g><title>67 (position.label in template: 69.N)</title><text x="130.616" y="77.8095" class="green" >G</text></g>
<g><title>68 (position.label in template: 70.G)</title><text x="130.256" y="70.4595" class="green" >G</text></g>
<g><title>69 (position.label in template: 71.N)</title><text x="130.616" y="62.6895" class="green" >G</text></g>
<g><title>70 (position.label in template: 72.C)</title><text x="130.466" y="55.3395" class="black" >C</text></g>
<g><title>71 (position.label in template: 73.N)</title><text x="135.748" y="50" class="green" >A</text></g>
<g><title>72 (position.label in template: 74.3')</title><text x="132.858" y="43.0677" class="green" >3'</text></g>
<g><line x1="117.748" y1="49.5627" x2="117.916" y2="53.0051" class="gray" /></g>
<g><line x1="118.115" y1="57.0643" x2="118.276" y2="60.3551" class="gray" /></g>
<g><line x1="118.391" y1="64.4166" x2="118.42" y2="68.1227" class="gray" /></g>
<g><line x1="118.419" y1="72.1866" x2="118.392" y2="75.4727" class="gray" /></g>
<g><line x1="118.391" y1="79.5366" x2="118.42" y2="83.2427" class="gray" /></g>
<g><line x1="118.436" y1="87.3067" x2="118.436" y2="90.8026" class="gray" /></g>
<g><line x1="118.379" y1="94.8659" x2="118.282" y2="98.3634" class="gray" /></g>
<g><line x1="116.405" y1="101.297" x2="109.824" y2="104.558" class="gray" /></g>
<g><line x1="106.189" y1="106.376" x2="99.6332" y2="109.687" class="gray" /></g>
<g><line x1="96.0127" y1="111.533" x2="89.4824" y2="114.895" class="gray" /></g>
<g><line x1="85.6436" y1="115.825" x2="82.3577" y2="115.825" class="gray" /></g>
<g><line x1="78.3224" y1="115.484" x2="77.0737" y2="115.271" class="gray" /></g>
<g><line x1="73.0671" y1="115.271" x2="71.8184" y2="115.484" class="gray" /></g>
<g><line x1="68.2204" y1="114.565" x2="66.1153" y2="112.903" class="gray" /></g>
<g><line x1="62.4897" y1="111.576" x2="59.809" y2="111.486" class="gray" /></g>
<g><line x1="56.1026" y1="112.567" x2="53.8909" y2="114.085" class="gray" /></g>
<g><line x1="51.5481" y1="117.154" x2="50.6673" y2="119.687" class="gray" /></g>
<g><line x1="50.601" y1="123.548" x2="51.3944" y2="126.11" class="gray" /></g>
<g><line x1="53.6306" y1="129.257" x2="55.7889" y2="130.85" class="gray" /></g>
<g><line x1="59.4561" y1="132.058" x2="62.1382" y2="132.06" class="gray" /></g>
<g><line x1="65.8073" y1="130.858" x2="67.9681" y2="129.269" class="gray" /></g>
<g><line x1="71.6084" y1="128.405" x2="72.8571" y2="128.618" class="gray" /></g>
<g><line x1="76.8637" y1="128.618" x2="78.1124" y2="128.405" class="gray" /></g>
<g><line x1="82.1477" y1="128.065" x2="85.8536" y2="128.065" class="gray" /></g>
<g><line x1="89.3823" y1="129.439" x2="96.9474" y2="136.386" class="gray" /></g>
<g><line x1="99.954" y1="139.121" x2="107.586" y2="145.995" class="gray" /></g>
<g><line x1="108.388" y1="149.26" x2="107.233" y2="152.37" class="gray" /></g>
<g><line x1="105.851" y1="156.191" x2="104.69" y2="159.488" class="gray" /></g>
<g><line x1="103.339" y1="163.321" x2="102.173" y2="166.619" class="gray" /></g>
<g><line x1="99.6431" y1="169.37" x2="97.2472" y2="170.449" class="gray" /></g>
<g><line x1="94.216" y1="172.939" x2="92.6919" y2="175.08" class="gray" /></g>
<g><line x1="91.3307" y1="178.759" x2="91.0945" y2="181.377" class="gray" /></g>
<g><line x1="91.7749" y1="185.24" x2="92.8911" y2="187.619" class="gray" /></g>
<g><line x1="95.4274" y1="190.612" x2="97.5913" y2="192.103" class="gray" /></g>
<g><line x1="101.291" y1="193.408" x2="103.911" y2="193.604" class="gray" /></g>
<g><line x1="107.764" y1="192.865" x2="110.126" y2="191.712" class="gray" /></g>
<g><line x1="113.079" y1="189.13" x2="114.537" y2="186.944" class="gray" /></g>
<g><line x1="115.785" y1="183.225" x2="115.941" y2="180.602" class="gray" /></g>
<g><line x1="115.143" y1="176.761" x2="113.955" y2="174.417" class="gray" /></g>
<g><line x1="113.713" y1="170.689" x2="114.879" y2="167.391" class="gray" /></g>
<g><line x1="116.23" y1="163.558" x2="117.391" y2="160.261" class="gray" /></g>
<g><line x1="118.724" y1="156.422" x2="119.777" y2="153.347" class="gray" /></g>
<g><line x1="121.648" y1="149.794" x2="124.362" y2="146.144" class="gray" /></g>
<g><line x1="126.777" y1="142.876" x2="129.47" y2="139.21" class="gray" /></g>
<g><line x1="131.866" y1="135.928" x2="134.538" y2="132.247" class="gray" /></g>
<g><line x1="136.915" y1="128.951" x2="139.565" y2="125.255" class="gray" /></g>
<g><line x1="141.923" y1="121.945" x2="144.551" y2="118.233" class="gray" /></g>
<g><line x1="147.749" y1="116.386" x2="151.312" y2="116.053" class="gray" /></g>
<g><line x1="155.355" y1="116.09" x2="156.572" y2="116.226" class="gray" /></g>
<g><line x1="160.573" y1="116.001" x2="161.767" y2="115.73" class="gray" /></g>
<g><line x1="165.773" y1="115.109" x2="169.093" y2="114.83" class="gray" /></g>
<g><line x1="172.755" y1="115.864" x2="175.731" y2="118.055" class="gray" /></g>
<g><line x1="179.4" y1="119.233" x2="182.906" y2="119.186" class="gray" /></g>
<g><line x1="186.537" y1="117.905" x2="189.29" y2="115.744" class="gray" /></g>
<g><line x1="191.404" y1="112.524" x2="192.292" y2="109.145" class="gray" /></g>
<g><line x1="192.061" y1="105.29" x2="190.845" y2="102.209" class="gray" /></g>
<g><line x1="188.374" y1="99.2446" x2="185.373" y2="97.3742" class="gray" /></g>
<g><line x1="181.632" y1="96.5566" x2="177.904" y2="97.0323" class="gray" /></g>
<g><line x1="174.431" y1="98.706" x2="171.925" y2="101.143" class="gray" /></g>
<g><line x1="168.443" y1="102.733" x2="165.123" y2="103.016" class="gray" /></g>
<g><line x1="161.082" y1="102.935" x2="159.783" y2="102.77" class="gray" /></g>
<g><line x1="155.781" y1="102.946" x2="154.501" y2="103.224" class="gray" /></g>
<g><line x1="150.489" y1="103.808" x2="146.762" y2="104.091" class="gray" /></g>
<g><line x1="142.783" y1="103.683" x2="132.569" y2="100.746" class="gray" /></g>
<g><line x1="130.574" y1="98.1531" x2="130.507" y2="94.8663" class="gray" /></g>
<g><line x1="130.466" y1="90.8026" x2="130.466" y2="87.3067" class="gray" /></g>
<g><line x1="130.505" y1="83.243" x2="130.576" y2="79.5363" class="gray" /></g>
<g><line x1="130.516" y1="75.4751" x2="130.355" y2="72.1843" class="gray" /></g>
<g><line x1="130.35" y1="68.1248" x2="130.522" y2="64.4145" class="gray" /></g>
<g><line x1="130.574" y1="60.3531" x2="130.507" y2="57.0663" class="gray" /></g>
<g><line x1="131.895" y1="53.59" x2="134.318" y2="51.1398" class="gray" /></g>
<g><line x1="134.966" y1="47.8196" x2="133.639" y2="44.6385" class="gray" /></g>
</svg>
