<svg
	xmlns="http://www.w3.org/2000/svg"
	width="343.407"
	height="283.824"
	style="font-size: 3.068569px; font-weight: bold; font-family: Helvetica; " >
<g><style type="text/css" >
<!-- create color definitions -->
<![CDATA[
text.red {fill: rgb(255, 0, 255); }
text.green {fill: rgb(0, 255, 0); }
text.blue {fill: rgb(0, 0, 255); }
text.black {fill: rgb(0, 0, 0); }
text.gray {fill: rgb(204, 204, 204); }
text.brown {fill: rgb(211.65, 104.55, 30.6); }
text {fill: rgb(0, 0, 0); text-anchor: middle; alignment-baseline: middle; }
circle.red {stroke: rgb(255, 0, 255); fill: none; }
circle.green {stroke: rgb(0, 255, 0); fill: none; }
circle.blue {stroke: rgb(0, 0, 255); fill: none; }
circle.black {stroke: rgb(0, 0, 0); fill: none; }
circle.gray {stroke: rgb(204, 204, 204); fill: none; }
circle.brown {stroke: rgb(211.65, 104.55, 30.6); fill: none; }
circle {stroke: rgb(0, 0, 0); }
line.red {stroke: rgb(255, 0, 255); stroke-width: 0.383571; }
line.green {stroke: rgb(0, 255, 0); stroke-width: 0.383571; }
line.blue {stroke: rgb(0, 0, 255); stroke-width: 0.383571; }
line.black {stroke: rgb(0, 0, 0); stroke-width: 0.383571; }
line.gray {stroke: rgb(204, 204, 204); stroke-width: 0.383571; }
line.brown {stroke: rgb(211.65, 104.55, 30.6); stroke-width: 0.383571; }
line {stroke: rgb(0, 0, 0); }
text.numbering-label {fill: rgb(204, 204, 204);}
line.numbering-line {stroke: rgb(204, 204, 204); stroke-width: 0.191786;}
line.predicted {stroke: rgb(0, 0, 0); stroke-dasharray: 2}
text.background {fill: rgb(255, 255, 255);
.template {visibility:hidden}
]]>
</style></g>
<g><title>0 (position.label in template: 0.5')</title><text x="128.875" y="216.525" class="green" >5'</text></g>
<g><title>1 (position.label in template: 1.N)</title><text x="136.442" y="216.525" class="green" >U</text></g>
<g><title>2 (position.label in template: 2.N)</title><text x="144.009" y="216.525" class="green" >U</text></g>
<g><title>3 (position.label in template: 3.N)</title><text x="151.576" y="216.525" class="green" >A</text></g>
<g><title>4 (position.label in template: 4.Y)</title><text x="159.14" y="216.316" class="green" >A</text></g>
<g><title>5 (position.label in template: 5.N)</title><text x="166.705" y="216.528" class="green" >U</text></g>
<g><title>6 (position.label in template: 7.Y)</title><text x="169.585" y="209.53" class="green" >C</text></g>
<g><line x1="171.63" y1="209.223" x2="179.569" y2="209.223" class="black" /></g>
<g><title>7 (position.label in template: 8.N)</title><text x="169.525" y="202.18" class="green" >C</text></g>
<g><line x1="171.57" y1="201.873" x2="179.719" y2="201.873" class="black" /></g>
<g><title>8 (position.label in template: 9.G)</title><text x="169.165" y="194.41" class="green" >C</text></g>
<g><line x1="171.21" y1="194.103" x2="179.779" y2="194.103" class="black" /></g>
<g><title>9 (position.label in template: 10.N)</title><text x="169.525" y="187.06" class="green" >G</text></g>
<g><line x1="171.57" y1="186.753" x2="179.719" y2="186.753" class="black" /></g>
<g><title>10 (position.label in template: 11.N)</title><text x="169.525" y="179.5" class="green" >C</text></g>
<g><line x1="171.57" y1="179.193" x2="179.719" y2="179.193" class="black" /></g>
<g><title>10 (inserted)</title><text x="164.662" y="184.401" class="numbering-label sequential" >10</text></g>
<g><line x1="168.228" y1="180.807" x2="166.184" y2="182.867" class="numbering-line sequential" /></g>
<g><title>11 (position.label in template: 12.R)</title><text x="159.879" y="177.49" class="green" >U</text></g>
<g><title>12 (position.label in template: 13.R)</title><text x="150.246" y="175.417" class="green" >A</text></g>
<g><title>13 (position.label in template: 14.U)</title><text x="140.628" y="173.28" class="blue" >U</text></g>
<g><title>14 (position.label in template: 15.Y)</title><text x="131.024" y="171.079" class="green" >U</text></g>
<g><title>15 (position.label in template: 16.C)</title><text x="121.434" y="168.814" class="green" >G</text></g>
<g><title>16 (position.label in template: 17.R)</title><text x="111.86" y="166.486" class="green" >C</text></g>
<g><title>17 (position.label in template: 18.N)</title><text x="102.302" y="164.094" class="green" >A</text></g>
<g><title>18 (position.label in template: 19.U)</title><text x="92.7595" y="161.639" class="blue" >U</text></g>
<g><title>19 (inserted)</title><text x="83.2336" y="159.121" class="red" >U</text></g>
<g><title>20 (position.label in template: 26.N)</title><text x="73.7246" y="156.54" class="green" >C</text></g>
<g><line x1="73.0577" y1="154.299" x2="70.4016" y2="146.597" class="black" /></g>
<g><title>20 (inserted)</title><text x="75.5285" y="163.204" class="numbering-label sequential" >20</text></g>
<g><line x1="74.2057" y1="158.317" x2="75.1132" y2="161.67" class="numbering-line sequential" /></g>
<g><title>21 (position.label in template: 27.N)</title><text x="70.4836" y="162.572" class="green" >C</text></g>
<g><title>22 (position.label in template: 28.N)</title><text x="64.4697" y="165.847" class="green" >A</text></g>
<g><title>23 (position.label in template: 29.N)</title><text x="57.644" y="165.297" class="green" >U</text></g>
<g><title>24 (position.label in template: 30.R)</title><text x="52.2325" y="161.101" class="green" >U</text></g>
<g><title>25 (position.label in template: 31.N)</title><text x="50" y="154.627" class="green" >U</text></g>
<g><title>26 (inserted)</title><text x="51.6745" y="147.987" class="red" >C</text></g>
<g><title>27 (inserted)</title><text x="56.71" y="143.346" class="red" >G</text></g>
<g><title>28 (inserted)</title><text x="63.4642" y="142.218" class="red" >A</text></g>
<g><title>29 (position.label in template: 32.N)</title><text x="69.7346" y="144.97" class="green" >G</text></g>
<g><title>30 (position.label in template: 39.U)</title><text x="77.2985" y="140.873" class="black" >U</text></g>
<g><title>30 (inserted)</title><text x="74.0101" y="134.802" class="numbering-label sequential" >30</text></g>
<g><line x1="76.4216" y1="139.254" x2="74.8411" y2="136.336" class="numbering-line sequential" /></g>
<g><title>31 (position.label in template: 40.C)</title><text x="84.8624" y="136.776" class="black" >C</text></g>
<g><title>32 (position.label in template: 41.A)</title><text x="92.4262" y="132.679" class="black" >A</text></g>
<g><title>33 (position.label in template: 42.Y)</title><text x="99.9901" y="128.581" class="green" >U</text></g>
<g><title>34 (position.label in template: 43.N)</title><text x="107.554" y="124.484" class="green" >U</text></g>
<g><title>35 (position.label in template: 44.C)</title><text x="110.842" y="118.017" class="black" >C</text></g>
<g><title>36 (position.label in template: 45.A)</title><text x="111.104" y="109.439" class="black" >A</text></g>
<g><title>37 (position.label in template: 46.A)</title><text x="112.392" y="100.94" class="black" >A</text></g>
<g><title>38 (position.label in template: 47.C)</title><text x="114.756" y="92.6768" class="black" >C</text></g>
<g><title>39 (position.label in template: 48.C)</title><text x="118.092" y="84.7637" class="black" >C</text></g>
<g><title>40 (position.label in template: 49.C)</title><text x="122.713" y="77.5163" class="black" >C</text></g>
<g><title>41 (position.label in template: 50.C)</title><text x="128.073" y="70.7998" class="black" >C</text></g>
<g><title>42 (position.label in template: 51.A)</title><text x="134.249" y="64.8418" class="black" >A</text></g>
<g><title>43 (position.label in template: 52.A)</title><text x="141.208" y="59.8079" class="black" >A</text></g>
<g><title>44 (position.label in template: 53.A)</title><text x="148.763" y="55.7161" class="black" >A</text></g>
<g><title>45 (position.label in template: 54.A)</title><text x="156.816" y="52.7145" class="black" >A</text></g>
<g><title>46 (position.label in template: 55.N)</title><text x="165.193" y="50.7888" class="green" >U</text></g>
<g><title>47 (position.label in template: 56.Y)</title><text x="173.749" y="50" class="green" >U</text></g>
<g><title>48 (position.label in template: 57.N)</title><text x="182.321" y="50.4151" class="green" >C</text></g>
<g><title>49 (position.label in template: 58.U)</title><text x="190.792" y="51.8917" class="black" >U</text></g>
<g><title>50 (position.label in template: 59.A)</title><text x="198.967" y="54.4659" class="black" >A</text></g>
<g><title>50 (inserted)</title><text x="201.446" y="48.022" class="numbering-label sequential" >50</text></g>
<g><line x1="199.628" y1="52.7475" x2="200.856" y2="49.5562" class="numbering-line sequential" /></g>
<g><title>51 (position.label in template: 60.N)</title><text x="206.785" y="58.0435" class="green" >G</text></g>
<g><title>52 (position.label in template: 61.N)</title><text x="214.113" y="62.5338" class="green" >U</text></g>
<g><title>53 (position.label in template: 62.N)</title><text x="220.561" y="68.2167" class="green" >A</text></g>
<g><title>54 (position.label in template: 63.N)</title><text x="226.317" y="74.5975" class="green" >C</text></g>
<g><title>55 (position.label in template: 64.N)</title><text x="231.189" y="81.6725" class="green" >A</text></g>
<g><title>56 (position.label in template: 65.N)</title><text x="235.09" y="89.323" class="green" >C</text></g>
<g><title>57 (position.label in template: 66.R)</title><text x="237.966" y="97.4152" class="green" >A</text></g>
<g><title>58 (position.label in template: 67.N)</title><text x="239.672" y="105.829" class="green" >C</text></g>
<g><title>59 (position.label in template: 68.A)</title><text x="240.426" y="114.394" class="green" >U</text></g>
<g><title>60 (position.label in template: 69.N)</title><text x="239.997" y="122.975" class="green" >A</text></g>
<g><title>61 (position.label in template: 70.Y)</title><text x="238.304" y="131.402" class="green" >A</text></g>
<g><title>62 (position.label in template: 71.N)</title><text x="235.523" y="139.531" class="green" >A</text></g>
<g><title>63 (position.label in template: 72.Y)</title><text x="231.722" y="147.229" class="green" >G</text></g>
<g><title>64 (position.label in template: 73.U)</title><text x="226.832" y="154.284" class="green" >C</text></g>
<g><title>65 (position.label in template: 74.U)</title><text x="221.116" y="160.701" class="black" >U</text></g>
<g><title>66 (position.label in template: 75.N)</title><text x="214.799" y="166.532" class="green" >U</text></g>
<g><title>67 (position.label in template: 76.R)</title><text x="207.535" y="171.11" class="green" >G</text></g>
<g><line x1="205.687" y1="171.681" x2="198.372" y2="175.155" class="black" /></g>
<g><title>68 (position.label in template: 77.Y)</title><text x="210.845" y="178.01" class="green" >C</text></g>
<g><line x1="208.99" y1="178.566" x2="201.479" y2="182.06" class="black" /></g>
<g><title>69 (position.label in template: 78.Y)</title><text x="213.945" y="184.9" class="green" >C</text></g>
<g><line x1="212.068" y1="185.407" x2="204.242" y2="188.799" class="black" /></g>
<g><title>70 (position.label in template: 79.N)</title><text x="216.985" y="192.01" class="green" >U</text></g>
<g><line x1="215.118" y1="192.541" x2="207.691" y2="195.875" class="black" /></g>
<g><title>71 (position.label in template: 80.N)</title><text x="222.635" y="197.02" class="green" >U</text></g>
<g><title>72 (position.label in template: 81.N)</title><text x="222.635" y="204.58" class="green" >U</text></g>
<g><line x1="220.769" y1="205.112" x2="213.34" y2="208.454" class="black" /></g>
<g><title>73 (position.label in template: 82.U)</title><text x="225.585" y="211.27" class="green" >G</text></g>
<g><line x1="223.737" y1="211.841" x2="216.422" y2="215.315" class="black" /></g>
<g><title>74 (position.label in template: 83.N)</title><text x="228.835" y="218.38" class="green" >G</text></g>
<g><line x1="226.968" y1="218.911" x2="219.541" y2="222.245" class="black" /></g>
<g><title>75 (position.label in template: 84.R)</title><text x="233.231" y="222.826" class="green" >G</text></g>
<g><title>76 (position.label in template: 85.N)</title><text x="233.283" y="229.079" class="green" >C</text></g>
<g><title>77 (position.label in template: 86.Y)</title><text x="228.962" y="233.598" class="green" >A</text></g>
<g><title>78 (position.label in template: 87.N)</title><text x="222.713" y="233.824" class="green" >U</text></g>
<g><title>79 (position.label in template: 88.Y)</title><text x="218.075" y="229.63" class="green" >A</text></g>
<g><title>80 (position.label in template: 92.N)</title><text x="217.675" y="223.39" class="green" >U</text></g>
<g><title>81 (position.label in template: 93.N)</title><text x="214.575" y="216.5" class="green" >C</text></g>
<g><title>82 (position.label in template: 94.N)</title><text x="211.475" y="209.6" class="green" >A</text></g>
<g><title>83 (position.label in template: 95.N)</title><text x="205.825" y="204.58" class="green" >G</text></g>
<g><title>84 (position.label in template: 96.N)</title><text x="205.825" y="197.02" class="green" >G</text></g>
<g><title>85 (position.label in template: 97.G)</title><text x="202.365" y="189.92" class="green" >G</text></g>
<g><title>86 (position.label in template: 98.N)</title><text x="199.625" y="183.23" class="green" >G</text></g>
<g><title>87 (position.label in template: 99.N)</title><text x="196.525" y="176.34" class="green" >C</text></g>
<g><title>88 (position.label in template: 100.R)</title><text x="189.085" y="178.14" class="green" >A</text></g>
<g><title>89 (position.label in template: 101.N)</title><text x="181.765" y="179.5" class="green" >G</text></g>
<g><title>90 (position.label in template: 103.N)</title><text x="181.765" y="187.06" class="green" >C</text></g>
<g><title>91 (position.label in template: 104.Y)</title><text x="181.825" y="194.41" class="green" >G</text></g>
<g><title>92 (position.label in template: 105.N)</title><text x="181.765" y="202.18" class="green" >G</text></g>
<g><title>93 (position.label in template: 106.R)</title><text x="181.615" y="209.53" class="green" >G</text></g>
<g><title>94 (position.label in template: 108.R)</title><text x="186.965" y="222.44" class="green" >A</text></g>
<g><title>95 (position.label in template: 109.Y)</title><text x="194.725" y="222.44" class="green" >G</text></g>
<g><title>96 (position.label in template: 110.N)</title><text x="202.235" y="222.65" class="green" >A</text></g>
<g><title>97 (position.label in template: 111.N)</title><text x="209.795" y="222.65" class="green" >A</text></g>
<g><title>98 (inserted)</title><text x="214.958" y="217.118" class="red" >U</text></g>
<g><title>99 (inserted)</title><text x="220.122" y="211.587" class="red" >U</text></g>
<g><title>100 (inserted)</title><text x="225.285" y="206.055" class="red" >U</text></g>
<g><title>100 (inserted)</title><text x="230.332" y="210.766" class="numbering-label sequential" >100</text></g>
<g><line x1="226.631" y1="207.311" x2="228.689" y2="209.232" class="numbering-line sequential" /></g>
<g><title>101 (position.label in template: 112.R)</title><text x="230.449" y="200.524" class="green" >A</text></g>
<g><line x1="232.494" y1="200.217" x2="240.643" y2="200.217" class="black" /></g>
<g><title>102 (position.label in template: 113.R)</title><text x="230.449" y="192.964" class="green" >G</text></g>
<g><line x1="232.494" y1="192.657" x2="240.853" y2="192.657" class="black" /></g>
<g><title>103 (position.label in template: 114.R)</title><text x="230.449" y="185.404" class="green" >A</text></g>
<g><line x1="232.494" y1="185.097" x2="240.853" y2="185.097" class="black" /></g>
<g><title>104 (position.label in template: 115.R)</title><text x="230.449" y="177.844" class="green" >A</text></g>
<g><line x1="232.494" y1="177.537" x2="240.853" y2="177.537" class="black" /></g>
<g><title>105 (position.label in template: 116.N)</title><text x="230.599" y="170.494" class="green" >U</text></g>
<g><line x1="232.644" y1="170.187" x2="240.793" y2="170.187" class="black" /></g>
<g><title>106 (position.label in template: 118.N)</title><text x="230.599" y="162.934" class="green" >U</text></g>
<g><line x1="232.644" y1="162.627" x2="240.793" y2="162.627" class="black" /></g>
<g><title>107 (position.label in template: 119.Y)</title><text x="230.659" y="155.164" class="green" >U</text></g>
<g><line x1="232.704" y1="154.857" x2="240.643" y2="154.857" class="black" /></g>
<g><title>108 (position.label in template: 120.N)</title><text x="230.599" y="147.814" class="green" >C</text></g>
<g><line x1="232.644" y1="147.507" x2="240.793" y2="147.507" class="black" /></g>
<g><title>109 (position.label in template: 121.N)</title><text x="223.039" y="147.814" class="green" >G</text></g>
<g><title>110 (position.label in template: 122.N)</title><text x="223.039" y="140.254" class="green" >A</text></g>
<g><title>111 (position.label in template: 123.N)</title><text x="230.599" y="140.254" class="green" >C</text></g>
<g><line x1="232.644" y1="139.947" x2="240.793" y2="139.947" class="black" /></g>
<g><title>112 (position.label in template: 124.N)</title><text x="230.599" y="132.694" class="green" >A</text></g>
<g><line x1="232.644" y1="132.387" x2="240.793" y2="132.387" class="black" /></g>
<g><title>113 (position.label in template: 125.U)</title><text x="230.449" y="124.924" class="black" >U</text></g>
<g><line x1="232.494" y1="124.617" x2="240.853" y2="124.617" class="black" /></g>
<g><title>114 (position.label in template: 126.N)</title><text x="227.499" y="118.244" class="green" >G</text></g>
<g><title>115 (position.label in template: 127.N)</title><text x="230.599" y="111.344" class="green" >U</text></g>
<g><line x1="232.644" y1="111.037" x2="240.793" y2="111.037" class="black" /></g>
<g><title>116 (position.label in template: 128.G)</title><text x="230.239" y="103.574" class="black" >G</text></g>
<g><line x1="232.284" y1="103.267" x2="240.643" y2="103.267" class="black" /></g>
<g><title>117 (position.label in template: 129.N)</title><text x="230.599" y="96.2235" class="green" >G</text></g>
<g><line x1="232.644" y1="95.9167" x2="240.793" y2="95.9167" class="black" /></g>
<g><title>118 (position.label in template: 130.N)</title><text x="230.599" y="88.6635" class="green" >U</text></g>
<g><line x1="232.644" y1="88.3567" x2="240.793" y2="88.3567" class="black" /></g>
<g><title>119 (position.label in template: 131.A)</title><text x="230.659" y="80.8935" class="black" >A</text></g>
<g><line x1="232.704" y1="80.5867" x2="240.643" y2="80.5867" class="black" /></g>
<g><title>120 (position.label in template: 132.N)</title><text x="226.541" y="75.5702" class="green" >C</text></g>
<g><title>121 (position.label in template: 133.N)</title><text x="226.397" y="68.8421" class="green" >A</text></g>
<g><title>122 (position.label in template: 134.N)</title><text x="230.282" y="63.3471" class="green" >C</text></g>
<g><title>123 (position.label in template: 135.N)</title><text x="236.674" y="61.2401" class="green" >U</text></g>
<g><title>124 (position.label in template: 136.U)</title><text x="243.065" y="63.3471" class="green" >A</text></g>
<g><title>125 (position.label in template: 137.A)</title><text x="246.95" y="68.8421" class="green" >U</text></g>
<g><title>126 (position.label in template: 138.U)</title><text x="246.806" y="75.5702" class="blue" >U</text></g>
<g><title>127 (position.label in template: 140.U)</title><text x="242.689" y="80.8935" class="black" >U</text></g>
<g><title>128 (position.label in template: 141.N)</title><text x="242.839" y="88.6635" class="green" >A</text></g>
<g><title>129 (position.label in template: 142.N)</title><text x="242.839" y="96.2235" class="green" >U</text></g>
<g><title>130 (position.label in template: 143.C)</title><text x="242.689" y="103.574" class="black" >C</text></g>
<g><title>131 (position.label in template: 144.N)</title><text x="242.839" y="111.344" class="green" >U</text></g>
<g><title>132 (position.label in template: 145.N)</title><text x="245.939" y="118.244" class="green" >C</text></g>
<g><title>133 (position.label in template: 146.A)</title><text x="242.899" y="124.924" class="black" >A</text></g>
<g><title>134 (position.label in template: 147.N)</title><text x="242.839" y="132.694" class="green" >U</text></g>
<g><title>135 (position.label in template: 148.N)</title><text x="242.839" y="140.254" class="green" >G</text></g>
<g><title>136 (position.label in template: 149.N)</title><text x="242.839" y="147.814" class="green" >G</text></g>
<g><title>137 (position.label in template: 150.R)</title><text x="242.689" y="155.164" class="green" >A</text></g>
<g><title>138 (position.label in template: 151.N)</title><text x="242.839" y="162.934" class="green" >G</text></g>
<g><title>139 (position.label in template: 152.N)</title><text x="242.839" y="170.494" class="green" >A</text></g>
<g><title>140 (position.label in template: 153.Y)</title><text x="242.899" y="177.844" class="green" >U</text></g>
<g><title>141 (position.label in template: 154.Y)</title><text x="242.899" y="185.404" class="green" >U</text></g>
<g><title>142 (position.label in template: 155.Y)</title><text x="242.899" y="192.964" class="green" >C</text></g>
<g><title>143 (position.label in template: 156.U)</title><text x="242.689" y="200.524" class="green" >U</text></g>
<g><title>144 (position.label in template: 157.N)</title><text x="248.01" y="205.903" class="green" >A</text></g>
<g><title>145 (position.label in template: 158.Y)</title><text x="255.575" y="205.694" class="green" >A</text></g>
<g><title>146 (position.label in template: 159.Y)</title><text x="263.142" y="205.694" class="green" >U</text></g>
<g><title>147 (position.label in template: 160.U)</title><text x="270.709" y="205.694" class="black" >U</text></g>
<g><title>148 (position.label in template: 161.Y)</title><text x="278.276" y="205.694" class="green" >U</text></g>
<g><title>149 (position.label in template: 162.U)</title><text x="285.843" y="205.694" class="black" >U</text></g>
<g><title>150 (position.label in template: 163.N)</title><text x="293.407" y="205.9" class="green" >U</text></g>
<g><title>151 (position.label in template: 166.3')</title><text x="300.971" y="206.107" class="green" >3'</text></g>
<g><line x1="130.921" y1="216.218" x2="134.396" y2="216.218" class="gray" /></g>
<g><line x1="138.488" y1="216.218" x2="141.963" y2="216.218" class="gray" /></g>
<g><line x1="146.055" y1="216.218" x2="149.531" y2="216.218" class="gray" /></g>
<g><line x1="153.621" y1="216.161" x2="157.095" y2="216.066" class="gray" /></g>
<g><line x1="161.185" y1="216.066" x2="164.66" y2="216.164" class="gray" /></g>
<g><line x1="167.483" y1="214.329" x2="168.806" y2="211.115" class="gray" /></g>
<g><line x1="169.568" y1="207.177" x2="169.541" y2="203.919" class="gray" /></g>
<g><line x1="169.43" y1="199.83" x2="169.259" y2="196.147" class="gray" /></g>
<g><line x1="169.265" y1="192.06" x2="169.425" y2="188.796" class="gray" /></g>
<g><line x1="169.525" y1="184.707" x2="169.525" y2="181.239" class="gray" /></g>
<g><line x1="167.522" y1="178.776" x2="161.881" y2="177.601" class="gray" /></g>
<g><line x1="157.879" y1="176.753" x2="152.246" y2="175.541" class="gray" /></g>
<g><line x1="148.249" y1="174.666" x2="142.625" y2="173.417" class="gray" /></g>
<g><line x1="138.634" y1="172.516" x2="133.018" y2="171.229" class="gray" /></g>
<g><line x1="129.033" y1="170.302" x2="123.425" y2="168.978" class="gray" /></g>
<g><line x1="119.447" y1="168.024" x2="113.848" y2="166.663" class="gray" /></g>
<g><line x1="109.876" y1="165.683" x2="104.286" y2="164.284" class="gray" /></g>
<g><line x1="100.321" y1="163.278" x2="94.7407" y2="161.842" class="gray" /></g>
<g><line x1="90.7817" y1="160.81" x2="85.2114" y2="159.337" class="gray" /></g>
<g><line x1="81.2593" y1="158.278" x2="75.6989" y2="156.769" class="gray" /></g>
<g><line x1="72.7564" y1="158.035" x2="71.4518" y2="160.463" class="gray" /></g>
<g><line x1="68.687" y1="163.244" x2="66.2663" y2="164.562" class="gray" /></g>
<g><line x1="62.4306" y1="165.376" x2="59.6831" y2="165.154" class="gray" /></g>
<g><line x1="56.0274" y1="163.736" x2="53.8491" y2="162.047" class="gray" /></g>
<g><line x1="51.5656" y1="158.86" x2="50.6669" y2="156.254" class="gray" /></g>
<g><line x1="50.5002" y1="152.336" x2="51.1743" y2="149.664" class="gray" /></g>
<g><line x1="53.1788" y1="146.294" x2="55.2057" y2="144.426" class="gray" /></g>
<g><line x1="58.7277" y1="142.702" x2="61.4465" y2="142.248" class="gray" /></g>
<g><line x1="65.3374" y1="142.733" x2="67.8614" y2="143.841" class="gray" /></g>
<g><line x1="71.5334" y1="143.689" x2="75.4997" y2="141.54" class="gray" /></g>
<g><line x1="79.0973" y1="139.592" x2="83.0636" y2="137.443" class="gray" /></g>
<g><line x1="86.6611" y1="135.494" x2="90.6274" y2="133.346" class="gray" /></g>
<g><line x1="94.225" y1="131.397" x2="98.1913" y2="129.249" class="gray" /></g>
<g><line x1="101.789" y1="127.3" x2="105.755" y2="125.152" class="gray" /></g>
<g><line x1="108.481" y1="122.354" x2="109.915" y2="119.534" class="gray" /></g>
<g><line x1="110.905" y1="115.666" x2="111.042" y2="111.177" class="gray" /></g>
<g><line x1="111.41" y1="107.11" x2="112.085" y2="102.656" class="gray" /></g>
<g><line x1="112.955" y1="98.6666" x2="114.193" y2="94.3368" class="gray" /></g>
<g><line x1="115.551" y1="90.4849" x2="117.297" y2="86.342" class="gray" /></g>
<g><line x1="119.192" y1="82.7319" x2="121.613" y2="78.9344" class="gray" /></g>
<g><line x1="123.989" y1="75.6104" x2="126.796" y2="72.0919" class="gray" /></g>
<g><line x1="129.545" y1="69.0728" x2="132.777" y2="65.9551" class="gray" /></g>
<g><line x1="135.907" y1="63.3359" x2="139.551" y2="60.7" class="gray" /></g>
<g><line x1="143.007" y1="58.5267" x2="146.964" y2="56.3835" class="gray" /></g>
<g><line x1="150.68" y1="54.6948" x2="154.899" y2="53.1221" class="gray" /></g>
<g><line x1="158.81" y1="51.9494" x2="163.2" y2="50.9402" class="gray" /></g>
<g><line x1="167.23" y1="50.2941" x2="171.712" y2="49.8809" class="gray" /></g>
<g><line x1="175.793" y1="49.7921" x2="180.278" y2="50.0093" class="gray" /></g>
<g><line x1="184.337" y1="50.4595" x2="188.777" y2="51.2335" class="gray" /></g>
<g><line x1="192.743" y1="52.1993" x2="197.016" y2="53.5447" class="gray" /></g>
<g><line x1="200.827" y1="55.0103" x2="204.925" y2="56.8854" class="gray" /></g>
<g><line x1="208.529" y1="58.8054" x2="212.369" y2="61.1582" class="gray" /></g>
<g><line x1="215.648" y1="63.5797" x2="219.026" y2="66.5572" class="gray" /></g>
<g><line x1="221.931" y1="69.4288" x2="224.947" y2="72.7717" class="gray" /></g>
<g><line x1="227.477" y1="75.9756" x2="230.028" y2="79.6807" class="gray" /></g>
<g><line x1="232.118" y1="83.188" x2="234.161" y2="87.1937" class="gray" /></g>
<g><line x1="235.775" y1="90.9437" x2="237.281" y2="95.1808" class="gray" /></g>
<g><line x1="238.372" y1="99.1133" x2="239.265" y2="103.517" class="gray" /></g>
<g><line x1="239.851" y1="107.56" x2="240.246" y2="112.049" class="gray" /></g>
<g><line x1="240.324" y1="116.13" x2="240.099" y2="120.625" class="gray" /></g>
<g><line x1="239.594" y1="124.674" x2="238.707" y2="129.09" class="gray" /></g>
<g><line x1="237.642" y1="133.031" x2="236.185" y2="137.288" class="gray" /></g>
<g><line x1="234.618" y1="141.058" x2="232.628" y2="145.088" class="gray" /></g>
<g><line x1="230.557" y1="148.603" x2="227.998" y2="152.296" class="gray" /></g>
<g><line x1="225.471" y1="155.505" x2="222.477" y2="158.866" class="gray" /></g>
<g><line x1="219.613" y1="161.781" x2="216.302" y2="164.837" class="gray" /></g>
<g><line x1="213.068" y1="167.316" x2="209.265" y2="169.712" class="gray" /></g>
<g><line x1="208.419" y1="172.648" x2="209.96" y2="175.859" class="gray" /></g>
<g><line x1="211.684" y1="179.569" x2="213.105" y2="182.728" class="gray" /></g>
<g><line x1="214.749" y1="186.474" x2="216.18" y2="189.822" class="gray" /></g>
<g><line x1="218.515" y1="193.06" x2="221.104" y2="195.356" class="gray" /></g>
<g><line x1="222.635" y1="198.759" x2="222.635" y2="202.227" class="gray" /></g>
<g><line x1="223.46" y1="206.145" x2="224.759" y2="209.091" class="gray" /></g>
<g><line x1="226.435" y1="212.824" x2="227.984" y2="216.213" class="gray" /></g>
<g><line x1="230.273" y1="219.528" x2="231.793" y2="221.065" class="gray" /></g>
<g><line x1="233.248" y1="224.565" x2="233.266" y2="226.726" class="gray" /></g>
<g><line x1="231.869" y1="230.25" x2="230.376" y2="231.812" class="gray" /></g>
<g><line x1="226.917" y1="233.365" x2="224.757" y2="233.443" class="gray" /></g>
<g><line x1="221.196" y1="232.145" x2="219.593" y2="230.695" class="gray" /></g>
<g><line x1="217.944" y1="227.282" x2="217.806" y2="225.125" class="gray" /></g>
<g><line x1="216.835" y1="221.218" x2="215.414" y2="218.059" class="gray" /></g>
<g><line x1="213.736" y1="214.327" x2="212.313" y2="211.159" class="gray" /></g>
<g><line x1="209.945" y1="207.934" x2="207.354" y2="205.632" class="gray" /></g>
<g><line x1="205.825" y1="202.227" x2="205.825" y2="198.759" class="gray" /></g>
<g><line x1="204.928" y1="194.874" x2="203.261" y2="191.452" class="gray" /></g>
<g><line x1="201.589" y1="187.72" x2="200.4" y2="184.816" class="gray" /></g>
<g><line x1="198.785" y1="181.058" x2="197.364" y2="177.899" class="gray" /></g>
<g><line x1="194.536" y1="176.514" x2="191.073" y2="177.352" class="gray" /></g>
<g><line x1="187.073" y1="178.207" x2="183.776" y2="178.819" class="gray" /></g>
<g><line x1="181.765" y1="181.239" x2="181.765" y2="184.707" class="gray" /></g>
<g><line x1="181.781" y1="188.799" x2="181.808" y2="192.057" class="gray" /></g>
<g><line x1="181.809" y1="196.149" x2="181.78" y2="199.827" class="gray" /></g>
<g><line x1="181.723" y1="203.918" x2="181.656" y2="207.178" class="gray" /></g>
<g><line x1="182.398" y1="211.113" x2="186.181" y2="220.243" class="gray" /></g>
<g><line x1="189.01" y1="222.133" x2="192.679" y2="222.133" class="gray" /></g>
<g><line x1="196.77" y1="222.19" x2="200.19" y2="222.286" class="gray" /></g>
<g><line x1="204.28" y1="222.343" x2="207.749" y2="222.343" class="gray" /></g>
<g><line x1="211.191" y1="220.848" x2="213.562" y2="218.307" class="gray" /></g>
<g><line x1="216.354" y1="215.316" x2="218.726" y2="212.775" class="gray" /></g>
<g><line x1="221.518" y1="209.784" x2="223.889" y2="207.244" class="gray" /></g>
<g><line x1="226.681" y1="204.253" x2="229.053" y2="201.712" class="gray" /></g>
<g><line x1="230.449" y1="198.171" x2="230.449" y2="194.702" class="gray" /></g>
<g><line x1="230.449" y1="190.611" x2="230.449" y2="187.142" class="gray" /></g>
<g><line x1="230.449" y1="183.051" x2="230.449" y2="179.582" class="gray" /></g>
<g><line x1="230.49" y1="175.491" x2="230.557" y2="172.232" class="gray" /></g>
<g><line x1="230.599" y1="168.141" x2="230.599" y2="164.672" class="gray" /></g>
<g><line x1="230.614" y1="160.581" x2="230.643" y2="156.902" class="gray" /></g>
<g><line x1="230.642" y1="152.811" x2="230.615" y2="149.552" class="gray" /></g>
<g><line x1="228.553" y1="147.507" x2="225.084" y2="147.507" class="gray" /></g>
<g><line x1="223.039" y1="145.461" x2="223.039" y2="141.992" class="gray" /></g>
<g><line x1="225.084" y1="139.947" x2="228.553" y2="139.947" class="gray" /></g>
<g><line x1="230.599" y1="137.901" x2="230.599" y2="134.432" class="gray" /></g>
<g><line x1="230.559" y1="130.341" x2="230.488" y2="126.662" class="gray" /></g>
<g><line x1="229.622" y1="122.745" x2="228.325" y2="119.808" class="gray" /></g>
<g><line x1="228.337" y1="116.071" x2="229.76" y2="112.903" class="gray" /></g>
<g><line x1="230.504" y1="108.993" x2="230.333" y2="105.31" class="gray" /></g>
<g><line x1="230.339" y1="101.223" x2="230.499" y2="97.9599" class="gray" /></g>
<g><line x1="230.599" y1="93.8709" x2="230.599" y2="90.4024" class="gray" /></g>
<g><line x1="230.614" y1="86.311" x2="230.643" y2="82.6323" class="gray" /></g>
<g><line x1="229.407" y1="78.9685" x2="227.793" y2="76.8816" class="gray" /></g>
<g><line x1="226.498" y1="73.2181" x2="226.441" y2="70.5804" class="gray" /></g>
<g><line x1="227.578" y1="66.8648" x2="229.101" y2="64.7106" class="gray" /></g>
<g><line x1="232.225" y1="62.3998" x2="234.731" y2="61.5737" class="gray" /></g>
<g><line x1="238.617" y1="61.5737" x2="241.122" y2="62.3998" class="gray" /></g>
<g><line x1="244.246" y1="64.7106" x2="245.769" y2="66.8648" class="gray" /></g>
<g><line x1="246.906" y1="70.5804" x2="246.85" y2="73.2181" class="gray" /></g>
<g><line x1="245.554" y1="76.8816" x2="243.94" y2="78.9685" class="gray" /></g>
<g><line x1="242.728" y1="82.632" x2="242.799" y2="86.3113" class="gray" /></g>
<g><line x1="242.839" y1="90.4024" x2="242.839" y2="93.8709" class="gray" /></g>
<g><line x1="242.797" y1="97.9619" x2="242.73" y2="101.221" class="gray" /></g>
<g><line x1="242.728" y1="105.312" x2="242.799" y2="108.991" class="gray" /></g>
<g><line x1="243.677" y1="112.903" x2="245.1" y2="116.071" class="gray" /></g>
<g><line x1="245.091" y1="119.799" x2="243.746" y2="122.755" class="gray" /></g>
<g><line x1="242.883" y1="126.662" x2="242.854" y2="130.341" class="gray" /></g>
<g><line x1="242.839" y1="134.432" x2="242.839" y2="137.901" class="gray" /></g>
<g><line x1="242.839" y1="141.992" x2="242.839" y2="145.461" class="gray" /></g>
<g><line x1="242.797" y1="149.552" x2="242.73" y2="152.811" class="gray" /></g>
<g><line x1="242.728" y1="156.902" x2="242.799" y2="160.581" class="gray" /></g>
<g><line x1="242.839" y1="164.672" x2="242.839" y2="168.141" class="gray" /></g>
<g><line x1="242.855" y1="172.232" x2="242.882" y2="175.491" class="gray" /></g>
<g><line x1="242.899" y1="179.582" x2="242.899" y2="183.051" class="gray" /></g>
<g><line x1="242.899" y1="187.142" x2="242.899" y2="190.611" class="gray" /></g>
<g><line x1="242.842" y1="194.702" x2="242.745" y2="198.172" class="gray" /></g>
<g><line x1="244.127" y1="201.671" x2="246.572" y2="204.142" class="gray" /></g>
<g><line x1="250.055" y1="205.54" x2="253.53" y2="205.444" class="gray" /></g>
<g><line x1="257.62" y1="205.388" x2="261.096" y2="205.388" class="gray" /></g>
<g><line x1="265.187" y1="205.388" x2="268.663" y2="205.388" class="gray" /></g>
<g><line x1="272.754" y1="205.388" x2="276.23" y2="205.388" class="gray" /></g>
<g><line x1="280.321" y1="205.388" x2="283.797" y2="205.388" class="gray" /></g>
<g><line x1="287.888" y1="205.443" x2="291.362" y2="205.538" class="gray" /></g>
<g><line x1="295.452" y1="205.649" x2="298.926" y2="205.744" class="gray" /></g>
</svg>
