<svg
	xmlns="http://www.w3.org/2000/svg"
	width="326.689"
	height="272.66"
	style="font-size: 3.045014px; font-weight: bold; font-family: Helvetica; " >
<g><style type="text/css" >
<!-- create color definitions -->
<![CDATA[
text.red {fill: rgb(255, 0, 255); }
text.green {fill: rgb(0, 255, 0); }
text.blue {fill: rgb(0, 0, 255); }
text.black {fill: rgb(0, 0, 0); }
text.gray {fill: rgb(204, 204, 204); }
text.brown {fill: rgb(211.65, 104.55, 30.6); }
text {fill: rgb(0, 0, 0); text-anchor: middle; alignment-baseline: middle; }
circle.red {stroke: rgb(255, 0, 255); fill: none; }
circle.green {stroke: rgb(0, 255, 0); fill: none; }
circle.blue {stroke: rgb(0, 0, 255); fill: none; }
circle.black {stroke: rgb(0, 0, 0); fill: none; }
circle.gray {stroke: rgb(204, 204, 204); fill: none; }
circle.brown {stroke: rgb(211.65, 104.55, 30.6); fill: none; }
circle {stroke: rgb(0, 0, 0); }
line.red {stroke: rgb(255, 0, 255); stroke-width: 0.380627; }
line.green {stroke: rgb(0, 255, 0); stroke-width: 0.380627; }
line.blue {stroke: rgb(0, 0, 255); stroke-width: 0.380627; }
line.black {stroke: rgb(0, 0, 0); stroke-width: 0.380627; }
line.gray {stroke: rgb(204, 204, 204); stroke-width: 0.380627; }
line.brown {stroke: rgb(211.65, 104.55, 30.6); stroke-width: 0.380627; }
line {stroke: rgb(0, 0, 0); }
text.numbering-label {fill: rgb(204, 204, 204);}
line.numbering-line {stroke: rgb(204, 204, 204); stroke-width: 0.190313;}
line.predicted {stroke: rgb(0, 0, 0); stroke-dasharray: 2}
text.background {fill: rgb(255, 255, 255);
.template {visibility:hidden}
]]>
</style></g>
<g><title>0 (position.label in template: 0.5')</title><text x="57.0692" y="139.63" class="green" >5'</text></g>
<g><title>1 (position.label in template: 19.U)</title><text x="57.2791" y="132.076" class="black" >U</text></g>
<g><title>2 (position.label in template: 20.A)</title><text x="57.4889" y="124.521" class="green" >C</text></g>
<g><title>3 (position.label in template: 21.G)</title><text x="61.9285" y="118.405" class="black" >G</text></g>
<g><line x1="63.9585" y1="118.101" x2="72.3485" y2="118.101" class="black" /></g>
<g><title>4 (position.label in template: 22.A)</title><text x="62.3485" y="110.845" class="green" >U</text></g>
<g><line x1="64.3785" y1="110.541" x2="72.3485" y2="110.541" class="black" /></g>
<g><title>5 (position.label in template: 23.Y)</title><text x="62.3485" y="103.285" class="green" >U</text></g>
<g><line x1="64.3782" y1="103.014" x2="72.4987" y2="103.147" class="black" /></g>
<g><title>6 (position.label in template: 24.U)</title><text x="56.306" y="99.7174" class="blue" >U</text></g>
<g><title>7 (position.label in template: 25.A)</title><text x="51.9899" y="94.1846" class="blue" >A</text></g>
<g><title>8 (position.label in template: 26.A)</title><text x="50" y="87.4555" class="blue" >A</text></g>
<g><title>9 (position.label in template: 27.G)</title><text x="50.6127" y="80.4651" class="green" >U</text></g>
<g><title>10 (position.label in template: 28.A)</title><text x="53.7428" y="74.1848" class="blue" >A</text></g>
<g><title>10 (inserted)</title><text x="48.288" y="70.0393" class="numbering-label sequential" >10</text></g>
<g><line x1="52.2882" y1="73.0793" x2="50.115" y2="71.4278" class="numbering-line sequential" /></g>
<g><title>11 (position.label in template: 29.A)</title><text x="58.9555" y="69.4871" class="green" >U</text></g>
<g><title>12 (position.label in template: 30.A)</title><text x="65.5265" y="67.0247" class="green" >U</text></g>
<g><title>13 (position.label in template: 31.N)</title><text x="72.5427" y="67.14" class="green" >U</text></g>
<g><title>14 (position.label in template: 32.U)</title><text x="79.0293" y="69.8167" class="blue" >U</text></g>
<g><title>15 (position.label in template: 33.N)</title><text x="84.0849" y="74.683" class="green" >C</text></g>
<g><title>16 (position.label in template: 34.R)</title><text x="87.0072" y="81.0627" class="green" >A</text></g>
<g><title>17 (position.label in template: 35.G)</title><text x="87.39" y="88.0694" class="green" >U</text></g>
<g><title>18 (inserted)</title><text x="85.1802" y="94.7296" class="red" >U</text></g>
<g><title>19 (inserted)</title><text x="80.6848" y="100.118" class="red" >A</text></g>
<g><title>20 (position.label in template: 37.N)</title><text x="74.5285" y="103.485" class="green" >G</text></g>
<g><title>20 (inserted)</title><text x="80.4348" y="106.957" class="numbering-label sequential" >20</text></g>
<g><line x1="76.1035" y1="104.411" x2="78.6078" y2="105.883" class="numbering-line sequential" /></g>
<g><title>21 (position.label in template: 38.U)</title><text x="74.3785" y="110.845" class="green" >A</text></g>
<g><title>22 (position.label in template: 39.U)</title><text x="74.3785" y="118.405" class="black" >U</text></g>
<g><title>23 (position.label in template: 40.U)</title><text x="79.0885" y="124.315" class="black" >U</text></g>
<g><title>24 (position.label in template: 41.U)</title><text x="79.0885" y="131.875" class="green" >C</text></g>
<g><title>25 (inserted)</title><text x="79.0885" y="139.433" class="red" >U</text></g>
<g><title>26 (inserted)</title><text x="79.0885" y="146.99" class="red" >G</text></g>
<g><title>27 (inserted)</title><text x="79.0885" y="154.548" class="red" >A</text></g>
<g><title>28 (inserted)</title><text x="79.0885" y="162.105" class="red" >G</text></g>
<g><title>29 (inserted)</title><text x="79.0885" y="169.662" class="red" >C</text></g>
<g><title>30 (position.label in template: 47.U)</title><text x="79.0885" y="177.22" class="black" >U</text></g>
<g><title>30 (inserted)</title><text x="72.2372" y="177.22" class="numbering-label sequential" >30</text></g>
<g><line x1="77.2615" y1="177.22" x2="74.0642" y2="177.22" class="numbering-line sequential" /></g>
<g><title>31 (position.label in template: 48.U)</title><text x="79.0885" y="184.78" class="black" >U</text></g>
<g><title>32 (inserted)</title><text x="79.1597" y="188.558" class="red" >U</text></g>
<g><title>33 (inserted)</title><text x="79.3022" y="196.114" class="red" >G</text></g>
<g><title>34 (inserted)</title><text x="79.5872" y="211.226" class="red" >U</text></g>
<g><title>35 (inserted)</title><text x="79.7297" y="218.782" class="red" >U</text></g>
<g><title>36 (position.label in template: 53.U)</title><text x="79.8009" y="222.56" class="green" >C</text></g>
<g><title>37 (position.label in template: 54.U)</title><text x="87.3609" y="222.56" class="black" >U</text></g>
<g><title>38 (position.label in template: 55.U)</title><text x="94.9209" y="222.56" class="green" >G</text></g>
<g><title>39 (inserted)</title><text x="98.6996" y="222.56" class="red" >U</text></g>
<g><title>40 (inserted)</title><text x="113.815" y="222.56" class="red" >A</text></g>
<g><title>41 (position.label in template: 56.U)</title><text x="117.593" y="222.56" class="black" >U</text></g>
<g><title>42 (position.label in template: 57.G)</title><text x="124.943" y="222.56" class="green" >A</text></g>
<g><title>43 (position.label in template: 58.A)</title><text x="132.913" y="222.56" class="black" >A</text></g>
<g><title>44 (position.label in template: 59.U)</title><text x="140.273" y="222.56" class="green" >G</text></g>
<g><title>45 (position.label in template: 60.A)</title><text x="148.033" y="222.56" class="green" >G</text></g>
<g><title>46 (position.label in template: 61.A)</title><text x="155.593" y="222.56" class="black" >A</text></g>
<g><title>47 (position.label in template: 62.A)</title><text x="163.153" y="222.56" class="black" >A</text></g>
<g><title>48 (position.label in template: 63.G)</title><text x="170.303" y="222.56" class="black" >G</text></g>
<g><title>49 (position.label in template: 64.A)</title><text x="178.273" y="222.56" class="black" >A</text></g>
<g><title>50 (position.label in template: 65.G)</title><text x="185.423" y="222.56" class="green" >A</text></g>
<g><title>50 (inserted)</title><text x="185.423" y="229.412" class="numbering-label sequential" >50</text></g>
<g><line x1="185.423" y1="224.387" x2="185.423" y2="227.889" class="numbering-line sequential" /></g>
<g><title>51 (position.label in template: 66.A)</title><text x="193.393" y="222.56" class="black" >A</text></g>
<g><title>52 (position.label in template: 67.A)</title><text x="200.953" y="222.56" class="green" >G</text></g>
<g><title>53 (position.label in template: 68.A)</title><text x="208.513" y="222.56" class="black" >A</text></g>
<g><title>54 (position.label in template: 69.G)</title><text x="215.663" y="222.56" class="green" >U</text></g>
<g><title>55 (position.label in template: 70.A)</title><text x="223.633" y="222.56" class="black" >A</text></g>
<g><title>56 (position.label in template: 71.U)</title><text x="228.773" y="217.21" class="black" >U</text></g>
<g><line x1="230.803" y1="216.906" x2="239.193" y2="216.906" class="black" /></g>
<g><title>57 (position.label in template: 72.G)</title><text x="228.563" y="209.65" class="black" >G</text></g>
<g><line x1="230.593" y1="209.346" x2="238.983" y2="209.346" class="black" /></g>
<g><title>58 (position.label in template: 73.C)</title><text x="228.773" y="202.09" class="black" >C</text></g>
<g><line x1="230.803" y1="201.786" x2="238.773" y2="201.786" class="black" /></g>
<g><title>59 (position.label in template: 74.C)</title><text x="228.773" y="194.53" class="black" >C</text></g>
<g><line x1="230.803" y1="194.226" x2="238.773" y2="194.226" class="black" /></g>
<g><title>60 (position.label in template: 75.U)</title><text x="228.773" y="186.97" class="black" >U</text></g>
<g><line x1="230.803" y1="186.666" x2="239.193" y2="186.666" class="black" /></g>
<g><title>61 (position.label in template: 76.C)</title><text x="228.773" y="179.41" class="black" >C</text></g>
<g><line x1="230.803" y1="179.106" x2="238.773" y2="179.106" class="black" /></g>
<g><title>62 (position.label in template: 77.U)</title><text x="228.773" y="171.85" class="black" >U</text></g>
<g><line x1="230.803" y1="171.546" x2="238.773" y2="171.546" class="black" /></g>
<g><title>63 (position.label in template: 78.U)</title><text x="222.063" y="168.37" class="black" >U</text></g>
<g><title>64 (position.label in template: 79.C)</title><text x="217.043" y="162.72" class="black" >C</text></g>
<g><title>65 (position.label in template: 80.U)</title><text x="214.353" y="155.66" class="black" >U</text></g>
<g><title>66 (position.label in template: 81.U)</title><text x="214.353" y="148.1" class="black" >U</text></g>
<g><title>67 (position.label in template: 82.U)</title><text x="217.043" y="141.03" class="black" >U</text></g>
<g><title>68 (position.label in template: 83.C)</title><text x="222.063" y="135.39" class="black" >C</text></g>
<g><title>69 (position.label in template: 84.A)</title><text x="228.983" y="131.9" class="black" >A</text></g>
<g><line x1="231.013" y1="131.596" x2="238.983" y2="131.596" class="black" /></g>
<g><title>70 (position.label in template: 85.G)</title><text x="228.563" y="124.34" class="black" >G</text></g>
<g><line x1="230.593" y1="124.036" x2="238.983" y2="124.036" class="black" /></g>
<g><title>71 (position.label in template: 86.C)</title><text x="228.773" y="116.78" class="black" >C</text></g>
<g><line x1="230.803" y1="116.476" x2="238.773" y2="116.476" class="black" /></g>
<g><title>72 (position.label in template: 87.A)</title><text x="228.983" y="109.22" class="black" >A</text></g>
<g><line x1="231.013" y1="108.916" x2="238.983" y2="108.916" class="black" /></g>
<g><title>73 (position.label in template: 88.G)</title><text x="228.563" y="101.66" class="black" >G</text></g>
<g><line x1="230.593" y1="101.356" x2="238.983" y2="101.356" class="black" /></g>
<g><title>74 (position.label in template: 89.C)</title><text x="228.773" y="94.1003" class="black" >C</text></g>
<g><line x1="230.803" y1="93.7958" x2="238.773" y2="93.7958" class="black" /></g>
<g><title>75 (position.label in template: 90.A)</title><text x="228.983" y="86.5403" class="black" >A</text></g>
<g><line x1="231.013" y1="86.2358" x2="238.983" y2="86.2358" class="black" /></g>
<g><title>76 (position.label in template: 91.A)</title><text x="228.983" y="78.9803" class="black" >A</text></g>
<g><line x1="231.013" y1="78.6758" x2="238.983" y2="78.6758" class="black" /></g>
<g><title>77 (position.label in template: 92.G)</title><text x="228.563" y="71.4203" class="black" >G</text></g>
<g><line x1="230.593" y1="71.1158" x2="238.983" y2="71.1158" class="black" /></g>
<g><title>78 (position.label in template: 93.A)</title><text x="228.983" y="63.8603" class="black" >A</text></g>
<g><line x1="231.013" y1="63.5558" x2="238.983" y2="63.5558" class="black" /></g>
<g><title>79 (position.label in template: 94.U)</title><text x="226.765" y="58.0515" class="blue" >U</text></g>
<g><title>80 (position.label in template: 95.U)</title><text x="229.24" y="52.3474" class="green" >A</text></g>
<g><title>81 (inserted)</title><text x="234.998" y="50" class="red" >C</text></g>
<g><title>82 (position.label in template: 96.A)</title><text x="240.756" y="52.3474" class="blue" >A</text></g>
<g><title>83 (position.label in template: 97.U)</title><text x="243.232" y="58.0515" class="blue" >U</text></g>
<g><title>84 (position.label in template: 98.U)</title><text x="241.013" y="63.8603" class="black" >U</text></g>
<g><title>85 (position.label in template: 99.C)</title><text x="241.013" y="71.4203" class="black" >C</text></g>
<g><title>86 (position.label in template: 100.U)</title><text x="241.013" y="78.9803" class="black" >U</text></g>
<g><title>87 (position.label in template: 101.U)</title><text x="241.013" y="86.5403" class="black" >U</text></g>
<g><title>88 (position.label in template: 102.G)</title><text x="240.803" y="94.1003" class="black" >G</text></g>
<g><title>89 (position.label in template: 103.U)</title><text x="241.013" y="101.66" class="black" >U</text></g>
<g><title>90 (position.label in template: 104.U)</title><text x="241.013" y="109.22" class="black" >U</text></g>
<g><title>91 (position.label in template: 105.A)</title><text x="247.773" y="113" class="black" >A</text></g>
<g><title>92 (position.label in template: 106.G)</title><text x="240.803" y="116.78" class="black" >G</text></g>
<g><title>93 (position.label in template: 107.C)</title><text x="241.013" y="124.34" class="black" >C</text></g>
<g><title>94 (position.label in template: 108.U)</title><text x="241.013" y="131.9" class="black" >U</text></g>
<g><title>95 (position.label in template: 109.U)</title><text x="248.363" y="133.7" class="black" >U</text></g>
<g><title>96 (position.label in template: 110.U)</title><text x="254.513" y="138.09" class="black" >U</text></g>
<g><title>97 (position.label in template: 111.G)</title><text x="258.383" y="144.45" class="black" >G</text></g>
<g><title>98 (position.label in template: 112.U)</title><text x="260.023" y="151.88" class="black" >U</text></g>
<g><title>99 (position.label in template: 113.U)</title><text x="258.593" y="159.3" class="black" >U</text></g>
<g><title>100 (position.label in template: 114.C)</title><text x="254.513" y="165.66" class="black" >C</text></g>
<g><title>100 (inserted)</title><text x="259.479" y="170.381" class="numbering-label sequential" >100</text></g>
<g><line x1="255.837" y1="166.919" x2="257.877" y2="168.859" class="numbering-line sequential" /></g>
<g><title>101 (position.label in template: 115.U)</title><text x="248.363" y="170.06" class="black" >U</text></g>
<g><title>102 (position.label in template: 116.G)</title><text x="240.803" y="171.85" class="black" >G</text></g>
<g><title>103 (position.label in template: 117.G)</title><text x="240.803" y="179.41" class="black" >G</text></g>
<g><title>104 (position.label in template: 118.A)</title><text x="241.223" y="186.97" class="black" >A</text></g>
<g><title>105 (position.label in template: 119.G)</title><text x="240.803" y="194.53" class="black" >G</text></g>
<g><title>106 (position.label in template: 120.G)</title><text x="240.803" y="202.09" class="black" >G</text></g>
<g><title>107 (position.label in template: 121.C)</title><text x="241.013" y="209.65" class="black" >C</text></g>
<g><title>108 (position.label in template: 122.A)</title><text x="241.223" y="217.21" class="black" >A</text></g>
<g><title>109 (position.label in template: 123.C)</title><text x="246.459" y="222.66" class="green" >A</text></g>
<g><title>110 (position.label in template: 124.A)</title><text x="254.017" y="222.66" class="black" >A</text></g>
<g><title>111 (position.label in template: 125.G)</title><text x="261.574" y="222.66" class="green" >U</text></g>
<g><title>112 (position.label in template: 126.A)</title><text x="269.131" y="222.66" class="black" >A</text></g>
<g><title>113 (position.label in template: 127.U)</title><text x="276.689" y="222.66" class="black" >U</text></g>
<g><title>114 (position.label in template: 128.3')</title><text x="284.246" y="222.66" class="green" >3'</text></g>
<g><line x1="57.1256" y1="137.297" x2="57.2227" y2="133.8" class="gray" /></g>
<g><line x1="57.3355" y1="129.742" x2="57.4326" y2="126.246" class="gray" /></g>
<g><line x1="58.6814" y1="122.574" x2="60.736" y2="119.744" class="gray" /></g>
<g><line x1="62.0411" y1="116.074" x2="62.2359" y2="112.568" class="gray" /></g>
<g><line x1="62.3485" y1="108.511" x2="62.3485" y2="105.011" class="gray" /></g>
<g><line x1="60.6004" y1="101.949" x2="58.054" y2="100.445" class="gray" /></g>
<g><line x1="55.0574" y1="97.8123" x2="53.2385" y2="95.4807" class="gray" /></g>
<g><line x1="51.4143" y1="91.9334" x2="50.5757" y2="89.0976" class="gray" /></g>
<g><line x1="50.1772" y1="85.1287" x2="50.4354" y2="82.1829" class="gray" /></g>
<g><line x1="51.5182" y1="78.3437" x2="52.8373" y2="75.6971" class="gray" /></g>
<g><line x1="55.2508" y1="72.5212" x2="57.4475" y2="70.5416" class="gray" /></g>
<g><line x1="60.8564" y1="68.4702" x2="63.6255" y2="67.4326" class="gray" /></g>
<g><line x1="67.5562" y1="66.7536" x2="70.513" y2="66.8021" class="gray" /></g>
<g><line x1="74.4192" y1="67.6098" x2="77.1528" y2="68.7378" class="gray" /></g>
<g><line x1="80.4918" y1="70.92" x2="82.6224" y2="72.9707" class="gray" /></g>
<g><line x1="84.9303" y1="76.2241" x2="86.1618" y2="78.9126" class="gray" /></g>
<g><line x1="87.1179" y1="82.7852" x2="87.2793" y2="85.7379" class="gray" /></g>
<g><line x1="86.7507" y1="89.6916" x2="85.8195" y2="92.4983" class="gray" /></g>
<g><line x1="83.8797" y1="95.9838" x2="81.9853" y2="98.2544" class="gray" /></g>
<g><line x1="78.9038" y1="100.787" x2="76.3095" y2="102.206" class="gray" /></g>
<g><line x1="74.4871" y1="105.21" x2="74.4198" y2="108.511" class="gray" /></g>
<g><line x1="74.3785" y1="112.571" x2="74.3785" y2="116.071" class="gray" /></g>
<g><line x1="75.6437" y1="119.688" x2="77.8233" y2="122.423" class="gray" /></g>
<g><line x1="79.0885" y1="126.041" x2="79.0885" y2="129.541" class="gray" /></g>
<g><line x1="79.0885" y1="133.601" x2="79.0885" y2="137.098" class="gray" /></g>
<g><line x1="79.0885" y1="141.158" x2="79.0885" y2="144.656" class="gray" /></g>
<g><line x1="79.0885" y1="148.716" x2="79.0885" y2="152.213" class="gray" /></g>
<g><line x1="79.0885" y1="156.273" x2="79.0885" y2="159.77" class="gray" /></g>
<g><line x1="79.0885" y1="163.83" x2="79.0885" y2="167.328" class="gray" /></g>
<g><line x1="79.0885" y1="171.388" x2="79.0885" y2="174.885" class="gray" /></g>
<g><line x1="79.0885" y1="178.945" x2="79.0885" y2="182.445" class="gray" /></g>
<g><line x1="79.198" y1="190.283" x2="79.2639" y2="193.78" class="gray" /></g>
<g><line x1="79.3405" y1="197.839" x2="79.5489" y2="208.892" class="gray" /></g>
<g><line x1="79.6254" y1="212.951" x2="79.6914" y2="216.448" class="gray" /></g>
<g><line x1="81.8309" y1="222.256" x2="85.3309" y2="222.256" class="gray" /></g>
<g><line x1="89.3909" y1="222.256" x2="92.8909" y2="222.256" class="gray" /></g>
<g><line x1="100.73" y1="222.256" x2="111.784" y2="222.256" class="gray" /></g>
<g><line x1="119.623" y1="222.256" x2="122.913" y2="222.256" class="gray" /></g>
<g><line x1="126.973" y1="222.256" x2="130.883" y2="222.256" class="gray" /></g>
<g><line x1="134.943" y1="222.256" x2="138.243" y2="222.256" class="gray" /></g>
<g><line x1="142.303" y1="222.256" x2="146.003" y2="222.256" class="gray" /></g>
<g><line x1="150.063" y1="222.256" x2="153.563" y2="222.256" class="gray" /></g>
<g><line x1="157.623" y1="222.256" x2="161.123" y2="222.256" class="gray" /></g>
<g><line x1="165.183" y1="222.256" x2="168.273" y2="222.256" class="gray" /></g>
<g><line x1="172.333" y1="222.256" x2="176.243" y2="222.256" class="gray" /></g>
<g><line x1="180.303" y1="222.256" x2="183.393" y2="222.256" class="gray" /></g>
<g><line x1="187.453" y1="222.256" x2="191.363" y2="222.256" class="gray" /></g>
<g><line x1="195.423" y1="222.256" x2="198.923" y2="222.256" class="gray" /></g>
<g><line x1="202.983" y1="222.256" x2="206.483" y2="222.256" class="gray" /></g>
<g><line x1="210.543" y1="222.256" x2="213.633" y2="222.256" class="gray" /></g>
<g><line x1="217.693" y1="222.256" x2="221.603" y2="222.256" class="gray" /></g>
<g><line x1="225.04" y1="220.792" x2="227.367" y2="218.37" class="gray" /></g>
<g><line x1="228.717" y1="214.877" x2="228.62" y2="211.375" class="gray" /></g>
<g><line x1="228.62" y1="207.317" x2="228.717" y2="203.815" class="gray" /></g>
<g><line x1="228.773" y1="199.756" x2="228.773" y2="196.256" class="gray" /></g>
<g><line x1="228.773" y1="192.196" x2="228.773" y2="188.696" class="gray" /></g>
<g><line x1="228.773" y1="184.636" x2="228.773" y2="181.136" class="gray" /></g>
<g><line x1="228.773" y1="177.076" x2="228.773" y2="173.576" class="gray" /></g>
<g><line x1="226.971" y1="170.611" x2="223.865" y2="169" class="gray" /></g>
<g><line x1="220.715" y1="166.548" x2="218.392" y2="163.933" class="gray" /></g>
<g><line x1="216.32" y1="160.519" x2="215.076" y2="157.253" class="gray" /></g>
<g><line x1="214.353" y1="153.326" x2="214.353" y2="149.826" class="gray" /></g>
<g><line x1="215.075" y1="145.899" x2="216.321" y2="142.623" class="gray" /></g>
<g><line x1="218.393" y1="139.209" x2="220.714" y2="136.602" class="gray" /></g>
<g><line x1="223.876" y1="134.172" x2="227.171" y2="132.51" class="gray" /></g>
<g><line x1="228.871" y1="129.569" x2="228.676" y2="126.063" class="gray" /></g>
<g><line x1="228.62" y1="122.007" x2="228.717" y2="118.505" class="gray" /></g>
<g><line x1="228.83" y1="114.447" x2="228.927" y2="110.945" class="gray" /></g>
<g><line x1="228.871" y1="106.889" x2="228.676" y2="103.383" class="gray" /></g>
<g><line x1="228.62" y1="99.3266" x2="228.717" y2="95.8251" class="gray" /></g>
<g><line x1="228.83" y1="91.7666" x2="228.927" y2="88.2651" class="gray" /></g>
<g><line x1="228.983" y1="84.2058" x2="228.983" y2="80.7058" class="gray" /></g>
<g><line x1="228.871" y1="76.649" x2="228.676" y2="73.1427" class="gray" /></g>
<g><line x1="228.676" y1="69.089" x2="228.871" y2="65.5827" class="gray" /></g>
<g><line x1="228.259" y1="61.6594" x2="227.489" y2="59.6434" class="gray" /></g>
<g><line x1="227.573" y1="55.8848" x2="228.432" y2="53.9051" class="gray" /></g>
<g><line x1="231.12" y1="51.2766" x2="233.118" y2="50.4619" class="gray" /></g>
<g><line x1="236.878" y1="50.4619" x2="238.876" y2="51.2766" class="gray" /></g>
<g><line x1="241.564" y1="53.9051" x2="242.423" y2="55.8848" class="gray" /></g>
<g><line x1="242.507" y1="59.6434" x2="241.737" y2="61.6594" class="gray" /></g>
<g><line x1="241.013" y1="65.5858" x2="241.013" y2="69.0858" class="gray" /></g>
<g><line x1="241.013" y1="73.1458" x2="241.013" y2="76.6458" class="gray" /></g>
<g><line x1="241.013" y1="80.7058" x2="241.013" y2="84.2058" class="gray" /></g>
<g><line x1="240.957" y1="88.2651" x2="240.86" y2="91.7666" class="gray" /></g>
<g><line x1="240.86" y1="95.8251" x2="240.957" y2="99.3266" class="gray" /></g>
<g><line x1="241.013" y1="103.386" x2="241.013" y2="106.886" class="gray" /></g>
<g><line x1="242.785" y1="109.907" x2="246.001" y2="111.705" class="gray" /></g>
<g><line x1="245.989" y1="113.664" x2="242.588" y2="115.508" class="gray" /></g>
<g><line x1="240.86" y1="118.505" x2="240.957" y2="122.007" class="gray" /></g>
<g><line x1="241.013" y1="126.066" x2="241.013" y2="129.566" class="gray" /></g>
<g><line x1="242.985" y1="132.079" x2="246.391" y2="132.913" class="gray" /></g>
<g><line x1="250.015" y1="134.575" x2="252.861" y2="136.606" class="gray" /></g>
<g><line x1="255.568" y1="139.52" x2="257.328" y2="142.412" class="gray" /></g>
<g><line x1="258.821" y1="146.128" x2="259.586" y2="149.594" class="gray" /></g>
<g><line x1="259.639" y1="153.569" x2="258.977" y2="157.003" class="gray" /></g>
<g><line x1="257.497" y1="160.704" x2="255.609" y2="163.647" class="gray" /></g>
<g><line x1="252.862" y1="166.537" x2="250.014" y2="168.575" class="gray" /></g>
<g><line x1="246.388" y1="170.224" x2="242.779" y2="171.078" class="gray" /></g>
<g><line x1="240.803" y1="173.576" x2="240.803" y2="177.076" class="gray" /></g>
<g><line x1="240.916" y1="181.133" x2="241.111" y2="184.639" class="gray" /></g>
<g><line x1="241.111" y1="188.693" x2="240.916" y2="192.199" class="gray" /></g>
<g><line x1="240.803" y1="196.256" x2="240.803" y2="199.756" class="gray" /></g>
<g><line x1="240.86" y1="203.815" x2="240.957" y2="207.317" class="gray" /></g>
<g><line x1="241.07" y1="211.375" x2="241.167" y2="214.877" class="gray" /></g>
<g><line x1="242.63" y1="218.37" x2="245.053" y2="220.892" class="gray" /></g>
<g><line x1="248.489" y1="222.356" x2="251.987" y2="222.356" class="gray" /></g>
<g><line x1="256.047" y1="222.356" x2="259.544" y2="222.356" class="gray" /></g>
<g><line x1="263.604" y1="222.356" x2="267.101" y2="222.356" class="gray" /></g>
<g><line x1="271.161" y1="222.356" x2="274.659" y2="222.356" class="gray" /></g>
<g><line x1="278.719" y1="222.356" x2="282.216" y2="222.356" class="gray" /></g>
</svg>
