<svg
	xmlns="http://www.w3.org/2000/svg"
	width="327.285"
	height="294.06"
	style="font-size: 3.068569px; font-weight: bold; font-family: Helvetica; " >
<g><style type="text/css" >
<!-- create color definitions -->
<![CDATA[
text.red {fill: rgb(255, 0, 255); }
text.green {fill: rgb(0, 255, 0); }
text.blue {fill: rgb(0, 0, 255); }
text.black {fill: rgb(0, 0, 0); }
text.gray {fill: rgb(204, 204, 204); }
text.brown {fill: rgb(211.65, 104.55, 30.6); }
text {fill: rgb(0, 0, 0); text-anchor: middle; alignment-baseline: middle; }
circle.red {stroke: rgb(255, 0, 255); fill: none; }
circle.green {stroke: rgb(0, 255, 0); fill: none; }
circle.blue {stroke: rgb(0, 0, 255); fill: none; }
circle.black {stroke: rgb(0, 0, 0); fill: none; }
circle.gray {stroke: rgb(204, 204, 204); fill: none; }
circle.brown {stroke: rgb(211.65, 104.55, 30.6); fill: none; }
circle {stroke: rgb(0, 0, 0); }
line.red {stroke: rgb(255, 0, 255); stroke-width: 0.383571; }
line.green {stroke: rgb(0, 255, 0); stroke-width: 0.383571; }
line.blue {stroke: rgb(0, 0, 255); stroke-width: 0.383571; }
line.black {stroke: rgb(0, 0, 0); stroke-width: 0.383571; }
line.gray {stroke: rgb(204, 204, 204); stroke-width: 0.383571; }
line.brown {stroke: rgb(211.65, 104.55, 30.6); stroke-width: 0.383571; }
line {stroke: rgb(0, 0, 0); }
text.numbering-label {fill: rgb(204, 204, 204);}
line.numbering-line {stroke: rgb(204, 204, 204); stroke-width: 0.191786;}
line.predicted {stroke: rgb(0, 0, 0); stroke-dasharray: 2}
text.background {fill: rgb(255, 255, 255);
.template {visibility:hidden}
]]>
</style></g>
<g><title>0 (position.label in template: 0.5')</title><text x="126.439" y="220.319" class="green" >5'</text></g>
<g><title>1 (position.label in template: 1.N)</title><text x="134.006" y="220.319" class="green" >A</text></g>
<g><title>2 (position.label in template: 2.N)</title><text x="141.573" y="220.319" class="green" >C</text></g>
<g><title>3 (position.label in template: 3.N)</title><text x="149.14" y="220.319" class="green" >C</text></g>
<g><title>4 (position.label in template: 4.Y)</title><text x="156.704" y="220.11" class="green" >U</text></g>
<g><title>5 (position.label in template: 6.N)</title><text x="163.73" y="217.3" class="green" >C</text></g>
<g><line x1="165.776" y1="216.993" x2="173.924" y2="216.993" class="black" /></g>
<g><title>6 (position.label in template: 7.Y)</title><text x="163.79" y="209.53" class="green" >C</text></g>
<g><line x1="165.836" y1="209.223" x2="173.774" y2="209.223" class="black" /></g>
<g><title>7 (position.label in template: 8.N)</title><text x="163.73" y="202.18" class="green" >U</text></g>
<g><line x1="165.776" y1="201.873" x2="173.924" y2="201.873" class="black" /></g>
<g><title>8 (position.label in template: 9.G)</title><text x="163.37" y="194.41" class="green" >G</text></g>
<g><line x1="165.416" y1="194.103" x2="173.984" y2="194.103" class="black" /></g>
<g><title>9 (position.label in template: 10.N)</title><text x="163.73" y="187.06" class="green" >U</text></g>
<g><line x1="165.776" y1="186.753" x2="173.924" y2="186.753" class="black" /></g>
<g><title>10 (position.label in template: 11.N)</title><text x="163.73" y="179.5" class="green" >G</text></g>
<g><line x1="165.776" y1="179.193" x2="173.924" y2="179.193" class="black" /></g>
<g><title>10 (inserted)</title><text x="158.48" y="183.985" class="numbering-label sequential" >10</text></g>
<g><line x1="162.33" y1="180.696" x2="160.276" y2="182.45" class="numbering-line sequential" /></g>
<g><title>11 (position.label in template: 12.R)</title><text x="156.11" y="178.14" class="green" >G</text></g>
<g><title>12 (position.label in template: 13.R)</title><text x="148.82" y="176.13" class="green" >A</text></g>
<g><title>13 (position.label in template: 14.U)</title><text x="141.82" y="173.28" class="black" >U</text></g>
<g><title>14 (position.label in template: 15.Y)</title><text x="135.4" y="169.64" class="green" >C</text></g>
<g><title>15 (position.label in template: 16.C)</title><text x="129.04" y="165.25" class="black" >C</text></g>
<g><title>16 (position.label in template: 17.R)</title><text x="123.44" y="160.17" class="green" >A</text></g>
<g><title>17 (position.label in template: 18.N)</title><text x="118.61" y="154.69" class="green" >U</text></g>
<g><title>18 (position.label in template: 19.U)</title><text x="114.19" y="148.25" class="black" >U</text></g>
<g><title>19 (position.label in template: 20.C)</title><text x="110.66" y="141.56" class="black" >C</text></g>
<g><line x1="109.963" y1="139.33" x2="107.167" y2="131.607" class="black" /></g>
<g><title>20 (position.label in template: 21.N)</title><text x="103.67" y="144.23" class="green" >A</text></g>
<g><line x1="103.003" y1="141.989" x2="100.347" y2="134.287" class="black" /></g>
<g><title>20 (inserted)</title><text x="105.918" y="150.758" class="numbering-label sequential" >20</text></g>
<g><line x1="104.269" y1="145.971" x2="105.389" y2="149.224" class="numbering-line sequential" /></g>
<g><title>21 (position.label in template: 22.R)</title><text x="96.37" y="146.48" class="green" >G</text></g>
<g><line x1="95.7347" y1="144.229" x2="93.2253" y2="136.548" class="black" /></g>
<g><title>22 (position.label in template: 23.N)</title><text x="89.37" y="149.15" class="green" >G</text></g>
<g><line x1="88.7031" y1="146.909" x2="86.0469" y2="139.207" class="black" /></g>
<g><title>23 (position.label in template: 24.N)</title><text x="82.22" y="151.62" class="green" >A</text></g>
<g><line x1="81.5551" y1="149.379" x2="78.9049" y2="141.668" class="black" /></g>
<g><title>24 (position.label in template: 25.N)</title><text x="75.08" y="154.08" class="green" >U</text></g>
<g><line x1="74.4131" y1="151.839" x2="71.7569" y2="144.137" class="black" /></g>
<g><title>25 (position.label in template: 26.N)</title><text x="67.93" y="156.54" class="green" >U</text></g>
<g><line x1="67.2631" y1="154.299" x2="64.6069" y2="146.597" class="black" /></g>
<g><title>26 (position.label in template: 27.N)</title><text x="62.65" y="161.96" class="green" >A</text></g>
<g><title>27 (position.label in template: 28.N)</title><text x="55.09" y="161.83" class="green" >A</text></g>
<g><title>28 (position.label in template: 29.N)</title><text x="50" y="156.25" class="green" >U</text></g>
<g><title>29 (position.label in template: 30.R)</title><text x="50.42" y="148.5" class="green" >G</text></g>
<g><title>30 (position.label in template: 31.N)</title><text x="56.45" y="143.96" class="green" >A</text></g>
<g><title>30 (inserted)</title><text x="54.7058" y="137.28" class="numbering-label sequential" >30</text></g>
<g><line x1="55.9849" y1="142.179" x2="55.1064" y2="138.814" class="numbering-line sequential" /></g>
<g><title>31 (position.label in template: 32.N)</title><text x="63.94" y="144.97" class="green" >A</text></g>
<g><title>32 (position.label in template: 33.N)</title><text x="71.09" y="142.51" class="green" >A</text></g>
<g><title>33 (position.label in template: 34.N)</title><text x="78.24" y="140.04" class="green" >U</text></g>
<g><title>34 (position.label in template: 35.N)</title><text x="85.38" y="137.58" class="green" >C</text></g>
<g><title>35 (position.label in template: 36.Y)</title><text x="92.59" y="134.91" class="green" >C</text></g>
<g><title>36 (position.label in template: 37.N)</title><text x="99.68" y="132.66" class="green" >U</text></g>
<g><title>37 (position.label in template: 38.G)</title><text x="106.47" y="129.99" class="black" >G</text></g>
<g><title>38 (position.label in template: 39.U)</title><text x="105.33" y="122.55" class="black" >U</text></g>
<g><title>39 (position.label in template: 40.C)</title><text x="104.86" y="115" class="black" >C</text></g>
<g><title>40 (position.label in template: 41.A)</title><text x="105.47" y="107.45" class="black" >A</text></g>
<g><title>41 (position.label in template: 42.Y)</title><text x="106.76" y="100" class="green" >U</text></g>
<g><title>42 (position.label in template: 43.N)</title><text x="108.85" y="92.96" class="green" >U</text></g>
<g><title>43 (position.label in template: 44.C)</title><text x="111.67" y="85.8" class="black" >C</text></g>
<g><title>44 (position.label in template: 45.A)</title><text x="115.64" y="79.24" class="black" >A</text></g>
<g><title>45 (position.label in template: 46.A)</title><text x="120.14" y="73.17" class="black" >A</text></g>
<g><title>46 (position.label in template: 47.C)</title><text x="125.11" y="67.66" class="black" >C</text></g>
<g><title>47 (position.label in template: 48.C)</title><text x="130.89" y="62.79" class="black" >C</text></g>
<g><title>48 (position.label in template: 49.C)</title><text x="137.2" y="58.63" class="black" >C</text></g>
<g><title>49 (position.label in template: 50.C)</title><text x="143.95" y="55.22" class="black" >C</text></g>
<g><title>50 (position.label in template: 51.A)</title><text x="151.26" y="52.63" class="black" >A</text></g>
<g><title>50 (inserted)</title><text x="149.301" y="46.0094" class="numbering-label sequential" >50</text></g>
<g><line x1="150.738" y1="50.8645" x2="149.755" y2="47.5437" class="numbering-line sequential" /></g>
<g><title>51 (position.label in template: 52.A)</title><text x="158.62" y="50.88" class="black" >A</text></g>
<g><title>52 (position.label in template: 53.A)</title><text x="166.13" y="50" class="black" >A</text></g>
<g><title>53 (position.label in template: 54.A)</title><text x="173.69" y="50" class="black" >A</text></g>
<g><title>54 (position.label in template: 55.N)</title><text x="181.14" y="51.09" class="green" >A</text></g>
<g><title>55 (position.label in template: 56.Y)</title><text x="188.55" y="52.63" class="green" >U</text></g>
<g><title>56 (position.label in template: 57.N)</title><text x="195.6" y="55.43" class="green" >C</text></g>
<g><title>57 (position.label in template: 58.U)</title><text x="202.2" y="58.63" class="black" >U</text></g>
<g><title>58 (position.label in template: 59.A)</title><text x="208.72" y="62.79" class="green" >U</text></g>
<g><title>59 (position.label in template: 60.N)</title><text x="214.44" y="67.87" class="green" >G</text></g>
<g><title>60 (position.label in template: 61.N)</title><text x="219.62" y="73.38" class="green" >U</text></g>
<g><title>61 (position.label in template: 62.N)</title><text x="224.12" y="79.45" class="green" >C</text></g>
<g><title>62 (position.label in template: 63.N)</title><text x="227.88" y="86.01" class="green" >A</text></g>
<g><title>63 (position.label in template: 64.N)</title><text x="230.85" y="92.96" class="green" >A</text></g>
<g><title>64 (position.label in template: 65.N)</title><text x="233" y="100.21" class="green" >A</text></g>
<g><title>65 (position.label in template: 66.R)</title><text x="234.13" y="107.45" class="green" >U</text></g>
<g><title>66 (position.label in template: 67.N)</title><text x="234.69" y="115.21" class="green" >U</text></g>
<g><title>67 (position.label in template: 68.A)</title><text x="234.28" y="122.55" class="black" >A</text></g>
<g><title>68 (position.label in template: 69.N)</title><text x="232.88" y="130.19" class="green" >U</text></g>
<g><title>69 (position.label in template: 70.Y)</title><text x="230.73" y="137.22" class="green" >U</text></g>
<g><title>70 (position.label in template: 71.N)</title><text x="227.64" y="144.35" class="green" >G</text></g>
<g><title>71 (position.label in template: 72.Y)</title><text x="223.88" y="150.67" class="green" >C</text></g>
<g><title>72 (position.label in template: 73.U)</title><text x="219.13" y="156.71" class="green" >C</text></g>
<g><title>73 (position.label in template: 74.U)</title><text x="213.91" y="162.18" class="black" >U</text></g>
<g><title>74 (position.label in template: 75.N)</title><text x="208.24" y="167.21" class="green" >C</text></g>
<g><title>75 (position.label in template: 76.R)</title><text x="201.74" y="171.11" class="green" >G</text></g>
<g><line x1="199.892" y1="171.681" x2="192.578" y2="175.155" class="black" /></g>
<g><title>76 (position.label in template: 77.Y)</title><text x="205.05" y="178.01" class="green" >U</text></g>
<g><line x1="203.195" y1="178.566" x2="195.685" y2="182.06" class="black" /></g>
<g><title>77 (position.label in template: 78.Y)</title><text x="208.15" y="184.9" class="green" >C</text></g>
<g><line x1="206.273" y1="185.407" x2="198.447" y2="188.799" class="black" /></g>
<g><title>78 (position.label in template: 79.N)</title><text x="211.19" y="192.01" class="green" >U</text></g>
<g><line x1="209.324" y1="192.541" x2="201.896" y2="195.875" class="black" /></g>
<g><title>79 (position.label in template: 80.N)</title><text x="216.84" y="197.02" class="green" >U</text></g>
<g><title>80 (position.label in template: 81.N)</title><text x="216.84" y="204.58" class="green" >U</text></g>
<g><line x1="214.974" y1="205.112" x2="207.546" y2="208.454" class="black" /></g>
<g><title>81 (position.label in template: 82.U)</title><text x="219.79" y="211.27" class="green" >U</text></g>
<g><line x1="217.942" y1="211.841" x2="210.628" y2="215.315" class="black" /></g>
<g><title>82 (position.label in template: 83.N)</title><text x="223.04" y="218.38" class="green" >G</text></g>
<g><line x1="221.174" y1="218.911" x2="213.746" y2="222.245" class="black" /></g>
<g><title>83 (position.label in template: 84.R)</title><text x="229.96" y="220.84" class="green" >G</text></g>
<g><title>84 (position.label in template: 85.N)</title><text x="234.5" y="227.21" class="green" >G</text></g>
<g><title>85 (position.label in template: 86.Y)</title><text x="234.79" y="234.56" class="green" >C</text></g>
<g><title>86 (position.label in template: 87.N)</title><text x="230.72" y="241.17" class="green" >A</text></g>
<g><title>87 (position.label in template: 88.Y)</title><text x="223.88" y="244.06" class="green" >C</text></g>
<g><title>88 (position.label in template: 89.N)</title><text x="216.37" y="243.02" class="green" >A</text></g>
<g><title>89 (position.label in template: 90.N)</title><text x="210.87" y="237.83" class="green" >A</text></g>
<g><title>90 (position.label in template: 91.N)</title><text x="209.18" y="230.46" class="green" >A</text></g>
<g><title>91 (position.label in template: 92.N)</title><text x="211.88" y="223.39" class="green" >C</text></g>
<g><title>92 (position.label in template: 93.N)</title><text x="208.78" y="216.5" class="green" >A</text></g>
<g><title>93 (position.label in template: 94.N)</title><text x="205.68" y="209.6" class="green" >A</text></g>
<g><title>94 (position.label in template: 95.N)</title><text x="200.03" y="204.58" class="green" >A</text></g>
<g><title>95 (position.label in template: 96.N)</title><text x="200.03" y="197.02" class="green" >A</text></g>
<g><title>96 (position.label in template: 97.G)</title><text x="196.57" y="189.92" class="green" >G</text></g>
<g><title>97 (position.label in template: 98.N)</title><text x="193.83" y="183.23" class="green" >U</text></g>
<g><title>98 (position.label in template: 99.N)</title><text x="190.73" y="176.34" class="green" >C</text></g>
<g><title>99 (position.label in template: 100.R)</title><text x="183.29" y="178.14" class="green" >A</text></g>
<g><title>100 (position.label in template: 101.N)</title><text x="175.97" y="179.5" class="green" >C</text></g>
<g><title>100 (inserted)</title><text x="181.307" y="183.88" class="numbering-label sequential" >100</text></g>
<g><line x1="177.393" y1="180.668" x2="179.438" y2="182.346" class="numbering-line sequential" /></g>
<g><title>101 (position.label in template: 103.N)</title><text x="175.97" y="187.06" class="green" >G</text></g>
<g><title>102 (position.label in template: 104.Y)</title><text x="176.03" y="194.41" class="green" >C</text></g>
<g><title>103 (position.label in template: 105.N)</title><text x="175.97" y="202.18" class="green" >A</text></g>
<g><title>104 (position.label in template: 106.R)</title><text x="175.82" y="209.53" class="green" >G</text></g>
<g><title>105 (position.label in template: 107.N)</title><text x="175.97" y="217.3" class="green" >G</text></g>
<g><title>106 (position.label in template: 108.R)</title><text x="181.17" y="222.44" class="green" >A</text></g>
<g><title>107 (position.label in template: 109.Y)</title><text x="188.93" y="222.44" class="green" >G</text></g>
<g><title>108 (position.label in template: 110.N)</title><text x="196.44" y="222.65" class="green" >G</text></g>
<g><title>109 (position.label in template: 111.N)</title><text x="204" y="222.65" class="green" >U</text></g>
<g><title>110 (inserted)</title><text x="209.164" y="217.118" class="red" >U</text></g>
<g><title>111 (position.label in template: 112.R)</title><text x="214.327" y="211.587" class="green" >C</text></g>
<g><line x1="216.373" y1="211.28" x2="224.521" y2="211.28" class="black" /></g>
<g><title>112 (position.label in template: 113.R)</title><text x="214.327" y="204.027" class="green" >A</text></g>
<g><line x1="216.373" y1="203.72" x2="224.731" y2="203.72" class="black" /></g>
<g><title>113 (position.label in template: 114.R)</title><text x="214.327" y="196.467" class="green" >G</text></g>
<g><line x1="216.373" y1="196.16" x2="224.731" y2="196.16" class="black" /></g>
<g><title>114 (position.label in template: 115.R)</title><text x="214.327" y="188.907" class="green" >A</text></g>
<g><line x1="216.373" y1="188.6" x2="224.731" y2="188.6" class="black" /></g>
<g><title>115 (position.label in template: 116.N)</title><text x="214.477" y="181.557" class="green" >C</text></g>
<g><line x1="216.523" y1="181.25" x2="224.671" y2="181.25" class="black" /></g>
<g><title>116 (position.label in template: 117.N)</title><text x="213.574" y="176.273" class="green" >A</text></g>
<g><title>117 (position.label in template: 118.N)</title><text x="214.477" y="170.99" class="green" >U</text></g>
<g><line x1="216.523" y1="170.683" x2="224.671" y2="170.683" class="black" /></g>
<g><title>118 (position.label in template: 119.Y)</title><text x="214.537" y="163.22" class="green" >U</text></g>
<g><line x1="216.583" y1="162.913" x2="224.521" y2="162.913" class="black" /></g>
<g><title>119 (position.label in template: 120.N)</title><text x="214.477" y="155.87" class="green" >C</text></g>
<g><line x1="216.523" y1="155.563" x2="224.671" y2="155.563" class="black" /></g>
<g><title>120 (position.label in template: 121.N)</title><text x="206.917" y="155.87" class="green" >G</text></g>
<g><title>121 (position.label in template: 122.N)</title><text x="206.917" y="148.31" class="green" >A</text></g>
<g><title>122 (position.label in template: 123.N)</title><text x="214.477" y="148.31" class="green" >C</text></g>
<g><line x1="216.523" y1="148.003" x2="224.671" y2="148.003" class="black" /></g>
<g><title>123 (position.label in template: 124.N)</title><text x="214.477" y="140.75" class="green" >A</text></g>
<g><line x1="216.523" y1="140.443" x2="224.671" y2="140.443" class="black" /></g>
<g><title>124 (position.label in template: 125.U)</title><text x="214.327" y="132.98" class="black" >U</text></g>
<g><line x1="216.373" y1="132.673" x2="224.731" y2="132.673" class="black" /></g>
<g><title>125 (position.label in template: 126.N)</title><text x="211.377" y="126.3" class="green" >A</text></g>
<g><title>126 (position.label in template: 127.N)</title><text x="214.477" y="119.4" class="green" >A</text></g>
<g><line x1="216.523" y1="119.093" x2="224.671" y2="119.093" class="black" /></g>
<g><title>127 (position.label in template: 128.G)</title><text x="214.117" y="111.63" class="black" >G</text></g>
<g><line x1="216.163" y1="111.323" x2="224.521" y2="111.323" class="black" /></g>
<g><title>128 (position.label in template: 129.N)</title><text x="214.477" y="104.28" class="green" >A</text></g>
<g><line x1="216.523" y1="103.973" x2="224.671" y2="103.973" class="black" /></g>
<g><title>129 (position.label in template: 130.N)</title><text x="214.477" y="96.7197" class="green" >U</text></g>
<g><line x1="216.523" y1="96.4128" x2="224.671" y2="96.4128" class="black" /></g>
<g><title>130 (position.label in template: 131.A)</title><text x="214.537" y="88.9497" class="black" >A</text></g>
<g><line x1="216.583" y1="88.6428" x2="224.521" y2="88.6428" class="black" /></g>
<g><title>131 (position.label in template: 132.N)</title><text x="210.42" y="83.6264" class="green" >C</text></g>
<g><title>132 (position.label in template: 133.N)</title><text x="210.275" y="76.8982" class="green" >A</text></g>
<g><title>133 (position.label in template: 134.N)</title><text x="214.161" y="71.4033" class="green" >C</text></g>
<g><title>134 (position.label in template: 135.N)</title><text x="220.552" y="69.2963" class="green" >U</text></g>
<g><title>135 (position.label in template: 136.U)</title><text x="226.943" y="71.4033" class="green" >A</text></g>
<g><title>136 (position.label in template: 137.A)</title><text x="230.829" y="76.8982" class="green" >U</text></g>
<g><title>137 (position.label in template: 138.U)</title><text x="230.684" y="83.6264" class="blue" >U</text></g>
<g><title>138 (position.label in template: 140.U)</title><text x="226.567" y="88.9497" class="black" >U</text></g>
<g><title>139 (position.label in template: 141.N)</title><text x="226.717" y="96.7197" class="green" >A</text></g>
<g><title>140 (position.label in template: 142.N)</title><text x="226.717" y="104.28" class="green" >U</text></g>
<g><title>141 (position.label in template: 143.C)</title><text x="226.567" y="111.63" class="black" >C</text></g>
<g><title>142 (position.label in template: 144.N)</title><text x="226.717" y="119.4" class="green" >U</text></g>
<g><title>143 (position.label in template: 145.N)</title><text x="229.817" y="126.3" class="green" >U</text></g>
<g><title>144 (position.label in template: 146.A)</title><text x="226.777" y="132.98" class="black" >A</text></g>
<g><title>145 (position.label in template: 147.N)</title><text x="226.717" y="140.75" class="green" >U</text></g>
<g><title>146 (position.label in template: 148.N)</title><text x="226.717" y="148.31" class="green" >G</text></g>
<g><title>147 (position.label in template: 149.N)</title><text x="226.717" y="155.87" class="green" >G</text></g>
<g><title>148 (position.label in template: 150.R)</title><text x="226.567" y="163.22" class="green" >A</text></g>
<g><title>149 (position.label in template: 151.N)</title><text x="226.717" y="170.99" class="green" >A</text></g>
<g><title>150 (inserted)</title><text x="227.62" y="176.273" class="red" >G</text></g>
<g><title>150 (inserted)</title><text x="234.525" y="176.273" class="numbering-label sequential" >150</text></g>
<g><line x1="229.461" y1="176.273" x2="231.763" y2="176.273" class="numbering-line sequential" /></g>
<g><title>151 (position.label in template: 152.N)</title><text x="226.717" y="181.557" class="green" >G</text></g>
<g><title>152 (position.label in template: 153.Y)</title><text x="226.777" y="188.907" class="green" >U</text></g>
<g><title>153 (position.label in template: 154.Y)</title><text x="226.777" y="196.467" class="green" >C</text></g>
<g><title>154 (position.label in template: 155.Y)</title><text x="226.777" y="204.027" class="green" >U</text></g>
<g><title>155 (position.label in template: 156.U)</title><text x="226.567" y="211.587" class="green" >A</text></g>
<g><title>156 (position.label in template: 157.N)</title><text x="231.889" y="216.966" class="green" >G</text></g>
<g><title>157 (position.label in template: 158.Y)</title><text x="239.453" y="216.758" class="green" >U</text></g>
<g><title>158 (position.label in template: 159.Y)</title><text x="247.02" y="216.758" class="green" >U</text></g>
<g><title>159 (position.label in template: 160.U)</title><text x="254.587" y="216.758" class="black" >U</text></g>
<g><title>160 (position.label in template: 161.Y)</title><text x="262.154" y="216.758" class="green" >U</text></g>
<g><title>161 (position.label in template: 162.U)</title><text x="269.721" y="216.758" class="black" >U</text></g>
<g><title>162 (position.label in template: 163.N)</title><text x="277.285" y="216.964" class="green" >U</text></g>
<g><title>163 (position.label in template: 166.3')</title><text x="284.85" y="217.17" class="green" >3'</text></g>
<g><line x1="128.484" y1="220.012" x2="131.96" y2="220.012" class="gray" /></g>
<g><line x1="136.051" y1="220.012" x2="139.527" y2="220.012" class="gray" /></g>
<g><line x1="143.619" y1="220.012" x2="147.094" y2="220.012" class="gray" /></g>
<g><line x1="151.185" y1="219.956" x2="154.659" y2="219.86" class="gray" /></g>
<g><line x1="158.604" y1="219.044" x2="161.831" y2="217.753" class="gray" /></g>
<g><line x1="163.746" y1="214.947" x2="163.774" y2="211.269" class="gray" /></g>
<g><line x1="163.773" y1="207.177" x2="163.747" y2="203.919" class="gray" /></g>
<g><line x1="163.635" y1="199.83" x2="163.465" y2="196.147" class="gray" /></g>
<g><line x1="163.47" y1="192.06" x2="163.63" y2="188.796" class="gray" /></g>
<g><line x1="163.73" y1="184.707" x2="163.73" y2="181.239" class="gray" /></g>
<g><line x1="161.716" y1="178.834" x2="158.124" y2="178.193" class="gray" /></g>
<g><line x1="154.138" y1="177.289" x2="150.792" y2="176.367" class="gray" /></g>
<g><line x1="146.925" y1="175.052" x2="143.715" y2="173.745" class="gray" /></g>
<g><line x1="140.04" y1="171.964" x2="137.18" y2="170.342" class="gray" /></g>
<g><line x1="133.716" y1="168.171" x2="130.724" y2="166.105" class="gray" /></g>
<g><line x1="127.525" y1="163.569" x2="124.955" y2="161.238" class="gray" /></g>
<g><line x1="122.087" y1="158.328" x2="119.963" y2="155.918" class="gray" /></g>
<g><line x1="117.452" y1="152.696" x2="115.348" y2="149.63" class="gray" /></g>
<g><line x1="113.235" y1="146.134" x2="111.615" y2="143.062" class="gray" /></g>
<g><line x1="108.749" y1="141.983" x2="105.581" y2="143.193" class="gray" /></g>
<g><line x1="101.715" y1="144.526" x2="98.325" y2="145.571" class="gray" /></g>
<g><line x1="94.4586" y1="146.902" x2="91.2814" y2="148.114" class="gray" /></g>
<g><line x1="87.4364" y1="149.511" x2="84.1536" y2="150.645" class="gray" /></g>
<g><line x1="80.2859" y1="151.98" x2="77.0141" y2="153.107" class="gray" /></g>
<g><line x1="73.1456" y1="154.439" x2="69.8644" y2="155.568" class="gray" /></g>
<g><line x1="66.5025" y1="157.698" x2="64.0775" y2="160.188" class="gray" /></g>
<g><line x1="60.6046" y1="161.618" x2="57.1354" y2="161.558" class="gray" /></g>
<g><line x1="53.7113" y1="160.012" x2="51.3787" y2="157.455" class="gray" /></g>
<g><line x1="50.1107" y1="153.9" x2="50.3093" y2="150.236" class="gray" /></g>
<g><line x1="52.0543" y1="146.963" x2="54.8157" y2="144.884" class="gray" /></g>
<g><line x1="58.4774" y1="143.927" x2="61.9126" y2="144.39" class="gray" /></g>
<g><line x1="65.8744" y1="143.998" x2="69.1556" y2="142.869" class="gray" /></g>
<g><line x1="73.0236" y1="141.535" x2="76.3064" y2="140.401" class="gray" /></g>
<g><line x1="80.1741" y1="139.067" x2="83.4459" y2="137.94" class="gray" /></g>
<g><line x1="87.2984" y1="136.563" x2="90.6716" y2="135.314" class="gray" /></g>
<g><line x1="94.5399" y1="133.984" x2="97.7301" y2="132.972" class="gray" /></g>
<g><line x1="101.584" y1="131.605" x2="104.566" y2="130.432" class="gray" /></g>
<g><line x1="106.16" y1="127.661" x2="105.64" y2="124.265" class="gray" /></g>
<g><line x1="105.203" y1="120.201" x2="104.987" y2="116.735" class="gray" /></g>
<g><line x1="105.025" y1="112.654" x2="105.305" y2="109.182" class="gray" /></g>
<g><line x1="105.819" y1="105.127" x2="106.411" y2="101.709" class="gray" /></g>
<g><line x1="107.342" y1="97.732" x2="108.268" y2="94.6143" class="gray" /></g>
<g><line x1="109.6" y1="90.7497" x2="110.92" y2="87.3965" class="gray" /></g>
<g><line x1="112.729" y1="83.743" x2="114.581" y2="80.6833" class="gray" /></g>
<g><line x1="116.858" y1="77.2898" x2="118.922" y2="74.5065" class="gray" /></g>
<g><line x1="121.51" y1="71.3441" x2="123.74" y2="68.8722" class="gray" /></g>
<g><line x1="126.674" y1="66.035" x2="129.326" y2="63.8013" class="gray" /></g>
<g><line x1="132.598" y1="61.3571" x2="135.492" y2="59.4491" class="gray" /></g>
<g><line x1="139.026" y1="57.4007" x2="142.124" y2="55.8356" class="gray" /></g>
<g><line x1="145.878" y1="54.2299" x2="149.332" y2="53.0063" class="gray" /></g>
<g><line x1="153.25" y1="51.8499" x2="156.63" y2="51.0464" class="gray" /></g>
<g><line x1="160.652" y1="50.3351" x2="164.098" y2="49.9312" class="gray" /></g>
<g><line x1="168.176" y1="49.6931" x2="171.644" y2="49.6931" class="gray" /></g>
<g><line x1="175.714" y1="49.9893" x2="179.116" y2="50.487" class="gray" /></g>
<g><line x1="183.143" y1="51.1994" x2="186.547" y2="51.9069" class="gray" /></g>
<g><line x1="190.451" y1="53.0782" x2="193.699" y2="54.368" class="gray" /></g>
<g><line x1="197.441" y1="56.0156" x2="200.359" y2="57.4307" class="gray" /></g>
<g><line x1="203.925" y1="59.4235" x2="206.995" y2="61.3828" class="gray" /></g>
<g><line x1="210.25" y1="63.8416" x2="212.91" y2="66.2047" class="gray" /></g>
<g><line x1="215.841" y1="69.0536" x2="218.219" y2="71.5827" class="gray" /></g>
<g><line x1="220.838" y1="74.7165" x2="222.902" y2="77.4998" class="gray" /></g>
<g><line x1="225.137" y1="80.918" x2="226.863" y2="83.9283" class="gray" /></g>
<g><line x1="228.684" y1="87.5843" x2="230.046" y2="90.772" class="gray" /></g>
<g><line x1="231.432" y1="94.6144" x2="232.418" y2="97.9419" class="gray" /></g>
<g><line x1="233.315" y1="101.924" x2="233.815" y2="105.122" class="gray" /></g>
<g><line x1="234.277" y1="109.184" x2="234.543" y2="112.863" class="gray" /></g>
<g><line x1="234.576" y1="116.946" x2="234.394" y2="120.201" class="gray" /></g>
<g><line x1="233.911" y1="124.255" x2="233.249" y2="127.871" class="gray" /></g>
<g><line x1="232.282" y1="131.839" x2="231.328" y2="134.957" class="gray" /></g>
<g><line x1="229.917" y1="138.79" x2="228.453" y2="142.166" class="gray" /></g>
<g><line x1="226.594" y1="145.801" x2="224.926" y2="148.605" class="gray" /></g>
<g><line x1="222.615" y1="151.971" x2="220.395" y2="154.795" class="gray" /></g>
<g><line x1="217.718" y1="157.883" x2="215.322" y2="160.393" class="gray" /></g>
<g><line x1="212.38" y1="163.231" x2="209.77" y2="165.546" class="gray" /></g>
<g><line x1="206.486" y1="167.956" x2="203.494" y2="169.751" class="gray" /></g>
<g><line x1="202.625" y1="172.648" x2="204.165" y2="175.859" class="gray" /></g>
<g><line x1="205.889" y1="179.569" x2="207.311" y2="182.728" class="gray" /></g>
<g><line x1="208.954" y1="186.474" x2="210.386" y2="189.822" class="gray" /></g>
<g><line x1="212.721" y1="193.06" x2="215.309" y2="195.356" class="gray" /></g>
<g><line x1="216.84" y1="198.759" x2="216.84" y2="202.227" class="gray" /></g>
<g><line x1="217.665" y1="206.145" x2="218.965" y2="209.091" class="gray" /></g>
<g><line x1="220.64" y1="212.824" x2="222.19" y2="216.213" class="gray" /></g>
<g><line x1="224.968" y1="218.758" x2="228.032" y2="219.848" class="gray" /></g>
<g><line x1="231.147" y1="222.199" x2="233.313" y2="225.237" class="gray" /></g>
<g><line x1="234.581" y1="228.947" x2="234.709" y2="232.209" class="gray" /></g>
<g><line x1="233.717" y1="235.995" x2="231.793" y2="239.121" class="gray" /></g>
<g><line x1="228.836" y1="241.659" x2="225.764" y2="242.957" class="gray" /></g>
<g><line x1="221.854" y1="243.473" x2="218.396" y2="242.994" class="gray" /></g>
<g><line x1="214.882" y1="241.309" x2="212.358" y2="238.927" class="gray" /></g>
<g><line x1="210.413" y1="235.529" x2="209.637" y2="232.147" class="gray" /></g>
<g><line x1="209.91" y1="228.242" x2="211.15" y2="224.994" class="gray" /></g>
<g><line x1="211.041" y1="221.218" x2="209.619" y2="218.059" class="gray" /></g>
<g><line x1="207.942" y1="214.327" x2="206.518" y2="211.159" class="gray" /></g>
<g><line x1="204.151" y1="207.934" x2="201.559" y2="205.632" class="gray" /></g>
<g><line x1="200.03" y1="202.227" x2="200.03" y2="198.759" class="gray" /></g>
<g><line x1="199.134" y1="194.874" x2="197.466" y2="191.452" class="gray" /></g>
<g><line x1="195.795" y1="187.72" x2="194.605" y2="184.816" class="gray" /></g>
<g><line x1="192.991" y1="181.058" x2="191.569" y2="177.899" class="gray" /></g>
<g><line x1="188.742" y1="176.514" x2="185.278" y2="177.352" class="gray" /></g>
<g><line x1="181.279" y1="178.207" x2="177.981" y2="178.819" class="gray" /></g>
<g><line x1="175.97" y1="181.239" x2="175.97" y2="184.707" class="gray" /></g>
<g><line x1="175.987" y1="188.799" x2="176.013" y2="192.057" class="gray" /></g>
<g><line x1="176.014" y1="196.149" x2="175.986" y2="199.827" class="gray" /></g>
<g><line x1="175.928" y1="203.918" x2="175.862" y2="207.178" class="gray" /></g>
<g><line x1="175.859" y1="211.268" x2="175.931" y2="214.948" class="gray" /></g>
<g><line x1="177.425" y1="218.431" x2="179.715" y2="220.695" class="gray" /></g>
<g><line x1="183.216" y1="222.133" x2="186.884" y2="222.133" class="gray" /></g>
<g><line x1="190.975" y1="222.19" x2="194.395" y2="222.286" class="gray" /></g>
<g><line x1="198.486" y1="222.343" x2="201.954" y2="222.343" class="gray" /></g>
<g><line x1="205.396" y1="220.848" x2="207.768" y2="218.307" class="gray" /></g>
<g><line x1="210.559" y1="215.316" x2="212.931" y2="212.775" class="gray" /></g>
<g><line x1="214.327" y1="209.234" x2="214.327" y2="205.766" class="gray" /></g>
<g><line x1="214.327" y1="201.674" x2="214.327" y2="198.206" class="gray" /></g>
<g><line x1="214.327" y1="194.114" x2="214.327" y2="190.646" class="gray" /></g>
<g><line x1="214.369" y1="186.555" x2="214.435" y2="183.295" class="gray" /></g>
<g><line x1="214.132" y1="179.233" x2="213.918" y2="177.983" class="gray" /></g>
<g><line x1="213.918" y1="173.95" x2="214.132" y2="172.699" class="gray" /></g>
<g><line x1="214.493" y1="168.637" x2="214.521" y2="164.958" class="gray" /></g>
<g><line x1="214.52" y1="160.867" x2="214.494" y2="157.608" class="gray" /></g>
<g><line x1="212.431" y1="155.563" x2="208.963" y2="155.563" class="gray" /></g>
<g><line x1="206.917" y1="153.517" x2="206.917" y2="150.049" class="gray" /></g>
<g><line x1="208.963" y1="148.003" x2="212.431" y2="148.003" class="gray" /></g>
<g><line x1="214.477" y1="145.957" x2="214.477" y2="142.489" class="gray" /></g>
<g><line x1="214.438" y1="138.397" x2="214.367" y2="134.718" class="gray" /></g>
<g><line x1="213.501" y1="130.801" x2="212.203" y2="127.864" class="gray" /></g>
<g><line x1="212.215" y1="124.127" x2="213.639" y2="120.959" class="gray" /></g>
<g><line x1="214.382" y1="117.049" x2="214.212" y2="113.366" class="gray" /></g>
<g><line x1="214.217" y1="109.28" x2="214.377" y2="106.016" class="gray" /></g>
<g><line x1="214.477" y1="101.927" x2="214.477" y2="98.4585" class="gray" /></g>
<g><line x1="214.493" y1="94.3672" x2="214.521" y2="90.6885" class="gray" /></g>
<g><line x1="213.285" y1="87.0246" x2="211.671" y2="84.9377" class="gray" /></g>
<g><line x1="210.376" y1="81.2743" x2="210.319" y2="78.6366" class="gray" /></g>
<g><line x1="211.456" y1="74.921" x2="212.98" y2="72.7668" class="gray" /></g>
<g><line x1="216.104" y1="70.4559" x2="218.609" y2="69.6299" class="gray" /></g>
<g><line x1="222.495" y1="69.6299" x2="225.001" y2="70.4559" class="gray" /></g>
<g><line x1="228.124" y1="72.7668" x2="229.648" y2="74.921" class="gray" /></g>
<g><line x1="230.785" y1="78.6366" x2="230.728" y2="81.2743" class="gray" /></g>
<g><line x1="229.433" y1="84.9377" x2="227.819" y2="87.0246" class="gray" /></g>
<g><line x1="226.607" y1="90.6881" x2="226.678" y2="94.3675" class="gray" /></g>
<g><line x1="226.717" y1="98.4585" x2="226.717" y2="101.927" class="gray" /></g>
<g><line x1="226.675" y1="106.018" x2="226.609" y2="109.278" class="gray" /></g>
<g><line x1="226.607" y1="113.368" x2="226.678" y2="117.047" class="gray" /></g>
<g><line x1="227.555" y1="120.959" x2="228.979" y2="124.127" class="gray" /></g>
<g><line x1="228.97" y1="127.855" x2="227.624" y2="130.811" class="gray" /></g>
<g><line x1="226.761" y1="134.718" x2="226.733" y2="138.397" class="gray" /></g>
<g><line x1="226.717" y1="142.489" x2="226.717" y2="145.957" class="gray" /></g>
<g><line x1="226.717" y1="150.049" x2="226.717" y2="153.517" class="gray" /></g>
<g><line x1="226.675" y1="157.608" x2="226.609" y2="160.868" class="gray" /></g>
<g><line x1="226.607" y1="164.958" x2="226.678" y2="168.637" class="gray" /></g>
<g><line x1="227.062" y1="172.699" x2="227.276" y2="173.95" class="gray" /></g>
<g><line x1="227.276" y1="177.983" x2="227.062" y2="179.233" class="gray" /></g>
<g><line x1="226.734" y1="183.296" x2="226.76" y2="186.554" class="gray" /></g>
<g><line x1="226.777" y1="190.646" x2="226.777" y2="194.114" class="gray" /></g>
<g><line x1="226.777" y1="198.206" x2="226.777" y2="201.674" class="gray" /></g>
<g><line x1="226.72" y1="205.765" x2="226.624" y2="209.235" class="gray" /></g>
<g><line x1="228.006" y1="212.734" x2="230.45" y2="215.205" class="gray" /></g>
<g><line x1="233.934" y1="216.603" x2="237.408" y2="216.507" class="gray" /></g>
<g><line x1="241.499" y1="216.451" x2="244.974" y2="216.451" class="gray" /></g>
<g><line x1="249.066" y1="216.451" x2="252.541" y2="216.451" class="gray" /></g>
<g><line x1="256.633" y1="216.451" x2="260.108" y2="216.451" class="gray" /></g>
<g><line x1="264.2" y1="216.451" x2="267.675" y2="216.451" class="gray" /></g>
<g><line x1="271.766" y1="216.507" x2="275.24" y2="216.601" class="gray" /></g>
<g><line x1="279.33" y1="216.713" x2="282.805" y2="216.807" class="gray" /></g>
</svg>
