<svg
	xmlns="http://www.w3.org/2000/svg"
	width="334.722"
	height="272.66"
	style="font-size: 3.045014px; font-weight: bold; font-family: Helvetica; " >
<g><style type="text/css" >
<!-- create color definitions -->
<![CDATA[
text.red {fill: rgb(255, 0, 255); }
text.green {fill: rgb(0, 255, 0); }
text.blue {fill: rgb(0, 0, 255); }
text.black {fill: rgb(0, 0, 0); }
text.gray {fill: rgb(204, 204, 204); }
text.brown {fill: rgb(211.65, 104.55, 30.6); }
text {fill: rgb(0, 0, 0); text-anchor: middle; alignment-baseline: middle; }
circle.red {stroke: rgb(255, 0, 255); fill: none; }
circle.green {stroke: rgb(0, 255, 0); fill: none; }
circle.blue {stroke: rgb(0, 0, 255); fill: none; }
circle.black {stroke: rgb(0, 0, 0); fill: none; }
circle.gray {stroke: rgb(204, 204, 204); fill: none; }
circle.brown {stroke: rgb(211.65, 104.55, 30.6); fill: none; }
circle {stroke: rgb(0, 0, 0); }
line.red {stroke: rgb(255, 0, 255); stroke-width: 0.380627; }
line.green {stroke: rgb(0, 255, 0); stroke-width: 0.380627; }
line.blue {stroke: rgb(0, 0, 255); stroke-width: 0.380627; }
line.black {stroke: rgb(0, 0, 0); stroke-width: 0.380627; }
line.gray {stroke: rgb(204, 204, 204); stroke-width: 0.380627; }
line.brown {stroke: rgb(211.65, 104.55, 30.6); stroke-width: 0.380627; }
line {stroke: rgb(0, 0, 0); }
text.numbering-label {fill: rgb(204, 204, 204);}
line.numbering-line {stroke: rgb(204, 204, 204); stroke-width: 0.190313;}
line.predicted {stroke: rgb(0, 0, 0); stroke-dasharray: 2}
text.background {fill: rgb(255, 255, 255);
.template {visibility:hidden}
]]>
</style></g>
<g><title>0 (position.label in template: 0.5')</title><text x="42.4426" y="222.554" class="green" >5'</text></g>
<g><title>1 (position.label in template: 1.U)</title><text x="50" y="222.554" class="black" >U</text></g>
<g><title>2 (position.label in template: 2.C)</title><text x="57.5574" y="222.554" class="black" >C</text></g>
<g><title>3 (position.label in template: 3.G)</title><text x="65.1149" y="222.554" class="black" >G</text></g>
<g><title>4 (position.label in template: 4.U)</title><text x="72.6723" y="222.554" class="black" >U</text></g>
<g><title>5 (position.label in template: 5.U)</title><text x="80.2298" y="222.554" class="black" >U</text></g>
<g><title>6 (position.label in template: 6.U)</title><text x="87.7872" y="222.554" class="black" >U</text></g>
<g><title>7 (position.label in template: 7.A)</title><text x="95.3447" y="222.554" class="black" >A</text></g>
<g><title>8 (position.label in template: 8.A)</title><text x="100.689" y="217.21" class="black" >A</text></g>
<g><line x1="102.719" y1="216.906" x2="110.689" y2="216.906" class="black" /></g>
<g><title>9 (position.label in template: 9.U)</title><text x="100.479" y="209.65" class="black" >U</text></g>
<g><line x1="102.509" y1="209.346" x2="110.479" y2="209.346" class="black" /></g>
<g><title>10 (position.label in template: 10.C)</title><text x="100.479" y="202.09" class="green" >A</text></g>
<g><line x1="102.509" y1="201.786" x2="110.479" y2="201.786" class="black" /></g>
<g><title>10 (inserted)</title><text x="93.628" y="201.995" class="numbering-label sequential" >10</text></g>
<g><line x1="98.6517" y1="202.065" x2="95.455" y2="202.021" class="numbering-line sequential" /></g>
<g><title>11 (position.label in template: 11.A)</title><text x="100.689" y="194.53" class="green" >U</text></g>
<g><line x1="102.719" y1="194.226" x2="110.689" y2="194.226" class="black" /></g>
<g><title>12 (position.label in template: 12.U)</title><text x="93.7387" y="192.283" class="blue" >U</text></g>
<g><title>13 (position.label in template: 13.U)</title><text x="87.506" y="188.474" class="blue" >U</text></g>
<g><title>14 (inserted)</title><text x="82.3352" y="183.315" class="red" >U</text></g>
<g><title>15 (inserted)</title><text x="78.5123" y="177.091" class="red" >C</text></g>
<g><title>16 (inserted)</title><text x="76.2488" y="170.147" class="red" >A</text></g>
<g><title>17 (inserted)</title><text x="75.6698" y="162.866" class="red" >U</text></g>
<g><title>18 (inserted)</title><text x="76.8075" y="155.65" class="red" >U</text></g>
<g><title>19 (inserted)</title><text x="79.5988" y="148.901" class="red" >A</text></g>
<g><title>20 (inserted)</title><text x="83.8894" y="142.989" class="red" >G</text></g>
<g><title>20 (inserted)</title><text x="78.8564" y="138.341" class="numbering-label sequential" >20</text></g>
<g><line x1="82.5473" y1="141.75" x2="80.6835" y2="140.028" class="numbering-line sequential" /></g>
<g><title>21 (inserted)</title><text x="89.4419" y="138.244" class="red" >A</text></g>
<g><title>22 (inserted)</title><text x="95.9493" y="134.926" class="red" >U</text></g>
<g><title>23 (inserted)</title><text x="103.051" y="133.22" class="red" >U</text></g>
<g><title>24 (inserted)</title><text x="110.356" y="133.22" class="red" >C</text></g>
<g><title>25 (inserted)</title><text x="117.458" y="134.926" class="red" >U</text></g>
<g><title>26 (inserted)</title><text x="123.965" y="138.244" class="red" >G</text></g>
<g><title>27 (inserted)</title><text x="129.518" y="142.989" class="red" >A</text></g>
<g><title>28 (inserted)</title><text x="133.808" y="148.901" class="red" >G</text></g>
<g><title>29 (inserted)</title><text x="136.6" y="155.65" class="red" >C</text></g>
<g><title>30 (inserted)</title><text x="137.737" y="162.866" class="red" >U</text></g>
<g><title>30 (inserted)</title><text x="144.584" y="162.602" class="numbering-label sequential" >30</text></g>
<g><line x1="139.563" y1="162.795" x2="142.757" y2="162.672" class="numbering-line sequential" /></g>
<g><title>31 (inserted)</title><text x="137.158" y="170.147" class="red" >U</text></g>
<g><title>32 (inserted)</title><text x="134.895" y="177.091" class="red" >U</text></g>
<g><title>33 (inserted)</title><text x="131.072" y="183.315" class="red" >G</text></g>
<g><title>34 (position.label in template: 47.U)</title><text x="125.901" y="188.474" class="blue" >U</text></g>
<g><title>35 (position.label in template: 48.U)</title><text x="119.668" y="192.283" class="blue" >U</text></g>
<g><title>36 (position.label in template: 49.U)</title><text x="112.719" y="194.53" class="green" >A</text></g>
<g><title>37 (position.label in template: 50.G)</title><text x="112.509" y="202.09" class="green" >U</text></g>
<g><title>38 (position.label in template: 51.G)</title><text x="112.509" y="209.65" class="black" >G</text></g>
<g><title>39 (position.label in template: 52.U)</title><text x="112.719" y="217.21" class="black" >U</text></g>
<g><title>40 (position.label in template: 53.U)</title><text x="118.069" y="222.56" class="green" >A</text></g>
<g><title>41 (position.label in template: 56.U)</title><text x="125.626" y="222.56" class="black" >U</text></g>
<g><title>42 (position.label in template: 57.G)</title><text x="132.976" y="222.56" class="green" >A</text></g>
<g><title>43 (position.label in template: 58.A)</title><text x="140.946" y="222.56" class="black" >A</text></g>
<g><title>44 (position.label in template: 59.U)</title><text x="148.306" y="222.56" class="green" >G</text></g>
<g><title>45 (position.label in template: 60.A)</title><text x="156.066" y="222.56" class="green" >G</text></g>
<g><title>46 (position.label in template: 61.A)</title><text x="163.626" y="222.56" class="black" >A</text></g>
<g><title>47 (position.label in template: 62.A)</title><text x="171.186" y="222.56" class="black" >A</text></g>
<g><title>48 (position.label in template: 63.G)</title><text x="178.336" y="222.56" class="black" >G</text></g>
<g><title>49 (position.label in template: 64.A)</title><text x="186.306" y="222.56" class="black" >A</text></g>
<g><title>50 (position.label in template: 65.G)</title><text x="193.456" y="222.56" class="green" >A</text></g>
<g><title>50 (inserted)</title><text x="193.456" y="229.412" class="numbering-label sequential" >50</text></g>
<g><line x1="193.456" y1="224.387" x2="193.456" y2="227.889" class="numbering-line sequential" /></g>
<g><title>51 (position.label in template: 66.A)</title><text x="201.426" y="222.56" class="black" >A</text></g>
<g><title>52 (position.label in template: 67.A)</title><text x="208.986" y="222.56" class="green" >G</text></g>
<g><title>53 (position.label in template: 68.A)</title><text x="216.546" y="222.56" class="black" >A</text></g>
<g><title>54 (position.label in template: 69.G)</title><text x="223.696" y="222.56" class="green" >U</text></g>
<g><title>55 (position.label in template: 70.A)</title><text x="231.666" y="222.56" class="black" >A</text></g>
<g><title>56 (position.label in template: 71.U)</title><text x="236.806" y="217.21" class="black" >U</text></g>
<g><line x1="238.836" y1="216.906" x2="247.226" y2="216.906" class="black" /></g>
<g><title>57 (position.label in template: 72.G)</title><text x="236.596" y="209.65" class="black" >G</text></g>
<g><line x1="238.626" y1="209.346" x2="247.016" y2="209.346" class="black" /></g>
<g><title>58 (position.label in template: 73.C)</title><text x="236.806" y="202.09" class="black" >C</text></g>
<g><line x1="238.836" y1="201.786" x2="246.806" y2="201.786" class="black" /></g>
<g><title>59 (position.label in template: 74.C)</title><text x="236.806" y="194.53" class="black" >C</text></g>
<g><line x1="238.836" y1="194.226" x2="246.806" y2="194.226" class="black" /></g>
<g><title>60 (position.label in template: 75.U)</title><text x="236.806" y="186.97" class="black" >U</text></g>
<g><line x1="238.836" y1="186.666" x2="247.226" y2="186.666" class="black" /></g>
<g><title>61 (position.label in template: 76.C)</title><text x="236.806" y="179.41" class="black" >C</text></g>
<g><line x1="238.836" y1="179.106" x2="246.806" y2="179.106" class="black" /></g>
<g><title>62 (position.label in template: 77.U)</title><text x="236.806" y="171.85" class="black" >U</text></g>
<g><line x1="238.836" y1="171.546" x2="246.806" y2="171.546" class="black" /></g>
<g><title>63 (position.label in template: 78.U)</title><text x="230.096" y="168.37" class="black" >U</text></g>
<g><title>64 (position.label in template: 79.C)</title><text x="225.076" y="162.72" class="black" >C</text></g>
<g><title>65 (position.label in template: 80.U)</title><text x="222.386" y="155.66" class="black" >U</text></g>
<g><title>66 (position.label in template: 81.U)</title><text x="222.386" y="148.1" class="black" >U</text></g>
<g><title>67 (position.label in template: 82.U)</title><text x="225.076" y="141.03" class="black" >U</text></g>
<g><title>68 (position.label in template: 83.C)</title><text x="230.096" y="135.39" class="black" >C</text></g>
<g><title>69 (position.label in template: 84.A)</title><text x="237.016" y="131.9" class="black" >A</text></g>
<g><line x1="239.046" y1="131.596" x2="247.016" y2="131.596" class="black" /></g>
<g><title>70 (position.label in template: 85.G)</title><text x="236.596" y="124.34" class="black" >G</text></g>
<g><line x1="238.626" y1="124.036" x2="247.016" y2="124.036" class="black" /></g>
<g><title>71 (position.label in template: 86.C)</title><text x="236.806" y="116.78" class="black" >C</text></g>
<g><line x1="238.836" y1="116.476" x2="246.806" y2="116.476" class="black" /></g>
<g><title>72 (position.label in template: 87.A)</title><text x="237.016" y="109.22" class="black" >A</text></g>
<g><line x1="239.046" y1="108.916" x2="247.016" y2="108.916" class="black" /></g>
<g><title>73 (position.label in template: 88.G)</title><text x="236.596" y="101.66" class="black" >G</text></g>
<g><line x1="238.626" y1="101.356" x2="247.016" y2="101.356" class="black" /></g>
<g><title>74 (position.label in template: 89.C)</title><text x="236.806" y="94.1003" class="black" >C</text></g>
<g><line x1="238.836" y1="93.7958" x2="246.806" y2="93.7958" class="black" /></g>
<g><title>75 (position.label in template: 90.A)</title><text x="237.016" y="86.5403" class="black" >A</text></g>
<g><line x1="239.046" y1="86.2358" x2="247.016" y2="86.2358" class="black" /></g>
<g><title>76 (position.label in template: 91.A)</title><text x="237.016" y="78.9803" class="black" >A</text></g>
<g><line x1="239.046" y1="78.6758" x2="247.016" y2="78.6758" class="black" /></g>
<g><title>77 (position.label in template: 92.G)</title><text x="236.596" y="71.4203" class="black" >G</text></g>
<g><line x1="238.626" y1="71.1158" x2="247.016" y2="71.1158" class="black" /></g>
<g><title>78 (position.label in template: 93.A)</title><text x="237.016" y="63.8603" class="black" >A</text></g>
<g><line x1="239.046" y1="63.5558" x2="247.016" y2="63.5558" class="black" /></g>
<g><title>79 (position.label in template: 94.U)</title><text x="234.798" y="58.0515" class="blue" >U</text></g>
<g><title>80 (position.label in template: 95.U)</title><text x="237.273" y="52.3474" class="green" >A</text></g>
<g><title>81 (inserted)</title><text x="243.031" y="50" class="red" >C</text></g>
<g><title>82 (position.label in template: 96.A)</title><text x="248.789" y="52.3474" class="blue" >A</text></g>
<g><title>83 (position.label in template: 97.U)</title><text x="251.264" y="58.0515" class="blue" >U</text></g>
<g><title>84 (position.label in template: 98.U)</title><text x="249.046" y="63.8603" class="black" >U</text></g>
<g><title>85 (position.label in template: 99.C)</title><text x="249.046" y="71.4203" class="black" >C</text></g>
<g><title>86 (position.label in template: 100.U)</title><text x="249.046" y="78.9803" class="black" >U</text></g>
<g><title>87 (position.label in template: 101.U)</title><text x="249.046" y="86.5403" class="black" >U</text></g>
<g><title>88 (position.label in template: 102.G)</title><text x="248.836" y="94.1003" class="black" >G</text></g>
<g><title>89 (position.label in template: 103.U)</title><text x="249.046" y="101.66" class="black" >U</text></g>
<g><title>90 (position.label in template: 104.U)</title><text x="249.046" y="109.22" class="black" >U</text></g>
<g><title>91 (position.label in template: 105.A)</title><text x="255.806" y="113" class="black" >A</text></g>
<g><title>92 (position.label in template: 106.G)</title><text x="248.836" y="116.78" class="black" >G</text></g>
<g><title>93 (position.label in template: 107.C)</title><text x="249.046" y="124.34" class="black" >C</text></g>
<g><title>94 (position.label in template: 108.U)</title><text x="249.046" y="131.9" class="black" >U</text></g>
<g><title>95 (position.label in template: 109.U)</title><text x="256.396" y="133.7" class="black" >U</text></g>
<g><title>96 (position.label in template: 110.U)</title><text x="262.546" y="138.09" class="black" >U</text></g>
<g><title>97 (position.label in template: 111.G)</title><text x="266.416" y="144.45" class="black" >G</text></g>
<g><title>98 (position.label in template: 112.U)</title><text x="268.056" y="151.88" class="black" >U</text></g>
<g><title>99 (position.label in template: 113.U)</title><text x="266.626" y="159.3" class="black" >U</text></g>
<g><title>100 (position.label in template: 114.C)</title><text x="262.546" y="165.66" class="black" >C</text></g>
<g><title>100 (inserted)</title><text x="267.511" y="170.381" class="numbering-label sequential" >100</text></g>
<g><line x1="263.87" y1="166.919" x2="265.91" y2="168.859" class="numbering-line sequential" /></g>
<g><title>101 (position.label in template: 115.U)</title><text x="256.396" y="170.06" class="black" >U</text></g>
<g><title>102 (position.label in template: 116.G)</title><text x="248.836" y="171.85" class="black" >G</text></g>
<g><title>103 (position.label in template: 117.G)</title><text x="248.836" y="179.41" class="black" >G</text></g>
<g><title>104 (position.label in template: 118.A)</title><text x="249.256" y="186.97" class="black" >A</text></g>
<g><title>105 (position.label in template: 119.G)</title><text x="248.836" y="194.53" class="black" >G</text></g>
<g><title>106 (position.label in template: 120.G)</title><text x="248.836" y="202.09" class="black" >G</text></g>
<g><title>107 (position.label in template: 121.C)</title><text x="249.046" y="209.65" class="black" >C</text></g>
<g><title>108 (position.label in template: 122.A)</title><text x="249.256" y="217.21" class="black" >A</text></g>
<g><title>109 (position.label in template: 123.C)</title><text x="254.492" y="222.66" class="green" >A</text></g>
<g><title>110 (position.label in template: 124.A)</title><text x="262.049" y="222.66" class="black" >A</text></g>
<g><title>111 (position.label in template: 125.G)</title><text x="269.607" y="222.66" class="green" >U</text></g>
<g><title>112 (position.label in template: 126.A)</title><text x="277.164" y="222.66" class="black" >A</text></g>
<g><title>113 (position.label in template: 127.U)</title><text x="284.722" y="222.66" class="black" >U</text></g>
<g><title>114 (position.label in template: 128.3')</title><text x="292.279" y="222.66" class="green" >3'</text></g>
<g><line x1="44.4726" y1="222.25" x2="47.97" y2="222.25" class="gray" /></g>
<g><line x1="52.03" y1="222.25" x2="55.5274" y2="222.25" class="gray" /></g>
<g><line x1="59.5875" y1="222.25" x2="63.0849" y2="222.25" class="gray" /></g>
<g><line x1="67.1449" y1="222.25" x2="70.6423" y2="222.25" class="gray" /></g>
<g><line x1="74.7023" y1="222.25" x2="78.1998" y2="222.25" class="gray" /></g>
<g><line x1="82.2598" y1="222.25" x2="85.7572" y2="222.25" class="gray" /></g>
<g><line x1="89.8172" y1="222.25" x2="93.3147" y2="222.25" class="gray" /></g>
<g><line x1="96.7801" y1="220.814" x2="99.2531" y2="218.341" class="gray" /></g>
<g><line x1="100.632" y1="214.877" x2="100.535" y2="211.375" class="gray" /></g>
<g><line x1="100.479" y1="207.316" x2="100.479" y2="203.816" class="gray" /></g>
<g><line x1="100.535" y1="199.757" x2="100.632" y2="196.255" class="gray" /></g>
<g><line x1="98.7571" y1="193.601" x2="95.6703" y2="192.603" class="gray" /></g>
<g><line x1="92.0065" y1="190.92" x2="89.2382" y2="189.228" class="gray" /></g>
<g><line x1="86.0689" y1="186.736" x2="83.7723" y2="184.445" class="gray" /></g>
<g><line x1="81.2727" y1="181.281" x2="79.5748" y2="178.517" class="gray" /></g>
<g><line x1="77.8832" y1="174.857" x2="76.8779" y2="171.772" class="gray" /></g>
<g><line x1="76.0879" y1="167.819" x2="75.8307" y2="164.585" class="gray" /></g>
<g><line x1="75.986" y1="160.556" x2="76.4913" y2="157.351" class="gray" /></g>
<g><line x1="77.5832" y1="153.47" x2="78.823" y2="150.472" class="gray" /></g>
<g><line x1="80.7912" y1="146.953" x2="82.6969" y2="144.328" class="gray" /></g>
<g><line x1="85.4325" y1="141.366" x2="87.8987" y2="139.258" class="gray" /></g>
<g><line x1="91.2504" y1="137.017" x2="94.1407" y2="135.544" class="gray" /></g>
<g><line x1="97.9231" y1="134.148" x2="101.078" y2="133.39" class="gray" /></g>
<g><line x1="105.081" y1="132.916" x2="108.326" y2="132.916" class="gray" /></g>
<g><line x1="112.33" y1="133.39" x2="115.484" y2="134.148" class="gray" /></g>
<g><line x1="119.266" y1="135.544" x2="122.157" y2="137.017" class="gray" /></g>
<g><line x1="125.508" y1="139.258" x2="127.975" y2="141.366" class="gray" /></g>
<g><line x1="130.71" y1="144.328" x2="132.616" y2="146.953" class="gray" /></g>
<g><line x1="134.584" y1="150.472" x2="135.824" y2="153.47" class="gray" /></g>
<g><line x1="136.916" y1="157.351" x2="137.421" y2="160.556" class="gray" /></g>
<g><line x1="137.576" y1="164.585" x2="137.319" y2="167.819" class="gray" /></g>
<g><line x1="136.529" y1="171.772" x2="135.524" y2="174.857" class="gray" /></g>
<g><line x1="133.832" y1="178.517" x2="132.134" y2="181.281" class="gray" /></g>
<g><line x1="129.635" y1="184.445" x2="127.338" y2="186.736" class="gray" /></g>
<g><line x1="124.169" y1="189.228" x2="121.401" y2="190.92" class="gray" /></g>
<g><line x1="117.737" y1="192.603" x2="114.65" y2="193.601" class="gray" /></g>
<g><line x1="112.662" y1="196.255" x2="112.565" y2="199.757" class="gray" /></g>
<g><line x1="112.509" y1="203.816" x2="112.509" y2="207.316" class="gray" /></g>
<g><line x1="112.565" y1="211.375" x2="112.662" y2="214.877" class="gray" /></g>
<g><line x1="114.154" y1="218.341" x2="116.633" y2="220.82" class="gray" /></g>
<g><line x1="120.099" y1="222.256" x2="123.596" y2="222.256" class="gray" /></g>
<g><line x1="127.656" y1="222.256" x2="130.946" y2="222.256" class="gray" /></g>
<g><line x1="135.006" y1="222.256" x2="138.916" y2="222.256" class="gray" /></g>
<g><line x1="142.976" y1="222.256" x2="146.276" y2="222.256" class="gray" /></g>
<g><line x1="150.336" y1="222.256" x2="154.036" y2="222.256" class="gray" /></g>
<g><line x1="158.096" y1="222.256" x2="161.596" y2="222.256" class="gray" /></g>
<g><line x1="165.656" y1="222.256" x2="169.156" y2="222.256" class="gray" /></g>
<g><line x1="173.216" y1="222.256" x2="176.306" y2="222.256" class="gray" /></g>
<g><line x1="180.366" y1="222.256" x2="184.276" y2="222.256" class="gray" /></g>
<g><line x1="188.336" y1="222.256" x2="191.426" y2="222.256" class="gray" /></g>
<g><line x1="195.486" y1="222.256" x2="199.396" y2="222.256" class="gray" /></g>
<g><line x1="203.456" y1="222.256" x2="206.956" y2="222.256" class="gray" /></g>
<g><line x1="211.016" y1="222.256" x2="214.516" y2="222.256" class="gray" /></g>
<g><line x1="218.576" y1="222.256" x2="221.666" y2="222.256" class="gray" /></g>
<g><line x1="225.726" y1="222.256" x2="229.636" y2="222.256" class="gray" /></g>
<g><line x1="233.072" y1="220.792" x2="235.4" y2="218.37" class="gray" /></g>
<g><line x1="236.75" y1="214.877" x2="236.652" y2="211.375" class="gray" /></g>
<g><line x1="236.652" y1="207.317" x2="236.75" y2="203.815" class="gray" /></g>
<g><line x1="236.806" y1="199.756" x2="236.806" y2="196.256" class="gray" /></g>
<g><line x1="236.806" y1="192.196" x2="236.806" y2="188.696" class="gray" /></g>
<g><line x1="236.806" y1="184.636" x2="236.806" y2="181.136" class="gray" /></g>
<g><line x1="236.806" y1="177.076" x2="236.806" y2="173.576" class="gray" /></g>
<g><line x1="235.004" y1="170.611" x2="231.898" y2="169" class="gray" /></g>
<g><line x1="228.748" y1="166.548" x2="226.424" y2="163.933" class="gray" /></g>
<g><line x1="224.353" y1="160.519" x2="223.109" y2="157.253" class="gray" /></g>
<g><line x1="222.386" y1="153.326" x2="222.386" y2="149.826" class="gray" /></g>
<g><line x1="223.108" y1="145.899" x2="224.354" y2="142.623" class="gray" /></g>
<g><line x1="226.426" y1="139.209" x2="228.746" y2="136.602" class="gray" /></g>
<g><line x1="231.909" y1="134.172" x2="235.203" y2="132.51" class="gray" /></g>
<g><line x1="236.903" y1="129.569" x2="236.709" y2="126.063" class="gray" /></g>
<g><line x1="236.652" y1="122.007" x2="236.75" y2="118.505" class="gray" /></g>
<g><line x1="236.862" y1="114.447" x2="236.96" y2="110.945" class="gray" /></g>
<g><line x1="236.903" y1="106.889" x2="236.709" y2="103.383" class="gray" /></g>
<g><line x1="236.652" y1="99.3266" x2="236.75" y2="95.8251" class="gray" /></g>
<g><line x1="236.862" y1="91.7666" x2="236.96" y2="88.2651" class="gray" /></g>
<g><line x1="237.016" y1="84.2058" x2="237.016" y2="80.7058" class="gray" /></g>
<g><line x1="236.903" y1="76.649" x2="236.709" y2="73.1427" class="gray" /></g>
<g><line x1="236.709" y1="69.089" x2="236.903" y2="65.5827" class="gray" /></g>
<g><line x1="236.292" y1="61.6594" x2="235.522" y2="59.6434" class="gray" /></g>
<g><line x1="235.606" y1="55.8848" x2="236.465" y2="53.9051" class="gray" /></g>
<g><line x1="239.153" y1="51.2766" x2="241.151" y2="50.4619" class="gray" /></g>
<g><line x1="244.911" y1="50.4619" x2="246.909" y2="51.2766" class="gray" /></g>
<g><line x1="249.597" y1="53.9051" x2="250.456" y2="55.8848" class="gray" /></g>
<g><line x1="250.54" y1="59.6434" x2="249.77" y2="61.6594" class="gray" /></g>
<g><line x1="249.046" y1="65.5858" x2="249.046" y2="69.0858" class="gray" /></g>
<g><line x1="249.046" y1="73.1458" x2="249.046" y2="76.6458" class="gray" /></g>
<g><line x1="249.046" y1="80.7058" x2="249.046" y2="84.2058" class="gray" /></g>
<g><line x1="248.99" y1="88.2651" x2="248.892" y2="91.7666" class="gray" /></g>
<g><line x1="248.892" y1="95.8251" x2="248.99" y2="99.3266" class="gray" /></g>
<g><line x1="249.046" y1="103.386" x2="249.046" y2="106.886" class="gray" /></g>
<g><line x1="250.818" y1="109.907" x2="254.034" y2="111.705" class="gray" /></g>
<g><line x1="254.022" y1="113.664" x2="250.621" y2="115.508" class="gray" /></g>
<g><line x1="248.892" y1="118.505" x2="248.99" y2="122.007" class="gray" /></g>
<g><line x1="249.046" y1="126.066" x2="249.046" y2="129.566" class="gray" /></g>
<g><line x1="251.018" y1="132.079" x2="254.424" y2="132.913" class="gray" /></g>
<g><line x1="258.048" y1="134.575" x2="260.894" y2="136.606" class="gray" /></g>
<g><line x1="263.601" y1="139.52" x2="265.361" y2="142.412" class="gray" /></g>
<g><line x1="266.854" y1="146.128" x2="267.618" y2="149.594" class="gray" /></g>
<g><line x1="267.672" y1="153.569" x2="267.01" y2="157.003" class="gray" /></g>
<g><line x1="265.53" y1="160.704" x2="263.642" y2="163.647" class="gray" /></g>
<g><line x1="260.895" y1="166.537" x2="258.047" y2="168.575" class="gray" /></g>
<g><line x1="254.421" y1="170.224" x2="250.811" y2="171.078" class="gray" /></g>
<g><line x1="248.836" y1="173.576" x2="248.836" y2="177.076" class="gray" /></g>
<g><line x1="248.949" y1="181.133" x2="249.143" y2="184.639" class="gray" /></g>
<g><line x1="249.143" y1="188.693" x2="248.949" y2="192.199" class="gray" /></g>
<g><line x1="248.836" y1="196.256" x2="248.836" y2="199.756" class="gray" /></g>
<g><line x1="248.892" y1="203.815" x2="248.99" y2="207.317" class="gray" /></g>
<g><line x1="249.102" y1="211.375" x2="249.2" y2="214.877" class="gray" /></g>
<g><line x1="250.662" y1="218.37" x2="253.085" y2="220.892" class="gray" /></g>
<g><line x1="256.522" y1="222.356" x2="260.019" y2="222.356" class="gray" /></g>
<g><line x1="264.079" y1="222.356" x2="267.577" y2="222.356" class="gray" /></g>
<g><line x1="271.637" y1="222.356" x2="275.134" y2="222.356" class="gray" /></g>
<g><line x1="279.194" y1="222.356" x2="282.692" y2="222.356" class="gray" /></g>
<g><line x1="286.752" y1="222.356" x2="290.249" y2="222.356" class="gray" /></g>
</svg>
