<svg
	xmlns="http://www.w3.org/2000/svg"
	width="289.341"
	height="272.66"
	style="font-size: 3.045014px; font-weight: bold; font-family: Helvetica; " >
<g><style type="text/css" >
<!-- create color definitions -->
<![CDATA[
text.red {fill: rgb(255, 0, 255); }
text.green {fill: rgb(0, 255, 0); }
text.blue {fill: rgb(0, 0, 255); }
text.black {fill: rgb(0, 0, 0); }
text.gray {fill: rgb(204, 204, 204); }
text.brown {fill: rgb(211.65, 104.55, 30.6); }
text {fill: rgb(0, 0, 0); text-anchor: middle; alignment-baseline: middle; }
circle.red {stroke: rgb(255, 0, 255); fill: none; }
circle.green {stroke: rgb(0, 255, 0); fill: none; }
circle.blue {stroke: rgb(0, 0, 255); fill: none; }
circle.black {stroke: rgb(0, 0, 0); fill: none; }
circle.gray {stroke: rgb(204, 204, 204); fill: none; }
circle.brown {stroke: rgb(211.65, 104.55, 30.6); fill: none; }
circle {stroke: rgb(0, 0, 0); }
line.red {stroke: rgb(255, 0, 255); stroke-width: 0.380627; }
line.green {stroke: rgb(0, 255, 0); stroke-width: 0.380627; }
line.blue {stroke: rgb(0, 0, 255); stroke-width: 0.380627; }
line.black {stroke: rgb(0, 0, 0); stroke-width: 0.380627; }
line.gray {stroke: rgb(204, 204, 204); stroke-width: 0.380627; }
line.brown {stroke: rgb(211.65, 104.55, 30.6); stroke-width: 0.380627; }
line {stroke: rgb(0, 0, 0); }
text.numbering-label {fill: rgb(204, 204, 204);}
line.numbering-line {stroke: rgb(204, 204, 204); stroke-width: 0.190313;}
line.predicted {stroke: rgb(0, 0, 0); stroke-dasharray: 2}
text.background {fill: rgb(255, 255, 255);
.template {visibility:hidden}
]]>
</style></g>
<g><title>0 (position.label in template: 0.5')</title><text x="57.374" y="132.074" class="green" >5'</text></g>
<g><title>1 (position.label in template: 19.U)</title><text x="57.5839" y="124.52" class="black" >U</text></g>
<g><title>2 (position.label in template: 20.A)</title><text x="57.7937" y="116.965" class="black" >A</text></g>
<g><title>3 (position.label in template: 21.G)</title><text x="62.2332" y="110.849" class="green" >G</text></g>
<g><line x1="64.2633" y1="110.545" x2="72.6532" y2="110.545" class="black" /></g>
<g><title>4 (position.label in template: 22.A)</title><text x="62.6532" y="103.289" class="green" >U</text></g>
<g><line x1="64.6833" y1="102.985" x2="72.6532" y2="102.985" class="black" /></g>
<g><title>5 (inserted)</title><text x="56.5404" y="99.8426" class="red" >U</text></g>
<g><title>6 (inserted)</title><text x="52.1173" y="94.3946" class="red" >U</text></g>
<g><title>7 (inserted)</title><text x="50" y="87.7041" class="red" >U</text></g>
<g><title>8 (inserted)</title><text x="50.4836" y="80.7034" class="red" >U</text></g>
<g><title>9 (inserted)</title><text x="53.5007" y="74.3676" class="red" >U</text></g>
<g><title>10 (inserted)</title><text x="58.6309" y="69.5795" class="red" >C</text></g>
<g><title>10 (inserted)</title><text x="54.9731" y="63.7864" class="numbering-label sequential" >10</text></g>
<g><line x1="57.6555" y1="68.0347" x2="55.9344" y2="65.3089" class="numbering-line sequential" /></g>
<g><title>11 (inserted)</title><text x="65.1595" y="67.0062" class="red" >C</text></g>
<g><title>12 (inserted)</title><text x="72.177" y="67.0062" class="red" >U</text></g>
<g><title>13 (inserted)</title><text x="78.7056" y="69.5795" class="red" >U</text></g>
<g><title>14 (inserted)</title><text x="83.8358" y="74.3676" class="red" >U</text></g>
<g><title>15 (inserted)</title><text x="86.8529" y="80.7034" class="red" >C</text></g>
<g><title>16 (inserted)</title><text x="87.3365" y="87.7041" class="red" >U</text></g>
<g><title>17 (inserted)</title><text x="85.2192" y="94.3946" class="red" >U</text></g>
<g><title>18 (inserted)</title><text x="80.7961" y="99.8426" class="red" >U</text></g>
<g><title>19 (position.label in template: 38.U)</title><text x="74.6832" y="103.289" class="green" >G</text></g>
<g><title>20 (position.label in template: 39.U)</title><text x="74.6832" y="110.849" class="green" >C</text></g>
<g><title>20 (inserted)</title><text x="81.1506" y="108.588" class="numbering-label sequential" >20</text></g>
<g><line x1="76.4079" y1="110.246" x2="79.3235" y2="109.227" class="numbering-line sequential" /></g>
<g><title>21 (position.label in template: 40.U)</title><text x="79.3932" y="116.759" class="black" >U</text></g>
<g><title>22 (position.label in template: 41.U)</title><text x="79.3932" y="124.319" class="black" >U</text></g>
<g><title>23 (inserted)</title><text x="79.3932" y="131.877" class="red" >G</text></g>
<g><title>24 (inserted)</title><text x="79.3932" y="139.434" class="red" >U</text></g>
<g><title>25 (inserted)</title><text x="79.3932" y="146.991" class="red" >G</text></g>
<g><title>26 (inserted)</title><text x="79.3932" y="154.549" class="red" >G</text></g>
<g><title>27 (inserted)</title><text x="79.3932" y="162.106" class="red" >G</text></g>
<g><title>28 (position.label in template: 47.U)</title><text x="79.3932" y="169.664" class="black" >U</text></g>
<g><title>29 (position.label in template: 48.U)</title><text x="79.3932" y="177.224" class="black" >U</text></g>
<g><title>30 (inserted)</title><text x="79.5357" y="184.78" class="red" >G</text></g>
<g><title>30 (inserted)</title><text x="72.6857" y="184.909" class="numbering-label sequential" >30</text></g>
<g><line x1="77.709" y1="184.814" x2="74.5127" y2="184.875" class="numbering-line sequential" /></g>
<g><title>31 (inserted)</title><text x="79.6782" y="192.336" class="red" >G</text></g>
<g><title>32 (inserted)</title><text x="79.8207" y="199.892" class="red" >U</text></g>
<g><title>33 (inserted)</title><text x="79.9632" y="207.448" class="red" >U</text></g>
<g><title>34 (inserted)</title><text x="80.1057" y="215.004" class="red" >U</text></g>
<g><title>35 (position.label in template: 53.U)</title><text x="80.2481" y="222.56" class="black" >U</text></g>
<g><title>36 (position.label in template: 54.U)</title><text x="87.8081" y="222.56" class="black" >U</text></g>
<g><title>37 (position.label in template: 55.U)</title><text x="95.3681" y="222.56" class="black" >U</text></g>
<g><title>38 (position.label in template: 56.U)</title><text x="102.928" y="222.56" class="black" >U</text></g>
<g><title>39 (position.label in template: 57.G)</title><text x="110.278" y="222.56" class="black" >G</text></g>
<g><title>40 (position.label in template: 58.A)</title><text x="118.248" y="222.56" class="black" >A</text></g>
<g><title>41 (position.label in template: 59.U)</title><text x="125.608" y="222.56" class="black" >U</text></g>
<g><title>42 (position.label in template: 60.A)</title><text x="133.368" y="222.56" class="black" >A</text></g>
<g><title>43 (position.label in template: 61.A)</title><text x="140.928" y="222.56" class="green" >U</text></g>
<g><title>44 (position.label in template: 62.A)</title><text x="148.488" y="222.56" class="black" >A</text></g>
<g><title>45 (position.label in template: 63.G)</title><text x="155.638" y="222.56" class="green" >A</text></g>
<g><title>46 (position.label in template: 64.A)</title><text x="163.608" y="222.56" class="black" >A</text></g>
<g><title>47 (position.label in template: 65.G)</title><text x="170.758" y="222.56" class="black" >G</text></g>
<g><title>48 (position.label in template: 66.A)</title><text x="178.728" y="222.56" class="black" >A</text></g>
<g><title>49 (position.label in template: 70.A)</title><text x="186.286" y="222.56" class="green" >U</text></g>
<g><title>50 (position.label in template: 71.U)</title><text x="191.426" y="217.21" class="black" >U</text></g>
<g><line x1="193.456" y1="216.906" x2="201.846" y2="216.906" class="black" /></g>
<g><title>50 (inserted)</title><text x="185.025" y="214.766" class="numbering-label sequential" >50</text></g>
<g><line x1="189.719" y1="216.559" x2="186.852" y2="215.464" class="numbering-line sequential" /></g>
<g><title>51 (position.label in template: 72.G)</title><text x="191.216" y="209.65" class="black" >G</text></g>
<g><line x1="193.246" y1="209.346" x2="201.636" y2="209.346" class="black" /></g>
<g><title>52 (position.label in template: 73.C)</title><text x="191.426" y="202.09" class="black" >C</text></g>
<g><line x1="193.456" y1="201.786" x2="201.426" y2="201.786" class="black" /></g>
<g><title>53 (position.label in template: 74.C)</title><text x="191.426" y="194.53" class="black" >C</text></g>
<g><line x1="193.456" y1="194.226" x2="201.426" y2="194.226" class="black" /></g>
<g><title>54 (position.label in template: 75.U)</title><text x="191.426" y="186.97" class="black" >U</text></g>
<g><line x1="193.456" y1="186.666" x2="201.846" y2="186.666" class="black" /></g>
<g><title>55 (position.label in template: 76.C)</title><text x="191.426" y="179.41" class="black" >C</text></g>
<g><line x1="193.456" y1="179.106" x2="201.426" y2="179.106" class="black" /></g>
<g><title>56 (position.label in template: 77.U)</title><text x="191.426" y="171.85" class="black" >U</text></g>
<g><line x1="193.456" y1="171.546" x2="201.426" y2="171.546" class="black" /></g>
<g><title>57 (position.label in template: 78.U)</title><text x="184.716" y="168.37" class="black" >U</text></g>
<g><title>58 (position.label in template: 79.C)</title><text x="179.696" y="162.72" class="black" >C</text></g>
<g><title>59 (position.label in template: 80.U)</title><text x="177.006" y="155.66" class="black" >U</text></g>
<g><title>60 (position.label in template: 81.U)</title><text x="177.006" y="148.1" class="black" >U</text></g>
<g><title>61 (position.label in template: 82.U)</title><text x="179.696" y="141.03" class="black" >U</text></g>
<g><title>62 (position.label in template: 83.C)</title><text x="184.716" y="135.39" class="black" >C</text></g>
<g><title>63 (position.label in template: 84.A)</title><text x="191.636" y="131.9" class="black" >A</text></g>
<g><line x1="193.666" y1="131.596" x2="201.636" y2="131.596" class="black" /></g>
<g><title>64 (position.label in template: 85.G)</title><text x="191.216" y="124.34" class="black" >G</text></g>
<g><line x1="193.246" y1="124.036" x2="201.636" y2="124.036" class="black" /></g>
<g><title>65 (position.label in template: 86.C)</title><text x="191.426" y="116.78" class="black" >C</text></g>
<g><line x1="193.456" y1="116.476" x2="201.426" y2="116.476" class="black" /></g>
<g><title>66 (position.label in template: 87.A)</title><text x="191.636" y="109.22" class="black" >A</text></g>
<g><line x1="193.666" y1="108.916" x2="201.636" y2="108.916" class="black" /></g>
<g><title>67 (position.label in template: 88.G)</title><text x="191.216" y="101.66" class="black" >G</text></g>
<g><line x1="193.246" y1="101.356" x2="201.636" y2="101.356" class="black" /></g>
<g><title>68 (position.label in template: 89.C)</title><text x="191.426" y="94.1003" class="black" >C</text></g>
<g><line x1="193.456" y1="93.7958" x2="201.426" y2="93.7958" class="black" /></g>
<g><title>69 (position.label in template: 90.A)</title><text x="191.636" y="86.5403" class="black" >A</text></g>
<g><line x1="193.666" y1="86.2358" x2="201.636" y2="86.2358" class="black" /></g>
<g><title>70 (position.label in template: 91.A)</title><text x="191.636" y="78.9803" class="black" >A</text></g>
<g><line x1="193.666" y1="78.6758" x2="201.636" y2="78.6758" class="black" /></g>
<g><title>71 (position.label in template: 92.G)</title><text x="191.216" y="71.4203" class="black" >G</text></g>
<g><line x1="193.246" y1="71.1158" x2="201.636" y2="71.1158" class="black" /></g>
<g><title>72 (position.label in template: 93.A)</title><text x="191.636" y="63.8603" class="black" >A</text></g>
<g><line x1="193.666" y1="63.5558" x2="201.636" y2="63.5558" class="black" /></g>
<g><title>73 (position.label in template: 94.U)</title><text x="189.417" y="58.0515" class="blue" >U</text></g>
<g><title>74 (inserted)</title><text x="191.893" y="52.3474" class="red" >C</text></g>
<g><title>75 (position.label in template: 95.U)</title><text x="197.651" y="50" class="blue" >U</text></g>
<g><title>76 (position.label in template: 96.A)</title><text x="203.408" y="52.3474" class="blue" >A</text></g>
<g><title>77 (position.label in template: 97.U)</title><text x="205.884" y="58.0515" class="blue" >U</text></g>
<g><title>78 (position.label in template: 98.U)</title><text x="203.666" y="63.8603" class="black" >U</text></g>
<g><title>79 (position.label in template: 99.C)</title><text x="203.666" y="71.4203" class="black" >C</text></g>
<g><title>80 (position.label in template: 100.U)</title><text x="203.666" y="78.9803" class="black" >U</text></g>
<g><title>81 (position.label in template: 101.U)</title><text x="203.666" y="86.5403" class="black" >U</text></g>
<g><title>82 (position.label in template: 102.G)</title><text x="203.456" y="94.1003" class="black" >G</text></g>
<g><title>83 (position.label in template: 103.U)</title><text x="203.666" y="101.66" class="black" >U</text></g>
<g><title>84 (position.label in template: 104.U)</title><text x="203.666" y="109.22" class="black" >U</text></g>
<g><title>85 (position.label in template: 105.A)</title><text x="210.426" y="113" class="black" >A</text></g>
<g><title>86 (position.label in template: 106.G)</title><text x="203.456" y="116.78" class="black" >G</text></g>
<g><title>87 (position.label in template: 107.C)</title><text x="203.666" y="124.34" class="black" >C</text></g>
<g><title>88 (position.label in template: 108.U)</title><text x="203.666" y="131.9" class="black" >U</text></g>
<g><title>89 (position.label in template: 109.U)</title><text x="211.016" y="133.7" class="black" >U</text></g>
<g><title>90 (position.label in template: 110.U)</title><text x="217.166" y="138.09" class="black" >U</text></g>
<g><title>91 (position.label in template: 111.G)</title><text x="221.036" y="144.45" class="black" >G</text></g>
<g><title>92 (position.label in template: 112.U)</title><text x="222.676" y="151.88" class="black" >U</text></g>
<g><title>93 (position.label in template: 113.U)</title><text x="221.246" y="159.3" class="black" >U</text></g>
<g><title>94 (position.label in template: 114.C)</title><text x="217.166" y="165.66" class="black" >C</text></g>
<g><title>95 (position.label in template: 115.U)</title><text x="211.016" y="170.06" class="black" >U</text></g>
<g><title>96 (position.label in template: 116.G)</title><text x="203.456" y="171.85" class="black" >G</text></g>
<g><title>97 (position.label in template: 117.G)</title><text x="203.456" y="179.41" class="black" >G</text></g>
<g><title>98 (position.label in template: 118.A)</title><text x="203.876" y="186.97" class="black" >A</text></g>
<g><title>99 (position.label in template: 119.G)</title><text x="203.456" y="194.53" class="black" >G</text></g>
<g><title>100 (position.label in template: 120.G)</title><text x="203.456" y="202.09" class="black" >G</text></g>
<g><title>100 (inserted)</title><text x="210.306" y="201.995" class="numbering-label sequential" >100</text></g>
<g><line x1="205.282" y1="202.065" x2="207.566" y2="202.033" class="numbering-line sequential" /></g>
<g><title>101 (position.label in template: 121.C)</title><text x="203.666" y="209.65" class="black" >C</text></g>
<g><title>102 (position.label in template: 122.A)</title><text x="203.876" y="217.21" class="black" >A</text></g>
<g><title>103 (position.label in template: 123.C)</title><text x="209.111" y="222.66" class="black" >C</text></g>
<g><title>104 (position.label in template: 124.A)</title><text x="216.669" y="222.66" class="black" >A</text></g>
<g><title>105 (position.label in template: 125.G)</title><text x="224.226" y="222.66" class="green" >U</text></g>
<g><title>106 (position.label in template: 126.A)</title><text x="231.784" y="222.66" class="black" >A</text></g>
<g><title>107 (position.label in template: 127.U)</title><text x="239.341" y="222.66" class="black" >U</text></g>
<g><title>108 (position.label in template: 128.3')</title><text x="246.899" y="222.66" class="green" >3'</text></g>
<g><line x1="57.4304" y1="129.74" x2="57.5275" y2="126.244" class="gray" /></g>
<g><line x1="57.6402" y1="122.186" x2="57.7373" y2="118.69" class="gray" /></g>
<g><line x1="58.9862" y1="115.018" x2="61.0407" y2="112.187" class="gray" /></g>
<g><line x1="62.3458" y1="108.518" x2="62.5406" y2="105.011" class="gray" /></g>
<g><line x1="60.8849" y1="101.988" x2="58.3087" y2="100.535" class="gray" /></g>
<g><line x1="55.2609" y1="97.9621" x2="53.3968" y2="95.6661" class="gray" /></g>
<g><line x1="51.5048" y1="92.1547" x2="50.6125" y2="89.3351" class="gray" /></g>
<g><line x1="50.1399" y1="85.3745" x2="50.3437" y2="82.424" class="gray" /></g>
<g><line x1="51.3564" y1="78.5661" x2="52.6279" y2="75.8959" class="gray" /></g>
<g><line x1="54.9847" y1="72.678" x2="57.1468" y2="70.6601" class="gray" /></g>
<g><line x1="60.5195" y1="68.5306" x2="63.2709" y2="67.4461" class="gray" /></g>
<g><line x1="67.1895" y1="66.7017" x2="70.147" y2="66.7017" class="gray" /></g>
<g><line x1="74.0656" y1="67.4461" x2="76.817" y2="68.5306" class="gray" /></g>
<g><line x1="80.1897" y1="70.6601" x2="82.3518" y2="72.678" class="gray" /></g>
<g><line x1="84.7086" y1="75.8959" x2="85.9801" y2="78.5661" class="gray" /></g>
<g><line x1="86.9928" y1="82.424" x2="87.1966" y2="85.3745" class="gray" /></g>
<g><line x1="86.724" y1="89.3351" x2="85.8317" y2="92.1547" class="gray" /></g>
<g><line x1="83.9397" y1="95.6661" x2="82.0756" y2="97.9621" class="gray" /></g>
<g><line x1="79.0277" y1="100.535" x2="76.4516" y2="101.988" class="gray" /></g>
<g><line x1="74.6832" y1="105.015" x2="74.6832" y2="108.515" class="gray" /></g>
<g><line x1="75.9484" y1="112.132" x2="78.1281" y2="114.867" class="gray" /></g>
<g><line x1="79.3932" y1="118.485" x2="79.3932" y2="121.985" class="gray" /></g>
<g><line x1="79.3932" y1="126.045" x2="79.3932" y2="129.542" class="gray" /></g>
<g><line x1="79.3932" y1="133.602" x2="79.3932" y2="137.099" class="gray" /></g>
<g><line x1="79.3932" y1="141.159" x2="79.3932" y2="144.657" class="gray" /></g>
<g><line x1="79.3932" y1="148.717" x2="79.3932" y2="152.214" class="gray" /></g>
<g><line x1="79.3932" y1="156.274" x2="79.3932" y2="159.772" class="gray" /></g>
<g><line x1="79.3932" y1="163.832" x2="79.3932" y2="167.329" class="gray" /></g>
<g><line x1="79.3932" y1="171.389" x2="79.3932" y2="174.889" class="gray" /></g>
<g><line x1="79.4315" y1="178.949" x2="79.4975" y2="182.446" class="gray" /></g>
<g><line x1="79.574" y1="186.505" x2="79.6399" y2="190.002" class="gray" /></g>
<g><line x1="79.7165" y1="194.061" x2="79.7824" y2="197.558" class="gray" /></g>
<g><line x1="79.859" y1="201.617" x2="79.9249" y2="205.114" class="gray" /></g>
<g><line x1="80.0015" y1="209.173" x2="80.0674" y2="212.67" class="gray" /></g>
<g><line x1="80.1439" y1="216.729" x2="80.2099" y2="220.226" class="gray" /></g>
<g><line x1="82.2782" y1="222.256" x2="85.7781" y2="222.256" class="gray" /></g>
<g><line x1="89.8382" y1="222.256" x2="93.3381" y2="222.256" class="gray" /></g>
<g><line x1="97.3982" y1="222.256" x2="100.898" y2="222.256" class="gray" /></g>
<g><line x1="104.958" y1="222.256" x2="108.248" y2="222.256" class="gray" /></g>
<g><line x1="112.308" y1="222.256" x2="116.218" y2="222.256" class="gray" /></g>
<g><line x1="120.278" y1="222.256" x2="123.578" y2="222.256" class="gray" /></g>
<g><line x1="127.638" y1="222.256" x2="131.338" y2="222.256" class="gray" /></g>
<g><line x1="135.398" y1="222.256" x2="138.898" y2="222.256" class="gray" /></g>
<g><line x1="142.958" y1="222.256" x2="146.458" y2="222.256" class="gray" /></g>
<g><line x1="150.518" y1="222.256" x2="153.608" y2="222.256" class="gray" /></g>
<g><line x1="157.668" y1="222.256" x2="161.578" y2="222.256" class="gray" /></g>
<g><line x1="165.638" y1="222.256" x2="168.728" y2="222.256" class="gray" /></g>
<g><line x1="172.788" y1="222.256" x2="176.698" y2="222.256" class="gray" /></g>
<g><line x1="180.758" y1="222.256" x2="184.256" y2="222.256" class="gray" /></g>
<g><line x1="187.692" y1="220.792" x2="190.019" y2="218.37" class="gray" /></g>
<g><line x1="191.369" y1="214.877" x2="191.272" y2="211.375" class="gray" /></g>
<g><line x1="191.272" y1="207.317" x2="191.369" y2="203.815" class="gray" /></g>
<g><line x1="191.426" y1="199.756" x2="191.426" y2="196.256" class="gray" /></g>
<g><line x1="191.426" y1="192.196" x2="191.426" y2="188.696" class="gray" /></g>
<g><line x1="191.426" y1="184.636" x2="191.426" y2="181.136" class="gray" /></g>
<g><line x1="191.426" y1="177.076" x2="191.426" y2="173.576" class="gray" /></g>
<g><line x1="189.624" y1="170.611" x2="186.518" y2="169" class="gray" /></g>
<g><line x1="183.367" y1="166.548" x2="181.044" y2="163.933" class="gray" /></g>
<g><line x1="178.973" y1="160.519" x2="177.728" y2="157.253" class="gray" /></g>
<g><line x1="177.006" y1="153.326" x2="177.006" y2="149.826" class="gray" /></g>
<g><line x1="177.727" y1="145.899" x2="178.974" y2="142.623" class="gray" /></g>
<g><line x1="181.045" y1="139.209" x2="183.366" y2="136.602" class="gray" /></g>
<g><line x1="186.528" y1="134.172" x2="189.823" y2="132.51" class="gray" /></g>
<g><line x1="191.523" y1="129.569" x2="191.328" y2="126.063" class="gray" /></g>
<g><line x1="191.272" y1="122.007" x2="191.369" y2="118.505" class="gray" /></g>
<g><line x1="191.482" y1="114.447" x2="191.579" y2="110.945" class="gray" /></g>
<g><line x1="191.523" y1="106.889" x2="191.328" y2="103.383" class="gray" /></g>
<g><line x1="191.272" y1="99.3266" x2="191.369" y2="95.8251" class="gray" /></g>
<g><line x1="191.482" y1="91.7666" x2="191.579" y2="88.2651" class="gray" /></g>
<g><line x1="191.636" y1="84.2058" x2="191.636" y2="80.7058" class="gray" /></g>
<g><line x1="191.523" y1="76.649" x2="191.328" y2="73.1427" class="gray" /></g>
<g><line x1="191.328" y1="69.089" x2="191.523" y2="65.5827" class="gray" /></g>
<g><line x1="190.911" y1="61.6594" x2="190.142" y2="59.6434" class="gray" /></g>
<g><line x1="190.225" y1="55.8848" x2="191.085" y2="53.9051" class="gray" /></g>
<g><line x1="193.772" y1="51.2766" x2="195.771" y2="50.4619" class="gray" /></g>
<g><line x1="199.53" y1="50.4619" x2="201.529" y2="51.2766" class="gray" /></g>
<g><line x1="204.217" y1="53.9051" x2="205.076" y2="55.8848" class="gray" /></g>
<g><line x1="205.16" y1="59.6434" x2="204.39" y2="61.6594" class="gray" /></g>
<g><line x1="203.666" y1="65.5858" x2="203.666" y2="69.0858" class="gray" /></g>
<g><line x1="203.666" y1="73.1458" x2="203.666" y2="76.6458" class="gray" /></g>
<g><line x1="203.666" y1="80.7058" x2="203.666" y2="84.2058" class="gray" /></g>
<g><line x1="203.609" y1="88.2651" x2="203.512" y2="91.7666" class="gray" /></g>
<g><line x1="203.512" y1="95.8251" x2="203.609" y2="99.3266" class="gray" /></g>
<g><line x1="203.666" y1="103.386" x2="203.666" y2="106.886" class="gray" /></g>
<g><line x1="205.437" y1="109.907" x2="208.654" y2="111.705" class="gray" /></g>
<g><line x1="208.641" y1="113.664" x2="205.24" y2="115.508" class="gray" /></g>
<g><line x1="203.512" y1="118.505" x2="203.609" y2="122.007" class="gray" /></g>
<g><line x1="203.666" y1="126.066" x2="203.666" y2="129.566" class="gray" /></g>
<g><line x1="205.637" y1="132.079" x2="209.044" y2="132.913" class="gray" /></g>
<g><line x1="212.668" y1="134.575" x2="215.513" y2="136.606" class="gray" /></g>
<g><line x1="218.221" y1="139.52" x2="219.98" y2="142.412" class="gray" /></g>
<g><line x1="221.473" y1="146.128" x2="222.238" y2="149.594" class="gray" /></g>
<g><line x1="222.291" y1="153.569" x2="221.63" y2="157.003" class="gray" /></g>
<g><line x1="220.149" y1="160.704" x2="218.262" y2="163.647" class="gray" /></g>
<g><line x1="215.515" y1="166.537" x2="212.667" y2="168.575" class="gray" /></g>
<g><line x1="209.04" y1="170.224" x2="205.431" y2="171.078" class="gray" /></g>
<g><line x1="203.456" y1="173.576" x2="203.456" y2="177.076" class="gray" /></g>
<g><line x1="203.568" y1="181.133" x2="203.763" y2="184.639" class="gray" /></g>
<g><line x1="203.763" y1="188.693" x2="203.568" y2="192.199" class="gray" /></g>
<g><line x1="203.456" y1="196.256" x2="203.456" y2="199.756" class="gray" /></g>
<g><line x1="203.512" y1="203.815" x2="203.609" y2="207.317" class="gray" /></g>
<g><line x1="203.722" y1="211.375" x2="203.819" y2="214.877" class="gray" /></g>
<g><line x1="205.282" y1="218.37" x2="207.705" y2="220.892" class="gray" /></g>
<g><line x1="211.141" y1="222.356" x2="214.639" y2="222.356" class="gray" /></g>
<g><line x1="218.699" y1="222.356" x2="222.196" y2="222.356" class="gray" /></g>
<g><line x1="226.256" y1="222.356" x2="229.754" y2="222.356" class="gray" /></g>
<g><line x1="233.814" y1="222.356" x2="237.311" y2="222.356" class="gray" /></g>
<g><line x1="241.371" y1="222.356" x2="244.869" y2="222.356" class="gray" /></g>
</svg>
