<svg
	xmlns="http://www.w3.org/2000/svg"
	width="359.001"
	height="388.701"
	style="font-size: 3.068569px; font-weight: bold; font-family: Helvetica; " >
<g><style type="text/css" >
<!-- create color definitions -->
<![CDATA[
text.red {fill: rgb(255, 0, 255); }
text.green {fill: rgb(0, 255, 0); }
text.blue {fill: rgb(0, 0, 255); }
text.black {fill: rgb(0, 0, 0); }
text.gray {fill: rgb(204, 204, 204); }
text.brown {fill: rgb(211.65, 104.55, 30.6); }
text {fill: rgb(0, 0, 0); text-anchor: middle; alignment-baseline: middle; }
circle.red {stroke: rgb(255, 0, 255); fill: none; }
circle.green {stroke: rgb(0, 255, 0); fill: none; }
circle.blue {stroke: rgb(0, 0, 255); fill: none; }
circle.black {stroke: rgb(0, 0, 0); fill: none; }
circle.gray {stroke: rgb(204, 204, 204); fill: none; }
circle.brown {stroke: rgb(211.65, 104.55, 30.6); fill: none; }
circle {stroke: rgb(0, 0, 0); }
line.red {stroke: rgb(255, 0, 255); stroke-width: 0.383571; }
line.green {stroke: rgb(0, 255, 0); stroke-width: 0.383571; }
line.blue {stroke: rgb(0, 0, 255); stroke-width: 0.383571; }
line.black {stroke: rgb(0, 0, 0); stroke-width: 0.383571; }
line.gray {stroke: rgb(204, 204, 204); stroke-width: 0.383571; }
line.brown {stroke: rgb(211.65, 104.55, 30.6); stroke-width: 0.383571; }
line {stroke: rgb(0, 0, 0); }
text.numbering-label {fill: rgb(204, 204, 204);}
line.numbering-line {stroke: rgb(204, 204, 204); stroke-width: 0.191786;}
line.predicted {stroke: rgb(0, 0, 0); stroke-dasharray: 2}
text.background {fill: rgb(255, 255, 255);
.template {visibility:hidden}
]]>
</style></g>
<g><title>0 (position.label in template: 0.5')</title><text x="137.142" y="330.46" class="green" >5'</text></g>
<g><title>1 (position.label in template: 1.N)</title><text x="144.709" y="330.46" class="green" >G</text></g>
<g><title>2 (position.label in template: 2.N)</title><text x="152.276" y="330.46" class="green" >A</text></g>
<g><title>3 (position.label in template: 3.N)</title><text x="159.843" y="330.46" class="green" >C</text></g>
<g><title>4 (position.label in template: 4.Y)</title><text x="167.407" y="330.251" class="green" >A</text></g>
<g><title>5 (position.label in template: 6.N)</title><text x="174.433" y="327.441" class="green" >A</text></g>
<g><line x1="176.479" y1="327.134" x2="184.628" y2="327.134" class="black" /></g>
<g><title>6 (position.label in template: 7.Y)</title><text x="174.493" y="319.671" class="green" >U</text></g>
<g><line x1="176.539" y1="319.364" x2="184.478" y2="319.364" class="black" /></g>
<g><title>7 (position.label in template: 8.N)</title><text x="174.433" y="312.321" class="green" >U</text></g>
<g><line x1="176.479" y1="312.014" x2="184.628" y2="312.014" class="black" /></g>
<g><title>8 (position.label in template: 9.G)</title><text x="174.073" y="304.551" class="green" >G</text></g>
<g><line x1="176.119" y1="304.244" x2="184.688" y2="304.244" class="black" /></g>
<g><title>9 (position.label in template: 10.N)</title><text x="174.433" y="297.201" class="green" >C</text></g>
<g><line x1="176.479" y1="296.894" x2="184.628" y2="296.894" class="black" /></g>
<g><title>10 (inserted)</title><text x="174.389" y="285.671" class="red" >U</text></g>
<g><title>10 (inserted)</title><text x="167.484" y="285.671" class="numbering-label sequential" >10</text></g>
<g><line x1="172.547" y1="285.671" x2="169.325" y2="285.671" class="numbering-line sequential" /></g>
<g><title>11 (position.label in template: 11.N)</title><text x="174.433" y="274.141" class="green" >G</text></g>
<g><line x1="176.479" y1="273.834" x2="184.628" y2="273.834" class="black" /></g>
<g><title>12 (position.label in template: 12.R)</title><text x="166.813" y="272.781" class="green" >U</text></g>
<g><title>13 (position.label in template: 13.R)</title><text x="159.523" y="270.771" class="green" >A</text></g>
<g><title>14 (position.label in template: 14.U)</title><text x="152.523" y="267.921" class="black" >U</text></g>
<g><title>15 (position.label in template: 15.Y)</title><text x="146.103" y="264.281" class="green" >U</text></g>
<g><title>16 (position.label in template: 16.C)</title><text x="139.743" y="259.891" class="black" >C</text></g>
<g><title>17 (position.label in template: 17.R)</title><text x="134.143" y="254.811" class="green" >A</text></g>
<g><title>18 (position.label in template: 18.N)</title><text x="129.313" y="249.331" class="green" >U</text></g>
<g><title>19 (position.label in template: 19.U)</title><text x="124.893" y="242.891" class="black" >U</text></g>
<g><title>20 (position.label in template: 20.C)</title><text x="121.363" y="236.201" class="black" >C</text></g>
<g><line x1="120.667" y1="233.971" x2="117.87" y2="226.248" class="black" /></g>
<g><title>20 (inserted)</title><text x="118.899" y="242.651" class="numbering-label sequential" >20</text></g>
<g><line x1="120.706" y1="237.921" x2="119.485" y2="241.116" class="numbering-line sequential" /></g>
<g><title>21 (position.label in template: 21.N)</title><text x="114.373" y="238.871" class="green" >U</text></g>
<g><line x1="113.706" y1="236.631" x2="111.05" y2="228.928" class="black" /></g>
<g><title>22 (position.label in template: 22.R)</title><text x="107.073" y="241.121" class="green" >C</text></g>
<g><line x1="106.438" y1="238.87" x2="103.929" y2="231.189" class="black" /></g>
<g><title>23 (inserted)</title><text x="102.361" y="245.275" class="red" >C</text></g>
<g><title>24 (inserted)</title><text x="96.4849" y="247.496" class="red" >U</text></g>
<g><title>25 (position.label in template: 23.N)</title><text x="90.2032" y="247.5" class="green" >U</text></g>
<g><line x1="89.5362" y1="245.26" x2="86.8801" y2="237.558" class="black" /></g>
<g><title>26 (position.label in template: 24.N)</title><text x="83.0532" y="249.97" class="green" >U</text></g>
<g><line x1="82.3883" y1="247.729" x2="79.7381" y2="240.018" class="black" /></g>
<g><title>27 (position.label in template: 25.N)</title><text x="75.9132" y="252.43" class="green" >C</text></g>
<g><line x1="75.2462" y1="250.19" x2="72.5901" y2="242.488" class="black" /></g>
<g><title>28 (position.label in template: 26.N)</title><text x="68.7632" y="254.89" class="green" >U</text></g>
<g><line x1="68.0962" y1="252.65" x2="65.4401" y2="244.948" class="black" /></g>
<g><title>29 (position.label in template: 27.N)</title><text x="64.4577" y="259.968" class="green" >C</text></g>
<g><title>30 (position.label in template: 28.N)</title><text x="57.8916" y="261.064" class="green" >G</text></g>
<g><title>30 (inserted)</title><text x="56.6174" y="267.85" class="numbering-label sequential" >30</text></g>
<g><line x1="57.5518" y1="262.873" x2="56.9055" y2="266.315" class="numbering-line sequential" /></g>
<g><title>31 (position.label in template: 29.N)</title><text x="52.1703" y="257.661" class="green" >A</text></g>
<g><title>32 (position.label in template: 30.R)</title><text x="50" y="251.367" class="green" >U</text></g>
<g><title>33 (position.label in template: 31.N)</title><text x="52.4072" y="245.161" class="green" >A</text></g>
<g><title>34 (inserted)</title><text x="58.2532" y="241.976" class="red" >G</text></g>
<g><title>35 (position.label in template: 32.N)</title><text x="64.7732" y="243.32" class="green" >A</text></g>
<g><title>36 (position.label in template: 33.N)</title><text x="71.9232" y="240.86" class="green" >G</text></g>
<g><title>37 (position.label in template: 34.N)</title><text x="79.0732" y="238.39" class="green" >A</text></g>
<g><title>38 (position.label in template: 35.N)</title><text x="86.2132" y="235.93" class="green" >U</text></g>
<g><title>39 (inserted)</title><text x="90.9847" y="231.733" class="red" >U</text></g>
<g><title>40 (inserted)</title><text x="96.9383" y="229.509" class="red" >G</text></g>
<g><title>41 (position.label in template: 36.Y)</title><text x="103.293" y="229.551" class="green" >G</text></g>
<g><title>42 (position.label in template: 37.N)</title><text x="110.383" y="227.301" class="green" >A</text></g>
<g><title>43 (position.label in template: 38.G)</title><text x="117.173" y="224.631" class="black" >G</text></g>
<g><title>44 (position.label in template: 39.U)</title><text x="116.019" y="216.954" class="black" >U</text></g>
<g><title>45 (position.label in template: 40.C)</title><text x="115.598" y="209.206" class="black" >C</text></g>
<g><title>46 (position.label in template: 41.A)</title><text x="116.28" y="201.474" class="black" >A</text></g>
<g><title>47 (position.label in template: 42.Y)</title><text x="117.699" y="193.846" class="green" >U</text></g>
<g><title>48 (position.label in template: 43.N)</title><text x="120.012" y="186.438" class="green" >A</text></g>
<g><title>49 (position.label in template: 44.C)</title><text x="123.056" y="179.313" class="black" >C</text></g>
<g><title>50 (position.label in template: 45.A)</title><text x="127.186" y="172.744" class="black" >A</text></g>
<g><title>50 (inserted)</title><text x="121.526" y="168.791" class="numbering-label sequential" >50</text></g>
<g><line x1="125.677" y1="171.69" x2="123.367" y2="170.077" class="numbering-line sequential" /></g>
<g><title>51 (position.label in template: 46.A)</title><text x="131.931" y="166.606" class="black" >A</text></g>
<g><title>52 (position.label in template: 47.C)</title><text x="137.318" y="161.033" class="black" >C</text></g>
<g><title>53 (position.label in template: 48.C)</title><text x="143.408" y="156.235" class="black" >C</text></g>
<g><title>54 (position.label in template: 49.C)</title><text x="150.028" y="152.198" class="black" >C</text></g>
<g><title>55 (position.label in template: 50.C)</title><text x="157.087" y="148.999" class="black" >C</text></g>
<g><title>56 (position.label in template: 51.A)</title><text x="164.484" y="146.672" class="black" >A</text></g>
<g><title>57 (position.label in template: 52.A)</title><text x="172.094" y="145.197" class="green" >G</text></g>
<g><title>58 (position.label in template: 53.A)</title><text x="179.826" y="144.641" class="black" >A</text></g>
<g><title>59 (position.label in template: 54.A)</title><text x="187.556" y="145.104" class="black" >A</text></g>
<g><title>60 (position.label in template: 55.N)</title><text x="195.203" y="146.43" class="green" >A</text></g>
<g><title>61 (position.label in template: 56.Y)</title><text x="202.625" y="148.61" class="green" >C</text></g>
<g><title>62 (position.label in template: 57.N)</title><text x="209.728" y="151.732" class="green" >C</text></g>
<g><title>63 (position.label in template: 58.U)</title><text x="216.474" y="155.549" class="green" >A</text></g>
<g><title>64 (position.label in template: 59.A)</title><text x="222.613" y="160.264" class="green" >U</text></g>
<g><title>65 (position.label in template: 60.N)</title><text x="228.143" y="165.702" class="green" >U</text></g>
<g><title>66 (position.label in template: 61.N)</title><text x="233.052" y="171.701" class="green" >C</text></g>
<g><title>67 (position.label in template: 62.N)</title><text x="237.205" y="178.246" class="green" >C</text></g>
<g><title>68 (position.label in template: 63.N)</title><text x="240.545" y="185.242" class="green" >U</text></g>
<g><title>69 (position.label in template: 64.N)</title><text x="243.031" y="192.585" class="green" >U</text></g>
<g><title>70 (position.label in template: 65.N)</title><text x="244.536" y="200.187" class="green" >A</text></g>
<g><title>71 (position.label in template: 66.R)</title><text x="245.253" y="207.913" class="green" >U</text></g>
<g><title>72 (position.label in template: 67.N)</title><text x="245.069" y="215.663" class="green" >A</text></g>
<g><title>73 (position.label in template: 68.A)</title><text x="243.86" y="223.323" class="green" >C</text></g>
<g><title>74 (position.label in template: 69.N)</title><text x="241.761" y="230.79" class="green" >C</text></g>
<g><title>75 (position.label in template: 70.Y)</title><text x="238.792" y="237.957" class="green" >U</text></g>
<g><title>76 (position.label in template: 71.N)</title><text x="234.95" y="244.695" class="green" >U</text></g>
<g><title>77 (position.label in template: 72.Y)</title><text x="230.227" y="250.851" class="green" >G</text></g>
<g><title>78 (position.label in template: 73.U)</title><text x="224.913" y="256.508" class="green" >A</text></g>
<g><title>79 (position.label in template: 74.U)</title><text x="218.703" y="261.158" class="green" >G</text></g>
<g><title>80 (position.label in template: 76.R)</title><text x="212.443" y="265.751" class="green" >U</text></g>
<g><line x1="210.595" y1="266.322" x2="203.281" y2="269.797" class="black" /></g>
<g><title>81 (position.label in template: 77.Y)</title><text x="215.753" y="272.651" class="green" >A</text></g>
<g><line x1="213.898" y1="273.207" x2="206.388" y2="276.702" class="black" /></g>
<g><title>82 (position.label in template: 78.Y)</title><text x="218.853" y="279.541" class="green" >U</text></g>
<g><line x1="216.976" y1="280.048" x2="209.15" y2="283.441" class="black" /></g>
<g><title>83 (position.label in template: 79.N)</title><text x="221.893" y="286.651" class="green" >U</text></g>
<g><line x1="220.027" y1="287.182" x2="212.6" y2="290.517" class="black" /></g>
<g><title>84 (position.label in template: 80.N)</title><text x="227.543" y="291.661" class="green" >G</text></g>
<g><title>85 (position.label in template: 81.N)</title><text x="227.543" y="299.221" class="green" >C</text></g>
<g><line x1="225.678" y1="299.754" x2="218.249" y2="303.095" class="black" /></g>
<g><title>86 (position.label in template: 82.U)</title><text x="230.493" y="305.911" class="green" >U</text></g>
<g><line x1="228.645" y1="306.482" x2="221.331" y2="309.957" class="black" /></g>
<g><title>87 (position.label in template: 83.N)</title><text x="233.743" y="313.021" class="green" >G</text></g>
<g><line x1="231.877" y1="313.552" x2="224.45" y2="316.887" class="black" /></g>
<g><title>88 (position.label in template: 84.R)</title><text x="240.663" y="315.481" class="green" >A</text></g>
<g><title>89 (position.label in template: 85.N)</title><text x="245.203" y="321.851" class="green" >A</text></g>
<g><title>90 (position.label in template: 86.Y)</title><text x="245.493" y="329.201" class="green" >U</text></g>
<g><title>91 (position.label in template: 87.N)</title><text x="241.423" y="335.811" class="green" >U</text></g>
<g><title>92 (position.label in template: 88.Y)</title><text x="234.583" y="338.701" class="green" >C</text></g>
<g><title>93 (position.label in template: 89.N)</title><text x="227.073" y="337.661" class="green" >A</text></g>
<g><title>94 (position.label in template: 90.N)</title><text x="221.573" y="332.471" class="green" >G</text></g>
<g><title>95 (position.label in template: 91.N)</title><text x="219.883" y="325.101" class="green" >U</text></g>
<g><title>96 (position.label in template: 92.N)</title><text x="222.583" y="318.031" class="green" >U</text></g>
<g><title>97 (position.label in template: 93.N)</title><text x="219.483" y="311.141" class="green" >U</text></g>
<g><title>98 (position.label in template: 94.N)</title><text x="216.383" y="304.241" class="green" >A</text></g>
<g><title>99 (position.label in template: 95.N)</title><text x="210.733" y="299.221" class="green" >G</text></g>
<g><title>100 (position.label in template: 96.N)</title><text x="210.733" y="291.661" class="green" >C</text></g>
<g><title>100 (inserted)</title><text x="204.014" y="293.247" class="numbering-label sequential" >100</text></g>
<g><line x1="208.941" y1="292.084" x2="206.775" y2="292.595" class="numbering-line sequential" /></g>
<g><title>101 (position.label in template: 97.G)</title><text x="207.273" y="284.561" class="green" >G</text></g>
<g><title>102 (position.label in template: 98.N)</title><text x="204.533" y="277.871" class="green" >U</text></g>
<g><title>103 (position.label in template: 99.N)</title><text x="201.433" y="270.981" class="green" >G</text></g>
<g><title>104 (position.label in template: 100.R)</title><text x="194.057" y="272.58" class="green" >C</text></g>
<g><title>105 (position.label in template: 101.N)</title><text x="186.673" y="274.141" class="green" >A</text></g>
<g><title>106 (position.label in template: 102.N)</title><text x="193.085" y="271.528" class="green" >U</text></g>
<g><title>107 (inserted)</title><text x="199.972" y="272.236" class="red" >G</text></g>
<g><title>108 (inserted)</title><text x="205.717" y="276.099" class="red" >C</text></g>
<g><title>109 (inserted)</title><text x="208.972" y="282.209" class="red" >U</text></g>
<g><title>110 (inserted)</title><text x="208.972" y="289.133" class="red" >C</text></g>
<g><title>111 (inserted)</title><text x="205.717" y="295.243" class="red" >U</text></g>
<g><title>112 (inserted)</title><text x="199.972" y="299.106" class="red" >U</text></g>
<g><title>113 (inserted)</title><text x="193.085" y="299.814" class="red" >G</text></g>
<g><title>114 (position.label in template: 103.N)</title><text x="186.673" y="297.201" class="green" >G</text></g>
<g><title>115 (position.label in template: 104.Y)</title><text x="186.733" y="304.551" class="green" >C</text></g>
<g><title>116 (position.label in template: 105.N)</title><text x="186.673" y="312.321" class="green" >U</text></g>
<g><title>117 (position.label in template: 106.R)</title><text x="186.523" y="319.671" class="green" >A</text></g>
<g><title>118 (position.label in template: 107.N)</title><text x="186.673" y="327.441" class="green" >U</text></g>
<g><title>119 (position.label in template: 108.R)</title><text x="191.873" y="332.581" class="green" >U</text></g>
<g><title>120 (position.label in template: 109.Y)</title><text x="199.633" y="332.581" class="green" >C</text></g>
<g><title>121 (position.label in template: 110.N)</title><text x="207.143" y="332.791" class="green" >U</text></g>
<g><title>122 (position.label in template: 111.N)</title><text x="214.703" y="332.791" class="green" >C</text></g>
<g><title>123 (position.label in template: 117.N)</title><text x="213.493" y="293.421" class="green" >A</text></g>
<g><title>124 (inserted)</title><text x="217.252" y="286.853" class="red" >U</text></g>
<g><title>125 (inserted)</title><text x="221.011" y="280.286" class="red" >A</text></g>
<g><title>126 (inserted)</title><text x="224.769" y="273.718" class="red" >G</text></g>
<g><title>127 (inserted)</title><text x="228.528" y="267.15" class="red" >U</text></g>
<g><title>128 (inserted)</title><text x="232.286" y="260.583" class="red" >G</text></g>
<g><title>129 (inserted)</title><text x="236.045" y="254.015" class="red" >A</text></g>
<g><title>130 (inserted)</title><text x="239.804" y="247.447" class="red" >U</text></g>
<g><title>131 (inserted)</title><text x="243.562" y="240.88" class="red" >U</text></g>
<g><title>132 (inserted)</title><text x="247.321" y="234.312" class="red" >G</text></g>
<g><title>133 (position.label in template: 119.Y)</title><text x="251.079" y="227.745" class="green" >U</text></g>
<g><line x1="253.125" y1="227.438" x2="261.064" y2="227.438" class="black" /></g>
<g><title>134 (position.label in template: 120.N)</title><text x="251.019" y="220.395" class="green" >C</text></g>
<g><line x1="253.065" y1="220.088" x2="261.214" y2="220.088" class="black" /></g>
<g><title>135 (position.label in template: 121.N)</title><text x="243.459" y="220.395" class="green" >A</text></g>
<g><title>136 (position.label in template: 122.N)</title><text x="243.459" y="212.835" class="green" >A</text></g>
<g><title>137 (position.label in template: 123.N)</title><text x="251.019" y="212.835" class="green" >A</text></g>
<g><line x1="253.065" y1="212.528" x2="261.214" y2="212.528" class="black" /></g>
<g><title>138 (position.label in template: 124.N)</title><text x="251.019" y="205.275" class="green" >U</text></g>
<g><line x1="253.065" y1="204.968" x2="261.214" y2="204.968" class="black" /></g>
<g><title>139 (position.label in template: 125.U)</title><text x="250.869" y="197.505" class="black" >U</text></g>
<g><line x1="252.915" y1="197.198" x2="261.274" y2="197.198" class="black" /></g>
<g><title>140 (position.label in template: 126.N)</title><text x="247.919" y="190.825" class="green" >U</text></g>
<g><title>141 (position.label in template: 127.N)</title><text x="251.019" y="183.925" class="green" >G</text></g>
<g><line x1="253.065" y1="183.618" x2="261.214" y2="183.618" class="black" /></g>
<g><title>142 (position.label in template: 128.G)</title><text x="250.659" y="176.155" class="black" >G</text></g>
<g><line x1="252.705" y1="175.848" x2="261.064" y2="175.848" class="black" /></g>
<g><title>143 (position.label in template: 129.N)</title><text x="251.019" y="168.805" class="green" >A</text></g>
<g><line x1="253.065" y1="168.498" x2="261.214" y2="168.498" class="black" /></g>
<g><title>144 (position.label in template: 130.N)</title><text x="251.019" y="161.245" class="green" >G</text></g>
<g><line x1="253.065" y1="160.938" x2="261.214" y2="160.938" class="black" /></g>
<g><title>145 (position.label in template: 131.A)</title><text x="251.079" y="153.475" class="green" >U</text></g>
<g><line x1="253.125" y1="153.168" x2="261.064" y2="153.168" class="black" /></g>
<g><title>146 (position.label in template: 132.N)</title><text x="243.739" y="152.077" class="green" >U</text></g>
<g><title>147 (position.label in template: 133.N)</title><text x="236.675" y="149.64" class="green" >A</text></g>
<g><title>148 (position.label in template: 134.N)</title><text x="230.034" y="146.214" class="green" >C</text></g>
<g><title>149 (position.label in template: 135.N)</title><text x="223.954" y="141.869" class="green" >U</text></g>
<g><title>150 (position.label in template: 136.U)</title><text x="218.561" y="136.698" class="blue" >U</text></g>
<g><title>150 (inserted)</title><text x="213.436" y="141.324" class="numbering-label sequential" >150</text></g>
<g><line x1="217.194" y1="137.931" x2="215.135" y2="139.79" class="numbering-line sequential" /></g>
<g><title>151 (position.label in template: 137.A)</title><text x="213.966" y="130.805" class="blue" >A</text></g>
<g><title>152 (position.label in template: 138.U)</title><text x="210.264" y="124.313" class="blue" >U</text></g>
<g><title>153 (position.label in template: 139.U)</title><text x="207.533" y="117.358" class="blue" >U</text></g>
<g><title>154 (inserted)</title><text x="205.829" y="110.082" class="red" >C</text></g>
<g><title>155 (inserted)</title><text x="205.187" y="102.637" class="red" >G</text></g>
<g><title>156 (inserted)</title><text x="205.621" y="95.1774" class="red" >U</text></g>
<g><title>157 (inserted)</title><text x="207.121" y="87.8571" class="red" >C</text></g>
<g><title>158 (inserted)</title><text x="209.657" y="80.8279" class="red" >A</text></g>
<g><title>159 (inserted)</title><text x="213.175" y="74.2357" class="red" >A</text></g>
<g><title>160 (inserted)</title><text x="217.604" y="68.2169" class="red" >U</text></g>
<g><title>161 (inserted)</title><text x="222.851" y="62.8962" class="red" >U</text></g>
<g><title>162 (inserted)</title><text x="228.807" y="58.384" class="red" >C</text></g>
<g><title>163 (inserted)</title><text x="235.35" y="54.7737" class="red" >A</text></g>
<g><title>164 (inserted)</title><text x="242.343" y="52.1401" class="red" >A</text></g>
<g><title>165 (inserted)</title><text x="249.641" y="50.5378" class="red" >U</text></g>
<g><title>166 (inserted)</title><text x="257.094" y="50" class="red" >A</text></g>
<g><title>167 (inserted)</title><text x="264.548" y="50.5378" class="red" >U</text></g>
<g><title>168 (inserted)</title><text x="271.846" y="52.1401" class="red" >U</text></g>
<g><title>169 (inserted)</title><text x="278.839" y="54.7737" class="red" >U</text></g>
<g><title>170 (inserted)</title><text x="285.382" y="58.384" class="red" >A</text></g>
<g><title>171 (inserted)</title><text x="291.338" y="62.8962" class="red" >U</text></g>
<g><title>172 (inserted)</title><text x="296.585" y="68.2169" class="red" >G</text></g>
<g><title>173 (inserted)</title><text x="301.013" y="74.2357" class="red" >A</text></g>
<g><title>174 (inserted)</title><text x="304.532" y="80.8279" class="red" >C</text></g>
<g><title>175 (inserted)</title><text x="307.068" y="87.8571" class="red" >G</text></g>
<g><title>176 (inserted)</title><text x="308.568" y="95.1774" class="red" >A</text></g>
<g><title>177 (inserted)</title><text x="309.001" y="102.637" class="red" >A</text></g>
<g><title>178 (inserted)</title><text x="308.36" y="110.082" class="red" >C</text></g>
<g><title>179 (inserted)</title><text x="306.655" y="117.358" class="red" >C</text></g>
<g><title>180 (inserted)</title><text x="303.924" y="124.313" class="red" >U</text></g>
<g><title>181 (inserted)</title><text x="300.223" y="130.805" class="red" >A</text></g>
<g><title>182 (inserted)</title><text x="295.628" y="136.698" class="red" >A</text></g>
<g><title>183 (inserted)</title><text x="290.235" y="141.869" class="red" >A</text></g>
<g><title>184 (inserted)</title><text x="284.155" y="146.214" class="red" >A</text></g>
<g><title>185 (inserted)</title><text x="277.514" y="149.64" class="red" >G</text></g>
<g><title>186 (inserted)</title><text x="270.45" y="152.077" class="red" >U</text></g>
<g><title>187 (position.label in template: 140.U)</title><text x="263.109" y="153.475" class="green" >A</text></g>
<g><title>188 (position.label in template: 141.N)</title><text x="263.259" y="161.245" class="green" >C</text></g>
<g><title>189 (position.label in template: 142.N)</title><text x="263.259" y="168.805" class="green" >U</text></g>
<g><title>190 (position.label in template: 143.C)</title><text x="263.109" y="176.155" class="black" >C</text></g>
<g><title>191 (position.label in template: 144.N)</title><text x="263.259" y="183.925" class="green" >U</text></g>
<g><title>192 (position.label in template: 145.N)</title><text x="266.359" y="190.825" class="green" >G</text></g>
<g><title>193 (position.label in template: 146.A)</title><text x="263.319" y="197.505" class="black" >A</text></g>
<g><title>194 (position.label in template: 147.N)</title><text x="263.259" y="205.275" class="green" >A</text></g>
<g><title>195 (position.label in template: 148.N)</title><text x="263.259" y="212.835" class="green" >U</text></g>
<g><title>196 (position.label in template: 149.N)</title><text x="263.259" y="220.395" class="green" >G</text></g>
<g><title>197 (position.label in template: 150.R)</title><text x="263.109" y="227.745" class="green" >G</text></g>
<g><title>198 (position.label in template: 166.3')</title><text x="270.096" y="224.838" class="green" >3'</text></g>
<g><line x1="139.188" y1="330.153" x2="142.663" y2="330.153" class="gray" /></g>
<g><line x1="146.755" y1="330.153" x2="150.23" y2="330.153" class="gray" /></g>
<g><line x1="154.322" y1="330.153" x2="157.798" y2="330.153" class="gray" /></g>
<g><line x1="161.888" y1="330.097" x2="165.363" y2="330.001" class="gray" /></g>
<g><line x1="169.307" y1="329.185" x2="172.534" y2="327.894" class="gray" /></g>
<g><line x1="174.449" y1="325.088" x2="174.478" y2="321.41" class="gray" /></g>
<g><line x1="174.477" y1="317.318" x2="174.45" y2="314.06" class="gray" /></g>
<g><line x1="174.339" y1="309.97" x2="174.168" y2="306.287" class="gray" /></g>
<g><line x1="174.173" y1="302.201" x2="174.333" y2="298.937" class="gray" /></g>
<g><line x1="174.425" y1="294.848" x2="174.396" y2="287.41" class="gray" /></g>
<g><line x1="174.396" y1="283.319" x2="174.425" y2="275.88" class="gray" /></g>
<g><line x1="172.419" y1="273.475" x2="168.827" y2="272.834" class="gray" /></g>
<g><line x1="164.841" y1="271.931" x2="161.495" y2="271.008" class="gray" /></g>
<g><line x1="157.629" y1="269.693" x2="154.418" y2="268.386" class="gray" /></g>
<g><line x1="150.744" y1="266.605" x2="147.883" y2="264.983" class="gray" /></g>
<g><line x1="144.42" y1="262.812" x2="141.427" y2="260.747" class="gray" /></g>
<g><line x1="138.228" y1="258.21" x2="135.658" y2="255.879" class="gray" /></g>
<g><line x1="132.791" y1="252.97" x2="130.666" y2="250.559" class="gray" /></g>
<g><line x1="128.156" y1="247.338" x2="126.051" y2="244.271" class="gray" /></g>
<g><line x1="123.939" y1="240.775" x2="122.318" y2="237.704" class="gray" /></g>
<g><line x1="119.452" y1="236.624" x2="116.284" y2="237.835" class="gray" /></g>
<g><line x1="112.418" y1="239.167" x2="109.028" y2="240.212" class="gray" /></g>
<g><line x1="105.539" y1="242.167" x2="103.895" y2="243.615" class="gray" /></g>
<g><line x1="100.447" y1="245.691" x2="98.3984" y2="246.466" class="gray" /></g>
<g><line x1="94.4392" y1="247.191" x2="92.2489" y2="247.192" class="gray" /></g>
<g><line x1="88.2696" y1="247.862" x2="84.9868" y2="248.996" class="gray" /></g>
<g><line x1="81.119" y1="250.33" x2="77.8473" y2="251.457" class="gray" /></g>
<g><line x1="73.9788" y1="252.789" x2="70.6976" y2="253.918" class="gray" /></g>
<g><line x1="67.4401" y1="256.144" x2="65.7808" y2="258.101" class="gray" /></g>
<g><line x1="62.44" y1="259.998" x2="59.9093" y2="260.42" class="gray" /></g>
<g><line x1="56.1334" y1="259.711" x2="53.9284" y2="258.4" class="gray" /></g>
<g><line x1="51.5034" y1="255.42" x2="50.6669" y2="252.994" class="gray" /></g>
<g><line x1="50.7397" y1="249.153" x2="51.6674" y2="246.761" class="gray" /></g>
<g><line x1="54.2037" y1="243.875" x2="56.4567" y2="242.648" class="gray" /></g>
<g><line x1="60.2568" y1="242.082" x2="62.7696" y2="242.601" class="gray" /></g>
<g><line x1="66.7076" y1="242.348" x2="69.9888" y2="241.219" class="gray" /></g>
<g><line x1="73.8568" y1="239.886" x2="77.1396" y2="238.752" class="gray" /></g>
<g><line x1="81.0073" y1="237.417" x2="84.279" y2="236.29" class="gray" /></g>
<g><line x1="87.7491" y1="234.272" x2="89.4488" y2="232.777" class="gray" /></g>
<g><line x1="92.9012" y1="230.71" x2="95.0218" y2="229.918" class="gray" /></g>
<g><line x1="98.9839" y1="229.216" x2="101.248" y2="229.231" class="gray" /></g>
<g><line x1="105.243" y1="228.626" x2="108.433" y2="227.613" class="gray" /></g>
<g><line x1="112.287" y1="226.246" x2="115.269" y2="225.073" class="gray" /></g>
<g><line x1="116.869" y1="222.302" x2="116.323" y2="218.671" class="gray" /></g>
<g><line x1="115.908" y1="214.605" x2="115.709" y2="210.942" class="gray" /></g>
<g><line x1="115.778" y1="206.861" x2="116.101" y2="203.205" class="gray" /></g>
<g><line x1="116.654" y1="199.156" x2="117.325" y2="195.55" class="gray" /></g>
<g><line x1="118.309" y1="191.586" x2="119.402" y2="188.084" class="gray" /></g>
<g><line x1="120.815" y1="184.25" x2="122.252" y2="180.887" class="gray" /></g>
<g><line x1="124.145" y1="177.274" x2="126.098" y2="174.169" class="gray" /></g>
<g><line x1="128.437" y1="170.819" x2="130.68" y2="167.917" class="gray" /></g>
<g><line x1="133.353" y1="164.828" x2="135.896" y2="162.197" class="gray" /></g>
<g><line x1="138.925" y1="159.461" x2="141.801" y2="157.194" class="gray" /></g>
<g><line x1="145.155" y1="154.863" x2="148.281" y2="152.956" class="gray" /></g>
<g><line x1="151.891" y1="151.047" x2="155.224" y2="149.537" class="gray" /></g>
<g><line x1="159.038" y1="148.078" x2="162.532" y2="146.979" class="gray" /></g>
<g><line x1="166.492" y1="145.976" x2="170.086" y2="145.279" class="gray" /></g>
<g><line x1="174.135" y1="144.743" x2="177.785" y2="144.481" class="gray" /></g>
<g><line x1="181.868" y1="144.457" x2="185.514" y2="144.675" class="gray" /></g>
<g><line x1="189.572" y1="145.147" x2="193.187" y2="145.773" class="gray" /></g>
<g><line x1="197.166" y1="146.699" x2="200.662" y2="147.727" class="gray" /></g>
<g><line x1="204.497" y1="149.126" x2="207.855" y2="150.602" class="gray" /></g>
<g><line x1="211.508" y1="152.432" x2="214.693" y2="154.235" class="gray" /></g>
<g><line x1="218.096" y1="156.489" x2="220.99" y2="158.711" class="gray" /></g>
<g><line x1="224.071" y1="161.391" x2="226.684" y2="163.961" class="gray" /></g>
<g><line x1="229.438" y1="166.979" x2="231.756" y2="169.811" class="gray" /></g>
<g><line x1="234.148" y1="173.122" x2="236.109" y2="176.212" class="gray" /></g>
<g><line x1="238.086" y1="179.786" x2="239.664" y2="183.089" class="gray" /></g>
<g><line x1="241.201" y1="186.873" x2="242.375" y2="190.341" class="gray" /></g>
<g><line x1="243.429" y1="194.285" x2="244.139" y2="197.874" class="gray" /></g>
<g><line x1="244.725" y1="201.917" x2="245.064" y2="205.569" class="gray" /></g>
<g><line x1="245.205" y1="209.652" x2="245.117" y2="213.311" class="gray" /></g>
<g><line x1="244.75" y1="217.377" x2="244.179" y2="220.996" class="gray" /></g>
<g><line x1="243.306" y1="224.986" x2="242.315" y2="228.513" class="gray" /></g>
<g><line x1="240.978" y1="232.373" x2="239.575" y2="235.76" class="gray" /></g>
<g><line x1="237.778" y1="239.427" x2="235.963" y2="242.611" class="gray" /></g>
<g><line x1="233.705" y1="246.011" x2="231.472" y2="248.921" class="gray" /></g>
<g><line x1="228.826" y1="252.035" x2="226.313" y2="254.71" class="gray" /></g>
<g><line x1="223.275" y1="257.427" x2="220.34" y2="259.625" class="gray" /></g>
<g><line x1="217.054" y1="262.061" x2="214.093" y2="264.234" class="gray" /></g>
<g><line x1="213.328" y1="267.289" x2="214.868" y2="270.5" class="gray" /></g>
<g><line x1="216.593" y1="274.21" x2="218.014" y2="277.369" class="gray" /></g>
<g><line x1="219.658" y1="281.115" x2="221.089" y2="284.463" class="gray" /></g>
<g><line x1="223.424" y1="287.702" x2="226.013" y2="289.997" class="gray" /></g>
<g><line x1="227.543" y1="293.4" x2="227.543" y2="296.869" class="gray" /></g>
<g><line x1="228.369" y1="300.786" x2="229.668" y2="303.733" class="gray" /></g>
<g><line x1="231.344" y1="307.465" x2="232.893" y2="310.854" class="gray" /></g>
<g><line x1="235.671" y1="313.4" x2="238.736" y2="314.489" class="gray" /></g>
<g><line x1="241.851" y1="316.84" x2="244.016" y2="319.879" class="gray" /></g>
<g><line x1="245.284" y1="323.589" x2="245.413" y2="326.85" class="gray" /></g>
<g><line x1="244.421" y1="330.636" x2="242.496" y2="333.762" class="gray" /></g>
<g><line x1="239.539" y1="336.301" x2="236.468" y2="337.598" class="gray" /></g>
<g><line x1="232.557" y1="338.114" x2="229.1" y2="337.635" class="gray" /></g>
<g><line x1="225.585" y1="335.95" x2="223.061" y2="333.568" class="gray" /></g>
<g><line x1="221.116" y1="330.171" x2="220.341" y2="326.788" class="gray" /></g>
<g><line x1="220.613" y1="322.883" x2="221.853" y2="319.636" class="gray" /></g>
<g><line x1="221.744" y1="315.859" x2="220.323" y2="312.7" class="gray" /></g>
<g><line x1="218.645" y1="308.968" x2="217.222" y2="305.801" class="gray" /></g>
<g><line x1="214.854" y1="302.576" x2="212.263" y2="300.273" class="gray" /></g>
<g><line x1="210.733" y1="296.869" x2="210.733" y2="293.4" class="gray" /></g>
<g><line x1="209.837" y1="289.516" x2="208.169" y2="286.093" class="gray" /></g>
<g><line x1="206.498" y1="282.361" x2="205.309" y2="279.458" class="gray" /></g>
<g><line x1="203.694" y1="275.699" x2="202.273" y2="272.54" class="gray" /></g>
<g><line x1="199.434" y1="271.108" x2="196.057" y2="271.84" class="gray" /></g>
<g><line x1="192.056" y1="272.696" x2="188.675" y2="273.411" class="gray" /></g>
<g><line x1="188.568" y1="273.062" x2="191.19" y2="271.993" class="gray" /></g>
<g><line x1="195.12" y1="271.431" x2="197.937" y2="271.72" class="gray" /></g>
<g><line x1="201.669" y1="273.071" x2="204.02" y2="274.651" class="gray" /></g>
<g><line x1="206.679" y1="277.598" x2="208.011" y2="280.097" class="gray" /></g>
<g><line x1="208.972" y1="283.948" x2="208.972" y2="286.78" class="gray" /></g>
<g><line x1="208.011" y1="290.631" x2="206.679" y2="293.131" class="gray" /></g>
<g><line x1="204.02" y1="296.078" x2="201.669" y2="297.658" class="gray" /></g>
<g><line x1="197.937" y1="299.008" x2="195.12" y2="299.298" class="gray" /></g>
<g><line x1="191.19" y1="298.735" x2="188.568" y2="297.666" class="gray" /></g>
<g><line x1="186.69" y1="298.94" x2="186.717" y2="302.198" class="gray" /></g>
<g><line x1="186.718" y1="306.29" x2="186.689" y2="309.968" class="gray" /></g>
<g><line x1="186.632" y1="314.059" x2="186.565" y2="317.319" class="gray" /></g>
<g><line x1="186.563" y1="321.409" x2="186.634" y2="325.089" class="gray" /></g>
<g><line x1="188.128" y1="328.572" x2="190.418" y2="330.836" class="gray" /></g>
<g><line x1="193.919" y1="332.274" x2="197.588" y2="332.274" class="gray" /></g>
<g><line x1="201.678" y1="332.331" x2="205.098" y2="332.427" class="gray" /></g>
<g><line x1="209.189" y1="332.484" x2="212.658" y2="332.484" class="gray" /></g>
<g><line x1="214.64" y1="330.439" x2="213.556" y2="295.159" class="gray" /></g>
<g><line x1="214.509" y1="291.338" x2="216.236" y2="288.322" class="gray" /></g>
<g><line x1="218.268" y1="284.771" x2="219.994" y2="281.754" class="gray" /></g>
<g><line x1="222.027" y1="278.203" x2="223.753" y2="275.187" class="gray" /></g>
<g><line x1="225.785" y1="271.636" x2="227.512" y2="268.619" class="gray" /></g>
<g><line x1="229.544" y1="265.068" x2="231.27" y2="262.051" class="gray" /></g>
<g><line x1="233.302" y1="258.5" x2="235.029" y2="255.484" class="gray" /></g>
<g><line x1="237.061" y1="251.933" x2="238.787" y2="248.916" class="gray" /></g>
<g><line x1="240.82" y1="245.365" x2="242.546" y2="242.349" class="gray" /></g>
<g><line x1="244.578" y1="238.798" x2="246.305" y2="235.781" class="gray" /></g>
<g><line x1="248.337" y1="232.23" x2="250.063" y2="229.213" class="gray" /></g>
<g><line x1="251.063" y1="225.392" x2="251.036" y2="222.133" class="gray" /></g>
<g><line x1="248.974" y1="220.088" x2="245.505" y2="220.088" class="gray" /></g>
<g><line x1="243.459" y1="218.042" x2="243.459" y2="214.574" class="gray" /></g>
<g><line x1="245.505" y1="212.528" x2="248.974" y2="212.528" class="gray" /></g>
<g><line x1="251.019" y1="210.482" x2="251.019" y2="207.014" class="gray" /></g>
<g><line x1="250.98" y1="202.922" x2="250.909" y2="199.243" class="gray" /></g>
<g><line x1="250.043" y1="195.326" x2="248.746" y2="192.389" class="gray" /></g>
<g><line x1="248.758" y1="188.652" x2="250.181" y2="185.484" class="gray" /></g>
<g><line x1="250.925" y1="181.574" x2="250.754" y2="177.891" class="gray" /></g>
<g><line x1="250.759" y1="173.805" x2="250.919" y2="170.541" class="gray" /></g>
<g><line x1="251.019" y1="166.452" x2="251.019" y2="162.984" class="gray" /></g>
<g><line x1="251.035" y1="158.892" x2="251.064" y2="155.213" class="gray" /></g>
<g><line x1="249.07" y1="152.785" x2="245.748" y2="152.153" class="gray" /></g>
<g><line x1="241.805" y1="151.103" x2="238.609" y2="150" class="gray" /></g>
<g><line x1="234.857" y1="148.395" x2="231.852" y2="146.845" class="gray" /></g>
<g><line x1="228.37" y1="144.717" x2="225.619" y2="142.752" class="gray" /></g>
<g><line x1="222.478" y1="140.147" x2="220.037" y2="137.807" class="gray" /></g>
<g><line x1="217.303" y1="134.777" x2="215.224" y2="132.111" class="gray" /></g>
<g><line x1="212.952" y1="128.721" x2="211.278" y2="125.784" class="gray" /></g>
<g><line x1="209.517" y1="122.102" x2="208.281" y2="118.955" class="gray" /></g>
<g><line x1="207.067" y1="115.059" x2="206.296" y2="111.767" class="gray" /></g>
<g><line x1="205.653" y1="107.737" x2="205.363" y2="104.369" class="gray" /></g>
<g><line x1="205.306" y1="100.288" x2="205.502" y2="96.9128" class="gray" /></g>
<g><line x1="206.032" y1="92.8665" x2="206.71" y2="89.5543" class="gray" /></g>
<g><line x1="207.815" y1="85.6259" x2="208.963" y2="82.4454" class="gray" /></g>
<g><line x1="210.62" y1="78.7163" x2="212.212" y2="75.7335" class="gray" /></g>
<g><line x1="214.388" y1="72.2811" x2="216.392" y2="69.5577" class="gray" /></g>
<g><line x1="219.04" y1="66.4534" x2="221.414" y2="64.046" class="gray" /></g>
<g><line x1="224.481" y1="61.3541" x2="227.176" y2="59.3124" class="gray" /></g>
<g><line x1="230.598" y1="57.0888" x2="233.558" y2="55.4552" class="gray" /></g>
<g><line x1="237.264" y1="53.7459" x2="240.428" y2="52.5542" class="gray" /></g>
<g><line x1="244.341" y1="51.3946" x2="247.643" y2="50.6696" class="gray" /></g>
<g><line x1="251.682" y1="50.0837" x2="255.054" y2="49.8404" class="gray" /></g>
<g><line x1="259.135" y1="49.8404" x2="262.507" y2="50.0837" class="gray" /></g>
<g><line x1="266.546" y1="50.6696" x2="269.848" y2="51.3946" class="gray" /></g>
<g><line x1="273.761" y1="52.5542" x2="276.925" y2="53.7459" class="gray" /></g>
<g><line x1="280.63" y1="55.4552" x2="283.591" y2="57.0888" class="gray" /></g>
<g><line x1="287.012" y1="59.3124" x2="289.707" y2="61.3541" class="gray" /></g>
<g><line x1="292.774" y1="64.046" x2="295.148" y2="66.4534" class="gray" /></g>
<g><line x1="297.797" y1="69.5577" x2="299.801" y2="72.2811" class="gray" /></g>
<g><line x1="301.977" y1="75.7335" x2="303.569" y2="78.7163" class="gray" /></g>
<g><line x1="305.226" y1="82.4454" x2="306.373" y2="85.6259" class="gray" /></g>
<g><line x1="307.478" y1="89.5543" x2="308.157" y2="92.8665" class="gray" /></g>
<g><line x1="308.687" y1="96.9128" x2="308.883" y2="100.288" class="gray" /></g>
<g><line x1="308.826" y1="104.369" x2="308.535" y2="107.737" class="gray" /></g>
<g><line x1="307.893" y1="111.767" x2="307.122" y2="115.059" class="gray" /></g>
<g><line x1="305.908" y1="118.955" x2="304.672" y2="122.102" class="gray" /></g>
<g><line x1="302.911" y1="125.784" x2="301.236" y2="128.721" class="gray" /></g>
<g><line x1="298.965" y1="132.111" x2="296.886" y2="134.777" class="gray" /></g>
<g><line x1="294.152" y1="137.807" x2="291.711" y2="140.147" class="gray" /></g>
<g><line x1="288.57" y1="142.752" x2="285.819" y2="144.717" class="gray" /></g>
<g><line x1="282.337" y1="146.845" x2="279.332" y2="148.395" class="gray" /></g>
<g><line x1="275.58" y1="150" x2="272.384" y2="151.103" class="gray" /></g>
<g><line x1="268.44" y1="152.153" x2="265.119" y2="152.785" class="gray" /></g>
<g><line x1="263.149" y1="155.213" x2="263.22" y2="158.892" class="gray" /></g>
<g><line x1="263.259" y1="162.984" x2="263.259" y2="166.452" class="gray" /></g>
<g><line x1="263.218" y1="170.543" x2="263.151" y2="173.803" class="gray" /></g>
<g><line x1="263.149" y1="177.893" x2="263.22" y2="181.572" class="gray" /></g>
<g><line x1="264.098" y1="185.484" x2="265.521" y2="188.652" class="gray" /></g>
<g><line x1="265.512" y1="192.38" x2="264.167" y2="195.336" class="gray" /></g>
<g><line x1="263.304" y1="199.243" x2="263.275" y2="202.922" class="gray" /></g>
<g><line x1="263.259" y1="207.014" x2="263.259" y2="210.482" class="gray" /></g>
<g><line x1="263.259" y1="214.574" x2="263.259" y2="218.042" class="gray" /></g>
<g><line x1="263.218" y1="222.133" x2="263.151" y2="225.393" class="gray" /></g>
<g><line x1="264.998" y1="226.652" x2="268.207" y2="225.317" class="gray" /></g>
</svg>
