<svg
	xmlns="http://www.w3.org/2000/svg"
	width="241.11"
	height="367.961"
	style="font-size: 3.053824px; font-weight: bold; font-family: Helvetica; " >
<g><style type="text/css" >
<!-- create color definitions -->
<![CDATA[
text.red {fill: rgb(255, 0, 255); }
text.green {fill: rgb(0, 255, 0); }
text.blue {fill: rgb(0, 0, 255); }
text.black {fill: rgb(0, 0, 0); }
text.gray {fill: rgb(204, 204, 204); }
text.brown {fill: rgb(211.65, 104.55, 30.6); }
text {fill: rgb(0, 0, 0); text-anchor: middle; alignment-baseline: middle; }
circle.red {stroke: rgb(255, 0, 255); fill: none; }
circle.green {stroke: rgb(0, 255, 0); fill: none; }
circle.blue {stroke: rgb(0, 0, 255); fill: none; }
circle.black {stroke: rgb(0, 0, 0); fill: none; }
circle.gray {stroke: rgb(204, 204, 204); fill: none; }
circle.brown {stroke: rgb(211.65, 104.55, 30.6); fill: none; }
circle {stroke: rgb(0, 0, 0); }
line.red {stroke: rgb(255, 0, 255); stroke-width: 0.381728; }
line.green {stroke: rgb(0, 255, 0); stroke-width: 0.381728; }
line.blue {stroke: rgb(0, 0, 255); stroke-width: 0.381728; }
line.black {stroke: rgb(0, 0, 0); stroke-width: 0.381728; }
line.gray {stroke: rgb(204, 204, 204); stroke-width: 0.381728; }
line.brown {stroke: rgb(211.65, 104.55, 30.6); stroke-width: 0.381728; }
line {stroke: rgb(0, 0, 0); }
text.numbering-label {fill: rgb(204, 204, 204);}
line.numbering-line {stroke: rgb(204, 204, 204); stroke-width: 0.190864;}
line.predicted {stroke: rgb(0, 0, 0); stroke-dasharray: 2}
text.background {fill: rgb(255, 255, 255);
.template {visibility:hidden}
]]>
</style></g>
<g><title>0 (position.label in template: 0.5')</title><text x="114.02" y="325.521" class="green" >5'</text></g>
<g><title>1 (inserted)</title><text x="114.02" y="317.961" class="red" >C</text></g>
<g><title>2 (position.label in template: 9.G)</title><text x="114.02" y="310.4" class="black" >G</text></g>
<g><line x1="116.056" y1="310.095" x2="124.434" y2="310.095" class="black" /></g>
<g><title>3 (position.label in template: 10.G)</title><text x="114.02" y="302.84" class="black" >G</text></g>
<g><line x1="116.056" y1="302.535" x2="124.434" y2="302.535" class="black" /></g>
<g><title>4 (position.label in template: 11.U)</title><text x="114.23" y="295.28" class="green" >C</text></g>
<g><line x1="116.266" y1="294.975" x2="124.434" y2="294.975" class="black" /></g>
<g><title>5 (position.label in template: 12.A)</title><text x="114.44" y="287.72" class="black" >A</text></g>
<g><line x1="116.476" y1="287.415" x2="124.434" y2="287.415" class="black" /></g>
<g><title>6 (position.label in template: 13.A)</title><text x="114.44" y="280.16" class="green" >G</text></g>
<g><line x1="116.476" y1="279.855" x2="124.434" y2="279.855" class="black" /></g>
<g><title>7 (position.label in template: 14.G)</title><text x="114.02" y="272.6" class="black" >G</text></g>
<g><line x1="116.056" y1="272.295" x2="124.434" y2="272.295" class="black" /></g>
<g><title>8 (position.label in template: 15.U)</title><text x="114.23" y="265.04" class="black" >U</text></g>
<g><line x1="116.266" y1="264.735" x2="124.224" y2="264.735" class="black" /></g>
<g><title>9 (position.label in template: 16.C)</title><text x="111.13" y="258.15" class="black" >C</text></g>
<g><title>10 (position.label in template: 17.Y)</title><text x="114.44" y="251.25" class="green" >U</text></g>
<g><line x1="116.476" y1="250.945" x2="124.434" y2="250.945" class="black" /></g>
<g><title>10 (inserted)</title><text x="107.722" y="249.81" class="numbering-label sequential" >10</text></g>
<g><line x1="112.648" y1="250.866" x2="109.554" y2="250.202" class="numbering-line sequential" /></g>
<g><title>11 (position.label in template: 18.U)</title><text x="114.23" y="243.69" class="black" >U</text></g>
<g><line x1="116.266" y1="243.385" x2="124.644" y2="243.385" class="black" /></g>
<g><title>12 (position.label in template: 19.A)</title><text x="114.44" y="236.13" class="black" >A</text></g>
<g><line x1="116.476" y1="235.825" x2="124.434" y2="235.825" class="black" /></g>
<g><title>13 (position.label in template: 20.Y)</title><text x="114.44" y="228.57" class="green" >C</text></g>
<g><line x1="116.476" y1="228.265" x2="124.434" y2="228.265" class="black" /></g>
<g><title>14 (position.label in template: 21.A)</title><text x="114.44" y="221.01" class="black" >A</text></g>
<g><line x1="116.476" y1="220.705" x2="124.434" y2="220.705" class="black" /></g>
<g><title>15 (position.label in template: 22.C)</title><text x="114.23" y="213.45" class="black" >C</text></g>
<g><line x1="116.266" y1="213.145" x2="124.224" y2="213.145" class="black" /></g>
<g><title>16 (position.label in template: 23.G)</title><text x="114.02" y="205.89" class="black" >G</text></g>
<g><line x1="116.056" y1="205.585" x2="124.434" y2="205.585" class="black" /></g>
<g><title>17 (position.label in template: 24.R)</title><text x="114.23" y="198.33" class="green" >A</text></g>
<g><line x1="116.266" y1="198.025" x2="124.644" y2="198.025" class="black" /></g>
<g><title>18 (position.label in template: 25.C)</title><text x="114.23" y="190.77" class="black" >C</text></g>
<g><line x1="116.266" y1="190.465" x2="124.224" y2="190.465" class="black" /></g>
<g><title>19 (position.label in template: 26.C)</title><text x="106.74" y="189.71" class="black" >C</text></g>
<g><title>20 (position.label in template: 27.A)</title><text x="99.62" y="187.86" class="black" >A</text></g>
<g><title>20 (inserted)</title><text x="97.6069" y="194.43" class="numbering-label sequential" >20</text></g>
<g><line x1="99.0832" y1="189.612" x2="98.0748" y2="192.903" class="numbering-line sequential" /></g>
<g><title>21 (position.label in template: 28.G)</title><text x="92.12" y="185.23" class="black" >G</text></g>
<g><title>22 (position.label in template: 29.C)</title><text x="85.56" y="181.86" class="black" >C</text></g>
<g><title>23 (position.label in template: 30.U)</title><text x="79.19" y="177.79" class="black" >U</text></g>
<g><title>24 (position.label in template: 31.C)</title><text x="73.29" y="173.06" class="black" >C</text></g>
<g><title>25 (position.label in template: 32.C)</title><text x="67.94" y="167.72" class="black" >C</text></g>
<g><title>26 (position.label in template: 33.Y)</title><text x="63.39" y="161.84" class="green" >U</text></g>
<g><title>27 (position.label in template: 34.N)</title><text x="59.24" y="155.7" class="green" >G</text></g>
<g><title>28 (position.label in template: 35.Y)</title><text x="55.9" y="148.74" class="green" >C</text></g>
<g><title>29 (position.label in template: 36.N)</title><text x="53.19" y="141.86" class="green" >U</text></g>
<g><title>30 (position.label in template: 37.G)</title><text x="50.95" y="134.33" class="black" >G</text></g>
<g><title>30 (inserted)</title><text x="44.2045" y="135.638" class="numbering-label sequential" >30</text></g>
<g><line x1="49.1512" y1="134.679" x2="46.0368" y2="135.283" class="numbering-line sequential" /></g>
<g><title>31 (position.label in template: 38.A)</title><text x="50.28" y="126.85" class="black" >A</text></g>
<g><title>32 (position.label in template: 39.A)</title><text x="50" y="119.3" class="black" >A</text></g>
<g><title>33 (position.label in template: 40.U)</title><text x="50.32" y="111.76" class="green" >C</text></g>
<g><title>34 (position.label in template: 41.C)</title><text x="51.66" y="104.31" class="black" >C</text></g>
<g><title>35 (position.label in template: 42.C)</title><text x="53.78" y="97.06" class="black" >C</text></g>
<g><title>36 (position.label in template: 43.C)</title><text x="56.67" y="90.07" class="black" >C</text></g>
<g><title>37 (position.label in template: 44.C)</title><text x="60.28" y="83.43" class="black" >C</text></g>
<g><title>38 (position.label in template: 45.C)</title><text x="64.59" y="77.22" class="black" >C</text></g>
<g><title>39 (position.label in template: 46.A)</title><text x="69.74" y="71.5" class="black" >A</text></g>
<g><title>40 (position.label in template: 47.G)</title><text x="74.86" y="66.35" class="black" >G</text></g>
<g><title>41 (position.label in template: 48.G)</title><text x="80.91" y="61.81" class="black" >G</text></g>
<g><title>42 (position.label in template: 49.G)</title><text x="87.41" y="57.95" class="black" >G</text></g>
<g><title>43 (position.label in template: 50.Y)</title><text x="94.7" y="54.81" class="green" >C</text></g>
<g><title>44 (position.label in template: 51.N)</title><text x="101.82" y="52.63" class="green" >C</text></g>
<g><title>45 (position.label in template: 52.N)</title><text x="109.2" y="51.02" class="green" >G</text></g>
<g><title>46 (position.label in template: 53.G)</title><text x="116.36" y="50" class="black" >G</text></g>
<g><title>47 (position.label in template: 54.A)</title><text x="124.34" y="50" class="black" >A</text></g>
<g><title>48 (position.label in template: 55.N)</title><text x="131.8" y="51.02" class="green" >A</text></g>
<g><title>49 (position.label in template: 56.N)</title><text x="139.18" y="52.63" class="green" >G</text></g>
<g><title>50 (position.label in template: 57.G)</title><text x="146" y="54.81" class="black" >G</text></g>
<g><title>50 (inserted)</title><text x="148.456" y="48.3928" class="numbering-label sequential" >50</text></g>
<g><line x1="146.655" y1="53.0988" x2="147.872" y2="49.9198" class="numbering-line sequential" /></g>
<g><title>51 (position.label in template: 58.C)</title><text x="153.08" y="57.95" class="black" >C</text></g>
<g><title>52 (position.label in template: 59.A)</title><text x="159.79" y="61.81" class="black" >A</text></g>
<g><title>53 (position.label in template: 60.G)</title><text x="165.42" y="66.35" class="black" >G</text></g>
<g><title>54 (position.label in template: 61.C)</title><text x="171.16" y="71.5" class="black" >C</text></g>
<g><title>55 (position.label in template: 62.A)</title><text x="176.31" y="77.22" class="black" >A</text></g>
<g><title>56 (position.label in template: 63.A)</title><text x="180.62" y="83.43" class="black" >A</text></g>
<g><title>57 (position.label in template: 64.G)</title><text x="183.82" y="90.07" class="black" >G</text></g>
<g><title>58 (position.label in template: 65.G)</title><text x="186.71" y="97.06" class="black" >G</text></g>
<g><title>59 (position.label in template: 66.G)</title><text x="188.83" y="104.31" class="black" >G</text></g>
<g><title>60 (position.label in template: 67.U)</title><text x="190.38" y="111.76" class="black" >U</text></g>
<g><title>61 (position.label in template: 68.A)</title><text x="191.11" y="119.3" class="black" >A</text></g>
<g><title>62 (position.label in template: 69.N)</title><text x="190.78" y="127.06" class="green" >G</text></g>
<g><title>63 (position.label in template: 70.N)</title><text x="189.69" y="134.54" class="green" >G</text></g>
<g><title>64 (position.label in template: 71.N)</title><text x="187.81" y="141.86" class="green" >C</text></g>
<g><title>65 (position.label in template: 72.G)</title><text x="184.8" y="148.74" class="black" >G</text></g>
<g><title>66 (position.label in template: 73.G)</title><text x="181.4" y="155.49" class="black" >G</text></g>
<g><title>67 (position.label in template: 74.U)</title><text x="177.52" y="161.84" class="black" >U</text></g>
<g><title>68 (position.label in template: 75.Y)</title><text x="172.97" y="167.72" class="green" >C</text></g>
<g><title>69 (position.label in template: 76.G)</title><text x="167.2" y="173.06" class="black" >G</text></g>
<g><title>70 (position.label in template: 77.U)</title><text x="161.51" y="177.79" class="green" >C</text></g>
<g><title>71 (position.label in template: 78.A)</title><text x="155.35" y="181.86" class="black" >A</text></g>
<g><title>72 (position.label in template: 79.G)</title><text x="148.17" y="185.23" class="black" >G</text></g>
<g><title>73 (position.label in template: 80.C)</title><text x="141.29" y="187.86" class="black" >C</text></g>
<g><title>74 (position.label in template: 81.G)</title><text x="133.75" y="189.71" class="black" >G</text></g>
<g><title>75 (position.label in template: 82.G)</title><text x="126.26" y="190.77" class="black" >G</text></g>
<g><title>76 (position.label in template: 83.Y)</title><text x="126.68" y="198.33" class="green" >U</text></g>
<g><title>77 (position.label in template: 84.G)</title><text x="132.81" y="202.11" class="black" >G</text></g>
<g><title>78 (position.label in template: 85.C)</title><text x="126.47" y="205.89" class="black" >C</text></g>
<g><title>79 (position.label in template: 86.G)</title><text x="126.26" y="213.45" class="black" >G</text></g>
<g><title>80 (position.label in template: 87.A)</title><text x="133.22" y="217.23" class="black" >A</text></g>
<g><title>81 (position.label in template: 88.U)</title><text x="126.47" y="221.01" class="black" >U</text></g>
<g><title>82 (position.label in template: 89.R)</title><text x="126.47" y="228.57" class="green" >G</text></g>
<g><title>83 (position.label in template: 90.U)</title><text x="126.47" y="236.13" class="black" >U</text></g>
<g><title>84 (position.label in template: 91.A)</title><text x="126.68" y="243.69" class="black" >A</text></g>
<g><title>85 (position.label in template: 92.R)</title><text x="126.47" y="251.25" class="green" >A</text></g>
<g><title>86 (position.label in template: 93.N)</title><text x="134.17" y="251.76" class="green" >U</text></g>
<g><title>87 (position.label in template: 94.Y)</title><text x="137.92" y="258.15" class="green" >C</text></g>
<g><title>88 (position.label in template: 95.N)</title><text x="134.17" y="264.95" class="green" >A</text></g>
<g><title>89 (position.label in template: 96.G)</title><text x="126.26" y="265.04" class="black" >G</text></g>
<g><title>90 (position.label in template: 97.C)</title><text x="126.47" y="272.6" class="black" >C</text></g>
<g><title>91 (position.label in template: 98.U)</title><text x="126.47" y="280.16" class="green" >C</text></g>
<g><title>92 (position.label in template: 99.U)</title><text x="126.47" y="287.72" class="black" >U</text></g>
<g><title>93 (position.label in template: 100.R)</title><text x="126.47" y="295.28" class="green" >G</text></g>
<g><title>94 (position.label in template: 101.C)</title><text x="126.47" y="302.84" class="black" >C</text></g>
<g><title>95 (position.label in template: 102.C)</title><text x="126.47" y="310.4" class="black" >C</text></g>
<g><title>96 (position.label in template: 104.N)</title><text x="129.393" y="317.373" class="green" >U</text></g>
<g><title>97 (position.label in template: 105.N)</title><text x="136.954" y="317.373" class="green" >U</text></g>
<g><title>98 (position.label in template: 106.Y)</title><text x="144.511" y="317.164" class="green" >U</text></g>
<g><title>99 (position.label in template: 107.Y)</title><text x="152.072" y="317.164" class="green" >U</text></g>
<g><title>100 (position.label in template: 108.3')</title><text x="159.632" y="317.164" class="green" >3'</text></g>
<g><line x1="114.02" y1="323.18" x2="114.02" y2="319.691" class="gray" /></g>
<g><line x1="114.02" y1="315.619" x2="114.02" y2="312.13" class="gray" /></g>
<g><line x1="114.02" y1="308.059" x2="114.02" y2="304.57" class="gray" /></g>
<g><line x1="114.077" y1="300.5" x2="114.173" y2="297.01" class="gray" /></g>
<g><line x1="114.287" y1="292.94" x2="114.383" y2="289.45" class="gray" /></g>
<g><line x1="114.44" y1="285.379" x2="114.44" y2="281.89" class="gray" /></g>
<g><line x1="114.327" y1="277.822" x2="114.133" y2="274.327" class="gray" /></g>
<g><line x1="114.077" y1="270.26" x2="114.173" y2="266.77" class="gray" /></g>
<g><line x1="113.395" y1="262.878" x2="111.965" y2="259.701" class="gray" /></g>
<g><line x1="112.011" y1="256.009" x2="113.559" y2="252.78" class="gray" /></g>
<g><line x1="114.383" y1="248.91" x2="114.287" y2="245.42" class="gray" /></g>
<g><line x1="114.287" y1="241.35" x2="114.383" y2="237.86" class="gray" /></g>
<g><line x1="114.44" y1="233.789" x2="114.44" y2="230.3" class="gray" /></g>
<g><line x1="114.44" y1="226.229" x2="114.44" y2="222.74" class="gray" /></g>
<g><line x1="114.383" y1="218.67" x2="114.287" y2="215.18" class="gray" /></g>
<g><line x1="114.173" y1="211.11" x2="114.077" y2="207.62" class="gray" /></g>
<g><line x1="114.077" y1="203.55" x2="114.173" y2="200.06" class="gray" /></g>
<g><line x1="114.23" y1="195.989" x2="114.23" y2="192.5" class="gray" /></g>
<g><line x1="112.214" y1="190.179" x2="108.756" y2="189.69" class="gray" /></g>
<g><line x1="104.77" y1="188.893" x2="101.59" y2="188.067" class="gray" /></g>
<g><line x1="97.6988" y1="186.881" x2="94.0412" y2="185.598" class="gray" /></g>
<g><line x1="90.3091" y1="183.994" x2="87.3709" y2="182.485" class="gray" /></g>
<g><line x1="83.8444" y1="180.458" x2="80.9056" y2="178.581" class="gray" /></g>
<g><line x1="77.6016" y1="176.211" x2="74.8784" y2="174.028" class="gray" /></g>
<g><line x1="71.8491" y1="171.316" x2="69.3809" y2="168.853" class="gray" /></g>
<g><line x1="66.6941" y1="165.804" x2="64.6359" y2="163.145" class="gray" /></g>
<g><line x1="62.2499" y1="159.848" x2="60.3801" y2="157.081" class="gray" /></g>
<g><line x1="58.3592" y1="153.559" x2="56.7808" y2="150.27" class="gray" /></g>
<g><line x1="55.1539" y1="146.54" x2="53.9361" y2="143.449" class="gray" /></g>
<g><line x1="52.6095" y1="139.603" x2="51.5305" y2="135.976" class="gray" /></g>
<g><line x1="50.7684" y1="131.997" x2="50.4616" y2="128.572" class="gray" /></g>
<g><line x1="50.2045" y1="124.51" x2="50.0755" y2="121.029" class="gray" /></g>
<g><line x1="50.0863" y1="116.961" x2="50.2337" y2="113.489" class="gray" /></g>
<g><line x1="50.6804" y1="109.451" x2="51.2996" y2="106.008" class="gray" /></g>
<g><line x1="52.2314" y1="102.051" x2="53.2086" y2="98.7087" class="gray" /></g>
<g><line x1="54.5579" y1="94.8732" x2="55.8921" y2="91.646" class="gray" /></g>
<g><line x1="57.6424" y1="87.976" x2="59.3076" y2="84.9132" class="gray" /></g>
<g><line x1="61.4408" y1="81.4521" x2="63.4292" y2="78.5871" class="gray" /></g>
<g><line x1="65.9522" y1="75.4016" x2="68.3778" y2="72.7076" class="gray" /></g>
<g><line x1="71.1754" y1="69.7508" x2="73.4246" y2="67.4884" class="gray" /></g>
<g><line x1="76.4884" y1="64.8227" x2="79.2816" y2="62.7266" class="gray" /></g>
<g><line x1="82.6605" y1="60.4651" x2="85.6595" y2="58.6841" class="gray" /></g>
<g><line x1="89.2798" y1="56.8392" x2="92.8302" y2="55.31" class="gray" /></g>
<g><line x1="96.6467" y1="53.9086" x2="99.8733" y2="52.9207" class="gray" /></g>
<g><line x1="103.809" y1="51.8907" x2="107.211" y2="51.1486" class="gray" /></g>
<g><line x1="111.216" y1="50.4275" x2="114.344" y2="49.9817" class="gray" /></g>
<g><line x1="118.396" y1="49.6946" x2="122.304" y2="49.6946" class="gray" /></g>
<g><line x1="126.357" y1="49.9704" x2="129.783" y2="50.4388" class="gray" /></g>
<g><line x1="133.789" y1="51.1486" x2="137.191" y2="51.8907" class="gray" /></g>
<g><line x1="141.119" y1="52.9445" x2="144.061" y2="53.8847" class="gray" /></g>
<g><line x1="147.861" y1="55.33" x2="151.219" y2="56.8192" class="gray" /></g>
<g><line x1="154.845" y1="58.6598" x2="158.025" y2="60.4894" class="gray" /></g>
<g><line x1="161.375" y1="62.7826" x2="163.835" y2="64.7666" class="gray" /></g>
<g><line x1="166.935" y1="67.4042" x2="169.645" y2="69.835" class="gray" /></g>
<g><line x1="172.522" y1="72.7076" x2="174.948" y2="75.4016" class="gray" /></g>
<g><line x1="177.471" y1="78.5871" x2="179.459" y2="81.4521" class="gray" /></g>
<g><line x1="181.504" y1="84.9586" x2="182.936" y2="87.9306" class="gray" /></g>
<g><line x1="184.598" y1="91.646" x2="185.932" y2="94.8732" class="gray" /></g>
<g><line x1="187.281" y1="98.7087" x2="188.259" y2="102.051" class="gray" /></g>
<g><line x1="189.245" y1="105.998" x2="189.965" y2="109.461" class="gray" /></g>
<g><line x1="190.576" y1="113.481" x2="190.914" y2="116.968" class="gray" /></g>
<g><line x1="191.024" y1="121.029" x2="190.866" y2="124.721" class="gray" /></g>
<g><line x1="190.486" y1="128.769" x2="189.984" y2="132.22" class="gray" /></g>
<g><line x1="189.184" y1="136.207" x2="188.316" y2="139.583" class="gray" /></g>
<g><line x1="186.994" y1="143.42" x2="185.616" y2="146.569" class="gray" /></g>
<g><line x1="183.884" y1="150.253" x2="182.316" y2="153.366" class="gray" /></g>
<g><line x1="180.338" y1="156.922" x2="178.582" y2="159.797" class="gray" /></g>
<g><line x1="176.274" y1="163.145" x2="174.216" y2="165.804" class="gray" /></g>
<g><line x1="171.476" y1="168.797" x2="168.694" y2="171.372" class="gray" /></g>
<g><line x1="165.634" y1="174.056" x2="163.076" y2="176.183" class="gray" /></g>
<g><line x1="159.811" y1="178.607" x2="157.049" y2="180.432" class="gray" /></g>
<g><line x1="153.507" y1="182.42" x2="150.013" y2="184.06" class="gray" /></g>
<g><line x1="146.268" y1="185.652" x2="143.192" y2="186.828" class="gray" /></g>
<g><line x1="139.313" y1="188.04" x2="135.727" y2="188.919" class="gray" /></g>
<g><line x1="131.734" y1="189.69" x2="128.276" y2="190.179" class="gray" /></g>
<g><line x1="126.373" y1="192.497" x2="126.567" y2="195.992" class="gray" /></g>
<g><line x1="128.413" y1="199.093" x2="131.077" y2="200.736" class="gray" /></g>
<g><line x1="131.061" y1="202.847" x2="128.219" y2="204.542" class="gray" /></g>
<g><line x1="126.413" y1="207.62" x2="126.317" y2="211.11" class="gray" /></g>
<g><line x1="128.049" y1="214.116" x2="131.431" y2="215.953" class="gray" /></g>
<g><line x1="131.444" y1="217.919" x2="128.246" y2="219.71" class="gray" /></g>
<g><line x1="126.47" y1="222.74" x2="126.47" y2="226.229" class="gray" /></g>
<g><line x1="126.47" y1="230.3" x2="126.47" y2="233.789" class="gray" /></g>
<g><line x1="126.527" y1="237.86" x2="126.623" y2="241.35" class="gray" /></g>
<g><line x1="126.623" y1="245.42" x2="126.527" y2="248.91" class="gray" /></g>
<g><line x1="128.501" y1="251.079" x2="132.139" y2="251.32" class="gray" /></g>
<g><line x1="135.2" y1="253.21" x2="136.89" y2="256.089" class="gray" /></g>
<g><line x1="136.937" y1="259.627" x2="135.153" y2="262.862" class="gray" /></g>
<g><line x1="132.134" y1="264.668" x2="128.296" y2="264.711" class="gray" /></g>
<g><line x1="126.317" y1="266.77" x2="126.413" y2="270.26" class="gray" /></g>
<g><line x1="126.47" y1="274.331" x2="126.47" y2="277.819" class="gray" /></g>
<g><line x1="126.47" y1="281.89" x2="126.47" y2="285.379" class="gray" /></g>
<g><line x1="126.47" y1="289.45" x2="126.47" y2="292.939" class="gray" /></g>
<g><line x1="126.47" y1="297.01" x2="126.47" y2="300.499" class="gray" /></g>
<g><line x1="126.47" y1="304.57" x2="126.47" y2="308.059" class="gray" /></g>
<g><line x1="127.257" y1="311.972" x2="128.606" y2="315.19" class="gray" /></g>
<g><line x1="131.429" y1="317.067" x2="134.918" y2="317.067" class="gray" /></g>
<g><line x1="138.989" y1="317.011" x2="142.476" y2="316.915" class="gray" /></g>
<g><line x1="146.547" y1="316.859" x2="150.036" y2="316.859" class="gray" /></g>
<g><line x1="154.108" y1="316.859" x2="157.596" y2="316.859" class="gray" /></g>
</svg>
