<svg
	xmlns="http://www.w3.org/2000/svg"
	width="302.161"
	height="256.826"
	style="font-size: 3.060353px; font-weight: bold; font-family: Helvetica; " >
<g><style type="text/css" >
<!-- create color definitions -->
<![CDATA[
text.red {fill: rgb(255, 0, 255); }
text.green {fill: rgb(0, 255, 0); }
text.blue {fill: rgb(0, 0, 255); }
text.black {fill: rgb(0, 0, 0); }
text.gray {fill: rgb(204, 204, 204); }
text.brown {fill: rgb(211.65, 104.55, 30.6); }
text {fill: rgb(0, 0, 0); text-anchor: middle; alignment-baseline: middle; }
circle.red {stroke: rgb(255, 0, 255); fill: none; }
circle.green {stroke: rgb(0, 255, 0); fill: none; }
circle.blue {stroke: rgb(0, 0, 255); fill: none; }
circle.black {stroke: rgb(0, 0, 0); fill: none; }
circle.gray {stroke: rgb(204, 204, 204); fill: none; }
circle.brown {stroke: rgb(211.65, 104.55, 30.6); fill: none; }
circle {stroke: rgb(0, 0, 0); }
line.red {stroke: rgb(255, 0, 255); stroke-width: 0.382544; }
line.green {stroke: rgb(0, 255, 0); stroke-width: 0.382544; }
line.blue {stroke: rgb(0, 0, 255); stroke-width: 0.382544; }
line.black {stroke: rgb(0, 0, 0); stroke-width: 0.382544; }
line.gray {stroke: rgb(204, 204, 204); stroke-width: 0.382544; }
line.brown {stroke: rgb(211.65, 104.55, 30.6); stroke-width: 0.382544; }
line {stroke: rgb(0, 0, 0); }
text.numbering-label {fill: rgb(204, 204, 204);}
line.numbering-line {stroke: rgb(204, 204, 204); stroke-width: 0.191272;}
line.predicted {stroke: rgb(0, 0, 0); stroke-dasharray: 2}
text.background {fill: rgb(255, 255, 255);
.template {visibility:hidden}
]]>
</style></g>
<g><title>0 (position.label in template: 0.5')</title><text x="53.8392" y="121.7" class="green" >5'</text></g>
<g><title>1 (position.label in template: 14.G)</title><text x="54.05" y="114.11" class="green" >G</text></g>
<g><line x1="56.0902" y1="113.804" x2="64.6698" y2="113.804" class="black" /></g>
<g><title>2 (position.label in template: 15.U)</title><text x="54.26" y="106.55" class="green" >U</text></g>
<g><line x1="56.3002" y1="106.244" x2="64.4598" y2="106.244" class="black" /></g>
<g><title>3 (position.label in template: 16.C)</title><text x="54.26" y="98.99" class="black" >C</text></g>
<g><line x1="56.3002" y1="98.684" x2="64.2498" y2="98.684" class="black" /></g>
<g><title>4 (position.label in template: 17.G)</title><text x="54.05" y="91.43" class="black" >G</text></g>
<g><line x1="56.0902" y1="91.124" x2="64.4598" y2="91.124" class="black" /></g>
<g><title>5 (position.label in template: 18.C)</title><text x="54.26" y="83.87" class="black" >C</text></g>
<g><line x1="56.3002" y1="83.564" x2="64.2498" y2="83.564" class="black" /></g>
<g><title>6 (position.label in template: 19.Y)</title><text x="54.47" y="76.31" class="green" >U</text></g>
<g><line x1="56.5102" y1="76.004" x2="64.4598" y2="76.004" class="black" /></g>
<g><title>7 (position.label in template: 20.G)</title><text x="54.05" y="68.75" class="black" >G</text></g>
<g><line x1="56.0902" y1="68.444" x2="64.4598" y2="68.444" class="black" /></g>
<g><title>8 (position.label in template: 21.C)</title><text x="50" y="62.51" class="black" >C</text></g>
<g><title>9 (position.label in template: 22.N)</title><text x="51.08" y="55.22" class="green" >A</text></g>
<g><title>10 (position.label in template: 23.A)</title><text x="56.81" y="50" class="black" >A</text></g>
<g><title>10 (inserted)</title><text x="54.2926" y="43.5909" class="numbering-label sequential" >10</text></g>
<g><line x1="56.1387" y1="48.2909" x2="54.8937" y2="45.121" class="numbering-line sequential" /></g>
<g><title>11 (position.label in template: 24.A)</title><text x="64.37" y="50" class="black" >A</text></g>
<g><title>12 (position.label in template: 25.N)</title><text x="69.98" y="55.22" class="green" >A</text></g>
<g><title>13 (position.label in template: 26.U)</title><text x="70.76" y="62.51" class="black" >U</text></g>
<g><title>14 (position.label in template: 27.C)</title><text x="66.5" y="68.75" class="black" >C</text></g>
<g><title>15 (position.label in template: 28.R)</title><text x="66.5" y="76.31" class="green" >A</text></g>
<g><title>16 (position.label in template: 29.G)</title><text x="66.29" y="83.87" class="black" >G</text></g>
<g><title>17 (position.label in template: 30.C)</title><text x="66.5" y="91.43" class="black" >C</text></g>
<g><title>18 (position.label in template: 31.G)</title><text x="66.29" y="98.99" class="black" >G</text></g>
<g><title>19 (position.label in template: 32.R)</title><text x="66.5" y="106.55" class="green" >A</text></g>
<g><title>20 (position.label in template: 33.Y)</title><text x="66.71" y="114.11" class="green" >C</text></g>
<g><title>20 (inserted)</title><text x="71.8126" y="109.486" class="numbering-label sequential" >20</text></g>
<g><line x1="68.0707" y1="112.877" x2="70.1239" y2="111.017" class="numbering-line sequential" /></g>
<g><title>21 (inserted)</title><text x="76.149" y="117.199" class="red" >C</text></g>
<g><title>22 (inserted)</title><text x="83.365" y="119.56" class="red" >G</text></g>
<g><title>23 (inserted)</title><text x="90.581" y="121.921" class="red" >G</text></g>
<g><title>24 (position.label in template: 37.N)</title><text x="100.02" y="125.01" class="green" >G</text></g>
<g><line x1="100.03" y1="126.744" x2="100.07" y2="134.704" class="black" /></g>
<g><title>25 (position.label in template: 38.Y)</title><text x="100.947" y="117.545" class="green" >U</text></g>
<g><title>26 (position.label in template: 39.N)</title><text x="102.605" y="110.208" class="green" >U</text></g>
<g><title>27 (position.label in template: 40.U)</title><text x="104.98" y="103.07" class="blue" >U</text></g>
<g><title>28 (position.label in template: 41.G)</title><text x="108.046" y="96.2011" class="blue" >G</text></g>
<g><title>29 (position.label in template: 42.R)</title><text x="111.775" y="89.6681" class="green" >G</text></g>
<g><title>30 (position.label in template: 43.N)</title><text x="116.13" y="83.5348" class="green" >C</text></g>
<g><title>30 (inserted)</title><text x="110.72" y="79.2758" class="numbering-label sequential" >30</text></g>
<g><line x1="114.688" y1="82.3991" x2="112.556" y2="80.7212" class="numbering-line sequential" /></g>
<g><title>31 (inserted)</title><text x="121.069" y="77.861" class="red" >G</text></g>
<g><title>32 (inserted)</title><text x="126.544" y="72.702" class="red" >A</text></g>
<g><title>33 (inserted)</title><text x="132.5" y="68.108" class="red" >C</text></g>
<g><title>34 (inserted)</title><text x="138.881" y="64.124" class="red" >C</text></g>
<g><title>35 (inserted)</title><text x="145.623" y="60.7886" class="red" >U</text></g>
<g><title>36 (inserted)</title><text x="152.662" y="58.1346" class="red" >G</text></g>
<g><title>37 (inserted)</title><text x="159.928" y="56.1877" class="red" >G</text></g>
<g><title>38 (inserted)</title><text x="167.351" y="54.9669" class="red" >U</text></g>
<g><title>39 (inserted)</title><text x="174.857" y="54.4842" class="red" >A</text></g>
<g><title>40 (inserted)</title><text x="182.375" y="54.7442" class="red" >U</text></g>
<g><title>41 (inserted)</title><text x="189.831" y="55.7444" class="red" >C</text></g>
<g><title>42 (inserted)</title><text x="197.151" y="57.4751" class="red" >A</text></g>
<g><title>43 (inserted)</title><text x="204.265" y="59.9194" class="red" >C</text></g>
<g><title>44 (inserted)</title><text x="211.104" y="63.0534" class="red" >G</text></g>
<g><title>45 (inserted)</title><text x="217.6" y="66.8465" class="red" >G</text></g>
<g><title>46 (inserted)</title><text x="223.69" y="71.2619" class="red" >C</text></g>
<g><title>47 (inserted)</title><text x="229.315" y="76.2564" class="red" >G</text></g>
<g><title>48 (inserted)</title><text x="234.42" y="81.7814" class="red" >G</text></g>
<g><title>49 (inserted)</title><text x="238.955" y="87.7829" class="red" >G</text></g>
<g><title>50 (inserted)</title><text x="242.876" y="94.2024" class="red" >A</text></g>
<g><title>50 (inserted)</title><text x="248.922" y="90.9076" class="numbering-label sequential" >50</text></g>
<g><line x1="244.488" y1="93.3238" x2="247.086" y2="91.9082" class="numbering-line sequential" /></g>
<g><title>51 (inserted)</title><text x="246.145" y="100.977" class="red" >C</text></g>
<g><title>52 (inserted)</title><text x="248.73" y="108.042" class="red" >A</text></g>
<g><title>53 (inserted)</title><text x="250.605" y="115.327" class="red" >C</text></g>
<g><title>54 (inserted)</title><text x="251.753" y="122.761" class="red" >A</text></g>
<g><title>55 (inserted)</title><text x="252.161" y="130.272" class="red" >C</text></g>
<g><title>56 (inserted)</title><text x="251.827" y="137.787" class="red" >C</text></g>
<g><title>57 (inserted)</title><text x="250.754" y="145.232" class="red" >G</text></g>
<g><title>58 (inserted)</title><text x="248.951" y="152.535" class="red" >C</text></g>
<g><title>59 (inserted)</title><text x="246.437" y="159.625" class="red" >A</text></g>
<g><title>60 (inserted)</title><text x="243.236" y="166.432" class="red" >C</text></g>
<g><title>61 (inserted)</title><text x="239.379" y="172.891" class="red" >U</text></g>
<g><title>62 (inserted)</title><text x="234.904" y="178.937" class="red" >U</text></g>
<g><title>63 (inserted)</title><text x="229.854" y="184.513" class="red" >C</text></g>
<g><title>64 (inserted)</title><text x="224.279" y="189.563" class="red" >C</text></g>
<g><title>65 (inserted)</title><text x="218.234" y="194.039" class="red" >U</text></g>
<g><title>66 (inserted)</title><text x="211.776" y="197.896" class="red" >A</text></g>
<g><title>67 (inserted)</title><text x="204.969" y="201.098" class="red" >C</text></g>
<g><title>68 (inserted)</title><text x="197.88" y="203.613" class="red" >C</text></g>
<g><title>69 (inserted)</title><text x="190.577" y="205.417" class="red" >A</text></g>
<g><title>70 (inserted)</title><text x="183.132" y="206.492" class="red" >G</text></g>
<g><title>71 (inserted)</title><text x="175.617" y="206.826" class="red" >A</text></g>
<g><title>72 (inserted)</title><text x="168.105" y="206.419" class="red" >U</text></g>
<g><title>73 (inserted)</title><text x="160.671" y="205.272" class="red" >U</text></g>
<g><title>74 (inserted)</title><text x="153.386" y="203.397" class="red" >U</text></g>
<g><title>75 (inserted)</title><text x="146.321" y="200.814" class="red" >G</text></g>
<g><title>76 (inserted)</title><text x="139.546" y="197.546" class="red" >G</text></g>
<g><title>77 (inserted)</title><text x="133.126" y="193.625" class="red" >C</text></g>
<g><title>78 (inserted)</title><text x="127.124" y="189.091" class="red" >G</text></g>
<g><title>79 (inserted)</title><text x="121.598" y="183.987" class="red" >G</text></g>
<g><title>80 (inserted)</title><text x="116.603" y="178.363" class="red" >U</text></g>
<g><title>81 (inserted)</title><text x="112.187" y="172.273" class="red" >U</text></g>
<g><title>82 (inserted)</title><text x="108.393" y="165.778" class="red" >U</text></g>
<g><title>83 (inserted)</title><text x="105.258" y="158.94" class="red" >U</text></g>
<g><title>84 (inserted)</title><text x="102.813" y="151.826" class="red" >U</text></g>
<g><title>85 (inserted)</title><text x="101.081" y="144.505" class="red" >U</text></g>
<g><title>86 (position.label in template: 46.Y)</title><text x="100.08" y="137.05" class="green" >U</text></g>
<g><title>87 (position.label in template: 54.3')</title><text x="104.117" y="143.48" class="green" >3'</text></g>
<g><line x1="53.8958" y1="119.354" x2="53.9933" y2="115.843" class="gray" /></g>
<g><line x1="54.1067" y1="111.765" x2="54.2033" y2="108.283" class="gray" /></g>
<g><line x1="54.26" y1="104.204" x2="54.26" y2="100.724" class="gray" /></g>
<g><line x1="54.2033" y1="96.6445" x2="54.1067" y2="93.1634" class="gray" /></g>
<g><line x1="54.1067" y1="89.0845" x2="54.2033" y2="85.6034" class="gray" /></g>
<g><line x1="54.3167" y1="81.5245" x2="54.4133" y2="78.0434" class="gray" /></g>
<g><line x1="54.3568" y1="73.9669" x2="54.1632" y2="70.4811" class="gray" /></g>
<g><line x1="52.9393" y1="66.7326" x2="51.1107" y2="63.9153" class="gray" /></g>
<g><line x1="50.299" y1="60.1858" x2="50.781" y2="56.9322" class="gray" /></g>
<g><line x1="52.5882" y1="53.54" x2="55.3018" y2="51.0679" class="gray" /></g>
<g><line x1="58.8502" y1="49.694" x2="62.3298" y2="49.694" class="gray" /></g>
<g><line x1="65.8636" y1="51.0838" x2="68.4864" y2="53.5242" class="gray" /></g>
<g><line x1="70.1971" y1="56.9426" x2="70.5429" y2="60.1753" class="gray" /></g>
<g><line x1="69.6097" y1="63.889" x2="67.6503" y2="66.759" class="gray" /></g>
<g><line x1="66.5" y1="70.4842" x2="66.5" y2="73.9637" class="gray" /></g>
<g><line x1="66.4433" y1="78.0434" x2="66.3467" y2="81.5245" class="gray" /></g>
<g><line x1="66.3467" y1="85.6034" x2="66.4433" y2="89.0845" class="gray" /></g>
<g><line x1="66.4433" y1="93.1634" x2="66.3467" y2="96.6445" class="gray" /></g>
<g><line x1="66.3467" y1="100.723" x2="66.4433" y2="104.205" class="gray" /></g>
<g><line x1="66.5567" y1="108.283" x2="66.6533" y2="111.765" class="gray" /></g>
<g><line x1="68.6491" y1="114.438" x2="74.21" y2="116.258" class="gray" /></g>
<g><line x1="78.0881" y1="117.527" x2="81.4259" y2="118.619" class="gray" /></g>
<g><line x1="85.3041" y1="119.888" x2="88.6419" y2="120.981" class="gray" /></g>
<g><line x1="92.52" y1="122.25" x2="98.0809" y2="124.069" class="gray" /></g>
<g><line x1="100.271" y1="122.679" x2="100.695" y2="119.264" class="gray" /></g>
<g><line x1="101.397" y1="115.249" x2="102.156" y2="111.892" class="gray" /></g>
<g><line x1="103.249" y1="107.966" x2="104.336" y2="104.7" class="gray" /></g>
<g><line x1="105.811" y1="100.901" x2="107.214" y2="97.758" class="gray" /></g>
<g><line x1="109.058" y1="94.1231" x2="110.764" y2="91.134" class="gray" /></g>
<g><line x1="112.956" y1="87.6986" x2="114.949" y2="84.8923" class="gray" /></g>
<g><line x1="117.47" y1="81.6899" x2="119.73" y2="79.0939" class="gray" /></g>
<g><line x1="122.554" y1="76.1557" x2="125.059" y2="73.7952" class="gray" /></g>
<g><line x1="128.159" y1="71.1499" x2="130.885" y2="69.048" class="gray" /></g>
<g><line x1="134.231" y1="66.7214" x2="137.15" y2="64.8985" class="gray" /></g>
<g><line x1="140.71" y1="62.9133" x2="143.795" y2="61.3872" class="gray" /></g>
<g><line x1="147.533" y1="59.7628" x2="150.753" y2="58.5484" class="gray" /></g>
<g><line x1="154.633" y1="57.3005" x2="157.957" y2="56.4097" class="gray" /></g>
<g><line x1="161.941" y1="55.5506" x2="165.337" y2="54.992" class="gray" /></g>
<g><line x1="169.387" y1="54.53" x2="172.821" y2="54.3091" class="gray" /></g>
<g><line x1="176.896" y1="54.2487" x2="180.336" y2="54.3676" class="gray" /></g>
<g><line x1="184.397" y1="54.7095" x2="187.809" y2="55.1671" class="gray" /></g>
<g><line x1="191.816" y1="55.9078" x2="195.166" y2="56.6997" class="gray" /></g>
<g><line x1="199.081" y1="57.832" x2="202.336" y2="58.9504" class="gray" /></g>
<g><line x1="206.12" y1="60.4633" x2="209.249" y2="61.8973" class="gray" /></g>
<g><line x1="212.866" y1="63.7761" x2="215.838" y2="65.5117" class="gray" /></g>
<g><line x1="219.252" y1="67.7381" x2="222.038" y2="69.7583" class="gray" /></g>
<g><line x1="225.216" y1="72.3105" x2="227.789" y2="74.5958" class="gray" /></g>
<g><line x1="230.699" y1="77.4489" x2="233.035" y2="79.9768" class="gray" /></g>
<g><line x1="235.65" y1="83.1031" x2="237.725" y2="85.8491" class="gray" /></g>
<g><line x1="240.018" y1="89.218" x2="241.813" y2="92.1552" class="gray" /></g>
<g><line x1="243.763" y1="95.7339" x2="245.258" y2="98.8338" class="gray" /></g>
<g><line x1="246.846" y1="102.587" x2="248.028" y2="105.82" class="gray" /></g>
<g><line x1="249.238" y1="109.711" x2="250.096" y2="113.045" class="gray" /></g>
<g><line x1="250.916" y1="117.037" x2="251.441" y2="120.438" class="gray" /></g>
<g><line x1="251.863" y1="124.492" x2="252.05" y2="127.929" class="gray" /></g>
<g><line x1="252.071" y1="132.004" x2="251.918" y2="135.443" class="gray" /></g>
<g><line x1="251.536" y1="139.5" x2="251.045" y2="142.907" class="gray" /></g>
<g><line x1="250.265" y1="146.907" x2="249.44" y2="150.249" class="gray" /></g>
<g><line x1="248.269" y1="154.152" x2="247.119" y2="157.396" class="gray" /></g>
<g><line x1="245.569" y1="161.165" x2="244.104" y2="164.28" class="gray" /></g>
<g><line x1="242.19" y1="167.878" x2="240.425" y2="170.833" class="gray" /></g>
<g><line x1="238.165" y1="174.224" x2="236.118" y2="176.991" class="gray" /></g>
<g><line x1="233.534" y1="180.143" x2="231.224" y2="182.694" class="gray" /></g>
<g><line x1="228.342" y1="185.576" x2="225.792" y2="187.887" class="gray" /></g>
<g><line x1="222.64" y1="190.471" x2="219.873" y2="192.519" class="gray" /></g>
<g><line x1="216.482" y1="194.779" x2="213.527" y2="196.544" class="gray" /></g>
<g><line x1="209.93" y1="198.459" x2="206.815" y2="199.924" class="gray" /></g>
<g><line x1="203.046" y1="201.475" x2="199.802" y2="202.625" class="gray" /></g>
<g><line x1="195.899" y1="203.797" x2="192.557" y2="204.622" class="gray" /></g>
<g><line x1="188.557" y1="205.402" x2="185.151" y2="205.894" class="gray" /></g>
<g><line x1="181.093" y1="206.276" x2="177.655" y2="206.43" class="gray" /></g>
<g><line x1="173.579" y1="206.41" x2="170.143" y2="206.223" class="gray" /></g>
<g><line x1="166.089" y1="205.801" x2="162.687" y2="205.277" class="gray" /></g>
<g><line x1="158.695" y1="204.457" x2="155.362" y2="203.6" class="gray" /></g>
<g><line x1="151.47" y1="202.391" x2="148.237" y2="201.208" class="gray" /></g>
<g><line x1="144.484" y1="199.621" x2="141.384" y2="198.126" class="gray" /></g>
<g><line x1="137.805" y1="196.176" x2="134.867" y2="194.383" class="gray" /></g>
<g><line x1="131.498" y1="192.09" x2="128.752" y2="190.015" class="gray" /></g>
<g><line x1="125.625" y1="187.401" x2="123.097" y2="185.065" class="gray" /></g>
<g><line x1="120.243" y1="182.155" x2="117.958" y2="179.582" class="gray" /></g>
<g><line x1="115.405" y1="176.405" x2="113.385" y2="173.619" class="gray" /></g>
<g><line x1="111.158" y1="170.205" x2="109.422" y2="167.233" class="gray" /></g>
<g><line x1="107.543" y1="163.617" x2="106.108" y2="160.488" class="gray" /></g>
<g><line x1="104.595" y1="156.704" x2="103.476" y2="153.449" class="gray" /></g>
<g><line x1="102.343" y1="149.534" x2="101.551" y2="146.185" class="gray" /></g>
<g><line x1="100.81" y1="142.177" x2="100.352" y2="138.766" class="gray" /></g>
<g><line x1="101.165" y1="138.472" x2="103.032" y2="141.446" class="gray" /></g>
</svg>
