<svg
	xmlns="http://www.w3.org/2000/svg"
	width="229.195"
	height="238.919"
	style="font-size: 3.048045px; font-weight: bold; font-family: Helvetica; " >
<g><style type="text/css" >
<!-- create color definitions -->
<![CDATA[
text.red {fill: rgb(255, 0, 255); }
text.green {fill: rgb(0, 255, 0); }
text.blue {fill: rgb(0, 0, 255); }
text.black {fill: rgb(0, 0, 0); }
text.gray {fill: rgb(204, 204, 204); }
text.brown {fill: rgb(211.65, 104.55, 30.6); }
text {fill: rgb(0, 0, 0); text-anchor: middle; alignment-baseline: middle; }
circle.red {stroke: rgb(255, 0, 255); fill: none; }
circle.green {stroke: rgb(0, 255, 0); fill: none; }
circle.blue {stroke: rgb(0, 0, 255); fill: none; }
circle.black {stroke: rgb(0, 0, 0); fill: none; }
circle.gray {stroke: rgb(204, 204, 204); fill: none; }
circle.brown {stroke: rgb(211.65, 104.55, 30.6); fill: none; }
circle {stroke: rgb(0, 0, 0); }
line.red {stroke: rgb(255, 0, 255); stroke-width: 0.381006; }
line.green {stroke: rgb(0, 255, 0); stroke-width: 0.381006; }
line.blue {stroke: rgb(0, 0, 255); stroke-width: 0.381006; }
line.black {stroke: rgb(0, 0, 0); stroke-width: 0.381006; }
line.gray {stroke: rgb(204, 204, 204); stroke-width: 0.381006; }
line.brown {stroke: rgb(211.65, 104.55, 30.6); stroke-width: 0.381006; }
line {stroke: rgb(0, 0, 0); }
text.numbering-label {fill: rgb(204, 204, 204);}
line.numbering-line {stroke: rgb(204, 204, 204); stroke-width: 0.190503;}
line.predicted {stroke: rgb(0, 0, 0); stroke-dasharray: 2}
text.background {fill: rgb(255, 255, 255);
.template {visibility:hidden}
]]>
</style></g>
<g><title>0 (position.label in template: 0.5')</title><text x="107.823" y="49.428" class="green" >5'</text></g>
<g><title>1 (position.label in template: 2.N)</title><text x="107.881" y="56.9383" class="green" >G</text></g>
<g><line x1="109.913" y1="56.6335" x2="118.089" y2="56.6335" class="black" /></g>
<g><title>2 (position.label in template: 3.Y)</title><text x="107.941" y="64.7083" class="green" >A</text></g>
<g><line x1="109.973" y1="64.4035" x2="117.729" y2="64.4035" class="black" /></g>
<g><title>3 (position.label in template: 4.N)</title><text x="107.881" y="72.0583" class="green" >C</text></g>
<g><line x1="109.913" y1="71.7535" x2="118.089" y2="71.7535" class="black" /></g>
<g><title>4 (inserted)</title><text x="107.009" y="77.3173" class="red" >A</text></g>
<g><title>5 (position.label in template: 5.Y)</title><text x="107.925" y="82.5687" class="green" >G</text></g>
<g><line x1="109.957" y1="82.2639" x2="117.923" y2="82.2639" class="black" /></g>
<g><title>6 (position.label in template: 6.Y)</title><text x="107.925" y="90.1287" class="green" >U</text></g>
<g><line x1="109.957" y1="89.8239" x2="117.923" y2="89.8239" class="black" /></g>
<g><title>7 (position.label in template: 7.R)</title><text x="107.715" y="97.6887" class="green" >U</text></g>
<g><line x1="109.747" y1="97.3494" x2="118.073" y2="97.2083" class="black" /></g>
<g><title>8 (position.label in template: 8.U)</title><text x="100.895" y="100.949" class="black" >U</text></g>
<g><title>9 (position.label in template: 9.R)</title><text x="95.5451" y="106.299" class="green" >G</text></g>
<g><title>10 (position.label in template: 10.G)</title><text x="92.0751" y="113.119" class="black" >G</text></g>
<g><line x1="92.11" y1="114.846" x2="92.2503" y2="123.022" class="black" /></g>
<g><title>10 (inserted)</title><text x="88.4182" y="107.317" class="numbering-label sequential" >10</text></g>
<g><line x1="91.1" y1="111.572" x2="89.3788" y2="108.841" class="numbering-line sequential" /></g>
<g><title>11 (position.label in template: 11.C)</title><text x="84.7251" y="113.119" class="green" >U</text></g>
<g><line x1="84.6903" y1="114.846" x2="84.55" y2="123.022" class="black" /></g>
<g><title>12 (position.label in template: 12.U)</title><text x="77.1651" y="113.119" class="black" >U</text></g>
<g><line x1="77.2" y1="114.846" x2="77.3403" y2="123.022" class="black" /></g>
<g><title>13 (position.label in template: 13.Y)</title><text x="69.8151" y="113.119" class="green" >U</text></g>
<g><line x1="69.7803" y1="114.846" x2="69.64" y2="123.022" class="black" /></g>
<g><title>14 (position.label in template: 14.A)</title><text x="64.5206" y="108.938" class="blue" >A</text></g>
<g><title>15 (position.label in template: 15.G)</title><text x="57.7781" y="108.712" class="green" >A</text></g>
<g><title>16 (position.label in template: 16.U)</title><text x="52.2153" y="112.528" class="blue" >U</text></g>
<g><title>17 (position.label in template: 17.G)</title><text x="50" y="118.901" class="blue" >G</text></g>
<g><title>18 (position.label in template: 18.G)</title><text x="51.9954" y="125.345" class="blue" >G</text></g>
<g><title>19 (position.label in template: 19.U)</title><text x="57.424" y="129.35" class="blue" >U</text></g>
<g><title>20 (position.label in template: 20.N)</title><text x="64.1703" y="129.355" class="green" >A</text></g>
<g><title>20 (inserted)</title><text x="66.3058" y="135.873" class="numbering-label sequential" >20</text></g>
<g><line x1="64.7397" y1="131.093" x2="65.8064" y2="134.349" class="numbering-line sequential" /></g>
<g><title>21 (position.label in template: 22.R)</title><text x="69.6051" y="125.359" class="green" >A</text></g>
<g><title>22 (position.label in template: 23.A)</title><text x="77.3751" y="125.359" class="black" >A</text></g>
<g><title>23 (position.label in template: 24.G)</title><text x="84.5151" y="125.359" class="green" >A</text></g>
<g><title>24 (position.label in template: 25.C)</title><text x="92.2851" y="125.359" class="black" >C</text></g>
<g><title>25 (position.label in template: 26.R)</title><text x="95.5451" y="132.169" class="green" >A</text></g>
<g><title>26 (position.label in template: 27.Y)</title><text x="101.105" y="137.519" class="green" >C</text></g>
<g><line x1="103.018" y1="137.901" x2="110.523" y2="140.597" class="black" /></g>
<g><title>27 (position.label in template: 28.Y)</title><text x="98.5851" y="144.649" class="green" >U</text></g>
<g><line x1="100.498" y1="145.03" x2="108.013" y2="147.727" class="black" /></g>
<g><title>28 (position.label in template: 29.N)</title><text x="96.0151" y="151.569" class="green" >U</text></g>
<g><line x1="97.9315" y1="151.94" x2="105.639" y2="154.658" class="black" /></g>
<g><title>29 (position.label in template: 30.N)</title><text x="93.5051" y="158.699" class="green" >G</text></g>
<g><line x1="95.4215" y1="159.07" x2="103.129" y2="161.788" class="black" /></g>
<g><title>30 (position.label in template: 31.N)</title><text x="90.9851" y="165.829" class="green" >A</text></g>
<g><line x1="92.9015" y1="166.2" x2="100.609" y2="168.918" class="black" /></g>
<g><title>30 (inserted)</title><text x="85.6953" y="161.464" class="numbering-label sequential" >30</text></g>
<g><line x1="89.5745" y1="164.665" x2="87.5241" y2="162.973" class="numbering-line sequential" /></g>
<g><title>31 (position.label in template: 32.C)</title><text x="84.3051" y="169.849" class="black" >C</text></g>
<g><title>32 (position.label in template: 33.U)</title><text x="81.4151" y="176.839" class="green" >A</text></g>
<g><title>33 (position.label in template: 34.N)</title><text x="83.4851" y="183.939" class="green" >U</text></g>
<g><title>34 (position.label in template: 35.G)</title><text x="89.0851" y="188.809" class="black" >G</text></g>
<g><title>35 (position.label in template: 36.U)</title><text x="96.8551" y="188.919" class="black" >U</text></g>
<g><title>36 (position.label in template: 37.A)</title><text x="103.145" y="184.429" class="black" >A</text></g>
<g><title>37 (position.label in template: 38.A)</title><text x="105.275" y="177.169" class="black" >A</text></g>
<g><title>38 (position.label in template: 39.N)</title><text x="102.525" y="169.899" class="green" >U</text></g>
<g><title>39 (position.label in template: 40.N)</title><text x="105.045" y="162.769" class="green" >C</text></g>
<g><title>40 (position.label in template: 41.N)</title><text x="107.555" y="155.639" class="green" >A</text></g>
<g><title>41 (inserted)</title><text x="112.2" y="153.364" class="red" >C</text></g>
<g><title>42 (position.label in template: 42.R)</title><text x="109.925" y="148.719" class="green" >A</text></g>
<g><title>43 (position.label in template: 43.R)</title><text x="112.435" y="141.589" class="green" >G</text></g>
<g><title>44 (position.label in template: 44.A)</title><text x="117.523" y="137.51" class="blue" >A</text></g>
<g><title>45 (position.label in template: 45.G)</title><text x="121.734" y="132.531" class="blue" >G</text></g>
<g><title>46 (position.label in template: 46.R)</title><text x="124.913" y="126.837" class="green" >A</text></g>
<g><title>47 (position.label in template: 47.U)</title><text x="126.942" y="120.64" class="blue" >U</text></g>
<g><title>48 (position.label in template: 49.N)</title><text x="127.745" y="114.169" class="green" >G</text></g>
<g><line x1="127.609" y1="111.836" x2="127.061" y2="103.681" class="black" /></g>
<g><title>49 (position.label in template: 50.Y)</title><text x="135.215" y="113.869" class="green" >U</text></g>
<g><line x1="135.053" y1="111.538" x2="134.388" y2="103.259" class="black" /></g>
<g><title>50 (position.label in template: 51.N)</title><text x="142.825" y="113.159" class="green" >G</text></g>
<g><line x1="142.689" y1="110.826" x2="142.141" y2="102.671" class="black" /></g>
<g><title>50 (inserted)</title><text x="143.348" y="119.997" class="numbering-label sequential" >50</text></g>
<g><line x1="142.964" y1="114.982" x2="143.231" y2="118.473" class="numbering-line sequential" /></g>
<g><title>51 (position.label in template: 52.R)</title><text x="150.135" y="112.729" class="green" >A</text></g>
<g><line x1="150.026" y1="110.395" x2="149.594" y2="102.363" class="black" /></g>
<g><title>52 (position.label in template: 53.G)</title><text x="157.505" y="112.109" class="black" >G</text></g>
<g><line x1="157.396" y1="109.775" x2="156.964" y2="101.733" class="black" /></g>
<g><title>53 (position.label in template: 54.U)</title><text x="163.755" y="116.709" class="black" >U</text></g>
<g><title>54 (position.label in template: 55.U)</title><text x="171.325" y="116.609" class="black" >U</text></g>
<g><title>55 (position.label in template: 56.C)</title><text x="177.275" y="111.939" class="black" >C</text></g>
<g><title>56 (position.label in template: 57.R)</title><text x="179.195" y="104.629" class="green" >G</text></g>
<g><title>57 (position.label in template: 58.A)</title><text x="176.485" y="97.7687" class="black" >A</text></g>
<g><title>58 (position.label in template: 59.N)</title><text x="170.035" y="93.7487" class="green" >G</text></g>
<g><title>59 (position.label in template: 60.U)</title><text x="162.275" y="94.7387" class="black" >U</text></g>
<g><title>60 (position.label in template: 61.C)</title><text x="156.855" y="100.009" class="black" >C</text></g>
<g><title>61 (position.label in template: 62.Y)</title><text x="149.485" y="100.639" class="green" >U</text></g>
<g><title>62 (position.label in template: 63.N)</title><text x="142.005" y="100.949" class="green" >C</text></g>
<g><title>63 (position.label in template: 64.R)</title><text x="134.225" y="101.539" class="green" >A</text></g>
<g><title>64 (position.label in template: 65.N)</title><text x="126.925" y="101.959" class="green" >U</text></g>
<g><title>65 (position.label in template: 66.N)</title><text x="120.105" y="97.4787" class="green" >G</text></g>
<g><title>66 (position.label in template: 67.R)</title><text x="119.955" y="90.1287" class="green" >G</text></g>
<g><title>67 (inserted)</title><text x="123.735" y="86.3487" class="red" >C</text></g>
<g><title>68 (position.label in template: 68.R)</title><text x="119.955" y="82.5687" class="green" >U</text></g>
<g><title>69 (inserted)</title><text x="120.932" y="77.3276" class="red" >G</text></g>
<g><title>70 (position.label in template: 69.N)</title><text x="120.121" y="72.0583" class="green" >G</text></g>
<g><title>71 (position.label in template: 70.G)</title><text x="119.761" y="64.7083" class="green" >U</text></g>
<g><title>72 (position.label in template: 71.N)</title><text x="120.121" y="56.9383" class="green" >C</text></g>
<g><title>73 (position.label in template: 73.N)</title><text x="122.996" y="50" class="green" >A</text></g>
<g><title>74 (position.label in template: 74.3')</title><text x="123.562" y="42.5108" class="green" >3'</text></g>
<g><line x1="107.839" y1="51.1552" x2="107.865" y2="54.6016" class="gray" /></g>
<g><line x1="107.897" y1="58.6655" x2="107.925" y2="62.3716" class="gray" /></g>
<g><line x1="107.924" y1="66.4355" x2="107.898" y2="69.7216" class="gray" /></g>
<g><line x1="107.549" y1="73.7582" x2="107.341" y2="75.0078" class="gray" /></g>
<g><line x1="107.358" y1="79.0143" x2="107.576" y2="80.2621" class="gray" /></g>
<g><line x1="107.925" y1="84.2959" x2="107.925" y2="87.7918" class="gray" /></g>
<g><line x1="107.869" y1="91.8551" x2="107.772" y2="95.3526" class="gray" /></g>
<g><line x1="105.882" y1="98.2602" x2="102.728" y2="99.7675" class="gray" /></g>
<g><line x1="99.4583" y1="102.081" x2="96.982" y2="104.557" class="gray" /></g>
<g><line x1="94.6237" y1="107.805" x2="92.9966" y2="111.003" class="gray" /></g>
<g><line x1="90.0431" y1="112.814" x2="86.7572" y2="112.814" class="gray" /></g>
<g><line x1="82.6931" y1="112.814" x2="79.1972" y2="112.814" class="gray" /></g>
<g><line x1="75.1331" y1="112.814" x2="71.8472" y2="112.814" class="gray" /></g>
<g><line x1="68.2204" y1="111.555" x2="66.1153" y2="109.892" class="gray" /></g>
<g><line x1="62.4897" y1="108.565" x2="59.809" y2="108.475" class="gray" /></g>
<g><line x1="56.1026" y1="109.557" x2="53.8909" y2="111.074" class="gray" /></g>
<g><line x1="51.5481" y1="114.143" x2="50.6673" y2="116.676" class="gray" /></g>
<g><line x1="50.601" y1="120.537" x2="51.3944" y2="123.099" class="gray" /></g>
<g><line x1="53.6306" y1="126.246" x2="55.7889" y2="127.839" class="gray" /></g>
<g><line x1="59.4561" y1="129.047" x2="62.1382" y2="129.049" class="gray" /></g>
<g><line x1="65.8073" y1="127.847" x2="67.9681" y2="126.258" class="gray" /></g>
<g><line x1="71.6372" y1="125.054" x2="75.3431" y2="125.054" class="gray" /></g>
<g><line x1="79.4072" y1="125.054" x2="82.4831" y2="125.054" class="gray" /></g>
<g><line x1="86.5472" y1="125.054" x2="90.2531" y2="125.054" class="gray" /></g>
<g><line x1="93.1625" y1="126.887" x2="94.6677" y2="130.031" class="gray" /></g>
<g><line x1="97.0094" y1="133.273" x2="99.6409" y2="135.805" class="gray" /></g>
<g><line x1="100.428" y1="139.13" x2="99.2623" y2="142.428" class="gray" /></g>
<g><line x1="97.8777" y1="146.249" x2="96.7226" y2="149.359" class="gray" /></g>
<g><line x1="95.3404" y1="153.181" x2="94.1799" y2="156.477" class="gray" /></g>
<g><line x1="92.828" y1="160.31" x2="91.6623" y2="163.608" class="gray" /></g>
<g><line x1="89.2441" y1="166.572" x2="86.0462" y2="168.496" class="gray" /></g>
<g><line x1="83.5287" y1="171.422" x2="82.1915" y2="174.656" class="gray" /></g>
<g><line x1="81.9839" y1="178.485" x2="82.9164" y2="181.683" class="gray" /></g>
<g><line x1="85.0185" y1="184.967" x2="87.5518" y2="187.17" class="gray" /></g>
<g><line x1="91.117" y1="188.533" x2="94.8233" y2="188.585" class="gray" /></g>
<g><line x1="98.509" y1="187.433" x2="101.491" y2="185.304" class="gray" /></g>
<g><line x1="103.717" y1="182.174" x2="104.703" y2="178.814" class="gray" /></g>
<g><line x1="104.556" y1="174.963" x2="103.244" y2="171.494" class="gray" /></g>
<g><line x1="103.202" y1="167.678" x2="104.368" y2="164.38" class="gray" /></g>
<g><line x1="105.72" y1="160.547" x2="106.88" y2="157.251" class="gray" /></g>
<g><line x1="109.38" y1="154.44" x2="110.375" y2="153.953" class="gray" /></g>
<g><line x1="111.306" y1="151.234" x2="110.819" y2="150.239" class="gray" /></g>
<g><line x1="110.6" y1="146.497" x2="111.76" y2="143.201" class="gray" /></g>
<g><line x1="114.021" y1="140.013" x2="115.937" y2="138.476" class="gray" /></g>
<g><line x1="118.835" y1="135.653" x2="120.422" y2="133.778" class="gray" /></g>
<g><line x1="122.725" y1="130.452" x2="123.923" y2="128.307" class="gray" /></g>
<g><line x1="125.546" y1="124.601" x2="126.31" y2="122.266" class="gray" /></g>
<g><line x1="127.192" y1="118.319" x2="127.495" y2="115.88" class="gray" /></g>
<g><line x1="129.776" y1="113.782" x2="133.185" y2="113.645" class="gray" /></g>
<g><line x1="137.238" y1="113.375" x2="140.802" y2="113.043" class="gray" /></g>
<g><line x1="144.854" y1="112.735" x2="148.107" y2="112.543" class="gray" /></g>
<g><line x1="152.16" y1="112.254" x2="155.48" y2="111.974" class="gray" /></g>
<g><line x1="159.142" y1="113.008" x2="162.119" y2="115.199" class="gray" /></g>
<g><line x1="165.787" y1="116.377" x2="169.293" y2="116.331" class="gray" /></g>
<g><line x1="172.924" y1="115.049" x2="175.677" y2="112.888" class="gray" /></g>
<g><line x1="177.791" y1="109.669" x2="178.679" y2="106.289" class="gray" /></g>
<g><line x1="178.449" y1="102.434" x2="177.232" y2="99.3538" class="gray" /></g>
<g><line x1="174.761" y1="96.3891" x2="171.76" y2="94.5187" class="gray" /></g>
<g><line x1="168.019" y1="93.701" x2="164.291" y2="94.1767" class="gray" /></g>
<g><line x1="160.818" y1="95.8504" x2="158.312" y2="98.2873" class="gray" /></g>
<g><line x1="154.83" y1="99.8769" x2="151.51" y2="100.161" class="gray" /></g>
<g><line x1="147.455" y1="100.418" x2="144.035" y2="100.56" class="gray" /></g>
<g><line x1="139.979" y1="100.798" x2="136.251" y2="101.08" class="gray" /></g>
<g><line x1="132.196" y1="101.351" x2="128.954" y2="101.537" class="gray" /></g>
<g><line x1="125.227" y1="100.538" x2="121.804" y2="98.2895" class="gray" /></g>
<g><line x1="120.064" y1="95.1423" x2="119.997" y2="91.8555" class="gray" /></g>
<g><line x1="121.392" y1="88.387" x2="122.298" y2="87.4807" class="gray" /></g>
<g><line x1="122.298" y1="84.607" x2="121.392" y2="83.7007" class="gray" /></g>
<g><line x1="120.328" y1="80.2663" x2="120.56" y2="79.0204" class="gray" /></g>
<g><line x1="120.623" y1="75.0144" x2="120.43" y2="73.7619" class="gray" /></g>
<g><line x1="120.022" y1="69.7239" x2="119.86" y2="66.4331" class="gray" /></g>
<g><line x1="119.855" y1="62.3737" x2="120.027" y2="58.6634" class="gray" /></g>
<g><line x1="120.899" y1="54.7563" x2="122.218" y2="51.5724" class="gray" /></g>
<g><line x1="123.149" y1="47.6689" x2="123.409" y2="44.2323" class="gray" /></g>
</svg>
