<svg
	xmlns="http://www.w3.org/2000/svg"
	width="185.15"
	height="617.377"
	style="font-size: 3.060353px; font-weight: bold; font-family: Helvetica; " >
<g><style type="text/css" >
<!-- create color definitions -->
<![CDATA[
text.red {fill: rgb(255, 0, 255); }
text.green {fill: rgb(0, 255, 0); }
text.blue {fill: rgb(0, 0, 255); }
text.black {fill: rgb(0, 0, 0); }
text.gray {fill: rgb(204, 204, 204); }
text.brown {fill: rgb(211.65, 104.55, 30.6); }
text {fill: rgb(0, 0, 0); text-anchor: middle; alignment-baseline: middle; }
circle.red {stroke: rgb(255, 0, 255); fill: none; }
circle.green {stroke: rgb(0, 255, 0); fill: none; }
circle.blue {stroke: rgb(0, 0, 255); fill: none; }
circle.black {stroke: rgb(0, 0, 0); fill: none; }
circle.gray {stroke: rgb(204, 204, 204); fill: none; }
circle.brown {stroke: rgb(211.65, 104.55, 30.6); fill: none; }
circle {stroke: rgb(0, 0, 0); }
line.red {stroke: rgb(255, 0, 255); stroke-width: 0.382544; }
line.green {stroke: rgb(0, 255, 0); stroke-width: 0.382544; }
line.blue {stroke: rgb(0, 0, 255); stroke-width: 0.382544; }
line.black {stroke: rgb(0, 0, 0); stroke-width: 0.382544; }
line.gray {stroke: rgb(204, 204, 204); stroke-width: 0.382544; }
line.brown {stroke: rgb(211.65, 104.55, 30.6); stroke-width: 0.382544; }
line {stroke: rgb(0, 0, 0); }
text.numbering-label {fill: rgb(204, 204, 204);}
line.numbering-line {stroke: rgb(204, 204, 204); stroke-width: 0.191272;}
line.predicted {stroke: rgb(0, 0, 0); stroke-dasharray: 2}
text.background {fill: rgb(255, 255, 255);
.template {visibility:hidden}
]]>
</style></g>
<g><title>0 (position.label in template: 0.5')</title><text x="53.8392" y="121.7" class="green" >5'</text></g>
<g><title>1 (position.label in template: 14.G)</title><text x="54.05" y="114.11" class="green" >G</text></g>
<g><line x1="56.0902" y1="113.804" x2="64.6698" y2="113.804" class="black" /></g>
<g><title>2 (position.label in template: 15.U)</title><text x="54.26" y="106.55" class="green" >U</text></g>
<g><line x1="56.3002" y1="106.244" x2="64.4598" y2="106.244" class="black" /></g>
<g><title>3 (position.label in template: 16.C)</title><text x="54.26" y="98.99" class="black" >C</text></g>
<g><line x1="56.3002" y1="98.684" x2="64.2498" y2="98.684" class="black" /></g>
<g><title>4 (position.label in template: 17.G)</title><text x="54.05" y="91.43" class="black" >G</text></g>
<g><line x1="56.0902" y1="91.124" x2="64.4598" y2="91.124" class="black" /></g>
<g><title>5 (position.label in template: 18.C)</title><text x="54.26" y="83.87" class="black" >C</text></g>
<g><line x1="56.3002" y1="83.564" x2="64.2498" y2="83.564" class="black" /></g>
<g><title>6 (position.label in template: 19.Y)</title><text x="54.47" y="76.31" class="green" >U</text></g>
<g><line x1="56.5102" y1="76.004" x2="64.4598" y2="76.004" class="black" /></g>
<g><title>7 (position.label in template: 20.G)</title><text x="54.05" y="68.75" class="black" >G</text></g>
<g><line x1="56.0902" y1="68.444" x2="64.4598" y2="68.444" class="black" /></g>
<g><title>8 (position.label in template: 21.C)</title><text x="50" y="62.51" class="black" >C</text></g>
<g><title>9 (position.label in template: 22.N)</title><text x="51.08" y="55.22" class="green" >A</text></g>
<g><title>10 (position.label in template: 23.A)</title><text x="56.81" y="50" class="black" >A</text></g>
<g><title>10 (inserted)</title><text x="54.2926" y="43.5909" class="numbering-label sequential" >10</text></g>
<g><line x1="56.1387" y1="48.2909" x2="54.8937" y2="45.121" class="numbering-line sequential" /></g>
<g><title>11 (position.label in template: 24.A)</title><text x="64.37" y="50" class="black" >A</text></g>
<g><title>12 (position.label in template: 25.N)</title><text x="69.98" y="55.22" class="green" >U</text></g>
<g><title>13 (position.label in template: 26.U)</title><text x="70.76" y="62.51" class="black" >U</text></g>
<g><title>14 (position.label in template: 27.C)</title><text x="66.5" y="68.75" class="black" >C</text></g>
<g><title>15 (position.label in template: 28.R)</title><text x="66.5" y="76.31" class="green" >A</text></g>
<g><title>16 (position.label in template: 29.G)</title><text x="66.29" y="83.87" class="black" >G</text></g>
<g><title>17 (position.label in template: 30.C)</title><text x="66.5" y="91.43" class="black" >C</text></g>
<g><title>18 (position.label in template: 31.G)</title><text x="66.29" y="98.99" class="black" >G</text></g>
<g><title>19 (position.label in template: 32.R)</title><text x="66.5" y="106.55" class="green" >A</text></g>
<g><title>20 (position.label in template: 33.Y)</title><text x="66.71" y="114.11" class="green" >C</text></g>
<g><title>20 (inserted)</title><text x="71.8301" y="109.506" class="numbering-label sequential" >20</text></g>
<g><line x1="68.0754" y1="112.882" x2="70.1285" y2="111.036" class="numbering-line sequential" /></g>
<g><title>21 (inserted)</title><text x="74.2312" y="115.148" class="red" >C</text></g>
<g><title>22 (inserted)</title><text x="81.7525" y="116.185" class="red" >G</text></g>
<g><title>23 (inserted)</title><text x="89.2737" y="117.223" class="red" >G</text></g>
<g><title>24 (inserted)</title><text x="96.795" y="118.26" class="red" >G</text></g>
<g><title>25 (position.label in template: 38.Y)</title><text x="104.316" y="119.298" class="green" >C</text></g>
<g><title>26 (position.label in template: 39.N)</title><text x="111.798" y="118.005" class="green" >G</text></g>
<g><title>27 (position.label in template: 40.U)</title><text x="118.867" y="120.775" class="black" >U</text></g>
<g><title>28 (position.label in template: 41.G)</title><text x="122.939" y="127.183" class="green" >A</text></g>
<g><title>29 (position.label in template: 42.R)</title><text x="123.149" y="134.773" class="green" >G</text></g>
<g><title>30 (inserted)</title><text x="123.36" y="142.362" class="red" >G</text></g>
<g><title>30 (inserted)</title><text x="130.243" y="142.171" class="numbering-label sequential" >30</text></g>
<g><line x1="125.195" y1="142.311" x2="128.407" y2="142.222" class="numbering-line sequential" /></g>
<g><title>31 (inserted)</title><text x="123.57" y="149.952" class="red" >A</text></g>
<g><title>32 (inserted)</title><text x="123.781" y="157.541" class="red" >A</text></g>
<g><title>33 (inserted)</title><text x="123.991" y="165.131" class="red" >C</text></g>
<g><title>34 (inserted)</title><text x="124.202" y="172.72" class="red" >C</text></g>
<g><title>35 (inserted)</title><text x="124.412" y="180.31" class="red" >C</text></g>
<g><title>36 (inserted)</title><text x="124.623" y="187.9" class="red" >G</text></g>
<g><title>37 (inserted)</title><text x="124.833" y="195.489" class="red" >A</text></g>
<g><title>38 (inserted)</title><text x="125.044" y="203.079" class="red" >A</text></g>
<g><title>39 (inserted)</title><text x="125.255" y="210.668" class="red" >U</text></g>
<g><title>40 (inserted)</title><text x="125.465" y="218.258" class="red" >U</text></g>
<g><title>41 (inserted)</title><text x="125.676" y="225.847" class="red" >C</text></g>
<g><title>42 (inserted)</title><text x="125.886" y="233.437" class="red" >A</text></g>
<g><title>43 (inserted)</title><text x="126.097" y="241.026" class="red" >A</text></g>
<g><title>44 (inserted)</title><text x="126.307" y="248.616" class="red" >G</text></g>
<g><title>45 (inserted)</title><text x="126.518" y="256.206" class="red" >A</text></g>
<g><title>46 (inserted)</title><text x="126.728" y="263.795" class="red" >A</text></g>
<g><title>47 (inserted)</title><text x="126.939" y="271.385" class="red" >G</text></g>
<g><title>48 (inserted)</title><text x="127.149" y="278.974" class="red" >G</text></g>
<g><title>49 (inserted)</title><text x="127.36" y="286.564" class="red" >C</text></g>
<g><title>50 (inserted)</title><text x="127.571" y="294.153" class="red" >G</text></g>
<g><title>50 (inserted)</title><text x="134.454" y="293.962" class="numbering-label sequential" >50</text></g>
<g><line x1="129.406" y1="294.102" x2="132.617" y2="294.013" class="numbering-line sequential" /></g>
<g><title>51 (inserted)</title><text x="127.781" y="301.743" class="red" >C</text></g>
<g><title>52 (inserted)</title><text x="127.992" y="309.332" class="red" >A</text></g>
<g><title>53 (inserted)</title><text x="128.202" y="316.922" class="red" >U</text></g>
<g><title>54 (inserted)</title><text x="128.413" y="324.511" class="red" >A</text></g>
<g><title>55 (inserted)</title><text x="128.623" y="332.101" class="red" >G</text></g>
<g><title>56 (inserted)</title><text x="128.834" y="339.691" class="red" >G</text></g>
<g><title>57 (inserted)</title><text x="129.044" y="347.28" class="red" >C</text></g>
<g><title>58 (inserted)</title><text x="129.255" y="354.87" class="red" >G</text></g>
<g><title>59 (inserted)</title><text x="129.465" y="362.459" class="red" >C</text></g>
<g><title>60 (inserted)</title><text x="129.676" y="370.049" class="red" >C</text></g>
<g><title>61 (inserted)</title><text x="129.886" y="377.638" class="red" >C</text></g>
<g><title>62 (inserted)</title><text x="130.097" y="385.228" class="red" >C</text></g>
<g><title>63 (inserted)</title><text x="130.308" y="392.817" class="red" >A</text></g>
<g><title>64 (inserted)</title><text x="130.518" y="400.407" class="red" >U</text></g>
<g><title>65 (inserted)</title><text x="130.729" y="407.996" class="red" >U</text></g>
<g><title>66 (inserted)</title><text x="130.939" y="415.586" class="red" >U</text></g>
<g><title>67 (inserted)</title><text x="131.15" y="423.176" class="red" >C</text></g>
<g><title>68 (inserted)</title><text x="131.36" y="430.765" class="red" >A</text></g>
<g><title>69 (inserted)</title><text x="131.571" y="438.355" class="red" >A</text></g>
<g><title>70 (inserted)</title><text x="131.781" y="445.944" class="red" >U</text></g>
<g><title>71 (inserted)</title><text x="131.992" y="453.534" class="red" >C</text></g>
<g><title>72 (inserted)</title><text x="132.202" y="461.123" class="red" >G</text></g>
<g><title>73 (inserted)</title><text x="132.413" y="468.713" class="red" >C</text></g>
<g><title>74 (inserted)</title><text x="132.624" y="476.302" class="red" >A</text></g>
<g><title>75 (inserted)</title><text x="132.834" y="483.892" class="red" >G</text></g>
<g><title>76 (inserted)</title><text x="133.045" y="491.481" class="red" >G</text></g>
<g><title>77 (inserted)</title><text x="133.255" y="499.071" class="red" >C</text></g>
<g><title>78 (inserted)</title><text x="133.466" y="506.661" class="red" >G</text></g>
<g><title>79 (inserted)</title><text x="133.676" y="514.25" class="red" >C</text></g>
<g><title>80 (inserted)</title><text x="133.887" y="521.84" class="red" >U</text></g>
<g><title>81 (inserted)</title><text x="134.097" y="529.429" class="red" >U</text></g>
<g><title>82 (inserted)</title><text x="134.308" y="537.019" class="red" >U</text></g>
<g><title>83 (inserted)</title><text x="134.518" y="544.608" class="red" >U</text></g>
<g><title>84 (inserted)</title><text x="134.729" y="552.198" class="red" >U</text></g>
<g><title>85 (inserted)</title><text x="134.94" y="559.787" class="red" >U</text></g>
<g><title>86 (inserted)</title><text x="135.15" y="567.377" class="red" >U</text></g>
<g><title>87 (position.label in template: 54.3')</title><text x="135.361" y="574.966" class="green" >3'</text></g>
<g><line x1="53.8958" y1="119.354" x2="53.9933" y2="115.843" class="gray" /></g>
<g><line x1="54.1067" y1="111.765" x2="54.2033" y2="108.283" class="gray" /></g>
<g><line x1="54.26" y1="104.204" x2="54.26" y2="100.724" class="gray" /></g>
<g><line x1="54.2033" y1="96.6445" x2="54.1067" y2="93.1634" class="gray" /></g>
<g><line x1="54.1067" y1="89.0845" x2="54.2033" y2="85.6034" class="gray" /></g>
<g><line x1="54.3167" y1="81.5245" x2="54.4133" y2="78.0434" class="gray" /></g>
<g><line x1="54.3568" y1="73.9669" x2="54.1632" y2="70.4811" class="gray" /></g>
<g><line x1="52.9393" y1="66.7326" x2="51.1107" y2="63.9153" class="gray" /></g>
<g><line x1="50.299" y1="60.1858" x2="50.781" y2="56.9322" class="gray" /></g>
<g><line x1="52.5882" y1="53.54" x2="55.3018" y2="51.0679" class="gray" /></g>
<g><line x1="58.8502" y1="49.694" x2="62.3298" y2="49.694" class="gray" /></g>
<g><line x1="65.8636" y1="51.0838" x2="68.4864" y2="53.5242" class="gray" /></g>
<g><line x1="70.1971" y1="56.9426" x2="70.5429" y2="60.1753" class="gray" /></g>
<g><line x1="69.6097" y1="63.889" x2="67.6503" y2="66.759" class="gray" /></g>
<g><line x1="66.5" y1="70.4842" x2="66.5" y2="73.9637" class="gray" /></g>
<g><line x1="66.4433" y1="78.0434" x2="66.3467" y2="81.5245" class="gray" /></g>
<g><line x1="66.3467" y1="85.6034" x2="66.4433" y2="89.0845" class="gray" /></g>
<g><line x1="66.4433" y1="93.1634" x2="66.3467" y2="96.6445" class="gray" /></g>
<g><line x1="66.3467" y1="100.723" x2="66.4433" y2="104.205" class="gray" /></g>
<g><line x1="66.5567" y1="108.283" x2="66.6533" y2="111.765" class="gray" /></g>
<g><line x1="68.7311" y1="114.083" x2="72.2101" y2="114.563" class="gray" /></g>
<g><line x1="76.2523" y1="115.12" x2="79.7314" y2="115.6" class="gray" /></g>
<g><line x1="83.7736" y1="116.158" x2="87.2526" y2="116.638" class="gray" /></g>
<g><line x1="91.2948" y1="117.195" x2="94.7739" y2="117.675" class="gray" /></g>
<g><line x1="98.8161" y1="118.233" x2="102.295" y2="118.713" class="gray" /></g>
<g><line x1="106.327" y1="118.644" x2="109.787" y2="118.046" class="gray" /></g>
<g><line x1="113.697" y1="118.443" x2="116.967" y2="119.724" class="gray" /></g>
<g><line x1="119.961" y1="122.191" x2="121.844" y2="125.155" class="gray" /></g>
<g><line x1="122.995" y1="128.917" x2="123.093" y2="132.427" class="gray" /></g>
<g><line x1="123.206" y1="136.506" x2="123.303" y2="140.017" class="gray" /></g>
<g><line x1="123.416" y1="144.096" x2="123.514" y2="147.606" class="gray" /></g>
<g><line x1="123.627" y1="151.685" x2="123.724" y2="155.196" class="gray" /></g>
<g><line x1="123.837" y1="159.275" x2="123.935" y2="162.785" class="gray" /></g>
<g><line x1="124.048" y1="166.864" x2="124.145" y2="170.375" class="gray" /></g>
<g><line x1="124.258" y1="174.454" x2="124.356" y2="177.965" class="gray" /></g>
<g><line x1="124.469" y1="182.043" x2="124.566" y2="185.554" class="gray" /></g>
<g><line x1="124.68" y1="189.633" x2="124.777" y2="193.144" class="gray" /></g>
<g><line x1="124.89" y1="197.223" x2="124.987" y2="200.733" class="gray" /></g>
<g><line x1="125.101" y1="204.812" x2="125.198" y2="208.323" class="gray" /></g>
<g><line x1="125.311" y1="212.402" x2="125.409" y2="215.912" class="gray" /></g>
<g><line x1="125.522" y1="219.991" x2="125.619" y2="223.502" class="gray" /></g>
<g><line x1="125.732" y1="227.581" x2="125.83" y2="231.091" class="gray" /></g>
<g><line x1="125.943" y1="235.17" x2="126.04" y2="238.681" class="gray" /></g>
<g><line x1="126.153" y1="242.76" x2="126.251" y2="246.27" class="gray" /></g>
<g><line x1="126.364" y1="250.349" x2="126.461" y2="253.86" class="gray" /></g>
<g><line x1="126.574" y1="257.939" x2="126.672" y2="261.45" class="gray" /></g>
<g><line x1="126.785" y1="265.528" x2="126.882" y2="269.039" class="gray" /></g>
<g><line x1="126.995" y1="273.118" x2="127.093" y2="276.629" class="gray" /></g>
<g><line x1="127.206" y1="280.708" x2="127.303" y2="284.218" class="gray" /></g>
<g><line x1="127.417" y1="288.297" x2="127.514" y2="291.808" class="gray" /></g>
<g><line x1="127.627" y1="295.887" x2="127.724" y2="299.397" class="gray" /></g>
<g><line x1="127.838" y1="303.476" x2="127.935" y2="306.987" class="gray" /></g>
<g><line x1="128.048" y1="311.066" x2="128.146" y2="314.576" class="gray" /></g>
<g><line x1="128.259" y1="318.655" x2="128.356" y2="322.166" class="gray" /></g>
<g><line x1="128.469" y1="326.245" x2="128.567" y2="329.755" class="gray" /></g>
<g><line x1="128.68" y1="333.834" x2="128.777" y2="337.345" class="gray" /></g>
<g><line x1="128.89" y1="341.424" x2="128.988" y2="344.935" class="gray" /></g>
<g><line x1="129.101" y1="349.013" x2="129.198" y2="352.524" class="gray" /></g>
<g><line x1="129.311" y1="356.603" x2="129.409" y2="360.114" class="gray" /></g>
<g><line x1="129.522" y1="364.193" x2="129.619" y2="367.703" class="gray" /></g>
<g><line x1="129.733" y1="371.782" x2="129.83" y2="375.293" class="gray" /></g>
<g><line x1="129.943" y1="379.372" x2="130.04" y2="382.882" class="gray" /></g>
<g><line x1="130.154" y1="386.961" x2="130.251" y2="390.472" class="gray" /></g>
<g><line x1="130.364" y1="394.551" x2="130.462" y2="398.061" class="gray" /></g>
<g><line x1="130.575" y1="402.14" x2="130.672" y2="405.651" class="gray" /></g>
<g><line x1="130.785" y1="409.73" x2="130.883" y2="413.241" class="gray" /></g>
<g><line x1="130.996" y1="417.319" x2="131.093" y2="420.83" class="gray" /></g>
<g><line x1="131.206" y1="424.909" x2="131.304" y2="428.42" class="gray" /></g>
<g><line x1="131.417" y1="432.498" x2="131.514" y2="436.009" class="gray" /></g>
<g><line x1="131.627" y1="440.088" x2="131.725" y2="443.599" class="gray" /></g>
<g><line x1="131.838" y1="447.678" x2="131.935" y2="451.188" class="gray" /></g>
<g><line x1="132.048" y1="455.267" x2="132.146" y2="458.778" class="gray" /></g>
<g><line x1="132.259" y1="462.857" x2="132.356" y2="466.367" class="gray" /></g>
<g><line x1="132.47" y1="470.446" x2="132.567" y2="473.957" class="gray" /></g>
<g><line x1="132.68" y1="478.036" x2="132.778" y2="481.546" class="gray" /></g>
<g><line x1="132.891" y1="485.625" x2="132.988" y2="489.136" class="gray" /></g>
<g><line x1="133.101" y1="493.215" x2="133.199" y2="496.726" class="gray" /></g>
<g><line x1="133.312" y1="500.804" x2="133.409" y2="504.315" class="gray" /></g>
<g><line x1="133.522" y1="508.394" x2="133.62" y2="511.905" class="gray" /></g>
<g><line x1="133.733" y1="515.984" x2="133.83" y2="519.494" class="gray" /></g>
<g><line x1="133.943" y1="523.573" x2="134.041" y2="527.084" class="gray" /></g>
<g><line x1="134.154" y1="531.163" x2="134.251" y2="534.673" class="gray" /></g>
<g><line x1="134.364" y1="538.752" x2="134.462" y2="542.263" class="gray" /></g>
<g><line x1="134.575" y1="546.342" x2="134.672" y2="549.852" class="gray" /></g>
<g><line x1="134.786" y1="553.931" x2="134.883" y2="557.442" class="gray" /></g>
<g><line x1="134.996" y1="561.521" x2="135.093" y2="565.031" class="gray" /></g>
<g><line x1="135.207" y1="569.11" x2="135.304" y2="572.621" class="gray" /></g>
</svg>
