<svg
	xmlns="http://www.w3.org/2000/svg"
	width="283.67"
	height="234.315"
	style="font-size: 2.592234px; font-weight: bold; font-family: Helvetica; " >
<g><style type="text/css" >
<!-- create color definitions -->
<![CDATA[
text.red {fill: rgb(255, 0, 255); }
text.green {fill: rgb(0, 255, 0); }
text.blue {fill: rgb(0, 0, 255); }
text.black {fill: rgb(0, 0, 0); }
text.gray {fill: rgb(204, 204, 204); }
text.brown {fill: rgb(211.65, 104.55, 30.6); }
text {fill: rgb(0, 0, 0); text-anchor: middle; alignment-baseline: middle; }
circle.red {stroke: rgb(255, 0, 255); fill: none; }
circle.green {stroke: rgb(0, 255, 0); fill: none; }
circle.blue {stroke: rgb(0, 0, 255); fill: none; }
circle.black {stroke: rgb(0, 0, 0); fill: none; }
circle.gray {stroke: rgb(204, 204, 204); fill: none; }
circle.brown {stroke: rgb(211.65, 104.55, 30.6); fill: none; }
circle {stroke: rgb(0, 0, 0); }
line.red {stroke: rgb(255, 0, 255); stroke-width: 0.324029; }
line.green {stroke: rgb(0, 255, 0); stroke-width: 0.324029; }
line.blue {stroke: rgb(0, 0, 255); stroke-width: 0.324029; }
line.black {stroke: rgb(0, 0, 0); stroke-width: 0.324029; }
line.gray {stroke: rgb(204, 204, 204); stroke-width: 0.324029; }
line.brown {stroke: rgb(211.65, 104.55, 30.6); stroke-width: 0.324029; }
line {stroke: rgb(0, 0, 0); }
text.numbering-label {fill: rgb(204, 204, 204);}
line.numbering-line {stroke: rgb(204, 204, 204); stroke-width: 0.162015;}
line.predicted {stroke: rgb(0, 0, 0); stroke-dasharray: 2}
text.background {fill: rgb(255, 255, 255);
.template {visibility:hidden}
]]>
</style></g>
<g><title>0 (position.label in template: 0.5')</title><text x="218.063" y="71.0825" class="green" >5'</text></g>
<g><title>1 (position.label in template: 1344.G)</title><text x="221.411" y="71.0955" class="black" >G</text></g>
<g><line x1="221.404" y1="72.5645" x2="221.382" y2="78.0312" class="black" /></g>
<g><title>2 (position.label in template: 1345.U)</title><text x="224.757" y="71.1085" class="green" >C</text></g>
<g><line x1="224.75" y1="72.5775" x2="224.728" y2="78.0452" class="black" /></g>
<g><title>3 (position.label in template: 1346.G)</title><text x="228.103" y="71.1225" class="green" >G</text></g>
<g><line x1="228.096" y1="72.5915" x2="228.074" y2="78.0582" class="black" /></g>
<g><title>4 (position.label in template: 1347.C)</title><text x="231.43" y="71.4525" class="green" >U</text></g>
<g><title>5 (position.label in template: 1348.A)</title><text x="233.67" y="73.9345" class="black" >A</text></g>
<g><title>6 (position.label in template: 1349.G)</title><text x="233.657" y="77.2785" class="black" >G</text></g>
<g><title>7 (position.label in template: 1350.C)</title><text x="231.397" y="79.7425" class="green" >A</text></g>
<g><title>8 (position.label in template: 1351.C)</title><text x="228.068" y="80.0455" class="green" >A</text></g>
<g><title>9 (position.label in template: 1352.G)</title><text x="224.721" y="80.0325" class="green" >G</text></g>
<g><title>10 (position.label in template: 1353.C)</title><text x="221.375" y="80.0185" class="black" >C</text></g>
<g><title>10 (inserted)</title><text x="221.93" y="85.8246" class="numbering-label sequential" >10</text></g>
<g><line x1="221.523" y1="81.5668" x2="221.806" y2="84.5285" class="numbering-line sequential" /></g>
<g><title>11 (inserted)</title><text x="218.091" y="80.6664" class="red" >U</text></g>
<g><title>12 (inserted)</title><text x="214.807" y="81.3142" class="red" >U</text></g>
<g><title>13 (inserted)</title><text x="211.523" y="81.962" class="red" >C</text></g>
<g><title>14 (inserted)</title><text x="208.239" y="82.6099" class="red" >U</text></g>
<g><title>15 (inserted)</title><text x="204.955" y="83.2577" class="red" >G</text></g>
<g><title>16 (position.label in template: 1359.A)</title><text x="201.671" y="83.9056" class="black" >A</text></g>
<g><title>17 (position.label in template: 1360.A)</title><text x="198.236" y="83.8586" class="green" >U</text></g>
<g><title>18 (inserted)</title><text x="196.918" y="84.8905" class="red" >G</text></g>
<g><title>19 (inserted)</title><text x="191.648" y="89.0181" class="red" >G</text></g>
<g><title>20 (position.label in template: 1363.U)</title><text x="190.33" y="90.05" class="black" >U</text></g>
<g><title>20 (inserted)</title><text x="194.578" y="94.0464" class="numbering-label sequential" >20</text></g>
<g><line x1="191.463" y1="91.1157" x2="193.2" y2="92.7503" class="numbering-line sequential" /></g>
<g><title>21 (position.label in template: 1364.U)</title><text x="187.245" y="93.698" class="green" >G</text></g>
<g><line x1="185.517" y1="93.4533" x2="180.05" y2="93.4992" class="black" /></g>
<g><title>22 (position.label in template: 1365.C)</title><text x="187.273" y="97.045" class="green" >G</text></g>
<g><line x1="185.545" y1="96.8001" x2="180.078" y2="96.8454" class="black" /></g>
<g><title>23 (position.label in template: 1366.G)</title><text x="187.301" y="100.391" class="black" >G</text></g>
<g><line x1="185.573" y1="100.146" x2="180.106" y2="100.192" class="black" /></g>
<g><title>24 (position.label in template: 1367.U)</title><text x="187.329" y="103.737" class="green" >U</text></g>
<g><line x1="185.601" y1="103.492" x2="180.134" y2="103.538" class="black" /></g>
<g><title>25 (position.label in template: 1368.U)</title><text x="187.357" y="107.084" class="green" >C</text></g>
<g><line x1="185.629" y1="106.839" x2="180.162" y2="106.884" class="black" /></g>
<g><title>26 (position.label in template: 1369.U)</title><text x="187.823" y="110.396" class="black" >U</text></g>
<g><title>27 (position.label in template: 1370.G)</title><text x="186.1" y="113.262" class="black" >G</text></g>
<g><title>28 (position.label in template: 1371.U)</title><text x="182.956" y="114.406" class="black" >U</text></g>
<g><title>29 (position.label in template: 1372.U)</title><text x="179.794" y="113.315" class="black" >U</text></g>
<g><title>30 (position.label in template: 1373.C)</title><text x="178.023" y="110.478" class="black" >C</text></g>
<g><title>30 (inserted)</title><text x="172.328" y="111.736" class="numbering-label sequential" >30</text></g>
<g><line x1="176.504" y1="110.813" x2="173.883" y2="111.392" class="numbering-line sequential" /></g>
<g><title>31 (position.label in template: 1374.A)</title><text x="178.434" y="107.158" class="green" >G</text></g>
<g><title>32 (position.label in template: 1375.A)</title><text x="178.406" y="103.812" class="green" >C</text></g>
<g><title>33 (position.label in template: 1376.C)</title><text x="178.378" y="100.466" class="black" >C</text></g>
<g><title>34 (position.label in template: 1377.G)</title><text x="178.35" y="97.119" class="green" >C</text></g>
<g><title>35 (position.label in template: 1378.A)</title><text x="178.322" y="93.773" class="green" >U</text></g>
<g><title>36 (position.label in template: 1379.U)</title><text x="174.037" y="95.953" class="black" >U</text></g>
<g><title>37 (position.label in template: 1380.U)</title><text x="170.847" y="95.028" class="black" >U</text></g>
<g><title>38 (position.label in template: 1381.A)</title><text x="168.54" y="92.638" class="black" >A</text></g>
<g><title>39 (position.label in template: 1382.A)</title><text x="167.728" y="89.417" class="black" >A</text></g>
<g><title>40 (position.label in template: 1383.A)</title><text x="168.625" y="86.219" class="black" >A</text></g>
<g><title>41 (inserted)</title><text x="165.756" y="84.4941" class="red" >A</text></g>
<g><title>42 (inserted)</title><text x="162.888" y="82.7693" class="red" >U</text></g>
<g><title>43 (inserted)</title><text x="160.019" y="81.0445" class="red" >C</text></g>
<g><title>44 (inserted)</title><text x="157.151" y="79.3197" class="red" >U</text></g>
<g><title>45 (inserted)</title><text x="154.282" y="77.5949" class="red" >A</text></g>
<g><title>46 (position.label in template: 1389.A)</title><text x="151.413" y="75.87" class="black" >A</text></g>
<g><title>47 (position.label in template: 1390.C)</title><text x="148.223" y="74.724" class="black" >C</text></g>
<g><title>48 (inserted)</title><text x="145.422" y="72.892" class="red" >A</text></g>
<g><title>49 (position.label in template: 1392.U)</title><text x="142.621" y="71.06" class="black" >U</text></g>
<g><title>50 (position.label in template: 1393.G)</title><text x="139.495" y="69.484" class="black" >G</text></g>
<g><title>50 (inserted)</title><text x="142.299" y="64.37" class="numbering-label sequential" >50</text></g>
<g><line x1="140.242" y1="68.1202" x2="141.588" y2="65.6661" class="numbering-line sequential" /></g>
<g><title>51 (inserted)</title><text x="138.089" y="68.575" class="red" >A</text></g>
<g><title>52 (inserted)</title><text x="135.279" y="66.757" class="red" >G</text></g>
<g><title>53 (inserted)</title><text x="129.658" y="63.121" class="red" >C</text></g>
<g><title>54 (inserted)</title><text x="126.847" y="61.303" class="red" >U</text></g>
<g><title>55 (position.label in template: 1398.G)</title><text x="125.442" y="60.394" class="black" >G</text></g>
<g><title>56 (inserted)</title><text x="122.661" y="57.1895" class="red" >A</text></g>
<g><title>57 (position.label in template: 1400.G)</title><text x="119.881" y="53.985" class="black" >G</text></g>
<g><title>58 (position.label in template: 1401.U)</title><text x="115.81" y="57.014" class="black" >U</text></g>
<g><title>59 (position.label in template: 1402.U)</title><text x="110.546" y="59.171" class="black" >U</text></g>
<g><title>60 (position.label in template: 1403.C)</title><text x="104.695" y="60.03" class="black" >C</text></g>
<g><title>61 (position.label in template: 1404.A)</title><text x="100.68" y="60.707" class="black" >A</text></g>
<g><title>62 (position.label in template: 1405.G)</title><text x="96.5" y="60.512" class="black" >G</text></g>
<g><line x1="94.7718" y1="60.2528" x2="89.3042" y2="60.2528" class="black" /></g>
<g><title>63 (position.label in template: 1406.A)</title><text x="96.5" y="63.858" class="black" >A</text></g>
<g><line x1="94.7718" y1="63.5988" x2="89.3042" y2="63.5988" class="black" /></g>
<g><title>64 (position.label in template: 1407.C)</title><text x="96.5" y="67.204" class="green" >A</text></g>
<g><line x1="94.7718" y1="66.9448" x2="89.3042" y2="66.9448" class="black" /></g>
<g><title>65 (position.label in template: 1408.C)</title><text x="96.5" y="70.55" class="black" >C</text></g>
<g><line x1="94.7718" y1="70.2908" x2="89.3042" y2="70.2908" class="black" /></g>
<g><title>66 (position.label in template: 1409.G)</title><text x="96.199" y="75.675" class="green" >G</text></g>
<g><line x1="94.4709" y1="75.4262" x2="89.0041" y2="75.4593" class="black" /></g>
<g><title>67 (position.label in template: 1410.G)</title><text x="96.219" y="79.021" class="black" >G</text></g>
<g><line x1="94.4909" y1="78.7722" x2="89.0241" y2="78.8053" class="black" /></g>
<g><title>68 (position.label in template: 1411.A)</title><text x="96.239" y="82.368" class="green" >C</text></g>
<g><line x1="94.5109" y1="82.119" x2="89.0441" y2="82.1515" class="black" /></g>
<g><title>69 (position.label in template: 1412.G)</title><text x="95.942" y="85.698" class="black" >G</text></g>
<g><title>70 (position.label in template: 1413.U)</title><text x="93.482" y="87.963" class="black" >U</text></g>
<g><title>71 (position.label in template: 1414.A)</title><text x="90.139" y="87.983" class="green" >G</text></g>
<g><title>72 (position.label in template: 1415.A)</title><text x="87.652" y="85.748" class="black" >A</text></g>
<g><title>73 (position.label in template: 1416.U)</title><text x="87.316" y="82.421" class="green" >G</text></g>
<g><title>74 (position.label in template: 1417.C)</title><text x="87.296" y="79.075" class="black" >C</text></g>
<g><title>75 (position.label in template: 1418.C)</title><text x="87.276" y="75.729" class="green" >U</text></g>
<g><title>76 (position.label in template: 1419.A)</title><text x="84.803" y="72.987" class="black" >A</text></g>
<g><title>77 (position.label in template: 1420.G)</title><text x="87.576" y="70.55" class="black" >G</text></g>
<g><title>78 (position.label in template: 1421.G)</title><text x="87.576" y="67.204" class="green" >U</text></g>
<g><title>79 (position.label in template: 1422.U)</title><text x="87.576" y="63.858" class="black" >U</text></g>
<g><title>80 (position.label in template: 1423.C)</title><text x="87.576" y="60.512" class="black" >C</text></g>
<g><title>81 (position.label in template: 1424.G)</title><text x="84.749" y="57.803" class="green" >A</text></g>
<g><title>82 (position.label in template: 1425.G)</title><text x="80.816" y="55.966" class="black" >G</text></g>
<g><title>83 (position.label in template: 1426.U)</title><text x="77.14" y="53.803" class="black" >U</text></g>
<g><title>84 (position.label in template: 1427.U)</title><text x="73.543" y="50" class="black" >U</text></g>
<g><title>85 (inserted)</title><text x="72.5417" y="52.4268" class="red" >U</text></g>
<g><title>86 (inserted)</title><text x="69.9883" y="58.6152" class="red" >C</text></g>
<g><title>87 (position.label in template: 1430.U)</title><text x="68.987" y="61.042" class="black" >U</text></g>
<g><title>88 (position.label in template: 1431.A)</title><text x="66.322" y="65.012" class="black" >A</text></g>
<g><title>89 (inserted)</title><text x="63.2092" y="70.3645" class="red" >U</text></g>
<g><title>90 (inserted)</title><text x="61.5265" y="73.258" class="red" >C</text></g>
<g><title>91 (inserted)</title><text x="59.8437" y="76.1515" class="red" >C</text></g>
<g><title>92 (inserted)</title><text x="56.4783" y="81.9385" class="red" >U</text></g>
<g><title>93 (inserted)</title><text x="54.7955" y="84.832" class="red" >C</text></g>
<g><title>94 (inserted)</title><text x="53.1128" y="87.7255" class="red" >U</text></g>
<g><title>95 (position.label in template: 1438.U)</title><text x="50" y="93.078" class="black" >U</text></g>
<g><title>96 (position.label in template: 1439.U)</title><text x="60.724" y="100.74" class="black" >U</text></g>
<g><title>97 (position.label in template: 1440.C)</title><text x="71.409" y="108.082" class="green" >U</text></g>
<g><title>98 (inserted)</title><text x="82.4675" y="110.658" class="red" >U</text></g>
<g><title>99 (inserted)</title><text x="85.7275" y="111.417" class="red" >G</text></g>
<g><title>100 (inserted)</title><text x="88.9875" y="112.176" class="red" >A</text></g>
<g><title>100 (inserted)</title><text x="87.6644" y="117.857" class="numbering-label sequential" >100</text></g>
<g><line x1="88.6347" y1="113.691" x2="87.9663" y2="116.561" class="numbering-line sequential" /></g>
<g><title>101 (position.label in template: 1442.A)</title><text x="100.046" y="114.752" class="black" >A</text></g>
<g><title>102 (inserted)</title><text x="103.391" y="114.866" class="red" >A</text></g>
<g><title>103 (inserted)</title><text x="106.737" y="114.98" class="red" >U</text></g>
<g><title>104 (inserted)</title><text x="110.082" y="115.095" class="red" >G</text></g>
<g><title>105 (position.label in template: 1443.A)</title><text x="113.427" y="115.209" class="black" >A</text></g>
<g><title>106 (position.label in template: 1444.U)</title><text x="124.573" y="115.469" class="green" >G</text></g>
<g><line x1="126.301" y1="115.213" x2="131.768" y2="115.222" class="black" /></g>
<g><title>107 (position.label in template: 1445.U)</title><text x="124.578" y="112.123" class="green" >C</text></g>
<g><line x1="126.306" y1="111.867" x2="131.774" y2="111.876" class="black" /></g>
<g><title>108 (position.label in template: 1446.C)</title><text x="123.19" y="108.774" class="green" >U</text></g>
<g><line x1="124.918" y1="108.518" x2="133.174" y2="108.533" class="black" /></g>
<g><title>109 (position.label in template: 1447.C)</title><text x="124.59" y="105.43" class="green" >A</text></g>
<g><line x1="126.318" y1="105.174" x2="131.785" y2="105.184" class="black" /></g>
<g><title>110 (position.label in template: 1448.U)</title><text x="124.596" y="102.084" class="green" >A</text></g>
<g><line x1="126.324" y1="101.828" x2="131.791" y2="101.837" class="black" /></g>
<g><title>111 (position.label in template: 1449.C)</title><text x="124.602" y="98.7369" class="green" >U</text></g>
<g><line x1="126.33" y1="98.4808" x2="131.797" y2="98.4906" class="black" /></g>
<g><title>112 (position.label in template: 1450.C)</title><text x="123.213" y="95.3889" class="green" >U</text></g>
<g><line x1="124.941" y1="95.1328" x2="133.197" y2="95.1476" class="black" /></g>
<g><title>113 (position.label in template: 1451.C)</title><text x="121.593" y="93.9599" class="green" >U</text></g>
<g><title>114 (position.label in template: 1452.U)</title><text x="120.359" y="90.8589" class="black" >U</text></g>
<g><title>115 (position.label in template: 1453.G)</title><text x="121.567" y="87.7479" class="black" >G</text></g>
<g><title>116 (position.label in template: 1454.U)</title><text x="124.569" y="86.2909" class="black" >U</text></g>
<g><line x1="126.297" y1="86.0317" x2="131.764" y2="86.0317" class="black" /></g>
<g><title>117 (position.label in template: 1455.A)</title><text x="123.174" y="82.9449" class="black" >A</text></g>
<g><line x1="124.902" y1="82.6857" x2="133.158" y2="82.6857" class="black" /></g>
<g><title>118 (position.label in template: 1456.C)</title><text x="124.569" y="79.5979" class="black" >C</text></g>
<g><line x1="126.297" y1="79.3387" x2="131.764" y2="79.3387" class="black" /></g>
<g><title>119 (position.label in template: 1457.G)</title><text x="124.885" y="76.2699" class="black" >G</text></g>
<g><title>120 (position.label in template: 1458.A)</title><text x="127.358" y="74.0209" class="black" >A</text></g>
<g><title>121 (position.label in template: 1459.A)</title><text x="130.702" y="74.0209" class="black" >A</text></g>
<g><title>122 (position.label in template: 1460.A)</title><text x="133.176" y="76.2699" class="black" >A</text></g>
<g><title>123 (position.label in template: 1461.G)</title><text x="133.492" y="79.5979" class="black" >G</text></g>
<g><title>124 (position.label in template: 1462.G)</title><text x="134.886" y="82.9449" class="black" >G</text></g>
<g><title>125 (position.label in template: 1463.A)</title><text x="133.492" y="86.2909" class="black" >A</text></g>
<g><title>126 (position.label in template: 1464.C)</title><text x="137.118" y="88.6659" class="black" >C</text></g>
<g><title>127 (position.label in template: 1465.A)</title><text x="137.136" y="93.0009" class="green" >U</text></g>
<g><title>128 (position.label in template: 1466.A)</title><text x="134.925" y="95.4099" class="green" >U</text></g>
<g><title>129 (position.label in template: 1467.G)</title><text x="133.525" y="98.7529" class="green" >U</text></g>
<g><title>130 (position.label in template: 1468.A)</title><text x="133.519" y="102.099" class="green" >U</text></g>
<g><title>131 (position.label in template: 1469.G)</title><text x="133.513" y="105.446" class="green" >U</text></g>
<g><title>132 (position.label in template: 1470.A)</title><text x="134.902" y="108.795" class="green" >C</text></g>
<g><title>133 (position.label in template: 1471.A)</title><text x="133.502" y="112.138" class="green" >G</text></g>
<g><title>134 (position.label in template: 1472.A)</title><text x="133.496" y="115.484" class="green" >C</text></g>
<g><title>135 (position.label in template: 1473.U)</title><text x="140.644" y="116.707" class="black" >U</text></g>
<g><line x1="140.64" y1="118.176" x2="140.621" y2="126.432" class="black" /></g>
<g><title>136 (position.label in template: 1474.A)</title><text x="144.359" y="114.577" class="black" >A</text></g>
<g><title>137 (position.label in template: 1475.A)</title><text x="146.589" y="118.117" class="black" >A</text></g>
<g><line x1="146.585" y1="119.586" x2="146.573" y2="125.053" class="black" /></g>
<g><title>138 (position.label in template: 1476.G)</title><text x="149.936" y="118.125" class="green" >A</text></g>
<g><line x1="149.932" y1="119.594" x2="149.92" y2="125.061" class="black" /></g>
<g><title>139 (position.label in template: 1477.G)</title><text x="153.282" y="118.132" class="black" >G</text></g>
<g><line x1="153.278" y1="119.601" x2="153.266" y2="125.068" class="black" /></g>
<g><title>140 (position.label in template: 1478.C)</title><text x="156.628" y="118.14" class="black" >C</text></g>
<g><line x1="156.624" y1="119.609" x2="156.612" y2="125.076" class="black" /></g>
<g><title>141 (position.label in template: 1479.C)</title><text x="159.78" y="119.454" class="green" >A</text></g>
<g><title>142 (position.label in template: 1487.C)</title><text x="161.08" y="122.611" class="green" >A</text></g>
<g><title>143 (position.label in template: 1488.A)</title><text x="159.766" y="125.763" class="green" >U</text></g>
<g><title>144 (position.label in template: 1493.G)</title><text x="156.608" y="127.063" class="black" >G</text></g>
<g><title>145 (position.label in template: 1494.C)</title><text x="153.262" y="127.055" class="black" >C</text></g>
<g><title>146 (position.label in template: 1495.C)</title><text x="149.916" y="127.048" class="green" >U</text></g>
<g><title>147 (position.label in template: 1496.U)</title><text x="146.569" y="127.04" class="black" >U</text></g>
<g><title>148 (position.label in template: 1497.U)</title><text x="140.617" y="128.419" class="black" >U</text></g>
<g><title>149 (position.label in template: 1498.C)</title><text x="136.533" y="128.164" class="green" >G</text></g>
<g><title>150 (position.label in template: 1499.C)</title><text x="137.775" y="131.747" class="green" >U</text></g>
<g><title>150 (inserted)</title><text x="132.532" y="134.303" class="numbering-label sequential" >150</text></g>
<g><line x1="136.377" y1="132.428" x2="135.191" y2="133.007" class="numbering-line sequential" /></g>
<g><title>151 (position.label in template: 1500.C)</title><text x="139.868" y="135.005" class="black" >C</text></g>
<g><title>152 (position.label in template: 1501.C)</title><text x="140.208" y="138.605" class="green" >A</text></g>
<g><title>153 (position.label in template: 1502.C)</title><text x="139.177" y="142.471" class="black" >C</text></g>
<g><title>154 (inserted)</title><text x="138.538" y="144.018" class="red" >A</text></g>
<g><title>155 (inserted)</title><text x="135.983" y="150.205" class="red" >A</text></g>
<g><title>156 (position.label in template: 1503.G)</title><text x="135.344" y="151.752" class="green" >A</text></g>
<g><title>157 (position.label in template: 1504.U)</title><text x="133.701" y="155.568" class="green" >U</text></g>
<g><line x1="131.973" y1="155.309" x2="126.506" y2="155.309" class="black" /></g>
<g><title>158 (position.label in template: 1505.A)</title><text x="133.701" y="158.914" class="green" >C</text></g>
<g><line x1="131.973" y1="158.655" x2="126.506" y2="158.655" class="black" /></g>
<g><title>159 (position.label in template: 1506.A)</title><text x="133.701" y="162.261" class="green" >U</text></g>
<g><line x1="131.973" y1="162.002" x2="126.506" y2="162.002" class="black" /></g>
<g><title>160 (position.label in template: 1507.A)</title><text x="135.095" y="165.607" class="green" >G</text></g>
<g><line x1="133.367" y1="165.348" x2="125.111" y2="165.348" class="black" /></g>
<g><title>161 (position.label in template: 1508.U)</title><text x="137.433" y="167.852" class="blue" >U</text></g>
<g><title>162 (position.label in template: 1509.G)</title><text x="138.955" y="170.713" class="green" >A</text></g>
<g><title>163 (position.label in template: 1510.A)</title><text x="139.509" y="173.906" class="green" >U</text></g>
<g><title>164 (position.label in template: 1511.U)</title><text x="139.041" y="177.113" class="blue" >U</text></g>
<g><title>165 (position.label in template: 1512.A)</title><text x="137.597" y="180.014" class="green" >U</text></g>
<g><title>166 (position.label in template: 1513.U)</title><text x="135.321" y="182.321" class="green" >G</text></g>
<g><title>167 (position.label in template: 1514.C)</title><text x="132.439" y="183.804" class="blue" >C</text></g>
<g><title>168 (position.label in template: 1515.A)</title><text x="129.239" y="184.315" class="blue" >A</text></g>
<g><title>169 (position.label in template: 1516.U)</title><text x="126.039" y="183.804" class="blue" >U</text></g>
<g><title>170 (position.label in template: 1517.C)</title><text x="123.158" y="182.321" class="green" >A</text></g>
<g><title>171 (inserted)</title><text x="120.882" y="180.014" class="red" >A</text></g>
<g><title>172 (position.label in template: 1518.U)</title><text x="119.438" y="177.113" class="green" >A</text></g>
<g><title>173 (position.label in template: 1519.C)</title><text x="118.97" y="173.906" class="green" >U</text></g>
<g><title>174 (position.label in template: 1520.A)</title><text x="119.524" y="170.713" class="blue" >A</text></g>
<g><title>175 (position.label in template: 1521.A)</title><text x="121.046" y="167.852" class="blue" >A</text></g>
<g><title>176 (position.label in template: 1522.C)</title><text x="123.383" y="165.607" class="green" >U</text></g>
<g><title>177 (position.label in template: 1523.U)</title><text x="124.778" y="162.261" class="green" >A</text></g>
<g><title>178 (position.label in template: 1524.U)</title><text x="124.778" y="158.914" class="green" >G</text></g>
<g><title>179 (position.label in template: 1525.A)</title><text x="124.778" y="155.568" class="green" >U</text></g>
<g><title>180 (position.label in template: 1526.G)</title><text x="123.415" y="152.882" class="black" >G</text></g>
<g><title>181 (position.label in template: 1527.U)</title><text x="120.777" y="150.656" class="black" >U</text></g>
<g><title>182 (position.label in template: 1528.A)</title><text x="119.207" y="147.484" class="black" >A</text></g>
<g><title>183 (position.label in template: 1529.U)</title><text x="118.336" y="143.938" class="black" >U</text></g>
<g><title>184 (position.label in template: 1530.U)</title><text x="118.149" y="140.23" class="green" >A</text></g>
<g><title>185 (position.label in template: 1531.A)</title><text x="120.009" y="136.523" class="black" >A</text></g>
<g><title>186 (position.label in template: 1532.U)</title><text x="122.053" y="134.116" class="black" >U</text></g>
<g><title>187 (position.label in template: 1533.A)</title><text x="117.478" y="133.911" class="black" >A</text></g>
<g><title>188 (position.label in template: 1534.C)</title><text x="113.844" y="133.917" class="green" >G</text></g>
<g><title>189 (position.label in template: 1535.C)</title><text x="109.825" y="133.949" class="green" >G</text></g>
<g><title>190 (position.label in template: 1536.C)</title><text x="105.52" y="134.242" class="green" >U</text></g>
<g><title>191 (position.label in template: 1537.A)</title><text x="101.439" y="134.248" class="green" >U</text></g>
<g><title>192 (position.label in template: 1538.C)</title><text x="97.4243" y="134.404" class="green" >G</text></g>
<g><title>193 (position.label in template: 1539.A)</title><text x="93.3393" y="134.6" class="black" >A</text></g>
<g><title>194 (position.label in template: 1540.C)</title><text x="89.4203" y="134.57" class="green" >U</text></g>
<g><title>195 (position.label in template: 1541.C)</title><text x="85.6563" y="134.57" class="green" >U</text></g>
<g><title>196 (position.label in template: 1542.C)</title><text x="81.8913" y="134.57" class="green" >A</text></g>
<g><title>197 (position.label in template: 1543.A)</title><text x="77.4823" y="134.712" class="green" >G</text></g>
<g><line x1="75.7542" y1="134.453" x2="70.2875" y2="134.453" class="black" /></g>
<g><title>198 (position.label in template: 1544.C)</title><text x="77.4823" y="138.058" class="black" >C</text></g>
<g><line x1="75.7542" y1="137.799" x2="70.2875" y2="137.799" class="black" /></g>
<g><title>199 (position.label in template: 1545.C)</title><text x="77.4823" y="141.404" class="black" >C</text></g>
<g><line x1="75.7542" y1="141.145" x2="70.2875" y2="141.145" class="black" /></g>
<g><title>200 (position.label in template: 1546.C)</title><text x="77.4823" y="144.751" class="green" >U</text></g>
<g><line x1="75.7542" y1="144.492" x2="70.2875" y2="144.492" class="black" /></g>
<g><title>200 (inserted)</title><text x="83.179" y="143.5" class="numbering-label sequential" >200</text></g>
<g><line x1="79.0014" y1="144.418" x2="80.846" y2="144.012" class="numbering-line sequential" /></g>
<g><title>201 (position.label in template: 1547.A)</title><text x="78.8853" y="147.79" class="black" >A</text></g>
<g><title>202 (position.label in template: 1548.A)</title><text x="78.4193" y="151.105" class="green" >U</text></g>
<g><title>203 (position.label in template: 1549.G)</title><text x="76.2323" y="153.638" class="green" >A</text></g>
<g><title>204 (position.label in template: 1550.A)</title><text x="73.0203" y="154.583" class="green" >G</text></g>
<g><title>205 (position.label in template: 1551.A)</title><text x="69.8093" y="153.638" class="black" >A</text></g>
<g><title>206 (position.label in template: 1552.C)</title><text x="67.6223" y="151.105" class="green" >A</text></g>
<g><title>207 (position.label in template: 1553.A)</title><text x="67.1553" y="147.79" class="black" >A</text></g>
<g><title>208 (position.label in template: 1554.G)</title><text x="68.5593" y="144.751" class="green" >G</text></g>
<g><title>209 (position.label in template: 1555.G)</title><text x="68.5593" y="141.404" class="black" >G</text></g>
<g><title>210 (position.label in template: 1556.G)</title><text x="68.5593" y="138.058" class="black" >G</text></g>
<g><title>211 (position.label in template: 1557.U)</title><text x="68.5593" y="134.712" class="green" >U</text></g>
<g><title>212 (position.label in template: 1558.U)</title><text x="65.2123" y="134.748" class="green" >C</text></g>
<g><title>213 (position.label in template: 1559.U)</title><text x="61.865" y="134.748" class="green" >A</text></g>
<g><title>214 (position.label in template: 1560.3')</title><text x="58.5178" y="134.748" class="green" >3'</text></g>
<g><line x1="195.558" y1="85.6968" x2="193.008" y2="87.6933" class="gray" /></g>
<g><line x1="189.214" y1="91.1103" x2="188.361" y2="92.1192" class="gray" /></g>
<g><line x1="176.782" y1="94.2973" x2="175.577" y2="94.9101" class="gray" /></g>
<g><line x1="141.077" y1="70.0228" x2="141.038" y2="70.0027" class="gray" /></g>
<g><line x1="133.828" y1="65.5591" x2="131.109" y2="63.8004" class="gray" /></g>
<g><line x1="124.309" y1="58.8295" x2="123.794" y2="58.2356" class="gray" /></g>
<g><line x1="121.529" y1="55.625" x2="121.014" y2="55.0311" class="gray" /></g>
<g><line x1="118.495" y1="54.7574" x2="117.196" y2="55.7232" class="gray" /></g>
<g><line x1="114.211" y1="57.41" x2="112.145" y2="58.2565" class="gray" /></g>
<g><line x1="108.836" y1="59.1628" x2="106.405" y2="59.5198" class="gray" /></g>
<g><line x1="102.991" y1="60.0581" x2="102.384" y2="60.1604" class="gray" /></g>
<g><line x1="98.9537" y1="60.3672" x2="98.2263" y2="60.3333" class="gray" /></g>
<g><line x1="96.3987" y1="72.016" x2="96.3003" y2="73.6906" class="gray" /></g>
<g><line x1="86.1186" y1="74.1865" x2="85.9604" y2="74.0111" class="gray" /></g>
<g><line x1="86.1011" y1="71.587" x2="86.2779" y2="71.4316" class="gray" /></g>
<g><line x1="86.3282" y1="59.0571" x2="85.9968" y2="58.7394" class="gray" /></g>
<g><line x1="83.1832" y1="56.8124" x2="82.3818" y2="56.4381" class="gray" /></g>
<g><line x1="79.3266" y1="54.8304" x2="78.6294" y2="54.4202" class="gray" /></g>
<g><line x1="75.9525" y1="52.2883" x2="74.7305" y2="50.9963" class="gray" /></g>
<g><line x1="71.8825" y1="53.7651" x2="70.6475" y2="56.7585" class="gray" /></g>
<g><line x1="68.0238" y1="62.2176" x2="67.2852" y2="63.3179" class="gray" /></g>
<g><line x1="65.4532" y1="66.2467" x2="64.078" y2="68.6113" class="gray" /></g>
<g><line x1="58.975" y1="77.3862" x2="57.347" y2="80.1854" class="gray" /></g>
<g><line x1="52.244" y1="88.9602" x2="50.8688" y2="91.3249" class="gray" /></g>
<g><line x1="51.4061" y1="93.8234" x2="59.3179" y2="99.4761" class="gray" /></g>
<g><line x1="62.1483" y1="101.459" x2="69.9847" y2="106.844" class="gray" /></g>
<g><line x1="73.0921" y1="108.215" x2="80.7844" y2="110.006" class="gray" /></g>
<g><line x1="90.6706" y1="112.309" x2="98.3629" y2="114.101" class="gray" /></g>
<g><line x1="115.155" y1="114.99" x2="122.845" y2="115.169" class="gray" /></g>
<g><line x1="123.917" y1="110.267" x2="123.852" y2="110.111" class="gray" /></g>
<g><line x1="123.858" y1="106.921" x2="123.923" y2="106.765" class="gray" /></g>
<g><line x1="123.94" y1="96.8814" x2="123.875" y2="96.7259" class="gray" /></g>
<g><line x1="123.904" y1="84.4366" x2="123.839" y2="84.2808" class="gray" /></g>
<g><line x1="123.839" y1="81.0905" x2="123.904" y2="80.9338" class="gray" /></g>
<g><line x1="134.157" y1="80.934" x2="134.222" y2="81.0904" class="gray" /></g>
<g><line x1="134.222" y1="84.2809" x2="134.157" y2="84.4364" class="gray" /></g>
<g><line x1="134.938" y1="86.9786" x2="135.673" y2="87.4598" class="gray" /></g>
<g><line x1="137.125" y1="90.1348" x2="137.129" y2="91.0135" class="gray" /></g>
<g><line x1="134.258" y1="96.7447" x2="134.193" y2="96.8997" class="gray" /></g>
<g><line x1="134.175" y1="106.783" x2="134.24" y2="106.939" class="gray" /></g>
<g><line x1="134.235" y1="110.13" x2="134.17" y2="110.285" class="gray" /></g>
<g><line x1="135.2" y1="115.516" x2="138.941" y2="116.156" class="gray" /></g>
<g><line x1="142.143" y1="115.588" x2="142.86" y2="115.177" class="gray" /></g>
<g><line x1="145.28" y1="115.78" x2="145.668" y2="116.395" class="gray" /></g>
<g><line x1="144.886" y1="127.171" x2="142.301" y2="127.77" class="gray" /></g>
<g><line x1="138.892" y1="128.052" x2="138.258" y2="128.012" class="gray" /></g>
<g><line x1="137.099" y1="129.538" x2="137.209" y2="129.855" class="gray" /></g>
<g><line x1="138.709" y1="132.942" x2="138.934" y2="133.292" class="gray" /></g>
<g><line x1="140.031" y1="136.466" x2="140.046" y2="136.625" class="gray" /></g>
<g><line x1="139.763" y1="140.015" x2="139.622" y2="140.542" class="gray" /></g>
<g><line x1="137.879" y1="145.356" x2="136.643" y2="148.349" class="gray" /></g>
<g><line x1="134.661" y1="153.08" x2="134.385" y2="153.722" class="gray" /></g>
<g><line x1="134.366" y1="163.597" x2="134.431" y2="163.753" class="gray" /></g>
<g><line x1="124.048" y1="163.753" x2="124.113" y2="163.597" class="gray" /></g>
<g><line x1="120.011" y1="148.848" x2="119.974" y2="148.774" class="gray" /></g>
<g><line x1="118.795" y1="145.547" x2="118.749" y2="145.357" class="gray" /></g>
<g><line x1="118.249" y1="141.953" x2="118.236" y2="141.697" class="gray" /></g>
<g><line x1="118.924" y1="138.427" x2="119.234" y2="137.809" class="gray" /></g>
<g><line x1="120.327" y1="133.78" x2="119.205" y2="133.729" class="gray" /></g>
<g><line x1="115.75" y1="133.655" x2="115.572" y2="133.655" class="gray" /></g>
<g><line x1="112.116" y1="133.672" x2="111.553" y2="133.676" class="gray" /></g>
<g><line x1="108.101" y1="133.807" x2="107.244" y2="133.866" class="gray" /></g>
<g><line x1="103.792" y1="133.986" x2="103.167" y2="133.987" class="gray" /></g>
<g><line x1="99.7125" y1="134.056" x2="99.1512" y2="134.078" class="gray" /></g>
<g><line x1="95.6982" y1="134.228" x2="95.0655" y2="134.258" class="gray" /></g>
<g><line x1="91.6112" y1="134.328" x2="91.1484" y2="134.324" class="gray" /></g>
<g><line x1="87.6922" y1="134.311" x2="87.3845" y2="134.311" class="gray" /></g>
<g><line x1="83.9282" y1="134.311" x2="83.6195" y2="134.311" class="gray" /></g>
<g><line x1="80.1641" y1="134.367" x2="79.2096" y2="134.398" class="gray" /></g>
</svg>
