<svg
	xmlns="http://www.w3.org/2000/svg"
	width="356.34"
	height="362.737"
	style="font-size: 3.068569px; font-weight: bold; font-family: Helvetica; " >
<g><style type="text/css" >
<!-- create color definitions -->
<![CDATA[
text.red {fill: rgb(255, 0, 255); }
text.green {fill: rgb(0, 255, 0); }
text.blue {fill: rgb(0, 0, 255); }
text.black {fill: rgb(0, 0, 0); }
text.gray {fill: rgb(204, 204, 204); }
text.brown {fill: rgb(211.65, 104.55, 30.6); }
text {fill: rgb(0, 0, 0); text-anchor: middle; alignment-baseline: middle; }
circle.red {stroke: rgb(255, 0, 255); fill: none; }
circle.green {stroke: rgb(0, 255, 0); fill: none; }
circle.blue {stroke: rgb(0, 0, 255); fill: none; }
circle.black {stroke: rgb(0, 0, 0); fill: none; }
circle.gray {stroke: rgb(204, 204, 204); fill: none; }
circle.brown {stroke: rgb(211.65, 104.55, 30.6); fill: none; }
circle {stroke: rgb(0, 0, 0); }
line.red {stroke: rgb(255, 0, 255); stroke-width: 0.383571; }
line.green {stroke: rgb(0, 255, 0); stroke-width: 0.383571; }
line.blue {stroke: rgb(0, 0, 255); stroke-width: 0.383571; }
line.black {stroke: rgb(0, 0, 0); stroke-width: 0.383571; }
line.gray {stroke: rgb(204, 204, 204); stroke-width: 0.383571; }
line.brown {stroke: rgb(211.65, 104.55, 30.6); stroke-width: 0.383571; }
line {stroke: rgb(0, 0, 0); }
text.numbering-label {fill: rgb(204, 204, 204);}
line.numbering-line {stroke: rgb(204, 204, 204); stroke-width: 0.191786;}
line.predicted {stroke: rgb(0, 0, 0); stroke-dasharray: 2}
text.background {fill: rgb(255, 255, 255);
.template {visibility:hidden}
]]>
</style></g>
<g><title>0 (position.label in template: 0.5')</title><text x="121.388" y="281.166" class="green" >5'</text></g>
<g><title>1 (position.label in template: 1.N)</title><text x="128.955" y="281.166" class="green" >A</text></g>
<g><title>2 (position.label in template: 2.N)</title><text x="136.522" y="281.166" class="green" >G</text></g>
<g><title>3 (position.label in template: 3.N)</title><text x="144.089" y="281.166" class="green" >U</text></g>
<g><title>4 (position.label in template: 4.Y)</title><text x="151.653" y="280.957" class="green" >U</text></g>
<g><title>5 (position.label in template: 5.N)</title><text x="159.217" y="281.169" class="green" >U</text></g>
<g><title>6 (position.label in template: 6.N)</title><text x="164.563" y="275.813" class="green" >C</text></g>
<g><line x1="166.609" y1="275.506" x2="174.757" y2="275.506" class="black" /></g>
<g><title>7 (position.label in template: 7.Y)</title><text x="164.623" y="268.043" class="green" >U</text></g>
<g><line x1="166.669" y1="267.736" x2="174.607" y2="267.736" class="black" /></g>
<g><title>8 (position.label in template: 8.N)</title><text x="164.563" y="260.693" class="green" >C</text></g>
<g><line x1="166.609" y1="260.386" x2="174.757" y2="260.386" class="black" /></g>
<g><title>9 (position.label in template: 9.G)</title><text x="164.203" y="252.923" class="green" >G</text></g>
<g><line x1="166.249" y1="252.616" x2="174.817" y2="252.616" class="black" /></g>
<g><title>10 (position.label in template: 10.N)</title><text x="164.563" y="245.573" class="green" >A</text></g>
<g><line x1="166.609" y1="245.266" x2="174.757" y2="245.266" class="black" /></g>
<g><title>10 (inserted)</title><text x="157.661" y="245.406" class="numbering-label sequential" >10</text></g>
<g><line x1="162.723" y1="245.528" x2="159.502" y2="245.451" class="numbering-line sequential" /></g>
<g><title>11 (position.label in template: 11.N)</title><text x="164.563" y="238.013" class="green" >U</text></g>
<g><line x1="166.609" y1="237.706" x2="174.757" y2="237.706" class="black" /></g>
<g><title>12 (position.label in template: 12.R)</title><text x="154.288" y="234.787" class="green" >A</text></g>
<g><title>13 (position.label in template: 13.R)</title><text x="144.036" y="231.487" class="green" >A</text></g>
<g><title>14 (position.label in template: 14.U)</title><text x="133.809" y="228.112" class="blue" >U</text></g>
<g><title>15 (position.label in template: 15.Y)</title><text x="123.606" y="224.664" class="green" >U</text></g>
<g><title>16 (position.label in template: 16.C)</title><text x="113.429" y="221.141" class="green" >G</text></g>
<g><title>17 (position.label in template: 17.R)</title><text x="103.277" y="217.545" class="green" >A</text></g>
<g><title>18 (position.label in template: 18.N)</title><text x="93.1516" y="213.876" class="green" >U</text></g>
<g><title>19 (position.label in template: 24.N)</title><text x="83.0532" y="210.133" class="green" >C</text></g>
<g><line x1="82.3883" y1="207.891" x2="79.7381" y2="200.181" class="black" /></g>
<g><title>20 (position.label in template: 25.N)</title><text x="75.9132" y="212.593" class="green" >U</text></g>
<g><line x1="75.2462" y1="210.352" x2="72.5901" y2="202.65" class="black" /></g>
<g><title>20 (inserted)</title><text x="78.1608" y="219.121" class="numbering-label sequential" >20</text></g>
<g><line x1="76.5125" y1="214.334" x2="77.6326" y2="217.587" class="numbering-line sequential" /></g>
<g><title>21 (position.label in template: 26.N)</title><text x="68.7632" y="215.053" class="green" >G</text></g>
<g><line x1="68.0962" y1="212.812" x2="65.4401" y2="205.11" class="black" /></g>
<g><title>22 (position.label in template: 27.N)</title><text x="64.4577" y="220.13" class="green" >U</text></g>
<g><title>23 (position.label in template: 28.N)</title><text x="57.8916" y="221.226" class="green" >A</text></g>
<g><title>24 (position.label in template: 29.N)</title><text x="52.1703" y="217.823" class="green" >G</text></g>
<g><title>25 (position.label in template: 30.R)</title><text x="50" y="211.53" class="green" >A</text></g>
<g><title>26 (position.label in template: 31.N)</title><text x="52.4072" y="205.323" class="green" >A</text></g>
<g><title>27 (inserted)</title><text x="58.2532" y="202.139" class="red" >U</text></g>
<g><title>28 (position.label in template: 32.N)</title><text x="64.7732" y="203.483" class="green" >C</text></g>
<g><title>29 (position.label in template: 33.N)</title><text x="71.9232" y="201.023" class="green" >U</text></g>
<g><title>30 (position.label in template: 34.N)</title><text x="79.0732" y="198.553" class="green" >G</text></g>
<g><title>30 (inserted)</title><text x="76.0306" y="192.355" class="numbering-label sequential" >30</text></g>
<g><line x1="78.2618" y1="196.9" x2="76.7838" y2="193.889" class="numbering-line sequential" /></g>
<g><title>31 (position.label in template: 39.U)</title><text x="85.7954" y="194.213" class="black" >U</text></g>
<g><title>32 (position.label in template: 40.C)</title><text x="92.5176" y="189.873" class="black" >C</text></g>
<g><title>33 (position.label in template: 41.A)</title><text x="99.2398" y="185.533" class="black" >A</text></g>
<g><title>34 (position.label in template: 42.Y)</title><text x="105.962" y="181.193" class="green" >A</text></g>
<g><title>35 (position.label in template: 43.N)</title><text x="105.709" y="173.316" class="green" >G</text></g>
<g><title>36 (position.label in template: 44.C)</title><text x="106.41" y="165.348" class="black" >C</text></g>
<g><title>37 (position.label in template: 45.A)</title><text x="107.896" y="157.492" class="black" >A</text></g>
<g><title>38 (position.label in template: 46.A)</title><text x="110.315" y="149.87" class="black" >A</text></g>
<g><title>39 (position.label in template: 47.C)</title><text x="113.554" y="142.577" class="green" >A</text></g>
<g><title>40 (position.label in template: 48.C)</title><text x="117.88" y="135.855" class="green" >A</text></g>
<g><title>41 (position.label in template: 49.C)</title><text x="122.854" y="129.598" class="black" >C</text></g>
<g><title>42 (position.label in template: 50.C)</title><text x="128.535" y="123.989" class="black" >C</text></g>
<g><title>43 (position.label in template: 51.A)</title><text x="134.923" y="119.193" class="green" >C</text></g>
<g><title>44 (position.label in template: 52.A)</title><text x="141.85" y="115.215" class="green" >C</text></g>
<g><title>45 (position.label in template: 53.A)</title><text x="149.228" y="112.158" class="black" >A</text></g>
<g><title>46 (position.label in template: 54.A)</title><text x="156.92" y="109.995" class="black" >A</text></g>
<g><title>47 (position.label in template: 55.N)</title><text x="164.815" y="108.765" class="green" >A</text></g>
<g><title>48 (position.label in template: 56.Y)</title><text x="172.801" y="108.513" class="green" >A</text></g>
<g><title>49 (position.label in template: 57.N)</title><text x="180.737" y="109.422" class="green" >C</text></g>
<g><title>50 (position.label in template: 58.U)</title><text x="188.584" y="110.977" class="green" >C</text></g>
<g><title>50 (inserted)</title><text x="190.478" y="104.337" class="numbering-label sequential" >50</text></g>
<g><line x1="189.089" y1="109.206" x2="190.041" y2="105.872" class="numbering-line sequential" /></g>
<g><title>51 (position.label in template: 59.A)</title><text x="196.061" y="113.795" class="green" >U</text></g>
<g><title>52 (position.label in template: 60.N)</title><text x="203.257" y="117.286" class="green" >U</text></g>
<g><title>53 (position.label in template: 61.N)</title><text x="209.952" y="121.657" class="green" >A</text></g>
<g><title>54 (position.label in template: 62.N)</title><text x="215.879" y="127.027" class="green" >C</text></g>
<g><title>55 (position.label in template: 63.N)</title><text x="221.242" y="132.956" class="green" >A</text></g>
<g><title>56 (position.label in template: 64.N)</title><text x="225.833" y="139.498" class="green" >C</text></g>
<g><title>57 (position.label in template: 65.N)</title><text x="229.581" y="146.555" class="green" >U</text></g>
<g><title>58 (position.label in template: 66.R)</title><text x="232.437" y="154.016" class="green" >G</text></g>
<g><title>59 (position.label in template: 67.N)</title><text x="234.31" y="161.778" class="green" >A</text></g>
<g><title>60 (position.label in template: 68.A)</title><text x="235.234" y="169.719" class="green" >G</text></g>
<g><title>61 (position.label in template: 69.N)</title><text x="235.301" y="177.704" class="green" >A</text></g>
<g><title>62 (position.label in template: 70.Y)</title><text x="234.277" y="185.624" class="green" >G</text></g>
<g><title>63 (position.label in template: 71.N)</title><text x="232.288" y="193.362" class="green" >C</text></g>
<g><title>64 (position.label in template: 72.Y)</title><text x="229.367" y="200.799" class="green" >A</text></g>
<g><title>65 (position.label in template: 73.U)</title><text x="225.532" y="207.807" class="black" >U</text></g>
<g><title>66 (position.label in template: 74.U)</title><text x="220.757" y="214.214" class="black" >U</text></g>
<g><title>67 (position.label in template: 75.N)</title><text x="215.325" y="220.083" class="green" >U</text></g>
<g><title>68 (inserted)</title><text x="209.388" y="225.443" class="red" >A</text></g>
<g><title>69 (position.label in template: 76.R)</title><text x="202.573" y="229.623" class="green" >G</text></g>
<g><line x1="200.725" y1="230.194" x2="193.411" y2="233.668" class="black" /></g>
<g><title>70 (position.label in template: 77.Y)</title><text x="205.883" y="236.523" class="green" >C</text></g>
<g><line x1="204.028" y1="237.079" x2="196.518" y2="240.573" class="black" /></g>
<g><title>71 (position.label in template: 78.Y)</title><text x="208.983" y="243.413" class="green" >C</text></g>
<g><line x1="207.106" y1="243.92" x2="199.28" y2="247.312" class="black" /></g>
<g><title>72 (position.label in template: 79.N)</title><text x="212.023" y="250.523" class="green" >U</text></g>
<g><line x1="210.157" y1="251.054" x2="202.729" y2="254.388" class="black" /></g>
<g><title>73 (position.label in template: 80.N)</title><text x="217.673" y="255.533" class="green" >G</text></g>
<g><title>74 (position.label in template: 81.N)</title><text x="217.673" y="263.093" class="green" >A</text></g>
<g><line x1="215.808" y1="263.625" x2="208.379" y2="266.967" class="black" /></g>
<g><title>75 (position.label in template: 82.U)</title><text x="220.623" y="269.783" class="green" >U</text></g>
<g><line x1="218.775" y1="270.354" x2="211.461" y2="273.828" class="black" /></g>
<g><title>76 (position.label in template: 83.N)</title><text x="223.873" y="276.893" class="green" >U</text></g>
<g><line x1="222.007" y1="277.424" x2="214.579" y2="280.758" class="black" /></g>
<g><title>77 (position.label in template: 84.R)</title><text x="230.934" y="277.782" class="green" >A</text></g>
<g><title>78 (position.label in template: 85.N)</title><text x="237.094" y="281.346" class="green" >C</text></g>
<g><title>79 (position.label in template: 86.Y)</title><text x="241.385" y="287.023" class="green" >U</text></g>
<g><title>80 (position.label in template: 87.N)</title><text x="243.132" y="293.922" class="green" >C</text></g>
<g><title>81 (position.label in template: 88.Y)</title><text x="242.062" y="300.957" class="green" >U</text></g>
<g><title>82 (position.label in template: 89.N)</title><text x="238.341" y="307.024" class="green" >U</text></g>
<g><title>83 (position.label in template: 90.N)</title><text x="232.555" y="311.168" class="green" >U</text></g>
<g><title>84 (position.label in template: 91.N)</title><text x="225.614" y="312.737" class="green" >A</text></g>
<g><title>85 (inserted)</title><text x="218.608" y="311.486" class="red" >A</text></g>
<g><title>86 (inserted)</title><text x="212.64" y="307.611" class="red" >A</text></g>
<g><title>87 (inserted)</title><text x="208.646" y="301.721" class="red" >U</text></g>
<g><title>88 (inserted)</title><text x="207.255" y="294.741" class="red" >C</text></g>
<g><title>89 (inserted)</title><text x="208.686" y="287.77" class="red" >A</text></g>
<g><title>90 (position.label in template: 92.N)</title><text x="212.713" y="281.903" class="green" >A</text></g>
<g><title>91 (position.label in template: 93.N)</title><text x="209.613" y="275.013" class="green" >A</text></g>
<g><title>92 (position.label in template: 94.N)</title><text x="206.513" y="268.113" class="green" >U</text></g>
<g><title>93 (position.label in template: 95.N)</title><text x="200.863" y="263.093" class="green" >C</text></g>
<g><title>94 (position.label in template: 96.N)</title><text x="200.863" y="255.533" class="green" >A</text></g>
<g><title>95 (position.label in template: 97.G)</title><text x="197.403" y="248.433" class="green" >G</text></g>
<g><title>96 (position.label in template: 98.N)</title><text x="194.663" y="241.743" class="green" >G</text></g>
<g><title>97 (position.label in template: 99.N)</title><text x="191.563" y="234.853" class="green" >C</text></g>
<g><title>98 (position.label in template: 100.R)</title><text x="184.123" y="236.653" class="green" >A</text></g>
<g><title>99 (position.label in template: 101.N)</title><text x="176.803" y="238.013" class="green" >A</text></g>
<g><title>100 (position.label in template: 103.N)</title><text x="176.803" y="245.573" class="green" >U</text></g>
<g><title>100 (inserted)</title><text x="183.707" y="245.545" class="numbering-label sequential" >100</text></g>
<g><line x1="178.644" y1="245.565" x2="180.946" y2="245.556" class="numbering-line sequential" /></g>
<g><title>101 (position.label in template: 104.Y)</title><text x="176.863" y="252.923" class="green" >A</text></g>
<g><title>102 (position.label in template: 105.N)</title><text x="176.803" y="260.693" class="green" >G</text></g>
<g><title>103 (position.label in template: 106.R)</title><text x="176.653" y="268.043" class="green" >A</text></g>
<g><title>104 (position.label in template: 107.N)</title><text x="176.803" y="275.813" class="green" >G</text></g>
<g><title>105 (position.label in template: 108.R)</title><text x="182.003" y="280.953" class="green" >A</text></g>
<g><title>106 (position.label in template: 109.Y)</title><text x="189.763" y="280.953" class="green" >G</text></g>
<g><title>107 (position.label in template: 110.N)</title><text x="197.273" y="281.163" class="green" >A</text></g>
<g><title>108 (position.label in template: 111.N)</title><text x="204.833" y="281.163" class="green" >A</text></g>
<g><title>109 (inserted)</title><text x="209.997" y="275.631" class="red" >A</text></g>
<g><title>110 (inserted)</title><text x="215.16" y="270.1" class="red" >C</text></g>
<g><title>111 (inserted)</title><text x="220.324" y="264.568" class="red" >U</text></g>
<g><title>112 (inserted)</title><text x="225.487" y="259.036" class="red" >C</text></g>
<g><title>113 (inserted)</title><text x="230.651" y="253.505" class="red" >G</text></g>
<g><title>114 (position.label in template: 112.R)</title><text x="235.814" y="247.973" class="green" >A</text></g>
<g><line x1="237.86" y1="247.666" x2="246.009" y2="247.666" class="black" /></g>
<g><title>115 (position.label in template: 113.R)</title><text x="235.814" y="240.413" class="green" >G</text></g>
<g><line x1="237.86" y1="240.106" x2="246.219" y2="240.106" class="black" /></g>
<g><title>116 (position.label in template: 114.R)</title><text x="235.814" y="232.853" class="green" >A</text></g>
<g><line x1="237.86" y1="232.546" x2="246.219" y2="232.546" class="black" /></g>
<g><title>117 (position.label in template: 115.R)</title><text x="235.814" y="225.293" class="green" >G</text></g>
<g><line x1="237.86" y1="224.986" x2="246.219" y2="224.986" class="black" /></g>
<g><title>118 (position.label in template: 116.N)</title><text x="235.964" y="217.943" class="green" >G</text></g>
<g><line x1="238.01" y1="217.636" x2="246.159" y2="217.636" class="black" /></g>
<g><title>119 (position.label in template: 117.N)</title><text x="229.967" y="221.463" class="green" >U</text></g>
<g><title>120 (inserted)</title><text x="223.056" y="222.23" class="red" >G</text></g>
<g><title>121 (inserted)</title><text x="216.433" y="220.11" class="red" >A</text></g>
<g><title>122 (inserted)</title><text x="211.252" y="215.472" class="red" >A</text></g>
<g><title>123 (inserted)</title><text x="208.415" y="209.123" class="red" >A</text></g>
<g><title>124 (inserted)</title><text x="208.415" y="202.17" class="red" >A</text></g>
<g><title>125 (inserted)</title><text x="211.252" y="195.821" class="red" >C</text></g>
<g><title>126 (inserted)</title><text x="216.433" y="191.183" class="red" >C</text></g>
<g><title>127 (inserted)</title><text x="223.056" y="189.063" class="red" >C</text></g>
<g><title>128 (inserted)</title><text x="229.967" y="189.83" class="red" >C</text></g>
<g><title>129 (position.label in template: 118.N)</title><text x="235.964" y="193.35" class="green" >A</text></g>
<g><line x1="238.01" y1="193.043" x2="246.159" y2="193.043" class="black" /></g>
<g><title>130 (position.label in template: 119.Y)</title><text x="236.024" y="185.58" class="green" >C</text></g>
<g><line x1="238.07" y1="185.273" x2="246.009" y2="185.273" class="black" /></g>
<g><title>131 (position.label in template: 120.N)</title><text x="235.964" y="178.23" class="green" >A</text></g>
<g><line x1="238.01" y1="177.923" x2="246.159" y2="177.923" class="black" /></g>
<g><title>132 (position.label in template: 123.N)</title><text x="235.964" y="170.67" class="green" >G</text></g>
<g><line x1="238.01" y1="170.363" x2="246.159" y2="170.363" class="black" /></g>
<g><title>133 (position.label in template: 124.N)</title><text x="235.964" y="163.11" class="green" >C</text></g>
<g><line x1="238.01" y1="162.803" x2="246.159" y2="162.803" class="black" /></g>
<g><title>134 (position.label in template: 125.U)</title><text x="235.814" y="155.34" class="green" >A</text></g>
<g><line x1="237.86" y1="155.033" x2="246.219" y2="155.033" class="black" /></g>
<g><title>135 (position.label in template: 126.N)</title><text x="232.864" y="148.66" class="green" >U</text></g>
<g><title>136 (position.label in template: 127.N)</title><text x="235.964" y="141.76" class="green" >U</text></g>
<g><line x1="238.01" y1="141.453" x2="246.159" y2="141.453" class="black" /></g>
<g><title>137 (position.label in template: 128.G)</title><text x="235.604" y="133.99" class="green" >C</text></g>
<g><line x1="237.65" y1="133.683" x2="246.009" y2="133.683" class="black" /></g>
<g><title>138 (position.label in template: 129.N)</title><text x="235.964" y="126.64" class="green" >U</text></g>
<g><line x1="238.01" y1="126.333" x2="246.159" y2="126.333" class="black" /></g>
<g><title>139 (position.label in template: 130.N)</title><text x="235.964" y="119.08" class="green" >G</text></g>
<g><line x1="238.01" y1="118.773" x2="246.159" y2="118.773" class="black" /></g>
<g><title>140 (position.label in template: 131.A)</title><text x="236.024" y="111.31" class="black" >A</text></g>
<g><line x1="238.07" y1="111.003" x2="246.009" y2="111.003" class="black" /></g>
<g><title>141 (position.label in template: 132.N)</title><text x="229.074" y="109.063" class="green" >A</text></g>
<g><title>142 (position.label in template: 133.N)</title><text x="222.842" y="105.254" class="green" >A</text></g>
<g><title>143 (position.label in template: 134.N)</title><text x="217.671" y="100.095" class="green" >U</text></g>
<g><title>144 (position.label in template: 135.N)</title><text x="213.848" y="93.8712" class="green" >G</text></g>
<g><title>145 (position.label in template: 136.U)</title><text x="211.584" y="86.9265" class="blue" >U</text></g>
<g><title>146 (position.label in template: 137.A)</title><text x="211.005" y="79.6453" class="blue" >A</text></g>
<g><title>147 (position.label in template: 138.U)</title><text x="212.143" y="72.4302" class="blue" >U</text></g>
<g><title>148 (position.label in template: 139.U)</title><text x="214.934" y="65.6804" class="blue" >U</text></g>
<g><title>149 (inserted)</title><text x="219.225" y="59.7691" class="red" >U</text></g>
<g><title>150 (inserted)</title><text x="224.778" y="55.0235" class="red" >G</text></g>
<g><title>150 (inserted)</title><text x="220.94" y="49.2839" class="numbering-label sequential" >150</text></g>
<g><line x1="223.754" y1="53.4929" x2="221.966" y2="50.8182" class="numbering-line sequential" /></g>
<g><title>151 (inserted)</title><text x="231.285" y="51.706" class="red" >G</text></g>
<g><title>152 (inserted)</title><text x="238.387" y="50" class="red" >G</text></g>
<g><title>153 (inserted)</title><text x="245.691" y="50" class="red" >A</text></g>
<g><title>154 (inserted)</title><text x="252.794" y="51.706" class="red" >G</text></g>
<g><title>155 (inserted)</title><text x="259.301" y="55.0235" class="red" >U</text></g>
<g><title>156 (inserted)</title><text x="264.853" y="59.7691" class="red" >A</text></g>
<g><title>157 (inserted)</title><text x="269.144" y="65.6804" class="red" >A</text></g>
<g><title>158 (inserted)</title><text x="271.935" y="72.4302" class="red" >U</text></g>
<g><title>159 (inserted)</title><text x="273.073" y="79.6453" class="red" >C</text></g>
<g><title>160 (inserted)</title><text x="272.494" y="86.9265" class="red" >U</text></g>
<g><title>161 (inserted)</title><text x="270.231" y="93.8712" class="red" >C</text></g>
<g><title>162 (inserted)</title><text x="266.408" y="100.095" class="red" >A</text></g>
<g><title>163 (inserted)</title><text x="261.237" y="105.254" class="red" >U</text></g>
<g><title>164 (inserted)</title><text x="255.004" y="109.063" class="red" >A</text></g>
<g><title>165 (position.label in template: 140.U)</title><text x="248.054" y="111.31" class="black" >U</text></g>
<g><title>166 (position.label in template: 141.N)</title><text x="248.204" y="119.08" class="green" >U</text></g>
<g><title>167 (position.label in template: 142.N)</title><text x="248.204" y="126.64" class="green" >A</text></g>
<g><title>168 (position.label in template: 143.C)</title><text x="248.054" y="133.99" class="green" >G</text></g>
<g><title>169 (position.label in template: 144.N)</title><text x="248.204" y="141.76" class="green" >U</text></g>
<g><title>170 (position.label in template: 145.N)</title><text x="251.304" y="148.66" class="green" >U</text></g>
<g><title>171 (position.label in template: 146.A)</title><text x="248.264" y="155.34" class="green" >U</text></g>
<g><title>172 (position.label in template: 147.N)</title><text x="248.204" y="163.11" class="green" >G</text></g>
<g><title>173 (position.label in template: 148.N)</title><text x="248.204" y="170.67" class="green" >C</text></g>
<g><title>174 (position.label in template: 149.N)</title><text x="248.204" y="178.23" class="green" >U</text></g>
<g><title>175 (position.label in template: 150.R)</title><text x="248.054" y="185.58" class="green" >G</text></g>
<g><title>176 (position.label in template: 151.N)</title><text x="248.204" y="193.35" class="green" >U</text></g>
<g><title>177 (position.label in template: 152.N)</title><text x="248.204" y="217.943" class="green" >C</text></g>
<g><title>178 (position.label in template: 153.Y)</title><text x="248.264" y="225.293" class="green" >C</text></g>
<g><title>179 (position.label in template: 154.Y)</title><text x="248.264" y="232.853" class="green" >U</text></g>
<g><title>180 (position.label in template: 155.Y)</title><text x="248.264" y="240.413" class="green" >C</text></g>
<g><title>181 (position.label in template: 156.U)</title><text x="248.054" y="247.973" class="green" >U</text></g>
<g><title>182 (position.label in template: 157.N)</title><text x="253.376" y="253.353" class="green" >C</text></g>
<g><title>183 (position.label in template: 158.Y)</title><text x="260.94" y="253.144" class="green" >A</text></g>
<g><title>184 (position.label in template: 159.Y)</title><text x="268.507" y="253.144" class="green" >U</text></g>
<g><title>185 (position.label in template: 160.U)</title><text x="276.074" y="253.144" class="green" >C</text></g>
<g><title>186 (position.label in template: 161.Y)</title><text x="283.641" y="253.144" class="green" >U</text></g>
<g><title>187 (position.label in template: 162.U)</title><text x="291.208" y="253.144" class="black" >U</text></g>
<g><title>188 (position.label in template: 163.N)</title><text x="298.773" y="253.35" class="green" >U</text></g>
<g><title>189 (position.label in template: 164.N)</title><text x="306.34" y="253.35" class="green" >U</text></g>
<g><title>190 (position.label in template: 166.3')</title><text x="313.907" y="253.35" class="green" >3'</text></g>
<g><line x1="123.434" y1="280.859" x2="126.909" y2="280.859" class="gray" /></g>
<g><line x1="131.001" y1="280.859" x2="134.476" y2="280.859" class="gray" /></g>
<g><line x1="138.568" y1="280.859" x2="142.043" y2="280.859" class="gray" /></g>
<g><line x1="146.134" y1="280.802" x2="149.608" y2="280.707" class="gray" /></g>
<g><line x1="153.698" y1="280.707" x2="157.173" y2="280.805" class="gray" /></g>
<g><line x1="160.663" y1="279.414" x2="163.118" y2="276.954" class="gray" /></g>
<g><line x1="164.579" y1="273.46" x2="164.607" y2="269.782" class="gray" /></g>
<g><line x1="164.606" y1="265.69" x2="164.58" y2="262.432" class="gray" /></g>
<g><line x1="164.468" y1="258.342" x2="164.298" y2="254.659" class="gray" /></g>
<g><line x1="164.303" y1="250.573" x2="164.463" y2="247.309" class="gray" /></g>
<g><line x1="164.563" y1="243.22" x2="164.563" y2="239.752" class="gray" /></g>
<g><line x1="162.611" y1="237.093" x2="156.24" y2="235.093" class="gray" /></g>
<g><line x1="152.341" y1="233.853" x2="145.984" y2="231.807" class="gray" /></g>
<g><line x1="142.094" y1="230.539" x2="135.751" y2="228.446" class="gray" /></g>
<g><line x1="131.871" y1="227.15" x2="125.544" y2="225.012" class="gray" /></g>
<g><line x1="121.673" y1="223.688" x2="115.362" y2="221.504" class="gray" /></g>
<g><line x1="111.5" y1="220.151" x2="105.205" y2="217.921" class="gray" /></g>
<g><line x1="101.354" y1="216.541" x2="95.0749" y2="214.266" class="gray" /></g>
<g><line x1="91.2334" y1="212.858" x2="84.9714" y2="210.537" class="gray" /></g>
<g><line x1="81.119" y1="210.492" x2="77.8473" y2="211.62" class="gray" /></g>
<g><line x1="73.9788" y1="212.952" x2="70.6976" y2="214.08" class="gray" /></g>
<g><line x1="67.4401" y1="216.306" x2="65.7808" y2="218.263" class="gray" /></g>
<g><line x1="62.44" y1="220.16" x2="59.9093" y2="220.583" class="gray" /></g>
<g><line x1="56.1334" y1="219.874" x2="53.9284" y2="218.562" class="gray" /></g>
<g><line x1="51.5034" y1="215.582" x2="50.6669" y2="213.157" class="gray" /></g>
<g><line x1="50.7397" y1="209.315" x2="51.6674" y2="206.923" class="gray" /></g>
<g><line x1="54.2037" y1="204.038" x2="56.4567" y2="202.81" class="gray" /></g>
<g><line x1="60.2568" y1="202.245" x2="62.7696" y2="202.763" class="gray" /></g>
<g><line x1="66.7076" y1="202.51" x2="69.9888" y2="201.382" class="gray" /></g>
<g><line x1="73.8568" y1="200.048" x2="77.1396" y2="198.914" class="gray" /></g>
<g><line x1="80.7918" y1="197.136" x2="84.0768" y2="195.016" class="gray" /></g>
<g><line x1="87.514" y1="192.796" x2="90.799" y2="190.675" class="gray" /></g>
<g><line x1="94.2363" y1="188.456" x2="97.5212" y2="186.335" class="gray" /></g>
<g><line x1="100.958" y1="184.116" x2="104.243" y2="181.995" class="gray" /></g>
<g><line x1="105.896" y1="178.841" x2="105.775" y2="175.054" class="gray" /></g>
<g><line x1="105.888" y1="170.971" x2="106.231" y2="167.079" class="gray" /></g>
<g><line x1="106.79" y1="163.031" x2="107.516" y2="159.195" class="gray" /></g>
<g><line x1="108.515" y1="155.235" x2="109.696" y2="151.513" class="gray" /></g>
<g><line x1="111.145" y1="147.693" x2="112.723" y2="144.14" class="gray" /></g>
<g><line x1="114.661" y1="140.55" x2="116.773" y2="137.268" class="gray" /></g>
<g><line x1="119.153" y1="133.946" x2="121.581" y2="130.892" class="gray" /></g>
<g><line x1="124.31" y1="127.853" x2="127.079" y2="125.119" class="gray" /></g>
<g><line x1="130.171" y1="122.454" x2="133.287" y2="120.115" class="gray" /></g>
<g><line x1="136.697" y1="117.867" x2="140.076" y2="115.927" class="gray" /></g>
<g><line x1="143.74" y1="114.125" x2="147.338" y2="112.634" class="gray" /></g>
<g><line x1="151.197" y1="111.297" x2="154.951" y2="110.242" class="gray" /></g>
<g><line x1="158.942" y1="109.373" x2="162.793" y2="108.773" class="gray" /></g>
<g><line x1="166.859" y1="108.393" x2="170.757" y2="108.27" class="gray" /></g>
<g><line x1="174.834" y1="108.439" x2="178.704" y2="108.882" class="gray" /></g>
<g><line x1="182.743" y1="109.513" x2="186.577" y2="110.272" class="gray" /></g>
<g><line x1="190.498" y1="111.391" x2="194.147" y2="112.767" class="gray" /></g>
<g><line x1="197.901" y1="114.381" x2="201.417" y2="116.086" class="gray" /></g>
<g><line x1="204.97" y1="118.097" x2="208.239" y2="120.232" class="gray" /></g>
<g><line x1="211.468" y1="122.724" x2="214.363" y2="125.347" class="gray" /></g>
<g><line x1="217.251" y1="128.238" x2="219.869" y2="131.132" class="gray" /></g>
<g><line x1="222.417" y1="134.324" x2="224.658" y2="137.516" class="gray" /></g>
<g><line x1="226.793" y1="140.997" x2="228.622" y2="144.441" class="gray" /></g>
<g><line x1="230.313" y1="148.158" x2="231.706" y2="151.799" class="gray" /></g>
<g><line x1="232.917" y1="155.698" x2="233.83" y2="159.483" class="gray" /></g>
<g><line x1="234.547" y1="163.503" x2="234.998" y2="167.38" class="gray" /></g>
<g><line x1="235.251" y1="171.458" x2="235.284" y2="175.352" class="gray" /></g>
<g><line x1="235.039" y1="179.426" x2="234.539" y2="183.289" class="gray" /></g>
<g><line x1="233.768" y1="187.299" x2="232.798" y2="191.074" class="gray" /></g>
<g><line x1="231.541" y1="194.959" x2="230.115" y2="198.588" class="gray" /></g>
<g><line x1="228.385" y1="202.287" x2="226.514" y2="205.705" class="gray" /></g>
<g><line x1="224.309" y1="209.14" x2="221.979" y2="212.267" class="gray" /></g>
<g><line x1="219.367" y1="215.408" x2="216.715" y2="218.275" class="gray" /></g>
<g><line x1="213.807" y1="221.147" x2="210.907" y2="223.765" class="gray" /></g>
<g><line x1="207.644" y1="226.206" x2="204.317" y2="228.246" class="gray" /></g>
<g><line x1="203.458" y1="231.16" x2="204.998" y2="234.371" class="gray" /></g>
<g><line x1="206.723" y1="238.082" x2="208.144" y2="241.24" class="gray" /></g>
<g><line x1="209.787" y1="244.987" x2="211.219" y2="248.335" class="gray" /></g>
<g><line x1="213.554" y1="251.573" x2="216.143" y2="253.869" class="gray" /></g>
<g><line x1="217.673" y1="257.272" x2="217.673" y2="260.74" class="gray" /></g>
<g><line x1="218.499" y1="264.658" x2="219.798" y2="267.604" class="gray" /></g>
<g><line x1="221.474" y1="271.337" x2="223.023" y2="274.725" class="gray" /></g>
<g><line x1="225.903" y1="276.842" x2="228.904" y2="277.22" class="gray" /></g>
<g><line x1="232.705" y1="278.5" x2="235.323" y2="280.015" class="gray" /></g>
<g><line x1="238.327" y1="282.671" x2="240.151" y2="285.084" class="gray" /></g>
<g><line x1="241.887" y1="288.699" x2="242.63" y2="291.632" class="gray" /></g>
<g><line x1="242.825" y1="295.637" x2="242.37" y2="298.628" class="gray" /></g>
<g><line x1="240.992" y1="302.394" x2="239.411" y2="304.973" class="gray" /></g>
<g><line x1="236.678" y1="307.908" x2="234.219" y2="309.67" class="gray" /></g>
<g><line x1="230.56" y1="311.312" x2="227.609" y2="311.979" class="gray" /></g>
<g><line x1="223.6" y1="312.071" x2="220.622" y2="311.539" class="gray" /></g>
<g><line x1="216.893" y1="310.065" x2="214.355" y2="308.418" class="gray" /></g>
<g><line x1="211.492" y1="305.611" x2="209.794" y2="303.107" class="gray" /></g>
<g><line x1="208.246" y1="299.408" x2="207.655" y2="296.441" class="gray" /></g>
<g><line x1="207.666" y1="292.431" x2="208.275" y2="289.467" class="gray" /></g>
<g><line x1="209.844" y1="285.777" x2="211.555" y2="283.283" class="gray" /></g>
<g><line x1="211.874" y1="279.73" x2="210.453" y2="276.572" class="gray" /></g>
<g><line x1="208.775" y1="272.84" x2="207.352" y2="269.672" class="gray" /></g>
<g><line x1="204.984" y1="266.447" x2="202.392" y2="264.145" class="gray" /></g>
<g><line x1="200.863" y1="260.74" x2="200.863" y2="257.272" class="gray" /></g>
<g><line x1="199.967" y1="253.387" x2="198.299" y2="249.965" class="gray" /></g>
<g><line x1="196.628" y1="246.233" x2="195.439" y2="243.329" class="gray" /></g>
<g><line x1="193.824" y1="239.57" x2="192.403" y2="236.412" class="gray" /></g>
<g><line x1="189.575" y1="235.027" x2="186.112" y2="235.865" class="gray" /></g>
<g><line x1="182.112" y1="236.72" x2="178.814" y2="237.332" class="gray" /></g>
<g><line x1="176.803" y1="239.752" x2="176.803" y2="243.22" class="gray" /></g>
<g><line x1="176.82" y1="247.312" x2="176.846" y2="250.57" class="gray" /></g>
<g><line x1="176.847" y1="254.662" x2="176.819" y2="258.34" class="gray" /></g>
<g><line x1="176.761" y1="262.431" x2="176.695" y2="265.691" class="gray" /></g>
<g><line x1="176.693" y1="269.781" x2="176.764" y2="273.461" class="gray" /></g>
<g><line x1="178.258" y1="276.944" x2="180.548" y2="279.208" class="gray" /></g>
<g><line x1="184.049" y1="280.646" x2="187.717" y2="280.646" class="gray" /></g>
<g><line x1="191.808" y1="280.703" x2="195.228" y2="280.799" class="gray" /></g>
<g><line x1="199.319" y1="280.856" x2="202.787" y2="280.856" class="gray" /></g>
<g><line x1="206.229" y1="279.361" x2="208.601" y2="276.82" class="gray" /></g>
<g><line x1="211.393" y1="273.829" x2="213.764" y2="271.288" class="gray" /></g>
<g><line x1="216.556" y1="268.297" x2="218.928" y2="265.757" class="gray" /></g>
<g><line x1="221.72" y1="262.766" x2="224.091" y2="260.225" class="gray" /></g>
<g><line x1="226.883" y1="257.234" x2="229.255" y2="254.693" class="gray" /></g>
<g><line x1="232.047" y1="251.702" x2="234.418" y2="249.162" class="gray" /></g>
<g><line x1="235.814" y1="245.621" x2="235.814" y2="242.152" class="gray" /></g>
<g><line x1="235.814" y1="238.061" x2="235.814" y2="234.592" class="gray" /></g>
<g><line x1="235.814" y1="230.501" x2="235.814" y2="227.032" class="gray" /></g>
<g><line x1="235.856" y1="222.941" x2="235.923" y2="219.682" class="gray" /></g>
<g><line x1="234.2" y1="218.672" x2="231.732" y2="220.121" class="gray" /></g>
<g><line x1="227.934" y1="221.382" x2="225.089" y2="221.698" class="gray" /></g>
<g><line x1="221.108" y1="221.3" x2="218.382" y2="220.427" class="gray" /></g>
<g><line x1="214.909" y1="218.439" x2="212.776" y2="216.53" class="gray" /></g>
<g><line x1="210.417" y1="213.297" x2="209.249" y2="210.684" class="gray" /></g>
<g><line x1="208.415" y1="206.771" x2="208.415" y2="203.909" class="gray" /></g>
<g><line x1="209.249" y1="199.995" x2="210.417" y2="197.382" class="gray" /></g>
<g><line x1="212.776" y1="194.15" x2="214.909" y2="192.241" class="gray" /></g>
<g><line x1="218.382" y1="190.253" x2="221.108" y2="189.38" class="gray" /></g>
<g><line x1="225.089" y1="188.982" x2="227.934" y2="189.297" class="gray" /></g>
<g><line x1="231.732" y1="190.559" x2="234.2" y2="192.008" class="gray" /></g>
<g><line x1="235.98" y1="190.998" x2="236.008" y2="187.319" class="gray" /></g>
<g><line x1="236.008" y1="183.228" x2="235.981" y2="179.969" class="gray" /></g>
<g><line x1="235.964" y1="175.878" x2="235.964" y2="172.409" class="gray" /></g>
<g><line x1="235.964" y1="168.318" x2="235.964" y2="164.849" class="gray" /></g>
<g><line x1="235.925" y1="160.758" x2="235.854" y2="157.079" class="gray" /></g>
<g><line x1="234.988" y1="153.162" x2="233.691" y2="150.225" class="gray" /></g>
<g><line x1="233.703" y1="146.487" x2="235.126" y2="143.319" class="gray" /></g>
<g><line x1="235.87" y1="139.41" x2="235.699" y2="135.727" class="gray" /></g>
<g><line x1="235.704" y1="131.64" x2="235.864" y2="128.376" class="gray" /></g>
<g><line x1="235.964" y1="124.288" x2="235.964" y2="120.819" class="gray" /></g>
<g><line x1="235.98" y1="116.728" x2="236.008" y2="113.049" class="gray" /></g>
<g><line x1="234.078" y1="110.374" x2="231.021" y2="109.385" class="gray" /></g>
<g><line x1="227.329" y1="107.689" x2="224.587" y2="106.014" class="gray" /></g>
<g><line x1="221.393" y1="103.502" x2="219.119" y2="101.233" class="gray" /></g>
<g><line x1="216.6" y1="98.0451" x2="214.919" y2="95.3075" class="gray" /></g>
<g><line x1="213.214" y1="91.6193" x2="212.218" y2="88.5647" class="gray" /></g>
<g><line x1="211.422" y1="84.5804" x2="211.168" y2="81.3777" class="gray" /></g>
<g><line x1="211.324" y1="77.3177" x2="211.825" y2="74.1441" class="gray" /></g>
<g><line x1="212.925" y1="70.2329" x2="214.153" y2="67.2639" class="gray" /></g>
<g><line x1="216.136" y1="63.7179" x2="218.023" y2="61.1179" class="gray" /></g>
<g><line x1="220.78" y1="58.1332" x2="223.222" y2="56.0458" class="gray" /></g>
<g><line x1="226.6" y1="53.7875" x2="229.462" y2="52.3283" class="gray" /></g>
<g><line x1="233.274" y1="50.9213" x2="236.398" y2="50.1709" class="gray" /></g>
<g><line x1="240.433" y1="49.6931" x2="243.646" y2="49.6931" class="gray" /></g>
<g><line x1="247.68" y1="50.1709" x2="250.804" y2="50.9213" class="gray" /></g>
<g><line x1="254.616" y1="52.3283" x2="257.478" y2="53.7875" class="gray" /></g>
<g><line x1="260.856" y1="56.0458" x2="263.298" y2="58.1332" class="gray" /></g>
<g><line x1="266.055" y1="61.1179" x2="267.942" y2="63.7179" class="gray" /></g>
<g><line x1="269.926" y1="67.2639" x2="271.154" y2="70.2329" class="gray" /></g>
<g><line x1="272.254" y1="74.1441" x2="272.754" y2="77.3177" class="gray" /></g>
<g><line x1="272.911" y1="81.3777" x2="272.656" y2="84.5804" class="gray" /></g>
<g><line x1="271.86" y1="88.5647" x2="270.864" y2="91.6193" class="gray" /></g>
<g><line x1="269.16" y1="95.3075" x2="267.478" y2="98.0451" class="gray" /></g>
<g><line x1="264.959" y1="101.233" x2="262.685" y2="103.502" class="gray" /></g>
<g><line x1="259.491" y1="106.014" x2="256.75" y2="107.689" class="gray" /></g>
<g><line x1="253.058" y1="109.385" x2="250.001" y2="110.374" class="gray" /></g>
<g><line x1="248.094" y1="113.049" x2="248.165" y2="116.728" class="gray" /></g>
<g><line x1="248.204" y1="120.819" x2="248.204" y2="124.288" class="gray" /></g>
<g><line x1="248.163" y1="128.379" x2="248.096" y2="131.638" class="gray" /></g>
<g><line x1="248.094" y1="135.729" x2="248.165" y2="139.408" class="gray" /></g>
<g><line x1="249.043" y1="143.319" x2="250.466" y2="146.487" class="gray" /></g>
<g><line x1="250.457" y1="150.215" x2="249.112" y2="153.171" class="gray" /></g>
<g><line x1="248.248" y1="157.079" x2="248.22" y2="160.758" class="gray" /></g>
<g><line x1="248.204" y1="164.849" x2="248.204" y2="168.318" class="gray" /></g>
<g><line x1="248.204" y1="172.409" x2="248.204" y2="175.878" class="gray" /></g>
<g><line x1="248.163" y1="179.969" x2="248.096" y2="183.228" class="gray" /></g>
<g><line x1="248.094" y1="187.319" x2="248.165" y2="190.998" class="gray" /></g>
<g><line x1="248.204" y1="195.089" x2="248.204" y2="215.591" class="gray" /></g>
<g><line x1="248.221" y1="219.682" x2="248.248" y2="222.941" class="gray" /></g>
<g><line x1="248.264" y1="227.032" x2="248.264" y2="230.501" class="gray" /></g>
<g><line x1="248.264" y1="234.592" x2="248.264" y2="238.061" class="gray" /></g>
<g><line x1="248.207" y1="242.151" x2="248.111" y2="245.621" class="gray" /></g>
<g><line x1="249.493" y1="249.121" x2="251.937" y2="251.592" class="gray" /></g>
<g><line x1="255.421" y1="252.989" x2="258.895" y2="252.894" class="gray" /></g>
<g><line x1="262.986" y1="252.837" x2="266.461" y2="252.837" class="gray" /></g>
<g><line x1="270.553" y1="252.837" x2="274.029" y2="252.837" class="gray" /></g>
<g><line x1="278.12" y1="252.837" x2="281.596" y2="252.837" class="gray" /></g>
<g><line x1="285.687" y1="252.837" x2="289.163" y2="252.837" class="gray" /></g>
<g><line x1="293.253" y1="252.893" x2="296.728" y2="252.988" class="gray" /></g>
<g><line x1="300.818" y1="253.043" x2="304.294" y2="253.043" class="gray" /></g>
<g><line x1="308.385" y1="253.043" x2="311.861" y2="253.043" class="gray" /></g>
</svg>
