<svg
	xmlns="http://www.w3.org/2000/svg"
	width="241.132"
	height="375.136"
	style="font-size: 3.053824px; font-weight: bold; font-family: Helvetica; " >
<g><style type="text/css" >
<!-- create color definitions -->
<![CDATA[
text.red {fill: rgb(255, 0, 255); }
text.green {fill: rgb(0, 255, 0); }
text.blue {fill: rgb(0, 0, 255); }
text.black {fill: rgb(0, 0, 0); }
text.gray {fill: rgb(204, 204, 204); }
text.brown {fill: rgb(211.65, 104.55, 30.6); }
text {fill: rgb(0, 0, 0); text-anchor: middle; alignment-baseline: middle; }
circle.red {stroke: rgb(255, 0, 255); fill: none; }
circle.green {stroke: rgb(0, 255, 0); fill: none; }
circle.blue {stroke: rgb(0, 0, 255); fill: none; }
circle.black {stroke: rgb(0, 0, 0); fill: none; }
circle.gray {stroke: rgb(204, 204, 204); fill: none; }
circle.brown {stroke: rgb(211.65, 104.55, 30.6); fill: none; }
circle {stroke: rgb(0, 0, 0); }
line.red {stroke: rgb(255, 0, 255); stroke-width: 0.381728; }
line.green {stroke: rgb(0, 255, 0); stroke-width: 0.381728; }
line.blue {stroke: rgb(0, 0, 255); stroke-width: 0.381728; }
line.black {stroke: rgb(0, 0, 0); stroke-width: 0.381728; }
line.gray {stroke: rgb(204, 204, 204); stroke-width: 0.381728; }
line.brown {stroke: rgb(211.65, 104.55, 30.6); stroke-width: 0.381728; }
line {stroke: rgb(0, 0, 0); }
text.numbering-label {fill: rgb(204, 204, 204);}
line.numbering-line {stroke: rgb(204, 204, 204); stroke-width: 0.190864;}
line.predicted {stroke: rgb(0, 0, 0); stroke-dasharray: 2}
text.background {fill: rgb(255, 255, 255);
.template {visibility:hidden}
]]>
</style></g>
<g><title>0 (position.label in template: 0.5')</title><text x="114.315" y="327.322" class="green" >5'</text></g>
<g><title>1 (position.label in template: 8.G)</title><text x="114.315" y="319.761" class="black" >G</text></g>
<g><line x1="116.351" y1="319.456" x2="124.729" y2="319.456" class="black" /></g>
<g><title>2 (position.label in template: 9.G)</title><text x="114.315" y="312.201" class="green" >A</text></g>
<g><line x1="116.351" y1="311.896" x2="124.729" y2="311.896" class="black" /></g>
<g><title>3 (position.label in template: 10.G)</title><text x="114.315" y="304.641" class="black" >G</text></g>
<g><line x1="116.351" y1="304.336" x2="124.729" y2="304.336" class="black" /></g>
<g><title>4 (position.label in template: 11.U)</title><text x="114.525" y="297.081" class="green" >C</text></g>
<g><line x1="116.561" y1="296.776" x2="124.729" y2="296.776" class="black" /></g>
<g><title>5 (position.label in template: 12.A)</title><text x="114.735" y="289.521" class="black" >A</text></g>
<g><line x1="116.771" y1="289.216" x2="124.729" y2="289.216" class="black" /></g>
<g><title>6 (position.label in template: 13.A)</title><text x="114.735" y="281.961" class="black" >A</text></g>
<g><line x1="116.771" y1="281.656" x2="124.729" y2="281.656" class="black" /></g>
<g><title>7 (position.label in template: 14.G)</title><text x="114.315" y="274.401" class="black" >G</text></g>
<g><line x1="116.351" y1="274.096" x2="124.729" y2="274.096" class="black" /></g>
<g><title>8 (position.label in template: 15.U)</title><text x="114.525" y="266.841" class="black" >U</text></g>
<g><line x1="116.561" y1="266.536" x2="124.519" y2="266.536" class="black" /></g>
<g><title>9 (position.label in template: 16.C)</title><text x="114.623" y="259.101" class="blue" >C</text></g>
<g><title>10 (position.label in template: 17.Y)</title><text x="114.761" y="251.362" class="green" >C</text></g>
<g><line x1="116.797" y1="251.056" x2="124.755" y2="251.056" class="black" /></g>
<g><title>10 (inserted)</title><text x="107.89" y="251.394" class="numbering-label sequential" >10</text></g>
<g><line x1="112.928" y1="251.37" x2="109.722" y2="251.386" class="numbering-line sequential" /></g>
<g><title>11 (position.label in template: 18.U)</title><text x="114.551" y="243.802" class="black" >U</text></g>
<g><line x1="116.587" y1="243.496" x2="124.965" y2="243.496" class="black" /></g>
<g><title>12 (position.label in template: 19.A)</title><text x="114.761" y="236.242" class="black" >A</text></g>
<g><line x1="116.797" y1="235.936" x2="124.755" y2="235.936" class="black" /></g>
<g><title>13 (position.label in template: 20.Y)</title><text x="114.761" y="228.682" class="green" >C</text></g>
<g><line x1="116.797" y1="228.376" x2="124.755" y2="228.376" class="black" /></g>
<g><title>14 (position.label in template: 21.A)</title><text x="114.761" y="221.122" class="black" >A</text></g>
<g><line x1="116.797" y1="220.816" x2="124.755" y2="220.816" class="black" /></g>
<g><title>15 (position.label in template: 22.C)</title><text x="114.551" y="213.562" class="black" >C</text></g>
<g><line x1="116.587" y1="213.256" x2="124.545" y2="213.256" class="black" /></g>
<g><title>16 (position.label in template: 23.G)</title><text x="114.341" y="206.002" class="green" >A</text></g>
<g><line x1="116.377" y1="205.696" x2="124.755" y2="205.696" class="black" /></g>
<g><title>17 (position.label in template: 24.R)</title><text x="114.551" y="198.442" class="green" >A</text></g>
<g><line x1="116.587" y1="198.136" x2="124.965" y2="198.136" class="black" /></g>
<g><title>18 (position.label in template: 25.C)</title><text x="114.551" y="190.882" class="green" >U</text></g>
<g><line x1="116.587" y1="190.576" x2="124.545" y2="190.576" class="black" /></g>
<g><title>19 (position.label in template: 26.C)</title><text x="107.188" y="189.859" class="blue" >C</text></g>
<g><title>20 (position.label in template: 27.A)</title><text x="99.9732" y="188.067" class="blue" >A</text></g>
<g><title>20 (inserted)</title><text x="97.9681" y="194.639" class="numbering-label sequential" >20</text></g>
<g><line x1="99.4385" y1="189.82" x2="98.434" y2="193.112" class="numbering-line sequential" /></g>
<g><title>21 (position.label in template: 28.G)</title><text x="92.9871" y="185.527" class="blue" >G</text></g>
<g><title>22 (position.label in template: 29.C)</title><text x="86.3071" y="182.265" class="blue" >C</text></g>
<g><title>23 (position.label in template: 30.U)</title><text x="80.0072" y="178.319" class="blue" >U</text></g>
<g><title>24 (position.label in template: 31.C)</title><text x="74.1573" y="173.732" class="blue" >C</text></g>
<g><title>25 (position.label in template: 32.C)</title><text x="68.8225" y="168.555" class="blue" >C</text></g>
<g><title>26 (position.label in template: 33.Y)</title><text x="64.0617" y="162.846" class="green" >C</text></g>
<g><title>27 (position.label in template: 34.N)</title><text x="59.928" y="156.668" class="green" >U</text></g>
<g><title>28 (position.label in template: 35.Y)</title><text x="56.4671" y="150.089" class="green" >A</text></g>
<g><title>29 (position.label in template: 36.N)</title><text x="53.7175" y="143.182" class="green" >U</text></g>
<g><title>30 (position.label in template: 37.G)</title><text x="51.7097" y="136.025" class="green" >A</text></g>
<g><title>30 (inserted)</title><text x="45.0054" y="137.53" class="numbering-label sequential" >30</text></g>
<g><line x1="49.9219" y1="136.426" x2="46.8377" y2="137.118" class="numbering-line sequential" /></g>
<g><title>31 (position.label in template: 38.A)</title><text x="50.4659" y="128.696" class="blue" >A</text></g>
<g><title>32 (position.label in template: 39.A)</title><text x="50" y="121.277" class="green" >C</text></g>
<g><title>33 (position.label in template: 40.U)</title><text x="50.3171" y="113.85" class="blue" >U</text></g>
<g><title>34 (position.label in template: 41.C)</title><text x="51.4137" y="106.497" class="blue" >C</text></g>
<g><title>35 (position.label in template: 42.C)</title><text x="53.2776" y="99.3011" class="blue" >C</text></g>
<g><title>36 (position.label in template: 43.C)</title><text x="55.8882" y="92.3409" class="green" >U</text></g>
<g><title>37 (position.label in template: 44.C)</title><text x="59.2165" y="85.6939" class="blue" >C</text></g>
<g><title>38 (position.label in template: 45.C)</title><text x="63.2255" y="79.4339" class="blue" >C</text></g>
<g><title>39 (position.label in template: 46.A)</title><text x="67.8708" y="73.6303" class="blue" >A</text></g>
<g><title>40 (position.label in template: 47.G)</title><text x="73.1009" y="68.3476" class="blue" >G</text></g>
<g><title>41 (position.label in template: 48.G)</title><text x="78.8576" y="63.6443" class="blue" >G</text></g>
<g><title>42 (position.label in template: 49.G)</title><text x="85.0771" y="59.5727" class="blue" >G</text></g>
<g><title>43 (position.label in template: 50.Y)</title><text x="91.6904" y="56.178" class="green" >U</text></g>
<g><title>44 (position.label in template: 51.N)</title><text x="98.6241" y="53.4978" class="green" >G</text></g>
<g><title>45 (position.label in template: 52.N)</title><text x="105.801" y="51.5618" class="green" >G</text></g>
<g><title>46 (position.label in template: 53.G)</title><text x="113.142" y="50.3915" class="blue" >G</text></g>
<g><title>47 (position.label in template: 54.A)</title><text x="120.566" y="50" class="blue" >A</text></g>
<g><title>48 (position.label in template: 55.N)</title><text x="127.989" y="50.3915" class="green" >A</text></g>
<g><title>49 (position.label in template: 56.N)</title><text x="135.33" y="51.5618" class="green" >C</text></g>
<g><title>50 (position.label in template: 57.G)</title><text x="142.507" y="53.4978" class="green" >A</text></g>
<g><title>50 (inserted)</title><text x="144.644" y="46.9672" class="numbering-label sequential" >50</text></g>
<g><line x1="143.077" y1="51.7563" x2="144.144" y2="48.4941" class="numbering-line sequential" /></g>
<g><title>51 (position.label in template: 58.C)</title><text x="149.441" y="56.178" class="blue" >C</text></g>
<g><title>52 (position.label in template: 59.A)</title><text x="156.054" y="59.5727" class="blue" >A</text></g>
<g><title>53 (position.label in template: 60.G)</title><text x="162.274" y="63.6443" class="blue" >G</text></g>
<g><title>54 (position.label in template: 61.C)</title><text x="168.031" y="68.3476" class="blue" >C</text></g>
<g><title>55 (position.label in template: 62.A)</title><text x="173.261" y="73.6303" class="blue" >A</text></g>
<g><title>56 (position.label in template: 63.A)</title><text x="177.906" y="79.4339" class="blue" >A</text></g>
<g><title>57 (position.label in template: 64.G)</title><text x="181.915" y="85.6939" class="green" >A</text></g>
<g><title>58 (position.label in template: 65.G)</title><text x="185.243" y="92.3409" class="blue" >G</text></g>
<g><title>59 (position.label in template: 66.G)</title><text x="187.854" y="99.3011" class="blue" >G</text></g>
<g><title>60 (position.label in template: 67.U)</title><text x="189.718" y="106.497" class="blue" >U</text></g>
<g><title>61 (position.label in template: 68.A)</title><text x="190.814" y="113.85" class="blue" >A</text></g>
<g><title>62 (position.label in template: 69.N)</title><text x="191.132" y="121.277" class="green" >A</text></g>
<g><title>63 (inserted)</title><text x="190.666" y="128.696" class="red" >U</text></g>
<g><title>64 (position.label in template: 70.N)</title><text x="189.422" y="136.025" class="green" >U</text></g>
<g><title>65 (position.label in template: 71.N)</title><text x="187.414" y="143.182" class="green" >A</text></g>
<g><title>66 (position.label in template: 72.G)</title><text x="184.664" y="150.089" class="blue" >G</text></g>
<g><title>67 (position.label in template: 73.G)</title><text x="181.204" y="156.668" class="blue" >G</text></g>
<g><title>68 (position.label in template: 74.U)</title><text x="177.07" y="162.846" class="blue" >U</text></g>
<g><title>69 (position.label in template: 75.Y)</title><text x="172.309" y="168.555" class="green" >U</text></g>
<g><title>70 (position.label in template: 76.G)</title><text x="166.974" y="173.732" class="blue" >G</text></g>
<g><title>71 (position.label in template: 77.U)</title><text x="161.124" y="178.319" class="blue" >U</text></g>
<g><title>72 (position.label in template: 78.A)</title><text x="154.824" y="182.265" class="blue" >A</text></g>
<g><title>73 (position.label in template: 79.G)</title><text x="148.144" y="185.527" class="blue" >G</text></g>
<g><title>74 (position.label in template: 80.C)</title><text x="141.158" y="188.067" class="blue" >C</text></g>
<g><title>75 (position.label in template: 81.G)</title><text x="133.944" y="189.859" class="blue" >G</text></g>
<g><title>76 (position.label in template: 82.G)</title><text x="126.581" y="190.882" class="green" >A</text></g>
<g><title>77 (position.label in template: 83.Y)</title><text x="127.001" y="198.442" class="green" >U</text></g>
<g><title>78 (position.label in template: 84.G)</title><text x="133.131" y="202.222" class="black" >G</text></g>
<g><title>79 (position.label in template: 85.C)</title><text x="126.791" y="206.002" class="green" >U</text></g>
<g><title>80 (position.label in template: 86.G)</title><text x="126.581" y="213.562" class="black" >G</text></g>
<g><title>81 (position.label in template: 87.A)</title><text x="133.541" y="217.342" class="black" >A</text></g>
<g><title>82 (position.label in template: 88.U)</title><text x="126.791" y="221.122" class="black" >U</text></g>
<g><title>83 (position.label in template: 89.R)</title><text x="126.791" y="228.682" class="green" >G</text></g>
<g><title>84 (position.label in template: 90.U)</title><text x="126.791" y="236.242" class="black" >U</text></g>
<g><title>85 (position.label in template: 91.A)</title><text x="127.001" y="243.802" class="black" >A</text></g>
<g><title>86 (position.label in template: 92.R)</title><text x="126.791" y="251.362" class="green" >G</text></g>
<g><title>87 (position.label in template: 93.N)</title><text x="132.951" y="251.674" class="green" >U</text></g>
<g><title>88 (position.label in template: 94.Y)</title><text x="137.167" y="256.177" class="green" >U</text></g>
<g><title>89 (inserted)</title><text x="137.073" y="262.344" class="red" >C</text></g>
<g><title>90 (position.label in template: 95.N)</title><text x="132.722" y="266.717" class="green" >C</text></g>
<g><title>91 (position.label in template: 96.G)</title><text x="126.555" y="266.841" class="black" >G</text></g>
<g><title>92 (position.label in template: 97.C)</title><text x="126.765" y="274.401" class="black" >C</text></g>
<g><title>93 (position.label in template: 98.U)</title><text x="126.765" y="281.961" class="black" >U</text></g>
<g><title>94 (position.label in template: 99.U)</title><text x="126.765" y="289.521" class="black" >U</text></g>
<g><title>95 (position.label in template: 100.R)</title><text x="126.765" y="297.081" class="green" >G</text></g>
<g><title>96 (position.label in template: 101.C)</title><text x="126.765" y="304.641" class="black" >C</text></g>
<g><title>97 (position.label in template: 102.C)</title><text x="126.765" y="312.201" class="green" >U</text></g>
<g><title>98 (position.label in template: 103.C)</title><text x="126.765" y="319.761" class="black" >C</text></g>
<g><title>99 (position.label in template: 104.N)</title><text x="132.082" y="325.136" class="green" >C</text></g>
<g><title>100 (position.label in template: 105.N)</title><text x="139.643" y="325.136" class="green" >A</text></g>
<g><title>101 (position.label in template: 108.3')</title><text x="147.203" y="325.136" class="green" >3'</text></g>
<g><line x1="114.315" y1="324.98" x2="114.315" y2="321.491" class="gray" /></g>
<g><line x1="114.315" y1="317.42" x2="114.315" y2="313.931" class="gray" /></g>
<g><line x1="114.315" y1="309.86" x2="114.315" y2="306.371" class="gray" /></g>
<g><line x1="114.372" y1="302.301" x2="114.469" y2="298.811" class="gray" /></g>
<g><line x1="114.582" y1="294.741" x2="114.679" y2="291.251" class="gray" /></g>
<g><line x1="114.735" y1="287.18" x2="114.735" y2="283.691" class="gray" /></g>
<g><line x1="114.622" y1="279.623" x2="114.428" y2="276.128" class="gray" /></g>
<g><line x1="114.372" y1="272.061" x2="114.469" y2="268.571" class="gray" /></g>
<g><line x1="114.551" y1="264.5" x2="114.597" y2="260.831" class="gray" /></g>
<g><line x1="114.659" y1="256.76" x2="114.724" y2="253.092" class="gray" /></g>
<g><line x1="114.704" y1="249.021" x2="114.607" y2="245.532" class="gray" /></g>
<g><line x1="114.607" y1="241.461" x2="114.704" y2="237.972" class="gray" /></g>
<g><line x1="114.761" y1="233.901" x2="114.761" y2="230.412" class="gray" /></g>
<g><line x1="114.761" y1="226.341" x2="114.761" y2="222.852" class="gray" /></g>
<g><line x1="114.704" y1="218.781" x2="114.607" y2="215.292" class="gray" /></g>
<g><line x1="114.494" y1="211.221" x2="114.397" y2="207.732" class="gray" /></g>
<g><line x1="114.397" y1="203.661" x2="114.494" y2="200.172" class="gray" /></g>
<g><line x1="114.551" y1="196.101" x2="114.551" y2="192.612" class="gray" /></g>
<g><line x1="112.534" y1="190.296" x2="109.204" y2="189.834" class="gray" /></g>
<g><line x1="105.212" y1="189.063" x2="101.949" y2="188.253" class="gray" /></g>
<g><line x1="98.0599" y1="187.066" x2="94.9004" y2="185.917" class="gray" /></g>
<g><line x1="91.1576" y1="184.328" x2="88.1365" y2="182.853" class="gray" /></g>
<g><line x1="84.5817" y1="180.879" x2="81.7325" y2="179.094" class="gray" /></g>
<g><line x1="78.4051" y1="176.757" x2="75.7594" y2="174.683" class="gray" /></g>
<g><line x1="72.6963" y1="172.009" x2="70.2835" y2="169.668" class="gray" /></g>
<g><line x1="67.5186" y1="166.686" x2="65.3656" y2="164.104" class="gray" /></g>
<g><line x1="62.9296" y1="160.849" x2="61.0601" y2="158.054" class="gray" /></g>
<g><line x1="58.9802" y1="154.56" x2="57.415" y2="151.585" class="gray" /></g>
<g><line x1="55.7141" y1="147.892" x2="54.4706" y2="144.768" class="gray" /></g>
<g><line x1="53.1677" y1="140.917" x2="52.2596" y2="137.68" class="gray" /></g>
<g><line x1="51.3691" y1="133.712" x2="50.8066" y2="130.398" class="gray" /></g>
<g><line x1="50.3383" y1="126.359" x2="50.1276" y2="123.003" class="gray" /></g>
<g><line x1="50.0868" y1="118.937" x2="50.2303" y2="115.578" class="gray" /></g>
<g><line x1="50.6174" y1="111.531" x2="51.1134" y2="108.206" class="gray" /></g>
<g><line x1="51.9242" y1="104.221" x2="52.7672" y2="100.967" class="gray" /></g>
<g><line x1="53.9926" y1="97.0895" x2="55.1733" y2="93.9417" class="gray" /></g>
<g><line x1="56.7997" y1="90.2151" x2="58.305" y2="87.2089" class="gray" /></g>
<g><line x1="60.3145" y1="83.6741" x2="62.1276" y2="80.8429" class="gray" /></g>
<g><line x1="64.4978" y1="77.539" x2="66.5986" y2="74.9143" class="gray" /></g>
<g><line x1="69.3032" y1="71.8781" x2="71.6685" y2="69.489" class="gray" /></g>
<g><line x1="74.6775" y1="66.7541" x2="77.281" y2="64.627" class="gray" /></g>
<g><line x1="80.5609" y1="62.2239" x2="83.3737" y2="60.3824" class="gray" /></g>
<g><line x1="86.8883" y1="58.3376" x2="89.8792" y2="56.8023" class="gray" /></g>
<g><line x1="93.5894" y1="55.1386" x2="96.7252" y2="53.9264" class="gray" /></g>
<g><line x1="100.59" y1="52.6622" x2="103.836" y2="51.7866" class="gray" /></g>
<g><line x1="107.812" y1="50.9359" x2="111.132" y2="50.4066" class="gray" /></g>
<g><line x1="115.175" y1="49.9789" x2="118.533" y2="49.8018" class="gray" /></g>
<g><line x1="122.599" y1="49.8018" x2="125.956" y2="49.9789" class="gray" /></g>
<g><line x1="130" y1="50.4066" x2="133.32" y2="50.9359" class="gray" /></g>
<g><line x1="137.296" y1="51.7866" x2="140.542" y2="52.6622" class="gray" /></g>
<g><line x1="144.406" y1="53.9264" x2="147.542" y2="55.1386" class="gray" /></g>
<g><line x1="151.252" y1="56.8023" x2="154.243" y2="58.3376" class="gray" /></g>
<g><line x1="157.758" y1="60.3824" x2="160.571" y2="62.2239" class="gray" /></g>
<g><line x1="163.851" y1="64.627" x2="166.454" y2="66.7541" class="gray" /></g>
<g><line x1="169.463" y1="69.489" x2="171.828" y2="71.8781" class="gray" /></g>
<g><line x1="174.533" y1="74.9143" x2="176.634" y2="77.539" class="gray" /></g>
<g><line x1="179.004" y1="80.8429" x2="180.817" y2="83.6741" class="gray" /></g>
<g><line x1="182.827" y1="87.2089" x2="184.332" y2="90.2151" class="gray" /></g>
<g><line x1="185.958" y1="93.9417" x2="187.139" y2="97.0895" class="gray" /></g>
<g><line x1="188.364" y1="100.967" x2="189.207" y2="104.221" class="gray" /></g>
<g><line x1="190.018" y1="108.206" x2="190.514" y2="111.531" class="gray" /></g>
<g><line x1="190.901" y1="115.578" x2="191.045" y2="118.937" class="gray" /></g>
<g><line x1="191.004" y1="123.003" x2="190.793" y2="126.359" class="gray" /></g>
<g><line x1="190.325" y1="130.398" x2="189.762" y2="133.712" class="gray" /></g>
<g><line x1="188.872" y1="137.68" x2="187.964" y2="140.917" class="gray" /></g>
<g><line x1="186.661" y1="144.768" x2="185.417" y2="147.892" class="gray" /></g>
<g><line x1="183.717" y1="151.585" x2="182.151" y2="154.56" class="gray" /></g>
<g><line x1="180.071" y1="158.054" x2="178.202" y2="160.849" class="gray" /></g>
<g><line x1="175.766" y1="164.104" x2="173.613" y2="166.686" class="gray" /></g>
<g><line x1="170.848" y1="169.668" x2="168.435" y2="172.009" class="gray" /></g>
<g><line x1="165.372" y1="174.683" x2="162.726" y2="176.757" class="gray" /></g>
<g><line x1="159.399" y1="179.094" x2="156.55" y2="180.879" class="gray" /></g>
<g><line x1="152.995" y1="182.853" x2="149.974" y2="184.328" class="gray" /></g>
<g><line x1="146.231" y1="185.917" x2="143.072" y2="187.066" class="gray" /></g>
<g><line x1="139.182" y1="188.253" x2="135.92" y2="189.063" class="gray" /></g>
<g><line x1="131.927" y1="189.834" x2="128.597" y2="190.296" class="gray" /></g>
<g><line x1="126.694" y1="192.609" x2="126.888" y2="196.104" class="gray" /></g>
<g><line x1="128.734" y1="199.205" x2="131.398" y2="200.848" class="gray" /></g>
<g><line x1="131.382" y1="202.959" x2="128.539" y2="204.654" class="gray" /></g>
<g><line x1="126.734" y1="207.732" x2="126.637" y2="211.221" class="gray" /></g>
<g><line x1="128.37" y1="214.228" x2="131.752" y2="216.065" class="gray" /></g>
<g><line x1="131.764" y1="218.031" x2="128.567" y2="219.822" class="gray" /></g>
<g><line x1="126.791" y1="222.852" x2="126.791" y2="226.341" class="gray" /></g>
<g><line x1="126.791" y1="230.412" x2="126.791" y2="233.901" class="gray" /></g>
<g><line x1="126.847" y1="237.972" x2="126.944" y2="241.461" class="gray" /></g>
<g><line x1="126.944" y1="245.532" x2="126.847" y2="249.021" class="gray" /></g>
<g><line x1="128.824" y1="251.159" x2="130.918" y2="251.265" class="gray" /></g>
<g><line x1="134.343" y1="252.854" x2="135.776" y2="254.385" class="gray" /></g>
<g><line x1="137.136" y1="257.907" x2="137.104" y2="260.003" class="gray" /></g>
<g><line x1="135.637" y1="263.482" x2="134.158" y2="264.968" class="gray" /></g>
<g><line x1="130.687" y1="266.452" x2="128.591" y2="266.495" class="gray" /></g>
<g><line x1="126.612" y1="268.571" x2="126.709" y2="272.061" class="gray" /></g>
<g><line x1="126.765" y1="276.131" x2="126.765" y2="279.62" class="gray" /></g>
<g><line x1="126.765" y1="283.691" x2="126.765" y2="287.18" class="gray" /></g>
<g><line x1="126.765" y1="291.251" x2="126.765" y2="294.74" class="gray" /></g>
<g><line x1="126.765" y1="298.811" x2="126.765" y2="302.3" class="gray" /></g>
<g><line x1="126.765" y1="306.371" x2="126.765" y2="309.86" class="gray" /></g>
<g><line x1="126.765" y1="313.931" x2="126.765" y2="317.42" class="gray" /></g>
<g><line x1="128.197" y1="320.903" x2="130.65" y2="323.383" class="gray" /></g>
<g><line x1="134.118" y1="324.831" x2="137.607" y2="324.831" class="gray" /></g>
<g><line x1="141.679" y1="324.831" x2="145.167" y2="324.831" class="gray" /></g>
</svg>
