<svg
	xmlns="http://www.w3.org/2000/svg"
	width="236.901"
	height="241.929"
	style="font-size: 3.048045px; font-weight: bold; font-family: Helvetica; " >
<g><style type="text/css" >
<!-- create color definitions -->
<![CDATA[
text.red {fill: rgb(255, 0, 255); }
text.green {fill: rgb(0, 255, 0); }
text.blue {fill: rgb(0, 0, 255); }
text.black {fill: rgb(0, 0, 0); }
text.gray {fill: rgb(204, 204, 204); }
text.brown {fill: rgb(211.65, 104.55, 30.6); }
text {fill: rgb(0, 0, 0); text-anchor: middle; alignment-baseline: middle; }
circle.red {stroke: rgb(255, 0, 255); fill: none; }
circle.green {stroke: rgb(0, 255, 0); fill: none; }
circle.blue {stroke: rgb(0, 0, 255); fill: none; }
circle.black {stroke: rgb(0, 0, 0); fill: none; }
circle.gray {stroke: rgb(204, 204, 204); fill: none; }
circle.brown {stroke: rgb(211.65, 104.55, 30.6); fill: none; }
circle {stroke: rgb(0, 0, 0); }
line.red {stroke: rgb(255, 0, 255); stroke-width: 0.381006; }
line.green {stroke: rgb(0, 255, 0); stroke-width: 0.381006; }
line.blue {stroke: rgb(0, 0, 255); stroke-width: 0.381006; }
line.black {stroke: rgb(0, 0, 0); stroke-width: 0.381006; }
line.gray {stroke: rgb(204, 204, 204); stroke-width: 0.381006; }
line.brown {stroke: rgb(211.65, 104.55, 30.6); stroke-width: 0.381006; }
line {stroke: rgb(0, 0, 0); }
text.numbering-label {fill: rgb(204, 204, 204);}
line.numbering-line {stroke: rgb(204, 204, 204); stroke-width: 0.190503;}
line.predicted {stroke: rgb(0, 0, 0); stroke-dasharray: 2}
text.background {fill: rgb(255, 255, 255);
.template {visibility:hidden}
]]>
</style></g>
<g><title>0 (position.label in template: 0.5')</title><text x="114.843" y="47.8379" class="green" >5'</text></g>
<g><title>1 (position.label in template: 1.G)</title><text x="115.211" y="55.3395" class="black" >G</text></g>
<g><line x1="117.243" y1="55.0347" x2="125.628" y2="55.0347" class="black" /></g>
<g><title>2 (position.label in template: 2.N)</title><text x="115.571" y="62.6895" class="green" >C</text></g>
<g><line x1="117.603" y1="62.3847" x2="125.778" y2="62.3847" class="black" /></g>
<g><title>3 (position.label in template: 3.Y)</title><text x="115.631" y="70.4595" class="green" >C</text></g>
<g><line x1="117.663" y1="70.1547" x2="125.418" y2="70.1547" class="black" /></g>
<g><title>4 (position.label in template: 4.N)</title><text x="115.571" y="77.8095" class="green" >U</text></g>
<g><line x1="117.603" y1="77.5047" x2="125.778" y2="77.5047" class="black" /></g>
<g><title>5 (position.label in template: 5.Y)</title><text x="115.631" y="85.5795" class="green" >U</text></g>
<g><line x1="117.663" y1="85.2747" x2="125.628" y2="85.2747" class="black" /></g>
<g><title>6 (position.label in template: 6.Y)</title><text x="115.631" y="93.1395" class="green" >U</text></g>
<g><line x1="117.663" y1="92.8347" x2="125.628" y2="92.8347" class="black" /></g>
<g><title>7 (position.label in template: 7.R)</title><text x="115.421" y="100.699" class="green" >G</text></g>
<g><line x1="117.452" y1="100.36" x2="125.779" y2="100.219" class="black" /></g>
<g><title>8 (position.label in template: 8.U)</title><text x="107.725" y="105.795" class="blue" >U</text></g>
<g><title>9 (position.label in template: 9.R)</title><text x="100.062" y="110.939" class="green" >G</text></g>
<g><title>10 (position.label in template: 11.C)</title><text x="92.4305" y="116.129" class="green" >G</text></g>
<g><line x1="92.3957" y1="117.856" x2="92.2554" y2="126.033" class="black" /></g>
<g><title>10 (inserted)</title><text x="90.2928" y="109.613" class="numbering-label sequential" >10</text></g>
<g><line x1="91.8605" y1="114.392" x2="90.7927" y2="111.137" class="numbering-line sequential" /></g>
<g><title>11 (inserted)</title><text x="87.0703" y="115.2" class="red" >U</text></g>
<g><title>12 (position.label in template: 12.U)</title><text x="81.71" y="116.129" class="green" >G</text></g>
<g><line x1="81.7449" y1="117.856" x2="81.8851" y2="126.033" class="black" /></g>
<g><title>13 (position.label in template: 13.Y)</title><text x="74.36" y="116.129" class="green" >U</text></g>
<g><line x1="74.3251" y1="117.856" x2="74.1849" y2="126.033" class="black" /></g>
<g><title>14 (position.label in template: 14.A)</title><text x="69.02" y="110.769" class="black" >A</text></g>
<g><title>15 (position.label in template: 15.G)</title><text x="61.19" y="109.289" class="black" >G</text></g>
<g><title>16 (position.label in template: 16.U)</title><text x="54.41" y="112.179" class="black" >U</text></g>
<g><title>17 (position.label in template: 17.G)</title><text x="50" y="118.469" class="black" >G</text></g>
<g><title>18 (position.label in template: 18.G)</title><text x="50" y="126.029" class="black" >G</text></g>
<g><title>19 (position.label in template: 19.U)</title><text x="54.41" y="132.309" class="black" >U</text></g>
<g><title>20 (position.label in template: 20.N)</title><text x="61.55" y="134.989" class="green" >C</text></g>
<g><title>20 (inserted)</title><text x="60.8912" y="141.816" class="numbering-label sequential" >20</text></g>
<g><line x1="61.3743" y1="136.81" x2="61.0383" y2="140.292" class="numbering-line sequential" /></g>
<g><title>21 (position.label in template: 21.A)</title><text x="69.02" y="133.719" class="black" >A</text></g>
<g><title>22 (position.label in template: 22.R)</title><text x="74.15" y="128.369" class="green" >G</text></g>
<g><title>23 (position.label in template: 23.A)</title><text x="81.92" y="128.369" class="green" >C</text></g>
<g><title>24 (inserted)</title><text x="87.0703" y="129.968" class="red" >C</text></g>
<g><title>25 (position.label in template: 24.G)</title><text x="92.2205" y="128.369" class="green" >C</text></g>
<g><title>26 (position.label in template: 26.R)</title><text x="100.494" y="134.478" class="green" >G</text></g>
<g><title>27 (position.label in template: 27.Y)</title><text x="108.811" y="140.529" class="green" >C</text></g>
<g><line x1="110.723" y1="140.912" x2="118.228" y2="143.608" class="black" /></g>
<g><title>28 (position.label in template: 28.Y)</title><text x="106.291" y="147.659" class="green" >U</text></g>
<g><line x1="108.203" y1="148.041" x2="115.718" y2="150.738" class="black" /></g>
<g><title>29 (position.label in template: 29.N)</title><text x="103.721" y="154.579" class="green" >C</text></g>
<g><line x1="105.637" y1="154.951" x2="113.344" y2="157.669" class="black" /></g>
<g><title>30 (position.label in template: 30.N)</title><text x="101.211" y="161.709" class="green" >G</text></g>
<g><line x1="103.127" y1="162.081" x2="110.834" y2="164.799" class="black" /></g>
<g><title>30 (inserted)</title><text x="94.743" y="159.428" class="numbering-label sequential" >30</text></g>
<g><line x1="99.4858" y1="161.101" x2="96.5718" y2="160.073" class="numbering-line sequential" /></g>
<g><title>31 (position.label in template: 31.N)</title><text x="98.6905" y="168.839" class="green" >A</text></g>
<g><line x1="100.607" y1="169.211" x2="108.314" y2="171.929" class="black" /></g>
<g><title>32 (position.label in template: 32.C)</title><text x="92.0105" y="172.859" class="black" >C</text></g>
<g><title>33 (position.label in template: 33.U)</title><text x="89.1205" y="179.849" class="green" >G</text></g>
<g><title>34 (position.label in template: 34.N)</title><text x="91.1905" y="186.949" class="green" >C</text></g>
<g><title>35 (position.label in template: 35.G)</title><text x="96.7905" y="191.819" class="black" >G</text></g>
<g><title>36 (position.label in template: 36.U)</title><text x="104.561" y="191.929" class="black" >U</text></g>
<g><title>37 (position.label in template: 37.A)</title><text x="110.851" y="187.439" class="black" >A</text></g>
<g><title>38 (position.label in template: 38.A)</title><text x="112.981" y="180.179" class="black" >A</text></g>
<g><title>39 (position.label in template: 39.N)</title><text x="110.231" y="172.909" class="green" >U</text></g>
<g><title>40 (position.label in template: 40.N)</title><text x="112.751" y="165.779" class="green" >C</text></g>
<g><title>41 (position.label in template: 41.N)</title><text x="115.261" y="158.649" class="green" >G</text></g>
<g><title>42 (position.label in template: 42.R)</title><text x="117.631" y="151.729" class="green" >A</text></g>
<g><title>43 (position.label in template: 43.R)</title><text x="120.141" y="144.599" class="green" >G</text></g>
<g><title>44 (position.label in template: 44.A)</title><text x="125.228" y="140.52" class="blue" >A</text></g>
<g><title>45 (position.label in template: 45.G)</title><text x="129.44" y="135.542" class="blue" >G</text></g>
<g><title>46 (position.label in template: 46.R)</title><text x="132.619" y="129.848" class="green" >G</text></g>
<g><title>47 (position.label in template: 47.U)</title><text x="134.647" y="123.651" class="blue" >U</text></g>
<g><title>48 (position.label in template: 49.N)</title><text x="135.451" y="117.179" class="green" >C</text></g>
<g><line x1="135.314" y1="114.847" x2="134.767" y2="106.692" class="black" /></g>
<g><title>49 (position.label in template: 50.Y)</title><text x="142.921" y="116.879" class="green" >C</text></g>
<g><line x1="142.758" y1="114.549" x2="142.093" y2="106.27" class="black" /></g>
<g><title>50 (position.label in template: 51.N)</title><text x="150.531" y="116.169" class="green" >G</text></g>
<g><line x1="150.394" y1="113.837" x2="149.847" y2="105.682" class="black" /></g>
<g><title>50 (inserted)</title><text x="148.944" y="122.842" class="numbering-label sequential" >50</text></g>
<g><line x1="150.107" y1="117.949" x2="149.306" y2="121.317" class="numbering-line sequential" /></g>
<g><title>51 (inserted)</title><text x="154.401" y="119.609" class="red" >U</text></g>
<g><title>52 (position.label in template: 52.R)</title><text x="157.841" y="115.739" class="green" >G</text></g>
<g><line x1="157.731" y1="113.406" x2="157.3" y2="105.374" class="black" /></g>
<g><title>53 (position.label in template: 53.G)</title><text x="165.211" y="115.119" class="black" >G</text></g>
<g><line x1="165.102" y1="112.786" x2="164.67" y2="104.744" class="black" /></g>
<g><title>54 (position.label in template: 54.U)</title><text x="171.461" y="119.719" class="black" >U</text></g>
<g><title>55 (position.label in template: 55.U)</title><text x="179.031" y="119.619" class="black" >U</text></g>
<g><title>56 (position.label in template: 56.C)</title><text x="184.981" y="114.949" class="black" >C</text></g>
<g><title>57 (position.label in template: 57.R)</title><text x="186.901" y="107.639" class="green" >G</text></g>
<g><title>58 (position.label in template: 58.A)</title><text x="184.191" y="100.779" class="black" >A</text></g>
<g><title>59 (position.label in template: 59.N)</title><text x="177.741" y="96.7595" class="green" >U</text></g>
<g><title>60 (position.label in template: 60.U)</title><text x="169.981" y="97.7495" class="black" >U</text></g>
<g><title>61 (position.label in template: 61.C)</title><text x="164.561" y="103.019" class="black" >C</text></g>
<g><title>62 (position.label in template: 62.Y)</title><text x="157.191" y="103.649" class="green" >C</text></g>
<g><title>63 (position.label in template: 63.N)</title><text x="149.711" y="103.959" class="green" >C</text></g>
<g><title>64 (position.label in template: 64.R)</title><text x="141.931" y="104.549" class="green" >G</text></g>
<g><title>65 (position.label in template: 65.N)</title><text x="134.631" y="104.969" class="green" >G</text></g>
<g><title>66 (position.label in template: 66.N)</title><text x="127.811" y="100.489" class="green" >C</text></g>
<g><title>67 (position.label in template: 67.R)</title><text x="127.661" y="93.1395" class="green" >G</text></g>
<g><title>68 (position.label in template: 68.R)</title><text x="127.661" y="85.5795" class="green" >A</text></g>
<g><title>69 (position.label in template: 69.N)</title><text x="127.811" y="77.8095" class="green" >A</text></g>
<g><title>70 (position.label in template: 70.G)</title><text x="127.451" y="70.4595" class="green" >G</text></g>
<g><title>71 (position.label in template: 71.N)</title><text x="127.811" y="62.6895" class="green" >G</text></g>
<g><title>72 (position.label in template: 72.C)</title><text x="127.661" y="55.3395" class="black" >C</text></g>
<g><title>73 (position.label in template: 73.N)</title><text x="132.942" y="50" class="green" >G</text></g>
<g><title>74 (position.label in template: 74.3')</title><text x="128.339" y="44.0655" class="green" >3'</text></g>
<g><line x1="114.943" y1="49.5627" x2="115.111" y2="53.0051" class="gray" /></g>
<g><line x1="115.31" y1="57.0643" x2="115.471" y2="60.3551" class="gray" /></g>
<g><line x1="115.586" y1="64.4166" x2="115.615" y2="68.1227" class="gray" /></g>
<g><line x1="115.614" y1="72.1866" x2="115.587" y2="75.4727" class="gray" /></g>
<g><line x1="115.586" y1="79.5366" x2="115.615" y2="83.2427" class="gray" /></g>
<g><line x1="115.631" y1="87.3067" x2="115.631" y2="90.8026" class="gray" /></g>
<g><line x1="115.574" y1="94.8659" x2="115.477" y2="98.3634" class="gray" /></g>
<g><line x1="113.726" y1="101.517" x2="109.42" y2="104.368" class="gray" /></g>
<g><line x1="106.038" y1="106.623" x2="101.749" y2="109.501" class="gray" /></g>
<g><line x1="98.3817" y1="111.777" x2="94.1107" y2="114.682" class="gray" /></g>
<g><line x1="90.4283" y1="115.478" x2="89.0724" y2="115.243" class="gray" /></g>
<g><line x1="85.0681" y1="115.243" x2="83.7122" y2="115.478" class="gray" /></g>
<g><line x1="79.678" y1="115.825" x2="76.392" y2="115.825" class="gray" /></g>
<g><line x1="72.9258" y1="114.385" x2="70.4542" y2="111.904" class="gray" /></g>
<g><line x1="67.0233" y1="110.087" x2="63.1867" y2="109.362" class="gray" /></g>
<g><line x1="59.3207" y1="109.781" x2="56.2793" y2="111.078" class="gray" /></g>
<g><line x1="53.2435" y1="113.538" x2="51.1665" y2="116.501" class="gray" /></g>
<g><line x1="50" y1="120.197" x2="50" y2="123.693" class="gray" /></g>
<g><line x1="51.1678" y1="127.388" x2="53.2422" y2="130.342" class="gray" /></g>
<g><line x1="56.3124" y1="132.719" x2="59.6476" y2="133.971" class="gray" /></g>
<g><line x1="63.5533" y1="134.344" x2="67.0167" y2="133.755" class="gray" /></g>
<g><line x1="70.4264" y1="131.948" x2="72.7436" y2="129.531" class="gray" /></g>
<g><line x1="76.182" y1="128.065" x2="79.888" y2="128.065" class="gray" /></g>
<g><line x1="83.8607" y1="128.667" x2="85.1295" y2="129.061" class="gray" /></g>
<g><line x1="89.011" y1="129.061" x2="90.2798" y2="128.667" class="gray" /></g>
<g><line x1="93.8553" y1="129.272" x2="98.8597" y2="132.966" class="gray" /></g>
<g><line x1="102.138" y1="135.369" x2="107.167" y2="139.029" class="gray" /></g>
<g><line x1="108.133" y1="142.141" x2="106.968" y2="145.439" class="gray" /></g>
<g><line x1="105.583" y1="149.26" x2="104.428" y2="152.37" class="gray" /></g>
<g><line x1="103.046" y1="156.191" x2="101.885" y2="159.488" class="gray" /></g>
<g><line x1="100.533" y1="163.321" x2="99.3677" y2="166.619" class="gray" /></g>
<g><line x1="96.9494" y1="169.582" x2="93.7516" y2="171.507" class="gray" /></g>
<g><line x1="91.2341" y1="174.433" x2="89.8969" y2="177.667" class="gray" /></g>
<g><line x1="89.6893" y1="181.495" x2="90.6218" y2="184.694" class="gray" /></g>
<g><line x1="92.7238" y1="187.978" x2="95.2572" y2="190.181" class="gray" /></g>
<g><line x1="98.8223" y1="191.543" x2="102.529" y2="191.596" class="gray" /></g>
<g><line x1="106.214" y1="190.444" x2="109.197" y2="188.315" class="gray" /></g>
<g><line x1="111.423" y1="185.185" x2="112.408" y2="181.825" class="gray" /></g>
<g><line x1="112.262" y1="177.974" x2="110.949" y2="174.505" class="gray" /></g>
<g><line x1="110.908" y1="170.689" x2="112.073" y2="167.391" class="gray" /></g>
<g><line x1="113.425" y1="163.558" x2="114.586" y2="160.261" class="gray" /></g>
<g><line x1="115.919" y1="156.422" x2="116.972" y2="153.347" class="gray" /></g>
<g><line x1="118.305" y1="149.508" x2="119.466" y2="146.211" class="gray" /></g>
<g><line x1="121.726" y1="143.024" x2="123.643" y2="141.487" class="gray" /></g>
<g><line x1="126.541" y1="138.664" x2="128.127" y2="136.788" class="gray" /></g>
<g><line x1="130.43" y1="133.463" x2="131.628" y2="131.318" class="gray" /></g>
<g><line x1="133.251" y1="127.612" x2="134.015" y2="125.277" class="gray" /></g>
<g><line x1="134.898" y1="121.329" x2="135.2" y2="118.891" class="gray" /></g>
<g><line x1="137.481" y1="116.793" x2="140.89" y2="116.656" class="gray" /></g>
<g><line x1="144.944" y1="116.386" x2="148.507" y2="116.053" class="gray" /></g>
<g><line x1="152.049" y1="117.215" x2="152.882" y2="117.955" class="gray" /></g>
<g><line x1="155.751" y1="117.786" x2="156.491" y2="116.953" class="gray" /></g>
<g><line x1="159.865" y1="115.264" x2="163.186" y2="114.985" class="gray" /></g>
<g><line x1="166.847" y1="116.019" x2="169.824" y2="118.21" class="gray" /></g>
<g><line x1="173.492" y1="119.388" x2="176.999" y2="119.342" class="gray" /></g>
<g><line x1="180.629" y1="118.06" x2="183.382" y2="115.899" class="gray" /></g>
<g><line x1="185.497" y1="112.679" x2="186.384" y2="109.3" class="gray" /></g>
<g><line x1="186.154" y1="105.445" x2="184.937" y2="102.365" class="gray" /></g>
<g><line x1="182.466" y1="99.3999" x2="179.465" y2="97.5295" class="gray" /></g>
<g><line x1="175.725" y1="96.7118" x2="171.996" y2="97.1875" class="gray" /></g>
<g><line x1="168.524" y1="98.8612" x2="166.017" y2="101.298" class="gray" /></g>
<g><line x1="162.536" y1="102.888" x2="159.215" y2="103.172" class="gray" /></g>
<g><line x1="155.16" y1="103.429" x2="151.741" y2="103.571" class="gray" /></g>
<g><line x1="147.684" y1="103.808" x2="143.957" y2="104.091" class="gray" /></g>
<g><line x1="139.902" y1="104.361" x2="136.659" y2="104.548" class="gray" /></g>
<g><line x1="132.932" y1="103.549" x2="129.509" y2="101.3" class="gray" /></g>
<g><line x1="127.769" y1="98.1531" x2="127.702" y2="94.8663" class="gray" /></g>
<g><line x1="127.661" y1="90.8026" x2="127.661" y2="87.3067" class="gray" /></g>
<g><line x1="127.7" y1="83.243" x2="127.771" y2="79.5363" class="gray" /></g>
<g><line x1="127.711" y1="75.4751" x2="127.55" y2="72.1843" class="gray" /></g>
<g><line x1="127.545" y1="68.1248" x2="127.716" y2="64.4145" class="gray" /></g>
<g><line x1="127.769" y1="60.3531" x2="127.702" y2="57.0663" class="gray" /></g>
<g><line x1="129.09" y1="53.59" x2="131.513" y2="51.1398" class="gray" /></g>
<g><line x1="131.697" y1="48.0896" x2="129.585" y2="45.3663" class="gray" /></g>
</svg>
