<svg
	xmlns="http://www.w3.org/2000/svg"
	width="327.172"
	height="272.66"
	style="font-size: 3.045014px; font-weight: bold; font-family: Helvetica; " >
<g><style type="text/css" >
<!-- create color definitions -->
<![CDATA[
text.red {fill: rgb(255, 0, 255); }
text.green {fill: rgb(0, 255, 0); }
text.blue {fill: rgb(0, 0, 255); }
text.black {fill: rgb(0, 0, 0); }
text.gray {fill: rgb(204, 204, 204); }
text.brown {fill: rgb(211.65, 104.55, 30.6); }
text {fill: rgb(0, 0, 0); text-anchor: middle; alignment-baseline: middle; }
circle.red {stroke: rgb(255, 0, 255); fill: none; }
circle.green {stroke: rgb(0, 255, 0); fill: none; }
circle.blue {stroke: rgb(0, 0, 255); fill: none; }
circle.black {stroke: rgb(0, 0, 0); fill: none; }
circle.gray {stroke: rgb(204, 204, 204); fill: none; }
circle.brown {stroke: rgb(211.65, 104.55, 30.6); fill: none; }
circle {stroke: rgb(0, 0, 0); }
line.red {stroke: rgb(255, 0, 255); stroke-width: 0.380627; }
line.green {stroke: rgb(0, 255, 0); stroke-width: 0.380627; }
line.blue {stroke: rgb(0, 0, 255); stroke-width: 0.380627; }
line.black {stroke: rgb(0, 0, 0); stroke-width: 0.380627; }
line.gray {stroke: rgb(204, 204, 204); stroke-width: 0.380627; }
line.brown {stroke: rgb(211.65, 104.55, 30.6); stroke-width: 0.380627; }
line {stroke: rgb(0, 0, 0); }
text.numbering-label {fill: rgb(204, 204, 204);}
line.numbering-line {stroke: rgb(204, 204, 204); stroke-width: 0.190313;}
line.predicted {stroke: rgb(0, 0, 0); stroke-dasharray: 2}
text.background {fill: rgb(255, 255, 255);
.template {visibility:hidden}
]]>
</style></g>
<g><title>0 (position.label in template: 0.5')</title><text x="42.4426" y="222.554" class="green" >5'</text></g>
<g><title>1 (position.label in template: 4.U)</title><text x="50" y="222.554" class="black" >U</text></g>
<g><title>2 (position.label in template: 5.U)</title><text x="57.5574" y="222.554" class="green" >C</text></g>
<g><title>3 (position.label in template: 6.U)</title><text x="65.1149" y="222.554" class="black" >U</text></g>
<g><title>4 (position.label in template: 7.A)</title><text x="72.6723" y="222.554" class="green" >U</text></g>
<g><title>5 (position.label in template: 8.A)</title><text x="78.0163" y="217.21" class="green" >U</text></g>
<g><line x1="80.0463" y1="216.906" x2="88.0162" y2="216.906" class="black" /></g>
<g><title>6 (position.label in template: 9.U)</title><text x="77.8063" y="209.65" class="green" >G</text></g>
<g><line x1="79.8363" y1="209.346" x2="87.8062" y2="209.346" class="black" /></g>
<g><title>7 (position.label in template: 10.C)</title><text x="77.8063" y="202.09" class="green" >A</text></g>
<g><line x1="79.8363" y1="201.786" x2="87.8062" y2="201.786" class="black" /></g>
<g><title>8 (position.label in template: 11.A)</title><text x="78.0163" y="194.53" class="black" >A</text></g>
<g><line x1="80.0463" y1="194.226" x2="88.0162" y2="194.226" class="black" /></g>
<g><title>9 (position.label in template: 12.U)</title><text x="77.9462" y="184.334" class="blue" >U</text></g>
<g><title>10 (position.label in template: 13.U)</title><text x="77.9462" y="174.137" class="blue" >U</text></g>
<g><title>10 (inserted)</title><text x="71.095" y="174.113" class="numbering-label sequential" >10</text></g>
<g><line x1="76.1192" y1="174.13" x2="72.922" y2="174.119" class="numbering-line sequential" /></g>
<g><title>11 (position.label in template: 22.A)</title><text x="78.0163" y="163.94" class="black" >A</text></g>
<g><line x1="80.0463" y1="163.635" x2="88.0162" y2="163.635" class="black" /></g>
<g><title>12 (position.label in template: 23.Y)</title><text x="78.0163" y="156.38" class="green" >U</text></g>
<g><line x1="80.046" y1="156.109" x2="88.1665" y2="156.242" class="black" /></g>
<g><title>13 (position.label in template: 24.U)</title><text x="71.2863" y="152.55" class="black" >U</text></g>
<g><title>14 (position.label in template: 25.A)</title><text x="66.9763" y="146.49" class="black" >A</text></g>
<g><title>15 (position.label in template: 26.A)</title><text x="65.2063" y="139.14" class="black" >A</text></g>
<g><title>16 (position.label in template: 27.G)</title><text x="66.0263" y="131.68" class="green" >U</text></g>
<g><title>17 (position.label in template: 28.A)</title><text x="70.4963" y="125.3" class="green" >U</text></g>
<g><title>18 (position.label in template: 29.A)</title><text x="76.7263" y="121.02" class="black" >A</text></g>
<g><title>19 (position.label in template: 30.A)</title><text x="84.1363" y="119.51" class="green" >G</text></g>
<g><title>20 (position.label in template: 31.N)</title><text x="91.4863" y="121.22" class="green" >A</text></g>
<g><title>20 (inserted)</title><text x="94.1987" y="114.928" class="numbering-label sequential" >20</text></g>
<g><line x1="92.2096" y1="119.542" x2="93.5423" y2="116.451" class="numbering-line sequential" /></g>
<g><title>21 (position.label in template: 32.U)</title><text x="97.5663" y="125.3" class="black" >U</text></g>
<g><title>22 (position.label in template: 33.N)</title><text x="101.766" y="131.89" class="green" >A</text></g>
<g><title>23 (position.label in template: 34.R)</title><text x="102.856" y="139.14" class="green" >U</text></g>
<g><title>24 (position.label in template: 35.G)</title><text x="100.866" y="146.49" class="green" >A</text></g>
<g><title>25 (position.label in template: 36.G)</title><text x="96.3563" y="152.55" class="black" >G</text></g>
<g><title>26 (position.label in template: 37.N)</title><text x="90.1963" y="156.58" class="green" >U</text></g>
<g><title>27 (position.label in template: 38.U)</title><text x="90.0463" y="163.94" class="black" >U</text></g>
<g><title>28 (inserted)</title><text x="96.6853" y="162.222" class="red" >U</text></g>
<g><title>29 (position.label in template: 40.U)</title><text x="103.464" y="163.261" class="blue" >U</text></g>
<g><title>30 (position.label in template: 41.U)</title><text x="109.284" y="166.889" class="blue" >U</text></g>
<g><title>30 (inserted)</title><text x="114.004" y="161.923" class="numbering-label sequential" >30</text></g>
<g><line x1="110.542" y1="165.565" x2="112.557" y2="163.446" class="numbering-line sequential" /></g>
<g><title>31 (inserted)</title><text x="113.201" y="172.518" class="red" >U</text></g>
<g><title>32 (inserted)</title><text x="114.581" y="179.235" class="red" >U</text></g>
<g><title>33 (inserted)</title><text x="113.201" y="185.953" class="red" >U</text></g>
<g><title>34 (inserted)</title><text x="109.284" y="191.581" class="red" >U</text></g>
<g><title>35 (position.label in template: 47.U)</title><text x="103.464" y="195.209" class="blue" >U</text></g>
<g><title>36 (position.label in template: 48.U)</title><text x="96.6853" y="196.248" class="blue" >U</text></g>
<g><title>37 (position.label in template: 49.U)</title><text x="90.0463" y="194.53" class="black" >U</text></g>
<g><title>38 (position.label in template: 50.G)</title><text x="89.8363" y="202.09" class="green" >U</text></g>
<g><title>39 (position.label in template: 51.G)</title><text x="89.8363" y="209.65" class="green" >C</text></g>
<g><title>40 (position.label in template: 52.U)</title><text x="90.0463" y="217.21" class="green" >U</text></g>
<g><title>41 (position.label in template: 53.U)</title><text x="95.3963" y="222.56" class="green" >G</text></g>
<g><title>42 (position.label in template: 54.U)</title><text x="102.956" y="222.56" class="black" >U</text></g>
<g><title>43 (position.label in template: 55.U)</title><text x="110.516" y="222.56" class="black" >U</text></g>
<g><title>44 (position.label in template: 56.U)</title><text x="118.076" y="222.56" class="black" >U</text></g>
<g><title>45 (position.label in template: 57.G)</title><text x="125.426" y="222.56" class="black" >G</text></g>
<g><title>46 (position.label in template: 58.A)</title><text x="133.396" y="222.56" class="black" >A</text></g>
<g><title>47 (position.label in template: 59.U)</title><text x="140.756" y="222.56" class="black" >U</text></g>
<g><title>48 (position.label in template: 60.A)</title><text x="148.516" y="222.56" class="green" >G</text></g>
<g><title>49 (position.label in template: 61.A)</title><text x="156.076" y="222.56" class="green" >G</text></g>
<g><title>50 (position.label in template: 62.A)</title><text x="163.636" y="222.56" class="black" >A</text></g>
<g><title>50 (inserted)</title><text x="163.636" y="229.412" class="numbering-label sequential" >50</text></g>
<g><line x1="163.636" y1="224.387" x2="163.636" y2="227.889" class="numbering-line sequential" /></g>
<g><title>51 (position.label in template: 63.G)</title><text x="170.786" y="222.56" class="green" >A</text></g>
<g><title>52 (position.label in template: 64.A)</title><text x="178.756" y="222.56" class="green" >G</text></g>
<g><title>53 (position.label in template: 65.G)</title><text x="185.906" y="222.56" class="black" >G</text></g>
<g><title>54 (position.label in template: 66.A)</title><text x="193.876" y="222.56" class="black" >A</text></g>
<g><title>55 (position.label in template: 67.A)</title><text x="201.436" y="222.56" class="black" >A</text></g>
<g><title>56 (position.label in template: 68.A)</title><text x="208.996" y="222.56" class="green" >G</text></g>
<g><title>57 (position.label in template: 69.G)</title><text x="216.146" y="222.56" class="green" >A</text></g>
<g><title>58 (position.label in template: 70.A)</title><text x="224.116" y="222.56" class="green" >U</text></g>
<g><title>59 (position.label in template: 71.U)</title><text x="229.256" y="217.21" class="black" >U</text></g>
<g><line x1="231.286" y1="216.906" x2="239.676" y2="216.906" class="black" /></g>
<g><title>60 (position.label in template: 72.G)</title><text x="229.046" y="209.65" class="black" >G</text></g>
<g><line x1="231.076" y1="209.346" x2="239.466" y2="209.346" class="black" /></g>
<g><title>61 (position.label in template: 73.C)</title><text x="229.256" y="202.09" class="black" >C</text></g>
<g><line x1="231.286" y1="201.786" x2="239.256" y2="201.786" class="black" /></g>
<g><title>62 (position.label in template: 74.C)</title><text x="229.256" y="194.53" class="black" >C</text></g>
<g><line x1="231.286" y1="194.226" x2="239.256" y2="194.226" class="black" /></g>
<g><title>63 (position.label in template: 75.U)</title><text x="229.256" y="186.97" class="black" >U</text></g>
<g><line x1="231.286" y1="186.666" x2="239.676" y2="186.666" class="black" /></g>
<g><title>64 (position.label in template: 76.C)</title><text x="229.256" y="179.41" class="black" >C</text></g>
<g><line x1="231.286" y1="179.106" x2="239.256" y2="179.106" class="black" /></g>
<g><title>65 (position.label in template: 77.U)</title><text x="229.256" y="171.85" class="black" >U</text></g>
<g><line x1="231.286" y1="171.546" x2="239.256" y2="171.546" class="black" /></g>
<g><title>66 (position.label in template: 78.U)</title><text x="222.546" y="168.37" class="black" >U</text></g>
<g><title>67 (position.label in template: 79.C)</title><text x="217.526" y="162.72" class="black" >C</text></g>
<g><title>68 (position.label in template: 80.U)</title><text x="214.836" y="155.66" class="black" >U</text></g>
<g><title>69 (position.label in template: 81.U)</title><text x="214.836" y="148.1" class="black" >U</text></g>
<g><title>70 (position.label in template: 82.U)</title><text x="217.526" y="141.03" class="black" >U</text></g>
<g><title>71 (position.label in template: 83.C)</title><text x="222.546" y="135.39" class="black" >C</text></g>
<g><title>72 (position.label in template: 84.A)</title><text x="229.466" y="131.9" class="black" >A</text></g>
<g><line x1="231.496" y1="131.596" x2="239.466" y2="131.596" class="black" /></g>
<g><title>73 (position.label in template: 85.G)</title><text x="229.046" y="124.34" class="black" >G</text></g>
<g><line x1="231.076" y1="124.036" x2="239.466" y2="124.036" class="black" /></g>
<g><title>74 (position.label in template: 86.C)</title><text x="229.256" y="116.78" class="black" >C</text></g>
<g><line x1="231.286" y1="116.476" x2="239.256" y2="116.476" class="black" /></g>
<g><title>75 (position.label in template: 87.A)</title><text x="229.466" y="109.22" class="black" >A</text></g>
<g><line x1="231.496" y1="108.916" x2="239.466" y2="108.916" class="black" /></g>
<g><title>76 (position.label in template: 88.G)</title><text x="229.046" y="101.66" class="black" >G</text></g>
<g><line x1="231.076" y1="101.356" x2="239.466" y2="101.356" class="black" /></g>
<g><title>77 (position.label in template: 89.C)</title><text x="229.256" y="94.1003" class="black" >C</text></g>
<g><line x1="231.286" y1="93.7958" x2="239.256" y2="93.7958" class="black" /></g>
<g><title>78 (position.label in template: 90.A)</title><text x="229.466" y="86.5403" class="black" >A</text></g>
<g><line x1="231.496" y1="86.2358" x2="239.466" y2="86.2358" class="black" /></g>
<g><title>79 (position.label in template: 91.A)</title><text x="229.466" y="78.9803" class="black" >A</text></g>
<g><line x1="231.496" y1="78.6758" x2="239.466" y2="78.6758" class="black" /></g>
<g><title>80 (position.label in template: 92.G)</title><text x="229.046" y="71.4203" class="black" >G</text></g>
<g><line x1="231.076" y1="71.1158" x2="239.466" y2="71.1158" class="black" /></g>
<g><title>81 (position.label in template: 93.A)</title><text x="229.466" y="63.8603" class="green" >U</text></g>
<g><line x1="231.496" y1="63.5558" x2="239.466" y2="63.5558" class="black" /></g>
<g><title>82 (position.label in template: 94.U)</title><text x="227.248" y="58.0515" class="blue" >U</text></g>
<g><title>83 (inserted)</title><text x="229.723" y="52.3474" class="red" >C</text></g>
<g><title>84 (position.label in template: 95.U)</title><text x="235.481" y="50" class="blue" >U</text></g>
<g><title>85 (position.label in template: 96.A)</title><text x="241.239" y="52.3474" class="green" >G</text></g>
<g><title>86 (position.label in template: 97.U)</title><text x="243.715" y="58.0515" class="blue" >U</text></g>
<g><title>87 (position.label in template: 98.U)</title><text x="241.496" y="63.8603" class="green" >U</text></g>
<g><title>88 (position.label in template: 99.C)</title><text x="241.496" y="71.4203" class="black" >C</text></g>
<g><title>89 (position.label in template: 100.U)</title><text x="241.496" y="78.9803" class="black" >U</text></g>
<g><title>90 (position.label in template: 101.U)</title><text x="241.496" y="86.5403" class="black" >U</text></g>
<g><title>91 (position.label in template: 102.G)</title><text x="241.286" y="94.1003" class="black" >G</text></g>
<g><title>92 (position.label in template: 103.U)</title><text x="241.496" y="101.66" class="black" >U</text></g>
<g><title>93 (position.label in template: 104.U)</title><text x="241.496" y="109.22" class="black" >U</text></g>
<g><title>94 (position.label in template: 105.A)</title><text x="248.256" y="113" class="black" >A</text></g>
<g><title>95 (position.label in template: 106.G)</title><text x="241.286" y="116.78" class="black" >G</text></g>
<g><title>96 (position.label in template: 107.C)</title><text x="241.496" y="124.34" class="black" >C</text></g>
<g><title>97 (position.label in template: 108.U)</title><text x="241.496" y="131.9" class="black" >U</text></g>
<g><title>98 (position.label in template: 109.U)</title><text x="248.846" y="133.7" class="black" >U</text></g>
<g><title>99 (position.label in template: 110.U)</title><text x="254.996" y="138.09" class="black" >U</text></g>
<g><title>100 (position.label in template: 111.G)</title><text x="258.866" y="144.45" class="black" >G</text></g>
<g><title>100 (inserted)</title><text x="265.228" y="141.908" class="numbering-label sequential" >100</text></g>
<g><line x1="260.563" y1="143.772" x2="262.488" y2="143.003" class="numbering-line sequential" /></g>
<g><title>101 (position.label in template: 112.U)</title><text x="260.506" y="151.88" class="black" >U</text></g>
<g><title>102 (position.label in template: 113.U)</title><text x="259.076" y="159.3" class="black" >U</text></g>
<g><title>103 (position.label in template: 114.C)</title><text x="254.996" y="165.66" class="black" >C</text></g>
<g><title>104 (position.label in template: 115.U)</title><text x="248.846" y="170.06" class="black" >U</text></g>
<g><title>105 (position.label in template: 116.G)</title><text x="241.286" y="171.85" class="black" >G</text></g>
<g><title>106 (position.label in template: 117.G)</title><text x="241.286" y="179.41" class="black" >G</text></g>
<g><title>107 (position.label in template: 118.A)</title><text x="241.706" y="186.97" class="black" >A</text></g>
<g><title>108 (position.label in template: 119.G)</title><text x="241.286" y="194.53" class="black" >G</text></g>
<g><title>109 (position.label in template: 120.G)</title><text x="241.286" y="202.09" class="black" >G</text></g>
<g><title>110 (position.label in template: 121.C)</title><text x="241.496" y="209.65" class="black" >C</text></g>
<g><title>111 (position.label in template: 122.A)</title><text x="241.706" y="217.21" class="black" >A</text></g>
<g><title>112 (position.label in template: 123.C)</title><text x="246.942" y="222.66" class="green" >U</text></g>
<g><title>113 (position.label in template: 124.A)</title><text x="254.5" y="222.66" class="black" >A</text></g>
<g><title>114 (position.label in template: 125.G)</title><text x="262.057" y="222.66" class="green" >U</text></g>
<g><title>115 (position.label in template: 126.A)</title><text x="269.614" y="222.66" class="black" >A</text></g>
<g><title>116 (position.label in template: 127.U)</title><text x="277.172" y="222.66" class="black" >U</text></g>
<g><title>117 (position.label in template: 128.3')</title><text x="284.729" y="222.66" class="green" >3'</text></g>
<g><line x1="44.4726" y1="222.25" x2="47.97" y2="222.25" class="gray" /></g>
<g><line x1="52.03" y1="222.25" x2="55.5274" y2="222.25" class="gray" /></g>
<g><line x1="59.5875" y1="222.25" x2="63.0849" y2="222.25" class="gray" /></g>
<g><line x1="67.1449" y1="222.25" x2="70.6423" y2="222.25" class="gray" /></g>
<g><line x1="74.1078" y1="220.814" x2="76.5808" y2="218.341" class="gray" /></g>
<g><line x1="77.9599" y1="214.877" x2="77.8626" y2="211.375" class="gray" /></g>
<g><line x1="77.8063" y1="207.316" x2="77.8063" y2="203.816" class="gray" /></g>
<g><line x1="77.8626" y1="199.757" x2="77.9599" y2="196.255" class="gray" /></g>
<g><line x1="78.0023" y1="192.196" x2="77.9602" y2="186.059" class="gray" /></g>
<g><line x1="77.9462" y1="181.999" x2="77.9462" y2="175.862" class="gray" /></g>
<g><line x1="77.9602" y1="171.802" x2="78.0023" y2="165.665" class="gray" /></g>
<g><line x1="78.0163" y1="161.605" x2="78.0163" y2="158.105" class="gray" /></g>
<g><line x1="76.2519" y1="155.071" x2="73.0506" y2="153.249" class="gray" /></g>
<g><line x1="70.1097" y1="150.591" x2="68.1528" y2="147.84" class="gray" /></g>
<g><line x1="66.501" y1="144.212" x2="65.6815" y2="140.809" class="gray" /></g>
<g><line x1="65.4281" y1="136.818" x2="65.8044" y2="133.393" class="gray" /></g>
<g><line x1="67.1911" y1="129.713" x2="69.3314" y2="126.658" class="gray" /></g>
<g><line x1="72.1695" y1="123.846" x2="75.053" y2="121.865" class="gray" /></g>
<g><line x1="78.7154" y1="120.31" x2="82.1471" y2="119.611" class="gray" /></g>
<g><line x1="86.1135" y1="119.665" x2="89.509" y2="120.455" class="gray" /></g>
<g><line x1="93.1719" y1="122.047" x2="95.8806" y2="123.864" class="gray" /></g>
<g><line x1="98.6573" y1="126.707" x2="100.675" y2="129.874" class="gray" /></g>
<g><line x1="102.068" y1="133.593" x2="102.554" y2="136.828" class="gray" /></g>
<g><line x1="102.326" y1="140.795" x2="101.397" y2="144.226" class="gray" /></g>
<g><line x1="99.6543" y1="147.814" x2="97.5682" y2="150.617" class="gray" /></g>
<g><line x1="94.6575" y1="153.357" x2="91.895" y2="155.164" class="gray" /></g>
<g><line x1="90.1549" y1="158.305" x2="90.0876" y2="161.606" class="gray" /></g>
<g><line x1="92.0115" y1="163.127" x2="94.7201" y2="162.426" class="gray" /></g>
<g><line x1="98.6919" y1="162.225" x2="101.457" y2="162.649" class="gray" /></g>
<g><line x1="105.187" y1="164.03" x2="107.561" y2="165.51" class="gray" /></g>
<g><line x1="110.443" y1="168.251" x2="112.041" y2="170.547" class="gray" /></g>
<g><line x1="113.61" y1="174.202" x2="114.173" y2="176.942" class="gray" /></g>
<g><line x1="114.173" y1="180.919" x2="113.61" y2="183.66" class="gray" /></g>
<g><line x1="112.041" y1="187.314" x2="110.443" y2="189.611" class="gray" /></g>
<g><line x1="107.561" y1="192.351" x2="105.187" y2="193.831" class="gray" /></g>
<g><line x1="101.457" y1="195.212" x2="98.6919" y2="195.636" class="gray" /></g>
<g><line x1="94.7201" y1="195.435" x2="92.0115" y2="194.734" class="gray" /></g>
<g><line x1="89.9899" y1="196.255" x2="89.8926" y2="199.757" class="gray" /></g>
<g><line x1="89.8363" y1="203.816" x2="89.8363" y2="207.316" class="gray" /></g>
<g><line x1="89.8926" y1="211.375" x2="89.9899" y2="214.877" class="gray" /></g>
<g><line x1="91.4817" y1="218.341" x2="93.9608" y2="220.82" class="gray" /></g>
<g><line x1="97.4263" y1="222.256" x2="100.926" y2="222.256" class="gray" /></g>
<g><line x1="104.986" y1="222.256" x2="108.486" y2="222.256" class="gray" /></g>
<g><line x1="112.546" y1="222.256" x2="116.046" y2="222.256" class="gray" /></g>
<g><line x1="120.106" y1="222.256" x2="123.396" y2="222.256" class="gray" /></g>
<g><line x1="127.456" y1="222.256" x2="131.366" y2="222.256" class="gray" /></g>
<g><line x1="135.426" y1="222.256" x2="138.726" y2="222.256" class="gray" /></g>
<g><line x1="142.786" y1="222.256" x2="146.486" y2="222.256" class="gray" /></g>
<g><line x1="150.546" y1="222.256" x2="154.046" y2="222.256" class="gray" /></g>
<g><line x1="158.106" y1="222.256" x2="161.606" y2="222.256" class="gray" /></g>
<g><line x1="165.666" y1="222.256" x2="168.756" y2="222.256" class="gray" /></g>
<g><line x1="172.816" y1="222.256" x2="176.726" y2="222.256" class="gray" /></g>
<g><line x1="180.786" y1="222.256" x2="183.876" y2="222.256" class="gray" /></g>
<g><line x1="187.936" y1="222.256" x2="191.846" y2="222.256" class="gray" /></g>
<g><line x1="195.906" y1="222.256" x2="199.406" y2="222.256" class="gray" /></g>
<g><line x1="203.466" y1="222.256" x2="206.966" y2="222.256" class="gray" /></g>
<g><line x1="211.026" y1="222.256" x2="214.116" y2="222.256" class="gray" /></g>
<g><line x1="218.176" y1="222.256" x2="222.086" y2="222.256" class="gray" /></g>
<g><line x1="225.523" y1="220.792" x2="227.85" y2="218.37" class="gray" /></g>
<g><line x1="229.2" y1="214.877" x2="229.103" y2="211.375" class="gray" /></g>
<g><line x1="229.103" y1="207.317" x2="229.2" y2="203.815" class="gray" /></g>
<g><line x1="229.256" y1="199.756" x2="229.256" y2="196.256" class="gray" /></g>
<g><line x1="229.256" y1="192.196" x2="229.256" y2="188.696" class="gray" /></g>
<g><line x1="229.256" y1="184.636" x2="229.256" y2="181.136" class="gray" /></g>
<g><line x1="229.256" y1="177.076" x2="229.256" y2="173.576" class="gray" /></g>
<g><line x1="227.454" y1="170.611" x2="224.348" y2="169" class="gray" /></g>
<g><line x1="221.198" y1="166.548" x2="218.875" y2="163.933" class="gray" /></g>
<g><line x1="216.803" y1="160.519" x2="215.559" y2="157.253" class="gray" /></g>
<g><line x1="214.836" y1="153.326" x2="214.836" y2="149.826" class="gray" /></g>
<g><line x1="215.558" y1="145.899" x2="216.804" y2="142.623" class="gray" /></g>
<g><line x1="218.876" y1="139.209" x2="221.197" y2="136.602" class="gray" /></g>
<g><line x1="224.359" y1="134.172" x2="227.654" y2="132.51" class="gray" /></g>
<g><line x1="229.354" y1="129.569" x2="229.159" y2="126.063" class="gray" /></g>
<g><line x1="229.103" y1="122.007" x2="229.2" y2="118.505" class="gray" /></g>
<g><line x1="229.313" y1="114.447" x2="229.41" y2="110.945" class="gray" /></g>
<g><line x1="229.354" y1="106.889" x2="229.159" y2="103.383" class="gray" /></g>
<g><line x1="229.103" y1="99.3266" x2="229.2" y2="95.8251" class="gray" /></g>
<g><line x1="229.313" y1="91.7666" x2="229.41" y2="88.2651" class="gray" /></g>
<g><line x1="229.466" y1="84.2058" x2="229.466" y2="80.7058" class="gray" /></g>
<g><line x1="229.354" y1="76.649" x2="229.159" y2="73.1427" class="gray" /></g>
<g><line x1="229.159" y1="69.089" x2="229.354" y2="65.5827" class="gray" /></g>
<g><line x1="228.742" y1="61.6594" x2="227.972" y2="59.6434" class="gray" /></g>
<g><line x1="228.056" y1="55.8848" x2="228.915" y2="53.9051" class="gray" /></g>
<g><line x1="231.603" y1="51.2766" x2="233.601" y2="50.4619" class="gray" /></g>
<g><line x1="237.361" y1="50.4619" x2="239.359" y2="51.2766" class="gray" /></g>
<g><line x1="242.047" y1="53.9051" x2="242.906" y2="55.8848" class="gray" /></g>
<g><line x1="242.99" y1="59.6434" x2="242.22" y2="61.6594" class="gray" /></g>
<g><line x1="241.496" y1="65.5858" x2="241.496" y2="69.0858" class="gray" /></g>
<g><line x1="241.496" y1="73.1458" x2="241.496" y2="76.6458" class="gray" /></g>
<g><line x1="241.496" y1="80.7058" x2="241.496" y2="84.2058" class="gray" /></g>
<g><line x1="241.44" y1="88.2651" x2="241.343" y2="91.7666" class="gray" /></g>
<g><line x1="241.343" y1="95.8251" x2="241.44" y2="99.3266" class="gray" /></g>
<g><line x1="241.496" y1="103.386" x2="241.496" y2="106.886" class="gray" /></g>
<g><line x1="243.268" y1="109.907" x2="246.484" y2="111.705" class="gray" /></g>
<g><line x1="246.472" y1="113.664" x2="243.071" y2="115.508" class="gray" /></g>
<g><line x1="241.343" y1="118.505" x2="241.44" y2="122.007" class="gray" /></g>
<g><line x1="241.496" y1="126.066" x2="241.496" y2="129.566" class="gray" /></g>
<g><line x1="243.468" y1="132.079" x2="246.875" y2="132.913" class="gray" /></g>
<g><line x1="250.498" y1="134.575" x2="253.344" y2="136.606" class="gray" /></g>
<g><line x1="256.051" y1="139.52" x2="257.811" y2="142.412" class="gray" /></g>
<g><line x1="259.304" y1="146.128" x2="260.069" y2="149.594" class="gray" /></g>
<g><line x1="260.122" y1="153.569" x2="259.46" y2="157.003" class="gray" /></g>
<g><line x1="257.98" y1="160.704" x2="256.092" y2="163.647" class="gray" /></g>
<g><line x1="253.345" y1="166.537" x2="250.497" y2="168.575" class="gray" /></g>
<g><line x1="246.871" y1="170.224" x2="243.262" y2="171.078" class="gray" /></g>
<g><line x1="241.286" y1="173.576" x2="241.286" y2="177.076" class="gray" /></g>
<g><line x1="241.399" y1="181.133" x2="241.594" y2="184.639" class="gray" /></g>
<g><line x1="241.594" y1="188.693" x2="241.399" y2="192.199" class="gray" /></g>
<g><line x1="241.286" y1="196.256" x2="241.286" y2="199.756" class="gray" /></g>
<g><line x1="241.343" y1="203.815" x2="241.44" y2="207.317" class="gray" /></g>
<g><line x1="241.553" y1="211.375" x2="241.65" y2="214.877" class="gray" /></g>
<g><line x1="243.113" y1="218.37" x2="245.536" y2="220.892" class="gray" /></g>
<g><line x1="248.972" y1="222.356" x2="252.47" y2="222.356" class="gray" /></g>
<g><line x1="256.53" y1="222.356" x2="260.027" y2="222.356" class="gray" /></g>
<g><line x1="264.087" y1="222.356" x2="267.584" y2="222.356" class="gray" /></g>
<g><line x1="271.644" y1="222.356" x2="275.142" y2="222.356" class="gray" /></g>
<g><line x1="279.202" y1="222.356" x2="282.699" y2="222.356" class="gray" /></g>
</svg>
