<svg
	xmlns="http://www.w3.org/2000/svg"
	width="229.195"
	height="241.929"
	style="font-size: 3.048045px; font-weight: bold; font-family: Helvetica; " >
<g><style type="text/css" >
<!-- create color definitions -->
<![CDATA[
text.red {fill: rgb(255, 0, 255); }
text.green {fill: rgb(0, 255, 0); }
text.blue {fill: rgb(0, 0, 255); }
text.black {fill: rgb(0, 0, 0); }
text.gray {fill: rgb(204, 204, 204); }
text.brown {fill: rgb(211.65, 104.55, 30.6); }
text {fill: rgb(0, 0, 0); text-anchor: middle; alignment-baseline: middle; }
circle.red {stroke: rgb(255, 0, 255); fill: none; }
circle.green {stroke: rgb(0, 255, 0); fill: none; }
circle.blue {stroke: rgb(0, 0, 255); fill: none; }
circle.black {stroke: rgb(0, 0, 0); fill: none; }
circle.gray {stroke: rgb(204, 204, 204); fill: none; }
circle.brown {stroke: rgb(211.65, 104.55, 30.6); fill: none; }
circle {stroke: rgb(0, 0, 0); }
line.red {stroke: rgb(255, 0, 255); stroke-width: 0.381006; }
line.green {stroke: rgb(0, 255, 0); stroke-width: 0.381006; }
line.blue {stroke: rgb(0, 0, 255); stroke-width: 0.381006; }
line.black {stroke: rgb(0, 0, 0); stroke-width: 0.381006; }
line.gray {stroke: rgb(204, 204, 204); stroke-width: 0.381006; }
line.brown {stroke: rgb(211.65, 104.55, 30.6); stroke-width: 0.381006; }
line {stroke: rgb(0, 0, 0); }
text.numbering-label {fill: rgb(204, 204, 204);}
line.numbering-line {stroke: rgb(204, 204, 204); stroke-width: 0.190503;}
line.predicted {stroke: rgb(0, 0, 0); stroke-dasharray: 2}
text.background {fill: rgb(255, 255, 255);
.template {visibility:hidden}
]]>
</style></g>
<g><title>0 (position.label in template: 0.5')</title><text x="107.138" y="47.8379" class="green" >5'</text></g>
<g><title>1 (position.label in template: 1.G)</title><text x="107.505" y="55.3395" class="black" >G</text></g>
<g><line x1="109.537" y1="55.0347" x2="117.923" y2="55.0347" class="black" /></g>
<g><title>2 (position.label in template: 2.N)</title><text x="107.865" y="62.6895" class="green" >G</text></g>
<g><line x1="109.897" y1="62.3847" x2="118.073" y2="62.3847" class="black" /></g>
<g><title>3 (position.label in template: 3.Y)</title><text x="107.925" y="70.4595" class="green" >C</text></g>
<g><line x1="109.957" y1="70.1547" x2="117.713" y2="70.1547" class="black" /></g>
<g><title>4 (position.label in template: 4.N)</title><text x="107.865" y="77.8095" class="green" >U</text></g>
<g><line x1="109.897" y1="77.5047" x2="118.073" y2="77.5047" class="black" /></g>
<g><title>5 (position.label in template: 5.Y)</title><text x="107.925" y="85.5795" class="green" >C</text></g>
<g><line x1="109.957" y1="85.2747" x2="117.923" y2="85.2747" class="black" /></g>
<g><title>6 (position.label in template: 6.Y)</title><text x="107.925" y="93.1395" class="green" >A</text></g>
<g><line x1="109.957" y1="92.8347" x2="117.923" y2="92.8347" class="black" /></g>
<g><title>7 (position.label in template: 7.R)</title><text x="107.715" y="100.699" class="green" >A</text></g>
<g><line x1="109.747" y1="100.36" x2="118.073" y2="100.219" class="black" /></g>
<g><title>8 (position.label in template: 8.U)</title><text x="100.895" y="103.959" class="black" >U</text></g>
<g><title>9 (position.label in template: 9.R)</title><text x="95.5451" y="109.309" class="green" >A</text></g>
<g><title>10 (position.label in template: 10.G)</title><text x="92.0751" y="116.129" class="black" >G</text></g>
<g><line x1="92.11" y1="117.856" x2="92.2503" y2="126.033" class="black" /></g>
<g><title>10 (inserted)</title><text x="88.4182" y="110.328" class="numbering-label sequential" >10</text></g>
<g><line x1="91.1" y1="114.582" x2="89.3788" y2="111.852" class="numbering-line sequential" /></g>
<g><title>11 (position.label in template: 11.C)</title><text x="84.7251" y="116.129" class="black" >C</text></g>
<g><line x1="84.6903" y1="117.856" x2="84.55" y2="126.033" class="black" /></g>
<g><title>12 (position.label in template: 12.U)</title><text x="77.1651" y="116.129" class="black" >U</text></g>
<g><line x1="77.2" y1="117.856" x2="77.3403" y2="126.033" class="black" /></g>
<g><title>13 (position.label in template: 13.Y)</title><text x="69.8151" y="116.129" class="green" >C</text></g>
<g><line x1="69.7803" y1="117.856" x2="69.64" y2="126.033" class="black" /></g>
<g><title>14 (position.label in template: 14.A)</title><text x="64.5206" y="111.949" class="blue" >A</text></g>
<g><title>15 (position.label in template: 15.G)</title><text x="57.7781" y="111.723" class="blue" >G</text></g>
<g><title>16 (position.label in template: 16.U)</title><text x="52.2153" y="115.539" class="blue" >U</text></g>
<g><title>17 (position.label in template: 17.G)</title><text x="50" y="121.911" class="blue" >G</text></g>
<g><title>18 (position.label in template: 18.G)</title><text x="51.9954" y="128.356" class="blue" >G</text></g>
<g><title>19 (position.label in template: 19.U)</title><text x="57.424" y="132.361" class="blue" >U</text></g>
<g><title>20 (position.label in template: 21.A)</title><text x="64.1703" y="132.366" class="blue" >A</text></g>
<g><title>20 (inserted)</title><text x="66.3058" y="138.883" class="numbering-label sequential" >20</text></g>
<g><line x1="64.7397" y1="134.104" x2="65.8064" y2="137.359" class="numbering-line sequential" /></g>
<g><title>21 (position.label in template: 22.R)</title><text x="69.6051" y="128.369" class="green" >G</text></g>
<g><title>22 (position.label in template: 23.A)</title><text x="77.3751" y="128.369" class="black" >A</text></g>
<g><title>23 (position.label in template: 24.G)</title><text x="84.5151" y="128.369" class="black" >G</text></g>
<g><title>24 (position.label in template: 25.C)</title><text x="92.2851" y="128.369" class="black" >C</text></g>
<g><title>25 (position.label in template: 26.R)</title><text x="95.5451" y="135.179" class="green" >A</text></g>
<g><title>26 (position.label in template: 27.Y)</title><text x="101.105" y="140.529" class="green" >A</text></g>
<g><line x1="103.018" y1="140.912" x2="110.523" y2="143.608" class="black" /></g>
<g><title>27 (position.label in template: 28.Y)</title><text x="98.5851" y="147.659" class="green" >C</text></g>
<g><line x1="100.498" y1="148.041" x2="108.013" y2="150.738" class="black" /></g>
<g><title>28 (position.label in template: 29.N)</title><text x="96.0151" y="154.579" class="green" >A</text></g>
<g><line x1="97.9315" y1="154.951" x2="105.639" y2="157.669" class="black" /></g>
<g><title>29 (position.label in template: 30.N)</title><text x="93.5051" y="161.709" class="green" >G</text></g>
<g><line x1="95.4215" y1="162.081" x2="103.129" y2="164.799" class="black" /></g>
<g><title>30 (position.label in template: 31.N)</title><text x="90.9851" y="168.839" class="green" >U</text></g>
<g><line x1="92.9015" y1="169.211" x2="100.609" y2="171.929" class="black" /></g>
<g><title>30 (inserted)</title><text x="85.6953" y="164.475" class="numbering-label sequential" >30</text></g>
<g><line x1="89.5745" y1="167.676" x2="87.5241" y2="165.984" class="numbering-line sequential" /></g>
<g><title>31 (position.label in template: 32.C)</title><text x="84.3051" y="172.859" class="green" >U</text></g>
<g><title>32 (position.label in template: 33.U)</title><text x="81.4151" y="179.849" class="black" >U</text></g>
<g><title>33 (position.label in template: 34.N)</title><text x="83.4851" y="186.949" class="green" >U</text></g>
<g><title>34 (position.label in template: 35.G)</title><text x="89.0851" y="191.819" class="black" >G</text></g>
<g><title>35 (position.label in template: 36.U)</title><text x="96.8551" y="191.929" class="black" >U</text></g>
<g><title>36 (position.label in template: 37.A)</title><text x="103.145" y="187.439" class="black" >A</text></g>
<g><title>37 (position.label in template: 38.A)</title><text x="105.275" y="180.179" class="black" >A</text></g>
<g><title>38 (position.label in template: 39.N)</title><text x="102.525" y="172.909" class="green" >A</text></g>
<g><title>39 (position.label in template: 40.N)</title><text x="105.045" y="165.779" class="green" >C</text></g>
<g><title>40 (position.label in template: 41.N)</title><text x="107.555" y="158.649" class="green" >U</text></g>
<g><title>41 (position.label in template: 42.R)</title><text x="109.925" y="151.729" class="green" >G</text></g>
<g><title>42 (position.label in template: 43.R)</title><text x="112.435" y="144.599" class="green" >U</text></g>
<g><title>43 (position.label in template: 44.A)</title><text x="120.165" y="144.399" class="green" >G</text></g>
<g><title>44 (position.label in template: 45.G)</title><text x="126.565" y="142.359" class="black" >G</text></g>
<g><title>45 (position.label in template: 46.R)</title><text x="132.115" y="137.009" class="green" >G</text></g>
<g><title>46 (position.label in template: 47.U)</title><text x="135.385" y="130.199" class="black" >U</text></g>
<g><title>47 (position.label in template: 48.C)</title><text x="132.695" y="123.289" class="black" >C</text></g>
<g><title>48 (position.label in template: 49.N)</title><text x="127.745" y="117.179" class="green" >G</text></g>
<g><line x1="127.609" y1="114.847" x2="127.061" y2="106.692" class="black" /></g>
<g><title>49 (position.label in template: 50.Y)</title><text x="135.215" y="116.879" class="green" >G</text></g>
<g><line x1="135.053" y1="114.549" x2="134.388" y2="106.27" class="black" /></g>
<g><title>50 (position.label in template: 51.N)</title><text x="142.825" y="116.169" class="green" >G</text></g>
<g><line x1="142.689" y1="113.837" x2="142.141" y2="105.682" class="black" /></g>
<g><title>50 (inserted)</title><text x="143.348" y="123.008" class="numbering-label sequential" >50</text></g>
<g><line x1="142.964" y1="117.993" x2="143.231" y2="121.484" class="numbering-line sequential" /></g>
<g><title>51 (position.label in template: 52.R)</title><text x="150.135" y="115.739" class="green" >G</text></g>
<g><line x1="150.026" y1="113.406" x2="149.594" y2="105.374" class="black" /></g>
<g><title>52 (position.label in template: 53.G)</title><text x="157.505" y="115.119" class="black" >G</text></g>
<g><line x1="157.396" y1="112.786" x2="156.964" y2="104.744" class="black" /></g>
<g><title>53 (position.label in template: 54.U)</title><text x="163.755" y="119.719" class="black" >U</text></g>
<g><title>54 (position.label in template: 55.U)</title><text x="171.325" y="119.619" class="black" >U</text></g>
<g><title>55 (position.label in template: 56.C)</title><text x="177.275" y="114.949" class="black" >C</text></g>
<g><title>56 (position.label in template: 57.R)</title><text x="179.195" y="107.639" class="green" >A</text></g>
<g><title>57 (position.label in template: 58.A)</title><text x="176.485" y="100.779" class="black" >A</text></g>
<g><title>58 (position.label in template: 59.N)</title><text x="170.035" y="96.7595" class="green" >U</text></g>
<g><title>59 (position.label in template: 60.U)</title><text x="162.275" y="97.7495" class="green" >C</text></g>
<g><title>60 (position.label in template: 61.C)</title><text x="156.855" y="103.019" class="black" >C</text></g>
<g><title>61 (position.label in template: 62.Y)</title><text x="149.485" y="103.649" class="green" >C</text></g>
<g><title>62 (position.label in template: 63.N)</title><text x="142.005" y="103.959" class="green" >C</text></g>
<g><title>63 (position.label in template: 64.R)</title><text x="134.225" y="104.549" class="green" >U</text></g>
<g><title>64 (position.label in template: 65.N)</title><text x="126.925" y="104.969" class="green" >C</text></g>
<g><title>65 (position.label in template: 66.N)</title><text x="120.105" y="100.489" class="green" >U</text></g>
<g><title>66 (position.label in template: 67.R)</title><text x="119.955" y="93.1395" class="green" >U</text></g>
<g><title>67 (position.label in template: 68.R)</title><text x="119.955" y="85.5795" class="green" >G</text></g>
<g><title>68 (position.label in template: 69.N)</title><text x="120.105" y="77.8095" class="green" >A</text></g>
<g><title>69 (position.label in template: 70.G)</title><text x="119.745" y="70.4595" class="green" >G</text></g>
<g><title>70 (position.label in template: 71.N)</title><text x="120.105" y="62.6895" class="green" >C</text></g>
<g><title>71 (position.label in template: 72.C)</title><text x="119.955" y="55.3395" class="black" >C</text></g>
<g><title>72 (position.label in template: 73.N)</title><text x="125.237" y="50" class="green" >U</text></g>
<g><title>73 (position.label in template: 74.3')</title><text x="120.634" y="44.0655" class="green" >3'</text></g>
<g><line x1="107.237" y1="49.5627" x2="107.406" y2="53.0051" class="gray" /></g>
<g><line x1="107.605" y1="57.0643" x2="107.766" y2="60.3551" class="gray" /></g>
<g><line x1="107.881" y1="64.4166" x2="107.909" y2="68.1227" class="gray" /></g>
<g><line x1="107.909" y1="72.1866" x2="107.882" y2="75.4727" class="gray" /></g>
<g><line x1="107.881" y1="79.5366" x2="107.909" y2="83.2427" class="gray" /></g>
<g><line x1="107.925" y1="87.3067" x2="107.925" y2="90.8026" class="gray" /></g>
<g><line x1="107.869" y1="94.8659" x2="107.772" y2="98.3634" class="gray" /></g>
<g><line x1="105.882" y1="101.271" x2="102.728" y2="102.778" class="gray" /></g>
<g><line x1="99.4583" y1="105.092" x2="96.982" y2="107.568" class="gray" /></g>
<g><line x1="94.6237" y1="110.816" x2="92.9966" y2="114.014" class="gray" /></g>
<g><line x1="90.0431" y1="115.825" x2="86.7572" y2="115.825" class="gray" /></g>
<g><line x1="82.6931" y1="115.825" x2="79.1972" y2="115.825" class="gray" /></g>
<g><line x1="75.1331" y1="115.825" x2="71.8472" y2="115.825" class="gray" /></g>
<g><line x1="68.2204" y1="114.565" x2="66.1153" y2="112.903" class="gray" /></g>
<g><line x1="62.4897" y1="111.576" x2="59.809" y2="111.486" class="gray" /></g>
<g><line x1="56.1026" y1="112.567" x2="53.8909" y2="114.085" class="gray" /></g>
<g><line x1="51.5481" y1="117.154" x2="50.6673" y2="119.687" class="gray" /></g>
<g><line x1="50.601" y1="123.548" x2="51.3944" y2="126.11" class="gray" /></g>
<g><line x1="53.6306" y1="129.257" x2="55.7889" y2="130.85" class="gray" /></g>
<g><line x1="59.4561" y1="132.058" x2="62.1382" y2="132.06" class="gray" /></g>
<g><line x1="65.8073" y1="130.858" x2="67.9681" y2="129.269" class="gray" /></g>
<g><line x1="71.6372" y1="128.065" x2="75.3431" y2="128.065" class="gray" /></g>
<g><line x1="79.4072" y1="128.065" x2="82.4831" y2="128.065" class="gray" /></g>
<g><line x1="86.5472" y1="128.065" x2="90.2531" y2="128.065" class="gray" /></g>
<g><line x1="93.1625" y1="129.898" x2="94.6677" y2="133.042" class="gray" /></g>
<g><line x1="97.0094" y1="136.284" x2="99.6409" y2="138.816" class="gray" /></g>
<g><line x1="100.428" y1="142.141" x2="99.2623" y2="145.439" class="gray" /></g>
<g><line x1="97.8777" y1="149.26" x2="96.7226" y2="152.37" class="gray" /></g>
<g><line x1="95.3404" y1="156.191" x2="94.1799" y2="159.488" class="gray" /></g>
<g><line x1="92.828" y1="163.321" x2="91.6623" y2="166.619" class="gray" /></g>
<g><line x1="89.2441" y1="169.582" x2="86.0462" y2="171.507" class="gray" /></g>
<g><line x1="83.5287" y1="174.433" x2="82.1915" y2="177.667" class="gray" /></g>
<g><line x1="81.9839" y1="181.495" x2="82.9164" y2="184.694" class="gray" /></g>
<g><line x1="85.0185" y1="187.978" x2="87.5518" y2="190.181" class="gray" /></g>
<g><line x1="91.117" y1="191.543" x2="94.8233" y2="191.596" class="gray" /></g>
<g><line x1="98.509" y1="190.444" x2="101.491" y2="188.315" class="gray" /></g>
<g><line x1="103.717" y1="185.185" x2="104.703" y2="181.825" class="gray" /></g>
<g><line x1="104.556" y1="177.974" x2="103.244" y2="174.505" class="gray" /></g>
<g><line x1="103.202" y1="170.689" x2="104.368" y2="167.391" class="gray" /></g>
<g><line x1="105.72" y1="163.558" x2="106.88" y2="160.261" class="gray" /></g>
<g><line x1="108.214" y1="156.422" x2="109.267" y2="153.347" class="gray" /></g>
<g><line x1="110.6" y1="149.508" x2="111.76" y2="146.211" class="gray" /></g>
<g><line x1="114.466" y1="144.242" x2="118.134" y2="144.147" class="gray" /></g>
<g><line x1="122.101" y1="143.478" x2="124.629" y2="142.672" class="gray" /></g>
<g><line x1="128.028" y1="140.644" x2="130.652" y2="138.115" class="gray" /></g>
<g><line x1="132.995" y1="134.873" x2="134.506" y2="131.726" class="gray" /></g>
<g><line x1="134.648" y1="128.001" x2="133.432" y2="124.878" class="gray" /></g>
<g><line x1="131.416" y1="121.406" x2="129.024" y2="118.454" class="gray" /></g>
<g><line x1="129.776" y1="116.793" x2="133.185" y2="116.656" class="gray" /></g>
<g><line x1="137.238" y1="116.386" x2="140.802" y2="116.053" class="gray" /></g>
<g><line x1="144.854" y1="115.745" x2="148.107" y2="115.554" class="gray" /></g>
<g><line x1="152.16" y1="115.264" x2="155.48" y2="114.985" class="gray" /></g>
<g><line x1="159.142" y1="116.019" x2="162.119" y2="118.21" class="gray" /></g>
<g><line x1="165.787" y1="119.388" x2="169.293" y2="119.342" class="gray" /></g>
<g><line x1="172.924" y1="118.06" x2="175.677" y2="115.899" class="gray" /></g>
<g><line x1="177.791" y1="112.679" x2="178.679" y2="109.3" class="gray" /></g>
<g><line x1="178.449" y1="105.445" x2="177.232" y2="102.365" class="gray" /></g>
<g><line x1="174.761" y1="99.3999" x2="171.76" y2="97.5295" class="gray" /></g>
<g><line x1="168.019" y1="96.7118" x2="164.291" y2="97.1875" class="gray" /></g>
<g><line x1="160.818" y1="98.8612" x2="158.312" y2="101.298" class="gray" /></g>
<g><line x1="154.83" y1="102.888" x2="151.51" y2="103.172" class="gray" /></g>
<g><line x1="147.455" y1="103.429" x2="144.035" y2="103.571" class="gray" /></g>
<g><line x1="139.979" y1="103.808" x2="136.251" y2="104.091" class="gray" /></g>
<g><line x1="132.196" y1="104.361" x2="128.954" y2="104.548" class="gray" /></g>
<g><line x1="125.227" y1="103.549" x2="121.804" y2="101.3" class="gray" /></g>
<g><line x1="120.064" y1="98.1531" x2="119.997" y2="94.8663" class="gray" /></g>
<g><line x1="119.955" y1="90.8026" x2="119.955" y2="87.3067" class="gray" /></g>
<g><line x1="119.994" y1="83.243" x2="120.066" y2="79.5363" class="gray" /></g>
<g><line x1="120.006" y1="75.4751" x2="119.845" y2="72.1843" class="gray" /></g>
<g><line x1="119.839" y1="68.1248" x2="120.011" y2="64.4145" class="gray" /></g>
<g><line x1="120.064" y1="60.3531" x2="119.997" y2="57.0663" class="gray" /></g>
<g><line x1="121.384" y1="53.59" x2="123.808" y2="51.1398" class="gray" /></g>
<g><line x1="123.992" y1="48.0896" x2="121.879" y2="45.3663" class="gray" /></g>
</svg>
