<svg
	xmlns="http://www.w3.org/2000/svg"
	width="397.933"
	height="300.871"
	style="font-size: 3.045014px; font-weight: bold; font-family: Helvetica; " >
<g><style type="text/css" >
<!-- create color definitions -->
<![CDATA[
text.red {fill: rgb(255, 0, 255); }
text.green {fill: rgb(0, 255, 0); }
text.blue {fill: rgb(0, 0, 255); }
text.black {fill: rgb(0, 0, 0); }
text.gray {fill: rgb(204, 204, 204); }
text.brown {fill: rgb(211.65, 104.55, 30.6); }
text {fill: rgb(0, 0, 0); text-anchor: middle; alignment-baseline: middle; }
circle.red {stroke: rgb(255, 0, 255); fill: none; }
circle.green {stroke: rgb(0, 255, 0); fill: none; }
circle.blue {stroke: rgb(0, 0, 255); fill: none; }
circle.black {stroke: rgb(0, 0, 0); fill: none; }
circle.gray {stroke: rgb(204, 204, 204); fill: none; }
circle.brown {stroke: rgb(211.65, 104.55, 30.6); fill: none; }
circle {stroke: rgb(0, 0, 0); }
line.red {stroke: rgb(255, 0, 255); stroke-width: 0.380627; }
line.green {stroke: rgb(0, 255, 0); stroke-width: 0.380627; }
line.blue {stroke: rgb(0, 0, 255); stroke-width: 0.380627; }
line.black {stroke: rgb(0, 0, 0); stroke-width: 0.380627; }
line.gray {stroke: rgb(204, 204, 204); stroke-width: 0.380627; }
line.brown {stroke: rgb(211.65, 104.55, 30.6); stroke-width: 0.380627; }
line {stroke: rgb(0, 0, 0); }
text.numbering-label {fill: rgb(204, 204, 204);}
line.numbering-line {stroke: rgb(204, 204, 204); stroke-width: 0.190313;}
line.predicted {stroke: rgb(0, 0, 0); stroke-dasharray: 2}
text.background {fill: rgb(255, 255, 255);
.template {visibility:hidden}
]]>
</style></g>
<g><title>0 (position.label in template: 0.5')</title><text x="42.4426" y="202.676" class="green" >5'</text></g>
<g><title>1 (position.label in template: 1.U)</title><text x="50" y="202.676" class="black" >U</text></g>
<g><title>2 (position.label in template: 2.C)</title><text x="57.5574" y="202.676" class="green" >A</text></g>
<g><title>3 (position.label in template: 3.G)</title><text x="65.1149" y="202.676" class="black" >G</text></g>
<g><title>4 (position.label in template: 4.U)</title><text x="72.6723" y="202.676" class="black" >U</text></g>
<g><title>5 (position.label in template: 5.U)</title><text x="80.2298" y="202.676" class="black" >U</text></g>
<g><title>6 (position.label in template: 6.U)</title><text x="87.7872" y="202.676" class="green" >G</text></g>
<g><title>7 (position.label in template: 7.A)</title><text x="95.3447" y="202.676" class="green" >U</text></g>
<g><title>8 (position.label in template: 8.A)</title><text x="100.689" y="197.332" class="black" >A</text></g>
<g><line x1="102.719" y1="197.027" x2="110.689" y2="197.027" class="black" /></g>
<g><title>9 (position.label in template: 9.U)</title><text x="100.479" y="189.772" class="black" >U</text></g>
<g><line x1="102.509" y1="189.467" x2="110.479" y2="189.467" class="black" /></g>
<g><title>10 (position.label in template: 10.C)</title><text x="100.479" y="182.212" class="green" >A</text></g>
<g><line x1="102.509" y1="181.907" x2="110.479" y2="181.907" class="black" /></g>
<g><title>10 (inserted)</title><text x="93.628" y="182.116" class="numbering-label sequential" >10</text></g>
<g><line x1="98.6517" y1="182.186" x2="95.455" y2="182.142" class="numbering-line sequential" /></g>
<g><title>11 (position.label in template: 11.A)</title><text x="100.689" y="174.652" class="black" >A</text></g>
<g><line x1="102.719" y1="174.347" x2="110.689" y2="174.347" class="black" /></g>
<g><title>12 (position.label in template: 12.U)</title><text x="100.496" y="166.975" class="blue" >U</text></g>
<g><title>13 (position.label in template: 13.U)</title><text x="100.343" y="159.298" class="blue" >U</text></g>
<g><title>14 (position.label in template: 14.G)</title><text x="100.229" y="151.62" class="green" >A</text></g>
<g><line x1="102.259" y1="151.315" x2="110.649" y2="151.315" class="black" /></g>
<g><title>15 (position.label in template: 15.A)</title><text x="100.649" y="144.06" class="black" >A</text></g>
<g><line x1="102.679" y1="143.755" x2="110.649" y2="143.755" class="black" /></g>
<g><title>16 (position.label in template: 16.U)</title><text x="100.439" y="136.5" class="green" >U</text></g>
<g><line x1="102.469" y1="136.195" x2="110.859" y2="136.195" class="black" /></g>
<g><title>17 (position.label in template: 17.G)</title><text x="100.229" y="128.94" class="green" >G</text></g>
<g><line x1="102.259" y1="128.635" x2="110.649" y2="128.635" class="black" /></g>
<g><title>18 (position.label in template: 18.A)</title><text x="100.649" y="121.38" class="black" >A</text></g>
<g><line x1="102.679" y1="121.075" x2="110.649" y2="121.075" class="black" /></g>
<g><title>19 (position.label in template: 19.U)</title><text x="95.7291" y="115.46" class="black" >U</text></g>
<g><title>20 (position.label in template: 20.A)</title><text x="95.9391" y="107.9" class="black" >A</text></g>
<g><title>20 (inserted)</title><text x="89.4409" y="105.729" class="numbering-label sequential" >20</text></g>
<g><line x1="94.2063" y1="107.321" x2="91.2679" y2="106.339" class="numbering-line sequential" /></g>
<g><title>21 (position.label in template: 21.G)</title><text x="100.229" y="101.99" class="black" >G</text></g>
<g><line x1="102.259" y1="101.685" x2="110.649" y2="101.685" class="black" /></g>
<g><title>22 (position.label in template: 22.A)</title><text x="100.649" y="94.43" class="black" >A</text></g>
<g><line x1="102.679" y1="94.1255" x2="110.649" y2="94.1255" class="black" /></g>
<g><title>23 (position.label in template: 23.Y)</title><text x="100.649" y="86.87" class="green" >U</text></g>
<g><line x1="102.679" y1="86.5988" x2="110.799" y2="86.7322" class="black" /></g>
<g><title>24 (position.label in template: 24.U)</title><text x="93.9191" y="83.04" class="black" >U</text></g>
<g><title>25 (position.label in template: 25.A)</title><text x="89.6091" y="76.98" class="black" >A</text></g>
<g><title>26 (position.label in template: 26.A)</title><text x="87.8391" y="69.63" class="black" >A</text></g>
<g><title>27 (position.label in template: 27.G)</title><text x="88.6591" y="62.17" class="black" >G</text></g>
<g><title>28 (position.label in template: 28.A)</title><text x="93.1291" y="55.79" class="black" >A</text></g>
<g><title>29 (position.label in template: 29.A)</title><text x="99.3591" y="51.51" class="green" >C</text></g>
<g><title>30 (position.label in template: 30.A)</title><text x="106.769" y="50" class="black" >A</text></g>
<g><title>30 (inserted)</title><text x="106.862" y="43.1493" class="numbering-label sequential" >30</text></g>
<g><line x1="106.794" y1="48.1732" x2="106.841" y2="44.6719" class="numbering-line sequential" /></g>
<g><title>31 (position.label in template: 31.N)</title><text x="114.119" y="51.71" class="green" >A</text></g>
<g><title>32 (position.label in template: 32.U)</title><text x="120.199" y="55.79" class="green" >C</text></g>
<g><title>33 (position.label in template: 33.N)</title><text x="124.399" y="62.38" class="green" >U</text></g>
<g><title>34 (position.label in template: 34.R)</title><text x="125.489" y="69.63" class="green" >A</text></g>
<g><title>35 (position.label in template: 35.G)</title><text x="123.499" y="76.98" class="black" >G</text></g>
<g><title>36 (position.label in template: 36.G)</title><text x="118.989" y="83.04" class="black" >G</text></g>
<g><title>37 (position.label in template: 37.N)</title><text x="112.829" y="87.07" class="green" >G</text></g>
<g><title>38 (position.label in template: 38.U)</title><text x="112.679" y="94.43" class="black" >U</text></g>
<g><title>39 (position.label in template: 39.U)</title><text x="112.679" y="101.99" class="black" >U</text></g>
<g><title>40 (position.label in template: 40.U)</title><text x="117.389" y="107.9" class="black" >U</text></g>
<g><title>41 (position.label in template: 41.U)</title><text x="117.389" y="115.46" class="black" >U</text></g>
<g><title>42 (position.label in template: 42.U)</title><text x="112.679" y="121.38" class="black" >U</text></g>
<g><title>43 (position.label in template: 43.U)</title><text x="112.679" y="128.94" class="green" >A</text></g>
<g><title>44 (position.label in template: 44.A)</title><text x="112.889" y="136.5" class="green" >G</text></g>
<g><title>45 (position.label in template: 45.U)</title><text x="112.679" y="144.06" class="black" >U</text></g>
<g><title>46 (position.label in template: 46.U)</title><text x="112.679" y="151.62" class="green" >U</text></g>
<g><title>47 (position.label in template: 47.U)</title><text x="119.27" y="152.452" class="blue" >U</text></g>
<g><title>48 (position.label in template: 48.U)</title><text x="124.339" y="156.747" class="blue" >U</text></g>
<g><title>49 (inserted)</title><text x="126.241" y="163.113" class="red" >A</text></g>
<g><title>50 (inserted)</title><text x="124.361" y="169.485" class="red" >G</text></g>
<g><title>50 (inserted)</title><text x="130.108" y="173.214" class="numbering-label sequential" >50</text></g>
<g><line x1="125.893" y1="170.479" x2="128.281" y2="172.029" class="numbering-line sequential" /></g>
<g><title>51 (inserted)</title><text x="119.307" y="173.797" class="red" >C</text></g>
<g><title>52 (position.label in template: 49.U)</title><text x="112.719" y="174.652" class="black" >U</text></g>
<g><title>53 (position.label in template: 50.G)</title><text x="112.509" y="182.212" class="green" >U</text></g>
<g><title>54 (position.label in template: 51.G)</title><text x="112.509" y="189.772" class="black" >G</text></g>
<g><title>55 (position.label in template: 52.U)</title><text x="112.719" y="197.332" class="black" >U</text></g>
<g><title>56 (inserted)</title><text x="118.063" y="202.676" class="red" >G</text></g>
<g><title>57 (inserted)</title><text x="123.406" y="208.019" class="red" >G</text></g>
<g><title>58 (inserted)</title><text x="128.75" y="213.363" class="red" >U</text></g>
<g><title>59 (inserted)</title><text x="134.094" y="218.707" class="red" >U</text></g>
<g><title>60 (inserted)</title><text x="139.438" y="224.051" class="red" >U</text></g>
<g><title>61 (inserted)</title><text x="144.782" y="229.395" class="red" >G</text></g>
<g><title>62 (inserted)</title><text x="150.126" y="234.739" class="red" >G</text></g>
<g><title>63 (inserted)</title><text x="155.47" y="240.083" class="red" >U</text></g>
<g><title>64 (inserted)</title><text x="160.814" y="245.427" class="red" >A</text></g>
<g><title>65 (position.label in template: 53.U)</title><text x="166.158" y="250.771" class="black" >U</text></g>
<g><title>66 (position.label in template: 54.U)</title><text x="173.718" y="250.771" class="black" >U</text></g>
<g><title>67 (position.label in template: 55.U)</title><text x="181.278" y="250.771" class="black" >U</text></g>
<g><title>68 (position.label in template: 56.U)</title><text x="188.838" y="250.771" class="black" >U</text></g>
<g><title>69 (position.label in template: 57.G)</title><text x="196.188" y="250.771" class="black" >G</text></g>
<g><title>70 (position.label in template: 58.A)</title><text x="204.158" y="250.771" class="black" >A</text></g>
<g><title>71 (position.label in template: 59.U)</title><text x="211.518" y="250.771" class="black" >U</text></g>
<g><title>72 (position.label in template: 60.A)</title><text x="219.278" y="250.771" class="black" >A</text></g>
<g><title>73 (position.label in template: 62.A)</title><text x="234.398" y="250.771" class="green" >G</text></g>
<g><title>74 (position.label in template: 63.G)</title><text x="241.548" y="250.771" class="green" >A</text></g>
<g><title>75 (position.label in template: 64.A)</title><text x="249.518" y="250.771" class="black" >A</text></g>
<g><title>76 (position.label in template: 65.G)</title><text x="256.668" y="250.771" class="black" >G</text></g>
<g><title>77 (position.label in template: 66.A)</title><text x="264.638" y="250.771" class="black" >A</text></g>
<g><title>78 (position.label in template: 67.A)</title><text x="272.198" y="250.771" class="black" >A</text></g>
<g><title>79 (position.label in template: 68.A)</title><text x="279.758" y="250.771" class="black" >A</text></g>
<g><title>80 (position.label in template: 69.G)</title><text x="286.908" y="250.771" class="black" >G</text></g>
<g><title>81 (position.label in template: 70.A)</title><text x="294.878" y="250.771" class="black" >A</text></g>
<g><title>82 (position.label in template: 71.U)</title><text x="300.018" y="245.421" class="black" >U</text></g>
<g><line x1="302.048" y1="245.116" x2="310.438" y2="245.116" class="black" /></g>
<g><title>83 (position.label in template: 72.G)</title><text x="299.808" y="237.861" class="black" >G</text></g>
<g><line x1="301.838" y1="237.556" x2="310.228" y2="237.556" class="black" /></g>
<g><title>84 (position.label in template: 73.C)</title><text x="300.018" y="230.301" class="black" >C</text></g>
<g><line x1="302.048" y1="229.996" x2="310.018" y2="229.996" class="black" /></g>
<g><title>85 (position.label in template: 74.C)</title><text x="300.018" y="222.741" class="black" >C</text></g>
<g><line x1="302.048" y1="222.436" x2="310.018" y2="222.436" class="black" /></g>
<g><title>86 (position.label in template: 75.U)</title><text x="300.018" y="215.181" class="black" >U</text></g>
<g><line x1="302.048" y1="214.876" x2="310.438" y2="214.876" class="black" /></g>
<g><title>87 (position.label in template: 76.C)</title><text x="300.018" y="207.621" class="black" >C</text></g>
<g><line x1="302.048" y1="207.316" x2="310.018" y2="207.316" class="black" /></g>
<g><title>88 (position.label in template: 77.U)</title><text x="300.018" y="200.061" class="black" >U</text></g>
<g><line x1="302.048" y1="199.756" x2="310.018" y2="199.756" class="black" /></g>
<g><title>89 (position.label in template: 78.U)</title><text x="293.308" y="196.581" class="black" >U</text></g>
<g><title>90 (position.label in template: 79.C)</title><text x="288.288" y="190.931" class="black" >C</text></g>
<g><title>91 (position.label in template: 80.U)</title><text x="285.598" y="183.871" class="black" >U</text></g>
<g><title>92 (position.label in template: 81.U)</title><text x="285.598" y="176.311" class="black" >U</text></g>
<g><title>93 (position.label in template: 82.U)</title><text x="288.288" y="169.241" class="black" >U</text></g>
<g><title>94 (position.label in template: 83.C)</title><text x="293.308" y="163.601" class="black" >C</text></g>
<g><title>95 (position.label in template: 84.A)</title><text x="300.228" y="160.111" class="black" >A</text></g>
<g><line x1="302.258" y1="159.806" x2="310.228" y2="159.806" class="black" /></g>
<g><title>96 (position.label in template: 85.G)</title><text x="299.808" y="152.551" class="black" >G</text></g>
<g><line x1="301.838" y1="152.246" x2="310.228" y2="152.246" class="black" /></g>
<g><title>97 (position.label in template: 86.C)</title><text x="300.018" y="144.991" class="black" >C</text></g>
<g><line x1="302.048" y1="144.686" x2="310.018" y2="144.686" class="black" /></g>
<g><title>98 (position.label in template: 87.A)</title><text x="300.228" y="137.431" class="black" >A</text></g>
<g><line x1="302.258" y1="137.126" x2="310.228" y2="137.126" class="black" /></g>
<g><title>99 (position.label in template: 88.G)</title><text x="299.808" y="129.871" class="green" >G</text></g>
<g><line x1="301.838" y1="129.566" x2="310.228" y2="129.566" class="black" /></g>
<g><title>100 (position.label in template: 89.C)</title><text x="300.018" y="122.311" class="black" >C</text></g>
<g><line x1="302.048" y1="122.006" x2="310.018" y2="122.006" class="black" /></g>
<g><title>100 (inserted)</title><text x="293.169" y="122.121" class="numbering-label sequential" >100</text></g>
<g><line x1="298.191" y1="122.26" x2="295.91" y2="122.197" class="numbering-line sequential" /></g>
<g><title>101 (position.label in template: 90.A)</title><text x="300.228" y="114.751" class="black" >A</text></g>
<g><line x1="302.258" y1="114.446" x2="310.228" y2="114.446" class="black" /></g>
<g><title>102 (position.label in template: 91.A)</title><text x="300.228" y="107.191" class="black" >A</text></g>
<g><line x1="302.258" y1="106.886" x2="310.228" y2="106.886" class="black" /></g>
<g><title>103 (position.label in template: 92.G)</title><text x="299.808" y="99.6308" class="black" >G</text></g>
<g><line x1="301.838" y1="99.3263" x2="310.228" y2="99.3263" class="black" /></g>
<g><title>104 (position.label in template: 93.A)</title><text x="300.228" y="92.0708" class="black" >A</text></g>
<g><line x1="302.258" y1="91.7663" x2="310.228" y2="91.7663" class="black" /></g>
<g><title>105 (position.label in template: 94.U)</title><text x="298.009" y="86.2619" class="blue" >U</text></g>
<g><title>106 (inserted)</title><text x="300.485" y="80.5579" class="red" >C</text></g>
<g><title>107 (position.label in template: 95.U)</title><text x="306.243" y="78.2105" class="green" >C</text></g>
<g><title>108 (position.label in template: 96.A)</title><text x="312.001" y="80.5579" class="blue" >A</text></g>
<g><title>109 (position.label in template: 97.U)</title><text x="314.476" y="86.2619" class="blue" >U</text></g>
<g><title>110 (position.label in template: 98.U)</title><text x="312.258" y="92.0708" class="black" >U</text></g>
<g><title>111 (position.label in template: 99.C)</title><text x="312.258" y="99.6308" class="black" >C</text></g>
<g><title>112 (position.label in template: 100.U)</title><text x="312.258" y="107.191" class="black" >U</text></g>
<g><title>113 (position.label in template: 101.U)</title><text x="312.258" y="114.751" class="black" >U</text></g>
<g><title>114 (position.label in template: 102.G)</title><text x="312.048" y="122.311" class="black" >G</text></g>
<g><title>115 (position.label in template: 103.U)</title><text x="312.258" y="129.871" class="green" >G</text></g>
<g><title>116 (position.label in template: 104.U)</title><text x="312.258" y="137.431" class="black" >U</text></g>
<g><title>117 (position.label in template: 105.A)</title><text x="319.018" y="141.211" class="black" >A</text></g>
<g><title>118 (position.label in template: 106.G)</title><text x="312.048" y="144.991" class="black" >G</text></g>
<g><title>119 (position.label in template: 107.C)</title><text x="312.258" y="152.551" class="black" >C</text></g>
<g><title>120 (position.label in template: 108.U)</title><text x="312.258" y="160.111" class="black" >U</text></g>
<g><title>121 (position.label in template: 109.U)</title><text x="319.608" y="161.911" class="black" >U</text></g>
<g><title>122 (position.label in template: 110.U)</title><text x="325.758" y="166.301" class="black" >U</text></g>
<g><title>123 (position.label in template: 111.G)</title><text x="329.628" y="172.661" class="black" >G</text></g>
<g><title>124 (position.label in template: 112.U)</title><text x="331.268" y="180.091" class="black" >U</text></g>
<g><title>125 (position.label in template: 113.U)</title><text x="329.838" y="187.511" class="black" >U</text></g>
<g><title>126 (position.label in template: 114.C)</title><text x="325.758" y="193.871" class="black" >C</text></g>
<g><title>127 (position.label in template: 115.U)</title><text x="319.608" y="198.271" class="black" >U</text></g>
<g><title>128 (position.label in template: 116.G)</title><text x="312.048" y="200.061" class="black" >G</text></g>
<g><title>129 (position.label in template: 117.G)</title><text x="312.048" y="207.621" class="black" >G</text></g>
<g><title>130 (position.label in template: 118.A)</title><text x="312.468" y="215.181" class="black" >A</text></g>
<g><title>131 (position.label in template: 119.G)</title><text x="312.048" y="222.741" class="black" >G</text></g>
<g><title>132 (position.label in template: 120.G)</title><text x="312.048" y="230.301" class="black" >G</text></g>
<g><title>133 (position.label in template: 121.C)</title><text x="312.258" y="237.861" class="black" >C</text></g>
<g><title>134 (position.label in template: 122.A)</title><text x="312.468" y="245.421" class="black" >A</text></g>
<g><title>135 (position.label in template: 123.C)</title><text x="317.704" y="250.871" class="black" >C</text></g>
<g><title>136 (position.label in template: 124.A)</title><text x="325.261" y="250.871" class="black" >A</text></g>
<g><title>137 (position.label in template: 125.G)</title><text x="332.819" y="250.871" class="green" >U</text></g>
<g><title>138 (position.label in template: 126.A)</title><text x="340.376" y="250.871" class="black" >A</text></g>
<g><title>139 (position.label in template: 127.U)</title><text x="347.933" y="250.871" class="black" >U</text></g>
<g><title>140 (position.label in template: 128.3')</title><text x="355.491" y="250.871" class="green" >3'</text></g>
<g><line x1="44.4726" y1="202.371" x2="47.97" y2="202.371" class="gray" /></g>
<g><line x1="52.03" y1="202.371" x2="55.5274" y2="202.371" class="gray" /></g>
<g><line x1="59.5875" y1="202.371" x2="63.0849" y2="202.371" class="gray" /></g>
<g><line x1="67.1449" y1="202.371" x2="70.6423" y2="202.371" class="gray" /></g>
<g><line x1="74.7023" y1="202.371" x2="78.1998" y2="202.371" class="gray" /></g>
<g><line x1="82.2598" y1="202.371" x2="85.7572" y2="202.371" class="gray" /></g>
<g><line x1="89.8172" y1="202.371" x2="93.3147" y2="202.371" class="gray" /></g>
<g><line x1="96.7801" y1="200.936" x2="99.2531" y2="198.463" class="gray" /></g>
<g><line x1="100.632" y1="194.998" x2="100.535" y2="191.496" class="gray" /></g>
<g><line x1="100.479" y1="187.437" x2="100.479" y2="183.937" class="gray" /></g>
<g><line x1="100.535" y1="179.878" x2="100.632" y2="176.376" class="gray" /></g>
<g><line x1="100.638" y1="172.318" x2="100.547" y2="168.7" class="gray" /></g>
<g><line x1="100.455" y1="164.641" x2="100.383" y2="161.023" class="gray" /></g>
<g><line x1="100.313" y1="156.964" x2="100.259" y2="153.345" class="gray" /></g>
<g><line x1="100.342" y1="149.289" x2="100.537" y2="145.782" class="gray" /></g>
<g><line x1="100.593" y1="141.726" x2="100.496" y2="138.225" class="gray" /></g>
<g><line x1="100.383" y1="134.166" x2="100.286" y2="130.665" class="gray" /></g>
<g><line x1="100.342" y1="126.609" x2="100.537" y2="123.102" class="gray" /></g>
<g><line x1="99.3516" y1="119.514" x2="97.0266" y2="116.717" class="gray" /></g>
<g><line x1="95.7855" y1="113.126" x2="95.8828" y2="109.625" class="gray" /></g>
<g><line x1="97.1316" y1="105.953" x2="99.0366" y2="103.328" class="gray" /></g>
<g><line x1="100.342" y1="99.6586" x2="100.537" y2="96.1524" class="gray" /></g>
<g><line x1="100.649" y1="92.0955" x2="100.649" y2="88.5955" class="gray" /></g>
<g><line x1="98.8848" y1="85.5614" x2="95.6835" y2="83.7396" class="gray" /></g>
<g><line x1="92.7426" y1="81.0812" x2="90.7857" y2="78.3298" class="gray" /></g>
<g><line x1="89.1339" y1="74.7019" x2="88.3144" y2="71.2991" class="gray" /></g>
<g><line x1="88.0609" y1="67.3076" x2="88.4373" y2="63.8834" class="gray" /></g>
<g><line x1="89.824" y1="60.2029" x2="91.9643" y2="57.1481" class="gray" /></g>
<g><line x1="94.8023" y1="54.336" x2="97.6859" y2="52.355" class="gray" /></g>
<g><line x1="101.348" y1="50.8002" x2="104.78" y2="50.1008" class="gray" /></g>
<g><line x1="108.746" y1="50.1555" x2="112.142" y2="50.9455" class="gray" /></g>
<g><line x1="115.805" y1="52.5367" x2="118.513" y2="54.3543" class="gray" /></g>
<g><line x1="121.29" y1="57.1974" x2="123.308" y2="60.3636" class="gray" /></g>
<g><line x1="124.701" y1="64.0829" x2="125.187" y2="67.3181" class="gray" /></g>
<g><line x1="124.959" y1="71.285" x2="124.03" y2="74.716" class="gray" /></g>
<g><line x1="122.287" y1="78.304" x2="120.201" y2="81.107" class="gray" /></g>
<g><line x1="117.29" y1="83.8469" x2="114.528" y2="85.6541" class="gray" /></g>
<g><line x1="112.788" y1="88.7951" x2="112.721" y2="92.0959" class="gray" /></g>
<g><line x1="112.679" y1="96.1555" x2="112.679" y2="99.6555" class="gray" /></g>
<g><line x1="113.944" y1="103.273" x2="116.124" y2="106.008" class="gray" /></g>
<g><line x1="117.389" y1="109.626" x2="117.389" y2="113.125" class="gray" /></g>
<g><line x1="116.125" y1="116.744" x2="113.943" y2="119.487" class="gray" /></g>
<g><line x1="112.679" y1="123.106" x2="112.679" y2="126.605" class="gray" /></g>
<g><line x1="112.736" y1="130.665" x2="112.833" y2="134.166" class="gray" /></g>
<g><line x1="112.833" y1="138.225" x2="112.736" y2="141.726" class="gray" /></g>
<g><line x1="112.679" y1="145.786" x2="112.679" y2="149.285" class="gray" /></g>
<g><line x1="114.693" y1="151.57" x2="117.256" y2="151.893" class="gray" /></g>
<g><line x1="120.819" y1="153.46" x2="122.79" y2="155.13" class="gray" /></g>
<g><line x1="124.92" y1="158.388" x2="125.66" y2="160.863" class="gray" /></g>
<g><line x1="125.667" y1="164.755" x2="124.935" y2="167.233" class="gray" /></g>
<g><line x1="122.817" y1="170.498" x2="120.851" y2="172.175" class="gray" /></g>
<g><line x1="117.294" y1="173.754" x2="114.732" y2="174.086" class="gray" /></g>
<g><line x1="112.662" y1="176.376" x2="112.565" y2="179.878" class="gray" /></g>
<g><line x1="112.509" y1="183.937" x2="112.509" y2="187.437" class="gray" /></g>
<g><line x1="112.565" y1="191.496" x2="112.662" y2="194.998" class="gray" /></g>
<g><line x1="114.154" y1="198.463" x2="116.627" y2="200.936" class="gray" /></g>
<g><line x1="119.498" y1="203.806" x2="121.971" y2="206.28" class="gray" /></g>
<g><line x1="124.842" y1="209.15" x2="127.315" y2="211.623" class="gray" /></g>
<g><line x1="130.186" y1="214.494" x2="132.659" y2="216.967" class="gray" /></g>
<g><line x1="135.53" y1="219.838" x2="138.003" y2="222.311" class="gray" /></g>
<g><line x1="140.874" y1="225.182" x2="143.347" y2="227.655" class="gray" /></g>
<g><line x1="146.218" y1="230.526" x2="148.691" y2="232.999" class="gray" /></g>
<g><line x1="151.561" y1="235.87" x2="154.035" y2="238.343" class="gray" /></g>
<g><line x1="156.905" y1="241.214" x2="159.378" y2="243.687" class="gray" /></g>
<g><line x1="162.249" y1="246.558" x2="164.722" y2="249.031" class="gray" /></g>
<g><line x1="168.188" y1="250.466" x2="171.688" y2="250.466" class="gray" /></g>
<g><line x1="175.748" y1="250.466" x2="179.248" y2="250.466" class="gray" /></g>
<g><line x1="183.308" y1="250.466" x2="186.808" y2="250.466" class="gray" /></g>
<g><line x1="190.868" y1="250.466" x2="194.158" y2="250.466" class="gray" /></g>
<g><line x1="198.218" y1="250.466" x2="202.128" y2="250.466" class="gray" /></g>
<g><line x1="206.188" y1="250.466" x2="209.488" y2="250.466" class="gray" /></g>
<g><line x1="213.548" y1="250.466" x2="217.248" y2="250.466" class="gray" /></g>
<g><line x1="221.308" y1="250.466" x2="232.368" y2="250.466" class="gray" /></g>
<g><line x1="236.428" y1="250.466" x2="239.518" y2="250.466" class="gray" /></g>
<g><line x1="243.578" y1="250.466" x2="247.488" y2="250.466" class="gray" /></g>
<g><line x1="251.548" y1="250.466" x2="254.638" y2="250.466" class="gray" /></g>
<g><line x1="258.698" y1="250.466" x2="262.608" y2="250.466" class="gray" /></g>
<g><line x1="266.668" y1="250.466" x2="270.168" y2="250.466" class="gray" /></g>
<g><line x1="274.228" y1="250.466" x2="277.728" y2="250.466" class="gray" /></g>
<g><line x1="281.788" y1="250.466" x2="284.878" y2="250.466" class="gray" /></g>
<g><line x1="288.938" y1="250.466" x2="292.848" y2="250.466" class="gray" /></g>
<g><line x1="296.284" y1="249.002" x2="298.611" y2="246.58" class="gray" /></g>
<g><line x1="299.961" y1="243.087" x2="299.864" y2="239.586" class="gray" /></g>
<g><line x1="299.864" y1="235.527" x2="299.961" y2="232.026" class="gray" /></g>
<g><line x1="300.018" y1="227.966" x2="300.018" y2="224.466" class="gray" /></g>
<g><line x1="300.018" y1="220.406" x2="300.018" y2="216.906" class="gray" /></g>
<g><line x1="300.018" y1="212.846" x2="300.018" y2="209.346" class="gray" /></g>
<g><line x1="300.018" y1="205.286" x2="300.018" y2="201.786" class="gray" /></g>
<g><line x1="298.216" y1="198.822" x2="295.11" y2="197.211" class="gray" /></g>
<g><line x1="291.959" y1="194.759" x2="289.636" y2="192.144" class="gray" /></g>
<g><line x1="287.565" y1="188.729" x2="286.321" y2="185.463" class="gray" /></g>
<g><line x1="285.598" y1="181.536" x2="285.598" y2="178.036" class="gray" /></g>
<g><line x1="286.32" y1="174.109" x2="287.566" y2="170.834" class="gray" /></g>
<g><line x1="289.637" y1="167.42" x2="291.958" y2="164.813" class="gray" /></g>
<g><line x1="295.12" y1="162.382" x2="298.415" y2="160.72" class="gray" /></g>
<g><line x1="300.115" y1="157.779" x2="299.92" y2="154.273" class="gray" /></g>
<g><line x1="299.864" y1="150.217" x2="299.961" y2="146.716" class="gray" /></g>
<g><line x1="300.074" y1="142.657" x2="300.171" y2="139.156" class="gray" /></g>
<g><line x1="300.115" y1="135.099" x2="299.92" y2="131.593" class="gray" /></g>
<g><line x1="299.864" y1="127.537" x2="299.961" y2="124.036" class="gray" /></g>
<g><line x1="300.074" y1="119.977" x2="300.171" y2="116.476" class="gray" /></g>
<g><line x1="300.228" y1="112.416" x2="300.228" y2="108.916" class="gray" /></g>
<g><line x1="300.115" y1="104.859" x2="299.92" y2="101.353" class="gray" /></g>
<g><line x1="299.92" y1="97.2994" x2="300.115" y2="93.7932" class="gray" /></g>
<g><line x1="299.504" y1="89.8699" x2="298.734" y2="87.8539" class="gray" /></g>
<g><line x1="298.818" y1="84.0952" x2="299.677" y2="82.1156" class="gray" /></g>
<g><line x1="302.365" y1="79.487" x2="304.363" y2="78.6723" class="gray" /></g>
<g><line x1="308.123" y1="78.6723" x2="310.121" y2="79.487" class="gray" /></g>
<g><line x1="312.809" y1="82.1156" x2="313.668" y2="84.0952" class="gray" /></g>
<g><line x1="313.752" y1="87.8539" x2="312.982" y2="89.8699" class="gray" /></g>
<g><line x1="312.258" y1="93.7963" x2="312.258" y2="97.2963" class="gray" /></g>
<g><line x1="312.258" y1="101.356" x2="312.258" y2="104.856" class="gray" /></g>
<g><line x1="312.258" y1="108.916" x2="312.258" y2="112.416" class="gray" /></g>
<g><line x1="312.201" y1="116.476" x2="312.104" y2="119.977" class="gray" /></g>
<g><line x1="312.104" y1="124.036" x2="312.201" y2="127.537" class="gray" /></g>
<g><line x1="312.258" y1="131.596" x2="312.258" y2="135.096" class="gray" /></g>
<g><line x1="314.03" y1="138.117" x2="317.246" y2="139.916" class="gray" /></g>
<g><line x1="317.233" y1="141.874" x2="313.832" y2="143.719" class="gray" /></g>
<g><line x1="312.104" y1="146.716" x2="312.201" y2="150.217" class="gray" /></g>
<g><line x1="312.258" y1="154.276" x2="312.258" y2="157.776" class="gray" /></g>
<g><line x1="314.23" y1="160.289" x2="317.636" y2="161.123" class="gray" /></g>
<g><line x1="321.26" y1="162.786" x2="324.106" y2="164.817" class="gray" /></g>
<g><line x1="326.813" y1="167.731" x2="328.573" y2="170.622" class="gray" /></g>
<g><line x1="330.065" y1="174.339" x2="330.83" y2="177.804" class="gray" /></g>
<g><line x1="330.884" y1="181.78" x2="330.222" y2="185.213" class="gray" /></g>
<g><line x1="328.742" y1="188.915" x2="326.854" y2="191.858" class="gray" /></g>
<g><line x1="324.107" y1="194.748" x2="321.259" y2="196.785" class="gray" /></g>
<g><line x1="317.632" y1="198.434" x2="314.023" y2="199.289" class="gray" /></g>
<g><line x1="312.048" y1="201.786" x2="312.048" y2="205.286" class="gray" /></g>
<g><line x1="312.16" y1="209.343" x2="312.355" y2="212.849" class="gray" /></g>
<g><line x1="312.355" y1="216.903" x2="312.16" y2="220.409" class="gray" /></g>
<g><line x1="312.048" y1="224.466" x2="312.048" y2="227.966" class="gray" /></g>
<g><line x1="312.104" y1="232.026" x2="312.201" y2="235.527" class="gray" /></g>
<g><line x1="312.314" y1="239.586" x2="312.411" y2="243.087" class="gray" /></g>
<g><line x1="313.874" y1="246.58" x2="316.297" y2="249.102" class="gray" /></g>
<g><line x1="319.734" y1="250.566" x2="323.231" y2="250.566" class="gray" /></g>
<g><line x1="327.291" y1="250.566" x2="330.789" y2="250.566" class="gray" /></g>
<g><line x1="334.849" y1="250.566" x2="338.346" y2="250.566" class="gray" /></g>
<g><line x1="342.406" y1="250.566" x2="345.903" y2="250.566" class="gray" /></g>
<g><line x1="349.963" y1="250.566" x2="353.461" y2="250.566" class="gray" /></g>
</svg>
