<svg
	xmlns="http://www.w3.org/2000/svg"
	width="330.424"
	height="294.06"
	style="font-size: 3.068569px; font-weight: bold; font-family: Helvetica; " >
<g><style type="text/css" >
<!-- create color definitions -->
<![CDATA[
text.red {fill: rgb(255, 0, 255); }
text.green {fill: rgb(0, 255, 0); }
text.blue {fill: rgb(0, 0, 255); }
text.black {fill: rgb(0, 0, 0); }
text.gray {fill: rgb(204, 204, 204); }
text.brown {fill: rgb(211.65, 104.55, 30.6); }
text {fill: rgb(0, 0, 0); text-anchor: middle; alignment-baseline: middle; }
circle.red {stroke: rgb(255, 0, 255); fill: none; }
circle.green {stroke: rgb(0, 255, 0); fill: none; }
circle.blue {stroke: rgb(0, 0, 255); fill: none; }
circle.black {stroke: rgb(0, 0, 0); fill: none; }
circle.gray {stroke: rgb(204, 204, 204); fill: none; }
circle.brown {stroke: rgb(211.65, 104.55, 30.6); fill: none; }
circle {stroke: rgb(0, 0, 0); }
line.red {stroke: rgb(255, 0, 255); stroke-width: 0.383571; }
line.green {stroke: rgb(0, 255, 0); stroke-width: 0.383571; }
line.blue {stroke: rgb(0, 0, 255); stroke-width: 0.383571; }
line.black {stroke: rgb(0, 0, 0); stroke-width: 0.383571; }
line.gray {stroke: rgb(204, 204, 204); stroke-width: 0.383571; }
line.brown {stroke: rgb(211.65, 104.55, 30.6); stroke-width: 0.383571; }
line {stroke: rgb(0, 0, 0); }
text.numbering-label {fill: rgb(204, 204, 204);}
line.numbering-line {stroke: rgb(204, 204, 204); stroke-width: 0.191786;}
line.predicted {stroke: rgb(0, 0, 0); stroke-dasharray: 2}
text.background {fill: rgb(255, 255, 255);
.template {visibility:hidden}
]]>
</style></g>
<g><title>0 (position.label in template: 0.5')</title><text x="137.142" y="235.819" class="green" >5'</text></g>
<g><title>1 (position.label in template: 1.N)</title><text x="144.709" y="235.819" class="green" >G</text></g>
<g><title>2 (position.label in template: 2.N)</title><text x="152.276" y="235.819" class="green" >A</text></g>
<g><title>3 (position.label in template: 3.N)</title><text x="159.843" y="235.819" class="green" >C</text></g>
<g><title>4 (position.label in template: 4.Y)</title><text x="167.407" y="235.61" class="green" >A</text></g>
<g><title>5 (position.label in template: 6.N)</title><text x="174.433" y="232.799" class="green" >A</text></g>
<g><line x1="176.479" y1="232.493" x2="184.628" y2="232.493" class="black" /></g>
<g><title>6 (position.label in template: 7.Y)</title><text x="174.493" y="225.029" class="green" >U</text></g>
<g><line x1="176.539" y1="224.723" x2="184.478" y2="224.723" class="black" /></g>
<g><title>7 (position.label in template: 8.N)</title><text x="174.433" y="217.679" class="green" >U</text></g>
<g><line x1="176.479" y1="217.373" x2="184.628" y2="217.373" class="black" /></g>
<g><title>8 (position.label in template: 9.G)</title><text x="174.073" y="209.909" class="green" >G</text></g>
<g><line x1="176.119" y1="209.603" x2="184.688" y2="209.603" class="black" /></g>
<g><title>9 (position.label in template: 10.N)</title><text x="174.433" y="202.559" class="green" >C</text></g>
<g><line x1="176.479" y1="202.253" x2="184.628" y2="202.253" class="black" /></g>
<g><title>10 (inserted)</title><text x="174.389" y="191.03" class="red" >U</text></g>
<g><title>10 (inserted)</title><text x="167.484" y="191.03" class="numbering-label sequential" >10</text></g>
<g><line x1="172.547" y1="191.03" x2="169.325" y2="191.03" class="numbering-line sequential" /></g>
<g><title>11 (position.label in template: 11.N)</title><text x="174.433" y="179.5" class="green" >G</text></g>
<g><line x1="176.479" y1="179.193" x2="184.628" y2="179.193" class="black" /></g>
<g><title>12 (position.label in template: 12.R)</title><text x="166.813" y="178.14" class="green" >U</text></g>
<g><title>13 (position.label in template: 13.R)</title><text x="159.523" y="176.13" class="green" >A</text></g>
<g><title>14 (position.label in template: 14.U)</title><text x="152.523" y="173.28" class="black" >U</text></g>
<g><title>15 (position.label in template: 15.Y)</title><text x="146.103" y="169.64" class="green" >U</text></g>
<g><title>16 (position.label in template: 16.C)</title><text x="139.743" y="165.25" class="black" >C</text></g>
<g><title>17 (position.label in template: 17.R)</title><text x="134.143" y="160.17" class="green" >A</text></g>
<g><title>18 (position.label in template: 18.N)</title><text x="129.313" y="154.69" class="green" >U</text></g>
<g><title>19 (position.label in template: 19.U)</title><text x="124.893" y="148.25" class="black" >U</text></g>
<g><title>20 (position.label in template: 20.C)</title><text x="121.363" y="141.56" class="black" >C</text></g>
<g><line x1="120.667" y1="139.33" x2="117.87" y2="131.607" class="black" /></g>
<g><title>20 (inserted)</title><text x="118.899" y="148.009" class="numbering-label sequential" >20</text></g>
<g><line x1="120.706" y1="143.28" x2="119.485" y2="146.475" class="numbering-line sequential" /></g>
<g><title>21 (position.label in template: 21.N)</title><text x="114.373" y="144.23" class="green" >U</text></g>
<g><line x1="113.706" y1="141.989" x2="111.05" y2="134.287" class="black" /></g>
<g><title>22 (position.label in template: 22.R)</title><text x="107.073" y="146.48" class="green" >C</text></g>
<g><line x1="106.438" y1="144.229" x2="103.929" y2="136.548" class="black" /></g>
<g><title>23 (inserted)</title><text x="102.361" y="150.633" class="red" >C</text></g>
<g><title>24 (inserted)</title><text x="96.4849" y="152.855" class="red" >U</text></g>
<g><title>25 (position.label in template: 23.N)</title><text x="90.2032" y="152.859" class="green" >U</text></g>
<g><line x1="89.5362" y1="150.618" x2="86.8801" y2="142.916" class="black" /></g>
<g><title>26 (position.label in template: 24.N)</title><text x="83.0532" y="155.329" class="green" >U</text></g>
<g><line x1="82.3883" y1="153.088" x2="79.7381" y2="145.377" class="black" /></g>
<g><title>27 (position.label in template: 25.N)</title><text x="75.9132" y="157.789" class="green" >C</text></g>
<g><line x1="75.2462" y1="155.548" x2="72.5901" y2="147.846" class="black" /></g>
<g><title>28 (position.label in template: 26.N)</title><text x="68.7632" y="160.249" class="green" >U</text></g>
<g><line x1="68.0962" y1="158.008" x2="65.4401" y2="150.306" class="black" /></g>
<g><title>29 (position.label in template: 27.N)</title><text x="64.4577" y="165.326" class="green" >C</text></g>
<g><title>30 (position.label in template: 28.N)</title><text x="57.8916" y="166.423" class="green" >G</text></g>
<g><title>30 (inserted)</title><text x="56.6174" y="173.208" class="numbering-label sequential" >30</text></g>
<g><line x1="57.5518" y1="168.232" x2="56.9055" y2="171.674" class="numbering-line sequential" /></g>
<g><title>31 (position.label in template: 29.N)</title><text x="52.1703" y="163.019" class="green" >A</text></g>
<g><title>32 (position.label in template: 30.R)</title><text x="50" y="156.726" class="green" >U</text></g>
<g><title>33 (position.label in template: 31.N)</title><text x="52.4072" y="150.519" class="green" >A</text></g>
<g><title>34 (inserted)</title><text x="58.2532" y="147.335" class="red" >G</text></g>
<g><title>35 (position.label in template: 32.N)</title><text x="64.7732" y="148.679" class="green" >A</text></g>
<g><title>36 (position.label in template: 33.N)</title><text x="71.9232" y="146.219" class="green" >G</text></g>
<g><title>37 (position.label in template: 34.N)</title><text x="79.0732" y="143.749" class="green" >A</text></g>
<g><title>38 (position.label in template: 35.N)</title><text x="86.2132" y="141.289" class="green" >U</text></g>
<g><title>39 (inserted)</title><text x="90.9847" y="137.091" class="red" >U</text></g>
<g><title>40 (inserted)</title><text x="96.9383" y="134.868" class="red" >G</text></g>
<g><title>41 (position.label in template: 36.Y)</title><text x="103.293" y="134.91" class="green" >G</text></g>
<g><title>42 (position.label in template: 37.N)</title><text x="110.383" y="132.66" class="green" >A</text></g>
<g><title>43 (position.label in template: 38.G)</title><text x="117.173" y="129.99" class="black" >G</text></g>
<g><title>44 (position.label in template: 39.U)</title><text x="116.019" y="122.313" class="black" >U</text></g>
<g><title>45 (position.label in template: 40.C)</title><text x="115.598" y="114.564" class="black" >C</text></g>
<g><title>46 (position.label in template: 41.A)</title><text x="116.28" y="106.833" class="black" >A</text></g>
<g><title>47 (position.label in template: 42.Y)</title><text x="117.699" y="99.2044" class="green" >U</text></g>
<g><title>48 (position.label in template: 43.N)</title><text x="120.012" y="91.7966" class="green" >A</text></g>
<g><title>49 (position.label in template: 44.C)</title><text x="123.056" y="84.6713" class="black" >C</text></g>
<g><title>50 (position.label in template: 45.A)</title><text x="127.186" y="78.1027" class="black" >A</text></g>
<g><title>50 (inserted)</title><text x="121.526" y="74.1495" class="numbering-label sequential" >50</text></g>
<g><line x1="125.677" y1="77.0485" x2="123.367" y2="75.4353" class="numbering-line sequential" /></g>
<g><title>51 (position.label in template: 46.A)</title><text x="131.931" y="71.9643" class="black" >A</text></g>
<g><title>52 (position.label in template: 47.C)</title><text x="137.318" y="66.3922" class="black" >C</text></g>
<g><title>53 (position.label in template: 48.C)</title><text x="143.408" y="61.5935" class="black" >C</text></g>
<g><title>54 (position.label in template: 49.C)</title><text x="150.028" y="57.5568" class="black" >C</text></g>
<g><title>55 (position.label in template: 50.C)</title><text x="157.087" y="54.3578" class="black" >C</text></g>
<g><title>56 (position.label in template: 51.A)</title><text x="164.484" y="52.0307" class="black" >A</text></g>
<g><title>57 (position.label in template: 52.A)</title><text x="172.094" y="50.5553" class="green" >G</text></g>
<g><title>58 (position.label in template: 53.A)</title><text x="179.826" y="50" class="black" >A</text></g>
<g><title>59 (position.label in template: 54.A)</title><text x="187.556" y="50.4628" class="black" >A</text></g>
<g><title>60 (position.label in template: 55.N)</title><text x="195.203" y="51.7883" class="green" >A</text></g>
<g><title>61 (position.label in template: 56.Y)</title><text x="202.625" y="53.969" class="green" >C</text></g>
<g><title>62 (position.label in template: 57.N)</title><text x="209.728" y="57.0904" class="green" >C</text></g>
<g><title>63 (position.label in template: 58.U)</title><text x="216.474" y="60.9081" class="green" >A</text></g>
<g><title>64 (position.label in template: 59.A)</title><text x="222.613" y="65.6224" class="green" >U</text></g>
<g><title>65 (position.label in template: 60.N)</title><text x="228.143" y="71.0608" class="green" >U</text></g>
<g><title>66 (position.label in template: 61.N)</title><text x="233.052" y="77.0601" class="green" >C</text></g>
<g><title>67 (position.label in template: 62.N)</title><text x="237.205" y="83.6051" class="green" >C</text></g>
<g><title>68 (position.label in template: 63.N)</title><text x="240.545" y="90.6006" class="green" >U</text></g>
<g><title>69 (position.label in template: 64.N)</title><text x="243.031" y="97.9439" class="green" >U</text></g>
<g><title>70 (position.label in template: 65.N)</title><text x="244.536" y="105.546" class="green" >A</text></g>
<g><title>71 (position.label in template: 66.R)</title><text x="245.253" y="113.272" class="green" >U</text></g>
<g><title>72 (position.label in template: 67.N)</title><text x="245.069" y="121.022" class="green" >A</text></g>
<g><title>73 (position.label in template: 68.A)</title><text x="243.86" y="128.682" class="green" >C</text></g>
<g><title>74 (position.label in template: 69.N)</title><text x="241.761" y="136.148" class="green" >C</text></g>
<g><title>75 (position.label in template: 70.Y)</title><text x="238.792" y="143.316" class="green" >U</text></g>
<g><title>76 (position.label in template: 71.N)</title><text x="234.95" y="150.054" class="green" >U</text></g>
<g><title>77 (position.label in template: 72.Y)</title><text x="230.227" y="156.21" class="green" >G</text></g>
<g><title>78 (position.label in template: 73.U)</title><text x="224.913" y="161.866" class="green" >A</text></g>
<g><title>79 (position.label in template: 74.U)</title><text x="218.703" y="166.517" class="green" >G</text></g>
<g><title>80 (position.label in template: 76.R)</title><text x="212.443" y="171.11" class="green" >U</text></g>
<g><line x1="210.595" y1="171.681" x2="203.281" y2="175.155" class="black" /></g>
<g><title>81 (position.label in template: 77.Y)</title><text x="215.753" y="178.01" class="green" >A</text></g>
<g><line x1="213.898" y1="178.566" x2="206.388" y2="182.06" class="black" /></g>
<g><title>82 (position.label in template: 78.Y)</title><text x="218.853" y="184.9" class="green" >U</text></g>
<g><line x1="216.976" y1="185.407" x2="209.15" y2="188.799" class="black" /></g>
<g><title>83 (position.label in template: 79.N)</title><text x="221.893" y="192.01" class="green" >U</text></g>
<g><line x1="220.027" y1="192.541" x2="212.6" y2="195.875" class="black" /></g>
<g><title>84 (position.label in template: 80.N)</title><text x="227.543" y="197.02" class="green" >G</text></g>
<g><title>85 (position.label in template: 81.N)</title><text x="227.543" y="204.58" class="green" >C</text></g>
<g><line x1="225.678" y1="205.112" x2="218.249" y2="208.454" class="black" /></g>
<g><title>86 (position.label in template: 82.U)</title><text x="230.493" y="211.27" class="green" >U</text></g>
<g><line x1="228.645" y1="211.841" x2="221.331" y2="215.315" class="black" /></g>
<g><title>87 (position.label in template: 83.N)</title><text x="233.743" y="218.38" class="green" >G</text></g>
<g><line x1="231.877" y1="218.911" x2="224.45" y2="222.245" class="black" /></g>
<g><title>88 (position.label in template: 84.R)</title><text x="240.663" y="220.84" class="green" >A</text></g>
<g><title>89 (position.label in template: 85.N)</title><text x="245.203" y="227.21" class="green" >A</text></g>
<g><title>90 (position.label in template: 86.Y)</title><text x="245.493" y="234.56" class="green" >U</text></g>
<g><title>91 (position.label in template: 87.N)</title><text x="241.423" y="241.17" class="green" >U</text></g>
<g><title>92 (position.label in template: 88.Y)</title><text x="234.583" y="244.06" class="green" >C</text></g>
<g><title>93 (position.label in template: 89.N)</title><text x="227.073" y="243.02" class="green" >A</text></g>
<g><title>94 (position.label in template: 90.N)</title><text x="221.573" y="237.83" class="green" >G</text></g>
<g><title>95 (position.label in template: 91.N)</title><text x="219.883" y="230.46" class="green" >U</text></g>
<g><title>96 (position.label in template: 92.N)</title><text x="222.583" y="223.39" class="green" >U</text></g>
<g><title>97 (position.label in template: 93.N)</title><text x="219.483" y="216.5" class="green" >U</text></g>
<g><title>98 (position.label in template: 94.N)</title><text x="216.383" y="209.6" class="green" >A</text></g>
<g><title>99 (position.label in template: 95.N)</title><text x="210.733" y="204.58" class="green" >G</text></g>
<g><title>100 (position.label in template: 96.N)</title><text x="210.733" y="197.02" class="green" >C</text></g>
<g><title>100 (inserted)</title><text x="204.014" y="198.606" class="numbering-label sequential" >100</text></g>
<g><line x1="208.941" y1="197.443" x2="206.775" y2="197.954" class="numbering-line sequential" /></g>
<g><title>101 (position.label in template: 97.G)</title><text x="207.273" y="189.92" class="green" >G</text></g>
<g><title>102 (position.label in template: 98.N)</title><text x="204.533" y="183.23" class="green" >U</text></g>
<g><title>103 (position.label in template: 99.N)</title><text x="201.433" y="176.34" class="green" >G</text></g>
<g><title>104 (position.label in template: 100.R)</title><text x="194.057" y="177.939" class="green" >C</text></g>
<g><title>105 (position.label in template: 101.N)</title><text x="186.673" y="179.5" class="green" >A</text></g>
<g><title>106 (position.label in template: 102.N)</title><text x="193.085" y="176.887" class="green" >U</text></g>
<g><title>107 (inserted)</title><text x="199.972" y="177.595" class="red" >G</text></g>
<g><title>108 (inserted)</title><text x="205.717" y="181.458" class="red" >C</text></g>
<g><title>109 (inserted)</title><text x="208.972" y="187.568" class="red" >U</text></g>
<g><title>110 (inserted)</title><text x="208.972" y="194.491" class="red" >C</text></g>
<g><title>111 (inserted)</title><text x="205.717" y="200.602" class="red" >U</text></g>
<g><title>112 (inserted)</title><text x="199.972" y="204.465" class="red" >U</text></g>
<g><title>113 (inserted)</title><text x="193.085" y="205.173" class="red" >G</text></g>
<g><title>114 (position.label in template: 103.N)</title><text x="186.673" y="202.559" class="green" >G</text></g>
<g><title>115 (position.label in template: 104.Y)</title><text x="186.733" y="209.909" class="green" >C</text></g>
<g><title>116 (position.label in template: 105.N)</title><text x="186.673" y="217.679" class="green" >U</text></g>
<g><title>117 (position.label in template: 106.R)</title><text x="186.523" y="225.029" class="green" >A</text></g>
<g><title>118 (position.label in template: 107.N)</title><text x="186.673" y="232.799" class="green" >U</text></g>
<g><title>119 (position.label in template: 108.R)</title><text x="191.873" y="237.939" class="green" >U</text></g>
<g><title>120 (position.label in template: 109.Y)</title><text x="199.633" y="237.939" class="green" >C</text></g>
<g><title>121 (position.label in template: 110.N)</title><text x="207.143" y="238.149" class="green" >U</text></g>
<g><title>122 (position.label in template: 111.N)</title><text x="214.703" y="238.149" class="green" >C</text></g>
<g><title>123 (inserted)</title><text x="219.867" y="232.618" class="red" >A</text></g>
<g><title>124 (position.label in template: 112.R)</title><text x="225.03" y="227.086" class="green" >U</text></g>
<g><line x1="227.076" y1="226.779" x2="235.225" y2="226.779" class="black" /></g>
<g><title>125 (position.label in template: 113.R)</title><text x="225.03" y="219.526" class="green" >A</text></g>
<g><line x1="227.076" y1="219.219" x2="235.435" y2="219.219" class="black" /></g>
<g><title>126 (position.label in template: 114.R)</title><text x="225.03" y="211.966" class="green" >G</text></g>
<g><line x1="227.076" y1="211.659" x2="235.435" y2="211.659" class="black" /></g>
<g><title>127 (position.label in template: 115.R)</title><text x="225.03" y="204.406" class="green" >U</text></g>
<g><line x1="227.076" y1="204.099" x2="235.435" y2="204.099" class="black" /></g>
<g><title>128 (position.label in template: 116.N)</title><text x="225.18" y="197.056" class="green" >G</text></g>
<g><line x1="227.226" y1="196.749" x2="235.375" y2="196.749" class="black" /></g>
<g><title>129 (position.label in template: 117.N)</title><text x="218.63" y="193.276" class="green" >A</text></g>
<g><title>130 (position.label in template: 118.N)</title><text x="225.18" y="189.496" class="green" >U</text></g>
<g><line x1="227.226" y1="189.189" x2="235.375" y2="189.189" class="black" /></g>
<g><title>131 (position.label in template: 119.Y)</title><text x="225.24" y="181.726" class="green" >U</text></g>
<g><line x1="227.286" y1="181.419" x2="235.225" y2="181.419" class="black" /></g>
<g><title>132 (position.label in template: 120.N)</title><text x="225.18" y="174.376" class="green" >G</text></g>
<g><line x1="227.226" y1="174.069" x2="235.375" y2="174.069" class="black" /></g>
<g><title>133 (position.label in template: 121.N)</title><text x="219.028" y="174.083" class="green" >U</text></g>
<g><title>134 (position.label in template: 122.N)</title><text x="216.034" y="168.701" class="green" >C</text></g>
<g><title>135 (inserted)</title><text x="219.028" y="163.319" class="red" >A</text></g>
<g><title>136 (position.label in template: 123.N)</title><text x="225.18" y="163.026" class="green" >A</text></g>
<g><line x1="227.226" y1="162.719" x2="235.375" y2="162.719" class="black" /></g>
<g><title>137 (position.label in template: 124.N)</title><text x="225.18" y="155.466" class="green" >A</text></g>
<g><line x1="227.226" y1="155.159" x2="235.375" y2="155.159" class="black" /></g>
<g><title>138 (position.label in template: 125.U)</title><text x="225.03" y="147.696" class="black" >U</text></g>
<g><line x1="227.076" y1="147.389" x2="235.435" y2="147.389" class="black" /></g>
<g><title>139 (position.label in template: 126.N)</title><text x="220.938" y="143.471" class="green" >U</text></g>
<g><title>140 (position.label in template: 127.N)</title><text x="225.163" y="139.379" class="green" >U</text></g>
<g><line x1="227.209" y1="139.072" x2="235.357" y2="139.072" class="black" /></g>
<g><title>141 (position.label in template: 128.G)</title><text x="224.803" y="131.609" class="black" >G</text></g>
<g><line x1="226.849" y1="131.302" x2="235.207" y2="131.302" class="black" /></g>
<g><title>142 (position.label in template: 129.N)</title><text x="225.163" y="124.259" class="green" >G</text></g>
<g><line x1="227.209" y1="123.952" x2="235.357" y2="123.952" class="black" /></g>
<g><title>143 (position.label in template: 130.N)</title><text x="225.163" y="116.699" class="green" >A</text></g>
<g><line x1="227.209" y1="116.392" x2="235.357" y2="116.392" class="black" /></g>
<g><title>144 (position.label in template: 131.A)</title><text x="225.223" y="108.929" class="green" >G</text></g>
<g><line x1="227.269" y1="108.622" x2="235.207" y2="108.622" class="black" /></g>
<g><title>145 (position.label in template: 132.N)</title><text x="220.099" y="104.241" class="green" >U</text></g>
<g><title>146 (position.label in template: 133.N)</title><text x="218.071" y="97.6001" class="green" >U</text></g>
<g><title>147 (position.label in template: 134.N)</title><text x="219.702" y="90.8503" class="green" >A</text></g>
<g><title>148 (position.label in template: 135.N)</title><text x="224.539" y="85.8679" class="green" >C</text></g>
<g><title>149 (position.label in template: 136.U)</title><text x="231.238" y="84.0375" class="blue" >U</text></g>
<g><title>150 (position.label in template: 137.A)</title><text x="237.936" y="85.8679" class="green" >U</text></g>
<g><title>150 (inserted)</title><text x="241.447" y="79.923" class="numbering-label sequential" >150</text></g>
<g><line x1="238.873" y1="84.2826" x2="240.541" y2="81.4573" class="numbering-line sequential" /></g>
<g><title>151 (position.label in template: 138.U)</title><text x="242.773" y="90.8503" class="green" >A</text></g>
<g><title>152 (position.label in template: 139.U)</title><text x="244.404" y="97.6001" class="blue" >U</text></g>
<g><title>153 (inserted)</title><text x="242.376" y="104.241" class="red" >U</text></g>
<g><title>154 (position.label in template: 140.U)</title><text x="237.253" y="108.929" class="green" >C</text></g>
<g><title>155 (position.label in template: 141.N)</title><text x="237.403" y="116.699" class="green" >G</text></g>
<g><title>156 (position.label in template: 142.N)</title><text x="237.403" y="124.259" class="green" >U</text></g>
<g><title>157 (position.label in template: 143.C)</title><text x="237.253" y="131.609" class="black" >C</text></g>
<g><title>158 (position.label in template: 144.N)</title><text x="237.403" y="139.379" class="green" >A</text></g>
<g><title>159 (position.label in template: 146.A)</title><text x="237.48" y="147.696" class="black" >A</text></g>
<g><title>160 (position.label in template: 147.N)</title><text x="237.42" y="155.466" class="green" >U</text></g>
<g><title>161 (position.label in template: 148.N)</title><text x="237.42" y="163.026" class="green" >U</text></g>
<g><title>162 (position.label in template: 149.N)</title><text x="237.42" y="174.376" class="green" >C</text></g>
<g><title>163 (position.label in template: 150.R)</title><text x="237.27" y="181.726" class="green" >A</text></g>
<g><title>164 (position.label in template: 151.N)</title><text x="237.42" y="189.496" class="green" >A</text></g>
<g><title>165 (position.label in template: 152.N)</title><text x="237.42" y="197.056" class="green" >U</text></g>
<g><title>166 (position.label in template: 153.Y)</title><text x="237.48" y="204.406" class="green" >A</text></g>
<g><title>167 (position.label in template: 154.Y)</title><text x="237.48" y="211.966" class="green" >U</text></g>
<g><title>168 (position.label in template: 155.Y)</title><text x="237.48" y="219.526" class="green" >U</text></g>
<g><title>169 (position.label in template: 156.U)</title><text x="237.27" y="227.086" class="green" >U</text></g>
<g><title>170 (position.label in template: 157.N)</title><text x="242.592" y="232.466" class="green" >A</text></g>
<g><title>171 (position.label in template: 158.Y)</title><text x="250.156" y="232.257" class="green" >U</text></g>
<g><title>172 (position.label in template: 159.Y)</title><text x="257.723" y="232.257" class="green" >G</text></g>
<g><title>173 (position.label in template: 160.U)</title><text x="265.29" y="232.257" class="green" >A</text></g>
<g><title>174 (position.label in template: 161.Y)</title><text x="272.857" y="232.257" class="green" >C</text></g>
<g><title>175 (position.label in template: 162.U)</title><text x="280.424" y="232.257" class="green" >G</text></g>
<g><title>176 (position.label in template: 166.3')</title><text x="287.992" y="232.257" class="green" >3'</text></g>
<g><line x1="139.188" y1="235.512" x2="142.663" y2="235.512" class="gray" /></g>
<g><line x1="146.755" y1="235.512" x2="150.23" y2="235.512" class="gray" /></g>
<g><line x1="154.322" y1="235.512" x2="157.798" y2="235.512" class="gray" /></g>
<g><line x1="161.888" y1="235.455" x2="165.363" y2="235.359" class="gray" /></g>
<g><line x1="169.307" y1="234.543" x2="172.534" y2="233.252" class="gray" /></g>
<g><line x1="174.449" y1="230.447" x2="174.478" y2="226.768" class="gray" /></g>
<g><line x1="174.477" y1="222.677" x2="174.45" y2="219.418" class="gray" /></g>
<g><line x1="174.339" y1="215.329" x2="174.168" y2="211.646" class="gray" /></g>
<g><line x1="174.173" y1="207.559" x2="174.333" y2="204.296" class="gray" /></g>
<g><line x1="174.425" y1="200.207" x2="174.396" y2="192.769" class="gray" /></g>
<g><line x1="174.396" y1="188.677" x2="174.425" y2="181.239" class="gray" /></g>
<g><line x1="172.419" y1="178.834" x2="168.827" y2="178.193" class="gray" /></g>
<g><line x1="164.841" y1="177.289" x2="161.495" y2="176.367" class="gray" /></g>
<g><line x1="157.629" y1="175.052" x2="154.418" y2="173.745" class="gray" /></g>
<g><line x1="150.744" y1="171.964" x2="147.883" y2="170.342" class="gray" /></g>
<g><line x1="144.42" y1="168.171" x2="141.427" y2="166.105" class="gray" /></g>
<g><line x1="138.228" y1="163.569" x2="135.658" y2="161.238" class="gray" /></g>
<g><line x1="132.791" y1="158.328" x2="130.666" y2="155.918" class="gray" /></g>
<g><line x1="128.156" y1="152.696" x2="126.051" y2="149.63" class="gray" /></g>
<g><line x1="123.939" y1="146.134" x2="122.318" y2="143.062" class="gray" /></g>
<g><line x1="119.452" y1="141.983" x2="116.284" y2="143.193" class="gray" /></g>
<g><line x1="112.418" y1="144.526" x2="109.028" y2="145.571" class="gray" /></g>
<g><line x1="105.539" y1="147.526" x2="103.895" y2="148.974" class="gray" /></g>
<g><line x1="100.447" y1="151.05" x2="98.3984" y2="151.825" class="gray" /></g>
<g><line x1="94.4392" y1="152.55" x2="92.2489" y2="152.551" class="gray" /></g>
<g><line x1="88.2696" y1="153.22" x2="84.9868" y2="154.354" class="gray" /></g>
<g><line x1="81.119" y1="155.689" x2="77.8473" y2="156.816" class="gray" /></g>
<g><line x1="73.9788" y1="158.148" x2="70.6976" y2="159.277" class="gray" /></g>
<g><line x1="67.4401" y1="161.503" x2="65.7808" y2="163.459" class="gray" /></g>
<g><line x1="62.44" y1="165.356" x2="59.9093" y2="165.779" class="gray" /></g>
<g><line x1="56.1334" y1="165.07" x2="53.9284" y2="163.758" class="gray" /></g>
<g><line x1="51.5034" y1="160.778" x2="50.6669" y2="158.353" class="gray" /></g>
<g><line x1="50.7397" y1="154.512" x2="51.6674" y2="152.12" class="gray" /></g>
<g><line x1="54.2037" y1="149.234" x2="56.4567" y2="148.007" class="gray" /></g>
<g><line x1="60.2568" y1="147.441" x2="62.7696" y2="147.959" class="gray" /></g>
<g><line x1="66.7076" y1="147.707" x2="69.9888" y2="146.578" class="gray" /></g>
<g><line x1="73.8568" y1="145.244" x2="77.1396" y2="144.11" class="gray" /></g>
<g><line x1="81.0073" y1="142.776" x2="84.279" y2="141.649" class="gray" /></g>
<g><line x1="87.7491" y1="139.631" x2="89.4488" y2="138.136" class="gray" /></g>
<g><line x1="92.9012" y1="136.069" x2="95.0218" y2="135.277" class="gray" /></g>
<g><line x1="98.9839" y1="134.575" x2="101.248" y2="134.59" class="gray" /></g>
<g><line x1="105.243" y1="133.984" x2="108.433" y2="132.972" class="gray" /></g>
<g><line x1="112.287" y1="131.605" x2="115.269" y2="130.432" class="gray" /></g>
<g><line x1="116.869" y1="127.66" x2="116.323" y2="124.029" class="gray" /></g>
<g><line x1="115.908" y1="119.964" x2="115.709" y2="116.3" class="gray" /></g>
<g><line x1="115.778" y1="112.22" x2="116.101" y2="108.564" class="gray" /></g>
<g><line x1="116.654" y1="104.515" x2="117.325" y2="100.909" class="gray" /></g>
<g><line x1="118.309" y1="96.9448" x2="119.402" y2="93.4426" class="gray" /></g>
<g><line x1="120.815" y1="89.6086" x2="122.252" y2="86.2456" class="gray" /></g>
<g><line x1="124.145" y1="82.6327" x2="126.098" y2="79.5277" class="gray" /></g>
<g><line x1="128.437" y1="76.1773" x2="130.68" y2="73.276" class="gray" /></g>
<g><line x1="133.353" y1="70.1867" x2="135.896" y2="67.556" class="gray" /></g>
<g><line x1="138.925" y1="64.8192" x2="141.801" y2="62.5528" class="gray" /></g>
<g><line x1="145.155" y1="60.2216" x2="148.281" y2="58.3151" class="gray" /></g>
<g><line x1="151.891" y1="56.4056" x2="155.224" y2="54.8953" class="gray" /></g>
<g><line x1="159.038" y1="53.437" x2="162.532" y2="52.3378" class="gray" /></g>
<g><line x1="166.492" y1="51.3345" x2="170.086" y2="50.6378" class="gray" /></g>
<g><line x1="174.135" y1="50.1019" x2="177.785" y2="49.8397" class="gray" /></g>
<g><line x1="181.868" y1="49.8154" x2="185.514" y2="50.0337" class="gray" /></g>
<g><line x1="189.572" y1="50.5053" x2="193.187" y2="51.132" class="gray" /></g>
<g><line x1="197.166" y1="52.0581" x2="200.662" y2="53.0854" class="gray" /></g>
<g><line x1="204.497" y1="54.4851" x2="207.855" y2="55.9606" class="gray" /></g>
<g><line x1="211.508" y1="57.7912" x2="214.693" y2="59.5937" class="gray" /></g>
<g><line x1="218.096" y1="61.8472" x2="220.99" y2="64.0696" class="gray" /></g>
<g><line x1="224.071" y1="66.7499" x2="226.684" y2="69.3196" class="gray" /></g>
<g><line x1="229.438" y1="72.3373" x2="231.756" y2="75.17" class="gray" /></g>
<g><line x1="234.148" y1="78.4805" x2="236.109" y2="81.5709" class="gray" /></g>
<g><line x1="238.086" y1="85.1443" x2="239.664" y2="88.4477" class="gray" /></g>
<g><line x1="241.201" y1="92.2314" x2="242.375" y2="95.6994" class="gray" /></g>
<g><line x1="243.429" y1="99.6438" x2="244.139" y2="103.232" class="gray" /></g>
<g><line x1="244.725" y1="107.276" x2="245.064" y2="110.928" class="gray" /></g>
<g><line x1="245.205" y1="115.01" x2="245.117" y2="118.67" class="gray" /></g>
<g><line x1="244.75" y1="122.736" x2="244.179" y2="126.354" class="gray" /></g>
<g><line x1="243.306" y1="130.344" x2="242.315" y2="133.872" class="gray" /></g>
<g><line x1="240.978" y1="137.731" x2="239.575" y2="141.119" class="gray" /></g>
<g><line x1="237.778" y1="144.786" x2="235.963" y2="147.97" class="gray" /></g>
<g><line x1="233.705" y1="151.37" x2="231.472" y2="154.28" class="gray" /></g>
<g><line x1="228.826" y1="157.394" x2="226.313" y2="160.069" class="gray" /></g>
<g><line x1="223.275" y1="162.786" x2="220.34" y2="164.984" class="gray" /></g>
<g><line x1="217.054" y1="167.42" x2="214.093" y2="169.593" class="gray" /></g>
<g><line x1="213.328" y1="172.648" x2="214.868" y2="175.859" class="gray" /></g>
<g><line x1="216.593" y1="179.569" x2="218.014" y2="182.728" class="gray" /></g>
<g><line x1="219.658" y1="186.474" x2="221.089" y2="189.822" class="gray" /></g>
<g><line x1="223.424" y1="193.06" x2="226.013" y2="195.356" class="gray" /></g>
<g><line x1="227.543" y1="198.759" x2="227.543" y2="202.227" class="gray" /></g>
<g><line x1="228.369" y1="206.145" x2="229.668" y2="209.091" class="gray" /></g>
<g><line x1="231.344" y1="212.824" x2="232.893" y2="216.213" class="gray" /></g>
<g><line x1="235.671" y1="218.758" x2="238.736" y2="219.848" class="gray" /></g>
<g><line x1="241.851" y1="222.199" x2="244.016" y2="225.237" class="gray" /></g>
<g><line x1="245.284" y1="228.947" x2="245.413" y2="232.209" class="gray" /></g>
<g><line x1="244.421" y1="235.995" x2="242.496" y2="239.121" class="gray" /></g>
<g><line x1="239.539" y1="241.659" x2="236.468" y2="242.957" class="gray" /></g>
<g><line x1="232.557" y1="243.473" x2="229.1" y2="242.994" class="gray" /></g>
<g><line x1="225.585" y1="241.309" x2="223.061" y2="238.927" class="gray" /></g>
<g><line x1="221.116" y1="235.529" x2="220.341" y2="232.147" class="gray" /></g>
<g><line x1="220.613" y1="228.242" x2="221.853" y2="224.994" class="gray" /></g>
<g><line x1="221.744" y1="221.218" x2="220.323" y2="218.059" class="gray" /></g>
<g><line x1="218.645" y1="214.327" x2="217.222" y2="211.159" class="gray" /></g>
<g><line x1="214.854" y1="207.934" x2="212.263" y2="205.632" class="gray" /></g>
<g><line x1="210.733" y1="202.227" x2="210.733" y2="198.759" class="gray" /></g>
<g><line x1="209.837" y1="194.874" x2="208.169" y2="191.452" class="gray" /></g>
<g><line x1="206.498" y1="187.72" x2="205.309" y2="184.816" class="gray" /></g>
<g><line x1="203.694" y1="181.058" x2="202.273" y2="177.899" class="gray" /></g>
<g><line x1="199.434" y1="176.466" x2="196.057" y2="177.199" class="gray" /></g>
<g><line x1="192.056" y1="178.055" x2="188.675" y2="178.77" class="gray" /></g>
<g><line x1="188.568" y1="178.421" x2="191.19" y2="177.352" class="gray" /></g>
<g><line x1="195.12" y1="176.789" x2="197.937" y2="177.079" class="gray" /></g>
<g><line x1="201.669" y1="178.429" x2="204.02" y2="180.009" class="gray" /></g>
<g><line x1="206.679" y1="182.956" x2="208.011" y2="185.456" class="gray" /></g>
<g><line x1="208.972" y1="189.307" x2="208.972" y2="192.139" class="gray" /></g>
<g><line x1="208.011" y1="195.99" x2="206.679" y2="198.49" class="gray" /></g>
<g><line x1="204.02" y1="201.436" x2="201.669" y2="203.016" class="gray" /></g>
<g><line x1="197.937" y1="204.367" x2="195.12" y2="204.657" class="gray" /></g>
<g><line x1="191.19" y1="204.094" x2="188.568" y2="203.025" class="gray" /></g>
<g><line x1="186.69" y1="204.298" x2="186.717" y2="207.557" class="gray" /></g>
<g><line x1="186.718" y1="211.648" x2="186.689" y2="215.327" class="gray" /></g>
<g><line x1="186.632" y1="219.418" x2="186.565" y2="222.677" class="gray" /></g>
<g><line x1="186.563" y1="226.768" x2="186.634" y2="230.447" class="gray" /></g>
<g><line x1="188.128" y1="233.931" x2="190.418" y2="236.194" class="gray" /></g>
<g><line x1="193.919" y1="237.633" x2="197.588" y2="237.633" class="gray" /></g>
<g><line x1="201.678" y1="237.69" x2="205.098" y2="237.785" class="gray" /></g>
<g><line x1="209.189" y1="237.843" x2="212.658" y2="237.843" class="gray" /></g>
<g><line x1="216.099" y1="236.347" x2="218.471" y2="233.806" class="gray" /></g>
<g><line x1="221.263" y1="230.816" x2="223.634" y2="228.275" class="gray" /></g>
<g><line x1="225.03" y1="224.734" x2="225.03" y2="221.265" class="gray" /></g>
<g><line x1="225.03" y1="217.174" x2="225.03" y2="213.705" class="gray" /></g>
<g><line x1="225.03" y1="209.614" x2="225.03" y2="206.145" class="gray" /></g>
<g><line x1="225.072" y1="202.054" x2="225.139" y2="198.795" class="gray" /></g>
<g><line x1="223.408" y1="195.727" x2="220.402" y2="193.992" class="gray" /></g>
<g><line x1="220.402" y1="191.947" x2="223.408" y2="190.212" class="gray" /></g>
<g><line x1="225.196" y1="187.144" x2="225.225" y2="183.465" class="gray" /></g>
<g><line x1="225.224" y1="179.374" x2="225.197" y2="176.115" class="gray" /></g>
<g><line x1="223.137" y1="173.972" x2="221.072" y2="173.874" class="gray" /></g>
<g><line x1="218.034" y1="171.988" x2="217.028" y2="170.182" class="gray" /></g>
<g><line x1="217.028" y1="166.606" x2="218.034" y2="164.8" class="gray" /></g>
<g><line x1="221.072" y1="162.915" x2="223.137" y2="162.816" class="gray" /></g>
<g><line x1="225.18" y1="160.673" x2="225.18" y2="157.204" class="gray" /></g>
<g><line x1="225.141" y1="153.113" x2="225.07" y2="149.434" class="gray" /></g>
<g><line x1="223.607" y1="145.919" x2="222.361" y2="144.633" class="gray" /></g>
<g><line x1="222.407" y1="141.741" x2="223.693" y2="140.495" class="gray" /></g>
<g><line x1="225.068" y1="137.028" x2="224.898" y2="133.345" class="gray" /></g>
<g><line x1="224.903" y1="129.258" x2="225.063" y2="125.995" class="gray" /></g>
<g><line x1="225.163" y1="121.906" x2="225.163" y2="118.437" class="gray" /></g>
<g><line x1="225.179" y1="114.346" x2="225.207" y2="110.667" class="gray" /></g>
<g><line x1="223.714" y1="107.241" x2="221.609" y2="105.315" class="gray" /></g>
<g><line x1="219.502" y1="101.978" x2="218.669" y2="99.2497" class="gray" /></g>
<g><line x1="218.552" y1="95.3047" x2="219.222" y2="92.5319" class="gray" /></g>
<g><line x1="221.127" y1="89.0756" x2="223.114" y2="87.0288" class="gray" /></g>
<g><line x1="226.513" y1="85.0218" x2="229.265" y2="84.2699" class="gray" /></g>
<g><line x1="233.211" y1="84.2699" x2="235.963" y2="85.0218" class="gray" /></g>
<g><line x1="239.361" y1="87.0288" x2="241.348" y2="89.0756" class="gray" /></g>
<g><line x1="243.254" y1="92.5319" x2="243.924" y2="95.3047" class="gray" /></g>
<g><line x1="243.807" y1="99.2497" x2="242.974" y2="101.978" class="gray" /></g>
<g><line x1="240.867" y1="105.315" x2="238.762" y2="107.241" class="gray" /></g>
<g><line x1="237.292" y1="110.667" x2="237.363" y2="114.346" class="gray" /></g>
<g><line x1="237.403" y1="118.437" x2="237.403" y2="121.906" class="gray" /></g>
<g><line x1="237.361" y1="125.997" x2="237.295" y2="129.256" class="gray" /></g>
<g><line x1="237.292" y1="133.347" x2="237.363" y2="137.026" class="gray" /></g>
<g><line x1="237.422" y1="141.117" x2="237.461" y2="145.343" class="gray" /></g>
<g><line x1="237.465" y1="149.434" x2="237.436" y2="153.113" class="gray" /></g>
<g><line x1="237.42" y1="157.204" x2="237.42" y2="160.673" class="gray" /></g>
<g><line x1="237.42" y1="164.764" x2="237.42" y2="172.024" class="gray" /></g>
<g><line x1="237.379" y1="176.115" x2="237.312" y2="179.374" class="gray" /></g>
<g><line x1="237.31" y1="183.465" x2="237.381" y2="187.144" class="gray" /></g>
<g><line x1="237.42" y1="191.235" x2="237.42" y2="194.704" class="gray" /></g>
<g><line x1="237.437" y1="198.795" x2="237.464" y2="202.054" class="gray" /></g>
<g><line x1="237.48" y1="206.145" x2="237.48" y2="209.614" class="gray" /></g>
<g><line x1="237.48" y1="213.705" x2="237.48" y2="217.174" class="gray" /></g>
<g><line x1="237.424" y1="221.264" x2="237.327" y2="224.734" class="gray" /></g>
<g><line x1="238.709" y1="228.234" x2="241.153" y2="230.705" class="gray" /></g>
<g><line x1="244.637" y1="232.103" x2="248.111" y2="232.007" class="gray" /></g>
<g><line x1="252.202" y1="231.95" x2="255.678" y2="231.95" class="gray" /></g>
<g><line x1="259.769" y1="231.95" x2="263.245" y2="231.95" class="gray" /></g>
<g><line x1="267.336" y1="231.95" x2="270.812" y2="231.95" class="gray" /></g>
<g><line x1="274.903" y1="231.95" x2="278.379" y2="231.95" class="gray" /></g>
<g><line x1="282.47" y1="231.95" x2="285.946" y2="231.95" class="gray" /></g>
</svg>
