<svg
	xmlns="http://www.w3.org/2000/svg"
	width="349.844"
	height="272.11"
	style="font-size: 3.045014px; font-weight: bold; font-family: Helvetica; " >
<g><style type="text/css" >
<!-- create color definitions -->
<![CDATA[
text.red {fill: rgb(255, 0, 255); }
text.green {fill: rgb(0, 255, 0); }
text.blue {fill: rgb(0, 0, 255); }
text.black {fill: rgb(0, 0, 0); }
text.gray {fill: rgb(204, 204, 204); }
text.brown {fill: rgb(211.65, 104.55, 30.6); }
text {fill: rgb(0, 0, 0); text-anchor: middle; alignment-baseline: middle; }
circle.red {stroke: rgb(255, 0, 255); fill: none; }
circle.green {stroke: rgb(0, 255, 0); fill: none; }
circle.blue {stroke: rgb(0, 0, 255); fill: none; }
circle.black {stroke: rgb(0, 0, 0); fill: none; }
circle.gray {stroke: rgb(204, 204, 204); fill: none; }
circle.brown {stroke: rgb(211.65, 104.55, 30.6); fill: none; }
circle {stroke: rgb(0, 0, 0); }
line.red {stroke: rgb(255, 0, 255); stroke-width: 0.380627; }
line.green {stroke: rgb(0, 255, 0); stroke-width: 0.380627; }
line.blue {stroke: rgb(0, 0, 255); stroke-width: 0.380627; }
line.black {stroke: rgb(0, 0, 0); stroke-width: 0.380627; }
line.gray {stroke: rgb(204, 204, 204); stroke-width: 0.380627; }
line.brown {stroke: rgb(211.65, 104.55, 30.6); stroke-width: 0.380627; }
line {stroke: rgb(0, 0, 0); }
text.numbering-label {fill: rgb(204, 204, 204);}
line.numbering-line {stroke: rgb(204, 204, 204); stroke-width: 0.190313;}
line.predicted {stroke: rgb(0, 0, 0); stroke-dasharray: 2}
text.background {fill: rgb(255, 255, 255);
.template {visibility:hidden}
]]>
</style></g>
<g><title>0 (position.label in template: 0.5')</title><text x="42.4426" y="222.004" class="green" >5'</text></g>
<g><title>1 (position.label in template: 1.U)</title><text x="50" y="222.004" class="black" >U</text></g>
<g><title>2 (position.label in template: 2.C)</title><text x="57.5574" y="222.004" class="black" >C</text></g>
<g><title>3 (position.label in template: 3.G)</title><text x="65.1149" y="222.004" class="black" >G</text></g>
<g><title>4 (position.label in template: 4.U)</title><text x="72.6723" y="222.004" class="black" >U</text></g>
<g><title>5 (position.label in template: 5.U)</title><text x="80.2298" y="222.004" class="black" >U</text></g>
<g><title>6 (position.label in template: 6.U)</title><text x="87.7872" y="222.004" class="black" >U</text></g>
<g><title>7 (position.label in template: 7.A)</title><text x="95.3447" y="222.004" class="black" >A</text></g>
<g><title>8 (position.label in template: 8.A)</title><text x="100.689" y="216.66" class="black" >A</text></g>
<g><line x1="102.719" y1="216.355" x2="110.689" y2="216.355" class="black" /></g>
<g><title>9 (position.label in template: 9.U)</title><text x="100.479" y="209.1" class="black" >U</text></g>
<g><line x1="102.509" y1="208.795" x2="110.479" y2="208.795" class="black" /></g>
<g><title>10 (position.label in template: 10.C)</title><text x="100.479" y="201.54" class="black" >C</text></g>
<g><line x1="102.509" y1="201.235" x2="110.479" y2="201.235" class="black" /></g>
<g><title>10 (inserted)</title><text x="93.628" y="201.445" class="numbering-label sequential" >10</text></g>
<g><line x1="98.6517" y1="201.515" x2="95.455" y2="201.47" class="numbering-line sequential" /></g>
<g><title>11 (position.label in template: 11.A)</title><text x="100.689" y="193.98" class="black" >A</text></g>
<g><line x1="102.719" y1="193.675" x2="110.689" y2="193.675" class="black" /></g>
<g><title>12 (position.label in template: 12.U)</title><text x="95.7686" y="188.07" class="black" >U</text></g>
<g><title>13 (position.label in template: 13.U)</title><text x="95.7686" y="180.51" class="black" >U</text></g>
<g><title>14 (position.label in template: 14.G)</title><text x="100.269" y="174.59" class="black" >G</text></g>
<g><line x1="102.299" y1="174.285" x2="110.689" y2="174.285" class="black" /></g>
<g><title>15 (position.label in template: 15.A)</title><text x="100.689" y="167.03" class="black" >A</text></g>
<g><line x1="102.719" y1="166.725" x2="110.689" y2="166.725" class="black" /></g>
<g><title>16 (position.label in template: 16.U)</title><text x="100.479" y="159.47" class="black" >U</text></g>
<g><line x1="102.509" y1="159.165" x2="110.899" y2="159.165" class="black" /></g>
<g><title>17 (position.label in template: 17.G)</title><text x="100.269" y="151.91" class="black" >G</text></g>
<g><line x1="102.299" y1="151.605" x2="110.689" y2="151.605" class="black" /></g>
<g><title>18 (position.label in template: 18.A)</title><text x="100.689" y="144.35" class="black" >A</text></g>
<g><line x1="102.719" y1="144.045" x2="110.689" y2="144.045" class="black" /></g>
<g><title>19 (position.label in template: 19.U)</title><text x="95.7686" y="138.43" class="black" >U</text></g>
<g><title>20 (position.label in template: 20.A)</title><text x="95.9786" y="130.87" class="black" >A</text></g>
<g><title>20 (inserted)</title><text x="89.4803" y="128.699" class="numbering-label sequential" >20</text></g>
<g><line x1="94.2457" y1="130.291" x2="91.3073" y2="129.309" class="numbering-line sequential" /></g>
<g><title>21 (position.label in template: 21.G)</title><text x="100.269" y="124.96" class="black" >G</text></g>
<g><line x1="102.299" y1="124.655" x2="110.689" y2="124.655" class="black" /></g>
<g><title>22 (position.label in template: 22.A)</title><text x="100.689" y="117.4" class="black" >A</text></g>
<g><line x1="102.719" y1="117.095" x2="110.689" y2="117.095" class="black" /></g>
<g><title>23 (position.label in template: 23.Y)</title><text x="100.689" y="109.84" class="green" >C</text></g>
<g><line x1="102.718" y1="109.569" x2="110.839" y2="109.702" class="black" /></g>
<g><title>24 (position.label in template: 24.U)</title><text x="93.9586" y="106.01" class="black" >U</text></g>
<g><title>25 (position.label in template: 25.A)</title><text x="89.6486" y="99.95" class="black" >A</text></g>
<g><title>26 (position.label in template: 26.A)</title><text x="87.8786" y="92.6" class="black" >A</text></g>
<g><title>27 (position.label in template: 27.G)</title><text x="88.6986" y="85.14" class="black" >G</text></g>
<g><title>28 (position.label in template: 28.A)</title><text x="93.1686" y="78.76" class="black" >A</text></g>
<g><title>29 (position.label in template: 29.A)</title><text x="99.3986" y="74.48" class="black" >A</text></g>
<g><title>30 (position.label in template: 30.A)</title><text x="106.809" y="72.97" class="black" >A</text></g>
<g><title>30 (inserted)</title><text x="106.901" y="66.1193" class="numbering-label sequential" >30</text></g>
<g><line x1="106.833" y1="71.1432" x2="106.881" y2="67.6419" class="numbering-line sequential" /></g>
<g><title>31 (position.label in template: 31.N)</title><text x="114.159" y="74.68" class="green" >A</text></g>
<g><title>32 (position.label in template: 32.U)</title><text x="120.239" y="78.76" class="black" >U</text></g>
<g><title>33 (position.label in template: 33.N)</title><text x="124.439" y="85.35" class="green" >U</text></g>
<g><title>34 (position.label in template: 34.R)</title><text x="125.529" y="92.6" class="green" >A</text></g>
<g><title>35 (position.label in template: 35.G)</title><text x="123.539" y="99.95" class="black" >G</text></g>
<g><title>36 (position.label in template: 36.G)</title><text x="119.029" y="106.01" class="black" >G</text></g>
<g><title>37 (position.label in template: 37.N)</title><text x="112.869" y="110.04" class="green" >G</text></g>
<g><title>38 (position.label in template: 38.U)</title><text x="112.719" y="117.4" class="black" >U</text></g>
<g><title>39 (position.label in template: 39.U)</title><text x="112.719" y="124.96" class="black" >U</text></g>
<g><title>40 (position.label in template: 40.U)</title><text x="117.429" y="130.87" class="black" >U</text></g>
<g><title>41 (position.label in template: 41.U)</title><text x="117.429" y="138.43" class="black" >U</text></g>
<g><title>42 (position.label in template: 42.U)</title><text x="112.719" y="144.35" class="black" >U</text></g>
<g><title>43 (position.label in template: 43.U)</title><text x="112.719" y="151.91" class="black" >U</text></g>
<g><title>44 (position.label in template: 44.A)</title><text x="112.929" y="159.47" class="black" >A</text></g>
<g><title>45 (position.label in template: 45.U)</title><text x="112.719" y="167.03" class="black" >U</text></g>
<g><title>46 (position.label in template: 46.U)</title><text x="112.719" y="174.59" class="black" >U</text></g>
<g><title>47 (position.label in template: 47.U)</title><text x="117.429" y="180.51" class="black" >U</text></g>
<g><title>48 (position.label in template: 48.U)</title><text x="117.429" y="188.07" class="black" >U</text></g>
<g><title>49 (position.label in template: 49.U)</title><text x="112.719" y="193.98" class="black" >U</text></g>
<g><title>50 (position.label in template: 50.G)</title><text x="112.509" y="201.54" class="black" >G</text></g>
<g><title>50 (inserted)</title><text x="119.359" y="201.635" class="numbering-label sequential" >50</text></g>
<g><line x1="114.335" y1="201.565" x2="117.532" y2="201.61" class="numbering-line sequential" /></g>
<g><title>51 (position.label in template: 51.G)</title><text x="112.509" y="209.1" class="black" >G</text></g>
<g><title>52 (position.label in template: 52.U)</title><text x="112.719" y="216.66" class="black" >U</text></g>
<g><title>53 (position.label in template: 53.U)</title><text x="118.069" y="222.01" class="black" >U</text></g>
<g><title>54 (position.label in template: 54.U)</title><text x="125.629" y="222.01" class="black" >U</text></g>
<g><title>55 (position.label in template: 55.U)</title><text x="133.189" y="222.01" class="black" >U</text></g>
<g><title>56 (position.label in template: 56.U)</title><text x="140.749" y="222.01" class="black" >U</text></g>
<g><title>57 (position.label in template: 57.G)</title><text x="148.099" y="222.01" class="black" >G</text></g>
<g><title>58 (position.label in template: 58.A)</title><text x="156.069" y="222.01" class="black" >A</text></g>
<g><title>59 (position.label in template: 59.U)</title><text x="163.429" y="222.01" class="black" >U</text></g>
<g><title>60 (position.label in template: 60.A)</title><text x="171.189" y="222.01" class="black" >A</text></g>
<g><title>61 (position.label in template: 61.A)</title><text x="178.749" y="222.01" class="black" >A</text></g>
<g><title>62 (position.label in template: 62.A)</title><text x="186.309" y="222.01" class="black" >A</text></g>
<g><title>63 (position.label in template: 63.G)</title><text x="193.459" y="222.01" class="black" >G</text></g>
<g><title>64 (position.label in template: 64.A)</title><text x="201.429" y="222.01" class="black" >A</text></g>
<g><title>65 (position.label in template: 65.G)</title><text x="208.579" y="222.01" class="black" >G</text></g>
<g><title>66 (position.label in template: 66.A)</title><text x="216.549" y="222.01" class="black" >A</text></g>
<g><title>67 (position.label in template: 67.A)</title><text x="224.109" y="222.01" class="black" >A</text></g>
<g><title>68 (position.label in template: 68.A)</title><text x="231.669" y="222.01" class="black" >A</text></g>
<g><title>69 (position.label in template: 69.G)</title><text x="238.819" y="222.01" class="black" >G</text></g>
<g><title>70 (position.label in template: 70.A)</title><text x="246.789" y="222.01" class="black" >A</text></g>
<g><title>71 (position.label in template: 71.U)</title><text x="251.929" y="216.66" class="black" >U</text></g>
<g><line x1="253.959" y1="216.355" x2="262.349" y2="216.355" class="black" /></g>
<g><title>72 (position.label in template: 72.G)</title><text x="251.719" y="209.1" class="black" >G</text></g>
<g><line x1="253.749" y1="208.795" x2="262.139" y2="208.795" class="black" /></g>
<g><title>73 (position.label in template: 73.C)</title><text x="251.929" y="201.54" class="black" >C</text></g>
<g><line x1="253.959" y1="201.235" x2="261.929" y2="201.235" class="black" /></g>
<g><title>74 (position.label in template: 74.C)</title><text x="251.929" y="193.98" class="black" >C</text></g>
<g><line x1="253.959" y1="193.675" x2="261.929" y2="193.675" class="black" /></g>
<g><title>75 (position.label in template: 75.U)</title><text x="251.929" y="186.42" class="black" >U</text></g>
<g><line x1="253.959" y1="186.115" x2="262.349" y2="186.115" class="black" /></g>
<g><title>76 (position.label in template: 76.C)</title><text x="251.929" y="178.86" class="black" >C</text></g>
<g><line x1="253.959" y1="178.555" x2="261.929" y2="178.555" class="black" /></g>
<g><title>77 (position.label in template: 77.U)</title><text x="251.929" y="171.3" class="black" >U</text></g>
<g><line x1="253.959" y1="170.995" x2="261.929" y2="170.995" class="black" /></g>
<g><title>78 (position.label in template: 78.U)</title><text x="245.219" y="167.82" class="black" >U</text></g>
<g><title>79 (position.label in template: 79.C)</title><text x="240.199" y="162.17" class="black" >C</text></g>
<g><title>80 (position.label in template: 80.U)</title><text x="237.509" y="155.11" class="black" >U</text></g>
<g><title>81 (position.label in template: 81.U)</title><text x="237.509" y="147.55" class="black" >U</text></g>
<g><title>82 (position.label in template: 82.U)</title><text x="240.199" y="140.48" class="black" >U</text></g>
<g><title>83 (position.label in template: 83.C)</title><text x="245.219" y="134.84" class="black" >C</text></g>
<g><title>84 (position.label in template: 84.A)</title><text x="252.139" y="131.35" class="black" >A</text></g>
<g><line x1="254.169" y1="131.045" x2="262.139" y2="131.045" class="black" /></g>
<g><title>85 (position.label in template: 85.G)</title><text x="251.719" y="123.79" class="black" >G</text></g>
<g><line x1="253.749" y1="123.485" x2="262.139" y2="123.485" class="black" /></g>
<g><title>86 (position.label in template: 86.C)</title><text x="251.929" y="116.23" class="black" >C</text></g>
<g><line x1="253.959" y1="115.925" x2="261.929" y2="115.925" class="black" /></g>
<g><title>87 (position.label in template: 87.A)</title><text x="252.139" y="108.67" class="black" >A</text></g>
<g><line x1="254.169" y1="108.365" x2="262.139" y2="108.365" class="black" /></g>
<g><title>88 (position.label in template: 88.G)</title><text x="251.719" y="101.11" class="black" >G</text></g>
<g><line x1="253.749" y1="100.805" x2="262.139" y2="100.805" class="black" /></g>
<g><title>89 (position.label in template: 89.C)</title><text x="251.929" y="93.55" class="black" >C</text></g>
<g><line x1="253.959" y1="93.2455" x2="261.929" y2="93.2455" class="black" /></g>
<g><title>90 (position.label in template: 90.A)</title><text x="252.139" y="85.99" class="black" >A</text></g>
<g><line x1="254.169" y1="85.6855" x2="262.139" y2="85.6855" class="black" /></g>
<g><title>91 (position.label in template: 91.A)</title><text x="252.139" y="78.43" class="black" >A</text></g>
<g><line x1="254.169" y1="78.1255" x2="262.139" y2="78.1255" class="black" /></g>
<g><title>92 (position.label in template: 92.G)</title><text x="251.719" y="70.87" class="black" >G</text></g>
<g><line x1="253.749" y1="70.5655" x2="262.139" y2="70.5655" class="black" /></g>
<g><title>93 (position.label in template: 93.A)</title><text x="252.139" y="63.31" class="black" >A</text></g>
<g><line x1="254.169" y1="63.0055" x2="262.139" y2="63.0055" class="black" /></g>
<g><title>94 (position.label in template: 94.U)</title><text x="249.759" y="56.07" class="black" >U</text></g>
<g><title>95 (position.label in template: 95.U)</title><text x="254.269" y="50" class="black" >U</text></g>
<g><title>96 (position.label in template: 96.A)</title><text x="262.039" y="50" class="black" >A</text></g>
<g><title>97 (position.label in template: 97.U)</title><text x="266.349" y="56.07" class="black" >U</text></g>
<g><title>98 (position.label in template: 98.U)</title><text x="264.169" y="63.31" class="black" >U</text></g>
<g><title>99 (position.label in template: 99.C)</title><text x="264.169" y="70.87" class="black" >C</text></g>
<g><title>100 (position.label in template: 100.U)</title><text x="264.169" y="78.43" class="black" >U</text></g>
<g><title>100 (inserted)</title><text x="271.02" y="78.43" class="numbering-label sequential" >100</text></g>
<g><line x1="265.996" y1="78.43" x2="268.279" y2="78.43" class="numbering-line sequential" /></g>
<g><title>101 (position.label in template: 101.U)</title><text x="264.169" y="85.99" class="black" >U</text></g>
<g><title>102 (position.label in template: 102.G)</title><text x="263.959" y="93.55" class="black" >G</text></g>
<g><title>103 (position.label in template: 103.U)</title><text x="264.169" y="101.11" class="black" >U</text></g>
<g><title>104 (position.label in template: 104.U)</title><text x="264.169" y="108.67" class="black" >U</text></g>
<g><title>105 (position.label in template: 105.A)</title><text x="270.929" y="112.45" class="black" >A</text></g>
<g><title>106 (position.label in template: 106.G)</title><text x="263.959" y="116.23" class="black" >G</text></g>
<g><title>107 (position.label in template: 107.C)</title><text x="264.169" y="123.79" class="black" >C</text></g>
<g><title>108 (position.label in template: 108.U)</title><text x="264.169" y="131.35" class="black" >U</text></g>
<g><title>109 (position.label in template: 109.U)</title><text x="271.519" y="133.15" class="black" >U</text></g>
<g><title>110 (position.label in template: 110.U)</title><text x="277.669" y="137.54" class="black" >U</text></g>
<g><title>111 (position.label in template: 111.G)</title><text x="281.539" y="143.9" class="black" >G</text></g>
<g><title>112 (position.label in template: 112.U)</title><text x="283.179" y="151.33" class="black" >U</text></g>
<g><title>113 (position.label in template: 113.U)</title><text x="281.749" y="158.75" class="black" >U</text></g>
<g><title>114 (position.label in template: 114.C)</title><text x="277.669" y="165.11" class="black" >C</text></g>
<g><title>115 (position.label in template: 115.U)</title><text x="271.519" y="169.51" class="black" >U</text></g>
<g><title>116 (position.label in template: 116.G)</title><text x="263.959" y="171.3" class="black" >G</text></g>
<g><title>117 (position.label in template: 117.G)</title><text x="263.959" y="178.86" class="black" >G</text></g>
<g><title>118 (position.label in template: 118.A)</title><text x="264.379" y="186.42" class="black" >A</text></g>
<g><title>119 (position.label in template: 119.G)</title><text x="263.959" y="193.98" class="black" >G</text></g>
<g><title>120 (position.label in template: 120.G)</title><text x="263.959" y="201.54" class="black" >G</text></g>
<g><title>121 (position.label in template: 121.C)</title><text x="264.169" y="209.1" class="black" >C</text></g>
<g><title>122 (position.label in template: 122.A)</title><text x="264.379" y="216.66" class="black" >A</text></g>
<g><title>123 (position.label in template: 123.C)</title><text x="269.614" y="222.11" class="black" >C</text></g>
<g><title>124 (position.label in template: 124.A)</title><text x="277.172" y="222.11" class="black" >A</text></g>
<g><title>125 (position.label in template: 125.G)</title><text x="284.729" y="222.11" class="black" >G</text></g>
<g><title>126 (position.label in template: 126.A)</title><text x="292.287" y="222.11" class="black" >A</text></g>
<g><title>127 (position.label in template: 127.U)</title><text x="299.844" y="222.11" class="black" >U</text></g>
<g><title>128 (position.label in template: 128.3')</title><text x="307.402" y="222.11" class="green" >3'</text></g>
<g><line x1="44.4726" y1="221.699" x2="47.97" y2="221.699" class="gray" /></g>
<g><line x1="52.03" y1="221.699" x2="55.5274" y2="221.699" class="gray" /></g>
<g><line x1="59.5875" y1="221.699" x2="63.0849" y2="221.699" class="gray" /></g>
<g><line x1="67.1449" y1="221.699" x2="70.6423" y2="221.699" class="gray" /></g>
<g><line x1="74.7023" y1="221.699" x2="78.1998" y2="221.699" class="gray" /></g>
<g><line x1="82.2598" y1="221.699" x2="85.7572" y2="221.699" class="gray" /></g>
<g><line x1="89.8172" y1="221.699" x2="93.3147" y2="221.699" class="gray" /></g>
<g><line x1="96.7801" y1="220.264" x2="99.2531" y2="217.791" class="gray" /></g>
<g><line x1="100.632" y1="214.326" x2="100.535" y2="210.825" class="gray" /></g>
<g><line x1="100.479" y1="206.765" x2="100.479" y2="203.266" class="gray" /></g>
<g><line x1="100.535" y1="199.206" x2="100.632" y2="195.705" class="gray" /></g>
<g><line x1="99.3898" y1="192.115" x2="97.0674" y2="189.326" class="gray" /></g>
<g><line x1="95.7686" y1="185.735" x2="95.7686" y2="182.236" class="gray" /></g>
<g><line x1="96.997" y1="178.589" x2="99.0401" y2="175.902" class="gray" /></g>
<g><line x1="100.381" y1="172.259" x2="100.576" y2="168.752" class="gray" /></g>
<g><line x1="100.632" y1="164.696" x2="100.535" y2="161.195" class="gray" /></g>
<g><line x1="100.422" y1="157.136" x2="100.325" y2="153.635" class="gray" /></g>
<g><line x1="100.381" y1="149.579" x2="100.576" y2="146.072" class="gray" /></g>
<g><line x1="99.3911" y1="142.484" x2="97.0661" y2="139.687" class="gray" /></g>
<g><line x1="95.8249" y1="136.096" x2="95.9222" y2="132.595" class="gray" /></g>
<g><line x1="97.1711" y1="128.923" x2="99.0761" y2="126.298" class="gray" /></g>
<g><line x1="100.381" y1="122.629" x2="100.576" y2="119.122" class="gray" /></g>
<g><line x1="100.689" y1="115.065" x2="100.689" y2="111.566" class="gray" /></g>
<g><line x1="98.9243" y1="108.531" x2="95.7229" y2="106.71" class="gray" /></g>
<g><line x1="92.782" y1="104.051" x2="90.8251" y2="101.3" class="gray" /></g>
<g><line x1="89.1733" y1="97.6719" x2="88.3539" y2="94.2691" class="gray" /></g>
<g><line x1="88.1004" y1="90.2776" x2="88.4768" y2="86.8534" class="gray" /></g>
<g><line x1="89.8634" y1="83.1729" x2="92.0037" y2="80.1181" class="gray" /></g>
<g><line x1="94.8418" y1="77.306" x2="97.7254" y2="75.325" class="gray" /></g>
<g><line x1="101.388" y1="73.7702" x2="104.819" y2="73.0708" class="gray" /></g>
<g><line x1="108.786" y1="73.1255" x2="112.181" y2="73.9155" class="gray" /></g>
<g><line x1="115.844" y1="75.5067" x2="118.553" y2="77.3243" class="gray" /></g>
<g><line x1="121.33" y1="80.1674" x2="123.348" y2="83.3336" class="gray" /></g>
<g><line x1="124.74" y1="87.0529" x2="125.227" y2="90.2881" class="gray" /></g>
<g><line x1="124.998" y1="94.255" x2="124.069" y2="97.686" class="gray" /></g>
<g><line x1="122.327" y1="101.274" x2="120.241" y2="104.077" class="gray" /></g>
<g><line x1="117.33" y1="106.817" x2="114.567" y2="108.624" class="gray" /></g>
<g><line x1="112.827" y1="111.765" x2="112.76" y2="115.066" class="gray" /></g>
<g><line x1="112.719" y1="119.126" x2="112.719" y2="122.625" class="gray" /></g>
<g><line x1="113.984" y1="126.243" x2="116.163" y2="128.978" class="gray" /></g>
<g><line x1="117.429" y1="132.596" x2="117.429" y2="136.095" class="gray" /></g>
<g><line x1="116.165" y1="139.714" x2="113.982" y2="142.457" class="gray" /></g>
<g><line x1="112.719" y1="146.076" x2="112.719" y2="149.575" class="gray" /></g>
<g><line x1="112.775" y1="153.635" x2="112.872" y2="157.136" class="gray" /></g>
<g><line x1="112.872" y1="161.195" x2="112.775" y2="164.696" class="gray" /></g>
<g><line x1="112.719" y1="168.756" x2="112.719" y2="172.255" class="gray" /></g>
<g><line x1="113.982" y1="175.874" x2="116.165" y2="178.617" class="gray" /></g>
<g><line x1="117.429" y1="182.236" x2="117.429" y2="185.735" class="gray" /></g>
<g><line x1="116.163" y1="189.353" x2="113.984" y2="192.088" class="gray" /></g>
<g><line x1="112.662" y1="195.705" x2="112.565" y2="199.206" class="gray" /></g>
<g><line x1="112.509" y1="203.266" x2="112.509" y2="206.765" class="gray" /></g>
<g><line x1="112.565" y1="210.825" x2="112.662" y2="214.326" class="gray" /></g>
<g><line x1="114.154" y1="217.791" x2="116.633" y2="220.27" class="gray" /></g>
<g><line x1="120.099" y1="221.705" x2="123.599" y2="221.705" class="gray" /></g>
<g><line x1="127.659" y1="221.705" x2="131.159" y2="221.705" class="gray" /></g>
<g><line x1="135.219" y1="221.705" x2="138.719" y2="221.705" class="gray" /></g>
<g><line x1="142.779" y1="221.705" x2="146.069" y2="221.705" class="gray" /></g>
<g><line x1="150.129" y1="221.705" x2="154.039" y2="221.705" class="gray" /></g>
<g><line x1="158.099" y1="221.705" x2="161.399" y2="221.705" class="gray" /></g>
<g><line x1="165.459" y1="221.705" x2="169.159" y2="221.705" class="gray" /></g>
<g><line x1="173.219" y1="221.705" x2="176.719" y2="221.705" class="gray" /></g>
<g><line x1="180.779" y1="221.705" x2="184.279" y2="221.705" class="gray" /></g>
<g><line x1="188.339" y1="221.705" x2="191.429" y2="221.705" class="gray" /></g>
<g><line x1="195.489" y1="221.705" x2="199.399" y2="221.705" class="gray" /></g>
<g><line x1="203.459" y1="221.705" x2="206.549" y2="221.705" class="gray" /></g>
<g><line x1="210.609" y1="221.705" x2="214.519" y2="221.705" class="gray" /></g>
<g><line x1="218.579" y1="221.705" x2="222.079" y2="221.705" class="gray" /></g>
<g><line x1="226.139" y1="221.705" x2="229.639" y2="221.705" class="gray" /></g>
<g><line x1="233.699" y1="221.705" x2="236.789" y2="221.705" class="gray" /></g>
<g><line x1="240.849" y1="221.705" x2="244.759" y2="221.705" class="gray" /></g>
<g><line x1="248.195" y1="220.242" x2="250.522" y2="217.819" class="gray" /></g>
<g><line x1="251.872" y1="214.326" x2="251.775" y2="210.825" class="gray" /></g>
<g><line x1="251.775" y1="206.766" x2="251.872" y2="203.265" class="gray" /></g>
<g><line x1="251.929" y1="199.205" x2="251.929" y2="195.706" class="gray" /></g>
<g><line x1="251.929" y1="191.645" x2="251.929" y2="188.146" class="gray" /></g>
<g><line x1="251.929" y1="184.085" x2="251.929" y2="180.586" class="gray" /></g>
<g><line x1="251.929" y1="176.525" x2="251.929" y2="173.026" class="gray" /></g>
<g><line x1="250.127" y1="170.061" x2="247.021" y2="168.45" class="gray" /></g>
<g><line x1="243.87" y1="165.998" x2="241.547" y2="163.383" class="gray" /></g>
<g><line x1="239.476" y1="159.969" x2="238.231" y2="156.702" class="gray" /></g>
<g><line x1="237.509" y1="152.775" x2="237.509" y2="149.276" class="gray" /></g>
<g><line x1="238.23" y1="145.348" x2="239.477" y2="142.073" class="gray" /></g>
<g><line x1="241.548" y1="138.659" x2="243.869" y2="136.052" class="gray" /></g>
<g><line x1="247.031" y1="133.621" x2="250.326" y2="131.96" class="gray" /></g>
<g><line x1="252.026" y1="129.019" x2="251.831" y2="125.512" class="gray" /></g>
<g><line x1="251.775" y1="121.456" x2="251.872" y2="117.955" class="gray" /></g>
<g><line x1="251.985" y1="113.896" x2="252.082" y2="110.395" class="gray" /></g>
<g><line x1="252.026" y1="106.339" x2="251.831" y2="102.832" class="gray" /></g>
<g><line x1="251.775" y1="98.7763" x2="251.872" y2="95.2747" class="gray" /></g>
<g><line x1="251.985" y1="91.2163" x2="252.082" y2="87.7147" class="gray" /></g>
<g><line x1="252.139" y1="83.6555" x2="252.139" y2="80.1555" class="gray" /></g>
<g><line x1="252.026" y1="76.0986" x2="251.831" y2="72.5924" class="gray" /></g>
<g><line x1="251.831" y1="68.5386" x2="252.026" y2="65.0324" class="gray" /></g>
<g><line x1="251.505" y1="61.077" x2="250.393" y2="57.694" class="gray" /></g>
<g><line x1="250.969" y1="54.136" x2="253.058" y2="51.325" class="gray" /></g>
<g><line x1="256.299" y1="49.6955" x2="260.009" y2="49.6955" class="gray" /></g>
<g><line x1="263.214" y1="51.3507" x2="265.173" y2="54.1103" class="gray" /></g>
<g><line x1="265.763" y1="57.7093" x2="264.754" y2="61.0617" class="gray" /></g>
<g><line x1="264.169" y1="65.0355" x2="264.169" y2="68.5355" class="gray" /></g>
<g><line x1="264.169" y1="72.5955" x2="264.169" y2="76.0955" class="gray" /></g>
<g><line x1="264.169" y1="80.1555" x2="264.169" y2="83.6555" class="gray" /></g>
<g><line x1="264.112" y1="87.7147" x2="264.015" y2="91.2163" class="gray" /></g>
<g><line x1="264.015" y1="95.2747" x2="264.112" y2="98.7763" class="gray" /></g>
<g><line x1="264.169" y1="102.836" x2="264.169" y2="106.335" class="gray" /></g>
<g><line x1="265.94" y1="109.356" x2="269.157" y2="111.155" class="gray" /></g>
<g><line x1="269.144" y1="113.113" x2="265.743" y2="114.958" class="gray" /></g>
<g><line x1="264.015" y1="117.955" x2="264.112" y2="121.456" class="gray" /></g>
<g><line x1="264.169" y1="125.516" x2="264.169" y2="129.015" class="gray" /></g>
<g><line x1="266.14" y1="131.528" x2="269.547" y2="132.363" class="gray" /></g>
<g><line x1="273.171" y1="134.025" x2="276.016" y2="136.056" class="gray" /></g>
<g><line x1="278.724" y1="138.97" x2="280.483" y2="141.861" class="gray" /></g>
<g><line x1="281.976" y1="145.578" x2="282.741" y2="149.043" class="gray" /></g>
<g><line x1="282.794" y1="153.019" x2="282.133" y2="156.452" class="gray" /></g>
<g><line x1="280.652" y1="160.154" x2="278.765" y2="163.097" class="gray" /></g>
<g><line x1="276.018" y1="165.987" x2="273.17" y2="168.024" class="gray" /></g>
<g><line x1="269.543" y1="169.673" x2="265.934" y2="170.528" class="gray" /></g>
<g><line x1="263.959" y1="173.026" x2="263.959" y2="176.525" class="gray" /></g>
<g><line x1="264.071" y1="180.582" x2="264.266" y2="184.089" class="gray" /></g>
<g><line x1="264.266" y1="188.142" x2="264.071" y2="191.649" class="gray" /></g>
<g><line x1="263.959" y1="195.706" x2="263.959" y2="199.205" class="gray" /></g>
<g><line x1="264.015" y1="203.265" x2="264.112" y2="206.766" class="gray" /></g>
<g><line x1="264.225" y1="210.825" x2="264.322" y2="214.326" class="gray" /></g>
<g><line x1="265.785" y1="217.819" x2="268.208" y2="220.341" class="gray" /></g>
<g><line x1="271.644" y1="221.805" x2="275.142" y2="221.805" class="gray" /></g>
<g><line x1="279.202" y1="221.805" x2="282.699" y2="221.805" class="gray" /></g>
<g><line x1="286.759" y1="221.805" x2="290.257" y2="221.805" class="gray" /></g>
<g><line x1="294.317" y1="221.805" x2="297.814" y2="221.805" class="gray" /></g>
<g><line x1="301.874" y1="221.805" x2="305.372" y2="221.805" class="gray" /></g>
</svg>
