<svg
	xmlns="http://www.w3.org/2000/svg"
	width="297.128"
	height="272.66"
	style="font-size: 3.045014px; font-weight: bold; font-family: Helvetica; " >
<g><style type="text/css" >
<!-- create color definitions -->
<![CDATA[
text.red {fill: rgb(255, 0, 255); }
text.green {fill: rgb(0, 255, 0); }
text.blue {fill: rgb(0, 0, 255); }
text.black {fill: rgb(0, 0, 0); }
text.gray {fill: rgb(204, 204, 204); }
text.brown {fill: rgb(211.65, 104.55, 30.6); }
text {fill: rgb(0, 0, 0); text-anchor: middle; alignment-baseline: middle; }
circle.red {stroke: rgb(255, 0, 255); fill: none; }
circle.green {stroke: rgb(0, 255, 0); fill: none; }
circle.blue {stroke: rgb(0, 0, 255); fill: none; }
circle.black {stroke: rgb(0, 0, 0); fill: none; }
circle.gray {stroke: rgb(204, 204, 204); fill: none; }
circle.brown {stroke: rgb(211.65, 104.55, 30.6); fill: none; }
circle {stroke: rgb(0, 0, 0); }
line.red {stroke: rgb(255, 0, 255); stroke-width: 0.380627; }
line.green {stroke: rgb(0, 255, 0); stroke-width: 0.380627; }
line.blue {stroke: rgb(0, 0, 255); stroke-width: 0.380627; }
line.black {stroke: rgb(0, 0, 0); stroke-width: 0.380627; }
line.gray {stroke: rgb(204, 204, 204); stroke-width: 0.380627; }
line.brown {stroke: rgb(211.65, 104.55, 30.6); stroke-width: 0.380627; }
line {stroke: rgb(0, 0, 0); }
text.numbering-label {fill: rgb(204, 204, 204);}
line.numbering-line {stroke: rgb(204, 204, 204); stroke-width: 0.190313;}
line.predicted {stroke: rgb(0, 0, 0); stroke-dasharray: 2}
text.background {fill: rgb(255, 255, 255);
.template {visibility:hidden}
]]>
</style></g>
<g><title>0 (position.label in template: 0.5')</title><text x="62.4657" y="216.236" class="green" >5'</text></g>
<g><title>1 (position.label in template: 9.U)</title><text x="62.4657" y="208.678" class="black" >U</text></g>
<g><line x1="64.4957" y1="208.374" x2="72.4657" y2="208.374" class="black" /></g>
<g><title>2 (position.label in template: 10.C)</title><text x="62.4657" y="201.118" class="black" >C</text></g>
<g><line x1="64.4957" y1="200.814" x2="72.4657" y2="200.814" class="black" /></g>
<g><title>3 (position.label in template: 11.A)</title><text x="62.6757" y="193.558" class="green" >U</text></g>
<g><line x1="64.7057" y1="193.254" x2="72.6757" y2="193.254" class="black" /></g>
<g><title>4 (position.label in template: 12.U)</title><text x="57.7557" y="187.648" class="black" >U</text></g>
<g><title>5 (position.label in template: 13.U)</title><text x="57.7557" y="180.088" class="black" >U</text></g>
<g><title>6 (position.label in template: 14.G)</title><text x="62.2557" y="174.168" class="black" >G</text></g>
<g><line x1="64.2857" y1="173.864" x2="72.6757" y2="173.864" class="black" /></g>
<g><title>7 (position.label in template: 15.A)</title><text x="62.6757" y="166.608" class="black" >A</text></g>
<g><line x1="64.7057" y1="166.304" x2="72.6757" y2="166.304" class="black" /></g>
<g><title>8 (position.label in template: 16.U)</title><text x="62.4657" y="159.048" class="green" >A</text></g>
<g><line x1="64.4957" y1="158.744" x2="72.8857" y2="158.744" class="black" /></g>
<g><title>9 (position.label in template: 20.A)</title><text x="61.1881" y="152.832" class="green" >U</text></g>
<g><title>10 (position.label in template: 21.G)</title><text x="62.39" y="146.602" class="green" >U</text></g>
<g><line x1="64.42" y1="146.297" x2="72.81" y2="146.297" class="black" /></g>
<g><title>10 (inserted)</title><text x="55.5856" y="145.801" class="numbering-label sequential" >10</text></g>
<g><line x1="60.5755" y1="146.388" x2="57.4126" y2="146.016" class="numbering-line sequential" /></g>
<g><title>11 (position.label in template: 22.A)</title><text x="62.81" y="139.042" class="black" >A</text></g>
<g><line x1="64.84" y1="138.737" x2="72.81" y2="138.737" class="black" /></g>
<g><title>12 (position.label in template: 23.Y)</title><text x="62.81" y="131.482" class="green" >U</text></g>
<g><line x1="64.8397" y1="131.21" x2="72.9603" y2="131.344" class="black" /></g>
<g><title>13 (position.label in template: 24.U)</title><text x="56.08" y="127.652" class="black" >U</text></g>
<g><title>14 (position.label in template: 25.A)</title><text x="51.77" y="121.592" class="black" >A</text></g>
<g><title>15 (position.label in template: 26.A)</title><text x="50" y="114.242" class="black" >A</text></g>
<g><title>16 (position.label in template: 27.G)</title><text x="50.82" y="106.782" class="green" >U</text></g>
<g><title>17 (position.label in template: 28.A)</title><text x="55.29" y="100.402" class="green" >U</text></g>
<g><title>18 (position.label in template: 29.A)</title><text x="61.52" y="96.1216" class="black" >A</text></g>
<g><title>19 (position.label in template: 30.A)</title><text x="68.93" y="94.6116" class="green" >G</text></g>
<g><title>20 (position.label in template: 31.N)</title><text x="76.28" y="96.3216" class="green" >G</text></g>
<g><title>20 (inserted)</title><text x="78.9924" y="90.0301" class="numbering-label sequential" >20</text></g>
<g><line x1="77.0033" y1="94.6439" x2="78.336" y2="91.5526" class="numbering-line sequential" /></g>
<g><title>21 (position.label in template: 32.U)</title><text x="82.36" y="100.402" class="black" >U</text></g>
<g><title>22 (position.label in template: 33.N)</title><text x="86.56" y="106.992" class="green" >A</text></g>
<g><title>23 (position.label in template: 34.R)</title><text x="87.65" y="114.242" class="green" >U</text></g>
<g><title>24 (position.label in template: 35.G)</title><text x="85.66" y="121.592" class="green" >A</text></g>
<g><title>25 (position.label in template: 36.G)</title><text x="81.15" y="127.652" class="black" >G</text></g>
<g><title>26 (position.label in template: 37.N)</title><text x="74.99" y="131.682" class="green" >U</text></g>
<g><title>27 (position.label in template: 38.U)</title><text x="74.84" y="139.042" class="black" >U</text></g>
<g><title>28 (position.label in template: 39.U)</title><text x="74.84" y="146.602" class="green" >U</text></g>
<g><title>29 (position.label in template: 40.U)</title><text x="80.2485" y="149.68" class="blue" >U</text></g>
<g><title>30 (position.label in template: 41.U)</title><text x="80.2863" y="155.904" class="blue" >U</text></g>
<g><title>30 (inserted)</title><text x="86.2404" y="159.293" class="numbering-label sequential" >30</text></g>
<g><line x1="81.8741" y1="156.808" x2="84.4134" y2="158.253" class="numbering-line sequential" /></g>
<g><title>31 (position.label in template: 44.A)</title><text x="74.9157" y="159.048" class="green" >U</text></g>
<g><title>32 (position.label in template: 45.U)</title><text x="74.7057" y="166.608" class="black" >U</text></g>
<g><title>33 (position.label in template: 46.U)</title><text x="74.7057" y="174.168" class="black" >U</text></g>
<g><title>34 (position.label in template: 47.U)</title><text x="79.4157" y="180.088" class="black" >U</text></g>
<g><title>35 (position.label in template: 48.U)</title><text x="79.4157" y="187.648" class="black" >U</text></g>
<g><title>36 (position.label in template: 49.U)</title><text x="74.7057" y="193.558" class="green" >U</text></g>
<g><title>37 (position.label in template: 50.G)</title><text x="74.4957" y="201.118" class="black" >G</text></g>
<g><title>38 (position.label in template: 51.G)</title><text x="74.4957" y="208.678" class="black" >G</text></g>
<g><title>39 (inserted)</title><text x="77.4851" y="215.619" class="red" >U</text></g>
<g><title>40 (position.label in template: 53.U)</title><text x="80.4744" y="222.56" class="black" >U</text></g>
<g><title>41 (position.label in template: 56.U)</title><text x="88.0319" y="222.56" class="black" >U</text></g>
<g><title>42 (position.label in template: 57.G)</title><text x="95.3819" y="222.56" class="black" >G</text></g>
<g><title>43 (position.label in template: 58.A)</title><text x="103.352" y="222.56" class="black" >A</text></g>
<g><title>44 (position.label in template: 59.U)</title><text x="110.712" y="222.56" class="black" >U</text></g>
<g><title>45 (position.label in template: 60.A)</title><text x="118.472" y="222.56" class="green" >G</text></g>
<g><title>46 (position.label in template: 61.A)</title><text x="126.032" y="222.56" class="green" >G</text></g>
<g><title>47 (position.label in template: 62.A)</title><text x="133.592" y="222.56" class="black" >A</text></g>
<g><title>48 (position.label in template: 63.G)</title><text x="140.742" y="222.56" class="green" >A</text></g>
<g><title>49 (position.label in template: 64.A)</title><text x="148.712" y="222.56" class="green" >G</text></g>
<g><title>50 (position.label in template: 65.G)</title><text x="155.862" y="222.56" class="black" >G</text></g>
<g><title>50 (inserted)</title><text x="155.862" y="229.412" class="numbering-label sequential" >50</text></g>
<g><line x1="155.862" y1="224.387" x2="155.862" y2="227.889" class="numbering-line sequential" /></g>
<g><title>51 (position.label in template: 66.A)</title><text x="163.832" y="222.56" class="black" >A</text></g>
<g><title>52 (position.label in template: 67.A)</title><text x="171.392" y="222.56" class="black" >A</text></g>
<g><title>53 (position.label in template: 68.A)</title><text x="178.952" y="222.56" class="green" >G</text></g>
<g><title>54 (position.label in template: 69.G)</title><text x="186.102" y="222.56" class="green" >A</text></g>
<g><title>55 (position.label in template: 70.A)</title><text x="194.072" y="222.56" class="green" >U</text></g>
<g><title>56 (position.label in template: 71.U)</title><text x="199.212" y="217.21" class="black" >U</text></g>
<g><line x1="201.242" y1="216.906" x2="209.632" y2="216.906" class="black" /></g>
<g><title>57 (position.label in template: 72.G)</title><text x="199.002" y="209.65" class="black" >G</text></g>
<g><line x1="201.032" y1="209.346" x2="209.422" y2="209.346" class="black" /></g>
<g><title>58 (position.label in template: 73.C)</title><text x="199.212" y="202.09" class="black" >C</text></g>
<g><line x1="201.242" y1="201.786" x2="209.212" y2="201.786" class="black" /></g>
<g><title>59 (position.label in template: 74.C)</title><text x="199.212" y="194.53" class="black" >C</text></g>
<g><line x1="201.242" y1="194.226" x2="209.212" y2="194.226" class="black" /></g>
<g><title>60 (position.label in template: 75.U)</title><text x="199.212" y="186.97" class="black" >U</text></g>
<g><line x1="201.242" y1="186.666" x2="209.632" y2="186.666" class="black" /></g>
<g><title>61 (position.label in template: 76.C)</title><text x="199.212" y="179.41" class="black" >C</text></g>
<g><line x1="201.242" y1="179.106" x2="209.212" y2="179.106" class="black" /></g>
<g><title>62 (position.label in template: 77.U)</title><text x="199.212" y="171.85" class="black" >U</text></g>
<g><line x1="201.242" y1="171.546" x2="209.212" y2="171.546" class="black" /></g>
<g><title>63 (position.label in template: 78.U)</title><text x="192.502" y="168.37" class="black" >U</text></g>
<g><title>64 (position.label in template: 79.C)</title><text x="187.482" y="162.72" class="black" >C</text></g>
<g><title>65 (position.label in template: 80.U)</title><text x="184.792" y="155.66" class="black" >U</text></g>
<g><title>66 (position.label in template: 81.U)</title><text x="184.792" y="148.1" class="black" >U</text></g>
<g><title>67 (position.label in template: 82.U)</title><text x="187.482" y="141.03" class="black" >U</text></g>
<g><title>68 (position.label in template: 83.C)</title><text x="192.502" y="135.39" class="black" >C</text></g>
<g><title>69 (position.label in template: 84.A)</title><text x="199.422" y="131.9" class="black" >A</text></g>
<g><line x1="201.452" y1="131.596" x2="209.422" y2="131.596" class="black" /></g>
<g><title>70 (position.label in template: 85.G)</title><text x="199.002" y="124.34" class="black" >G</text></g>
<g><line x1="201.032" y1="124.036" x2="209.422" y2="124.036" class="black" /></g>
<g><title>71 (position.label in template: 86.C)</title><text x="199.212" y="116.78" class="black" >C</text></g>
<g><line x1="201.242" y1="116.476" x2="209.212" y2="116.476" class="black" /></g>
<g><title>72 (position.label in template: 87.A)</title><text x="199.422" y="109.22" class="black" >A</text></g>
<g><line x1="201.452" y1="108.916" x2="209.422" y2="108.916" class="black" /></g>
<g><title>73 (position.label in template: 88.G)</title><text x="199.002" y="101.66" class="black" >G</text></g>
<g><line x1="201.032" y1="101.356" x2="209.422" y2="101.356" class="black" /></g>
<g><title>74 (position.label in template: 89.C)</title><text x="199.212" y="94.1003" class="black" >C</text></g>
<g><line x1="201.242" y1="93.7958" x2="209.212" y2="93.7958" class="black" /></g>
<g><title>75 (position.label in template: 90.A)</title><text x="199.422" y="86.5403" class="black" >A</text></g>
<g><line x1="201.452" y1="86.2358" x2="209.422" y2="86.2358" class="black" /></g>
<g><title>76 (position.label in template: 91.A)</title><text x="199.422" y="78.9803" class="black" >A</text></g>
<g><line x1="201.452" y1="78.6758" x2="209.422" y2="78.6758" class="black" /></g>
<g><title>77 (position.label in template: 92.G)</title><text x="199.002" y="71.4203" class="black" >G</text></g>
<g><line x1="201.032" y1="71.1158" x2="209.422" y2="71.1158" class="black" /></g>
<g><title>78 (position.label in template: 93.A)</title><text x="199.422" y="63.8603" class="green" >U</text></g>
<g><line x1="201.452" y1="63.5558" x2="209.422" y2="63.5558" class="black" /></g>
<g><title>79 (position.label in template: 94.U)</title><text x="197.204" y="58.0515" class="blue" >U</text></g>
<g><title>80 (inserted)</title><text x="199.679" y="52.3474" class="red" >C</text></g>
<g><title>81 (position.label in template: 95.U)</title><text x="205.437" y="50" class="blue" >U</text></g>
<g><title>82 (position.label in template: 96.A)</title><text x="211.195" y="52.3474" class="green" >G</text></g>
<g><title>83 (position.label in template: 97.U)</title><text x="213.67" y="58.0515" class="blue" >U</text></g>
<g><title>84 (position.label in template: 98.U)</title><text x="211.452" y="63.8603" class="green" >U</text></g>
<g><title>85 (position.label in template: 99.C)</title><text x="211.452" y="71.4203" class="black" >C</text></g>
<g><title>86 (position.label in template: 100.U)</title><text x="211.452" y="78.9803" class="black" >U</text></g>
<g><title>87 (position.label in template: 101.U)</title><text x="211.452" y="86.5403" class="black" >U</text></g>
<g><title>88 (position.label in template: 102.G)</title><text x="211.242" y="94.1003" class="black" >G</text></g>
<g><title>89 (position.label in template: 103.U)</title><text x="211.452" y="101.66" class="black" >U</text></g>
<g><title>90 (position.label in template: 104.U)</title><text x="211.452" y="109.22" class="black" >U</text></g>
<g><title>91 (position.label in template: 105.A)</title><text x="218.212" y="113" class="black" >A</text></g>
<g><title>92 (position.label in template: 106.G)</title><text x="211.242" y="116.78" class="black" >G</text></g>
<g><title>93 (position.label in template: 107.C)</title><text x="211.452" y="124.34" class="black" >C</text></g>
<g><title>94 (position.label in template: 108.U)</title><text x="211.452" y="131.9" class="black" >U</text></g>
<g><title>95 (position.label in template: 109.U)</title><text x="218.802" y="133.7" class="black" >U</text></g>
<g><title>96 (position.label in template: 110.U)</title><text x="224.952" y="138.09" class="black" >U</text></g>
<g><title>97 (position.label in template: 111.G)</title><text x="228.822" y="144.45" class="black" >G</text></g>
<g><title>98 (position.label in template: 112.U)</title><text x="230.462" y="151.88" class="black" >U</text></g>
<g><title>99 (position.label in template: 113.U)</title><text x="229.032" y="159.3" class="black" >U</text></g>
<g><title>100 (position.label in template: 114.C)</title><text x="224.952" y="165.66" class="black" >C</text></g>
<g><title>100 (inserted)</title><text x="229.917" y="170.381" class="numbering-label sequential" >100</text></g>
<g><line x1="226.276" y1="166.919" x2="228.316" y2="168.859" class="numbering-line sequential" /></g>
<g><title>101 (position.label in template: 115.U)</title><text x="218.802" y="170.06" class="black" >U</text></g>
<g><title>102 (position.label in template: 116.G)</title><text x="211.242" y="171.85" class="black" >G</text></g>
<g><title>103 (position.label in template: 117.G)</title><text x="211.242" y="179.41" class="black" >G</text></g>
<g><title>104 (position.label in template: 118.A)</title><text x="211.662" y="186.97" class="black" >A</text></g>
<g><title>105 (position.label in template: 119.G)</title><text x="211.242" y="194.53" class="black" >G</text></g>
<g><title>106 (position.label in template: 120.G)</title><text x="211.242" y="202.09" class="black" >G</text></g>
<g><title>107 (position.label in template: 121.C)</title><text x="211.452" y="209.65" class="black" >C</text></g>
<g><title>108 (position.label in template: 122.A)</title><text x="211.662" y="217.21" class="black" >A</text></g>
<g><title>109 (position.label in template: 123.C)</title><text x="216.898" y="222.66" class="green" >U</text></g>
<g><title>110 (position.label in template: 124.A)</title><text x="224.455" y="222.66" class="black" >A</text></g>
<g><title>111 (position.label in template: 125.G)</title><text x="232.013" y="222.66" class="green" >U</text></g>
<g><title>112 (position.label in template: 126.A)</title><text x="239.57" y="222.66" class="black" >A</text></g>
<g><title>113 (position.label in template: 127.U)</title><text x="247.128" y="222.66" class="black" >U</text></g>
<g><title>114 (position.label in template: 128.3')</title><text x="254.685" y="222.66" class="green" >3'</text></g>
<g><line x1="62.4657" y1="213.901" x2="62.4657" y2="210.404" class="gray" /></g>
<g><line x1="62.4657" y1="206.344" x2="62.4657" y2="202.844" class="gray" /></g>
<g><line x1="62.5221" y1="198.784" x2="62.6194" y2="195.283" class="gray" /></g>
<g><line x1="61.3769" y1="191.694" x2="59.0545" y2="188.904" class="gray" /></g>
<g><line x1="57.7557" y1="185.314" x2="57.7557" y2="181.814" class="gray" /></g>
<g><line x1="58.9842" y1="178.168" x2="61.0273" y2="175.48" class="gray" /></g>
<g><line x1="62.3683" y1="171.837" x2="62.5631" y2="168.331" class="gray" /></g>
<g><line x1="62.6194" y1="164.274" x2="62.5221" y2="160.773" class="gray" /></g>
<g><line x1="62.057" y1="156.755" x2="61.5968" y2="154.516" class="gray" /></g>
<g><line x1="61.5726" y1="150.535" x2="62.0055" y2="148.29" class="gray" /></g>
<g><line x1="62.5026" y1="144.27" x2="62.6974" y2="140.764" class="gray" /></g>
<g><line x1="62.81" y1="136.707" x2="62.81" y2="133.207" class="gray" /></g>
<g><line x1="61.0457" y1="130.173" x2="57.8443" y2="128.351" class="gray" /></g>
<g><line x1="54.9034" y1="125.693" x2="52.9466" y2="122.941" class="gray" /></g>
<g><line x1="51.2947" y1="119.313" x2="50.4753" y2="115.911" class="gray" /></g>
<g><line x1="50.2218" y1="111.919" x2="50.5982" y2="108.495" class="gray" /></g>
<g><line x1="51.9848" y1="104.815" x2="54.1252" y2="101.76" class="gray" /></g>
<g><line x1="56.9632" y1="98.9476" x2="59.8468" y2="96.9666" class="gray" /></g>
<g><line x1="63.5091" y1="95.4117" x2="66.9409" y2="94.7124" class="gray" /></g>
<g><line x1="70.9072" y1="94.7671" x2="74.3028" y2="95.5571" class="gray" /></g>
<g><line x1="77.9656" y1="97.1482" x2="80.6744" y2="98.9659" class="gray" /></g>
<g><line x1="83.451" y1="101.809" x2="85.469" y2="104.975" class="gray" /></g>
<g><line x1="86.8618" y1="108.695" x2="87.3482" y2="111.93" class="gray" /></g>
<g><line x1="87.1195" y1="115.897" x2="86.1905" y2="119.328" class="gray" /></g>
<g><line x1="84.448" y1="122.916" x2="82.362" y2="125.719" class="gray" /></g>
<g><line x1="79.4512" y1="128.458" x2="76.6888" y2="130.266" class="gray" /></g>
<g><line x1="74.9486" y1="133.407" x2="74.8814" y2="136.707" class="gray" /></g>
<g><line x1="74.84" y1="140.767" x2="74.84" y2="144.267" class="gray" /></g>
<g><line x1="76.6042" y1="147.301" x2="78.4843" y2="148.372" class="gray" /></g>
<g><line x1="80.2608" y1="151.406" x2="80.274" y2="153.569" class="gray" /></g>
<g><line x1="78.5345" y1="156.625" x2="76.6676" y2="157.718" class="gray" /></g>
<g><line x1="74.8594" y1="160.773" x2="74.7621" y2="164.274" class="gray" /></g>
<g><line x1="74.7057" y1="168.334" x2="74.7057" y2="171.834" class="gray" /></g>
<g><line x1="75.9696" y1="175.452" x2="78.1519" y2="178.195" class="gray" /></g>
<g><line x1="79.4157" y1="181.814" x2="79.4157" y2="185.314" class="gray" /></g>
<g><line x1="78.1506" y1="188.931" x2="75.9709" y2="191.666" class="gray" /></g>
<g><line x1="74.6494" y1="195.283" x2="74.5521" y2="198.784" class="gray" /></g>
<g><line x1="74.4957" y1="202.844" x2="74.4957" y2="206.344" class="gray" /></g>
<g><line x1="75.2987" y1="210.238" x2="76.6821" y2="213.45" class="gray" /></g>
<g><line x1="78.2881" y1="217.179" x2="79.6715" y2="220.391" class="gray" /></g>
<g><line x1="82.5044" y1="222.256" x2="86.0019" y2="222.256" class="gray" /></g>
<g><line x1="90.0619" y1="222.256" x2="93.3519" y2="222.256" class="gray" /></g>
<g><line x1="97.4119" y1="222.256" x2="101.322" y2="222.256" class="gray" /></g>
<g><line x1="105.382" y1="222.256" x2="108.682" y2="222.256" class="gray" /></g>
<g><line x1="112.742" y1="222.256" x2="116.442" y2="222.256" class="gray" /></g>
<g><line x1="120.502" y1="222.256" x2="124.002" y2="222.256" class="gray" /></g>
<g><line x1="128.062" y1="222.256" x2="131.562" y2="222.256" class="gray" /></g>
<g><line x1="135.622" y1="222.256" x2="138.712" y2="222.256" class="gray" /></g>
<g><line x1="142.772" y1="222.256" x2="146.682" y2="222.256" class="gray" /></g>
<g><line x1="150.742" y1="222.256" x2="153.832" y2="222.256" class="gray" /></g>
<g><line x1="157.892" y1="222.256" x2="161.802" y2="222.256" class="gray" /></g>
<g><line x1="165.862" y1="222.256" x2="169.362" y2="222.256" class="gray" /></g>
<g><line x1="173.422" y1="222.256" x2="176.922" y2="222.256" class="gray" /></g>
<g><line x1="180.982" y1="222.256" x2="184.072" y2="222.256" class="gray" /></g>
<g><line x1="188.132" y1="222.256" x2="192.042" y2="222.256" class="gray" /></g>
<g><line x1="195.478" y1="220.792" x2="197.805" y2="218.37" class="gray" /></g>
<g><line x1="199.156" y1="214.877" x2="199.058" y2="211.375" class="gray" /></g>
<g><line x1="199.058" y1="207.317" x2="199.156" y2="203.815" class="gray" /></g>
<g><line x1="199.212" y1="199.756" x2="199.212" y2="196.256" class="gray" /></g>
<g><line x1="199.212" y1="192.196" x2="199.212" y2="188.696" class="gray" /></g>
<g><line x1="199.212" y1="184.636" x2="199.212" y2="181.136" class="gray" /></g>
<g><line x1="199.212" y1="177.076" x2="199.212" y2="173.576" class="gray" /></g>
<g><line x1="197.41" y1="170.611" x2="194.304" y2="169" class="gray" /></g>
<g><line x1="191.154" y1="166.548" x2="188.83" y2="163.933" class="gray" /></g>
<g><line x1="186.759" y1="160.519" x2="185.515" y2="157.253" class="gray" /></g>
<g><line x1="184.792" y1="153.326" x2="184.792" y2="149.826" class="gray" /></g>
<g><line x1="185.514" y1="145.899" x2="186.76" y2="142.623" class="gray" /></g>
<g><line x1="188.832" y1="139.209" x2="191.152" y2="136.602" class="gray" /></g>
<g><line x1="194.314" y1="134.172" x2="197.609" y2="132.51" class="gray" /></g>
<g><line x1="199.309" y1="129.569" x2="199.114" y2="126.063" class="gray" /></g>
<g><line x1="199.058" y1="122.007" x2="199.156" y2="118.505" class="gray" /></g>
<g><line x1="199.268" y1="114.447" x2="199.366" y2="110.945" class="gray" /></g>
<g><line x1="199.309" y1="106.889" x2="199.114" y2="103.383" class="gray" /></g>
<g><line x1="199.058" y1="99.3266" x2="199.156" y2="95.8251" class="gray" /></g>
<g><line x1="199.268" y1="91.7666" x2="199.366" y2="88.2651" class="gray" /></g>
<g><line x1="199.422" y1="84.2058" x2="199.422" y2="80.7058" class="gray" /></g>
<g><line x1="199.309" y1="76.649" x2="199.114" y2="73.1427" class="gray" /></g>
<g><line x1="199.114" y1="69.089" x2="199.309" y2="65.5827" class="gray" /></g>
<g><line x1="198.698" y1="61.6594" x2="197.928" y2="59.6434" class="gray" /></g>
<g><line x1="198.012" y1="55.8848" x2="198.871" y2="53.9051" class="gray" /></g>
<g><line x1="201.559" y1="51.2766" x2="203.557" y2="50.4619" class="gray" /></g>
<g><line x1="207.317" y1="50.4619" x2="209.315" y2="51.2766" class="gray" /></g>
<g><line x1="212.003" y1="53.9051" x2="212.862" y2="55.8848" class="gray" /></g>
<g><line x1="212.946" y1="59.6434" x2="212.176" y2="61.6594" class="gray" /></g>
<g><line x1="211.452" y1="65.5858" x2="211.452" y2="69.0858" class="gray" /></g>
<g><line x1="211.452" y1="73.1458" x2="211.452" y2="76.6458" class="gray" /></g>
<g><line x1="211.452" y1="80.7058" x2="211.452" y2="84.2058" class="gray" /></g>
<g><line x1="211.396" y1="88.2651" x2="211.298" y2="91.7666" class="gray" /></g>
<g><line x1="211.298" y1="95.8251" x2="211.396" y2="99.3266" class="gray" /></g>
<g><line x1="211.452" y1="103.386" x2="211.452" y2="106.886" class="gray" /></g>
<g><line x1="213.224" y1="109.907" x2="216.44" y2="111.705" class="gray" /></g>
<g><line x1="216.427" y1="113.664" x2="213.026" y2="115.508" class="gray" /></g>
<g><line x1="211.298" y1="118.505" x2="211.396" y2="122.007" class="gray" /></g>
<g><line x1="211.452" y1="126.066" x2="211.452" y2="129.566" class="gray" /></g>
<g><line x1="213.424" y1="132.079" x2="216.83" y2="132.913" class="gray" /></g>
<g><line x1="220.454" y1="134.575" x2="223.3" y2="136.606" class="gray" /></g>
<g><line x1="226.007" y1="139.52" x2="227.767" y2="142.412" class="gray" /></g>
<g><line x1="229.259" y1="146.128" x2="230.024" y2="149.594" class="gray" /></g>
<g><line x1="230.078" y1="153.569" x2="229.416" y2="157.003" class="gray" /></g>
<g><line x1="227.936" y1="160.704" x2="226.048" y2="163.647" class="gray" /></g>
<g><line x1="223.301" y1="166.537" x2="220.453" y2="168.575" class="gray" /></g>
<g><line x1="216.826" y1="170.224" x2="213.217" y2="171.078" class="gray" /></g>
<g><line x1="211.242" y1="173.576" x2="211.242" y2="177.076" class="gray" /></g>
<g><line x1="211.354" y1="181.133" x2="211.549" y2="184.639" class="gray" /></g>
<g><line x1="211.549" y1="188.693" x2="211.354" y2="192.199" class="gray" /></g>
<g><line x1="211.242" y1="196.256" x2="211.242" y2="199.756" class="gray" /></g>
<g><line x1="211.298" y1="203.815" x2="211.396" y2="207.317" class="gray" /></g>
<g><line x1="211.508" y1="211.375" x2="211.606" y2="214.877" class="gray" /></g>
<g><line x1="213.068" y1="218.37" x2="215.491" y2="220.892" class="gray" /></g>
<g><line x1="218.928" y1="222.356" x2="222.425" y2="222.356" class="gray" /></g>
<g><line x1="226.485" y1="222.356" x2="229.983" y2="222.356" class="gray" /></g>
<g><line x1="234.043" y1="222.356" x2="237.54" y2="222.356" class="gray" /></g>
<g><line x1="241.6" y1="222.356" x2="245.098" y2="222.356" class="gray" /></g>
<g><line x1="249.158" y1="222.356" x2="252.655" y2="222.356" class="gray" /></g>
</svg>
