<svg
	xmlns="http://www.w3.org/2000/svg"
	width="348.879"
	height="310.851"
	style="font-size: 3.068569px; font-weight: bold; font-family: Helvetica; " >
<g><style type="text/css" >
<!-- create color definitions -->
<![CDATA[
text.red {fill: rgb(255, 0, 255); }
text.green {fill: rgb(0, 255, 0); }
text.blue {fill: rgb(0, 0, 255); }
text.black {fill: rgb(0, 0, 0); }
text.gray {fill: rgb(204, 204, 204); }
text.brown {fill: rgb(211.65, 104.55, 30.6); }
text {fill: rgb(0, 0, 0); text-anchor: middle; alignment-baseline: middle; }
circle.red {stroke: rgb(255, 0, 255); fill: none; }
circle.green {stroke: rgb(0, 255, 0); fill: none; }
circle.blue {stroke: rgb(0, 0, 255); fill: none; }
circle.black {stroke: rgb(0, 0, 0); fill: none; }
circle.gray {stroke: rgb(204, 204, 204); fill: none; }
circle.brown {stroke: rgb(211.65, 104.55, 30.6); fill: none; }
circle {stroke: rgb(0, 0, 0); }
line.red {stroke: rgb(255, 0, 255); stroke-width: 0.383571; }
line.green {stroke: rgb(0, 255, 0); stroke-width: 0.383571; }
line.blue {stroke: rgb(0, 0, 255); stroke-width: 0.383571; }
line.black {stroke: rgb(0, 0, 0); stroke-width: 0.383571; }
line.gray {stroke: rgb(204, 204, 204); stroke-width: 0.383571; }
line.brown {stroke: rgb(211.65, 104.55, 30.6); stroke-width: 0.383571; }
line {stroke: rgb(0, 0, 0); }
text.numbering-label {fill: rgb(204, 204, 204);}
line.numbering-line {stroke: rgb(204, 204, 204); stroke-width: 0.191786;}
line.predicted {stroke: rgb(0, 0, 0); stroke-dasharray: 2}
text.background {fill: rgb(255, 255, 255);
.template {visibility:hidden}
]]>
</style></g>
<g><title>0 (position.label in template: 0.5')</title><text x="132.898" y="258.52" class="green" >5'</text></g>
<g><title>1 (position.label in template: 1.N)</title><text x="140.465" y="258.52" class="green" >G</text></g>
<g><title>2 (position.label in template: 2.N)</title><text x="148.032" y="258.52" class="green" >A</text></g>
<g><title>3 (position.label in template: 3.N)</title><text x="155.599" y="258.52" class="green" >C</text></g>
<g><title>4 (position.label in template: 4.Y)</title><text x="163.164" y="258.311" class="green" >A</text></g>
<g><title>5 (position.label in template: 6.N)</title><text x="170.19" y="255.501" class="green" >A</text></g>
<g><line x1="172.235" y1="255.194" x2="180.384" y2="255.194" class="black" /></g>
<g><title>6 (position.label in template: 7.Y)</title><text x="170.25" y="247.731" class="green" >U</text></g>
<g><line x1="172.295" y1="247.424" x2="180.234" y2="247.424" class="black" /></g>
<g><title>7 (position.label in template: 8.N)</title><text x="170.19" y="240.381" class="green" >C</text></g>
<g><line x1="172.235" y1="240.074" x2="180.384" y2="240.074" class="black" /></g>
<g><title>8 (position.label in template: 9.G)</title><text x="169.83" y="232.611" class="green" >A</text></g>
<g><line x1="171.875" y1="232.304" x2="180.444" y2="232.304" class="black" /></g>
<g><title>9 (position.label in template: 10.N)</title><text x="170.19" y="225.261" class="green" >U</text></g>
<g><line x1="172.235" y1="224.954" x2="180.384" y2="224.954" class="black" /></g>
<g><title>10 (inserted)</title><text x="170.013" y="202.38" class="red" >U</text></g>
<g><title>10 (inserted)</title><text x="163.109" y="202.38" class="numbering-label sequential" >10</text></g>
<g><line x1="168.172" y1="202.38" x2="164.95" y2="202.38" class="numbering-line sequential" /></g>
<g><title>11 (position.label in template: 11.N)</title><text x="170.19" y="179.5" class="green" >A</text></g>
<g><line x1="172.235" y1="179.193" x2="180.384" y2="179.193" class="black" /></g>
<g><title>12 (position.label in template: 12.R)</title><text x="162.57" y="178.14" class="green" >U</text></g>
<g><title>13 (position.label in template: 13.R)</title><text x="155.28" y="176.13" class="green" >G</text></g>
<g><title>14 (position.label in template: 14.U)</title><text x="148.28" y="173.28" class="black" >U</text></g>
<g><title>15 (position.label in template: 15.Y)</title><text x="141.86" y="169.64" class="green" >U</text></g>
<g><title>16 (position.label in template: 16.C)</title><text x="135.5" y="165.25" class="black" >C</text></g>
<g><title>17 (position.label in template: 17.R)</title><text x="129.9" y="160.17" class="green" >A</text></g>
<g><title>18 (position.label in template: 18.N)</title><text x="125.07" y="154.69" class="green" >U</text></g>
<g><title>19 (position.label in template: 19.U)</title><text x="120.65" y="148.25" class="black" >U</text></g>
<g><title>20 (position.label in template: 20.C)</title><text x="117.12" y="141.56" class="black" >C</text></g>
<g><line x1="116.423" y1="139.33" x2="113.626" y2="131.607" class="black" /></g>
<g><title>20 (inserted)</title><text x="114.655" y="148.009" class="numbering-label sequential" >20</text></g>
<g><line x1="116.462" y1="143.28" x2="115.241" y2="146.475" class="numbering-line sequential" /></g>
<g><title>21 (position.label in template: 21.N)</title><text x="110.13" y="144.23" class="green" >U</text></g>
<g><line x1="109.463" y1="141.989" x2="106.806" y2="134.287" class="black" /></g>
<g><title>22 (position.label in template: 22.R)</title><text x="102.83" y="146.48" class="green" >U</text></g>
<g><line x1="102.194" y1="144.229" x2="99.6848" y2="136.548" class="black" /></g>
<g><title>23 (inserted)</title><text x="97.0299" y="150.227" class="red" >C</text></g>
<g><title>24 (position.label in template: 23.N)</title><text x="90.2032" y="151.264" class="green" >U</text></g>
<g><line x1="89.5362" y1="149.024" x2="86.8801" y2="141.321" class="black" /></g>
<g><title>25 (position.label in template: 24.N)</title><text x="83.0532" y="153.734" class="green" >U</text></g>
<g><line x1="82.3883" y1="151.493" x2="79.7381" y2="143.782" class="black" /></g>
<g><title>26 (position.label in template: 25.N)</title><text x="75.9132" y="156.194" class="green" >C</text></g>
<g><line x1="75.2462" y1="153.954" x2="72.5901" y2="146.251" class="black" /></g>
<g><title>27 (position.label in template: 26.N)</title><text x="68.7632" y="158.654" class="green" >U</text></g>
<g><line x1="68.0962" y1="156.414" x2="65.4401" y2="148.711" class="black" /></g>
<g><title>28 (position.label in template: 27.N)</title><text x="64.4577" y="163.732" class="green" >C</text></g>
<g><title>29 (position.label in template: 28.N)</title><text x="57.8916" y="164.828" class="green" >C</text></g>
<g><title>30 (position.label in template: 29.N)</title><text x="52.1703" y="161.424" class="green" >A</text></g>
<g><title>30 (inserted)</title><text x="46.8153" y="165.782" class="numbering-label sequential" >30</text></g>
<g><line x1="50.7423" y1="162.587" x2="48.7005" y2="164.248" class="numbering-line sequential" /></g>
<g><title>31 (position.label in template: 30.R)</title><text x="50" y="155.131" class="green" >A</text></g>
<g><title>32 (position.label in template: 31.N)</title><text x="52.4072" y="148.924" class="green" >U</text></g>
<g><title>33 (inserted)</title><text x="58.2532" y="145.74" class="red" >A</text></g>
<g><title>34 (position.label in template: 32.N)</title><text x="64.7732" y="147.084" class="green" >G</text></g>
<g><title>35 (position.label in template: 33.N)</title><text x="71.9232" y="144.624" class="green" >G</text></g>
<g><title>36 (position.label in template: 34.N)</title><text x="79.0732" y="142.154" class="green" >A</text></g>
<g><title>37 (position.label in template: 35.N)</title><text x="86.2132" y="139.694" class="green" >A</text></g>
<g><title>38 (inserted)</title><text x="85.1819" y="133.48" class="red" >A</text></g>
<g><title>39 (inserted)</title><text x="89.4963" y="128.891" class="red" >G</text></g>
<g><title>40 (inserted)</title><text x="95.7621" y="129.537" class="red" >G</text></g>
<g><title>41 (position.label in template: 36.Y)</title><text x="99.0495" y="134.91" class="green" >A</text></g>
<g><title>42 (position.label in template: 37.N)</title><text x="106.14" y="132.66" class="green" >A</text></g>
<g><title>43 (position.label in template: 38.G)</title><text x="112.93" y="129.99" class="black" >G</text></g>
<g><title>44 (position.label in template: 39.U)</title><text x="111.79" y="122.55" class="black" >U</text></g>
<g><title>45 (position.label in template: 40.C)</title><text x="111.32" y="115" class="black" >C</text></g>
<g><title>46 (position.label in template: 41.A)</title><text x="111.93" y="107.45" class="black" >A</text></g>
<g><title>47 (position.label in template: 42.Y)</title><text x="113.22" y="100" class="green" >U</text></g>
<g><title>48 (position.label in template: 43.N)</title><text x="115.31" y="92.96" class="green" >A</text></g>
<g><title>49 (position.label in template: 44.C)</title><text x="118.13" y="85.8" class="black" >C</text></g>
<g><title>50 (position.label in template: 45.A)</title><text x="122.1" y="79.24" class="black" >A</text></g>
<g><title>50 (inserted)</title><text x="116.365" y="75.3945" class="numbering-label sequential" >50</text></g>
<g><line x1="120.57" y1="78.2145" x2="118.206" y2="76.6292" class="numbering-line sequential" /></g>
<g><title>51 (position.label in template: 46.A)</title><text x="126.6" y="73.17" class="black" >A</text></g>
<g><title>52 (position.label in template: 47.C)</title><text x="131.57" y="67.66" class="black" >C</text></g>
<g><title>53 (position.label in template: 48.C)</title><text x="137.35" y="62.79" class="black" >C</text></g>
<g><title>54 (position.label in template: 49.C)</title><text x="143.66" y="58.63" class="black" >C</text></g>
<g><title>55 (position.label in template: 50.C)</title><text x="150.41" y="55.22" class="black" >C</text></g>
<g><title>56 (position.label in template: 51.A)</title><text x="157.72" y="52.63" class="black" >A</text></g>
<g><title>57 (position.label in template: 52.A)</title><text x="165.08" y="50.88" class="green" >G</text></g>
<g><title>58 (position.label in template: 53.A)</title><text x="172.59" y="50" class="black" >A</text></g>
<g><title>59 (position.label in template: 54.A)</title><text x="180.15" y="50" class="black" >A</text></g>
<g><title>60 (position.label in template: 55.N)</title><text x="187.6" y="51.09" class="green" >A</text></g>
<g><title>61 (position.label in template: 56.Y)</title><text x="195.01" y="52.63" class="green" >C</text></g>
<g><title>62 (position.label in template: 57.N)</title><text x="202.06" y="55.43" class="green" >C</text></g>
<g><title>63 (position.label in template: 58.U)</title><text x="208.66" y="58.63" class="green" >A</text></g>
<g><title>64 (position.label in template: 59.A)</title><text x="215.18" y="62.79" class="green" >U</text></g>
<g><title>65 (position.label in template: 60.N)</title><text x="220.9" y="67.87" class="green" >U</text></g>
<g><title>66 (position.label in template: 61.N)</title><text x="226.08" y="73.38" class="green" >A</text></g>
<g><title>67 (position.label in template: 62.N)</title><text x="230.58" y="79.45" class="green" >C</text></g>
<g><title>68 (position.label in template: 63.N)</title><text x="234.34" y="86.01" class="green" >A</text></g>
<g><title>69 (position.label in template: 64.N)</title><text x="237.31" y="92.96" class="green" >A</text></g>
<g><title>70 (position.label in template: 65.N)</title><text x="239.46" y="100.21" class="green" >A</text></g>
<g><title>71 (position.label in template: 66.R)</title><text x="240.59" y="107.45" class="green" >C</text></g>
<g><title>72 (position.label in template: 67.N)</title><text x="241.15" y="115.21" class="green" >A</text></g>
<g><title>73 (position.label in template: 68.A)</title><text x="240.74" y="122.55" class="green" >C</text></g>
<g><title>74 (position.label in template: 69.N)</title><text x="239.34" y="130.19" class="green" >C</text></g>
<g><title>75 (position.label in template: 70.Y)</title><text x="237.19" y="137.22" class="green" >C</text></g>
<g><title>76 (position.label in template: 71.N)</title><text x="234.1" y="144.35" class="green" >U</text></g>
<g><title>77 (position.label in template: 72.Y)</title><text x="230.34" y="150.67" class="green" >G</text></g>
<g><title>78 (position.label in template: 73.U)</title><text x="225.59" y="156.71" class="green" >A</text></g>
<g><title>79 (position.label in template: 74.U)</title><text x="220.37" y="162.18" class="green" >G</text></g>
<g><title>80 (position.label in template: 75.N)</title><text x="214.7" y="167.21" class="green" >U</text></g>
<g><title>81 (position.label in template: 76.R)</title><text x="208.2" y="171.11" class="green" >A</text></g>
<g><line x1="206.352" y1="171.681" x2="199.037" y2="175.155" class="black" /></g>
<g><title>82 (position.label in template: 77.Y)</title><text x="211.51" y="178.01" class="green" >U</text></g>
<g><line x1="209.655" y1="178.566" x2="202.144" y2="182.06" class="black" /></g>
<g><title>83 (position.label in template: 78.Y)</title><text x="214.61" y="184.9" class="green" >U</text></g>
<g><line x1="212.733" y1="185.407" x2="204.906" y2="188.799" class="black" /></g>
<g><title>84 (position.label in template: 79.N)</title><text x="217.65" y="192.01" class="green" >G</text></g>
<g><line x1="215.783" y1="192.541" x2="208.356" y2="195.875" class="black" /></g>
<g><title>85 (position.label in template: 80.N)</title><text x="223.3" y="197.02" class="green" >C</text></g>
<g><title>86 (position.label in template: 81.N)</title><text x="223.3" y="204.58" class="green" >U</text></g>
<g><line x1="221.434" y1="205.112" x2="214.005" y2="208.454" class="black" /></g>
<g><title>87 (position.label in template: 82.U)</title><text x="226.25" y="211.27" class="green" >A</text></g>
<g><line x1="224.402" y1="211.841" x2="217.087" y2="215.315" class="black" /></g>
<g><title>88 (position.label in template: 83.N)</title><text x="229.5" y="218.38" class="green" >C</text></g>
<g><line x1="227.633" y1="218.911" x2="220.206" y2="222.245" class="black" /></g>
<g><title>89 (position.label in template: 84.R)</title><text x="235.428" y="221.598" class="green" >A</text></g>
<g><title>90 (position.label in template: 85.N)</title><text x="238.292" y="227.705" class="green" >U</text></g>
<g><title>91 (position.label in template: 86.Y)</title><text x="236.976" y="234.321" class="green" >U</text></g>
<g><title>92 (position.label in template: 87.N)</title><text x="231.992" y="238.867" class="green" >C</text></g>
<g><title>93 (position.label in template: 88.Y)</title><text x="225.283" y="239.57" class="green" >A</text></g>
<g><title>94 (position.label in template: 89.N)</title><text x="219.465" y="236.157" class="green" >G</text></g>
<g><title>95 (position.label in template: 90.N)</title><text x="216.804" y="229.959" class="green" >U</text></g>
<g><title>96 (position.label in template: 92.N)</title><text x="218.34" y="223.39" class="green" >G</text></g>
<g><title>97 (position.label in template: 93.N)</title><text x="215.24" y="216.5" class="green" >U</text></g>
<g><title>98 (position.label in template: 94.N)</title><text x="212.14" y="209.6" class="green" >A</text></g>
<g><title>99 (position.label in template: 95.N)</title><text x="206.49" y="204.58" class="green" >G</text></g>
<g><title>100 (position.label in template: 96.N)</title><text x="206.49" y="197.02" class="green" >C</text></g>
<g><title>100 (inserted)</title><text x="199.77" y="198.606" class="numbering-label sequential" >100</text></g>
<g><line x1="204.698" y1="197.443" x2="202.532" y2="197.954" class="numbering-line sequential" /></g>
<g><title>101 (position.label in template: 97.G)</title><text x="203.03" y="189.92" class="green" >G</text></g>
<g><title>102 (position.label in template: 98.N)</title><text x="200.29" y="183.23" class="green" >U</text></g>
<g><title>103 (position.label in template: 99.N)</title><text x="197.19" y="176.34" class="green" >U</text></g>
<g><title>104 (position.label in template: 100.R)</title><text x="189.75" y="178.14" class="green" >A</text></g>
<g><title>105 (position.label in template: 101.N)</title><text x="182.43" y="179.5" class="green" >A</text></g>
<g><title>106 (position.label in template: 102.N)</title><text x="188.14" y="174.838" class="green" >U</text></g>
<g><title>107 (inserted)</title><text x="194.749" y="171.571" class="red" >C</text></g>
<g><title>108 (inserted)</title><text x="201.92" y="169.865" class="red" >C</text></g>
<g><title>109 (inserted)</title><text x="209.292" y="169.806" class="red" >U</text></g>
<g><title>110 (inserted)</title><text x="216.49" y="171.397" class="red" >C</text></g>
<g><title>111 (inserted)</title><text x="223.15" y="174.557" class="red" >U</text></g>
<g><title>112 (inserted)</title><text x="228.935" y="179.127" class="red" >U</text></g>
<g><title>113 (inserted)</title><text x="233.551" y="184.875" class="red" >G</text></g>
<g><title>114 (inserted)</title><text x="236.764" y="191.509" class="red" >G</text></g>
<g><title>115 (inserted)</title><text x="238.413" y="198.694" class="red" >C</text></g>
<g><title>116 (inserted)</title><text x="238.413" y="206.066" class="red" >U</text></g>
<g><title>117 (inserted)</title><text x="236.764" y="213.251" class="red" >A</text></g>
<g><title>118 (inserted)</title><text x="233.551" y="219.886" class="red" >U</text></g>
<g><title>119 (inserted)</title><text x="228.935" y="225.634" class="red" >U</text></g>
<g><title>120 (inserted)</title><text x="223.15" y="230.203" class="red" >C</text></g>
<g><title>121 (inserted)</title><text x="216.49" y="233.364" class="red" >U</text></g>
<g><title>122 (inserted)</title><text x="209.292" y="234.955" class="red" >C</text></g>
<g><title>123 (inserted)</title><text x="201.92" y="234.896" class="red" >G</text></g>
<g><title>124 (inserted)</title><text x="194.749" y="233.19" class="red" >U</text></g>
<g><title>125 (inserted)</title><text x="188.14" y="229.923" class="red" >A</text></g>
<g><title>126 (position.label in template: 103.N)</title><text x="182.43" y="225.261" class="green" >A</text></g>
<g><title>127 (position.label in template: 104.Y)</title><text x="182.49" y="232.611" class="green" >C</text></g>
<g><title>128 (position.label in template: 105.N)</title><text x="182.43" y="240.381" class="green" >G</text></g>
<g><title>129 (position.label in template: 106.R)</title><text x="182.28" y="247.731" class="green" >A</text></g>
<g><title>130 (position.label in template: 107.N)</title><text x="182.43" y="255.501" class="green" >U</text></g>
<g><title>131 (position.label in template: 108.R)</title><text x="187.63" y="260.641" class="green" >U</text></g>
<g><title>132 (position.label in template: 109.Y)</title><text x="195.39" y="260.641" class="green" >G</text></g>
<g><title>133 (position.label in template: 110.N)</title><text x="202.9" y="260.851" class="green" >U</text></g>
<g><title>134 (position.label in template: 111.N)</title><text x="210.46" y="260.851" class="green" >C</text></g>
<g><title>135 (inserted)</title><text x="215.623" y="255.319" class="red" >A</text></g>
<g><title>136 (position.label in template: 112.R)</title><text x="220.787" y="249.787" class="green" >A</text></g>
<g><line x1="222.832" y1="249.481" x2="230.981" y2="249.481" class="black" /></g>
<g><title>137 (position.label in template: 113.R)</title><text x="220.787" y="242.227" class="green" >A</text></g>
<g><line x1="222.832" y1="241.921" x2="231.191" y2="241.921" class="black" /></g>
<g><title>138 (position.label in template: 114.R)</title><text x="220.787" y="234.667" class="green" >U</text></g>
<g><line x1="222.832" y1="234.361" x2="231.191" y2="234.361" class="black" /></g>
<g><title>139 (position.label in template: 115.R)</title><text x="220.787" y="227.107" class="green" >U</text></g>
<g><line x1="222.832" y1="226.801" x2="231.191" y2="226.801" class="black" /></g>
<g><title>140 (position.label in template: 116.N)</title><text x="220.937" y="219.757" class="green" >U</text></g>
<g><line x1="222.982" y1="219.451" x2="231.131" y2="219.451" class="black" /></g>
<g><title>141 (position.label in template: 118.N)</title><text x="220.937" y="212.197" class="green" >A</text></g>
<g><line x1="222.982" y1="211.891" x2="231.131" y2="211.891" class="black" /></g>
<g><title>142 (position.label in template: 119.Y)</title><text x="220.997" y="204.427" class="green" >G</text></g>
<g><line x1="223.042" y1="204.121" x2="230.981" y2="204.121" class="black" /></g>
<g><title>143 (position.label in template: 120.N)</title><text x="220.937" y="197.077" class="green" >A</text></g>
<g><line x1="222.982" y1="196.771" x2="231.131" y2="196.771" class="black" /></g>
<g><title>144 (position.label in template: 121.N)</title><text x="218.696" y="191.17" class="green" >G</text></g>
<g><title>145 (position.label in template: 122.N)</title><text x="218.696" y="184.851" class="green" >U</text></g>
<g><title>146 (position.label in template: 123.N)</title><text x="220.937" y="178.943" class="green" >G</text></g>
<g><line x1="222.982" y1="178.636" x2="231.131" y2="178.636" class="black" /></g>
<g><title>147 (position.label in template: 124.N)</title><text x="220.937" y="171.383" class="green" >C</text></g>
<g><line x1="222.982" y1="171.076" x2="231.131" y2="171.076" class="black" /></g>
<g><title>148 (position.label in template: 125.U)</title><text x="220.787" y="163.613" class="black" >U</text></g>
<g><line x1="222.832" y1="163.306" x2="231.191" y2="163.306" class="black" /></g>
<g><title>149 (position.label in template: 126.N)</title><text x="217.837" y="156.933" class="green" >U</text></g>
<g><title>150 (position.label in template: 127.N)</title><text x="220.937" y="150.033" class="green" >A</text></g>
<g><line x1="222.982" y1="149.726" x2="231.131" y2="149.726" class="black" /></g>
<g><title>150 (inserted)</title><text x="214.15" y="148.766" class="numbering-label sequential" >150</text></g>
<g><line x1="219.127" y1="149.695" x2="216.911" y2="149.281" class="numbering-line sequential" /></g>
<g><title>151 (position.label in template: 128.G)</title><text x="220.577" y="142.263" class="green" >U</text></g>
<g><line x1="222.622" y1="141.956" x2="230.981" y2="141.956" class="black" /></g>
<g><title>152 (position.label in template: 129.N)</title><text x="220.937" y="134.913" class="green" >C</text></g>
<g><line x1="222.982" y1="134.606" x2="231.131" y2="134.606" class="black" /></g>
<g><title>153 (position.label in template: 130.N)</title><text x="220.937" y="127.353" class="green" >G</text></g>
<g><line x1="222.982" y1="127.046" x2="231.131" y2="127.046" class="black" /></g>
<g><title>154 (position.label in template: 131.A)</title><text x="220.997" y="119.583" class="green" >U</text></g>
<g><line x1="223.042" y1="119.276" x2="230.981" y2="119.276" class="black" /></g>
<g><title>155 (position.label in template: 132.N)</title><text x="214.132" y="117.259" class="green" >C</text></g>
<g><title>156 (position.label in template: 133.N)</title><text x="208.036" y="113.341" class="green" >A</text></g>
<g><title>157 (position.label in template: 134.N)</title><text x="203.071" y="108.062" class="green" >A</text></g>
<g><title>158 (position.label in template: 135.N)</title><text x="199.534" y="101.737" class="green" >A</text></g>
<g><title>159 (position.label in template: 136.U)</title><text x="197.635" y="94.743" class="green" >A</text></g>
<g><title>160 (position.label in template: 137.A)</title><text x="197.487" y="87.4976" class="blue" >A</text></g>
<g><title>161 (position.label in template: 138.U)</title><text x="199.1" y="80.4324" class="blue" >U</text></g>
<g><title>162 (position.label in template: 139.U)</title><text x="202.377" y="73.9688" class="green" >C</text></g>
<g><title>163 (inserted)</title><text x="207.123" y="68.492" class="red" >A</text></g>
<g><title>164 (inserted)</title><text x="213.055" y="64.3287" class="red" >G</text></g>
<g><title>165 (inserted)</title><text x="219.819" y="61.7272" class="red" >C</text></g>
<g><title>166 (inserted)</title><text x="227.012" y="60.8424" class="red" >A</text></g>
<g><title>167 (inserted)</title><text x="234.204" y="61.7272" class="red" >A</text></g>
<g><title>168 (inserted)</title><text x="240.968" y="64.3287" class="red" >A</text></g>
<g><title>169 (inserted)</title><text x="246.9" y="68.492" class="red" >U</text></g>
<g><title>170 (inserted)</title><text x="251.646" y="73.9688" class="red" >C</text></g>
<g><title>171 (inserted)</title><text x="254.923" y="80.4324" class="red" >A</text></g>
<g><title>172 (inserted)</title><text x="256.536" y="87.4976" class="red" >U</text></g>
<g><title>173 (inserted)</title><text x="256.388" y="94.743" class="red" >G</text></g>
<g><title>174 (inserted)</title><text x="254.489" y="101.737" class="red" >A</text></g>
<g><title>175 (inserted)</title><text x="250.952" y="108.062" class="red" >C</text></g>
<g><title>176 (inserted)</title><text x="245.987" y="113.341" class="red" >G</text></g>
<g><title>177 (inserted)</title><text x="239.891" y="117.259" class="red" >A</text></g>
<g><title>178 (position.label in template: 140.U)</title><text x="233.027" y="119.583" class="green" >G</text></g>
<g><title>179 (position.label in template: 141.N)</title><text x="233.177" y="127.353" class="green" >U</text></g>
<g><title>180 (position.label in template: 142.N)</title><text x="233.177" y="134.913" class="green" >C</text></g>
<g><title>181 (position.label in template: 143.C)</title><text x="233.027" y="142.263" class="green" >A</text></g>
<g><title>182 (position.label in template: 144.N)</title><text x="233.177" y="150.033" class="green" >U</text></g>
<g><title>183 (position.label in template: 145.N)</title><text x="236.277" y="156.933" class="green" >A</text></g>
<g><title>184 (position.label in template: 146.A)</title><text x="233.237" y="163.613" class="black" >A</text></g>
<g><title>185 (position.label in template: 147.N)</title><text x="233.177" y="171.383" class="green" >G</text></g>
<g><title>186 (position.label in template: 148.N)</title><text x="233.177" y="178.943" class="green" >U</text></g>
<g><title>187 (inserted)</title><text x="235.417" y="184.851" class="red" >G</text></g>
<g><title>188 (inserted)</title><text x="235.417" y="191.17" class="red" >C</text></g>
<g><title>189 (position.label in template: 149.N)</title><text x="233.177" y="197.077" class="green" >U</text></g>
<g><title>190 (position.label in template: 150.R)</title><text x="233.027" y="204.427" class="green" >C</text></g>
<g><title>191 (position.label in template: 151.N)</title><text x="233.177" y="212.197" class="green" >U</text></g>
<g><title>192 (position.label in template: 152.N)</title><text x="233.177" y="219.757" class="green" >A</text></g>
<g><title>193 (position.label in template: 153.Y)</title><text x="233.237" y="227.107" class="green" >A</text></g>
<g><title>194 (position.label in template: 154.Y)</title><text x="233.237" y="234.667" class="green" >A</text></g>
<g><title>195 (position.label in template: 155.Y)</title><text x="233.237" y="242.227" class="green" >U</text></g>
<g><title>196 (position.label in template: 156.U)</title><text x="233.027" y="249.787" class="green" >A</text></g>
<g><title>197 (position.label in template: 157.N)</title><text x="238.348" y="255.167" class="green" >G</text></g>
<g><title>198 (position.label in template: 158.Y)</title><text x="245.912" y="254.958" class="green" >U</text></g>
<g><title>199 (position.label in template: 159.Y)</title><text x="253.479" y="254.958" class="green" >U</text></g>
<g><title>200 (position.label in template: 160.U)</title><text x="261.047" y="254.958" class="green" >A</text></g>
<g><title>200 (inserted)</title><text x="261.047" y="248.054" class="numbering-label sequential" >200</text></g>
<g><line x1="261.047" y1="253.117" x2="261.047" y2="249.588" class="numbering-line sequential" /></g>
<g><title>201 (position.label in template: 161.Y)</title><text x="268.614" y="254.958" class="green" >U</text></g>
<g><title>202 (position.label in template: 162.U)</title><text x="276.181" y="254.958" class="black" >U</text></g>
<g><title>203 (position.label in template: 163.N)</title><text x="283.745" y="255.164" class="green" >U</text></g>
<g><title>204 (position.label in template: 164.N)</title><text x="291.312" y="255.164" class="green" >U</text></g>
<g><title>205 (position.label in template: 165.N)</title><text x="298.879" y="255.164" class="green" >U</text></g>
<g><title>206 (position.label in template: 166.3')</title><text x="306.446" y="255.164" class="green" >3'</text></g>
<g><line x1="134.944" y1="258.213" x2="138.42" y2="258.213" class="gray" /></g>
<g><line x1="142.511" y1="258.213" x2="145.987" y2="258.213" class="gray" /></g>
<g><line x1="150.078" y1="258.213" x2="153.554" y2="258.213" class="gray" /></g>
<g><line x1="157.644" y1="258.157" x2="161.119" y2="258.061" class="gray" /></g>
<g><line x1="165.063" y1="257.244" x2="168.29" y2="255.954" class="gray" /></g>
<g><line x1="170.205" y1="253.148" x2="170.234" y2="249.47" class="gray" /></g>
<g><line x1="170.233" y1="245.378" x2="170.206" y2="242.119" class="gray" /></g>
<g><line x1="170.095" y1="238.03" x2="169.924" y2="234.347" class="gray" /></g>
<g><line x1="169.93" y1="230.261" x2="170.089" y2="226.997" class="gray" /></g>
<g><line x1="170.174" y1="222.908" x2="170.029" y2="204.119" class="gray" /></g>
<g><line x1="170.029" y1="200.028" x2="170.174" y2="181.239" class="gray" /></g>
<g><line x1="168.176" y1="178.834" x2="164.583" y2="178.193" class="gray" /></g>
<g><line x1="160.597" y1="177.289" x2="157.252" y2="176.367" class="gray" /></g>
<g><line x1="153.385" y1="175.052" x2="150.174" y2="173.745" class="gray" /></g>
<g><line x1="146.5" y1="171.964" x2="143.639" y2="170.342" class="gray" /></g>
<g><line x1="140.176" y1="168.171" x2="137.183" y2="166.105" class="gray" /></g>
<g><line x1="133.984" y1="163.569" x2="131.415" y2="161.238" class="gray" /></g>
<g><line x1="128.547" y1="158.328" x2="126.422" y2="155.918" class="gray" /></g>
<g><line x1="123.912" y1="152.696" x2="121.807" y2="149.63" class="gray" /></g>
<g><line x1="119.695" y1="146.134" x2="118.074" y2="143.062" class="gray" /></g>
<g><line x1="115.208" y1="141.983" x2="112.041" y2="143.193" class="gray" /></g>
<g><line x1="108.175" y1="144.526" x2="104.784" y2="145.571" class="gray" /></g>
<g><line x1="101.111" y1="147.283" x2="98.7481" y2="148.81" class="gray" /></g>
<g><line x1="95.0074" y1="150.228" x2="92.2257" y2="150.65" class="gray" /></g>
<g><line x1="88.2696" y1="151.625" x2="84.9868" y2="152.76" class="gray" /></g>
<g><line x1="81.119" y1="154.094" x2="77.8473" y2="155.221" class="gray" /></g>
<g><line x1="73.9788" y1="156.553" x2="70.6976" y2="157.682" class="gray" /></g>
<g><line x1="67.4401" y1="159.908" x2="65.7808" y2="161.865" class="gray" /></g>
<g><line x1="62.44" y1="163.762" x2="59.9093" y2="164.184" class="gray" /></g>
<g><line x1="56.1334" y1="163.475" x2="53.9284" y2="162.163" class="gray" /></g>
<g><line x1="51.5034" y1="159.184" x2="50.6669" y2="156.758" class="gray" /></g>
<g><line x1="50.7397" y1="152.917" x2="51.6674" y2="150.525" class="gray" /></g>
<g><line x1="54.2037" y1="147.639" x2="56.4567" y2="146.412" class="gray" /></g>
<g><line x1="60.2568" y1="145.846" x2="62.7696" y2="146.364" class="gray" /></g>
<g><line x1="66.7076" y1="146.112" x2="69.9888" y2="144.983" class="gray" /></g>
<g><line x1="73.8568" y1="143.65" x2="77.1396" y2="142.515" class="gray" /></g>
<g><line x1="81.0073" y1="141.181" x2="84.279" y2="140.054" class="gray" /></g>
<g><line x1="85.8782" y1="137.369" x2="85.5168" y2="135.192" class="gray" /></g>
<g><line x1="86.5831" y1="131.683" x2="88.0951" y2="130.075" class="gray" /></g>
<g><line x1="91.5313" y1="128.794" x2="93.7272" y2="129.02" class="gray" /></g>
<g><line x1="96.8298" y1="130.975" x2="97.9819" y2="132.858" class="gray" /></g>
<g><line x1="100.999" y1="133.984" x2="104.19" y2="132.972" class="gray" /></g>
<g><line x1="108.043" y1="131.605" x2="111.026" y2="130.432" class="gray" /></g>
<g><line x1="112.62" y1="127.661" x2="112.099" y2="124.265" class="gray" /></g>
<g><line x1="111.662" y1="120.201" x2="111.447" y2="116.735" class="gray" /></g>
<g><line x1="111.484" y1="112.654" x2="111.765" y2="109.182" class="gray" /></g>
<g><line x1="112.279" y1="105.127" x2="112.87" y2="101.709" class="gray" /></g>
<g><line x1="113.802" y1="97.732" x2="114.727" y2="94.6143" class="gray" /></g>
<g><line x1="116.059" y1="90.7497" x2="117.38" y2="87.3965" class="gray" /></g>
<g><line x1="119.189" y1="83.743" x2="121.04" y2="80.6833" class="gray" /></g>
<g><line x1="123.318" y1="77.2898" x2="125.381" y2="74.5065" class="gray" /></g>
<g><line x1="127.97" y1="71.3441" x2="130.199" y2="68.8722" class="gray" /></g>
<g><line x1="133.134" y1="66.035" x2="135.785" y2="63.8013" class="gray" /></g>
<g><line x1="139.057" y1="61.3571" x2="141.952" y2="59.4491" class="gray" /></g>
<g><line x1="145.485" y1="57.4007" x2="148.584" y2="55.8356" class="gray" /></g>
<g><line x1="152.338" y1="54.2299" x2="155.791" y2="53.0063" class="gray" /></g>
<g><line x1="159.71" y1="51.8499" x2="163.089" y2="51.0464" class="gray" /></g>
<g><line x1="167.111" y1="50.3351" x2="170.558" y2="49.9312" class="gray" /></g>
<g><line x1="174.635" y1="49.6931" x2="178.104" y2="49.6931" class="gray" /></g>
<g><line x1="182.174" y1="49.9893" x2="185.575" y2="50.487" class="gray" /></g>
<g><line x1="189.602" y1="51.1994" x2="193.007" y2="51.9069" class="gray" /></g>
<g><line x1="196.911" y1="53.0782" x2="200.158" y2="54.368" class="gray" /></g>
<g><line x1="203.9" y1="56.0156" x2="206.819" y2="57.4307" class="gray" /></g>
<g><line x1="210.384" y1="59.4235" x2="213.455" y2="61.3828" class="gray" /></g>
<g><line x1="216.709" y1="63.8416" x2="219.37" y2="66.2047" class="gray" /></g>
<g><line x1="222.301" y1="69.0536" x2="224.678" y2="71.5827" class="gray" /></g>
<g><line x1="227.298" y1="74.7165" x2="229.361" y2="77.4998" class="gray" /></g>
<g><line x1="231.597" y1="80.918" x2="233.322" y2="83.9283" class="gray" /></g>
<g><line x1="235.143" y1="87.5843" x2="236.506" y2="90.772" class="gray" /></g>
<g><line x1="237.891" y1="94.6144" x2="238.878" y2="97.9419" class="gray" /></g>
<g><line x1="239.775" y1="101.924" x2="240.274" y2="105.122" class="gray" /></g>
<g><line x1="240.737" y1="109.184" x2="241.002" y2="112.863" class="gray" /></g>
<g><line x1="241.035" y1="116.946" x2="240.854" y2="120.201" class="gray" /></g>
<g><line x1="240.371" y1="124.255" x2="239.708" y2="127.871" class="gray" /></g>
<g><line x1="238.741" y1="131.839" x2="237.788" y2="134.957" class="gray" /></g>
<g><line x1="236.376" y1="138.79" x2="234.913" y2="142.166" class="gray" /></g>
<g><line x1="233.054" y1="145.801" x2="231.385" y2="148.605" class="gray" /></g>
<g><line x1="229.075" y1="151.971" x2="226.854" y2="154.795" class="gray" /></g>
<g><line x1="224.177" y1="157.883" x2="221.782" y2="160.393" class="gray" /></g>
<g><line x1="218.839" y1="163.231" x2="216.23" y2="165.546" class="gray" /></g>
<g><line x1="212.945" y1="167.956" x2="209.954" y2="169.751" class="gray" /></g>
<g><line x1="209.084" y1="172.648" x2="210.625" y2="175.859" class="gray" /></g>
<g><line x1="212.349" y1="179.569" x2="213.77" y2="182.728" class="gray" /></g>
<g><line x1="215.414" y1="186.474" x2="216.845" y2="189.822" class="gray" /></g>
<g><line x1="219.18" y1="193.06" x2="221.769" y2="195.356" class="gray" /></g>
<g><line x1="223.3" y1="198.759" x2="223.3" y2="202.227" class="gray" /></g>
<g><line x1="224.125" y1="206.145" x2="225.424" y2="209.091" class="gray" /></g>
<g><line x1="227.1" y1="212.824" x2="228.649" y2="216.213" class="gray" /></g>
<g><line x1="231.297" y1="219.049" x2="233.63" y2="220.315" class="gray" /></g>
<g><line x1="236.297" y1="223.143" x2="237.424" y2="225.546" class="gray" /></g>
<g><line x1="237.893" y1="229.405" x2="237.375" y2="232.008" class="gray" /></g>
<g><line x1="235.464" y1="235.393" x2="233.503" y2="237.181" class="gray" /></g>
<g><line x1="229.957" y1="238.773" x2="227.318" y2="239.05" class="gray" /></g>
<g><line x1="223.519" y1="238.228" x2="221.229" y2="236.886" class="gray" /></g>
<g><line x1="218.658" y1="233.971" x2="217.611" y2="231.532" class="gray" /></g>
<g><line x1="217.27" y1="227.66" x2="217.874" y2="225.075" class="gray" /></g>
<g><line x1="217.5" y1="221.218" x2="216.079" y2="218.059" class="gray" /></g>
<g><line x1="214.401" y1="214.327" x2="212.978" y2="211.159" class="gray" /></g>
<g><line x1="210.61" y1="207.934" x2="208.019" y2="205.632" class="gray" /></g>
<g><line x1="206.49" y1="202.227" x2="206.49" y2="198.759" class="gray" /></g>
<g><line x1="205.593" y1="194.874" x2="203.926" y2="191.452" class="gray" /></g>
<g><line x1="202.254" y1="187.72" x2="201.065" y2="184.816" class="gray" /></g>
<g><line x1="199.45" y1="181.058" x2="198.029" y2="177.899" class="gray" /></g>
<g><line x1="195.201" y1="176.514" x2="191.738" y2="177.352" class="gray" /></g>
<g><line x1="187.738" y1="178.207" x2="184.441" y2="178.819" class="gray" /></g>
<g><line x1="184.014" y1="177.899" x2="186.555" y2="175.825" class="gray" /></g>
<g><line x1="189.974" y1="173.625" x2="192.915" y2="172.171" class="gray" /></g>
<g><line x1="196.739" y1="170.791" x2="199.93" y2="170.032" class="gray" /></g>
<g><line x1="203.966" y1="169.542" x2="207.246" y2="169.515" class="gray" /></g>
<g><line x1="211.289" y1="169.941" x2="214.492" y2="170.648" class="gray" /></g>
<g><line x1="218.338" y1="171.967" x2="221.302" y2="173.373" class="gray" /></g>
<g><line x1="224.755" y1="175.519" x2="227.329" y2="177.552" class="gray" /></g>
<g><line x1="230.216" y1="180.415" x2="232.27" y2="182.973" class="gray" /></g>
<g><line x1="234.442" y1="186.409" x2="235.873" y2="189.361" class="gray" /></g>
<g><line x1="237.222" y1="193.196" x2="237.956" y2="196.394" class="gray" /></g>
<g><line x1="238.413" y1="200.433" x2="238.413" y2="203.714" class="gray" /></g>
<g><line x1="237.956" y1="207.753" x2="237.222" y2="210.951" class="gray" /></g>
<g><line x1="235.873" y1="214.786" x2="234.442" y2="217.738" class="gray" /></g>
<g><line x1="232.27" y1="221.174" x2="230.216" y2="223.732" class="gray" /></g>
<g><line x1="227.329" y1="226.595" x2="224.755" y2="228.628" class="gray" /></g>
<g><line x1="221.302" y1="230.774" x2="218.338" y2="232.18" class="gray" /></g>
<g><line x1="214.492" y1="233.499" x2="211.289" y2="234.206" class="gray" /></g>
<g><line x1="207.246" y1="234.632" x2="203.966" y2="234.605" class="gray" /></g>
<g><line x1="199.93" y1="234.115" x2="196.739" y2="233.356" class="gray" /></g>
<g><line x1="192.915" y1="231.976" x2="189.974" y2="230.522" class="gray" /></g>
<g><line x1="186.555" y1="228.322" x2="184.014" y2="226.248" class="gray" /></g>
<g><line x1="182.446" y1="226.999" x2="182.473" y2="230.258" class="gray" /></g>
<g><line x1="182.474" y1="234.35" x2="182.445" y2="238.028" class="gray" /></g>
<g><line x1="182.388" y1="242.119" x2="182.321" y2="245.379" class="gray" /></g>
<g><line x1="182.319" y1="249.469" x2="182.39" y2="253.149" class="gray" /></g>
<g><line x1="183.884" y1="256.632" x2="186.175" y2="258.896" class="gray" /></g>
<g><line x1="189.675" y1="260.334" x2="193.344" y2="260.334" class="gray" /></g>
<g><line x1="197.434" y1="260.391" x2="200.855" y2="260.487" class="gray" /></g>
<g><line x1="204.945" y1="260.544" x2="208.414" y2="260.544" class="gray" /></g>
<g><line x1="211.855" y1="259.048" x2="214.227" y2="256.508" class="gray" /></g>
<g><line x1="217.019" y1="253.517" x2="219.391" y2="250.976" class="gray" /></g>
<g><line x1="220.787" y1="247.435" x2="220.787" y2="243.966" class="gray" /></g>
<g><line x1="220.787" y1="239.875" x2="220.787" y2="236.406" class="gray" /></g>
<g><line x1="220.787" y1="232.315" x2="220.787" y2="228.846" class="gray" /></g>
<g><line x1="220.828" y1="224.755" x2="220.895" y2="221.496" class="gray" /></g>
<g><line x1="220.937" y1="217.405" x2="220.937" y2="213.936" class="gray" /></g>
<g><line x1="220.952" y1="209.845" x2="220.981" y2="206.166" class="gray" /></g>
<g><line x1="220.98" y1="202.075" x2="220.953" y2="198.816" class="gray" /></g>
<g><line x1="220.211" y1="194.858" x2="219.422" y2="192.776" class="gray" /></g>
<g><line x1="218.696" y1="188.817" x2="218.696" y2="186.59" class="gray" /></g>
<g><line x1="219.422" y1="182.632" x2="220.211" y2="180.549" class="gray" /></g>
<g><line x1="220.937" y1="176.591" x2="220.937" y2="173.122" class="gray" /></g>
<g><line x1="220.897" y1="169.031" x2="220.826" y2="165.352" class="gray" /></g>
<g><line x1="219.96" y1="161.435" x2="218.663" y2="158.498" class="gray" /></g>
<g><line x1="218.675" y1="154.76" x2="220.098" y2="151.592" class="gray" /></g>
<g><line x1="220.842" y1="147.683" x2="220.671" y2="144" class="gray" /></g>
<g><line x1="220.677" y1="139.913" x2="220.836" y2="136.65" class="gray" /></g>
<g><line x1="220.937" y1="132.561" x2="220.937" y2="129.092" class="gray" /></g>
<g><line x1="220.952" y1="125.001" x2="220.981" y2="121.322" class="gray" /></g>
<g><line x1="219.059" y1="118.62" x2="216.07" y2="117.608" class="gray" /></g>
<g><line x1="212.412" y1="115.846" x2="209.757" y2="114.14" class="gray" /></g>
<g><line x1="206.635" y1="111.544" x2="204.473" y2="109.245" class="gray" /></g>
<g><line x1="202.073" y1="105.969" x2="200.533" y2="103.215" class="gray" /></g>
<g><line x1="198.998" y1="99.4556" x2="198.171" y2="96.4104" class="gray" /></g>
<g><line x1="197.593" y1="92.3909" x2="197.529" y2="89.236" class="gray" /></g>
<g><line x1="197.943" y1="85.1963" x2="198.645" y2="82.12" class="gray" /></g>
<g><line x1="200.025" y1="78.301" x2="201.452" y2="75.4865" class="gray" /></g>
<g><line x1="203.717" y1="72.1159" x2="205.784" y2="69.7312" class="gray" /></g>
<g><line x1="208.798" y1="67.0099" x2="211.381" y2="65.1971" class="gray" /></g>
<g><line x1="214.964" y1="63.2875" x2="217.909" y2="62.1547" class="gray" /></g>
<g><line x1="221.849" y1="61.1705" x2="224.981" y2="60.7853" class="gray" /></g>
<g><line x1="229.042" y1="60.7853" x2="232.174" y2="61.1705" class="gray" /></g>
<g><line x1="236.114" y1="62.1547" x2="239.059" y2="63.2875" class="gray" /></g>
<g><line x1="242.643" y1="65.1971" x2="245.225" y2="67.0099" class="gray" /></g>
<g><line x1="248.239" y1="69.7312" x2="250.306" y2="72.1159" class="gray" /></g>
<g><line x1="252.571" y1="75.4865" x2="253.998" y2="78.301" class="gray" /></g>
<g><line x1="255.378" y1="82.12" x2="256.08" y2="85.1963" class="gray" /></g>
<g><line x1="256.494" y1="89.236" x2="256.43" y2="92.3909" class="gray" /></g>
<g><line x1="255.852" y1="96.4104" x2="255.025" y2="99.4556" class="gray" /></g>
<g><line x1="253.49" y1="103.215" x2="251.95" y2="105.969" class="gray" /></g>
<g><line x1="249.55" y1="109.245" x2="247.388" y2="111.544" class="gray" /></g>
<g><line x1="244.266" y1="114.14" x2="241.612" y2="115.846" class="gray" /></g>
<g><line x1="237.953" y1="117.608" x2="234.964" y2="118.62" class="gray" /></g>
<g><line x1="233.066" y1="121.322" x2="233.137" y2="125.001" class="gray" /></g>
<g><line x1="233.177" y1="129.092" x2="233.177" y2="132.561" class="gray" /></g>
<g><line x1="233.135" y1="136.652" x2="233.068" y2="139.911" class="gray" /></g>
<g><line x1="233.066" y1="144.002" x2="233.137" y2="147.681" class="gray" /></g>
<g><line x1="234.015" y1="151.592" x2="235.438" y2="154.76" class="gray" /></g>
<g><line x1="235.429" y1="158.488" x2="234.084" y2="161.444" class="gray" /></g>
<g><line x1="233.221" y1="165.352" x2="233.192" y2="169.031" class="gray" /></g>
<g><line x1="233.177" y1="173.122" x2="233.177" y2="176.591" class="gray" /></g>
<g><line x1="233.902" y1="180.549" x2="234.692" y2="182.632" class="gray" /></g>
<g><line x1="235.417" y1="186.59" x2="235.417" y2="188.817" class="gray" /></g>
<g><line x1="234.692" y1="192.776" x2="233.902" y2="194.858" class="gray" /></g>
<g><line x1="233.135" y1="198.816" x2="233.068" y2="202.075" class="gray" /></g>
<g><line x1="233.066" y1="206.166" x2="233.137" y2="209.845" class="gray" /></g>
<g><line x1="233.177" y1="213.936" x2="233.177" y2="217.405" class="gray" /></g>
<g><line x1="233.193" y1="221.496" x2="233.22" y2="224.755" class="gray" /></g>
<g><line x1="233.237" y1="228.846" x2="233.237" y2="232.315" class="gray" /></g>
<g><line x1="233.237" y1="236.406" x2="233.237" y2="239.875" class="gray" /></g>
<g><line x1="233.18" y1="243.966" x2="233.083" y2="247.436" class="gray" /></g>
<g><line x1="234.465" y1="250.935" x2="236.91" y2="253.406" class="gray" /></g>
<g><line x1="240.393" y1="254.804" x2="243.867" y2="254.708" class="gray" /></g>
<g><line x1="247.958" y1="254.652" x2="251.434" y2="254.652" class="gray" /></g>
<g><line x1="255.525" y1="254.652" x2="259.001" y2="254.652" class="gray" /></g>
<g><line x1="263.092" y1="254.652" x2="266.568" y2="254.652" class="gray" /></g>
<g><line x1="270.659" y1="254.652" x2="274.135" y2="254.652" class="gray" /></g>
<g><line x1="278.226" y1="254.707" x2="281.7" y2="254.802" class="gray" /></g>
<g><line x1="285.791" y1="254.858" x2="289.266" y2="254.858" class="gray" /></g>
<g><line x1="293.358" y1="254.858" x2="296.833" y2="254.858" class="gray" /></g>
<g><line x1="300.925" y1="254.858" x2="304.4" y2="254.858" class="gray" /></g>
</svg>
