<svg
	xmlns="http://www.w3.org/2000/svg"
	width="233.74"
	height="243.618"
	style="font-size: 3.048045px; font-weight: bold; font-family: Helvetica; " >
<g><style type="text/css" >
<!-- create color definitions -->
<![CDATA[
text.red {fill: rgb(255, 0, 255); }
text.green {fill: rgb(0, 255, 0); }
text.blue {fill: rgb(0, 0, 255); }
text.black {fill: rgb(0, 0, 0); }
text.gray {fill: rgb(204, 204, 204); }
text.brown {fill: rgb(211.65, 104.55, 30.6); }
text {fill: rgb(0, 0, 0); text-anchor: middle; alignment-baseline: middle; }
circle.red {stroke: rgb(255, 0, 255); fill: none; }
circle.green {stroke: rgb(0, 255, 0); fill: none; }
circle.blue {stroke: rgb(0, 0, 255); fill: none; }
circle.black {stroke: rgb(0, 0, 0); fill: none; }
circle.gray {stroke: rgb(204, 204, 204); fill: none; }
circle.brown {stroke: rgb(211.65, 104.55, 30.6); fill: none; }
circle {stroke: rgb(0, 0, 0); }
line.red {stroke: rgb(255, 0, 255); stroke-width: 0.381006; }
line.green {stroke: rgb(0, 255, 0); stroke-width: 0.381006; }
line.blue {stroke: rgb(0, 0, 255); stroke-width: 0.381006; }
line.black {stroke: rgb(0, 0, 0); stroke-width: 0.381006; }
line.gray {stroke: rgb(204, 204, 204); stroke-width: 0.381006; }
line.brown {stroke: rgb(211.65, 104.55, 30.6); stroke-width: 0.381006; }
line {stroke: rgb(0, 0, 0); }
text.numbering-label {fill: rgb(204, 204, 204);}
line.numbering-line {stroke: rgb(204, 204, 204); stroke-width: 0.190503;}
line.predicted {stroke: rgb(0, 0, 0); stroke-dasharray: 2}
text.background {fill: rgb(255, 255, 255);
.template {visibility:hidden}
]]>
</style></g>
<g><title>0 (position.label in template: 0.5')</title><text x="112.352" y="49.428" class="green" >5'</text></g>
<g><title>1 (position.label in template: 2.N)</title><text x="112.41" y="56.9383" class="green" >G</text></g>
<g><line x1="114.442" y1="56.6335" x2="122.618" y2="56.6335" class="black" /></g>
<g><title>2 (position.label in template: 3.Y)</title><text x="112.47" y="64.7083" class="green" >C</text></g>
<g><line x1="114.502" y1="64.4035" x2="122.258" y2="64.4035" class="black" /></g>
<g><title>3 (position.label in template: 4.N)</title><text x="112.41" y="72.0583" class="green" >C</text></g>
<g><line x1="114.442" y1="71.7535" x2="122.618" y2="71.7535" class="black" /></g>
<g><title>4 (position.label in template: 5.Y)</title><text x="112.47" y="79.8283" class="green" >U</text></g>
<g><line x1="114.502" y1="79.5235" x2="122.468" y2="79.5235" class="black" /></g>
<g><title>5 (position.label in template: 6.Y)</title><text x="112.47" y="87.3883" class="green" >U</text></g>
<g><line x1="114.502" y1="87.0835" x2="122.468" y2="87.0835" class="black" /></g>
<g><title>6 (position.label in template: 7.R)</title><text x="112.26" y="94.9483" class="green" >C</text></g>
<g><line x1="114.292" y1="94.6091" x2="122.618" y2="94.468" class="black" /></g>
<g><title>7 (position.label in template: 8.U)</title><text x="106.678" y="96.7031" class="green" >A</text></g>
<g><title>8 (position.label in template: 9.R)</title><text x="101.917" y="100.106" class="green" >U</text></g>
<g><title>9 (inserted)</title><text x="98.4501" y="104.82" class="red" >G</text></g>
<g><title>10 (position.label in template: 10.G)</title><text x="96.62" y="110.378" class="black" >G</text></g>
<g><line x1="96.6549" y1="112.105" x2="96.7951" y2="120.282" class="black" /></g>
<g><title>10 (inserted)</title><text x="93.068" y="104.512" class="numbering-label sequential" >10</text></g>
<g><line x1="95.6728" y1="108.814" x2="93.9907" y2="106.036" class="numbering-line sequential" /></g>
<g><title>11 (position.label in template: 11.C)</title><text x="89.27" y="110.378" class="green" >U</text></g>
<g><line x1="89.2351" y1="112.105" x2="89.0949" y2="120.282" class="black" /></g>
<g><title>12 (position.label in template: 12.U)</title><text x="81.71" y="110.378" class="green" >G</text></g>
<g><line x1="81.7449" y1="112.105" x2="81.8851" y2="120.282" class="black" /></g>
<g><title>13 (position.label in template: 13.Y)</title><text x="74.36" y="110.378" class="green" >U</text></g>
<g><line x1="74.3251" y1="112.105" x2="74.1849" y2="120.282" class="black" /></g>
<g><title>14 (position.label in template: 14.A)</title><text x="69.02" y="105.018" class="black" >A</text></g>
<g><title>15 (position.label in template: 15.G)</title><text x="61.19" y="103.538" class="green" >A</text></g>
<g><title>16 (position.label in template: 16.U)</title><text x="54.41" y="106.428" class="black" >U</text></g>
<g><title>17 (position.label in template: 17.G)</title><text x="50" y="112.718" class="black" >G</text></g>
<g><title>18 (position.label in template: 18.G)</title><text x="50" y="120.278" class="black" >G</text></g>
<g><title>19 (position.label in template: 19.U)</title><text x="54.41" y="126.558" class="black" >U</text></g>
<g><title>20 (position.label in template: 20.N)</title><text x="61.55" y="129.238" class="green" >C</text></g>
<g><title>20 (inserted)</title><text x="60.8912" y="136.065" class="numbering-label sequential" >20</text></g>
<g><line x1="61.3743" y1="131.059" x2="61.0383" y2="134.541" class="numbering-line sequential" /></g>
<g><title>21 (position.label in template: 21.A)</title><text x="69.02" y="127.968" class="black" >A</text></g>
<g><title>22 (position.label in template: 22.R)</title><text x="74.15" y="122.618" class="green" >G</text></g>
<g><title>23 (position.label in template: 23.A)</title><text x="81.92" y="122.618" class="green" >C</text></g>
<g><title>24 (position.label in template: 24.G)</title><text x="89.06" y="122.618" class="green" >A</text></g>
<g><title>25 (position.label in template: 25.C)</title><text x="96.83" y="122.618" class="black" >C</text></g>
<g><title>26 (position.label in template: 26.R)</title><text x="98.6366" y="135.732" class="green" >A</text></g>
<g><title>27 (position.label in template: 29.N)</title><text x="100.56" y="148.828" class="green" >C</text></g>
<g><line x1="102.476" y1="149.199" x2="110.184" y2="151.918" class="black" /></g>
<g><title>28 (position.label in template: 30.N)</title><text x="98.05" y="155.958" class="green" >U</text></g>
<g><line x1="99.9663" y1="156.329" x2="107.674" y2="159.048" class="black" /></g>
<g><title>29 (position.label in template: 31.N)</title><text x="95.53" y="163.088" class="green" >G</text></g>
<g><line x1="97.4463" y1="163.459" x2="105.154" y2="166.178" class="black" /></g>
<g><title>30 (position.label in template: 32.C)</title><text x="88.9161" y="165.126" class="green" >A</text></g>
<g><title>30 (inserted)</title><text x="85.4697" y="159.197" class="numbering-label sequential" >30</text></g>
<g><line x1="87.9971" y1="163.545" x2="86.3556" y2="160.721" class="numbering-line sequential" /></g>
<g><title>31 (position.label in template: 33.U)</title><text x="83.8717" y="169.865" class="green" >G</text></g>
<g><title>32 (position.label in template: 34.N)</title><text x="81.4241" y="176.338" class="green" >C</text></g>
<g><title>33 (position.label in template: 35.G)</title><text x="82.0718" y="183.229" class="green" >C</text></g>
<g><title>34 (position.label in template: 36.U)</title><text x="85.6829" y="189.133" class="green" >G</text></g>
<g><title>35 (position.label in template: 37.A)</title><text x="91.5219" y="192.848" class="green" >G</text></g>
<g><title>36 (position.label in template: 38.A)</title><text x="98.3998" y="193.618" class="green" >U</text></g>
<g><title>37 (inserted)</title><text x="104.916" y="191.285" class="red" >A</text></g>
<g><title>38 (inserted)</title><text x="109.743" y="186.326" class="red" >U</text></g>
<g><title>39 (inserted)</title><text x="111.898" y="179.749" class="red" >U</text></g>
<g><title>40 (inserted)</title><text x="110.942" y="172.895" class="red" >U</text></g>
<g><title>41 (position.label in template: 39.N)</title><text x="107.07" y="167.158" class="green" >C</text></g>
<g><title>42 (position.label in template: 40.N)</title><text x="109.59" y="160.028" class="green" >A</text></g>
<g><title>43 (position.label in template: 41.N)</title><text x="112.1" y="152.898" class="green" >G</text></g>
<g><title>44 (position.label in template: 44.A)</title><text x="116.241" y="144.655" class="blue" >A</text></g>
<g><title>45 (position.label in template: 45.G)</title><text x="120.33" y="136.386" class="blue" >G</text></g>
<g><title>46 (position.label in template: 46.R)</title><text x="124.369" y="128.091" class="green" >G</text></g>
<g><title>47 (position.label in template: 47.U)</title><text x="128.355" y="119.772" class="blue" >U</text></g>
<g><title>48 (position.label in template: 49.N)</title><text x="132.29" y="111.428" class="green" >C</text></g>
<g><line x1="132.154" y1="109.096" x2="131.606" y2="100.941" class="black" /></g>
<g><title>49 (position.label in template: 50.Y)</title><text x="139.76" y="111.128" class="green" >C</text></g>
<g><line x1="139.597" y1="108.798" x2="138.933" y2="100.519" class="black" /></g>
<g><title>50 (position.label in template: 51.N)</title><text x="147.37" y="110.418" class="green" >G</text></g>
<g><line x1="147.234" y1="108.086" x2="146.686" y2="99.931" class="black" /></g>
<g><title>50 (inserted)</title><text x="145.783" y="117.09" class="numbering-label sequential" >50</text></g>
<g><line x1="146.947" y1="112.198" x2="146.146" y2="115.566" class="numbering-line sequential" /></g>
<g><title>51 (inserted)</title><text x="151.24" y="113.858" class="red" >C</text></g>
<g><title>52 (position.label in template: 52.R)</title><text x="154.68" y="109.988" class="green" >G</text></g>
<g><line x1="154.571" y1="107.654" x2="154.139" y2="99.6226" class="black" /></g>
<g><title>53 (position.label in template: 53.G)</title><text x="162.05" y="109.368" class="black" >G</text></g>
<g><line x1="161.941" y1="107.034" x2="161.509" y2="98.9926" class="black" /></g>
<g><title>54 (position.label in template: 54.U)</title><text x="168.3" y="113.968" class="black" >U</text></g>
<g><title>55 (position.label in template: 55.U)</title><text x="175.87" y="113.868" class="black" >U</text></g>
<g><title>56 (position.label in template: 56.C)</title><text x="181.82" y="109.198" class="black" >C</text></g>
<g><title>57 (position.label in template: 57.R)</title><text x="183.74" y="101.888" class="green" >G</text></g>
<g><title>58 (position.label in template: 58.A)</title><text x="181.03" y="95.0283" class="black" >A</text></g>
<g><title>59 (position.label in template: 59.N)</title><text x="174.58" y="91.0083" class="green" >U</text></g>
<g><title>60 (position.label in template: 60.U)</title><text x="166.82" y="91.9983" class="black" >U</text></g>
<g><title>61 (position.label in template: 61.C)</title><text x="161.4" y="97.2683" class="black" >C</text></g>
<g><title>62 (position.label in template: 62.Y)</title><text x="154.03" y="97.8983" class="green" >C</text></g>
<g><title>63 (position.label in template: 63.N)</title><text x="146.55" y="98.2083" class="green" >C</text></g>
<g><title>64 (position.label in template: 64.R)</title><text x="138.77" y="98.7983" class="green" >G</text></g>
<g><title>65 (position.label in template: 65.N)</title><text x="131.47" y="99.2183" class="green" >G</text></g>
<g><title>66 (inserted)</title><text x="130.3" y="93.5683" class="red" >C</text></g>
<g><title>67 (position.label in template: 66.N)</title><text x="124.65" y="94.7383" class="green" >G</text></g>
<g><title>68 (position.label in template: 67.R)</title><text x="124.5" y="87.3883" class="green" >A</text></g>
<g><title>69 (position.label in template: 68.R)</title><text x="124.5" y="79.8283" class="green" >A</text></g>
<g><title>70 (position.label in template: 69.N)</title><text x="124.65" y="72.0583" class="green" >G</text></g>
<g><title>71 (position.label in template: 70.G)</title><text x="124.29" y="64.7083" class="green" >G</text></g>
<g><title>72 (position.label in template: 71.N)</title><text x="124.65" y="56.9383" class="green" >C</text></g>
<g><title>73 (position.label in template: 73.N)</title><text x="127.525" y="50" class="green" >A</text></g>
<g><title>74 (position.label in template: 74.3')</title><text x="127.048" y="42.5047" class="green" >3'</text></g>
<g><line x1="112.368" y1="51.1552" x2="112.394" y2="54.6016" class="gray" /></g>
<g><line x1="112.426" y1="58.6655" x2="112.454" y2="62.3716" class="gray" /></g>
<g><line x1="112.453" y1="66.4355" x2="112.427" y2="69.7216" class="gray" /></g>
<g><line x1="112.426" y1="73.7855" x2="112.454" y2="77.4916" class="gray" /></g>
<g><line x1="112.47" y1="81.5556" x2="112.47" y2="85.0515" class="gray" /></g>
<g><line x1="112.414" y1="89.1148" x2="112.316" y2="92.6123" class="gray" /></g>
<g><line x1="110.321" y1="95.2529" x2="108.616" y2="95.789" class="gray" /></g>
<g><line x1="105.024" y1="97.58" x2="103.57" y2="98.6196" class="gray" /></g>
<g><line x1="100.713" y1="101.438" x2="99.654" y2="102.878" class="gray" /></g>
<g><line x1="97.8146" y1="106.445" x2="97.2555" y2="108.143" class="gray" /></g>
<g><line x1="94.588" y1="110.074" x2="91.302" y2="110.074" class="gray" /></g>
<g><line x1="87.238" y1="110.074" x2="83.742" y2="110.074" class="gray" /></g>
<g><line x1="79.678" y1="110.074" x2="76.392" y2="110.074" class="gray" /></g>
<g><line x1="72.9258" y1="108.634" x2="70.4542" y2="106.153" class="gray" /></g>
<g><line x1="67.0233" y1="104.336" x2="63.1867" y2="103.611" class="gray" /></g>
<g><line x1="59.3207" y1="104.03" x2="56.2793" y2="105.327" class="gray" /></g>
<g><line x1="53.2435" y1="107.787" x2="51.1665" y2="110.75" class="gray" /></g>
<g><line x1="50" y1="114.446" x2="50" y2="117.942" class="gray" /></g>
<g><line x1="51.1678" y1="121.636" x2="53.2422" y2="124.591" class="gray" /></g>
<g><line x1="56.3124" y1="126.968" x2="59.6476" y2="128.219" class="gray" /></g>
<g><line x1="63.5533" y1="128.593" x2="67.0167" y2="128.004" class="gray" /></g>
<g><line x1="70.4264" y1="126.197" x2="72.7436" y2="123.78" class="gray" /></g>
<g><line x1="76.182" y1="122.314" x2="79.888" y2="122.314" class="gray" /></g>
<g><line x1="83.952" y1="122.314" x2="87.028" y2="122.314" class="gray" /></g>
<g><line x1="91.092" y1="122.314" x2="94.798" y2="122.314" class="gray" /></g>
<g><line x1="97.1073" y1="124.327" x2="98.3593" y2="133.414" class="gray" /></g>
<g><line x1="98.9319" y1="137.437" x2="100.265" y2="146.513" class="gray" /></g>
<g><line x1="99.8852" y1="150.44" x2="98.7248" y2="153.737" class="gray" /></g>
<g><line x1="97.3729" y1="157.569" x2="96.2071" y2="160.868" class="gray" /></g>
<g><line x1="93.5881" y1="163.382" x2="90.858" y2="164.223" class="gray" /></g>
<g><line x1="87.435" y1="166.213" x2="85.3528" y2="168.169" class="gray" /></g>
<g><line x1="83.1531" y1="171.461" x2="82.1427" y2="174.133" class="gray" /></g>
<g><line x1="81.6143" y1="178.057" x2="81.8816" y2="180.901" class="gray" /></g>
<g><line x1="83.1321" y1="184.657" x2="84.6226" y2="187.094" class="gray" /></g>
<g><line x1="87.3973" y1="189.919" x2="89.8075" y2="191.452" class="gray" /></g>
<g><line x1="93.5413" y1="192.769" x2="96.3803" y2="193.087" class="gray" /></g>
<g><line x1="100.313" y1="192.628" x2="103.003" y2="191.665" class="gray" /></g>
<g><line x1="106.333" y1="189.524" x2="108.325" y2="187.477" class="gray" /></g>
<g><line x1="110.375" y1="184.09" x2="111.265" y2="181.375" class="gray" /></g>
<g><line x1="111.617" y1="177.432" x2="111.223" y2="174.602" class="gray" /></g>
<g><line x1="109.805" y1="170.906" x2="108.207" y2="168.538" class="gray" /></g>
<g><line x1="107.747" y1="164.938" x2="108.913" y2="161.639" class="gray" /></g>
<g><line x1="110.265" y1="157.807" x2="111.425" y2="154.51" class="gray" /></g>
<g><line x1="113.012" y1="150.778" x2="115.329" y2="146.166" class="gray" /></g>
<g><line x1="117.142" y1="142.529" x2="119.43" y2="137.902" class="gray" /></g>
<g><line x1="121.22" y1="134.254" x2="123.479" y2="129.614" class="gray" /></g>
<g><line x1="125.247" y1="125.954" x2="127.477" y2="121.3" class="gray" /></g>
<g><line x1="129.222" y1="117.629" x2="131.423" y2="112.961" class="gray" /></g>
<g><line x1="134.32" y1="111.042" x2="137.73" y2="110.905" class="gray" /></g>
<g><line x1="141.783" y1="110.635" x2="145.347" y2="110.302" class="gray" /></g>
<g><line x1="148.889" y1="111.464" x2="149.721" y2="112.204" class="gray" /></g>
<g><line x1="152.59" y1="112.035" x2="153.33" y2="111.202" class="gray" /></g>
<g><line x1="156.705" y1="109.513" x2="160.025" y2="109.234" class="gray" /></g>
<g><line x1="163.687" y1="110.268" x2="166.663" y2="112.459" class="gray" /></g>
<g><line x1="170.332" y1="113.637" x2="173.838" y2="113.59" class="gray" /></g>
<g><line x1="177.468" y1="112.309" x2="180.222" y2="110.148" class="gray" /></g>
<g><line x1="182.336" y1="106.928" x2="183.224" y2="103.549" class="gray" /></g>
<g><line x1="182.993" y1="99.6936" x2="181.777" y2="96.6134" class="gray" /></g>
<g><line x1="179.305" y1="93.6487" x2="176.305" y2="91.7783" class="gray" /></g>
<g><line x1="172.564" y1="90.9607" x2="168.836" y2="91.4364" class="gray" /></g>
<g><line x1="165.363" y1="93.1101" x2="162.857" y2="95.547" class="gray" /></g>
<g><line x1="159.375" y1="97.1366" x2="156.055" y2="97.4205" class="gray" /></g>
<g><line x1="152" y1="97.6777" x2="148.58" y2="97.8194" class="gray" /></g>
<g><line x1="144.524" y1="98.0572" x2="140.796" y2="98.3399" class="gray" /></g>
<g><line x1="136.741" y1="98.6102" x2="133.499" y2="98.7968" class="gray" /></g>
<g><line x1="131.058" y1="96.9237" x2="130.712" y2="95.2533" class="gray" /></g>
<g><line x1="128.31" y1="93.6756" x2="126.64" y2="94.0215" class="gray" /></g>
<g><line x1="124.609" y1="92.4019" x2="124.541" y2="89.1151" class="gray" /></g>
<g><line x1="124.5" y1="85.0515" x2="124.5" y2="81.5556" class="gray" /></g>
<g><line x1="124.539" y1="77.4919" x2="124.611" y2="73.7852" class="gray" /></g>
<g><line x1="124.551" y1="69.7239" x2="124.389" y2="66.4331" class="gray" /></g>
<g><line x1="124.384" y1="62.3737" x2="124.556" y2="58.6634" class="gray" /></g>
<g><line x1="125.428" y1="54.7563" x2="126.747" y2="51.5724" class="gray" /></g>
<g><line x1="127.396" y1="47.6673" x2="127.177" y2="44.2278" class="gray" /></g>
</svg>
