<svg
	xmlns="http://www.w3.org/2000/svg"
	width="448.088"
	height="272.66"
	style="font-size: 3.045014px; font-weight: bold; font-family: Helvetica; " >
<g><style type="text/css" >
<!-- create color definitions -->
<![CDATA[
text.red {fill: rgb(255, 0, 255); }
text.green {fill: rgb(0, 255, 0); }
text.blue {fill: rgb(0, 0, 255); }
text.black {fill: rgb(0, 0, 0); }
text.gray {fill: rgb(204, 204, 204); }
text.brown {fill: rgb(211.65, 104.55, 30.6); }
text {fill: rgb(0, 0, 0); text-anchor: middle; alignment-baseline: middle; }
circle.red {stroke: rgb(255, 0, 255); fill: none; }
circle.green {stroke: rgb(0, 255, 0); fill: none; }
circle.blue {stroke: rgb(0, 0, 255); fill: none; }
circle.black {stroke: rgb(0, 0, 0); fill: none; }
circle.gray {stroke: rgb(204, 204, 204); fill: none; }
circle.brown {stroke: rgb(211.65, 104.55, 30.6); fill: none; }
circle {stroke: rgb(0, 0, 0); }
line.red {stroke: rgb(255, 0, 255); stroke-width: 0.380627; }
line.green {stroke: rgb(0, 255, 0); stroke-width: 0.380627; }
line.blue {stroke: rgb(0, 0, 255); stroke-width: 0.380627; }
line.black {stroke: rgb(0, 0, 0); stroke-width: 0.380627; }
line.gray {stroke: rgb(204, 204, 204); stroke-width: 0.380627; }
line.brown {stroke: rgb(211.65, 104.55, 30.6); stroke-width: 0.380627; }
line {stroke: rgb(0, 0, 0); }
text.numbering-label {fill: rgb(204, 204, 204);}
line.numbering-line {stroke: rgb(204, 204, 204); stroke-width: 0.190313;}
line.predicted {stroke: rgb(0, 0, 0); stroke-dasharray: 2}
text.background {fill: rgb(255, 255, 255);
.template {visibility:hidden}
]]>
</style></g>
<g><title>0 (position.label in template: 0.5')</title><text x="42.4426" y="222.554" class="green" >5'</text></g>
<g><title>1 (position.label in template: 1.U)</title><text x="50" y="222.554" class="green" >G</text></g>
<g><title>2 (position.label in template: 2.C)</title><text x="57.5574" y="222.554" class="green" >U</text></g>
<g><title>3 (position.label in template: 3.G)</title><text x="65.1149" y="222.554" class="green" >U</text></g>
<g><title>4 (position.label in template: 4.U)</title><text x="72.6723" y="222.554" class="black" >U</text></g>
<g><title>5 (position.label in template: 5.U)</title><text x="80.2298" y="222.554" class="black" >U</text></g>
<g><title>6 (position.label in template: 6.U)</title><text x="87.7872" y="222.554" class="green" >A</text></g>
<g><title>7 (position.label in template: 7.A)</title><text x="95.3447" y="222.554" class="green" >U</text></g>
<g><title>8 (position.label in template: 8.A)</title><text x="100.689" y="217.21" class="black" >A</text></g>
<g><line x1="102.719" y1="216.906" x2="110.689" y2="216.906" class="black" /></g>
<g><title>9 (position.label in template: 9.U)</title><text x="100.479" y="209.65" class="black" >U</text></g>
<g><line x1="102.509" y1="209.346" x2="110.479" y2="209.346" class="black" /></g>
<g><title>10 (position.label in template: 10.C)</title><text x="100.479" y="202.09" class="black" >C</text></g>
<g><line x1="102.509" y1="201.786" x2="110.479" y2="201.786" class="black" /></g>
<g><title>10 (inserted)</title><text x="93.628" y="201.995" class="numbering-label sequential" >10</text></g>
<g><line x1="98.6517" y1="202.065" x2="95.455" y2="202.021" class="numbering-line sequential" /></g>
<g><title>11 (position.label in template: 11.A)</title><text x="100.689" y="194.53" class="green" >G</text></g>
<g><line x1="102.719" y1="194.226" x2="110.689" y2="194.226" class="black" /></g>
<g><title>12 (position.label in template: 12.U)</title><text x="95.7686" y="188.62" class="black" >U</text></g>
<g><title>13 (position.label in template: 13.U)</title><text x="95.7686" y="181.06" class="black" >U</text></g>
<g><title>14 (position.label in template: 14.G)</title><text x="100.269" y="175.14" class="black" >G</text></g>
<g><line x1="102.299" y1="174.836" x2="110.689" y2="174.836" class="black" /></g>
<g><title>15 (position.label in template: 15.A)</title><text x="100.689" y="167.58" class="black" >A</text></g>
<g><line x1="102.719" y1="167.276" x2="110.689" y2="167.276" class="black" /></g>
<g><title>16 (position.label in template: 16.U)</title><text x="100.479" y="160.02" class="green" >A</text></g>
<g><line x1="102.509" y1="159.716" x2="110.899" y2="159.716" class="black" /></g>
<g><title>17 (position.label in template: 17.G)</title><text x="100.269" y="152.46" class="black" >G</text></g>
<g><line x1="102.299" y1="152.156" x2="110.689" y2="152.156" class="black" /></g>
<g><title>18 (position.label in template: 18.A)</title><text x="100.689" y="144.9" class="green" >U</text></g>
<g><line x1="102.719" y1="144.596" x2="110.689" y2="144.596" class="black" /></g>
<g><title>19 (position.label in template: 19.U)</title><text x="95.7686" y="138.98" class="black" >U</text></g>
<g><title>20 (position.label in template: 20.A)</title><text x="95.9786" y="131.42" class="black" >A</text></g>
<g><title>20 (inserted)</title><text x="89.4803" y="129.249" class="numbering-label sequential" >20</text></g>
<g><line x1="94.2457" y1="130.841" x2="91.3073" y2="129.86" class="numbering-line sequential" /></g>
<g><title>21 (position.label in template: 21.G)</title><text x="100.269" y="125.51" class="black" >G</text></g>
<g><line x1="102.299" y1="125.206" x2="110.689" y2="125.206" class="black" /></g>
<g><title>22 (position.label in template: 22.A)</title><text x="100.689" y="117.95" class="black" >A</text></g>
<g><line x1="102.719" y1="117.646" x2="110.689" y2="117.646" class="black" /></g>
<g><title>23 (position.label in template: 23.Y)</title><text x="100.689" y="110.39" class="green" >U</text></g>
<g><line x1="102.718" y1="110.119" x2="110.839" y2="110.253" class="black" /></g>
<g><title>24 (position.label in template: 24.U)</title><text x="94.6461" y="106.823" class="blue" >U</text></g>
<g><title>25 (position.label in template: 25.A)</title><text x="90.3301" y="101.29" class="blue" >A</text></g>
<g><title>26 (position.label in template: 26.A)</title><text x="88.3401" y="94.5606" class="blue" >A</text></g>
<g><title>27 (position.label in template: 27.G)</title><text x="88.9528" y="87.5703" class="blue" >G</text></g>
<g><title>28 (position.label in template: 28.A)</title><text x="92.0829" y="81.2899" class="green" >C</text></g>
<g><title>29 (position.label in template: 29.A)</title><text x="97.2956" y="76.5922" class="blue" >A</text></g>
<g><title>30 (position.label in template: 30.A)</title><text x="103.867" y="74.1299" class="blue" >A</text></g>
<g><title>30 (inserted)</title><text x="102.7" y="67.3786" class="numbering-label sequential" >30</text></g>
<g><line x1="103.556" y1="72.3296" x2="102.963" y2="68.9011" class="numbering-line sequential" /></g>
<g><title>31 (position.label in template: 31.N)</title><text x="110.883" y="74.2451" class="green" >U</text></g>
<g><title>32 (position.label in template: 32.U)</title><text x="117.369" y="76.9218" class="blue" >U</text></g>
<g><title>33 (position.label in template: 33.N)</title><text x="122.425" y="81.7881" class="green" >A</text></g>
<g><title>34 (position.label in template: 34.R)</title><text x="125.347" y="88.1679" class="green" >G</text></g>
<g><title>35 (position.label in template: 35.G)</title><text x="125.73" y="95.1746" class="green" >U</text></g>
<g><title>36 (inserted)</title><text x="123.52" y="101.835" class="red" >G</text></g>
<g><title>37 (inserted)</title><text x="119.025" y="107.223" class="red" >G</text></g>
<g><title>38 (position.label in template: 37.N)</title><text x="112.869" y="110.59" class="green" >U</text></g>
<g><title>39 (position.label in template: 38.U)</title><text x="112.719" y="117.95" class="black" >U</text></g>
<g><title>40 (position.label in template: 39.U)</title><text x="112.719" y="125.51" class="black" >U</text></g>
<g><title>41 (position.label in template: 40.U)</title><text x="117.543" y="129.329" class="blue" >U</text></g>
<g><title>42 (position.label in template: 41.U)</title><text x="119.364" y="135.205" class="blue" >U</text></g>
<g><title>43 (inserted)</title><text x="117.543" y="141.082" class="red" >G</text></g>
<g><title>44 (position.label in template: 42.U)</title><text x="112.719" y="144.9" class="green" >U</text></g>
<g><title>45 (position.label in template: 43.U)</title><text x="112.719" y="152.46" class="black" >U</text></g>
<g><title>46 (position.label in template: 44.A)</title><text x="112.929" y="160.02" class="green" >U</text></g>
<g><title>47 (position.label in template: 45.U)</title><text x="112.719" y="167.58" class="black" >U</text></g>
<g><title>48 (position.label in template: 46.U)</title><text x="112.719" y="175.14" class="black" >U</text></g>
<g><title>49 (position.label in template: 47.U)</title><text x="117.429" y="181.06" class="black" >U</text></g>
<g><title>50 (position.label in template: 48.U)</title><text x="117.429" y="188.62" class="black" >U</text></g>
<g><title>50 (inserted)</title><text x="123.896" y="190.882" class="numbering-label sequential" >50</text></g>
<g><line x1="119.153" y1="189.223" x2="122.069" y2="190.243" class="numbering-line sequential" /></g>
<g><title>51 (position.label in template: 49.U)</title><text x="112.719" y="194.53" class="green" >U</text></g>
<g><title>52 (position.label in template: 50.G)</title><text x="112.509" y="202.09" class="black" >G</text></g>
<g><title>53 (position.label in template: 51.G)</title><text x="112.509" y="209.65" class="black" >G</text></g>
<g><title>54 (position.label in template: 52.U)</title><text x="112.719" y="217.21" class="black" >U</text></g>
<g><title>55 (position.label in template: 53.U)</title><text x="118.069" y="222.56" class="black" >U</text></g>
<g><title>56 (inserted)</title><text x="125.626" y="222.56" class="red" >U</text></g>
<g><title>57 (inserted)</title><text x="133.183" y="222.56" class="red" >A</text></g>
<g><title>58 (inserted)</title><text x="140.741" y="222.56" class="red" >U</text></g>
<g><title>59 (inserted)</title><text x="148.298" y="222.56" class="red" >G</text></g>
<g><title>60 (inserted)</title><text x="155.856" y="222.56" class="red" >G</text></g>
<g><title>61 (inserted)</title><text x="163.413" y="222.56" class="red" >G</text></g>
<g><title>62 (inserted)</title><text x="170.971" y="222.56" class="red" >U</text></g>
<g><title>63 (inserted)</title><text x="178.528" y="222.56" class="red" >U</text></g>
<g><title>64 (inserted)</title><text x="186.086" y="222.56" class="red" >G</text></g>
<g><title>65 (inserted)</title><text x="193.643" y="222.56" class="red" >A</text></g>
<g><title>66 (inserted)</title><text x="201.2" y="222.56" class="red" >U</text></g>
<g><title>67 (inserted)</title><text x="208.758" y="222.56" class="red" >U</text></g>
<g><title>68 (inserted)</title><text x="216.315" y="222.56" class="red" >U</text></g>
<g><title>69 (position.label in template: 54.U)</title><text x="223.873" y="222.56" class="black" >U</text></g>
<g><title>70 (position.label in template: 55.U)</title><text x="231.433" y="222.56" class="black" >U</text></g>
<g><title>71 (position.label in template: 56.U)</title><text x="238.993" y="222.56" class="black" >U</text></g>
<g><title>72 (position.label in template: 57.G)</title><text x="246.343" y="222.56" class="black" >G</text></g>
<g><title>73 (position.label in template: 58.A)</title><text x="254.313" y="222.56" class="black" >A</text></g>
<g><title>74 (position.label in template: 59.U)</title><text x="261.673" y="222.56" class="black" >U</text></g>
<g><title>75 (position.label in template: 60.A)</title><text x="269.433" y="222.56" class="black" >A</text></g>
<g><title>76 (position.label in template: 61.A)</title><text x="276.993" y="222.56" class="black" >A</text></g>
<g><title>77 (position.label in template: 62.A)</title><text x="284.553" y="222.56" class="black" >A</text></g>
<g><title>78 (position.label in template: 63.G)</title><text x="291.703" y="222.56" class="black" >G</text></g>
<g><title>79 (position.label in template: 64.A)</title><text x="299.673" y="222.56" class="black" >A</text></g>
<g><title>80 (position.label in template: 65.G)</title><text x="306.823" y="222.56" class="green" >U</text></g>
<g><title>81 (position.label in template: 66.A)</title><text x="314.793" y="222.56" class="black" >A</text></g>
<g><title>82 (position.label in template: 67.A)</title><text x="322.353" y="222.56" class="black" >A</text></g>
<g><title>83 (position.label in template: 68.A)</title><text x="329.913" y="222.56" class="black" >A</text></g>
<g><title>84 (position.label in template: 69.G)</title><text x="337.063" y="222.56" class="black" >G</text></g>
<g><title>85 (position.label in template: 70.A)</title><text x="345.033" y="222.56" class="black" >A</text></g>
<g><title>86 (position.label in template: 71.U)</title><text x="350.173" y="217.21" class="black" >U</text></g>
<g><line x1="352.203" y1="216.906" x2="360.593" y2="216.906" class="black" /></g>
<g><title>87 (position.label in template: 72.G)</title><text x="349.963" y="209.65" class="black" >G</text></g>
<g><line x1="351.993" y1="209.346" x2="360.383" y2="209.346" class="black" /></g>
<g><title>88 (position.label in template: 73.C)</title><text x="350.173" y="202.09" class="black" >C</text></g>
<g><line x1="352.203" y1="201.786" x2="360.173" y2="201.786" class="black" /></g>
<g><title>89 (position.label in template: 74.C)</title><text x="350.173" y="194.53" class="black" >C</text></g>
<g><line x1="352.203" y1="194.226" x2="360.173" y2="194.226" class="black" /></g>
<g><title>90 (position.label in template: 75.U)</title><text x="350.173" y="186.97" class="black" >U</text></g>
<g><line x1="352.203" y1="186.666" x2="360.593" y2="186.666" class="black" /></g>
<g><title>91 (position.label in template: 76.C)</title><text x="350.173" y="179.41" class="black" >C</text></g>
<g><line x1="352.203" y1="179.106" x2="360.173" y2="179.106" class="black" /></g>
<g><title>92 (position.label in template: 77.U)</title><text x="350.173" y="171.85" class="black" >U</text></g>
<g><line x1="352.203" y1="171.546" x2="360.173" y2="171.546" class="black" /></g>
<g><title>93 (position.label in template: 78.U)</title><text x="343.463" y="168.37" class="black" >U</text></g>
<g><title>94 (position.label in template: 79.C)</title><text x="338.443" y="162.72" class="black" >C</text></g>
<g><title>95 (position.label in template: 80.U)</title><text x="335.753" y="155.66" class="black" >U</text></g>
<g><title>96 (position.label in template: 81.U)</title><text x="335.753" y="148.1" class="black" >U</text></g>
<g><title>97 (position.label in template: 82.U)</title><text x="338.443" y="141.03" class="black" >U</text></g>
<g><title>98 (position.label in template: 83.C)</title><text x="343.463" y="135.39" class="black" >C</text></g>
<g><title>99 (position.label in template: 84.A)</title><text x="350.383" y="131.9" class="black" >A</text></g>
<g><line x1="352.413" y1="131.596" x2="360.383" y2="131.596" class="black" /></g>
<g><title>100 (position.label in template: 85.G)</title><text x="349.963" y="124.34" class="black" >G</text></g>
<g><line x1="351.993" y1="124.036" x2="360.383" y2="124.036" class="black" /></g>
<g><title>100 (inserted)</title><text x="343.112" y="124.435" class="numbering-label sequential" >100</text></g>
<g><line x1="348.136" y1="124.366" x2="345.853" y2="124.397" class="numbering-line sequential" /></g>
<g><title>101 (position.label in template: 86.C)</title><text x="350.173" y="116.78" class="black" >C</text></g>
<g><line x1="352.203" y1="116.476" x2="360.173" y2="116.476" class="black" /></g>
<g><title>102 (position.label in template: 87.A)</title><text x="350.383" y="109.22" class="black" >A</text></g>
<g><line x1="352.413" y1="108.916" x2="360.383" y2="108.916" class="black" /></g>
<g><title>103 (position.label in template: 88.G)</title><text x="349.963" y="101.66" class="black" >G</text></g>
<g><line x1="351.993" y1="101.356" x2="360.383" y2="101.356" class="black" /></g>
<g><title>104 (position.label in template: 89.C)</title><text x="350.173" y="94.1003" class="black" >C</text></g>
<g><line x1="352.203" y1="93.7958" x2="360.173" y2="93.7958" class="black" /></g>
<g><title>105 (position.label in template: 90.A)</title><text x="350.383" y="86.5403" class="black" >A</text></g>
<g><line x1="352.413" y1="86.2358" x2="360.383" y2="86.2358" class="black" /></g>
<g><title>106 (position.label in template: 91.A)</title><text x="350.383" y="78.9803" class="black" >A</text></g>
<g><line x1="352.413" y1="78.6758" x2="360.383" y2="78.6758" class="black" /></g>
<g><title>107 (position.label in template: 92.G)</title><text x="349.963" y="71.4203" class="black" >G</text></g>
<g><line x1="351.993" y1="71.1158" x2="360.383" y2="71.1158" class="black" /></g>
<g><title>108 (position.label in template: 93.A)</title><text x="350.383" y="63.8603" class="green" >A</text></g>
<g><line x1="352.413" y1="63.5558" x2="360.383" y2="63.5558" class="black" /></g>
<g><title>109 (position.label in template: 94.U)</title><text x="348.165" y="58.0515" class="blue" >U</text></g>
<g><title>110 (inserted)</title><text x="350.64" y="52.3474" class="red" >C</text></g>
<g><title>111 (position.label in template: 95.U)</title><text x="356.398" y="50" class="blue" >U</text></g>
<g><title>112 (position.label in template: 96.A)</title><text x="362.156" y="52.3474" class="blue" >A</text></g>
<g><title>113 (position.label in template: 97.U)</title><text x="364.631" y="58.0515" class="blue" >U</text></g>
<g><title>114 (position.label in template: 98.U)</title><text x="362.413" y="63.8603" class="green" >A</text></g>
<g><title>115 (position.label in template: 99.C)</title><text x="362.413" y="71.4203" class="black" >C</text></g>
<g><title>116 (position.label in template: 100.U)</title><text x="362.413" y="78.9803" class="black" >U</text></g>
<g><title>117 (position.label in template: 101.U)</title><text x="362.413" y="86.5403" class="black" >U</text></g>
<g><title>118 (position.label in template: 102.G)</title><text x="362.203" y="94.1003" class="black" >G</text></g>
<g><title>119 (position.label in template: 103.U)</title><text x="362.413" y="101.66" class="black" >U</text></g>
<g><title>120 (position.label in template: 104.U)</title><text x="362.413" y="109.22" class="black" >U</text></g>
<g><title>121 (position.label in template: 105.A)</title><text x="369.173" y="113" class="black" >A</text></g>
<g><title>122 (position.label in template: 106.G)</title><text x="362.203" y="116.78" class="black" >G</text></g>
<g><title>123 (position.label in template: 107.C)</title><text x="362.413" y="124.34" class="black" >C</text></g>
<g><title>124 (position.label in template: 108.U)</title><text x="362.413" y="131.9" class="black" >U</text></g>
<g><title>125 (position.label in template: 109.U)</title><text x="369.763" y="133.7" class="black" >U</text></g>
<g><title>126 (position.label in template: 110.U)</title><text x="375.913" y="138.09" class="black" >U</text></g>
<g><title>127 (position.label in template: 111.G)</title><text x="379.783" y="144.45" class="black" >G</text></g>
<g><title>128 (position.label in template: 112.U)</title><text x="381.423" y="151.88" class="black" >U</text></g>
<g><title>129 (position.label in template: 113.U)</title><text x="379.993" y="159.3" class="black" >U</text></g>
<g><title>130 (position.label in template: 114.C)</title><text x="375.913" y="165.66" class="black" >C</text></g>
<g><title>131 (position.label in template: 115.U)</title><text x="369.763" y="170.06" class="black" >U</text></g>
<g><title>132 (position.label in template: 116.G)</title><text x="362.203" y="171.85" class="black" >G</text></g>
<g><title>133 (position.label in template: 117.G)</title><text x="362.203" y="179.41" class="black" >G</text></g>
<g><title>134 (position.label in template: 118.A)</title><text x="362.623" y="186.97" class="black" >A</text></g>
<g><title>135 (position.label in template: 119.G)</title><text x="362.203" y="194.53" class="black" >G</text></g>
<g><title>136 (position.label in template: 120.G)</title><text x="362.203" y="202.09" class="black" >G</text></g>
<g><title>137 (position.label in template: 121.C)</title><text x="362.413" y="209.65" class="black" >C</text></g>
<g><title>138 (position.label in template: 122.A)</title><text x="362.623" y="217.21" class="black" >A</text></g>
<g><title>139 (position.label in template: 123.C)</title><text x="367.859" y="222.66" class="black" >C</text></g>
<g><title>140 (position.label in template: 124.A)</title><text x="375.416" y="222.66" class="black" >A</text></g>
<g><title>141 (position.label in template: 125.G)</title><text x="382.974" y="222.66" class="green" >U</text></g>
<g><title>142 (position.label in template: 126.A)</title><text x="390.531" y="222.66" class="black" >A</text></g>
<g><title>143 (position.label in template: 127.U)</title><text x="398.088" y="222.66" class="black" >U</text></g>
<g><title>144 (position.label in template: 128.3')</title><text x="405.646" y="222.66" class="green" >3'</text></g>
<g><line x1="44.4726" y1="222.25" x2="47.97" y2="222.25" class="gray" /></g>
<g><line x1="52.03" y1="222.25" x2="55.5274" y2="222.25" class="gray" /></g>
<g><line x1="59.5875" y1="222.25" x2="63.0849" y2="222.25" class="gray" /></g>
<g><line x1="67.1449" y1="222.25" x2="70.6423" y2="222.25" class="gray" /></g>
<g><line x1="74.7023" y1="222.25" x2="78.1998" y2="222.25" class="gray" /></g>
<g><line x1="82.2598" y1="222.25" x2="85.7572" y2="222.25" class="gray" /></g>
<g><line x1="89.8172" y1="222.25" x2="93.3147" y2="222.25" class="gray" /></g>
<g><line x1="96.7801" y1="220.814" x2="99.2531" y2="218.341" class="gray" /></g>
<g><line x1="100.632" y1="214.877" x2="100.535" y2="211.375" class="gray" /></g>
<g><line x1="100.479" y1="207.316" x2="100.479" y2="203.816" class="gray" /></g>
<g><line x1="100.535" y1="199.757" x2="100.632" y2="196.255" class="gray" /></g>
<g><line x1="99.3898" y1="192.666" x2="97.0674" y2="189.876" class="gray" /></g>
<g><line x1="95.7686" y1="186.286" x2="95.7686" y2="182.786" class="gray" /></g>
<g><line x1="96.997" y1="179.14" x2="99.0401" y2="176.452" class="gray" /></g>
<g><line x1="100.381" y1="172.809" x2="100.576" y2="169.303" class="gray" /></g>
<g><line x1="100.632" y1="165.247" x2="100.535" y2="161.745" class="gray" /></g>
<g><line x1="100.422" y1="157.687" x2="100.325" y2="154.185" class="gray" /></g>
<g><line x1="100.381" y1="150.129" x2="100.576" y2="146.623" class="gray" /></g>
<g><line x1="99.3911" y1="143.035" x2="97.0661" y2="140.237" class="gray" /></g>
<g><line x1="95.8249" y1="136.647" x2="95.9222" y2="133.145" class="gray" /></g>
<g><line x1="97.1711" y1="129.473" x2="99.0761" y2="126.849" class="gray" /></g>
<g><line x1="100.381" y1="123.179" x2="100.576" y2="119.673" class="gray" /></g>
<g><line x1="100.689" y1="115.616" x2="100.689" y2="112.116" class="gray" /></g>
<g><line x1="98.9405" y1="109.054" x2="96.3942" y2="107.55" class="gray" /></g>
<g><line x1="93.3975" y1="104.917" x2="91.5787" y2="102.586" class="gray" /></g>
<g><line x1="89.7544" y1="99.0385" x2="88.9158" y2="96.2028" class="gray" /></g>
<g><line x1="88.5173" y1="92.2339" x2="88.7755" y2="89.288" class="gray" /></g>
<g><line x1="89.8583" y1="85.4489" x2="91.1774" y2="82.8023" class="gray" /></g>
<g><line x1="93.5909" y1="79.6264" x2="95.7876" y2="77.6467" class="gray" /></g>
<g><line x1="99.1965" y1="75.5754" x2="101.966" y2="74.5377" class="gray" /></g>
<g><line x1="105.896" y1="73.8587" x2="108.853" y2="73.9073" class="gray" /></g>
<g><line x1="112.759" y1="74.715" x2="115.493" y2="75.843" class="gray" /></g>
<g><line x1="118.832" y1="78.0251" x2="120.962" y2="80.0759" class="gray" /></g>
<g><line x1="123.27" y1="83.3292" x2="124.502" y2="86.0178" class="gray" /></g>
<g><line x1="125.458" y1="89.8904" x2="125.619" y2="92.8431" class="gray" /></g>
<g><line x1="125.091" y1="96.7968" x2="124.16" y2="99.6035" class="gray" /></g>
<g><line x1="122.22" y1="103.089" x2="120.325" y2="105.36" class="gray" /></g>
<g><line x1="117.244" y1="107.893" x2="114.65" y2="109.312" class="gray" /></g>
<g><line x1="112.827" y1="112.315" x2="112.76" y2="115.616" class="gray" /></g>
<g><line x1="112.719" y1="119.676" x2="112.719" y2="123.176" class="gray" /></g>
<g><line x1="114.31" y1="126.466" x2="115.951" y2="127.764" class="gray" /></g>
<g><line x1="118.144" y1="130.963" x2="118.763" y2="132.962" class="gray" /></g>
<g><line x1="118.763" y1="136.84" x2="118.144" y2="138.839" class="gray" /></g>
<g><line x1="115.951" y1="142.037" x2="114.31" y2="143.336" class="gray" /></g>
<g><line x1="112.719" y1="146.626" x2="112.719" y2="150.126" class="gray" /></g>
<g><line x1="112.775" y1="154.185" x2="112.872" y2="157.687" class="gray" /></g>
<g><line x1="112.872" y1="161.745" x2="112.775" y2="165.247" class="gray" /></g>
<g><line x1="112.719" y1="169.306" x2="112.719" y2="172.806" class="gray" /></g>
<g><line x1="113.982" y1="176.424" x2="116.165" y2="179.167" class="gray" /></g>
<g><line x1="117.429" y1="182.786" x2="117.429" y2="186.286" class="gray" /></g>
<g><line x1="116.163" y1="189.903" x2="113.984" y2="192.638" class="gray" /></g>
<g><line x1="112.662" y1="196.255" x2="112.565" y2="199.757" class="gray" /></g>
<g><line x1="112.509" y1="203.816" x2="112.509" y2="207.316" class="gray" /></g>
<g><line x1="112.565" y1="211.375" x2="112.662" y2="214.877" class="gray" /></g>
<g><line x1="114.154" y1="218.341" x2="116.633" y2="220.82" class="gray" /></g>
<g><line x1="120.099" y1="222.256" x2="123.596" y2="222.256" class="gray" /></g>
<g><line x1="127.656" y1="222.256" x2="131.153" y2="222.256" class="gray" /></g>
<g><line x1="135.213" y1="222.256" x2="138.711" y2="222.256" class="gray" /></g>
<g><line x1="142.771" y1="222.256" x2="146.268" y2="222.256" class="gray" /></g>
<g><line x1="150.328" y1="222.256" x2="153.826" y2="222.256" class="gray" /></g>
<g><line x1="157.886" y1="222.256" x2="161.383" y2="222.256" class="gray" /></g>
<g><line x1="165.443" y1="222.256" x2="168.941" y2="222.256" class="gray" /></g>
<g><line x1="173.001" y1="222.256" x2="176.498" y2="222.256" class="gray" /></g>
<g><line x1="180.558" y1="222.256" x2="184.056" y2="222.256" class="gray" /></g>
<g><line x1="188.116" y1="222.256" x2="191.613" y2="222.256" class="gray" /></g>
<g><line x1="195.673" y1="222.256" x2="199.17" y2="222.256" class="gray" /></g>
<g><line x1="203.23" y1="222.256" x2="206.728" y2="222.256" class="gray" /></g>
<g><line x1="210.788" y1="222.256" x2="214.285" y2="222.256" class="gray" /></g>
<g><line x1="218.345" y1="222.256" x2="221.843" y2="222.256" class="gray" /></g>
<g><line x1="225.903" y1="222.256" x2="229.403" y2="222.256" class="gray" /></g>
<g><line x1="233.463" y1="222.256" x2="236.963" y2="222.256" class="gray" /></g>
<g><line x1="241.023" y1="222.256" x2="244.313" y2="222.256" class="gray" /></g>
<g><line x1="248.373" y1="222.256" x2="252.283" y2="222.256" class="gray" /></g>
<g><line x1="256.343" y1="222.256" x2="259.643" y2="222.256" class="gray" /></g>
<g><line x1="263.703" y1="222.256" x2="267.403" y2="222.256" class="gray" /></g>
<g><line x1="271.463" y1="222.256" x2="274.963" y2="222.256" class="gray" /></g>
<g><line x1="279.023" y1="222.256" x2="282.523" y2="222.256" class="gray" /></g>
<g><line x1="286.583" y1="222.256" x2="289.673" y2="222.256" class="gray" /></g>
<g><line x1="293.733" y1="222.256" x2="297.643" y2="222.256" class="gray" /></g>
<g><line x1="301.703" y1="222.256" x2="304.793" y2="222.256" class="gray" /></g>
<g><line x1="308.853" y1="222.256" x2="312.763" y2="222.256" class="gray" /></g>
<g><line x1="316.823" y1="222.256" x2="320.323" y2="222.256" class="gray" /></g>
<g><line x1="324.383" y1="222.256" x2="327.883" y2="222.256" class="gray" /></g>
<g><line x1="331.943" y1="222.256" x2="335.033" y2="222.256" class="gray" /></g>
<g><line x1="339.093" y1="222.256" x2="343.003" y2="222.256" class="gray" /></g>
<g><line x1="346.439" y1="220.792" x2="348.766" y2="218.37" class="gray" /></g>
<g><line x1="350.116" y1="214.877" x2="350.019" y2="211.375" class="gray" /></g>
<g><line x1="350.019" y1="207.317" x2="350.116" y2="203.815" class="gray" /></g>
<g><line x1="350.173" y1="199.756" x2="350.173" y2="196.256" class="gray" /></g>
<g><line x1="350.173" y1="192.196" x2="350.173" y2="188.696" class="gray" /></g>
<g><line x1="350.173" y1="184.636" x2="350.173" y2="181.136" class="gray" /></g>
<g><line x1="350.173" y1="177.076" x2="350.173" y2="173.576" class="gray" /></g>
<g><line x1="348.371" y1="170.611" x2="345.265" y2="169" class="gray" /></g>
<g><line x1="342.114" y1="166.548" x2="339.791" y2="163.933" class="gray" /></g>
<g><line x1="337.72" y1="160.519" x2="336.476" y2="157.253" class="gray" /></g>
<g><line x1="335.753" y1="153.326" x2="335.753" y2="149.826" class="gray" /></g>
<g><line x1="336.475" y1="145.899" x2="337.721" y2="142.623" class="gray" /></g>
<g><line x1="339.792" y1="139.209" x2="342.113" y2="136.602" class="gray" /></g>
<g><line x1="345.275" y1="134.172" x2="348.57" y2="132.51" class="gray" /></g>
<g><line x1="350.27" y1="129.569" x2="350.075" y2="126.063" class="gray" /></g>
<g><line x1="350.019" y1="122.007" x2="350.116" y2="118.505" class="gray" /></g>
<g><line x1="350.229" y1="114.447" x2="350.326" y2="110.945" class="gray" /></g>
<g><line x1="350.27" y1="106.889" x2="350.075" y2="103.383" class="gray" /></g>
<g><line x1="350.019" y1="99.3266" x2="350.116" y2="95.8251" class="gray" /></g>
<g><line x1="350.229" y1="91.7666" x2="350.326" y2="88.2651" class="gray" /></g>
<g><line x1="350.383" y1="84.2058" x2="350.383" y2="80.7058" class="gray" /></g>
<g><line x1="350.27" y1="76.649" x2="350.075" y2="73.1427" class="gray" /></g>
<g><line x1="350.075" y1="69.089" x2="350.27" y2="65.5827" class="gray" /></g>
<g><line x1="349.659" y1="61.6594" x2="348.889" y2="59.6434" class="gray" /></g>
<g><line x1="348.973" y1="55.8848" x2="349.832" y2="53.9051" class="gray" /></g>
<g><line x1="352.52" y1="51.2766" x2="354.518" y2="50.4619" class="gray" /></g>
<g><line x1="358.278" y1="50.4619" x2="360.276" y2="51.2766" class="gray" /></g>
<g><line x1="362.964" y1="53.9051" x2="363.823" y2="55.8848" class="gray" /></g>
<g><line x1="363.907" y1="59.6434" x2="363.137" y2="61.6594" class="gray" /></g>
<g><line x1="362.413" y1="65.5858" x2="362.413" y2="69.0858" class="gray" /></g>
<g><line x1="362.413" y1="73.1458" x2="362.413" y2="76.6458" class="gray" /></g>
<g><line x1="362.413" y1="80.7058" x2="362.413" y2="84.2058" class="gray" /></g>
<g><line x1="362.356" y1="88.2651" x2="362.259" y2="91.7666" class="gray" /></g>
<g><line x1="362.259" y1="95.8251" x2="362.356" y2="99.3266" class="gray" /></g>
<g><line x1="362.413" y1="103.386" x2="362.413" y2="106.886" class="gray" /></g>
<g><line x1="364.185" y1="109.907" x2="367.401" y2="111.705" class="gray" /></g>
<g><line x1="367.388" y1="113.664" x2="363.987" y2="115.508" class="gray" /></g>
<g><line x1="362.259" y1="118.505" x2="362.356" y2="122.007" class="gray" /></g>
<g><line x1="362.413" y1="126.066" x2="362.413" y2="129.566" class="gray" /></g>
<g><line x1="364.385" y1="132.079" x2="367.791" y2="132.913" class="gray" /></g>
<g><line x1="371.415" y1="134.575" x2="374.261" y2="136.606" class="gray" /></g>
<g><line x1="376.968" y1="139.52" x2="378.728" y2="142.412" class="gray" /></g>
<g><line x1="380.22" y1="146.128" x2="380.985" y2="149.594" class="gray" /></g>
<g><line x1="381.039" y1="153.569" x2="380.377" y2="157.003" class="gray" /></g>
<g><line x1="378.897" y1="160.704" x2="377.009" y2="163.647" class="gray" /></g>
<g><line x1="374.262" y1="166.537" x2="371.414" y2="168.575" class="gray" /></g>
<g><line x1="367.787" y1="170.224" x2="364.178" y2="171.078" class="gray" /></g>
<g><line x1="362.203" y1="173.576" x2="362.203" y2="177.076" class="gray" /></g>
<g><line x1="362.315" y1="181.133" x2="362.51" y2="184.639" class="gray" /></g>
<g><line x1="362.51" y1="188.693" x2="362.315" y2="192.199" class="gray" /></g>
<g><line x1="362.203" y1="196.256" x2="362.203" y2="199.756" class="gray" /></g>
<g><line x1="362.259" y1="203.815" x2="362.356" y2="207.317" class="gray" /></g>
<g><line x1="362.469" y1="211.375" x2="362.566" y2="214.877" class="gray" /></g>
<g><line x1="364.029" y1="218.37" x2="366.452" y2="220.892" class="gray" /></g>
<g><line x1="369.889" y1="222.356" x2="373.386" y2="222.356" class="gray" /></g>
<g><line x1="377.446" y1="222.356" x2="380.944" y2="222.356" class="gray" /></g>
<g><line x1="385.004" y1="222.356" x2="388.501" y2="222.356" class="gray" /></g>
<g><line x1="392.561" y1="222.356" x2="396.058" y2="222.356" class="gray" /></g>
<g><line x1="400.118" y1="222.356" x2="403.616" y2="222.356" class="gray" /></g>
</svg>
