<svg
	xmlns="http://www.w3.org/2000/svg"
	width="229.02"
	height="187.037"
	style="font-size: 1.737882px; font-weight: bold; font-family: Helvetica; " >
<g><style type="text/css" >
<!-- create color definitions -->
<![CDATA[
text.red {fill: rgb(255, 0, 255); }
text.green {fill: rgb(0, 255, 0); }
text.blue {fill: rgb(0, 0, 255); }
text.black {fill: rgb(0, 0, 0); }
text.gray {fill: rgb(204, 204, 204); }
text.brown {fill: rgb(211.65, 104.55, 30.6); }
text {fill: rgb(0, 0, 0); text-anchor: middle; alignment-baseline: middle; }
circle.red {stroke: rgb(255, 0, 255); fill: none; }
circle.green {stroke: rgb(0, 255, 0); fill: none; }
circle.blue {stroke: rgb(0, 0, 255); fill: none; }
circle.black {stroke: rgb(0, 0, 0); fill: none; }
circle.gray {stroke: rgb(204, 204, 204); fill: none; }
circle.brown {stroke: rgb(211.65, 104.55, 30.6); fill: none; }
circle {stroke: rgb(0, 0, 0); }
line.red {stroke: rgb(255, 0, 255); stroke-width: 0.217235; }
line.green {stroke: rgb(0, 255, 0); stroke-width: 0.217235; }
line.blue {stroke: rgb(0, 0, 255); stroke-width: 0.217235; }
line.black {stroke: rgb(0, 0, 0); stroke-width: 0.217235; }
line.gray {stroke: rgb(204, 204, 204); stroke-width: 0.217235; }
line.brown {stroke: rgb(211.65, 104.55, 30.6); stroke-width: 0.217235; }
line {stroke: rgb(0, 0, 0); }
text.numbering-label {fill: rgb(204, 204, 204);}
line.numbering-line {stroke: rgb(204, 204, 204); stroke-width: 0.108618;}
line.predicted {stroke: rgb(0, 0, 0); stroke-dasharray: 2}
text.background {fill: rgb(255, 255, 255);
.template {visibility:hidden}
]]>
</style></g>
<g><title>0 (position.label in template: 0.5')</title><text x="88.1651" y="58.0719" class="green" >5'</text></g>
<g><title>1 (inserted)</title><text x="85.9033" y="57.044" class="red" >G</text></g>
<g><title>2 (inserted)</title><text x="83.6414" y="56.0161" class="red" >U</text></g>
<g><title>3 (inserted)</title><text x="81.3796" y="54.9883" class="red" >G</text></g>
<g><title>4 (position.label in template: 3470.A)</title><text x="79.1178" y="53.9604" class="black" >A</text></g>
<g><title>5 (position.label in template: 3471.G)</title><text x="76.856" y="52.9325" class="black" >G</text></g>
<g><title>6 (position.label in template: 3472.U)</title><text x="74.7117" y="51.6778" class="green" >A</text></g>
<g><title>7 (position.label in template: 3473.U)</title><text x="72.8794" y="50" class="black" >U</text></g>
<g><title>8 (inserted)</title><text x="71.0549" y="51.6864" class="red" >U</text></g>
<g><title>9 (inserted)</title><text x="69.2305" y="53.3728" class="red" >G</text></g>
<g><title>10 (position.label in template: 3476.A)</title><text x="67.4061" y="55.0591" class="green" >U</text></g>
<g><title>10 (inserted)</title><text x="64.2981" y="52.6863" class="numbering-label sequential" >10</text></g>
<g><line x1="66.5773" y1="54.4264" x2="65.3408" y2="53.4824" class="numbering-line sequential" /></g>
<g><title>11 (inserted)</title><text x="66.2602" y="57.2635" class="red" >G</text></g>
<g><title>12 (inserted)</title><text x="65.1142" y="59.4678" class="red" >A</text></g>
<g><title>13 (inserted)</title><text x="63.9683" y="61.6722" class="red" >A</text></g>
<g><title>14 (inserted)</title><text x="62.8223" y="63.8765" class="red" >G</text></g>
<g><title>15 (inserted)</title><text x="61.6764" y="66.0809" class="red" >G</text></g>
<g><title>16 (inserted)</title><text x="60.5304" y="68.2853" class="red" >G</text></g>
<g><title>17 (inserted)</title><text x="59.3845" y="70.4896" class="red" >A</text></g>
<g><title>18 (inserted)</title><text x="58.2385" y="72.694" class="red" >U</text></g>
<g><title>19 (inserted)</title><text x="57.0926" y="74.8983" class="red" >C</text></g>
<g><title>20 (position.label in template: 3488.U)</title><text x="55.9466" y="77.1027" class="black" >U</text></g>
<g><title>20 (inserted)</title><text x="52.5683" y="75.1337" class="numbering-label sequential" >20</text></g>
<g><line x1="55.0457" y1="76.5776" x2="53.611" y2="75.7414" class="numbering-line sequential" /></g>
<g><title>21 (position.label in template: 3489.C)</title><text x="54.5935" y="79.1863" class="black" >C</text></g>
<g><title>22 (position.label in template: 3491.A)</title><text x="54.0661" y="81.6141" class="green" >G</text></g>
<g><title>23 (position.label in template: 3492.U)</title><text x="55.1757" y="83.837" class="green" >C</text></g>
<g><title>24 (position.label in template: 3493.U)</title><text x="56.4247" y="85.9845" class="green" >A</text></g>
<g><title>25 (position.label in template: 3494.G)</title><text x="57.443" y="88.2507" class="black" >G</text></g>
<g><line x1="57.443" y1="89.2355" x2="57.443" y2="95.1993" class="black" /></g>
<g><title>26 (position.label in template: 3495.U)</title><text x="59.927" y="88.2507" class="green" >G</text></g>
<g><line x1="59.927" y1="89.2355" x2="59.927" y2="95.1993" class="black" /></g>
<g><title>27 (position.label in template: 3496.U)</title><text x="62.412" y="88.2507" class="green" >C</text></g>
<g><line x1="62.412" y1="89.2355" x2="62.412" y2="95.1993" class="black" /></g>
<g><title>28 (position.label in template: 3497.U)</title><text x="64.896" y="88.2507" class="green" >A</text></g>
<g><line x1="64.896" y1="89.2355" x2="64.896" y2="95.1993" class="black" /></g>
<g><title>29 (position.label in template: 3498.G)</title><text x="67.38" y="88.2507" class="green" >U</text></g>
<g><line x1="67.38" y1="89.2355" x2="67.38" y2="95.1993" class="black" /></g>
<g><title>30 (position.label in template: 3499.C)</title><text x="69.865" y="88.2507" class="black" >C</text></g>
<g><line x1="69.865" y1="89.2355" x2="69.865" y2="95.1993" class="black" /></g>
<g><title>30 (inserted)</title><text x="69.865" y="84.3405" class="numbering-label sequential" >30</text></g>
<g><line x1="69.865" y1="87.208" x2="69.865" y2="85.2094" class="numbering-line sequential" /></g>
<g><title>31 (position.label in template: 3500.G)</title><text x="73.7205" y="88.2507" class="black" >G</text></g>
<g><line x1="73.7205" y1="89.2355" x2="73.7205" y2="95.1993" class="black" /></g>
<g><title>32 (position.label in template: 3501.U)</title><text x="76.2055" y="88.2507" class="black" >U</text></g>
<g><line x1="76.2055" y1="89.2355" x2="76.2055" y2="95.1993" class="black" /></g>
<g><title>33 (position.label in template: 3502.A)</title><text x="80.1285" y="85.7407" class="green" >G</text></g>
<g><title>34 (position.label in template: 3503.A)</title><text x="84.7865" y="85.7237" class="black" >A</text></g>
<g><title>35 (position.label in template: 3504.U)</title><text x="88.7275" y="88.2057" class="green" >G</text></g>
<g><line x1="88.7275" y1="89.1905" x2="88.7275" y2="95.1543" class="black" /></g>
<g><title>36 (position.label in template: 3505.A)</title><text x="91.2115" y="88.2057" class="green" >G</text></g>
<g><line x1="91.2115" y1="89.1905" x2="91.2115" y2="95.1543" class="black" /></g>
<g><title>37 (position.label in template: 3506.G)</title><text x="93.6965" y="88.2057" class="black" >G</text></g>
<g><line x1="93.6965" y1="89.1905" x2="93.6965" y2="95.1543" class="black" /></g>
<g><title>38 (position.label in template: 3507.U)</title><text x="96.1805" y="86.9637" class="green" >A</text></g>
<g><line x1="96.1805" y1="87.9485" x2="96.1805" y2="96.3973" class="black" /></g>
<g><title>39 (position.label in template: 3508.A)</title><text x="98.6655" y="88.2057" class="green" >A</text></g>
<g><line x1="98.6655" y1="89.1905" x2="98.6655" y2="95.1543" class="black" /></g>
<g><title>40 (position.label in template: 3509.G)</title><text x="100.361" y="85.6227" class="black" >G</text></g>
<g><line x1="101.519" y1="85.4489" x2="107.483" y2="85.4489" class="black" /></g>
<g><title>41 (position.label in template: 3510.C)</title><text x="100.361" y="83.1387" class="green" >U</text></g>
<g><line x1="101.519" y1="82.9649" x2="107.483" y2="82.9649" class="black" /></g>
<g><title>42 (position.label in template: 3511.A)</title><text x="100.361" y="80.6547" class="black" >A</text></g>
<g><line x1="101.519" y1="80.4809" x2="107.483" y2="80.4809" class="black" /></g>
<g><title>43 (position.label in template: 3512.U)</title><text x="100.361" y="78.1697" class="black" >U</text></g>
<g><line x1="101.519" y1="77.9959" x2="107.483" y2="77.9959" class="black" /></g>
<g><title>44 (position.label in template: 3513.G)</title><text x="100.361" y="75.6857" class="black" >G</text></g>
<g><line x1="101.519" y1="75.5119" x2="107.483" y2="75.5119" class="black" /></g>
<g><title>45 (position.label in template: 3514.A)</title><text x="100.361" y="73.2007" class="green" >G</text></g>
<g><line x1="101.519" y1="73.0269" x2="107.483" y2="73.0269" class="black" /></g>
<g><title>46 (position.label in template: 3515.U)</title><text x="100.361" y="70.7167" class="green" >G</text></g>
<g><line x1="101.519" y1="70.5429" x2="107.483" y2="70.5429" class="black" /></g>
<g><title>47 (position.label in template: 3516.U)</title><text x="99.1185" y="68.2327" class="green" >G</text></g>
<g><line x1="100.277" y1="68.0589" x2="108.725" y2="68.0589" class="black" /></g>
<g><title>48 (position.label in template: 3517.U)</title><text x="97.5095" y="66.3407" class="black" >U</text></g>
<g><title>49 (position.label in template: 3518.A)</title><text x="96.5395" y="64.0547" class="black" >A</text></g>
<g><title>50 (position.label in template: 3519.G)</title><text x="96.2965" y="61.5827" class="black" >G</text></g>
<g><title>50 (inserted)</title><text x="92.392" y="61.3725" class="numbering-label sequential" >50</text></g>
<g><line x1="95.2553" y1="61.5266" x2="93.4347" y2="61.4286" class="numbering-line sequential" /></g>
<g><title>51 (position.label in template: 3520.U)</title><text x="96.8035" y="59.1517" class="black" >U</text></g>
<g><title>52 (position.label in template: 3521.A)</title><text x="98.0135" y="56.9837" class="black" >A</text></g>
<g><title>53 (position.label in template: 3522.C)</title><text x="99.8155" y="55.2747" class="black" >C</text></g>
<g><title>54 (position.label in template: 3523.G)</title><text x="102.047" y="54.1837" class="black" >G</text></g>
<g><title>55 (position.label in template: 3524.A)</title><text x="104.502" y="53.8077" class="black" >A</text></g>
<g><title>56 (position.label in template: 3525.G)</title><text x="106.956" y="54.1837" class="black" >G</text></g>
<g><title>57 (position.label in template: 3526.A)</title><text x="109.187" y="55.2747" class="black" >A</text></g>
<g><title>58 (position.label in template: 3527.G)</title><text x="110.99" y="56.9837" class="black" >G</text></g>
<g><title>59 (position.label in template: 3528.G)</title><text x="112.2" y="59.1517" class="black" >G</text></g>
<g><title>60 (position.label in template: 3529.A)</title><text x="112.706" y="61.5827" class="black" >A</text></g>
<g><title>61 (position.label in template: 3530.A)</title><text x="112.463" y="64.0547" class="black" >A</text></g>
<g><title>62 (position.label in template: 3531.C)</title><text x="111.493" y="66.3407" class="black" >C</text></g>
<g><title>63 (position.label in template: 3532.U)</title><text x="109.884" y="68.2327" class="green" >U</text></g>
<g><title>64 (position.label in template: 3533.G)</title><text x="108.642" y="70.7167" class="green" >C</text></g>
<g><title>65 (position.label in template: 3534.U)</title><text x="108.642" y="73.2007" class="green" >C</text></g>
<g><title>66 (position.label in template: 3535.C)</title><text x="108.642" y="75.6857" class="black" >C</text></g>
<g><title>67 (position.label in template: 3536.A)</title><text x="108.642" y="78.1697" class="black" >A</text></g>
<g><title>68 (position.label in template: 3537.U)</title><text x="108.642" y="80.6547" class="black" >U</text></g>
<g><title>69 (position.label in template: 3538.G)</title><text x="108.642" y="83.1387" class="green" >G</text></g>
<g><title>70 (position.label in template: 3539.C)</title><text x="108.642" y="85.6227" class="black" >C</text></g>
<g><title>71 (position.label in template: 3540.C)</title><text x="111.116" y="87.6867" class="black" >C</text></g>
<g><line x1="111.108" y1="88.6715" x2="111.07" y2="94.6354" class="black" /></g>
<g><title>72 (position.label in template: 3541.G)</title><text x="113.6" y="87.7027" class="black" >G</text></g>
<g><line x1="113.592" y1="88.6875" x2="113.555" y2="94.6514" class="black" /></g>
<g><title>73 (position.label in template: 3542.G)</title><text x="116.084" y="87.7177" class="green" >U</text></g>
<g><line x1="116.076" y1="88.7025" x2="116.039" y2="94.6664" class="black" /></g>
<g><title>74 (position.label in template: 3543.A)</title><text x="118.568" y="87.7337" class="green" >G</text></g>
<g><line x1="118.56" y1="88.7185" x2="118.523" y2="94.6824" class="black" /></g>
<g><title>75 (position.label in template: 3544.U)</title><text x="121.053" y="87.7487" class="green" >C</text></g>
<g><line x1="121.045" y1="88.7335" x2="121.008" y2="94.6984" class="black" /></g>
<g><title>76 (position.label in template: 3545.C)</title><text x="122.77" y="85.4957" class="black" >C</text></g>
<g><title>77 (position.label in template: 3546.A)</title><text x="125.47" y="84.6417" class="green" >U</text></g>
<g><title>78 (position.label in template: 3547.C)</title><text x="128.17" y="85.4987" class="black" >C</text></g>
<g><title>79 (position.label in template: 3548.U)</title><text x="129.884" y="87.7537" class="black" >U</text></g>
<g><line x1="129.884" y1="88.7385" x2="129.884" y2="94.7033" class="black" /></g>
<g><title>80 (position.label in template: 3549.G)</title><text x="132.368" y="87.7537" class="black" >G</text></g>
<g><line x1="132.368" y1="88.7385" x2="132.368" y2="94.7033" class="black" /></g>
<g><title>81 (position.label in template: 3550.G)</title><text x="134.853" y="87.7537" class="black" >G</text></g>
<g><line x1="134.853" y1="88.7385" x2="134.853" y2="94.7023" class="black" /></g>
<g><title>82 (position.label in template: 3551.U)</title><text x="137.136" y="86.0107" class="black" >U</text></g>
<g><title>83 (position.label in template: 3552.C)</title><text x="139.848" y="85.0637" class="green" >U</text></g>
<g><title>84 (position.label in template: 3553.U)</title><text x="142.719" y="85.0077" class="black" >U</text></g>
<g><title>85 (position.label in template: 3554.G)</title><text x="145.466" y="85.8477" class="green" >C</text></g>
<g><title>86 (position.label in template: 3555.U)</title><text x="147.815" y="87.5017" class="black" >U</text></g>
<g><line x1="147.815" y1="88.4865" x2="147.815" y2="94.4503" class="black" /></g>
<g><title>87 (position.label in template: 3556.A)</title><text x="150.299" y="87.5017" class="green" >G</text></g>
<g><line x1="150.299" y1="88.4865" x2="150.299" y2="94.4503" class="black" /></g>
<g><title>88 (position.label in template: 3557.G)</title><text x="152.784" y="87.5017" class="black" >G</text></g>
<g><line x1="152.784" y1="88.4865" x2="152.784" y2="94.4503" class="black" /></g>
<g><title>89 (position.label in template: 3558.G)</title><text x="155.268" y="87.5017" class="green" >A</text></g>
<g><line x1="155.268" y1="88.4865" x2="155.268" y2="94.4503" class="black" /></g>
<g><title>90 (position.label in template: 3559.U)</title><text x="157.753" y="87.5017" class="green" >G</text></g>
<g><line x1="157.753" y1="88.4865" x2="157.753" y2="94.4503" class="black" /></g>
<g><title>91 (position.label in template: 3560.U)</title><text x="162.848" y="87.5577" class="black" >U</text></g>
<g><line x1="162.848" y1="88.5425" x2="162.848" y2="94.5073" class="black" /></g>
<g><title>92 (position.label in template: 3561.U)</title><text x="165.333" y="87.5577" class="black" >U</text></g>
<g><line x1="165.333" y1="88.5425" x2="165.333" y2="94.5073" class="black" /></g>
<g><title>93 (position.label in template: 3562.A)</title><text x="167.817" y="87.5577" class="green" >U</text></g>
<g><line x1="167.817" y1="88.5425" x2="167.817" y2="94.5073" class="black" /></g>
<g><title>94 (position.label in template: 3563.U)</title><text x="170.301" y="87.5577" class="green" >G</text></g>
<g><line x1="170.301" y1="88.5425" x2="170.301" y2="94.5073" class="black" /></g>
<g><title>95 (position.label in template: 3564.U)</title><text x="172.786" y="87.5577" class="green" >U</text></g>
<g><line x1="172.786" y1="88.5425" x2="172.786" y2="94.5073" class="black" /></g>
<g><title>96 (position.label in template: 3565.U)</title><text x="175.27" y="87.5577" class="green" >C</text></g>
<g><line x1="175.27" y1="88.5425" x2="175.27" y2="94.5073" class="black" /></g>
<g><title>97 (position.label in template: 3566.G)</title><text x="177.6" y="88.4187" class="black" >G</text></g>
<g><title>98 (position.label in template: 3567.A)</title><text x="179.02" y="90.4567" class="black" >A</text></g>
<g><title>99 (position.label in template: 3568.C)</title><text x="179.02" y="92.9407" class="green" >A</text></g>
<g><title>100 (position.label in template: 3569.A)</title><text x="177.6" y="94.9787" class="green" >G</text></g>
<g><title>100 (inserted)</title><text x="179.991" y="98.0723" class="numbering-label sequential" >100</text></g>
<g><line x1="178.237" y1="95.8037" x2="179.319" y2="97.2034" class="numbering-line sequential" /></g>
<g><title>101 (position.label in template: 3570.A)</title><text x="175.27" y="95.8397" class="green" >G</text></g>
<g><title>102 (position.label in template: 3571.A)</title><text x="172.786" y="95.8397" class="green" >G</text></g>
<g><title>103 (position.label in template: 3572.A)</title><text x="170.301" y="95.8397" class="green" >C</text></g>
<g><title>104 (position.label in template: 3573.U)</title><text x="167.817" y="95.8397" class="green" >A</text></g>
<g><title>105 (position.label in template: 3574.A)</title><text x="165.333" y="95.8397" class="black" >A</text></g>
<g><title>106 (position.label in template: 3575.G)</title><text x="162.848" y="95.8397" class="black" >G</text></g>
<g><title>107 (position.label in template: 3576.U)</title><text x="161.858" y="98.8647" class="black" >U</text></g>
<g><title>108 (position.label in template: 3577.G)</title><text x="158.675" y="98.8297" class="black" >G</text></g>
<g><title>109 (position.label in template: 3578.A)</title><text x="157.753" y="95.7827" class="green" >C</text></g>
<g><title>110 (position.label in template: 3579.C)</title><text x="155.268" y="95.7827" class="green" >U</text></g>
<g><title>111 (position.label in template: 3580.C)</title><text x="152.784" y="95.7827" class="black" >C</text></g>
<g><title>112 (position.label in template: 3581.U)</title><text x="150.299" y="95.7827" class="green" >C</text></g>
<g><title>113 (position.label in template: 3582.G)</title><text x="147.815" y="95.7827" class="black" >G</text></g>
<g><title>114 (position.label in template: 3583.C)</title><text x="144.791" y="97.4897" class="green" >A</text></g>
<g><title>115 (position.label in template: 3584.C)</title><text x="141.377" y="98.1257" class="black" >C</text></g>
<g><title>116 (position.label in template: 3585.G)</title><text x="137.941" y="97.6237" class="black" >G</text></g>
<g><title>117 (position.label in template: 3586.C)</title><text x="134.853" y="96.0347" class="black" >C</text></g>
<g><title>118 (position.label in template: 3587.U)</title><text x="132.369" y="96.0357" class="black" >U</text></g>
<g><title>119 (position.label in template: 3588.A)</title><text x="129.884" y="96.0357" class="black" >A</text></g>
<g><title>120 (position.label in template: 3589.C)</title><text x="127.083" y="97.7477" class="green" >U</text></g>
<g><title>121 (position.label in template: 3590.C)</title><text x="123.8" y="97.7457" class="black" >C</text></g>
<g><title>122 (position.label in template: 3591.A)</title><text x="121.001" y="96.0307" class="green" >G</text></g>
<g><title>123 (position.label in template: 3592.U)</title><text x="118.516" y="96.0147" class="green" >C</text></g>
<g><title>124 (position.label in template: 3593.C)</title><text x="116.032" y="95.9987" class="green" >A</text></g>
<g><title>125 (position.label in template: 3594.C)</title><text x="113.548" y="95.9837" class="black" >C</text></g>
<g><title>126 (position.label in template: 3595.G)</title><text x="111.063" y="95.9677" class="black" >G</text></g>
<g><title>127 (position.label in template: 3596.U)</title><text x="110.99" y="98.4267" class="green" >G</text></g>
<g><title>128 (position.label in template: 3597.U)</title><text x="108.596" y="98.5427" class="black" >U</text></g>
<g><line x1="107.437" y1="98.3689" x2="101.473" y2="98.3689" class="black" /></g>
<g><title>129 (position.label in template: 3598.G)</title><text x="108.596" y="101.028" class="green" >G</text></g>
<g><line x1="107.437" y1="100.854" x2="101.473" y2="100.854" class="black" /></g>
<g><title>130 (position.label in template: 3599.G)</title><text x="108.596" y="103.512" class="black" >G</text></g>
<g><line x1="107.437" y1="103.338" x2="101.473" y2="103.338" class="black" /></g>
<g><title>131 (position.label in template: 3600.A)</title><text x="108.596" y="105.997" class="green" >U</text></g>
<g><line x1="107.437" y1="105.823" x2="101.473" y2="105.823" class="black" /></g>
<g><title>132 (position.label in template: 3601.U)</title><text x="108.596" y="108.481" class="black" >U</text></g>
<g><line x1="107.437" y1="108.307" x2="101.473" y2="108.307" class="black" /></g>
<g><title>133 (position.label in template: 3602.A)</title><text x="110.34" y="110.801" class="green" >C</text></g>
<g><title>134 (position.label in template: 3603.A)</title><text x="110.538" y="113.697" class="green" >U</text></g>
<g><title>135 (position.label in template: 3604.U)</title><text x="109.128" y="116.234" class="green" >C</text></g>
<g><line x1="107.969" y1="116.06" x2="102.004" y2="116.06" class="black" /></g>
<g><title>136 (position.label in template: 3605.G)</title><text x="109.128" y="118.718" class="black" >G</text></g>
<g><line x1="107.969" y1="118.544" x2="102.004" y2="118.544" class="black" /></g>
<g><title>137 (position.label in template: 3606.G)</title><text x="109.128" y="121.202" class="green" >C</text></g>
<g><line x1="107.969" y1="121.028" x2="102.004" y2="121.028" class="black" /></g>
<g><title>138 (position.label in template: 3607.C)</title><text x="109.128" y="123.687" class="black" >C</text></g>
<g><line x1="107.969" y1="123.513" x2="102.004" y2="123.512" class="black" /></g>
<g><title>139 (position.label in template: 3608.U)</title><text x="109.128" y="126.171" class="black" >U</text></g>
<g><line x1="107.969" y1="125.997" x2="102.004" y2="125.997" class="black" /></g>
<g><title>140 (position.label in template: 3609.G)</title><text x="110.615" y="128.163" class="black" >G</text></g>
<g><title>141 (position.label in template: 3610.A)</title><text x="111.204" y="130.578" class="black" >A</text></g>
<g><title>142 (position.label in template: 3611.A)</title><text x="110.801" y="133.03" class="black" >A</text></g>
<g><title>143 (position.label in template: 3612.C)</title><text x="109.47" y="135.13" class="black" >C</text></g>
<g><title>144 (position.label in template: 3613.G)</title><text x="107.422" y="136.54" class="black" >G</text></g>
<g><title>145 (position.label in template: 3614.C)</title><text x="104.987" y="137.037" class="black" >C</text></g>
<g><title>146 (position.label in template: 3615.C)</title><text x="102.551" y="136.54" class="black" >C</text></g>
<g><title>147 (position.label in template: 3616.U)</title><text x="100.504" y="135.13" class="black" >U</text></g>
<g><title>148 (position.label in template: 3617.C)</title><text x="99.1725" y="133.03" class="black" >C</text></g>
<g><title>149 (position.label in template: 3618.U)</title><text x="98.7695" y="130.578" class="black" >U</text></g>
<g><title>150 (position.label in template: 3619.A)</title><text x="99.3585" y="128.163" class="black" >A</text></g>
<g><title>150 (inserted)</title><text x="95.8211" y="126.496" class="numbering-label sequential" >150</text></g>
<g><line x1="98.4152" y1="127.718" x2="97.3852" y2="127.233" class="numbering-line sequential" /></g>
<g><title>151 (position.label in template: 3620.A)</title><text x="100.846" y="126.171" class="black" >A</text></g>
<g><title>152 (position.label in template: 3621.G)</title><text x="100.846" y="123.686" class="black" >G</text></g>
<g><title>153 (position.label in template: 3622.U)</title><text x="100.846" y="121.202" class="green" >C</text></g>
<g><title>154 (position.label in template: 3623.C)</title><text x="100.846" y="118.718" class="black" >C</text></g>
<g><title>155 (position.label in template: 3624.A)</title><text x="100.846" y="116.234" class="green" >A</text></g>
<g><title>156 (position.label in template: 3625.G)</title><text x="99.0525" y="113.926" class="black" >G</text></g>
<g><title>157 (position.label in template: 3626.A)</title><text x="98.8525" y="111.011" class="black" >A</text></g>
<g><title>158 (position.label in template: 3627.A)</title><text x="100.315" y="108.481" class="black" >A</text></g>
<g><title>159 (position.label in template: 3628.U)</title><text x="100.315" y="105.997" class="green" >A</text></g>
<g><title>160 (position.label in template: 3629.C)</title><text x="100.315" y="103.512" class="black" >C</text></g>
<g><title>161 (position.label in template: 3630.C)</title><text x="100.315" y="101.028" class="green" >U</text></g>
<g><title>162 (position.label in template: 3631.A)</title><text x="100.315" y="98.5427" class="black" >A</text></g>
<g><title>163 (position.label in template: 3632.U)</title><text x="98.6655" y="96.4867" class="green" >G</text></g>
<g><title>164 (position.label in template: 3633.U)</title><text x="96.1805" y="97.7297" class="green" >U</text></g>
<g><title>165 (position.label in template: 3634.C)</title><text x="93.6965" y="96.4867" class="black" >C</text></g>
<g><title>166 (position.label in template: 3635.U)</title><text x="91.2115" y="96.4867" class="green" >A</text></g>
<g><title>167 (position.label in template: 3636.A)</title><text x="88.7275" y="96.4867" class="green" >C</text></g>
<g><title>168 (position.label in template: 3637.G)</title><text x="86.0975" y="99.1607" class="green" >A</text></g>
<g><title>169 (position.label in template: 3638.A)</title><text x="82.4795" y="100.151" class="black" >A</text></g>
<g><title>170 (position.label in template: 3639.A)</title><text x="78.8545" y="99.1877" class="green" >G</text></g>
<g><title>171 (position.label in template: 3640.A)</title><text x="76.2055" y="96.5317" class="black" >A</text></g>
<g><title>172 (position.label in template: 3641.C)</title><text x="73.7205" y="96.5317" class="black" >C</text></g>
<g><title>173 (inserted)</title><text x="73.1315" y="99.1435" class="red" >C</text></g>
<g><title>174 (inserted)</title><text x="70.4541" y="99.1435" class="red" >G</text></g>
<g><title>175 (position.label in template: 3642.G)</title><text x="69.865" y="96.5317" class="black" >G</text></g>
<g><title>176 (position.label in template: 3643.C)</title><text x="67.38" y="96.5317" class="green" >G</text></g>
<g><title>177 (position.label in template: 3644.A)</title><text x="64.896" y="96.5317" class="green" >U</text></g>
<g><title>178 (position.label in template: 3645.A)</title><text x="62.412" y="96.5317" class="green" >G</text></g>
<g><title>179 (position.label in template: 3646.A)</title><text x="59.927" y="96.5317" class="green" >C</text></g>
<g><title>180 (position.label in template: 3647.C)</title><text x="57.443" y="96.5317" class="black" >C</text></g>
<g><title>181 (position.label in template: 3648.C)</title><text x="54.9586" y="96.5317" class="black" >C</text></g>
<g><title>182 (position.label in template: 3649.A)</title><text x="52.4844" y="96.3068" class="green" >G</text></g>
<g><title>183 (position.label in template: 3650.A)</title><text x="50" y="96.3246" class="green" >U</text></g>
<g><title>184 (position.label in template: 3903.3')</title><text x="47.5156" y="96.3425" class="green" >3'</text></g>
<g><line x1="87.1103" y1="57.4187" x2="86.9581" y2="57.3495" class="gray" /></g>
<g><line x1="84.8485" y1="56.3909" x2="84.6962" y2="56.3217" class="gray" /></g>
<g><line x1="82.5867" y1="55.363" x2="82.4344" y2="55.2938" class="gray" /></g>
<g><line x1="80.3248" y1="54.3351" x2="80.1726" y2="54.2659" class="gray" /></g>
<g><line x1="78.063" y1="53.3073" x2="77.9107" y2="53.2381" class="gray" /></g>
<g><line x1="75.856" y1="52.1736" x2="75.7116" y2="52.0892" class="gray" /></g>
<g><line x1="73.8572" y1="50.7216" x2="73.7338" y2="50.6086" class="gray" /></g>
<g><line x1="72.0286" y1="50.6126" x2="71.9057" y2="50.7262" class="gray" /></g>
<g><line x1="70.2041" y1="52.299" x2="70.0813" y2="52.4125" class="gray" /></g>
<g><line x1="68.3797" y1="53.9854" x2="68.2569" y2="54.0989" class="gray" /></g>
<g><line x1="66.8717" y1="55.9133" x2="66.7946" y2="56.0617" class="gray" /></g>
<g><line x1="65.7258" y1="58.1177" x2="65.6486" y2="58.2661" class="gray" /></g>
<g><line x1="64.5798" y1="60.322" x2="64.5027" y2="60.4704" class="gray" /></g>
<g><line x1="63.4339" y1="62.5264" x2="63.3567" y2="62.6748" class="gray" /></g>
<g><line x1="62.2879" y1="64.7307" x2="62.2108" y2="64.8791" class="gray" /></g>
<g><line x1="61.142" y1="66.9351" x2="61.0648" y2="67.0835" class="gray" /></g>
<g><line x1="59.996" y1="69.1394" x2="59.9189" y2="69.2878" class="gray" /></g>
<g><line x1="58.8501" y1="71.3438" x2="58.7729" y2="71.4922" class="gray" /></g>
<g><line x1="57.7041" y1="73.5481" x2="57.627" y2="73.6965" class="gray" /></g>
<g><line x1="56.5582" y1="75.7525" x2="56.481" y2="75.9009" class="gray" /></g>
<g><line x1="55.3156" y1="77.9005" x2="55.2245" y2="78.0408" class="gray" /></g>
<g><line x1="54.3475" y1="80.1447" x2="54.312" y2="80.3081" class="gray" /></g>
<g><line x1="54.5835" y1="82.4769" x2="54.6582" y2="82.6265" class="gray" /></g>
<g><line x1="55.7582" y1="84.6647" x2="55.8422" y2="84.8092" class="gray" /></g>
<g><line x1="56.8996" y1="86.8676" x2="56.9682" y2="87.0201" class="gray" /></g>
<g><line x1="58.6016" y1="88.0769" x2="58.7684" y2="88.0769" class="gray" /></g>
<g><line x1="61.0856" y1="88.0769" x2="61.2534" y2="88.0769" class="gray" /></g>
<g><line x1="63.5706" y1="88.0769" x2="63.7374" y2="88.0769" class="gray" /></g>
<g><line x1="66.0546" y1="88.0769" x2="66.2214" y2="88.0769" class="gray" /></g>
<g><line x1="68.5386" y1="88.0769" x2="68.7064" y2="88.0769" class="gray" /></g>
<g><line x1="71.0236" y1="88.0769" x2="72.562" y2="88.0769" class="gray" /></g>
<g><line x1="74.8791" y1="88.0769" x2="75.047" y2="88.0769" class="gray" /></g>
<g><line x1="77.1815" y1="87.4525" x2="79.1526" y2="86.1913" class="gray" /></g>
<g><line x1="81.2871" y1="85.5627" x2="83.628" y2="85.5541" class="gray" /></g>
<g><line x1="85.7669" y1="86.1673" x2="87.7472" y2="87.4145" class="gray" /></g>
<g><line x1="89.8861" y1="88.0319" x2="90.053" y2="88.0319" class="gray" /></g>
<g><line x1="92.3701" y1="88.0319" x2="92.538" y2="88.0319" class="gray" /></g>
<g><line x1="94.7328" y1="87.5138" x2="95.1443" y2="87.3081" class="gray" /></g>
<g><line x1="97.2169" y1="87.3079" x2="97.6292" y2="87.514" class="gray" /></g>
<g><line x1="99.3012" y1="87.0633" x2="99.7249" y2="86.4176" class="gray" /></g>
<g><line x1="100.361" y1="84.2903" x2="100.361" y2="84.1235" class="gray" /></g>
<g><line x1="100.361" y1="81.8063" x2="100.361" y2="81.6395" class="gray" /></g>
<g><line x1="100.361" y1="79.3223" x2="100.361" y2="79.1545" class="gray" /></g>
<g><line x1="100.361" y1="76.8373" x2="100.361" y2="76.6705" class="gray" /></g>
<g><line x1="100.361" y1="74.3533" x2="100.361" y2="74.1855" class="gray" /></g>
<g><line x1="100.361" y1="71.8683" x2="100.361" y2="71.7015" class="gray" /></g>
<g><line x1="99.8424" y1="69.5066" x2="99.6367" y2="69.0952" class="gray" /></g>
<g><line x1="98.368" y1="67.1763" x2="98.2601" y2="67.0495" class="gray" /></g>
<g><line x1="97.057" y1="65.1004" x2="96.9921" y2="64.9475" class="gray" /></g>
<g><line x1="96.4262" y1="62.7279" x2="96.4099" y2="62.562" class="gray" /></g>
<g><line x1="96.5331" y1="60.2747" x2="96.567" y2="60.1121" class="gray" /></g>
<g><line x1="97.3682" y1="57.9662" x2="97.4489" y2="57.8216" class="gray" /></g>
<g><line x1="98.8542" y1="56.0127" x2="98.9749" y2="55.8982" class="gray" /></g>
<g><line x1="100.856" y1="54.5919" x2="101.006" y2="54.5189" class="gray" /></g>
<g><line x1="103.192" y1="53.8345" x2="103.356" y2="53.8093" class="gray" /></g>
<g><line x1="105.647" y1="53.8094" x2="105.81" y2="53.8344" class="gray" /></g>
<g><line x1="107.996" y1="54.5189" x2="108.146" y2="54.5919" class="gray" /></g>
<g><line x1="110.027" y1="55.898" x2="110.149" y2="56.0129" class="gray" /></g>
<g><line x1="111.554" y1="57.8216" x2="111.635" y2="57.9662" class="gray" /></g>
<g><line x1="112.436" y1="60.1122" x2="112.469" y2="60.2746" class="gray" /></g>
<g><line x1="112.592" y1="62.562" x2="112.576" y2="62.7279" class="gray" /></g>
<g><line x1="112.01" y1="64.9475" x2="111.945" y2="65.1004" class="gray" /></g>
<g><line x1="110.742" y1="67.0495" x2="110.634" y2="67.1763" class="gray" /></g>
<g><line x1="109.365" y1="69.0952" x2="109.16" y2="69.5066" class="gray" /></g>
<g><line x1="108.642" y1="71.7015" x2="108.642" y2="71.8683" class="gray" /></g>
<g><line x1="108.642" y1="74.1855" x2="108.642" y2="74.3533" class="gray" /></g>
<g><line x1="108.642" y1="76.6705" x2="108.642" y2="76.8373" class="gray" /></g>
<g><line x1="108.642" y1="79.1545" x2="108.642" y2="79.3223" class="gray" /></g>
<g><line x1="108.642" y1="81.6395" x2="108.642" y2="81.8063" class="gray" /></g>
<g><line x1="108.642" y1="84.1235" x2="108.642" y2="84.2903" class="gray" /></g>
<g><line x1="109.531" y1="86.1911" x2="110.226" y2="86.7707" class="gray" /></g>
<g><line x1="112.274" y1="87.5204" x2="112.441" y2="87.5215" class="gray" /></g>
<g><line x1="114.758" y1="87.5359" x2="114.925" y2="87.5369" class="gray" /></g>
<g><line x1="117.242" y1="87.5514" x2="117.409" y2="87.5525" class="gray" /></g>
<g><line x1="119.726" y1="87.5669" x2="119.894" y2="87.5679" class="gray" /></g>
<g><line x1="121.755" y1="86.6534" x2="122.067" y2="86.2434" class="gray" /></g>
<g><line x1="123.874" y1="84.9725" x2="124.365" y2="84.8173" class="gray" /></g>
<g><line x1="126.574" y1="84.8184" x2="127.065" y2="84.9744" class="gray" /></g>
<g><line x1="128.871" y1="86.2473" x2="129.182" y2="86.6575" class="gray" /></g>
<g><line x1="131.042" y1="87.5799" x2="131.209" y2="87.5799" class="gray" /></g>
<g><line x1="133.526" y1="87.5799" x2="133.694" y2="87.5799" class="gray" /></g>
<g><line x1="135.773" y1="86.8769" x2="136.215" y2="86.54" class="gray" /></g>
<g><line x1="138.229" y1="85.455" x2="138.754" y2="85.2719" class="gray" /></g>
<g><line x1="141.006" y1="84.8673" x2="141.56" y2="84.8565" class="gray" /></g>
<g><line x1="143.826" y1="85.1727" x2="144.358" y2="85.3351" class="gray" /></g>
<g><line x1="146.413" y1="86.3409" x2="146.867" y2="86.6609" class="gray" /></g>
<g><line x1="148.973" y1="87.3279" x2="149.14" y2="87.3279" class="gray" /></g>
<g><line x1="151.457" y1="87.3279" x2="151.625" y2="87.3279" class="gray" /></g>
<g><line x1="153.942" y1="87.3279" x2="154.109" y2="87.3279" class="gray" /></g>
<g><line x1="156.426" y1="87.3279" x2="156.594" y2="87.3279" class="gray" /></g>
<g><line x1="158.911" y1="87.3407" x2="161.689" y2="87.3712" class="gray" /></g>
<g><line x1="164.006" y1="87.3839" x2="164.174" y2="87.3839" class="gray" /></g>
<g><line x1="166.491" y1="87.3839" x2="166.658" y2="87.3839" class="gray" /></g>
<g><line x1="168.975" y1="87.3839" x2="169.142" y2="87.3839" class="gray" /></g>
<g><line x1="171.459" y1="87.3839" x2="171.627" y2="87.3839" class="gray" /></g>
<g><line x1="173.944" y1="87.3839" x2="174.111" y2="87.3839" class="gray" /></g>
<g><line x1="176.356" y1="87.7855" x2="176.513" y2="87.8433" class="gray" /></g>
<g><line x1="178.262" y1="89.1955" x2="178.357" y2="89.3323" class="gray" /></g>
<g><line x1="179.02" y1="91.4415" x2="179.02" y2="91.6083" class="gray" /></g>
<g><line x1="178.357" y1="93.7175" x2="178.262" y2="93.8543" class="gray" /></g>
<g><line x1="176.513" y1="95.2065" x2="176.356" y2="95.2643" class="gray" /></g>
<g><line x1="174.111" y1="95.6659" x2="173.944" y2="95.6659" class="gray" /></g>
<g><line x1="171.627" y1="95.6659" x2="171.459" y2="95.6659" class="gray" /></g>
<g><line x1="169.142" y1="95.6659" x2="168.975" y2="95.6659" class="gray" /></g>
<g><line x1="166.658" y1="95.6659" x2="166.491" y2="95.6659" class="gray" /></g>
<g><line x1="164.174" y1="95.6659" x2="164.006" y2="95.6659" class="gray" /></g>
<g><line x1="162.487" y1="96.767" x2="162.218" y2="97.5898" class="gray" /></g>
<g><line x1="160.699" y1="98.6782" x2="159.833" y2="98.6687" class="gray" /></g>
<g><line x1="158.339" y1="97.547" x2="158.088" y2="96.7179" class="gray" /></g>
<g><line x1="156.594" y1="95.6089" x2="156.426" y2="95.6089" class="gray" /></g>
<g><line x1="154.109" y1="95.6089" x2="153.942" y2="95.6089" class="gray" /></g>
<g><line x1="151.625" y1="95.6089" x2="151.457" y2="95.6089" class="gray" /></g>
<g><line x1="149.14" y1="95.6089" x2="148.973" y2="95.6089" class="gray" /></g>
<g><line x1="146.806" y1="96.1785" x2="145.799" y2="96.7464" class="gray" /></g>
<g><line x1="143.652" y1="97.5281" x2="142.516" y2="97.7397" class="gray" /></g>
<g><line x1="140.23" y1="97.7844" x2="139.087" y2="97.6174" class="gray" /></g>
<g><line x1="136.91" y1="96.9198" x2="135.883" y2="96.391" class="gray" /></g>
<g><line x1="133.694" y1="95.8614" x2="133.527" y2="95.8615" class="gray" /></g>
<g><line x1="131.21" y1="95.8619" x2="131.042" y2="95.8619" class="gray" /></g>
<g><line x1="128.895" y1="96.4661" x2="128.071" y2="96.9697" class="gray" /></g>
<g><line x1="125.924" y1="97.5732" x2="124.958" y2="97.5726" class="gray" /></g>
<g><line x1="122.812" y1="96.9666" x2="121.988" y2="96.4622" class="gray" /></g>
<g><line x1="119.842" y1="95.8495" x2="119.674" y2="95.8484" class="gray" /></g>
<g><line x1="117.357" y1="95.8335" x2="117.19" y2="95.8324" class="gray" /></g>
<g><line x1="114.873" y1="95.8179" x2="114.706" y2="95.8169" class="gray" /></g>
<g><line x1="112.389" y1="95.8025" x2="112.221" y2="95.8014" class="gray" /></g>
<g><line x1="111.028" y1="96.952" x2="111.024" y2="97.0948" class="gray" /></g>
<g><line x1="109.832" y1="98.309" x2="109.753" y2="98.3128" class="gray" /></g>
<g><line x1="108.596" y1="99.5275" x2="108.596" y2="99.6953" class="gray" /></g>
<g><line x1="108.596" y1="102.013" x2="108.596" y2="102.179" class="gray" /></g>
<g><line x1="108.596" y1="104.497" x2="108.596" y2="104.664" class="gray" /></g>
<g><line x1="108.596" y1="106.982" x2="108.596" y2="107.148" class="gray" /></g>
<g><line x1="109.292" y1="109.233" x2="109.643" y2="109.701" class="gray" /></g>
<g><line x1="110.419" y1="111.783" x2="110.459" y2="112.367" class="gray" /></g>
<g><line x1="109.975" y1="114.536" x2="109.69" y2="115.047" class="gray" /></g>
<g><line x1="109.128" y1="117.219" x2="109.128" y2="117.385" class="gray" /></g>
<g><line x1="109.128" y1="119.703" x2="109.128" y2="119.869" class="gray" /></g>
<g><line x1="109.128" y1="122.187" x2="109.128" y2="122.354" class="gray" /></g>
<g><line x1="109.128" y1="124.672" x2="109.128" y2="124.838" class="gray" /></g>
<g><line x1="109.821" y1="126.925" x2="109.921" y2="127.06" class="gray" /></g>
<g><line x1="110.889" y1="129.115" x2="110.929" y2="129.278" class="gray" /></g>
<g><line x1="111.016" y1="131.547" x2="110.988" y2="131.713" class="gray" /></g>
<g><line x1="110.18" y1="133.835" x2="110.09" y2="133.977" class="gray" /></g>
<g><line x1="108.515" y1="135.613" x2="108.376" y2="135.709" class="gray" /></g>
<g><line x1="106.286" y1="136.598" x2="106.122" y2="136.631" class="gray" /></g>
<g><line x1="103.851" y1="136.631" x2="103.686" y2="136.598" class="gray" /></g>
<g><line x1="101.596" y1="135.709" x2="101.458" y2="135.613" class="gray" /></g>
<g><line x1="99.8833" y1="133.977" x2="99.7928" y2="133.835" class="gray" /></g>
<g><line x1="98.9846" y1="131.713" x2="98.9574" y2="131.547" class="gray" /></g>
<g><line x1="99.0441" y1="129.278" x2="99.084" y2="129.115" class="gray" /></g>
<g><line x1="100.052" y1="127.06" x2="100.152" y2="126.925" class="gray" /></g>
<g><line x1="100.846" y1="124.838" x2="100.846" y2="124.671" class="gray" /></g>
<g><line x1="100.846" y1="122.353" x2="100.846" y2="122.187" class="gray" /></g>
<g><line x1="100.846" y1="119.869" x2="100.846" y2="119.703" class="gray" /></g>
<g><line x1="100.846" y1="117.385" x2="100.846" y2="117.219" class="gray" /></g>
<g><line x1="100.135" y1="115.145" x2="99.7633" y2="114.667" class="gray" /></g>
<g><line x1="98.9732" y1="112.596" x2="98.9318" y2="111.993" class="gray" /></g>
<g><line x1="99.4322" y1="109.834" x2="99.7349" y2="109.31" class="gray" /></g>
<g><line x1="100.315" y1="107.148" x2="100.315" y2="106.982" class="gray" /></g>
<g><line x1="100.315" y1="104.664" x2="100.315" y2="104.497" class="gray" /></g>
<g><line x1="100.315" y1="102.179" x2="100.315" y2="102.013" class="gray" /></g>
<g><line x1="100.315" y1="99.6953" x2="100.315" y2="99.5275" class="gray" /></g>
<g><line x1="99.5897" y1="97.4651" x2="99.3904" y2="97.2167" class="gray" /></g>
<g><line x1="97.6294" y1="96.8312" x2="97.2167" y2="97.0376" class="gray" /></g>
<g><line x1="95.1444" y1="97.0375" x2="94.7326" y2="96.8314" class="gray" /></g>
<g><line x1="92.538" y1="96.3129" x2="92.3701" y2="96.3129" class="gray" /></g>
<g><line x1="90.053" y1="96.3129" x2="89.8861" y2="96.3129" class="gray" /></g>
<g><line x1="87.9151" y1="97.1389" x2="86.91" y2="98.1609" class="gray" /></g>
<g><line x1="84.98" y1="99.2927" x2="83.597" y2="99.6711" class="gray" /></g>
<g><line x1="81.3598" y1="99.6795" x2="79.9743" y2="99.3114" class="gray" /></g>
<g><line x1="78.0364" y1="98.1936" x2="77.0237" y2="97.1782" class="gray" /></g>
<g><line x1="75.047" y1="96.3579" x2="74.8791" y2="96.3579" class="gray" /></g>
<g><line x1="73.4656" y1="97.4881" x2="73.3864" y2="97.8395" class="gray" /></g>
<g><line x1="71.9729" y1="98.9697" x2="71.6127" y2="98.9697" class="gray" /></g>
<g><line x1="70.1992" y1="97.8395" x2="70.1199" y2="97.4881" class="gray" /></g>
<g><line x1="68.7064" y1="96.3579" x2="68.5386" y2="96.3579" class="gray" /></g>
<g><line x1="66.2214" y1="96.3579" x2="66.0546" y2="96.3579" class="gray" /></g>
<g><line x1="63.7374" y1="96.3579" x2="63.5706" y2="96.3579" class="gray" /></g>
<g><line x1="61.2534" y1="96.3579" x2="61.0856" y2="96.3579" class="gray" /></g>
<g><line x1="58.7684" y1="96.3579" x2="58.6016" y2="96.3579" class="gray" /></g>
<g><line x1="56.2844" y1="96.3579" x2="56.1172" y2="96.3579" class="gray" /></g>
<g><line x1="53.8048" y1="96.253" x2="53.6382" y2="96.2379" class="gray" /></g>
<g><line x1="51.3258" y1="96.1413" x2="51.1586" y2="96.1425" class="gray" /></g>
<g><line x1="48.8414" y1="96.1592" x2="48.6742" y2="96.1604" class="gray" /></g>
</svg>
