<svg
	xmlns="http://www.w3.org/2000/svg"
	width="224.798"
	height="571.592"
	style="font-size: 3.615990px; font-weight: bold; font-family: Helvetica; " >
<g><style type="text/css" >
<!-- create color definitions -->
<![CDATA[
text.red {fill: rgb(255, 0, 255); }
text.green {fill: rgb(0, 255, 0); }
text.blue {fill: rgb(0, 0, 255); }
text.black {fill: rgb(0, 0, 0); }
text.gray {fill: rgb(204, 204, 204); }
text.brown {fill: rgb(211.65, 104.55, 30.6); }
text {fill: rgb(0, 0, 0); text-anchor: middle; alignment-baseline: middle; }
circle.red {stroke: rgb(255, 0, 255); fill: none; }
circle.green {stroke: rgb(0, 255, 0); fill: none; }
circle.blue {stroke: rgb(0, 0, 255); fill: none; }
circle.black {stroke: rgb(0, 0, 0); fill: none; }
circle.gray {stroke: rgb(204, 204, 204); fill: none; }
circle.brown {stroke: rgb(211.65, 104.55, 30.6); fill: none; }
circle {stroke: rgb(0, 0, 0); }
line.red {stroke: rgb(255, 0, 255); stroke-width: 0.451999; }
line.green {stroke: rgb(0, 255, 0); stroke-width: 0.451999; }
line.blue {stroke: rgb(0, 0, 255); stroke-width: 0.451999; }
line.black {stroke: rgb(0, 0, 0); stroke-width: 0.451999; }
line.gray {stroke: rgb(204, 204, 204); stroke-width: 0.451999; }
line.brown {stroke: rgb(211.65, 104.55, 30.6); stroke-width: 0.451999; }
line {stroke: rgb(0, 0, 0); }
text.numbering-label {fill: rgb(204, 204, 204);}
line.numbering-line {stroke: rgb(204, 204, 204); stroke-width: 0.225999;}
line.predicted {stroke: rgb(0, 0, 0); stroke-dasharray: 2}
text.background {fill: rgb(255, 255, 255);
.template {visibility:hidden}
]]>
</style></g>
<g><title>0 (position.label in template: 0.5')</title><text x="137.065" y="96.1076" class="green" >5'</text></g>
<g><title>1 (position.label in template: 4.U)</title><text x="136.981" y="90.7184" class="green" >C</text></g>
<g><title>2 (position.label in template: 5.U)</title><text x="136.896" y="85.3291" class="green" >C</text></g>
<g><title>3 (position.label in template: 6.G)</title><text x="136.812" y="79.9399" class="green" >C</text></g>
<g><title>4 (position.label in template: 7.G)</title><text x="136.728" y="74.5506" class="green" >U</text></g>
<g><title>5 (position.label in template: 8.A)</title><text x="136.643" y="69.1614" class="black" >A</text></g>
<g><title>6 (inserted)</title><text x="141.504" y="66.8337" class="red" >U</text></g>
<g><title>7 (position.label in template: 10.A)</title><text x="146.365" y="64.506" class="green" >G</text></g>
<g><line x1="146.29" y1="61.7349" x2="145.985" y2="52.0479" class="black" /></g>
<g><title>8 (position.label in template: 11.G)</title><text x="151.43" y="66.35" class="black" >G</text></g>
<g><line x1="151.355" y1="63.5789" x2="151.049" y2="53.8919" class="black" /></g>
<g><title>9 (position.label in template: 12.U)</title><text x="156.495" y="68.194" class="green" >G</text></g>
<g><line x1="156.42" y1="65.4229" x2="156.115" y2="55.7349" class="black" /></g>
<g><title>10 (position.label in template: 13.U)</title><text x="161.152" y="68.912" class="green" >G</text></g>
<g><title>10 (inserted)</title><text x="162.284" y="76.9689" class="numbering-label sequential" >10</text></g>
<g><line x1="161.454" y1="71.0605" x2="162.03" y2="75.1609" class="numbering-line sequential" /></g>
<g><title>11 (position.label in template: 14.U)</title><text x="165.43" y="66.939" class="blue" >U</text></g>
<g><title>12 (inserted)</title><text x="167.907" y="62.9315" class="red" >X</text></g>
<g><title>13 (inserted)</title><text x="167.759" y="58.2224" class="red" >X</text></g>
<g><title>14 (inserted)</title><text x="165.035" y="54.3783" class="red" >X</text></g>
<g><title>15 (inserted)</title><text x="160.642" y="52.678" class="red" >X</text></g>
<g><title>16 (position.label in template: 23.C)</title><text x="156.039" y="53.687" class="green" >C</text></g>
<g><title>17 (position.label in template: 24.U)</title><text x="150.973" y="51.844" class="black" >U</text></g>
<g><title>18 (position.label in template: 25.C)</title><text x="145.909" y="50" class="green" >C</text></g>
<g><title>19 (inserted)</title><text x="141.475" y="53.0631" class="red" >A</text></g>
<g><title>20 (inserted)</title><text x="137.04" y="56.1262" class="red" >G</text></g>
<g><title>20 (inserted)</title><text x="132.416" y="49.4318" class="numbering-label sequential" >20</text></g>
<g><line x1="135.807" y1="54.341" x2="133.665" y2="51.2398" class="numbering-line sequential" /></g>
<g><title>21 (inserted)</title><text x="132.605" y="59.1893" class="red" >A</text></g>
<g><title>22 (inserted)</title><text x="128.17" y="62.2524" class="red" >A</text></g>
<g><title>23 (inserted)</title><text x="123.735" y="65.3156" class="red" >U</text></g>
<g><title>24 (position.label in template: 31.G)</title><text x="119.3" y="68.3787" class="black" >G</text></g>
<g><title>25 (inserted)</title><text x="117.323" y="70.2106" class="red" >A</text></g>
<g><title>26 (inserted)</title><text x="113.37" y="73.8743" class="red" >A</text></g>
<g><title>27 (inserted)</title><text x="109.417" y="77.5381" class="red" >C</text></g>
<g><title>28 (inserted)</title><text x="101.51" y="84.8657" class="red" >G</text></g>
<g><title>29 (inserted)</title><text x="97.5573" y="88.5295" class="red" >C</text></g>
<g><title>30 (inserted)</title><text x="93.604" y="92.1933" class="red" >U</text></g>
<g><title>30 (inserted)</title><text x="88.0736" y="86.226" class="numbering-label sequential" >30</text></g>
<g><line x1="92.1293" y1="90.602" x2="89.7493" y2="88.034" class="numbering-line sequential" /></g>
<g><title>31 (position.label in template: 38.G)</title><text x="91.6274" y="94.0252" class="black" >G</text></g>
<g><title>32 (inserted)</title><text x="88.5072" y="98.4201" class="red" >G</text></g>
<g><title>33 (inserted)</title><text x="85.3869" y="102.815" class="red" >C</text></g>
<g><title>34 (inserted)</title><text x="82.2667" y="107.21" class="red" >G</text></g>
<g><title>35 (inserted)</title><text x="79.1464" y="111.605" class="red" >G</text></g>
<g><title>36 (inserted)</title><text x="76.0262" y="116" class="red" >C</text></g>
<g><title>37 (inserted)</title><text x="72.9059" y="120.395" class="red" >G</text></g>
<g><title>38 (inserted)</title><text x="69.7857" y="124.79" class="red" >U</text></g>
<g><title>39 (inserted)</title><text x="66.6654" y="129.184" class="red" >G</text></g>
<g><title>40 (inserted)</title><text x="63.5451" y="133.579" class="red" >C</text></g>
<g><title>41 (position.label in template: 48.C)</title><text x="60.4249" y="137.974" class="black" >C</text></g>
<g><title>42 (position.label in template: 49.U)</title><text x="65.2249" y="140.89" class="black" >U</text></g>
<g><title>43 (position.label in template: 50.A)</title><text x="67.7339" y="145.915" class="green" >U</text></g>
<g><title>44 (position.label in template: 51.A)</title><text x="67.1769" y="151.505" class="black" >A</text></g>
<g><title>45 (inserted)</title><text x="67.3535" y="156.892" class="red" >C</text></g>
<g><title>46 (inserted)</title><text x="67.5301" y="162.279" class="red" >A</text></g>
<g><title>47 (inserted)</title><text x="67.7067" y="167.666" class="red" >C</text></g>
<g><title>48 (position.label in template: 55.A)</title><text x="67.8833" y="173.053" class="black" >A</text></g>
<g><title>49 (inserted)</title><text x="68.1579" y="178.436" class="red" >U</text></g>
<g><title>50 (inserted)</title><text x="68.4325" y="183.819" class="red" >G</text></g>
<g><title>50 (inserted)</title><text x="60.307" y="184.234" class="numbering-label sequential" >50</text></g>
<g><line x1="66.2657" y1="183.93" x2="62.4766" y2="184.123" class="numbering-line sequential" /></g>
<g><title>51 (inserted)</title><text x="68.707" y="189.202" class="red" >C</text></g>
<g><title>52 (position.label in template: 59.A)</title><text x="68.9816" y="194.585" class="black" >A</text></g>
<g><title>53 (position.label in template: 60.A)</title><text x="73.4436" y="197.162" class="black" >A</text></g>
<g><title>54 (position.label in template: 61.G)</title><text x="77.3526" y="200.518" class="black" >G</text></g>
<g><line x1="78.5581" y1="202.244" x2="82.8852" y2="209.738" class="black" /></g>
<g><title>55 (position.label in template: 62.U)</title><text x="82.0216" y="197.822" class="black" >U</text></g>
<g><line x1="83.2268" y1="199.548" x2="87.5534" y2="207.043" class="black" /></g>
<g><title>56 (position.label in template: 63.C)</title><text x="86.6886" y="195.127" class="black" >C</text></g>
<g><line x1="87.894" y1="196.853" x2="92.2212" y2="204.348" class="black" /></g>
<g><title>57 (position.label in template: 64.G)</title><text x="86.0716" y="190.162" class="black" >G</text></g>
<g><title>58 (position.label in template: 65.U)</title><text x="90.4106" y="187.676" class="green" >A</text></g>
<g><title>59 (position.label in template: 66.G)</title><text x="94.3656" y="190.694" class="black" >G</text></g>
<g><line x1="95.571" y1="192.42" x2="99.8982" y2="199.915" class="black" /></g>
<g><title>60 (position.label in template: 67.C)</title><text x="99.0336" y="187.998" class="black" >C</text></g>
<g><line x1="100.239" y1="189.724" x2="104.566" y2="197.22" class="black" /></g>
<g><title>61 (position.label in template: 68.G)</title><text x="102.691" y="183.553" class="black" >G</text></g>
<g><line x1="103.896" y1="185.279" x2="110.244" y2="196.275" class="black" /></g>
<g><title>62 (position.label in template: 69.G)</title><text x="107.983" y="182.838" class="green" >A</text></g>
<g><line x1="109.188" y1="184.564" x2="113.515" y2="192.059" class="black" /></g>
<g><title>63 (position.label in template: 71.C)</title><text x="105.114" y="178.294" class="green" >A</text></g>
<g><title>64 (position.label in template: 72.C)</title><text x="108.91" y="174.49" class="green" >G</text></g>
<g><title>65 (position.label in template: 73.G)</title><text x="113.46" y="177.349" class="green" >G</text></g>
<g><line x1="114.665" y1="179.075" x2="121.013" y2="190.071" class="black" /></g>
<g><title>66 (position.label in template: 74.C)</title><text x="121.417" y="172.979" class="black" >C</text></g>
<g><line x1="122.622" y1="174.705" x2="126.949" y2="182.201" class="black" /></g>
<g><title>67 (position.label in template: 75.G)</title><text x="126.085" y="170.284" class="green" >G</text></g>
<g><line x1="127.29" y1="172.01" x2="131.617" y2="179.505" class="black" /></g>
<g><title>68 (position.label in template: 76.G)</title><text x="130.753" y="167.589" class="black" >G</text></g>
<g><line x1="131.958" y1="169.315" x2="136.285" y2="176.81" class="black" /></g>
<g><title>69 (position.label in template: 77.G)</title><text x="135.421" y="164.894" class="green" >A</text></g>
<g><line x1="136.626" y1="166.62" x2="140.953" y2="174.115" class="black" /></g>
<g><title>70 (inserted)</title><text x="135.181" y="159.609" class="red" >A</text></g>
<g><title>71 (inserted)</title><text x="136.34" y="154.446" class="red" >C</text></g>
<g><title>72 (inserted)</title><text x="138.817" y="149.771" class="red" >C</text></g>
<g><title>73 (inserted)</title><text x="142.438" y="145.913" class="red" >A</text></g>
<g><title>74 (inserted)</title><text x="146.946" y="143.144" class="red" >A</text></g>
<g><title>75 (inserted)</title><text x="152.025" y="141.659" class="red" >G</text></g>
<g><title>76 (inserted)</title><text x="157.315" y="141.563" class="red" >G</text></g>
<g><title>77 (inserted)</title><text x="162.443" y="142.862" class="red" >G</text></g>
<g><title>78 (inserted)</title><text x="167.049" y="145.466" class="red" >G</text></g>
<g><title>79 (inserted)</title><text x="170.807" y="149.191" class="red" >C</text></g>
<g><title>80 (inserted)</title><text x="173.453" y="153.773" class="red" >A</text></g>
<g><title>81 (inserted)</title><text x="174.798" y="158.89" class="red" >A</text></g>
<g><title>82 (inserted)</title><text x="174.75" y="164.18" class="red" >C</text></g>
<g><title>83 (inserted)</title><text x="173.311" y="169.272" class="red" >C</text></g>
<g><title>84 (inserted)</title><text x="170.582" y="173.805" class="red" >C</text></g>
<g><title>85 (inserted)</title><text x="166.757" y="177.46" class="red" >G</text></g>
<g><title>86 (inserted)</title><text x="162.104" y="179.979" class="red" >A</text></g>
<g><title>87 (inserted)</title><text x="156.953" y="181.185" class="red" >G</text></g>
<g><title>88 (inserted)</title><text x="151.665" y="180.993" class="red" >G</text></g>
<g><title>89 (inserted)</title><text x="146.615" y="179.415" class="red" >U</text></g>
<g><title>90 (position.label in template: 85.U)</title><text x="142.158" y="176.564" class="green" >C</text></g>
<g><title>91 (position.label in template: 86.C)</title><text x="137.49" y="179.259" class="black" >C</text></g>
<g><title>92 (position.label in template: 87.C)</title><text x="132.823" y="181.954" class="green" >U</text></g>
<g><title>93 (position.label in template: 88.G)</title><text x="128.154" y="184.65" class="black" >G</text></g>
<g><title>94 (position.label in template: 89.U)</title><text x="127.561" y="190.433" class="black" >U</text></g>
<g><title>95 (position.label in template: 90.G)</title><text x="122.218" y="192.52" class="green" >C</text></g>
<g><title>96 (position.label in template: 92.U)</title><text x="114.721" y="194.508" class="green" >U</text></g>
<g><title>97 (position.label in template: 93.C)</title><text x="116.061" y="199.615" class="green" >G</text></g>
<g><title>98 (position.label in template: 94.A)</title><text x="111.45" y="198.724" class="black" >A</text></g>
<g><title>99 (position.label in template: 95.G)</title><text x="105.772" y="199.669" class="black" >G</text></g>
<g><title>100 (position.label in template: 96.C)</title><text x="101.104" y="202.364" class="black" >C</text></g>
<g><title>100 (inserted)</title><text x="105.172" y="209.41" class="numbering-label sequential" >100</text></g>
<g><line x1="102.188" y1="204.243" x2="104.128" y2="207.602" class="numbering-line sequential" /></g>
<g><title>101 (position.label in template: 97.G)</title><text x="93.4266" y="206.797" class="black" >G</text></g>
<g><title>102 (position.label in template: 98.G)</title><text x="88.7586" y="209.492" class="black" >G</text></g>
<g><title>103 (position.label in template: 99.C)</title><text x="84.0906" y="212.187" class="black" >C</text></g>
<g><title>104 (position.label in template: 100.G)</title><text x="85.1286" y="218.455" class="green" >A</text></g>
<g><title>105 (position.label in template: 101.G)</title><text x="84.7146" y="224.795" class="green" >A</text></g>
<g><title>106 (position.label in template: 102.A)</title><text x="82.8706" y="230.875" class="black" >A</text></g>
<g><title>107 (position.label in template: 103.C)</title><text x="79.6946" y="236.377" class="black" >C</text></g>
<g><title>108 (position.label in template: 104.G)</title><text x="75.3506" y="241.014" class="black" >G</text></g>
<g><title>109 (position.label in template: 105.G)</title><text x="70.0676" y="244.543" class="black" >G</text></g>
<g><title>110 (inserted)</title><text x="69.4157" y="249.893" class="red" >G</text></g>
<g><title>111 (inserted)</title><text x="68.7637" y="255.244" class="red" >U</text></g>
<g><title>112 (inserted)</title><text x="68.1118" y="260.594" class="red" >G</text></g>
<g><title>113 (position.label in template: 109.A)</title><text x="67.4599" y="265.944" class="black" >A</text></g>
<g><title>114 (position.label in template: 110.G)</title><text x="70.0239" y="271.896" class="black" >G</text></g>
<g><title>115 (position.label in template: 111.U)</title><text x="71.3329" y="278.243" class="black" >U</text></g>
<g><title>116 (position.label in template: 112.A)</title><text x="71.3329" y="284.723" class="black" >A</text></g>
<g><title>117 (position.label in template: 113.A)</title><text x="70.0239" y="291.07" class="black" >A</text></g>
<g><title>118 (position.label in template: 114.C)</title><text x="67.4599" y="297.022" class="green" >U</text></g>
<g><title>119 (inserted)</title><text x="67.4993" y="299.717" class="red" >G</text></g>
<g><title>120 (inserted)</title><text x="67.5782" y="305.106" class="red" >G</text></g>
<g><title>121 (inserted)</title><text x="67.6571" y="310.496" class="red" >A</text></g>
<g><title>122 (inserted)</title><text x="67.7359" y="315.885" class="red" >C</text></g>
<g><title>123 (inserted)</title><text x="67.8937" y="326.664" class="red" >A</text></g>
<g><title>124 (inserted)</title><text x="67.9726" y="332.053" class="red" >G</text></g>
<g><title>125 (inserted)</title><text x="68.0515" y="337.443" class="red" >G</text></g>
<g><title>126 (inserted)</title><text x="68.1303" y="342.832" class="red" >U</text></g>
<g><title>127 (position.label in template: 123.G)</title><text x="68.1698" y="345.527" class="green" >A</text></g>
<g><title>128 (position.label in template: 124.A)</title><text x="68.1698" y="350.062" class="black" >A</text></g>
<g><title>129 (inserted)</title><text x="68.805" y="355.414" class="red" >C</text></g>
<g><title>130 (inserted)</title><text x="69.4403" y="360.766" class="red" >G</text></g>
<g><title>131 (inserted)</title><text x="70.0755" y="366.119" class="red" >U</text></g>
<g><title>132 (position.label in template: 128.A)</title><text x="70.7108" y="371.471" class="black" >A</text></g>
<g><title>133 (position.label in template: 129.C)</title><text x="69.0058" y="376.376" class="black" >C</text></g>
<g><title>134 (inserted)</title><text x="69.3835" y="379.044" class="red" >C</text></g>
<g><title>135 (inserted)</title><text x="70.139" y="384.381" class="red" >C</text></g>
<g><title>136 (inserted)</title><text x="70.8945" y="389.718" class="red" >C</text></g>
<g><title>137 (inserted)</title><text x="71.65" y="395.054" class="red" >C</text></g>
<g><title>138 (inserted)</title><text x="73.1609" y="405.728" class="red" >A</text></g>
<g><title>139 (inserted)</title><text x="73.9164" y="411.065" class="red" >A</text></g>
<g><title>140 (inserted)</title><text x="74.6719" y="416.401" class="red" >G</text></g>
<g><title>141 (inserted)</title><text x="75.4274" y="421.738" class="red" >A</text></g>
<g><title>142 (position.label in template: 138.G)</title><text x="75.8052" y="424.406" class="green" >C</text></g>
<g><line x1="75.8052" y1="426.455" x2="75.8052" y2="435.109" class="black" /></g>
<g><title>143 (position.label in template: 139.G)</title><text x="81.1952" y="424.406" class="black" >G</text></g>
<g><line x1="81.1952" y1="426.455" x2="81.1952" y2="435.109" class="black" /></g>
<g><title>144 (position.label in template: 140.G)</title><text x="86.5852" y="424.406" class="green" >U</text></g>
<g><line x1="86.5852" y1="426.455" x2="86.5852" y2="435.109" class="black" /></g>
<g><title>145 (position.label in template: 141.G)</title><text x="91.9752" y="424.406" class="black" >G</text></g>
<g><line x1="91.9752" y1="426.455" x2="91.9752" y2="435.109" class="black" /></g>
<g><title>146 (position.label in template: 142.G)</title><text x="97.3652" y="424.406" class="green" >G</text></g>
<g><line x1="97.3652" y1="426.455" x2="97.3652" y2="435.109" class="black" /></g>
<g><title>147 (position.label in template: 143.A)</title><text x="102.699" y="422.266" class="black" >A</text></g>
<g><line x1="102.699" y1="424.315" x2="102.699" y2="437.012" class="black" /></g>
<g><title>148 (position.label in template: 144.C)</title><text x="108.089" y="422.266" class="green" >U</text></g>
<g><line x1="108.089" y1="424.315" x2="108.089" y2="437.012" class="black" /></g>
<g><title>149 (position.label in template: 145.A)</title><text x="112.115" y="418.792" class="black" >A</text></g>
<g><title>150 (position.label in template: 146.A)</title><text x="116.237" y="422.385" class="green" >G</text></g>
<g><line x1="116.237" y1="424.434" x2="116.237" y2="437.13" class="black" /></g>
<g><title>150 (inserted)</title><text x="120.372" y="415.379" class="numbering-label sequential" >150</text></g>
<g><line x1="117.34" y1="420.517" x2="119.305" y2="417.187" class="numbering-line sequential" /></g>
<g><title>151 (position.label in template: 147.C)</title><text x="121.627" y="424.406" class="black" >C</text></g>
<g><line x1="121.627" y1="426.455" x2="121.627" y2="435.109" class="black" /></g>
<g><title>152 (position.label in template: 148.C)</title><text x="127.018" y="424.406" class="green" >G</text></g>
<g><line x1="127.018" y1="426.455" x2="127.018" y2="435.109" class="black" /></g>
<g><title>153 (position.label in template: 149.C)</title><text x="132.408" y="424.406" class="black" >C</text></g>
<g><line x1="132.408" y1="426.455" x2="132.408" y2="435.109" class="black" /></g>
<g><title>154 (position.label in template: 150.G)</title><text x="137.798" y="424.406" class="green" >A</text></g>
<g><line x1="137.798" y1="426.455" x2="137.798" y2="435.109" class="black" /></g>
<g><title>155 (position.label in template: 151.G)</title><text x="143.188" y="424.406" class="green" >U</text></g>
<g><line x1="143.188" y1="426.455" x2="143.188" y2="435.109" class="black" /></g>
<g><title>156 (position.label in template: 152.G)</title><text x="148.578" y="424.406" class="green" >C</text></g>
<g><line x1="148.578" y1="426.455" x2="148.578" y2="435.109" class="black" /></g>
<g><title>157 (position.label in template: 153.G)</title><text x="153.964" y="424.578" class="black" >G</text></g>
<g><title>158 (position.label in template: 154.A)</title><text x="157.713" y="428.449" class="black" >A</text></g>
<g><title>159 (position.label in template: 155.A)</title><text x="157.713" y="433.838" class="black" >A</text></g>
<g><title>160 (position.label in template: 156.A)</title><text x="153.964" y="437.709" class="black" >A</text></g>
<g><title>161 (position.label in template: 157.C)</title><text x="148.578" y="437.881" class="green" >G</text></g>
<g><title>162 (position.label in template: 158.U)</title><text x="143.188" y="437.881" class="green" >A</text></g>
<g><title>163 (position.label in template: 159.C)</title><text x="137.798" y="437.881" class="green" >U</text></g>
<g><title>164 (position.label in template: 160.G)</title><text x="132.408" y="437.881" class="black" >G</text></g>
<g><title>165 (position.label in template: 161.G)</title><text x="127.018" y="437.881" class="green" >A</text></g>
<g><title>166 (position.label in template: 162.G)</title><text x="121.627" y="437.881" class="black" >G</text></g>
<g><title>167 (position.label in template: 163.C)</title><text x="116.237" y="439.902" class="green" >A</text></g>
<g><title>168 (position.label in template: 164.U)</title><text x="113.759" y="444.371" class="black" >U</text></g>
<g><title>169 (position.label in template: 165.A)</title><text x="108.089" y="439.784" class="green" >A</text></g>
<g><title>170 (position.label in template: 166.A)</title><text x="102.699" y="439.784" class="black" >A</text></g>
<g><title>171 (position.label in template: 167.U)</title><text x="99.8432" y="444.371" class="black" >U</text></g>
<g><title>172 (position.label in template: 168.C)</title><text x="97.3652" y="437.881" class="green" >A</text></g>
<g><title>173 (position.label in template: 169.C)</title><text x="91.9752" y="437.881" class="black" >C</text></g>
<g><title>174 (position.label in template: 170.C)</title><text x="86.5852" y="437.881" class="green" >G</text></g>
<g><title>175 (position.label in template: 171.C)</title><text x="81.1952" y="437.881" class="black" >C</text></g>
<g><title>176 (position.label in template: 172.C)</title><text x="75.8052" y="437.881" class="green" >G</text></g>
<g><title>177 (position.label in template: 173.A)</title><text x="76.8872" y="442.921" class="black" >A</text></g>
<g><title>178 (position.label in template: 174.U)</title><text x="76.3502" y="448.049" class="black" >U</text></g>
<g><title>179 (position.label in template: 175.G)</title><text x="74.2472" y="452.756" class="green" >A</text></g>
<g><title>180 (position.label in template: 176.U)</title><text x="70.7862" y="456.577" class="green" >A</text></g>
<g><title>181 (inserted)</title><text x="68.1411" y="461.274" class="red" >G</text></g>
<g><title>182 (position.label in template: 178.G)</title><text x="65.496" y="465.97" class="black" >G</text></g>
<g><line x1="63.0853" y1="465.608" x2="54.4317" y2="465.608" class="black" /></g>
<g><title>183 (position.label in template: 179.A)</title><text x="65.496" y="471.36" class="green" >U</text></g>
<g><line x1="63.0853" y1="470.998" x2="54.4317" y2="470.998" class="black" /></g>
<g><title>184 (position.label in template: 180.C)</title><text x="65.496" y="476.751" class="green" >U</text></g>
<g><line x1="63.0853" y1="476.389" x2="54.4317" y2="476.389" class="black" /></g>
<g><title>185 (position.label in template: 181.C)</title><text x="67.517" y="482.141" class="green" >C</text></g>
<g><line x1="65.1063" y1="481.779" x2="52.4107" y2="481.779" class="black" /></g>
<g><title>186 (position.label in template: 182.C)</title><text x="65.496" y="487.531" class="green" >U</text></g>
<g><line x1="63.0853" y1="487.169" x2="54.4317" y2="487.169" class="black" /></g>
<g><title>187 (position.label in template: 183.G)</title><text x="65.496" y="492.921" class="green" >G</text></g>
<g><line x1="63.0853" y1="492.559" x2="54.4317" y2="492.559" class="black" /></g>
<g><title>188 (position.label in template: 184.C)</title><text x="65.495" y="498.311" class="black" >C</text></g>
<g><line x1="63.0843" y1="497.949" x2="54.4317" y2="497.949" class="black" /></g>
<g><title>189 (position.label in template: 185.C)</title><text x="65.496" y="503.701" class="black" >C</text></g>
<g><line x1="63.0853" y1="503.339" x2="54.4317" y2="503.339" class="black" /></g>
<g><title>190 (position.label in template: 186.C)</title><text x="65.496" y="509.091" class="green" >G</text></g>
<g><line x1="63.0853" y1="508.729" x2="54.4317" y2="508.729" class="black" /></g>
<g><title>191 (inserted)</title><text x="66.9653" y="513.898" class="red" >C</text></g>
<g><title>192 (position.label in template: 187.C)</title><text x="65.3561" y="518.661" class="green" >G</text></g>
<g><title>193 (position.label in template: 188.U)</title><text x="61.272" y="521.592" class="green" >C</text></g>
<g><title>194 (position.label in template: 189.U)</title><text x="56.245" y="521.592" class="green" >A</text></g>
<g><title>195 (inserted)</title><text x="52.1609" y="518.661" class="red" >G</text></g>
<g><title>196 (position.label in template: 190.G)</title><text x="50.5517" y="513.898" class="blue" >G</text></g>
<g><title>197 (position.label in template: 191.G)</title><text x="52.021" y="509.091" class="green" >C</text></g>
<g><title>198 (position.label in template: 192.G)</title><text x="52.021" y="503.701" class="black" >G</text></g>
<g><title>199 (position.label in template: 193.G)</title><text x="52.021" y="498.311" class="black" >G</text></g>
<g><title>200 (position.label in template: 194.U)</title><text x="52.021" y="492.921" class="green" >G</text></g>
<g><title>200 (inserted)</title><text x="43.885" y="492.921" class="numbering-label sequential" >200</text></g>
<g><line x1="49.8514" y1="492.921" x2="47.1394" y2="492.921" class="numbering-line sequential" /></g>
<g><title>201 (position.label in template: 195.G)</title><text x="52.021" y="487.531" class="green" >G</text></g>
<g><title>202 (position.label in template: 196.U)</title><text x="50" y="482.141" class="green" >G</text></g>
<g><title>203 (position.label in template: 197.G)</title><text x="52.021" y="476.751" class="green" >G</text></g>
<g><title>204 (position.label in template: 198.U)</title><text x="52.021" y="471.36" class="green" >G</text></g>
<g><title>205 (position.label in template: 199.C)</title><text x="52.021" y="465.97" class="black" >C</text></g>
<g><title>206 (position.label in template: 1520.3')</title><text x="46.8462" y="467.477" class="green" >3'</text></g>
<g><line x1="137.027" y1="93.3357" x2="137.018" y2="92.7672" class="gray" /></g>
<g><line x1="136.943" y1="87.9464" x2="136.934" y2="87.3779" class="gray" /></g>
<g><line x1="136.859" y1="82.5572" x2="136.85" y2="81.9886" class="gray" /></g>
<g><line x1="136.775" y1="77.1679" x2="136.766" y2="76.5994" class="gray" /></g>
<g><line x1="136.69" y1="71.7786" x2="136.681" y2="71.2101" class="gray" /></g>
<g><line x1="138.817" y1="67.7587" x2="139.33" y2="67.5131" class="gray" /></g>
<g><line x1="143.678" y1="65.431" x2="144.191" y2="65.1855" class="gray" /></g>
<g><line x1="148.631" y1="64.9691" x2="149.165" y2="65.1637" class="gray" /></g>
<g><line x1="153.696" y1="66.8131" x2="154.23" y2="67.0077" class="gray" /></g>
<g><line x1="153.774" y1="52.5013" x2="153.239" y2="52.3066" class="gray" /></g>
<g><line x1="148.708" y1="50.6576" x2="148.175" y2="50.4632" class="gray" /></g>
<g><line x1="143.926" y1="51.0084" x2="143.458" y2="51.3315" class="gray" /></g>
<g><line x1="139.491" y1="54.0715" x2="139.023" y2="54.3946" class="gray" /></g>
<g><line x1="135.056" y1="57.1346" x2="134.588" y2="57.4577" class="gray" /></g>
<g><line x1="130.621" y1="60.1977" x2="130.153" y2="60.5209" class="gray" /></g>
<g><line x1="126.186" y1="63.2608" x2="125.718" y2="63.584" class="gray" /></g>
<g><line x1="121.751" y1="66.3239" x2="121.283" y2="66.6471" class="gray" /></g>
<g><line x1="115.555" y1="71.4876" x2="115.138" y2="71.8741" class="gray" /></g>
<g><line x1="111.602" y1="75.1514" x2="111.185" y2="75.5379" class="gray" /></g>
<g><line x1="107.649" y1="78.8152" x2="103.279" y2="82.8655" class="gray" /></g>
<g><line x1="99.7424" y1="86.1427" x2="99.3253" y2="86.5292" class="gray" /></g>
<g><line x1="95.7892" y1="89.8065" x2="95.3721" y2="90.193" class="gray" /></g>
<g><line x1="90.2319" y1="95.6292" x2="89.9027" y2="96.0928" class="gray" /></g>
<g><line x1="87.1116" y1="100.024" x2="86.7825" y2="100.488" class="gray" /></g>
<g><line x1="83.9914" y1="104.419" x2="83.6622" y2="104.883" class="gray" /></g>
<g><line x1="80.8711" y1="108.814" x2="80.542" y2="109.278" class="gray" /></g>
<g><line x1="77.7509" y1="113.209" x2="77.4217" y2="113.672" class="gray" /></g>
<g><line x1="74.6306" y1="117.604" x2="74.3015" y2="118.067" class="gray" /></g>
<g><line x1="71.5104" y1="121.999" x2="71.1812" y2="122.462" class="gray" /></g>
<g><line x1="68.3901" y1="126.394" x2="68.0609" y2="126.857" class="gray" /></g>
<g><line x1="65.2699" y1="130.788" x2="64.9407" y2="131.252" class="gray" /></g>
<g><line x1="62.1496" y1="135.183" x2="61.8204" y2="135.647" class="gray" /></g>
<g><line x1="62.4852" y1="138.864" x2="63.1646" y2="139.277" class="gray" /></g>
<g><line x1="66.3018" y1="142.685" x2="66.657" y2="143.397" class="gray" /></g>
<g><line x1="67.4949" y1="147.952" x2="67.4159" y2="148.745" class="gray" /></g>
<g><line x1="67.2559" y1="153.553" x2="67.2745" y2="154.121" class="gray" /></g>
<g><line x1="67.4325" y1="158.94" x2="67.4511" y2="159.508" class="gray" /></g>
<g><line x1="67.6091" y1="164.327" x2="67.6277" y2="164.895" class="gray" /></g>
<g><line x1="67.7857" y1="169.714" x2="67.8043" y2="170.282" class="gray" /></g>
<g><line x1="68.0061" y1="175.099" x2="68.0351" y2="175.667" class="gray" /></g>
<g><line x1="68.2807" y1="180.482" x2="68.3097" y2="181.05" class="gray" /></g>
<g><line x1="68.5553" y1="185.865" x2="68.5842" y2="186.433" class="gray" /></g>
<g><line x1="68.8298" y1="191.248" x2="68.8588" y2="191.816" class="gray" /></g>
<g><line x1="71.0691" y1="195.429" x2="71.3561" y2="195.595" class="gray" /></g>
<g><line x1="75.2727" y1="198.371" x2="75.5235" y2="198.586" class="gray" /></g>
<g><line x1="79.4402" y1="198.951" x2="79.934" y2="198.666" class="gray" /></g>
<g><line x1="84.1092" y1="196.255" x2="84.601" y2="195.971" class="gray" /></g>
<g><line x1="86.3913" y1="192.373" x2="86.3689" y2="192.193" class="gray" /></g>
<g><line x1="88.1633" y1="188.602" x2="88.3189" y2="188.513" class="gray" /></g>
<g><line x1="92.327" y1="188.777" x2="92.4492" y2="188.87" class="gray" /></g>
<g><line x1="96.4531" y1="189.127" x2="96.9461" y2="188.842" class="gray" /></g>
<g><line x1="100.565" y1="185.775" x2="101.159" y2="185.053" class="gray" /></g>
<g><line x1="105.08" y1="182.869" x2="105.594" y2="182.799" class="gray" /></g>
<g><line x1="106.696" y1="180.438" x2="106.401" y2="179.971" class="gray" /></g>
<g><line x1="106.816" y1="176.226" x2="107.207" y2="175.835" class="gray" /></g>
<g><line x1="110.951" y1="175.411" x2="111.419" y2="175.705" class="gray" /></g>
<g><line x1="115.573" y1="175.827" x2="119.304" y2="173.778" class="gray" /></g>
<g><line x1="123.505" y1="171.412" x2="123.997" y2="171.128" class="gray" /></g>
<g><line x1="128.173" y1="168.717" x2="128.665" y2="168.433" class="gray" /></g>
<g><line x1="132.841" y1="166.022" x2="133.333" y2="165.738" class="gray" /></g>
<g><line x1="135.311" y1="162.124" x2="135.29" y2="161.655" class="gray" /></g>
<g><line x1="135.709" y1="156.895" x2="135.812" y2="156.437" class="gray" /></g>
<g><line x1="137.469" y1="151.955" x2="137.689" y2="151.54" class="gray" /></g>
<g><line x1="140.467" y1="147.652" x2="140.788" y2="147.309" class="gray" /></g>
<g><line x1="144.492" y1="144.29" x2="144.892" y2="144.044" class="gray" /></g>
<g><line x1="149.26" y1="142.105" x2="149.711" y2="141.974" class="gray" /></g>
<g><line x1="154.435" y1="141.253" x2="154.904" y2="141.245" class="gray" /></g>
<g><line x1="159.651" y1="141.793" x2="160.107" y2="141.909" class="gray" /></g>
<g><line x1="164.542" y1="143.687" x2="164.951" y2="143.918" class="gray" /></g>
<g><line x1="168.761" y1="146.802" x2="169.095" y2="147.132" class="gray" /></g>
<g><line x1="172.012" y1="150.917" x2="172.247" y2="151.324" class="gray" /></g>
<g><line x1="174.066" y1="155.743" x2="174.185" y2="156.197" class="gray" /></g>
<g><line x1="174.776" y1="160.939" x2="174.772" y2="161.408" class="gray" /></g>
<g><line x1="174.094" y1="166.139" x2="173.967" y2="166.591" class="gray" /></g>
<g><line x1="172.068" y1="170.976" x2="171.826" y2="171.378" class="gray" /></g>
<g><line x1="168.839" y1="175.109" x2="168.5" y2="175.433" class="gray" /></g>
<g><line x1="164.637" y1="178.246" x2="164.224" y2="178.47" class="gray" /></g>
<g><line x1="159.757" y1="180.167" x2="159.3" y2="180.274" class="gray" /></g>
<g><line x1="154.544" y1="180.736" x2="154.074" y2="180.719" class="gray" /></g>
<g><line x1="149.364" y1="179.912" x2="148.916" y2="179.772" class="gray" /></g>
<g><line x1="144.584" y1="177.755" x2="144.189" y2="177.501" class="gray" /></g>
<g><line x1="140.07" y1="177.408" x2="139.578" y2="177.692" class="gray" /></g>
<g><line x1="135.402" y1="180.103" x2="134.91" y2="180.387" class="gray" /></g>
<g><line x1="130.735" y1="182.798" x2="130.241" y2="183.083" class="gray" /></g>
<g><line x1="127.908" y1="186.687" x2="127.807" y2="187.673" class="gray" /></g>
<g><line x1="125.315" y1="190.949" x2="124.463" y2="191.281" class="gray" /></g>
<g><line x1="119.888" y1="192.776" x2="117.051" y2="193.529" class="gray" /></g>
<g><line x1="115.332" y1="196.478" x2="115.449" y2="196.922" class="gray" /></g>
<g><line x1="109.072" y1="198.758" x2="108.15" y2="198.912" class="gray" /></g>
<g><line x1="103.684" y1="200.513" x2="103.191" y2="200.797" class="gray" /></g>
<g><line x1="99.016" y1="203.208" x2="95.5142" y2="205.23" class="gray" /></g>
<g><line x1="91.3389" y1="207.641" x2="90.8463" y2="207.925" class="gray" /></g>
<g><line x1="86.6709" y1="210.336" x2="86.1783" y2="210.62" class="gray" /></g>
<g><line x1="84.4845" y1="214.204" x2="84.7348" y2="215.715" class="gray" /></g>
<g><line x1="84.9715" y1="220.499" x2="84.8717" y2="222.028" class="gray" /></g>
<g><line x1="84.0149" y1="226.74" x2="83.5703" y2="228.207" class="gray" /></g>
<g><line x1="81.6654" y1="232.601" x2="80.8998" y2="233.928" class="gray" /></g>
<g><line x1="78.0465" y1="237.775" x2="76.9987" y2="238.893" class="gray" /></g>
<g><line x1="73.346" y1="241.991" x2="72.0722" y2="242.842" class="gray" /></g>
<g><line x1="69.776" y1="246.574" x2="69.7072" y2="247.139" class="gray" /></g>
<g><line x1="69.1241" y1="251.925" x2="69.0553" y2="252.489" class="gray" /></g>
<g><line x1="68.4722" y1="257.275" x2="68.4034" y2="257.84" class="gray" /></g>
<g><line x1="67.8202" y1="262.625" x2="67.7514" y2="263.19" class="gray" /></g>
<g><line x1="68.4136" y1="267.797" x2="69.0701" y2="269.321" class="gray" /></g>
<g><line x1="70.5108" y1="273.896" x2="70.8459" y2="275.521" class="gray" /></g>
<g><line x1="71.3329" y1="280.293" x2="71.3329" y2="281.951" class="gray" /></g>
<g><line x1="70.8459" y1="286.723" x2="70.5108" y2="288.348" class="gray" /></g>
<g><line x1="69.0701" y1="292.923" x2="68.4136" y2="294.447" class="gray" /></g>
<g><line x1="67.5346" y1="301.766" x2="67.5429" y2="302.334" class="gray" /></g>
<g><line x1="67.6135" y1="307.155" x2="67.6218" y2="307.724" class="gray" /></g>
<g><line x1="67.6923" y1="312.545" x2="67.7007" y2="313.113" class="gray" /></g>
<g><line x1="67.7712" y1="317.934" x2="67.8584" y2="323.892" class="gray" /></g>
<g><line x1="67.929" y1="328.713" x2="67.9373" y2="329.281" class="gray" /></g>
<g><line x1="68.0079" y1="334.102" x2="68.0162" y2="334.671" class="gray" /></g>
<g><line x1="68.0867" y1="339.491" x2="68.0951" y2="340.06" class="gray" /></g>
<g><line x1="68.4539" y1="352.094" x2="68.5209" y2="352.658" class="gray" /></g>
<g><line x1="69.0891" y1="357.446" x2="69.1562" y2="358.011" class="gray" /></g>
<g><line x1="69.7244" y1="362.798" x2="69.7914" y2="363.363" class="gray" /></g>
<g><line x1="70.3596" y1="368.151" x2="70.4266" y2="368.715" class="gray" /></g>
<g><line x1="69.9193" y1="373.386" x2="69.7973" y2="373.737" class="gray" /></g>
<g><line x1="69.7214" y1="381.07" x2="69.8011" y2="381.633" class="gray" /></g>
<g><line x1="70.4769" y1="386.406" x2="70.5566" y2="386.969" class="gray" /></g>
<g><line x1="71.2324" y1="391.743" x2="71.3121" y2="392.306" class="gray" /></g>
<g><line x1="71.9879" y1="397.08" x2="72.8231" y2="402.979" class="gray" /></g>
<g><line x1="73.4988" y1="407.753" x2="73.5785" y2="408.316" class="gray" /></g>
<g><line x1="74.2543" y1="413.09" x2="74.334" y2="413.653" class="gray" /></g>
<g><line x1="75.0098" y1="418.427" x2="75.0895" y2="418.99" class="gray" /></g>
<g><line x1="78.2158" y1="424.045" x2="78.7845" y2="424.045" class="gray" /></g>
<g><line x1="83.6058" y1="424.045" x2="84.1745" y2="424.045" class="gray" /></g>
<g><line x1="88.9958" y1="424.045" x2="89.5645" y2="424.045" class="gray" /></g>
<g><line x1="94.3858" y1="424.045" x2="94.9545" y2="424.045" class="gray" /></g>
<g><line x1="99.6025" y1="423.147" x2="100.462" y2="422.802" class="gray" /></g>
<g><line x1="105.11" y1="421.905" x2="105.678" y2="421.905" class="gray" /></g>
<g><line x1="109.914" y1="420.33" x2="110.29" y2="420.006" class="gray" /></g>
<g><line x1="113.932" y1="420.015" x2="114.42" y2="420.44" class="gray" /></g>
<g><line x1="118.494" y1="422.87" x2="119.37" y2="423.198" class="gray" /></g>
<g><line x1="124.038" y1="424.045" x2="124.607" y2="424.045" class="gray" /></g>
<g><line x1="129.429" y1="424.045" x2="129.997" y2="424.045" class="gray" /></g>
<g><line x1="134.819" y1="424.045" x2="135.387" y2="424.045" class="gray" /></g>
<g><line x1="140.209" y1="424.045" x2="140.777" y2="424.045" class="gray" /></g>
<g><line x1="145.599" y1="424.045" x2="146.167" y2="424.045" class="gray" /></g>
<g><line x1="150.988" y1="424.122" x2="151.555" y2="424.14" class="gray" /></g>
<g><line x1="155.641" y1="425.948" x2="156.036" y2="426.356" class="gray" /></g>
<g><line x1="157.713" y1="430.498" x2="157.713" y2="431.066" class="gray" /></g>
<g><line x1="156.036" y1="435.208" x2="155.641" y2="435.616" class="gray" /></g>
<g><line x1="151.555" y1="437.425" x2="150.988" y2="437.443" class="gray" /></g>
<g><line x1="146.167" y1="437.52" x2="145.599" y2="437.52" class="gray" /></g>
<g><line x1="140.777" y1="437.52" x2="140.209" y2="437.52" class="gray" /></g>
<g><line x1="135.387" y1="437.52" x2="134.819" y2="437.52" class="gray" /></g>
<g><line x1="129.997" y1="437.52" x2="129.429" y2="437.52" class="gray" /></g>
<g><line x1="124.607" y1="437.52" x2="124.038" y2="437.52" class="gray" /></g>
<g><line x1="119.37" y1="438.366" x2="118.494" y2="438.694" class="gray" /></g>
<g><line x1="115.068" y1="441.649" x2="114.928" y2="441.901" class="gray" /></g>
<g><line x1="111.885" y1="442.494" x2="109.963" y2="440.939" class="gray" /></g>
<g><line x1="105.678" y1="439.423" x2="105.11" y2="439.423" class="gray" /></g>
<g><line x1="101.425" y1="441.469" x2="101.117" y2="441.963" class="gray" /></g>
<g><line x1="98.9833" y1="441.758" x2="98.225" y2="439.772" class="gray" /></g>
<g><line x1="94.9545" y1="437.52" x2="94.3858" y2="437.52" class="gray" /></g>
<g><line x1="89.5645" y1="437.52" x2="88.9958" y2="437.52" class="gray" /></g>
<g><line x1="84.1745" y1="437.52" x2="83.6058" y2="437.52" class="gray" /></g>
<g><line x1="78.7845" y1="437.52" x2="78.2158" y2="437.52" class="gray" /></g>
<g><line x1="76.3112" y1="439.877" x2="76.3812" y2="440.203" class="gray" /></g>
<g><line x1="76.6361" y1="444.957" x2="76.6012" y2="445.29" class="gray" /></g>
<g><line x1="75.3668" y1="449.889" x2="75.2305" y2="450.194" class="gray" /></g>
<g><line x1="72.6288" y1="454.181" x2="72.4045" y2="454.429" class="gray" /></g>
<g><line x1="69.6031" y1="458.316" x2="69.3241" y2="458.812" class="gray" /></g>
<g><line x1="66.9581" y1="463.012" x2="66.679" y2="463.508" class="gray" /></g>
<g><line x1="65.496" y1="468.019" x2="65.496" y2="468.588" class="gray" /></g>
<g><line x1="65.496" y1="473.409" x2="65.496" y2="473.979" class="gray" /></g>
<g><line x1="66.3423" y1="478.646" x2="66.6707" y2="479.522" class="gray" /></g>
<g><line x1="66.6707" y1="484.036" x2="66.3423" y2="484.912" class="gray" /></g>
<g><line x1="65.496" y1="489.58" x2="65.496" y2="490.149" class="gray" /></g>
<g><line x1="65.4956" y1="494.97" x2="65.4954" y2="495.539" class="gray" /></g>
<g><line x1="65.4954" y1="500.36" x2="65.4956" y2="500.929" class="gray" /></g>
<g><line x1="65.496" y1="505.75" x2="65.496" y2="506.319" class="gray" /></g>
<g><line x1="66.2006" y1="511.035" x2="66.2607" y2="511.231" class="gray" /></g>
<g><line x1="66.1936" y1="515.82" x2="66.1278" y2="516.015" class="gray" /></g>
<g><line x1="63.3976" y1="519.705" x2="63.2305" y2="519.825" class="gray" /></g>
<g><line x1="58.8613" y1="521.23" x2="58.6557" y2="521.23" class="gray" /></g>
<g><line x1="54.2865" y1="519.825" x2="54.1194" y2="519.705" class="gray" /></g>
<g><line x1="51.3892" y1="516.015" x2="51.3234" y2="515.82" class="gray" /></g>
<g><line x1="51.2563" y1="511.231" x2="51.3164" y2="511.035" class="gray" /></g>
<g><line x1="52.021" y1="506.319" x2="52.021" y2="505.75" class="gray" /></g>
<g><line x1="52.021" y1="500.929" x2="52.021" y2="500.36" class="gray" /></g>
<g><line x1="52.021" y1="495.539" x2="52.021" y2="494.97" class="gray" /></g>
<g><line x1="52.021" y1="490.149" x2="52.021" y2="489.58" class="gray" /></g>
<g><line x1="51.1747" y1="484.912" x2="50.8463" y2="484.036" class="gray" /></g>
<g><line x1="50.8463" y1="479.522" x2="51.1747" y2="478.646" class="gray" /></g>
<g><line x1="52.021" y1="473.979" x2="52.021" y2="473.409" class="gray" /></g>
<g><line x1="52.021" y1="468.588" x2="52.021" y2="468.019" class="gray" /></g>
<g><line x1="49.7066" y1="466.282" x2="49.1607" y2="466.442" class="gray" /></g>
</svg>
