<svg xmlns="http://www.w3.org/2000/svg" width="269.65" height="278.63">
<style type="text/css" >
<![CDATA[
.font { font-family: Helvetica; font-size: 8.334300px; font-weight: bold;  }
.numbering-line { stroke: rgb(204, 204, 204); stroke-width: 0.5209;  }
.bp-line { stroke-width: 1.0418;  }
.text-black { fill: rgb(0, 0, 0);  }
.text-red { fill: rgb(255, 0, 255);  }
.text-green { fill: rgb(0, 255, 0);  }
.text-blue { fill: rgb(0, 0, 255);  }
.text-gray { fill: rgb(204, 204, 204);  }
.text-brown { fill: rgb(211.65, 104.55, 30.6);  }
text { element-wise: True; fill: rgb(0, 0, 0); text-anchor: middle; dominant-baseline: middle;  }
.circle-black { stroke: rgb(0, 0, 0); fill: none;  }
.circle-red { stroke: rgb(255, 0, 255); fill: none;  }
.circle-green { stroke: rgb(0, 255, 0); fill: none;  }
.circle-blue { stroke: rgb(0, 0, 255); fill: none;  }
.circle-gray { stroke: rgb(204, 204, 204); fill: none;  }
.circle-brown { stroke: rgb(211.65, 104.55, 30.6); fill: none;  }
.circle { stroke: rgb(0, 0, 0);  }
.numbering-label { fill: rgb(204, 204, 204);  }
.numbering-line { stroke: rgb(204, 204, 204);  }
.template { visibility: hidden;  }
.bp-line { stroke: rgb(0, 0, 0);  }
.residue-circle { fill: rgb(255,255,255);  }
.res-line { stroke: rgb(204, 204, 204);  }
]]>
</style>

<g class="bps"><line x1="48.75" y1="26.0" x2="28.75" y2="26.0" class="bp-line" />
<line x1="48.75" y1="34.0" x2="28.75" y2="34.0" class="bp-line" />
<line x1="48.75" y1="42.0" x2="28.75" y2="42.0" class="bp-line" />
<line x1="48.75" y1="50.0" x2="28.75" y2="50.0" class="bp-line" />
<line x1="48.75" y1="58.0" x2="28.75" y2="58.0" class="bp-line" />
<line x1="48.75" y1="66.0" x2="28.75" y2="66.0" class="bp-line" />
<line x1="48.75" y1="74.0" x2="28.75" y2="74.0" class="bp-line" />
<line x1="48.75" y1="82.0" x2="28.75" y2="82.0" class="bp-line" />
<line x1="74.25" y1="115.2" x2="74.25" y2="135.2" class="bp-line" />
<line x1="82.25" y1="115.2" x2="82.25" y2="135.2" class="bp-line" />
<line x1="90.25" y1="115.2" x2="90.25" y2="135.2" class="bp-line" />
<line x1="101.25" y1="115.2" x2="101.25" y2="135.2" class="bp-line" />
<line x1="109.25" y1="115.2" x2="109.25" y2="135.2" class="bp-line" />
<line x1="117.25" y1="115.2" x2="117.25" y2="135.2" class="bp-line" />
<line x1="125.25" y1="115.2" x2="125.25" y2="135.2" class="bp-line" />
<line x1="183.25" y1="115.19" x2="183.25" y2="135.09" class="bp-line" />
<line x1="191.25" y1="115.19" x2="191.25" y2="135.19" class="bp-line" />
<line x1="199.25" y1="115.19" x2="199.25" y2="135.09" class="bp-line" />
<line x1="207.25" y1="115.19" x2="207.25" y2="135.19" class="bp-line" />
<line x1="207.25" y1="115.19" x2="207.25" y2="135.19" class="bp-line" />
<line x1="199.25" y1="115.19" x2="199.25" y2="135.09" class="bp-line" />
<line x1="191.25" y1="115.19" x2="191.25" y2="135.19" class="bp-line" />
<line x1="183.25" y1="115.19" x2="183.25" y2="135.09" class="bp-line" />
<line x1="125.25" y1="115.2" x2="125.25" y2="135.2" class="bp-line" />
<line x1="117.25" y1="115.2" x2="117.25" y2="135.2" class="bp-line" />
<line x1="109.25" y1="115.2" x2="109.25" y2="135.2" class="bp-line" />
<line x1="101.25" y1="115.2" x2="101.25" y2="135.2" class="bp-line" />
<line x1="90.25" y1="115.2" x2="90.25" y2="135.2" class="bp-line" />
<line x1="82.25" y1="115.2" x2="82.25" y2="135.2" class="bp-line" />
<line x1="74.25" y1="115.2" x2="74.25" y2="135.2" class="bp-line" />
<line x1="48.75" y1="164.2" x2="28.75" y2="164.2" class="bp-line" />
<line x1="48.75" y1="172.2" x2="28.75" y2="172.2" class="bp-line" />
<line x1="48.74" y1="183.2" x2="28.76" y2="183.2" class="bp-line" />
<line x1="48.74" y1="191.2" x2="28.76" y2="191.2" class="bp-line" />
<line x1="48.71" y1="223.2" x2="28.75" y2="223.2" class="bp-line" />
<line x1="48.74" y1="231.2" x2="28.73" y2="231.2" class="bp-line" />
<line x1="48.76" y1="239.2" x2="28.76" y2="239.2" class="bp-line" />
<line x1="48.78" y1="247.2" x2="28.78" y2="247.2" class="bp-line" />
<line x1="48.78" y1="247.2" x2="28.78" y2="247.2" class="bp-line" />
<line x1="48.76" y1="239.2" x2="28.76" y2="239.2" class="bp-line" />
<line x1="48.74" y1="231.2" x2="28.73" y2="231.2" class="bp-line" />
<line x1="48.71" y1="223.2" x2="28.75" y2="223.2" class="bp-line" />
<line x1="48.74" y1="191.2" x2="28.76" y2="191.2" class="bp-line" />
<line x1="48.74" y1="183.2" x2="28.76" y2="183.2" class="bp-line" />
<line x1="48.75" y1="172.2" x2="28.75" y2="172.2" class="bp-line" />
<line x1="48.75" y1="164.2" x2="28.75" y2="164.2" class="bp-line" />
<line x1="48.75" y1="82.0" x2="28.75" y2="82.0" class="bp-line" />
<line x1="48.75" y1="74.0" x2="28.75" y2="74.0" class="bp-line" />
<line x1="48.75" y1="66.0" x2="28.75" y2="66.0" class="bp-line" />
<line x1="48.75" y1="58.0" x2="28.75" y2="58.0" class="bp-line" />
<line x1="48.75" y1="50.0" x2="28.75" y2="50.0" class="bp-line" />
<line x1="48.75" y1="42.0" x2="28.75" y2="42.0" class="bp-line" />
<line x1="48.75" y1="34.0" x2="28.75" y2="34.0" class="bp-line" />
<line x1="48.75" y1="26.0" x2="28.75" y2="26.0" class="bp-line" />
</g>
<g class="residues"><line x1="48.75" y1="18.0" x2="48.75" y2="26.0" class="bp-line res-line" />
<line x1="48.75" y1="26.0" x2="48.75" y2="34.0" class="bp-line res-line" />
<line x1="48.75" y1="34.0" x2="48.75" y2="42.0" class="bp-line res-line" />
<line x1="48.75" y1="42.0" x2="48.75" y2="50.0" class="bp-line res-line" />
<line x1="48.75" y1="50.0" x2="48.75" y2="58.0" class="bp-line res-line" />
<line x1="48.75" y1="58.0" x2="48.75" y2="66.0" class="bp-line res-line" />
<line x1="48.75" y1="66.0" x2="48.75" y2="74.0" class="bp-line res-line" />
<line x1="48.75" y1="74.0" x2="48.75" y2="82.0" class="bp-line res-line" />
<line x1="48.75" y1="82.0" x2="54.87" y2="85.78" class="bp-line res-line" />
<line x1="54.87" y1="85.78" x2="60.39" y2="90.4" class="bp-line res-line" />
<line x1="60.39" y1="90.4" x2="65.17" y2="95.78" class="bp-line res-line" />
<line x1="65.17" y1="95.78" x2="69.13" y2="101.79" class="bp-line res-line" />
<line x1="69.13" y1="101.79" x2="72.18" y2="108.31" class="bp-line res-line" />
<line x1="72.18" y1="108.31" x2="74.25" y2="115.2" class="bp-line res-line" />
<line x1="74.25" y1="115.2" x2="82.25" y2="115.2" class="bp-line res-line" />
<line x1="82.25" y1="115.2" x2="90.25" y2="115.2" class="bp-line res-line" />
<line x1="90.25" y1="115.2" x2="95.75" y2="114.22" class="bp-line res-line" />
<line x1="95.75" y1="114.22" x2="101.25" y2="115.2" class="bp-line res-line" />
<line x1="101.25" y1="115.2" x2="109.25" y2="115.2" class="bp-line res-line" />
<line x1="109.25" y1="115.2" x2="117.25" y2="115.2" class="bp-line res-line" />
<line x1="117.25" y1="115.2" x2="125.25" y2="115.2" class="bp-line res-line" />
<line x1="125.25" y1="115.2" x2="132.28" y2="112.85" class="bp-line res-line" />
<line x1="132.28" y1="112.85" x2="139.5" y2="111.15" class="bp-line res-line" />
<line x1="139.5" y1="111.15" x2="146.84" y2="110.13" class="bp-line res-line" />
<line x1="146.84" y1="110.13" x2="154.25" y2="109.78" class="bp-line res-line" />
<line x1="154.25" y1="109.78" x2="161.66" y2="110.12" class="bp-line res-line" />
<line x1="161.66" y1="110.12" x2="169.0" y2="111.15" class="bp-line res-line" />
<line x1="169.0" y1="111.15" x2="176.22" y2="112.84" class="bp-line res-line" />
<line x1="176.22" y1="112.84" x2="183.25" y2="115.19" class="bp-line res-line" />
<line x1="183.25" y1="115.19" x2="191.25" y2="115.19" class="bp-line res-line" />
<line x1="191.25" y1="115.19" x2="199.25" y2="115.19" class="bp-line res-line" />
<line x1="199.25" y1="115.19" x2="207.25" y2="115.19" class="bp-line res-line" />
<line x1="207.25" y1="115.19" x2="212.45" y2="108.49" class="bp-line res-line" />
<line x1="212.45" y1="108.49" x2="219.75" y2="104.19" class="bp-line res-line" />
<line x1="219.75" y1="104.19" x2="228.25" y2="102.89" class="bp-line res-line" />
<line x1="228.25" y1="102.89" x2="236.55" y2="104.89" class="bp-line res-line" />
<line x1="236.55" y1="104.89" x2="243.45" y2="109.69" class="bp-line res-line" />
<line x1="243.45" y1="109.69" x2="248.05" y2="116.99" class="bp-line res-line" />
<line x1="248.05" y1="116.99" x2="249.65" y2="125.29" class="bp-line res-line" />
<line x1="249.65" y1="125.29" x2="248.05" y2="133.69" class="bp-line res-line" />
<line x1="248.05" y1="133.69" x2="243.35" y2="140.69" class="bp-line res-line" />
<line x1="243.35" y1="140.69" x2="236.45" y2="145.69" class="bp-line res-line" />
<line x1="236.45" y1="145.69" x2="228.15" y2="147.59" class="bp-line res-line" />
<line x1="228.15" y1="147.59" x2="219.75" y2="146.29" class="bp-line res-line" />
<line x1="219.75" y1="146.29" x2="212.35" y2="141.89" class="bp-line res-line" />
<line x1="212.35" y1="141.89" x2="207.25" y2="135.19" class="bp-line res-line" />
<line x1="207.25" y1="135.19" x2="199.25" y2="135.09" class="bp-line res-line" />
<line x1="199.25" y1="135.09" x2="191.25" y2="135.19" class="bp-line res-line" />
<line x1="191.25" y1="135.19" x2="183.25" y2="135.09" class="bp-line res-line" />
<line x1="183.25" y1="135.09" x2="177.74" y2="139.59" class="bp-line res-line" />
<line x1="177.74" y1="139.59" x2="171.54" y2="143.09" class="bp-line res-line" />
<line x1="171.54" y1="143.09" x2="164.84" y2="145.49" class="bp-line res-line" />
<line x1="164.84" y1="145.49" x2="157.83" y2="146.71" class="bp-line res-line" />
<line x1="157.83" y1="146.71" x2="150.71" y2="146.72" class="bp-line res-line" />
<line x1="150.71" y1="146.72" x2="143.7" y2="145.53" class="bp-line res-line" />
<line x1="143.7" y1="145.53" x2="136.99" y2="143.16" class="bp-line res-line" />
<line x1="136.99" y1="143.16" x2="130.78" y2="139.68" class="bp-line res-line" />
<line x1="130.78" y1="139.68" x2="125.25" y2="135.2" class="bp-line res-line" />
<line x1="125.25" y1="135.2" x2="117.25" y2="135.2" class="bp-line res-line" />
<line x1="117.25" y1="135.2" x2="109.25" y2="135.2" class="bp-line res-line" />
<line x1="109.25" y1="135.2" x2="101.25" y2="135.2" class="bp-line res-line" />
<line x1="101.25" y1="135.2" x2="95.75" y2="136.17000000000002" class="bp-line res-line" />
<line x1="95.75" y1="136.17000000000002" x2="90.25" y2="135.2" class="bp-line res-line" />
<line x1="90.25" y1="135.2" x2="82.25" y2="135.2" class="bp-line res-line" />
<line x1="82.25" y1="135.2" x2="74.25" y2="135.2" class="bp-line res-line" />
<line x1="74.25" y1="135.2" x2="61.59" y2="149.78" class="bp-line res-line" />
<line x1="61.59" y1="149.78" x2="48.75" y2="164.2" class="bp-line res-line" />
<line x1="48.75" y1="164.2" x2="48.75" y2="172.2" class="bp-line res-line" />
<line x1="48.75" y1="172.2" x2="49.72" y2="177.7" class="bp-line res-line" />
<line x1="49.72" y1="177.7" x2="48.74" y2="183.2" class="bp-line res-line" />
<line x1="48.74" y1="183.2" x2="48.74" y2="191.2" class="bp-line res-line" />
<line x1="48.74" y1="191.2" x2="53.08" y2="196.87" class="bp-line res-line" />
<line x1="53.08" y1="196.87" x2="55.37" y2="203.63" class="bp-line res-line" />
<line x1="55.37" y1="203.63" x2="55.36" y2="210.78" class="bp-line res-line" />
<line x1="55.36" y1="210.78" x2="53.06" y2="217.54" class="bp-line res-line" />
<line x1="53.06" y1="217.54" x2="48.71" y2="223.2" class="bp-line res-line" />
<line x1="48.71" y1="223.2" x2="48.74" y2="231.2" class="bp-line res-line" />
<line x1="48.74" y1="231.2" x2="48.76" y2="239.2" class="bp-line res-line" />
<line x1="48.76" y1="239.2" x2="48.78" y2="247.2" class="bp-line res-line" />
<line x1="48.78" y1="247.2" x2="47.62" y2="254.1" class="bp-line res-line" />
<line x1="47.62" y1="254.1" x2="42.28" y2="258.63" class="bp-line res-line" />
<line x1="42.28" y1="258.63" x2="35.28" y2="258.63" class="bp-line res-line" />
<line x1="35.28" y1="258.63" x2="29.94" y2="254.1" class="bp-line res-line" />
<line x1="29.94" y1="254.1" x2="28.78" y2="247.2" class="bp-line res-line" />
<line x1="28.78" y1="247.2" x2="28.76" y2="239.2" class="bp-line res-line" />
<line x1="28.76" y1="239.2" x2="28.73" y2="231.2" class="bp-line res-line" />
<line x1="28.73" y1="231.2" x2="28.75" y2="223.2" class="bp-line res-line" />
<line x1="28.75" y1="223.2" x2="24.41" y2="217.53" class="bp-line res-line" />
<line x1="24.41" y1="217.53" x2="22.11" y2="210.77" class="bp-line res-line" />
<line x1="22.11" y1="210.77" x2="22.119999999999997" y2="203.63" class="bp-line res-line" />
<line x1="22.119999999999997" y1="203.63" x2="24.41" y2="196.86" class="bp-line res-line" />
<line x1="24.41" y1="196.86" x2="28.76" y2="191.2" class="bp-line res-line" />
<line x1="28.76" y1="191.2" x2="28.76" y2="183.2" class="bp-line res-line" />
<line x1="28.76" y1="183.2" x2="27.78" y2="177.7" class="bp-line res-line" />
<line x1="27.78" y1="177.7" x2="28.75" y2="172.2" class="bp-line res-line" />
<line x1="28.75" y1="172.2" x2="28.75" y2="164.2" class="bp-line res-line" />
<line x1="28.75" y1="164.2" x2="28.32" y2="143.65" class="bp-line res-line" />
<line x1="28.32" y1="143.65" x2="28.18" y2="123.1" class="bp-line res-line" />
<line x1="28.18" y1="123.1" x2="28.32" y2="102.55" class="bp-line res-line" />
<line x1="28.32" y1="102.55" x2="28.75" y2="82.0" class="bp-line res-line" />
<line x1="28.75" y1="82.0" x2="28.75" y2="74.0" class="bp-line res-line" />
<line x1="28.75" y1="74.0" x2="28.75" y2="66.0" class="bp-line res-line" />
<line x1="28.75" y1="66.0" x2="28.75" y2="58.0" class="bp-line res-line" />
<line x1="28.75" y1="58.0" x2="28.75" y2="50.0" class="bp-line res-line" />
<line x1="28.75" y1="50.0" x2="28.75" y2="42.0" class="bp-line res-line" />
<line x1="28.75" y1="42.0" x2="28.75" y2="34.0" class="bp-line res-line" />
<line x1="28.75" y1="34.0" x2="28.75" y2="26.0" class="bp-line res-line" />
<line x1="28.75" y1="26.0" x2="28.59" y2="18.0" class="bp-line res-line" />
<line x1="28.59" y1="18.0" x2="28.61" y2="10.0" class="bp-line res-line" />
<circle cx="48.75" cy="18.0" class="residue-circle" r="6.250725000000001"/>
<circle cx="48.75" cy="26.0" class="residue-circle" r="6.250725000000001"/>
<circle cx="48.75" cy="34.0" class="residue-circle" r="6.250725000000001"/>
<circle cx="48.75" cy="42.0" class="residue-circle" r="6.250725000000001"/>
<circle cx="48.75" cy="50.0" class="residue-circle" r="6.250725000000001"/>
<circle cx="48.75" cy="58.0" class="residue-circle" r="6.250725000000001"/>
<circle cx="48.75" cy="66.0" class="residue-circle" r="6.250725000000001"/>
<circle cx="48.75" cy="74.0" class="residue-circle" r="6.250725000000001"/>
<circle cx="48.75" cy="82.0" class="residue-circle" r="6.250725000000001"/>
<circle cx="54.87" cy="85.78" class="residue-circle" r="6.250725000000001"/>
<circle cx="60.39" cy="90.4" class="residue-circle" r="6.250725000000001"/>
<circle cx="65.17" cy="95.78" class="residue-circle" r="6.250725000000001"/>
<circle cx="69.13" cy="101.79" class="residue-circle" r="6.250725000000001"/>
<circle cx="72.18" cy="108.31" class="residue-circle" r="6.250725000000001"/>
<circle cx="74.25" cy="115.2" class="residue-circle" r="6.250725000000001"/>
<circle cx="82.25" cy="115.2" class="residue-circle" r="6.250725000000001"/>
<circle cx="90.25" cy="115.2" class="residue-circle" r="6.250725000000001"/>
<circle cx="95.75" cy="114.22" class="residue-circle" r="6.250725000000001"/>
<circle cx="101.25" cy="115.2" class="residue-circle" r="6.250725000000001"/>
<circle cx="109.25" cy="115.2" class="residue-circle" r="6.250725000000001"/>
<circle cx="117.25" cy="115.2" class="residue-circle" r="6.250725000000001"/>
<circle cx="125.25" cy="115.2" class="residue-circle" r="6.250725000000001"/>
<circle cx="132.28" cy="112.85" class="residue-circle" r="6.250725000000001"/>
<circle cx="139.5" cy="111.15" class="residue-circle" r="6.250725000000001"/>
<circle cx="146.84" cy="110.13" class="residue-circle" r="6.250725000000001"/>
<circle cx="154.25" cy="109.78" class="residue-circle" r="6.250725000000001"/>
<circle cx="161.66" cy="110.12" class="residue-circle" r="6.250725000000001"/>
<circle cx="169.0" cy="111.15" class="residue-circle" r="6.250725000000001"/>
<circle cx="176.22" cy="112.84" class="residue-circle" r="6.250725000000001"/>
<circle cx="183.25" cy="115.19" class="residue-circle" r="6.250725000000001"/>
<circle cx="191.25" cy="115.19" class="residue-circle" r="6.250725000000001"/>
<circle cx="199.25" cy="115.19" class="residue-circle" r="6.250725000000001"/>
<circle cx="207.25" cy="115.19" class="residue-circle" r="6.250725000000001"/>
<circle cx="212.45" cy="108.49" class="residue-circle" r="6.250725000000001"/>
<circle cx="219.75" cy="104.19" class="residue-circle" r="6.250725000000001"/>
<circle cx="228.25" cy="102.89" class="residue-circle" r="6.250725000000001"/>
<circle cx="236.55" cy="104.89" class="residue-circle" r="6.250725000000001"/>
<circle cx="243.45" cy="109.69" class="residue-circle" r="6.250725000000001"/>
<circle cx="248.05" cy="116.99" class="residue-circle" r="6.250725000000001"/>
<circle cx="249.65" cy="125.29" class="residue-circle" r="6.250725000000001"/>
<circle cx="248.05" cy="133.69" class="residue-circle" r="6.250725000000001"/>
<circle cx="243.35" cy="140.69" class="residue-circle" r="6.250725000000001"/>
<circle cx="236.45" cy="145.69" class="residue-circle" r="6.250725000000001"/>
<circle cx="228.15" cy="147.59" class="residue-circle" r="6.250725000000001"/>
<circle cx="219.75" cy="146.29" class="residue-circle" r="6.250725000000001"/>
<circle cx="212.35" cy="141.89" class="residue-circle" r="6.250725000000001"/>
<circle cx="207.25" cy="135.19" class="residue-circle" r="6.250725000000001"/>
<circle cx="199.25" cy="135.09" class="residue-circle" r="6.250725000000001"/>
<circle cx="191.25" cy="135.19" class="residue-circle" r="6.250725000000001"/>
<circle cx="183.25" cy="135.09" class="residue-circle" r="6.250725000000001"/>
<circle cx="177.74" cy="139.59" class="residue-circle" r="6.250725000000001"/>
<circle cx="171.54" cy="143.09" class="residue-circle" r="6.250725000000001"/>
<circle cx="164.84" cy="145.49" class="residue-circle" r="6.250725000000001"/>
<circle cx="157.83" cy="146.71" class="residue-circle" r="6.250725000000001"/>
<circle cx="150.71" cy="146.72" class="residue-circle" r="6.250725000000001"/>
<circle cx="143.7" cy="145.53" class="residue-circle" r="6.250725000000001"/>
<circle cx="136.99" cy="143.16" class="residue-circle" r="6.250725000000001"/>
<circle cx="130.78" cy="139.68" class="residue-circle" r="6.250725000000001"/>
<circle cx="125.25" cy="135.2" class="residue-circle" r="6.250725000000001"/>
<circle cx="117.25" cy="135.2" class="residue-circle" r="6.250725000000001"/>
<circle cx="109.25" cy="135.2" class="residue-circle" r="6.250725000000001"/>
<circle cx="101.25" cy="135.2" class="residue-circle" r="6.250725000000001"/>
<circle cx="95.75" cy="136.17000000000002" class="residue-circle" r="6.250725000000001"/>
<circle cx="90.25" cy="135.2" class="residue-circle" r="6.250725000000001"/>
<circle cx="82.25" cy="135.2" class="residue-circle" r="6.250725000000001"/>
<circle cx="74.25" cy="135.2" class="residue-circle" r="6.250725000000001"/>
<circle cx="61.59" cy="149.78" class="residue-circle" r="6.250725000000001"/>
<circle cx="48.75" cy="164.2" class="residue-circle" r="6.250725000000001"/>
<circle cx="48.75" cy="172.2" class="residue-circle" r="6.250725000000001"/>
<circle cx="49.72" cy="177.7" class="residue-circle" r="6.250725000000001"/>
<circle cx="48.74" cy="183.2" class="residue-circle" r="6.250725000000001"/>
<circle cx="48.74" cy="191.2" class="residue-circle" r="6.250725000000001"/>
<circle cx="53.08" cy="196.87" class="residue-circle" r="6.250725000000001"/>
<circle cx="55.37" cy="203.63" class="residue-circle" r="6.250725000000001"/>
<circle cx="55.36" cy="210.78" class="residue-circle" r="6.250725000000001"/>
<circle cx="53.06" cy="217.54" class="residue-circle" r="6.250725000000001"/>
<circle cx="48.71" cy="223.2" class="residue-circle" r="6.250725000000001"/>
<circle cx="48.74" cy="231.2" class="residue-circle" r="6.250725000000001"/>
<circle cx="48.76" cy="239.2" class="residue-circle" r="6.250725000000001"/>
<circle cx="48.78" cy="247.2" class="residue-circle" r="6.250725000000001"/>
<circle cx="47.62" cy="254.1" class="residue-circle" r="6.250725000000001"/>
<circle cx="42.28" cy="258.63" class="residue-circle" r="6.250725000000001"/>
<circle cx="35.28" cy="258.63" class="residue-circle" r="6.250725000000001"/>
<circle cx="29.94" cy="254.1" class="residue-circle" r="6.250725000000001"/>
<circle cx="28.78" cy="247.2" class="residue-circle" r="6.250725000000001"/>
<circle cx="28.76" cy="239.2" class="residue-circle" r="6.250725000000001"/>
<circle cx="28.73" cy="231.2" class="residue-circle" r="6.250725000000001"/>
<circle cx="28.75" cy="223.2" class="residue-circle" r="6.250725000000001"/>
<circle cx="24.41" cy="217.53" class="residue-circle" r="6.250725000000001"/>
<circle cx="22.11" cy="210.77" class="residue-circle" r="6.250725000000001"/>
<circle cx="22.119999999999997" cy="203.63" class="residue-circle" r="6.250725000000001"/>
<circle cx="24.41" cy="196.86" class="residue-circle" r="6.250725000000001"/>
<circle cx="28.76" cy="191.2" class="residue-circle" r="6.250725000000001"/>
<circle cx="28.76" cy="183.2" class="residue-circle" r="6.250725000000001"/>
<circle cx="27.78" cy="177.7" class="residue-circle" r="6.250725000000001"/>
<circle cx="28.75" cy="172.2" class="residue-circle" r="6.250725000000001"/>
<circle cx="28.75" cy="164.2" class="residue-circle" r="6.250725000000001"/>
<circle cx="28.32" cy="143.65" class="residue-circle" r="6.250725000000001"/>
<circle cx="28.18" cy="123.1" class="residue-circle" r="6.250725000000001"/>
<circle cx="28.32" cy="102.55" class="residue-circle" r="6.250725000000001"/>
<circle cx="28.75" cy="82.0" class="residue-circle" r="6.250725000000001"/>
<circle cx="28.75" cy="74.0" class="residue-circle" r="6.250725000000001"/>
<circle cx="28.75" cy="66.0" class="residue-circle" r="6.250725000000001"/>
<circle cx="28.75" cy="58.0" class="residue-circle" r="6.250725000000001"/>
<circle cx="28.75" cy="50.0" class="residue-circle" r="6.250725000000001"/>
<circle cx="28.75" cy="42.0" class="residue-circle" r="6.250725000000001"/>
<circle cx="28.75" cy="34.0" class="residue-circle" r="6.250725000000001"/>
<circle cx="28.75" cy="26.0" class="residue-circle" r="6.250725000000001"/>
<circle cx="28.59" cy="18.0" class="residue-circle" r="6.250725000000001"/>
<circle cx="28.61" cy="10.0" class="residue-circle" r="6.250725000000001"/>
<g><title>0 (position.label in template: 0.5'')</title><text x="48.75" y="18.0" class="text-green font" >5'</text></g>
<g><title>1 (position.label in template: 3.U')</title><text x="48.75" y="26.0" class="text-black font" >U</text></g>
<g><title>2 (position.label in template: 4.C')</title><text x="48.75" y="34.0" class="text-black font" >C</text></g>
<g><title>3 (position.label in template: 5.U')</title><text x="48.75" y="42.0" class="text-green font" >C</text></g>
<g><title>4 (position.label in template: 6.G')</title><text x="48.75" y="50.0" class="text-black font" >G</text></g>
<g><title>5 (position.label in template: 7.G')</title><text x="48.75" y="58.0" class="text-black font" >G</text></g>
<g><title>6 (position.label in template: 8.U')</title><text x="48.75" y="66.0" class="text-black font" >U</text></g>
<g><title>7 (position.label in template: 9.G')</title><text x="48.75" y="74.0" class="text-green font" >G</text></g>
<g><title>8 (position.label in template: 10.A')</title><text x="48.75" y="82.0" class="text-black font" >A</text></g>
<g><title>9 (position.label in template: 11.C')</title><text x="54.87" y="85.78" class="text-blue font" >C</text></g>
<g><title>10 (position.label in template: 12.U')</title><text x="60.39" y="90.4" class="text-green font" >C</text></g>
<g><title>11 (position.label in template: 13.U')</title><text x="65.17" y="95.78" class="text-green font" >A</text></g>
<g><title>12 (position.label in template: 14.U')</title><text x="69.13" y="101.79" class="text-blue font" >U</text></g>
<g><title>13 (position.label in template: 15.A')</title><text x="72.18" y="108.31" class="text-blue font" >A</text></g>
<g><title>14 (position.label in template: 17.G')</title><text x="74.25" y="115.2" class="text-green font" >C</text></g>
<g><title>15 (position.label in template: 18.U')</title><text x="82.25" y="115.2" class="text-green font" >C</text></g>
<g><title>16 (position.label in template: 19.C')</title><text x="90.25" y="115.2" class="text-green font" >G</text></g>
<g><title>17 (position.label in template: -1.')</title><text x="95.75" y="114.22" class="text-red font" >U</text></g>
<g><title>18 (position.label in template: 20.U')</title><text x="101.25" y="115.2" class="text-green font" >C</text></g>
<g><title>19 (position.label in template: 21.G')</title><text x="109.25" y="115.2" class="text-black font" >G</text></g>
<g><title>20 (position.label in template: 22.G')</title><text x="117.25" y="115.2" class="text-black font" >G</text></g>
<g><title>21 (position.label in template: 23.G')</title><text x="125.25" y="115.2" class="text-black font" >G</text></g>
<g><title>22 (position.label in template: 24.G')</title><text x="132.28" y="112.85" class="text-blue font" >G</text></g>
<g><title>23 (position.label in template: 25.A')</title><text x="139.5" y="111.15" class="text-green font" >U</text></g>
<g><title>24 (position.label in template: 26.A')</title><text x="146.84" y="110.13" class="text-green font" >C</text></g>
<g><title>25 (position.label in template: 27.A')</title><text x="154.25" y="109.78" class="text-green font" >C</text></g>
<g><title>26 (position.label in template: -1.')</title><text x="161.66" y="110.12" class="text-red font" >U</text></g>
<g><title>27 (position.label in template: -1.')</title><text x="169.0" y="111.15" class="text-red font" >A</text></g>
<g><title>28 (position.label in template: -1.')</title><text x="176.22" y="112.84" class="text-red font" >C</text></g>
<g><title>29 (position.label in template: 31.U')</title><text x="183.25" y="115.19" class="text-green font" >C</text></g>
<g><title>30 (position.label in template: 32.C')</title><text x="191.25" y="115.19" class="text-black font" >C</text></g>
<g><title>31 (position.label in template: 33.G')</title><text x="199.25" y="115.19" class="text-black font" >G</text></g>
<g><title>32 (position.label in template: 34.U')</title><text x="207.25" y="115.19" class="text-black font" >U</text></g>
<g><title>33 (position.label in template: 35.U')</title><text x="212.45" y="108.49" class="text-black font" >U</text></g>
<g><title>34 (position.label in template: 36.C')</title><text x="219.75" y="104.19" class="text-black font" >C</text></g>
<g><title>35 (position.label in template: 37.C')</title><text x="228.25" y="102.89" class="text-black font" >C</text></g>
<g><title>36 (position.label in template: 38.C')</title><text x="236.55" y="104.89" class="text-black font" >C</text></g>
<g><title>37 (position.label in template: 39.A')</title><text x="243.45" y="109.69" class="text-black font" >A</text></g>
<g><title>38 (position.label in template: 40.U')</title><text x="248.05" y="116.99" class="text-black font" >U</text></g>
<g><title>39 (position.label in template: 41.U')</title><text x="249.65" y="125.29" class="text-black font" >U</text></g>
<g><title>40 (position.label in template: 42.C')</title><text x="248.05" y="133.69" class="text-black font" >C</text></g>
<g><title>41 (position.label in template: 43.C')</title><text x="243.35" y="140.69" class="text-black font" >C</text></g>
<g><title>42 (position.label in template: 44.G')</title><text x="236.45" y="145.69" class="text-black font" >G</text></g>
<g><title>43 (position.label in template: 45.A')</title><text x="228.15" y="147.59" class="text-black font" >A</text></g>
<g><title>44 (position.label in template: 46.A')</title><text x="219.75" y="146.29" class="text-black font" >A</text></g>
<g><title>45 (position.label in template: 47.C')</title><text x="212.35" y="141.89" class="text-black font" >C</text></g>
<g><title>46 (position.label in template: 48.A')</title><text x="207.25" y="135.19" class="text-black font" >A</text></g>
<g><title>47 (position.label in template: 49.C')</title><text x="199.25" y="135.09" class="text-black font" >C</text></g>
<g><title>48 (position.label in template: 50.G')</title><text x="191.25" y="135.19" class="text-black font" >G</text></g>
<g><title>49 (position.label in template: 51.A')</title><text x="183.25" y="135.09" class="text-green font" >G</text></g>
<g><title>50 (position.label in template: 52.C')</title><text x="177.74" y="139.59" class="text-blue font" >C</text></g>
<g><title>51 (position.label in template: 53.A')</title><text x="171.54" y="143.09" class="text-green font" >C</text></g>
<g><title>52 (position.label in template: 57.A')</title><text x="164.84" y="145.49" class="text-green font" >G</text></g>
<g><title>53 (position.label in template: 58.A')</title><text x="157.83" y="146.71" class="text-green font" >U</text></g>
<g><title>54 (position.label in template: 59.G')</title><text x="150.71" y="146.72" class="text-green font" >C</text></g>
<g><title>55 (position.label in template: -1.')</title><text x="143.7" y="145.53" class="text-red font" >A</text></g>
<g><title>56 (position.label in template: -1.')</title><text x="136.99" y="143.16" class="text-red font" >A</text></g>
<g><title>57 (position.label in template: -1.')</title><text x="130.78" y="139.68" class="text-red font" >G</text></g>
<g><title>58 (position.label in template: 60.C')</title><text x="125.25" y="135.2" class="text-black font" >C</text></g>
<g><title>59 (position.label in template: 61.C')</title><text x="117.25" y="135.2" class="text-black font" >C</text></g>
<g><title>60 (position.label in template: 62.C')</title><text x="109.25" y="135.2" class="text-black font" >C</text></g>
<g><title>61 (position.label in template: 63.U')</title><text x="101.25" y="135.2" class="text-green font" >G</text></g>
<g><title>62 (position.label in template: -1.')</title><text x="95.75" y="136.17000000000002" class="text-red font" >C</text></g>
<g><title>63 (position.label in template: 64.G')</title><text x="90.25" y="135.2" class="text-green font" >C</text></g>
<g><title>64 (position.label in template: 65.A')</title><text x="82.25" y="135.2" class="text-green font" >G</text></g>
<g><title>65 (position.label in template: 66.C')</title><text x="74.25" y="135.2" class="text-green font" >G</text></g>
<g><title>66 (position.label in template: 68.G')</title><text x="61.59" y="149.78" class="text-blue font" >G</text></g>
<g><title>67 (position.label in template: 72.A')</title><text x="48.75" y="164.2" class="text-green font" >C</text></g>
<g><title>68 (position.label in template: 73.U')</title><text x="48.75" y="172.2" class="text-green font" >C</text></g>
<g><title>69 (position.label in template: -1.')</title><text x="49.72" y="177.7" class="text-red font" >U</text></g>
<g><title>70 (position.label in template: 74.G')</title><text x="48.74" y="183.2" class="text-green font" >A</text></g>
<g><title>71 (position.label in template: 75.A')</title><text x="48.74" y="191.2" class="text-green font" >U</text></g>
<g><title>72 (position.label in template: 76.U')</title><text x="53.08" y="196.87" class="text-green font" >G</text></g>
<g><title>73 (position.label in template: 77.A')</title><text x="55.37" y="203.63" class="text-blue font" >A</text></g>
<g><title>74 (position.label in template: -1.')</title><text x="55.36" y="210.78" class="text-red font" >U</text></g>
<g><title>75 (position.label in template: -1.')</title><text x="53.06" y="217.54" class="text-red font" >A</text></g>
<g><title>76 (position.label in template: 79.U')</title><text x="48.71" y="223.2" class="text-green font" >G</text></g>
<g><title>77 (position.label in template: 80.A')</title><text x="48.74" y="231.2" class="text-green font" >U</text></g>
<g><title>78 (position.label in template: 81.C')</title><text x="48.76" y="239.2" class="text-green font" >G</text></g>
<g><title>79 (position.label in template: 82.U')</title><text x="48.78" y="247.2" class="text-green font" >C</text></g>
<g><title>80 (position.label in template: 83.G')</title><text x="47.62" y="254.1" class="text-blue font" >G</text></g>
<g><title>81 (position.label in template: 84.C')</title><text x="42.28" y="258.63" class="text-green font" >U</text></g>
<g><title>82 (position.label in template: 85.A')</title><text x="35.28" y="258.63" class="text-green font" >C</text></g>
<g><title>83 (position.label in template: -1.')</title><text x="29.94" y="254.1" class="text-red font" >A</text></g>
<g><title>84 (position.label in template: 86.A')</title><text x="28.78" y="247.2" class="text-green font" >G</text></g>
<g><title>85 (position.label in template: 87.G')</title><text x="28.76" y="239.2" class="text-green font" >C</text></g>
<g><title>86 (position.label in template: 88.U')</title><text x="28.73" y="231.2" class="text-green font" >G</text></g>
<g><title>87 (position.label in template: 89.G')</title><text x="28.75" y="223.2" class="text-green font" >C</text></g>
<g><title>88 (position.label in template: 91.G')</title><text x="24.41" y="217.53" class="text-blue font" >G</text></g>
<g><title>89 (position.label in template: 92.A')</title><text x="22.11" y="210.77" class="text-blue font" >A</text></g>
<g><title>90 (position.label in template: -1.')</title><text x="22.119999999999997" y="203.63" class="text-red font" >A</text></g>
<g><title>91 (position.label in template: -1.')</title><text x="24.41" y="196.86" class="text-red font" >A</text></g>
<g><title>92 (position.label in template: 93.A')</title><text x="28.76" y="191.2" class="text-green font" >G</text></g>
<g><title>93 (position.label in template: 94.A')</title><text x="28.76" y="183.2" class="text-green font" >U</text></g>
<g><title>94 (position.label in template: -1.')</title><text x="27.78" y="177.7" class="text-red font" >C</text></g>
<g><title>95 (position.label in template: 95.G')</title><text x="28.75" y="172.2" class="text-green font" >G</text></g>
<g><title>96 (position.label in template: 96.U')</title><text x="28.75" y="164.2" class="text-green font" >G</text></g>
<g><title>97 (position.label in template: 100.U')</title><text x="28.32" y="143.65" class="text-blue font" >U</text></g>
<g><title>98 (position.label in template: 101.G')</title><text x="28.18" y="123.1" class="text-blue font" >G</text></g>
<g><title>99 (position.label in template: 102.A')</title><text x="28.32" y="102.55" class="text-blue font" >A</text></g>
<g><title>100 (position.label in template: 103.U')</title><text x="28.75" y="82.0" class="text-black font" >U</text></g>
<g><title>101 (position.label in template: 104.U')</title><text x="28.75" y="74.0" class="text-green font" >C</text></g>
<g><title>102 (position.label in template: 105.G')</title><text x="28.75" y="66.0" class="text-black font" >G</text></g>
<g><title>103 (position.label in template: 106.C')</title><text x="28.75" y="58.0" class="text-black font" >C</text></g>
<g><title>104 (position.label in template: 107.C')</title><text x="28.75" y="50.0" class="text-black font" >C</text></g>
<g><title>105 (position.label in template: 108.A')</title><text x="28.75" y="42.0" class="text-green font" >G</text></g>
<g><title>106 (position.label in template: 109.G')</title><text x="28.75" y="34.0" class="text-black font" >G</text></g>
<g><title>107 (position.label in template: 110.A')</title><text x="28.75" y="26.0" class="text-black font" >A</text></g>
<g><title>108 (position.label in template: 113.N')</title><text x="28.59" y="18.0" class="text-green font" >U</text></g>
<g><title>109 (position.label in template: 114.3'')</title><text x="28.61" y="10.0" class="text-green font" >3'</text></g>
</g>
<g class="labels">
<g class="label">
<text x="73.44973371577234" y="76.95066597867606" class="font numbering-label sequential" >10</text>
<line x1="63.86981354475441" y1="86.81633946340742" x2="69.40328269549659" y2="81.11781599927542" class="numbering-line sequential" />
</g><g class="label">
<text x="117.25010169948555" y="96.44614256707933" class="font numbering-label sequential" >20</text>
<line x1="117.25010169948555" y1="110.1977382486869" x2="117.25010169948555" y2="100.6132925876787" class="numbering-line sequential" />
</g><g class="label">
<text x="191.2502035199033" y="96.43814246525892" class="font numbering-label sequential" >30</text>
<line x1="191.2502035199033" y1="110.18973814686649" x2="191.2502035199033" y2="100.60529248585829" class="numbering-line sequential" />
</g><g class="label">
<text x="188.3198751452638" y="155.07409209124808" class="font numbering-label sequential" >50</text>
<line x1="180.56027953835982" y1="143.7208960739266" x2="185.47174331138913" y2="150.9069420706487" class="numbering-line sequential" />
</g><g class="label">
<text x="10.0" y="81.71821044543046" class="font numbering-label sequential" >100</text>
<line x1="23.750061436307078" y1="81.92362292846946" x2="17.500869750976562" y2="81.83026611060967" class="numbering-line sequential" />
</g></g>

</svg>