<svg xmlns="http://www.w3.org/2000/svg" width="268.77" height="329.7">
<style type="text/css" >
<![CDATA[
.font { font-family: Helvetica; font-size: 8.334300px; font-weight: bold;  }
.numbering-line { stroke: rgb(204, 204, 204); stroke-width: 0.5209;  }
.bp-line { stroke-width: 1.0418;  }
.text-black { fill: rgb(0, 0, 0);  }
.text-red { fill: rgb(255, 0, 255);  }
.text-green { fill: rgb(0, 255, 0);  }
.text-blue { fill: rgb(0, 0, 255);  }
.text-gray { fill: rgb(204, 204, 204);  }
.text-brown { fill: rgb(211.65, 104.55, 30.6);  }
text { element-wise: True; fill: rgb(0, 0, 0); text-anchor: middle; dominant-baseline: middle;  }
.circle-black { stroke: rgb(0, 0, 0); fill: none;  }
.circle-red { stroke: rgb(255, 0, 255); fill: none;  }
.circle-green { stroke: rgb(0, 255, 0); fill: none;  }
.circle-blue { stroke: rgb(0, 0, 255); fill: none;  }
.circle-gray { stroke: rgb(204, 204, 204); fill: none;  }
.circle-brown { stroke: rgb(211.65, 104.55, 30.6); fill: none;  }
.circle { stroke: rgb(0, 0, 0);  }
.numbering-label { fill: rgb(204, 204, 204);  }
.numbering-line { stroke: rgb(204, 204, 204);  }
.template { visibility: hidden;  }
.bp-line { stroke: rgb(0, 0, 0);  }
.residue-circle { fill: rgb(255,255,255);  }
.res-line { stroke: rgb(204, 204, 204);  }
]]>
</style>

<g class="bps"><line x1="50.87" y1="58.0" x2="30.87" y2="58.0" class="bp-line" />
<line x1="50.87" y1="66.0" x2="30.87" y2="66.0" class="bp-line" />
<line x1="50.87" y1="74.0" x2="30.87" y2="74.0" class="bp-line" />
<line x1="50.87" y1="82.0" x2="30.87" y2="82.0" class="bp-line" />
<line x1="50.87" y1="90.0" x2="30.87" y2="90.0" class="bp-line" />
<line x1="50.87" y1="98.0" x2="30.87" y2="98.0" class="bp-line" />
<line x1="68.37" y1="131.2" x2="68.37" y2="151.2" class="bp-line" />
<line x1="76.37" y1="131.2" x2="76.37" y2="151.2" class="bp-line" />
<line x1="84.37" y1="131.2" x2="84.37" y2="151.2" class="bp-line" />
<line x1="92.37" y1="131.2" x2="92.37" y2="151.2" class="bp-line" />
<line x1="100.37" y1="131.2" x2="100.37" y2="151.2" class="bp-line" />
<line x1="108.37" y1="131.2" x2="108.37" y2="151.2" class="bp-line" />
<line x1="116.37" y1="131.2" x2="116.37" y2="151.2" class="bp-line" />
<line x1="124.37" y1="131.2" x2="124.37" y2="151.2" class="bp-line" />
<line x1="182.37" y1="131.19" x2="182.37" y2="151.09" class="bp-line" />
<line x1="190.37" y1="131.19" x2="190.37" y2="151.19" class="bp-line" />
<line x1="198.37" y1="131.19" x2="198.37" y2="151.09" class="bp-line" />
<line x1="206.37" y1="131.19" x2="206.37" y2="151.19" class="bp-line" />
<line x1="206.37" y1="131.19" x2="206.37" y2="151.19" class="bp-line" />
<line x1="198.37" y1="131.19" x2="198.37" y2="151.09" class="bp-line" />
<line x1="190.37" y1="131.19" x2="190.37" y2="151.19" class="bp-line" />
<line x1="182.37" y1="131.19" x2="182.37" y2="151.09" class="bp-line" />
<line x1="124.37" y1="131.2" x2="124.37" y2="151.2" class="bp-line" />
<line x1="116.37" y1="131.2" x2="116.37" y2="151.2" class="bp-line" />
<line x1="108.37" y1="131.2" x2="108.37" y2="151.2" class="bp-line" />
<line x1="100.37" y1="131.2" x2="100.37" y2="151.2" class="bp-line" />
<line x1="92.37" y1="131.2" x2="92.37" y2="151.2" class="bp-line" />
<line x1="84.37" y1="131.2" x2="84.37" y2="151.2" class="bp-line" />
<line x1="76.37" y1="131.2" x2="76.37" y2="151.2" class="bp-line" />
<line x1="68.37" y1="131.2" x2="68.37" y2="151.2" class="bp-line" />
<line x1="50.87" y1="180.2" x2="30.87" y2="180.2" class="bp-line" />
<line x1="50.87" y1="188.2" x2="30.87" y2="188.2" class="bp-line" />
<line x1="50.86" y1="199.2" x2="30.88" y2="199.2" class="bp-line" />
<line x1="50.86" y1="207.2" x2="30.88" y2="207.2" class="bp-line" />
<line x1="50.8" y1="239.2" x2="30.84" y2="239.2" class="bp-line" />
<line x1="50.82" y1="247.2" x2="30.86" y2="247.2" class="bp-line" />
<line x1="50.85" y1="255.2" x2="30.84" y2="255.2" class="bp-line" />
<line x1="50.87" y1="263.2" x2="30.87" y2="263.2" class="bp-line" />
<line x1="50.89" y1="271.2" x2="30.89" y2="271.2" class="bp-line" />
<line x1="50.83" y1="279.2" x2="30.82" y2="279.2" class="bp-line" />
<line x1="50.81" y1="287.2" x2="30.85" y2="287.2" class="bp-line" />
<line x1="50.83" y1="295.2" x2="30.83" y2="295.2" class="bp-line" />
<line x1="50.83" y1="295.2" x2="30.83" y2="295.2" class="bp-line" />
<line x1="50.81" y1="287.2" x2="30.85" y2="287.2" class="bp-line" />
<line x1="50.83" y1="279.2" x2="30.82" y2="279.2" class="bp-line" />
<line x1="50.89" y1="271.2" x2="30.89" y2="271.2" class="bp-line" />
<line x1="50.87" y1="263.2" x2="30.87" y2="263.2" class="bp-line" />
<line x1="50.85" y1="255.2" x2="30.84" y2="255.2" class="bp-line" />
<line x1="50.82" y1="247.2" x2="30.86" y2="247.2" class="bp-line" />
<line x1="50.8" y1="239.2" x2="30.84" y2="239.2" class="bp-line" />
<line x1="50.86" y1="207.2" x2="30.88" y2="207.2" class="bp-line" />
<line x1="50.86" y1="199.2" x2="30.88" y2="199.2" class="bp-line" />
<line x1="50.87" y1="188.2" x2="30.87" y2="188.2" class="bp-line" />
<line x1="50.87" y1="180.2" x2="30.87" y2="180.2" class="bp-line" />
<line x1="50.87" y1="98.0" x2="30.87" y2="98.0" class="bp-line" />
<line x1="50.87" y1="90.0" x2="30.87" y2="90.0" class="bp-line" />
<line x1="50.87" y1="82.0" x2="30.87" y2="82.0" class="bp-line" />
<line x1="50.87" y1="74.0" x2="30.87" y2="74.0" class="bp-line" />
<line x1="50.87" y1="66.0" x2="30.87" y2="66.0" class="bp-line" />
<line x1="50.87" y1="58.0" x2="30.87" y2="58.0" class="bp-line" />
</g>
<g class="residues"><line x1="50.87" y1="34.0" x2="50.87" y2="42.0" class="bp-line res-line" />
<line x1="50.87" y1="42.0" x2="50.87" y2="50.0" class="bp-line res-line" />
<line x1="50.87" y1="50.0" x2="50.87" y2="58.0" class="bp-line res-line" />
<line x1="50.87" y1="58.0" x2="50.87" y2="66.0" class="bp-line res-line" />
<line x1="50.87" y1="66.0" x2="50.87" y2="74.0" class="bp-line res-line" />
<line x1="50.87" y1="74.0" x2="50.87" y2="82.0" class="bp-line res-line" />
<line x1="50.87" y1="82.0" x2="50.87" y2="90.0" class="bp-line res-line" />
<line x1="50.87" y1="90.0" x2="50.87" y2="98.0" class="bp-line res-line" />
<line x1="50.87" y1="98.0" x2="57.37" y2="100.85" class="bp-line res-line" />
<line x1="57.37" y1="100.85" x2="62.76" y2="105.23" class="bp-line res-line" />
<line x1="62.76" y1="105.23" x2="66.78999999999999" y2="110.9" class="bp-line res-line" />
<line x1="66.78999999999999" y1="110.9" x2="69.15" y2="117.44" class="bp-line res-line" />
<line x1="69.15" y1="117.44" x2="69.68" y2="124.37" class="bp-line res-line" />
<line x1="69.68" y1="124.37" x2="68.37" y2="131.2" class="bp-line res-line" />
<line x1="68.37" y1="131.2" x2="76.37" y2="131.2" class="bp-line res-line" />
<line x1="76.37" y1="131.2" x2="84.37" y2="131.2" class="bp-line res-line" />
<line x1="84.37" y1="131.2" x2="92.37" y2="131.2" class="bp-line res-line" />
<line x1="92.37" y1="131.2" x2="100.37" y2="131.2" class="bp-line res-line" />
<line x1="100.37" y1="131.2" x2="108.37" y2="131.2" class="bp-line res-line" />
<line x1="108.37" y1="131.2" x2="116.37" y2="131.2" class="bp-line res-line" />
<line x1="116.37" y1="131.2" x2="124.37" y2="131.2" class="bp-line res-line" />
<line x1="124.37" y1="131.2" x2="131.4" y2="128.85" class="bp-line res-line" />
<line x1="131.4" y1="128.85" x2="138.62" y2="127.15" class="bp-line res-line" />
<line x1="138.62" y1="127.15" x2="145.96" y2="126.13" class="bp-line res-line" />
<line x1="145.96" y1="126.13" x2="153.37" y2="125.78" class="bp-line res-line" />
<line x1="153.37" y1="125.78" x2="160.78" y2="126.13" class="bp-line res-line" />
<line x1="160.78" y1="126.13" x2="168.12" y2="127.15" class="bp-line res-line" />
<line x1="168.12" y1="127.15" x2="175.34" y2="128.84" class="bp-line res-line" />
<line x1="175.34" y1="128.84" x2="182.37" y2="131.19" class="bp-line res-line" />
<line x1="182.37" y1="131.19" x2="190.37" y2="131.19" class="bp-line res-line" />
<line x1="190.37" y1="131.19" x2="198.37" y2="131.19" class="bp-line res-line" />
<line x1="198.37" y1="131.19" x2="206.37" y2="131.19" class="bp-line res-line" />
<line x1="206.37" y1="131.19" x2="211.57" y2="124.49" class="bp-line res-line" />
<line x1="211.57" y1="124.49" x2="218.87" y2="120.19" class="bp-line res-line" />
<line x1="218.87" y1="120.19" x2="227.37" y2="118.89" class="bp-line res-line" />
<line x1="227.37" y1="118.89" x2="235.67" y2="120.89" class="bp-line res-line" />
<line x1="235.67" y1="120.89" x2="242.57" y2="125.69" class="bp-line res-line" />
<line x1="242.57" y1="125.69" x2="247.17" y2="132.99" class="bp-line res-line" />
<line x1="247.17" y1="132.99" x2="248.77" y2="141.29" class="bp-line res-line" />
<line x1="248.77" y1="141.29" x2="247.17" y2="149.69" class="bp-line res-line" />
<line x1="247.17" y1="149.69" x2="242.47" y2="156.69" class="bp-line res-line" />
<line x1="242.47" y1="156.69" x2="235.57" y2="161.69" class="bp-line res-line" />
<line x1="235.57" y1="161.69" x2="227.27" y2="163.59" class="bp-line res-line" />
<line x1="227.27" y1="163.59" x2="218.87" y2="162.29" class="bp-line res-line" />
<line x1="218.87" y1="162.29" x2="211.47" y2="157.89" class="bp-line res-line" />
<line x1="211.47" y1="157.89" x2="206.37" y2="151.19" class="bp-line res-line" />
<line x1="206.37" y1="151.19" x2="198.37" y2="151.09" class="bp-line res-line" />
<line x1="198.37" y1="151.09" x2="190.37" y2="151.19" class="bp-line res-line" />
<line x1="190.37" y1="151.19" x2="182.37" y2="151.09" class="bp-line res-line" />
<line x1="182.37" y1="151.09" x2="176.86" y2="155.59" class="bp-line res-line" />
<line x1="176.86" y1="155.59" x2="170.66" y2="159.09" class="bp-line res-line" />
<line x1="170.66" y1="159.09" x2="163.96" y2="161.49" class="bp-line res-line" />
<line x1="163.96" y1="161.49" x2="156.95" y2="162.71" class="bp-line res-line" />
<line x1="156.95" y1="162.71" x2="149.83" y2="162.73" class="bp-line res-line" />
<line x1="149.83" y1="162.73" x2="142.82" y2="161.53" class="bp-line res-line" />
<line x1="142.82" y1="161.53" x2="136.11" y2="159.16" class="bp-line res-line" />
<line x1="136.11" y1="159.16" x2="129.9" y2="155.68" class="bp-line res-line" />
<line x1="129.9" y1="155.68" x2="124.37" y2="151.2" class="bp-line res-line" />
<line x1="124.37" y1="151.2" x2="116.37" y2="151.2" class="bp-line res-line" />
<line x1="116.37" y1="151.2" x2="108.37" y2="151.2" class="bp-line res-line" />
<line x1="108.37" y1="151.2" x2="100.37" y2="151.2" class="bp-line res-line" />
<line x1="100.37" y1="151.2" x2="92.37" y2="151.2" class="bp-line res-line" />
<line x1="92.37" y1="151.2" x2="84.37" y2="151.2" class="bp-line res-line" />
<line x1="84.37" y1="151.2" x2="80.37" y2="158.2" class="bp-line res-line" />
<line x1="80.37" y1="158.2" x2="76.37" y2="151.2" class="bp-line res-line" />
<line x1="76.37" y1="151.2" x2="68.37" y2="151.2" class="bp-line res-line" />
<line x1="68.37" y1="151.2" x2="59.7" y2="165.75" class="bp-line res-line" />
<line x1="59.7" y1="165.75" x2="50.87" y2="180.2" class="bp-line res-line" />
<line x1="50.87" y1="180.2" x2="50.87" y2="188.2" class="bp-line res-line" />
<line x1="50.87" y1="188.2" x2="51.84" y2="193.7" class="bp-line res-line" />
<line x1="51.84" y1="193.7" x2="50.86" y2="199.2" class="bp-line res-line" />
<line x1="50.86" y1="199.2" x2="50.86" y2="207.2" class="bp-line res-line" />
<line x1="50.86" y1="207.2" x2="55.19" y2="212.88" class="bp-line res-line" />
<line x1="55.19" y1="212.88" x2="57.48" y2="219.64" class="bp-line res-line" />
<line x1="57.48" y1="219.64" x2="57.46" y2="226.78" class="bp-line res-line" />
<line x1="57.46" y1="226.78" x2="55.15" y2="233.54" class="bp-line res-line" />
<line x1="55.15" y1="233.54" x2="50.8" y2="239.2" class="bp-line res-line" />
<line x1="50.8" y1="239.2" x2="50.82" y2="247.2" class="bp-line res-line" />
<line x1="50.82" y1="247.2" x2="50.85" y2="255.2" class="bp-line res-line" />
<line x1="50.85" y1="255.2" x2="50.87" y2="263.2" class="bp-line res-line" />
<line x1="50.87" y1="263.2" x2="50.89" y2="271.2" class="bp-line res-line" />
<line x1="50.89" y1="271.2" x2="50.83" y2="279.2" class="bp-line res-line" />
<line x1="50.83" y1="279.2" x2="50.81" y2="287.2" class="bp-line res-line" />
<line x1="50.81" y1="287.2" x2="50.83" y2="295.2" class="bp-line res-line" />
<line x1="50.83" y1="295.2" x2="50.97" y2="303.65" class="bp-line res-line" />
<line x1="50.97" y1="303.65" x2="45.06" y2="309.69" class="bp-line res-line" />
<line x1="45.06" y1="309.69" x2="36.61" y2="309.7" class="bp-line res-line" />
<line x1="36.61" y1="309.7" x2="30.69" y2="303.67" class="bp-line res-line" />
<line x1="30.69" y1="303.67" x2="30.83" y2="295.2" class="bp-line res-line" />
<line x1="30.83" y1="295.2" x2="30.85" y2="287.2" class="bp-line res-line" />
<line x1="30.85" y1="287.2" x2="30.82" y2="279.2" class="bp-line res-line" />
<line x1="30.82" y1="279.2" x2="30.89" y2="271.2" class="bp-line res-line" />
<line x1="30.89" y1="271.2" x2="30.87" y2="263.2" class="bp-line res-line" />
<line x1="30.87" y1="263.2" x2="30.84" y2="255.2" class="bp-line res-line" />
<line x1="30.84" y1="255.2" x2="30.86" y2="247.2" class="bp-line res-line" />
<line x1="30.86" y1="247.2" x2="30.84" y2="239.2" class="bp-line res-line" />
<line x1="30.84" y1="239.2" x2="26.5" y2="233.53" class="bp-line res-line" />
<line x1="26.5" y1="233.53" x2="24.22" y2="226.76" class="bp-line res-line" />
<line x1="24.22" y1="226.76" x2="24.23" y2="219.62" class="bp-line res-line" />
<line x1="24.23" y1="219.62" x2="26.53" y2="212.86" class="bp-line res-line" />
<line x1="26.53" y1="212.86" x2="30.88" y2="207.2" class="bp-line res-line" />
<line x1="30.88" y1="207.2" x2="30.88" y2="199.2" class="bp-line res-line" />
<line x1="30.88" y1="199.2" x2="29.9" y2="193.7" class="bp-line res-line" />
<line x1="29.9" y1="193.7" x2="30.87" y2="188.2" class="bp-line res-line" />
<line x1="30.87" y1="188.2" x2="30.87" y2="180.2" class="bp-line res-line" />
<line x1="30.87" y1="180.2" x2="30.44" y2="159.65" class="bp-line res-line" />
<line x1="30.44" y1="159.65" x2="30.3" y2="139.1" class="bp-line res-line" />
<line x1="30.3" y1="139.1" x2="30.44" y2="118.55" class="bp-line res-line" />
<line x1="30.44" y1="118.55" x2="30.87" y2="98.0" class="bp-line res-line" />
<line x1="30.87" y1="98.0" x2="30.87" y2="90.0" class="bp-line res-line" />
<line x1="30.87" y1="90.0" x2="30.87" y2="82.0" class="bp-line res-line" />
<line x1="30.87" y1="82.0" x2="30.87" y2="74.0" class="bp-line res-line" />
<line x1="30.87" y1="74.0" x2="30.87" y2="66.0" class="bp-line res-line" />
<line x1="30.87" y1="66.0" x2="30.87" y2="58.0" class="bp-line res-line" />
<line x1="30.87" y1="58.0" x2="30.87" y2="50.0" class="bp-line res-line" />
<line x1="30.87" y1="50.0" x2="30.87" y2="42.0" class="bp-line res-line" />
<line x1="30.87" y1="42.0" x2="30.87" y2="34.0" class="bp-line res-line" />
<line x1="30.87" y1="34.0" x2="30.87" y2="26.0" class="bp-line res-line" />
<line x1="30.87" y1="26.0" x2="30.87" y2="18.0" class="bp-line res-line" />
<line x1="30.87" y1="18.0" x2="30.87" y2="10.0" class="bp-line res-line" />
<circle cx="50.87" cy="34.0" class="residue-circle" r="6.250725000000001"/>
<circle cx="50.87" cy="42.0" class="residue-circle" r="6.250725000000001"/>
<circle cx="50.87" cy="50.0" class="residue-circle" r="6.250725000000001"/>
<circle cx="50.87" cy="58.0" class="residue-circle" r="6.250725000000001"/>
<circle cx="50.87" cy="66.0" class="residue-circle" r="6.250725000000001"/>
<circle cx="50.87" cy="74.0" class="residue-circle" r="6.250725000000001"/>
<circle cx="50.87" cy="82.0" class="residue-circle" r="6.250725000000001"/>
<circle cx="50.87" cy="90.0" class="residue-circle" r="6.250725000000001"/>
<circle cx="50.87" cy="98.0" class="residue-circle" r="6.250725000000001"/>
<circle cx="57.37" cy="100.85" class="residue-circle" r="6.250725000000001"/>
<circle cx="62.76" cy="105.23" class="residue-circle" r="6.250725000000001"/>
<circle cx="66.78999999999999" cy="110.9" class="residue-circle" r="6.250725000000001"/>
<circle cx="69.15" cy="117.44" class="residue-circle" r="6.250725000000001"/>
<circle cx="69.68" cy="124.37" class="residue-circle" r="6.250725000000001"/>
<circle cx="68.37" cy="131.2" class="residue-circle" r="6.250725000000001"/>
<circle cx="76.37" cy="131.2" class="residue-circle" r="6.250725000000001"/>
<circle cx="84.37" cy="131.2" class="residue-circle" r="6.250725000000001"/>
<circle cx="92.37" cy="131.2" class="residue-circle" r="6.250725000000001"/>
<circle cx="100.37" cy="131.2" class="residue-circle" r="6.250725000000001"/>
<circle cx="108.37" cy="131.2" class="residue-circle" r="6.250725000000001"/>
<circle cx="116.37" cy="131.2" class="residue-circle" r="6.250725000000001"/>
<circle cx="124.37" cy="131.2" class="residue-circle" r="6.250725000000001"/>
<circle cx="131.4" cy="128.85" class="residue-circle" r="6.250725000000001"/>
<circle cx="138.62" cy="127.15" class="residue-circle" r="6.250725000000001"/>
<circle cx="145.96" cy="126.13" class="residue-circle" r="6.250725000000001"/>
<circle cx="153.37" cy="125.78" class="residue-circle" r="6.250725000000001"/>
<circle cx="160.78" cy="126.13" class="residue-circle" r="6.250725000000001"/>
<circle cx="168.12" cy="127.15" class="residue-circle" r="6.250725000000001"/>
<circle cx="175.34" cy="128.84" class="residue-circle" r="6.250725000000001"/>
<circle cx="182.37" cy="131.19" class="residue-circle" r="6.250725000000001"/>
<circle cx="190.37" cy="131.19" class="residue-circle" r="6.250725000000001"/>
<circle cx="198.37" cy="131.19" class="residue-circle" r="6.250725000000001"/>
<circle cx="206.37" cy="131.19" class="residue-circle" r="6.250725000000001"/>
<circle cx="211.57" cy="124.49" class="residue-circle" r="6.250725000000001"/>
<circle cx="218.87" cy="120.19" class="residue-circle" r="6.250725000000001"/>
<circle cx="227.37" cy="118.89" class="residue-circle" r="6.250725000000001"/>
<circle cx="235.67" cy="120.89" class="residue-circle" r="6.250725000000001"/>
<circle cx="242.57" cy="125.69" class="residue-circle" r="6.250725000000001"/>
<circle cx="247.17" cy="132.99" class="residue-circle" r="6.250725000000001"/>
<circle cx="248.77" cy="141.29" class="residue-circle" r="6.250725000000001"/>
<circle cx="247.17" cy="149.69" class="residue-circle" r="6.250725000000001"/>
<circle cx="242.47" cy="156.69" class="residue-circle" r="6.250725000000001"/>
<circle cx="235.57" cy="161.69" class="residue-circle" r="6.250725000000001"/>
<circle cx="227.27" cy="163.59" class="residue-circle" r="6.250725000000001"/>
<circle cx="218.87" cy="162.29" class="residue-circle" r="6.250725000000001"/>
<circle cx="211.47" cy="157.89" class="residue-circle" r="6.250725000000001"/>
<circle cx="206.37" cy="151.19" class="residue-circle" r="6.250725000000001"/>
<circle cx="198.37" cy="151.09" class="residue-circle" r="6.250725000000001"/>
<circle cx="190.37" cy="151.19" class="residue-circle" r="6.250725000000001"/>
<circle cx="182.37" cy="151.09" class="residue-circle" r="6.250725000000001"/>
<circle cx="176.86" cy="155.59" class="residue-circle" r="6.250725000000001"/>
<circle cx="170.66" cy="159.09" class="residue-circle" r="6.250725000000001"/>
<circle cx="163.96" cy="161.49" class="residue-circle" r="6.250725000000001"/>
<circle cx="156.95" cy="162.71" class="residue-circle" r="6.250725000000001"/>
<circle cx="149.83" cy="162.73" class="residue-circle" r="6.250725000000001"/>
<circle cx="142.82" cy="161.53" class="residue-circle" r="6.250725000000001"/>
<circle cx="136.11" cy="159.16" class="residue-circle" r="6.250725000000001"/>
<circle cx="129.9" cy="155.68" class="residue-circle" r="6.250725000000001"/>
<circle cx="124.37" cy="151.2" class="residue-circle" r="6.250725000000001"/>
<circle cx="116.37" cy="151.2" class="residue-circle" r="6.250725000000001"/>
<circle cx="108.37" cy="151.2" class="residue-circle" r="6.250725000000001"/>
<circle cx="100.37" cy="151.2" class="residue-circle" r="6.250725000000001"/>
<circle cx="92.37" cy="151.2" class="residue-circle" r="6.250725000000001"/>
<circle cx="84.37" cy="151.2" class="residue-circle" r="6.250725000000001"/>
<circle cx="80.37" cy="158.2" class="residue-circle" r="6.250725000000001"/>
<circle cx="76.37" cy="151.2" class="residue-circle" r="6.250725000000001"/>
<circle cx="68.37" cy="151.2" class="residue-circle" r="6.250725000000001"/>
<circle cx="59.7" cy="165.75" class="residue-circle" r="6.250725000000001"/>
<circle cx="50.87" cy="180.2" class="residue-circle" r="6.250725000000001"/>
<circle cx="50.87" cy="188.2" class="residue-circle" r="6.250725000000001"/>
<circle cx="51.84" cy="193.7" class="residue-circle" r="6.250725000000001"/>
<circle cx="50.86" cy="199.2" class="residue-circle" r="6.250725000000001"/>
<circle cx="50.86" cy="207.2" class="residue-circle" r="6.250725000000001"/>
<circle cx="55.19" cy="212.88" class="residue-circle" r="6.250725000000001"/>
<circle cx="57.48" cy="219.64" class="residue-circle" r="6.250725000000001"/>
<circle cx="57.46" cy="226.78" class="residue-circle" r="6.250725000000001"/>
<circle cx="55.15" cy="233.54" class="residue-circle" r="6.250725000000001"/>
<circle cx="50.8" cy="239.2" class="residue-circle" r="6.250725000000001"/>
<circle cx="50.82" cy="247.2" class="residue-circle" r="6.250725000000001"/>
<circle cx="50.85" cy="255.2" class="residue-circle" r="6.250725000000001"/>
<circle cx="50.87" cy="263.2" class="residue-circle" r="6.250725000000001"/>
<circle cx="50.89" cy="271.2" class="residue-circle" r="6.250725000000001"/>
<circle cx="50.83" cy="279.2" class="residue-circle" r="6.250725000000001"/>
<circle cx="50.81" cy="287.2" class="residue-circle" r="6.250725000000001"/>
<circle cx="50.83" cy="295.2" class="residue-circle" r="6.250725000000001"/>
<circle cx="50.97" cy="303.65" class="residue-circle" r="6.250725000000001"/>
<circle cx="45.06" cy="309.69" class="residue-circle" r="6.250725000000001"/>
<circle cx="36.61" cy="309.7" class="residue-circle" r="6.250725000000001"/>
<circle cx="30.69" cy="303.67" class="residue-circle" r="6.250725000000001"/>
<circle cx="30.83" cy="295.2" class="residue-circle" r="6.250725000000001"/>
<circle cx="30.85" cy="287.2" class="residue-circle" r="6.250725000000001"/>
<circle cx="30.82" cy="279.2" class="residue-circle" r="6.250725000000001"/>
<circle cx="30.89" cy="271.2" class="residue-circle" r="6.250725000000001"/>
<circle cx="30.87" cy="263.2" class="residue-circle" r="6.250725000000001"/>
<circle cx="30.84" cy="255.2" class="residue-circle" r="6.250725000000001"/>
<circle cx="30.86" cy="247.2" class="residue-circle" r="6.250725000000001"/>
<circle cx="30.84" cy="239.2" class="residue-circle" r="6.250725000000001"/>
<circle cx="26.5" cy="233.53" class="residue-circle" r="6.250725000000001"/>
<circle cx="24.22" cy="226.76" class="residue-circle" r="6.250725000000001"/>
<circle cx="24.23" cy="219.62" class="residue-circle" r="6.250725000000001"/>
<circle cx="26.53" cy="212.86" class="residue-circle" r="6.250725000000001"/>
<circle cx="30.88" cy="207.2" class="residue-circle" r="6.250725000000001"/>
<circle cx="30.88" cy="199.2" class="residue-circle" r="6.250725000000001"/>
<circle cx="29.9" cy="193.7" class="residue-circle" r="6.250725000000001"/>
<circle cx="30.87" cy="188.2" class="residue-circle" r="6.250725000000001"/>
<circle cx="30.87" cy="180.2" class="residue-circle" r="6.250725000000001"/>
<circle cx="30.44" cy="159.65" class="residue-circle" r="6.250725000000001"/>
<circle cx="30.3" cy="139.1" class="residue-circle" r="6.250725000000001"/>
<circle cx="30.44" cy="118.55" class="residue-circle" r="6.250725000000001"/>
<circle cx="30.87" cy="98.0" class="residue-circle" r="6.250725000000001"/>
<circle cx="30.87" cy="90.0" class="residue-circle" r="6.250725000000001"/>
<circle cx="30.87" cy="82.0" class="residue-circle" r="6.250725000000001"/>
<circle cx="30.87" cy="74.0" class="residue-circle" r="6.250725000000001"/>
<circle cx="30.87" cy="66.0" class="residue-circle" r="6.250725000000001"/>
<circle cx="30.87" cy="58.0" class="residue-circle" r="6.250725000000001"/>
<circle cx="30.87" cy="50.0" class="residue-circle" r="6.250725000000001"/>
<circle cx="30.87" cy="42.0" class="residue-circle" r="6.250725000000001"/>
<circle cx="30.87" cy="34.0" class="residue-circle" r="6.250725000000001"/>
<circle cx="30.87" cy="26.0" class="residue-circle" r="6.250725000000001"/>
<circle cx="30.87" cy="18.0" class="residue-circle" r="6.250725000000001"/>
<circle cx="30.87" cy="10.0" class="residue-circle" r="6.250725000000001"/>
<g><title>0 (position.label in template: 0.5'')</title><text x="50.87" y="34.0" class="text-green font" >5'</text></g>
<g><title>1 (position.label in template: -1.')</title><text x="50.87" y="42.0" class="text-red font" >C</text></g>
<g><title>2 (position.label in template: -1.')</title><text x="50.87" y="50.0" class="text-red font" >A</text></g>
<g><title>3 (position.label in template: 5.C')</title><text x="50.87" y="58.0" class="text-black font" >C</text></g>
<g><title>4 (position.label in template: 6.G')</title><text x="50.87" y="66.0" class="text-black font" >G</text></g>
<g><title>5 (position.label in template: 7.G')</title><text x="50.87" y="74.0" class="text-black font" >G</text></g>
<g><title>6 (position.label in template: 8.U')</title><text x="50.87" y="82.0" class="text-black font" >U</text></g>
<g><title>7 (position.label in template: 9.G')</title><text x="50.87" y="90.0" class="text-black font" >G</text></g>
<g><title>8 (position.label in template: 10.G')</title><text x="50.87" y="98.0" class="text-black font" >G</text></g>
<g><title>9 (position.label in template: 11.U')</title><text x="57.37" y="100.85" class="text-black font" >U</text></g>
<g><title>10 (position.label in template: 12.U')</title><text x="62.76" y="105.23" class="text-black font" >U</text></g>
<g><title>11 (position.label in template: 13.U')</title><text x="66.78999999999999" y="110.9" class="text-green font" >A</text></g>
<g><title>12 (position.label in template: 14.U')</title><text x="69.15" y="117.44" class="text-black font" >U</text></g>
<g><title>13 (position.label in template: 15.G')</title><text x="69.68" y="124.37" class="text-black font" >G</text></g>
<g><title>14 (position.label in template: 16.G')</title><text x="68.37" y="131.2" class="text-black font" >G</text></g>
<g><title>15 (position.label in template: 17.C')</title><text x="76.37" y="131.2" class="text-black font" >C</text></g>
<g><title>16 (position.label in template: 18.G')</title><text x="84.37" y="131.2" class="text-black font" >G</text></g>
<g><title>17 (position.label in template: 19.A')</title><text x="92.37" y="131.2" class="text-green font" >G</text></g>
<g><title>18 (position.label in template: 20.G')</title><text x="100.37" y="131.2" class="text-green font" >A</text></g>
<g><title>19 (position.label in template: 21.G')</title><text x="108.37" y="131.2" class="text-green font" >G</text></g>
<g><title>20 (position.label in template: 22.G')</title><text x="116.37" y="131.2" class="text-black font" >G</text></g>
<g><title>21 (position.label in template: 23.G')</title><text x="124.37" y="131.2" class="text-black font" >G</text></g>
<g><title>22 (position.label in template: 24.G')</title><text x="131.4" y="128.85" class="text-blue font" >G</text></g>
<g><title>23 (position.label in template: 25.A')</title><text x="138.62" y="127.15" class="text-blue font" >A</text></g>
<g><title>24 (position.label in template: 26.A')</title><text x="145.96" y="126.13" class="text-blue font" >A</text></g>
<g><title>25 (position.label in template: 27.A')</title><text x="153.37" y="125.78" class="text-blue font" >A</text></g>
<g><title>26 (position.label in template: -1.')</title><text x="160.78" y="126.13" class="text-red font" >C</text></g>
<g><title>27 (position.label in template: -1.')</title><text x="168.12" y="127.15" class="text-red font" >A</text></g>
<g><title>28 (position.label in template: -1.')</title><text x="175.34" y="128.84" class="text-red font" >C</text></g>
<g><title>29 (position.label in template: 31.C')</title><text x="182.37" y="131.19" class="text-black font" >C</text></g>
<g><title>30 (position.label in template: 32.C')</title><text x="190.37" y="131.19" class="text-black font" >C</text></g>
<g><title>31 (position.label in template: 33.G')</title><text x="198.37" y="131.19" class="text-black font" >G</text></g>
<g><title>32 (position.label in template: 34.G')</title><text x="206.37" y="131.19" class="text-black font" >G</text></g>
<g><title>33 (position.label in template: 35.U')</title><text x="211.57" y="124.49" class="text-black font" >U</text></g>
<g><title>34 (position.label in template: 36.C')</title><text x="218.87" y="120.19" class="text-black font" >C</text></g>
<g><title>35 (position.label in template: 37.C')</title><text x="227.37" y="118.89" class="text-black font" >C</text></g>
<g><title>36 (position.label in template: 38.C')</title><text x="235.67" y="120.89" class="text-black font" >C</text></g>
<g><title>37 (position.label in template: 39.A')</title><text x="242.57" y="125.69" class="text-black font" >A</text></g>
<g><title>38 (position.label in template: 40.U')</title><text x="247.17" y="132.99" class="text-black font" >U</text></g>
<g><title>39 (position.label in template: 41.U')</title><text x="248.77" y="141.29" class="text-black font" >U</text></g>
<g><title>40 (position.label in template: 42.C')</title><text x="247.17" y="149.69" class="text-black font" >C</text></g>
<g><title>41 (position.label in template: 43.C')</title><text x="242.47" y="156.69" class="text-black font" >C</text></g>
<g><title>42 (position.label in template: 44.G')</title><text x="235.57" y="161.69" class="text-black font" >G</text></g>
<g><title>43 (position.label in template: 45.A')</title><text x="227.27" y="163.59" class="text-black font" >A</text></g>
<g><title>44 (position.label in template: 46.A')</title><text x="218.87" y="162.29" class="text-black font" >A</text></g>
<g><title>45 (position.label in template: 47.C')</title><text x="211.47" y="157.89" class="text-black font" >C</text></g>
<g><title>46 (position.label in template: 48.C')</title><text x="206.37" y="151.19" class="text-black font" >C</text></g>
<g><title>47 (position.label in template: 49.C')</title><text x="198.37" y="151.09" class="text-black font" >C</text></g>
<g><title>48 (position.label in template: 50.G')</title><text x="190.37" y="151.19" class="text-black font" >G</text></g>
<g><title>49 (position.label in template: 51.G')</title><text x="182.37" y="151.09" class="text-black font" >G</text></g>
<g><title>50 (position.label in template: 52.A')</title><text x="176.86" y="155.59" class="text-green font" >U</text></g>
<g><title>51 (position.label in template: 53.A')</title><text x="170.66" y="159.09" class="text-blue font" >A</text></g>
<g><title>52 (position.label in template: 57.A')</title><text x="163.96" y="161.49" class="text-green font" >G</text></g>
<g><title>53 (position.label in template: 58.A')</title><text x="156.95" y="162.71" class="text-green font" >U</text></g>
<g><title>54 (position.label in template: 59.G')</title><text x="149.83" y="162.73" class="text-green font" >U</text></g>
<g><title>55 (position.label in template: -1.')</title><text x="142.82" y="161.53" class="text-red font" >A</text></g>
<g><title>56 (position.label in template: -1.')</title><text x="136.11" y="159.16" class="text-red font" >A</text></g>
<g><title>57 (position.label in template: -1.')</title><text x="129.9" y="155.68" class="text-red font" >G</text></g>
<g><title>58 (position.label in template: 60.C')</title><text x="124.37" y="151.2" class="text-black font" >C</text></g>
<g><title>59 (position.label in template: 61.C')</title><text x="116.37" y="151.2" class="text-black font" >C</text></g>
<g><title>60 (position.label in template: 62.U')</title><text x="108.37" y="151.2" class="text-green font" >C</text></g>
<g><title>61 (position.label in template: 63.C')</title><text x="100.37" y="151.2" class="text-green font" >U</text></g>
<g><title>62 (position.label in template: 64.U')</title><text x="92.37" y="151.2" class="text-green font" >C</text></g>
<g><title>63 (position.label in template: 65.C')</title><text x="84.37" y="151.2" class="text-black font" >C</text></g>
<g><title>64 (position.label in template: 66.A')</title><text x="80.37" y="158.2" class="text-black font" >A</text></g>
<g><title>65 (position.label in template: 67.G')</title><text x="76.37" y="151.2" class="text-black font" >G</text></g>
<g><title>66 (position.label in template: 68.C')</title><text x="68.37" y="151.2" class="text-black font" >C</text></g>
<g><title>67 (position.label in template: 69.G')</title><text x="59.7" y="165.75" class="text-blue font" >G</text></g>
<g><title>68 (position.label in template: 73.A')</title><text x="50.87" y="180.2" class="text-green font" >C</text></g>
<g><title>69 (position.label in template: 74.U')</title><text x="50.87" y="188.2" class="text-green font" >C</text></g>
<g><title>70 (position.label in template: -1.')</title><text x="51.84" y="193.7" class="text-red font" >G</text></g>
<g><title>71 (position.label in template: 75.G')</title><text x="50.86" y="199.2" class="text-green font" >A</text></g>
<g><title>72 (position.label in template: 76.G')</title><text x="50.86" y="207.2" class="text-green font" >U</text></g>
<g><title>73 (position.label in template: 77.U')</title><text x="55.19" y="212.88" class="text-green font" >G</text></g>
<g><title>74 (position.label in template: 78.A')</title><text x="57.48" y="219.64" class="text-green font" >G</text></g>
<g><title>75 (position.label in template: -1.')</title><text x="57.46" y="226.78" class="text-red font" >U</text></g>
<g><title>76 (position.label in template: -1.')</title><text x="55.15" y="233.54" class="text-red font" >A</text></g>
<g><title>77 (position.label in template: 79.C')</title><text x="50.8" y="239.2" class="text-black font" >C</text></g>
<g><title>78 (position.label in template: 80.U')</title><text x="50.82" y="247.2" class="text-black font" >U</text></g>
<g><title>79 (position.label in template: 81.G')</title><text x="50.85" y="255.2" class="text-black font" >G</text></g>
<g><title>80 (position.label in template: 82.C')</title><text x="50.87" y="263.2" class="text-black font" >C</text></g>
<g><title>81 (position.label in template: 83.A')</title><text x="50.89" y="271.2" class="text-black font" >A</text></g>
<g><title>82 (position.label in template: 84.U')</title><text x="50.83" y="279.2" class="text-black font" >U</text></g>
<g><title>83 (position.label in template: 85.G')</title><text x="50.81" y="287.2" class="text-black font" >G</text></g>
<g><title>84 (position.label in template: 86.G')</title><text x="50.83" y="295.2" class="text-black font" >G</text></g>
<g><title>85 (position.label in template: 87.G')</title><text x="50.97" y="303.65" class="text-black font" >G</text></g>
<g><title>86 (position.label in template: 88.A')</title><text x="45.06" y="309.69" class="text-black font" >A</text></g>
<g><title>87 (position.label in template: 89.G')</title><text x="36.61" y="309.7" class="text-black font" >G</text></g>
<g><title>88 (position.label in template: 90.A')</title><text x="30.69" y="303.67" class="text-black font" >A</text></g>
<g><title>89 (position.label in template: 91.C')</title><text x="30.83" y="295.2" class="text-black font" >C</text></g>
<g><title>90 (position.label in template: 92.U')</title><text x="30.85" y="287.2" class="text-black font" >U</text></g>
<g><title>91 (position.label in template: 93.G')</title><text x="30.82" y="279.2" class="text-black font" >G</text></g>
<g><title>92 (position.label in template: 94.U')</title><text x="30.89" y="271.2" class="text-black font" >U</text></g>
<g><title>93 (position.label in template: 95.G')</title><text x="30.87" y="263.2" class="text-black font" >G</text></g>
<g><title>94 (position.label in template: 96.U')</title><text x="30.84" y="255.2" class="text-black font" >U</text></g>
<g><title>95 (position.label in template: 97.G')</title><text x="30.86" y="247.2" class="text-black font" >G</text></g>
<g><title>96 (position.label in template: 98.G')</title><text x="30.84" y="239.2" class="text-black font" >G</text></g>
<g><title>97 (position.label in template: 99.G')</title><text x="26.5" y="233.53" class="text-blue font" >G</text></g>
<g><title>98 (position.label in template: 100.A')</title><text x="24.22" y="226.76" class="text-blue font" >A</text></g>
<g><title>99 (position.label in template: -1.')</title><text x="24.23" y="219.62" class="text-red font" >G</text></g>
<g><title>100 (position.label in template: -1.')</title><text x="26.53" y="212.86" class="text-red font" >A</text></g>
<g><title>101 (position.label in template: 101.G')</title><text x="30.88" y="207.2" class="text-green font" >G</text></g>
<g><title>102 (position.label in template: 102.A')</title><text x="30.88" y="199.2" class="text-green font" >U</text></g>
<g><title>103 (position.label in template: -1.')</title><text x="29.9" y="193.7" class="text-red font" >A</text></g>
<g><title>104 (position.label in template: 103.G')</title><text x="30.87" y="188.2" class="text-green font" >G</text></g>
<g><title>105 (position.label in template: 104.U')</title><text x="30.87" y="180.2" class="text-green font" >G</text></g>
<g><title>106 (position.label in template: 108.A')</title><text x="30.44" y="159.65" class="text-green font" >U</text></g>
<g><title>107 (position.label in template: 109.C')</title><text x="30.3" y="139.1" class="text-blue font" >C</text></g>
<g><title>108 (position.label in template: 110.A')</title><text x="30.44" y="118.55" class="text-blue font" >A</text></g>
<g><title>109 (position.label in template: 111.C')</title><text x="30.87" y="98.0" class="text-black font" >C</text></g>
<g><title>110 (position.label in template: 112.C')</title><text x="30.87" y="90.0" class="text-black font" >C</text></g>
<g><title>111 (position.label in template: 113.G')</title><text x="30.87" y="82.0" class="text-black font" >G</text></g>
<g><title>112 (position.label in template: 114.C')</title><text x="30.87" y="74.0" class="text-black font" >C</text></g>
<g><title>113 (position.label in template: 115.C')</title><text x="30.87" y="66.0" class="text-black font" >C</text></g>
<g><title>114 (position.label in template: 116.G')</title><text x="30.87" y="58.0" class="text-black font" >G</text></g>
<g><title>115 (position.label in template: 121.U')</title><text x="30.87" y="50.0" class="text-green font" >G</text></g>
<g><title>116 (position.label in template: -1.')</title><text x="30.87" y="42.0" class="text-red font" >A</text></g>
<g><title>117 (position.label in template: -1.')</title><text x="30.87" y="34.0" class="text-red font" >A</text></g>
<g><title>118 (position.label in template: -1.')</title><text x="30.87" y="26.0" class="text-red font" >C</text></g>
<g><title>119 (position.label in template: -1.')</title><text x="30.87" y="18.0" class="text-red font" >A</text></g>
<g><title>120 (position.label in template: 122.3'')</title><text x="30.87" y="10.0" class="text-green font" >3'</text></g>
</g>
<g class="labels">
<g class="label">
<text x="76.44287173186768" y="92.40612430177524" class="font numbering-label sequential" >10</text>
<line x1="66.40963712505834" y1="101.81040987353086" x2="71.99702696466778" y2="96.57327432237466" class="numbering-line sequential" />
</g><g class="label">
<text x="116.37118826578342" y="112.44797419039088" class="font numbering-label sequential" >20</text>
<line x1="116.37118826578342" y1="126.19956987199845" x2="116.37118826578342" y2="116.61512421099025" class="numbering-line sequential" />
</g><g class="label">
<text x="190.37134051371328" y="112.43997403814296" class="font numbering-label sequential" >30</text>
<line x1="190.37134051371328" y1="126.19156971975053" x2="190.37134051371328" y2="116.60712405874233" class="numbering-line sequential" />
</g><g class="label">
<text x="187.44101367097062" y="171.07592665094393" class="font numbering-label sequential" >50</text>
<line x1="179.68141423610376" y1="159.72273324993023" x2="184.59287977571245" y2="166.90877663034456" class="numbering-line sequential" />
</g><g class="label">
<text x="10.0" y="204.00393483315082" class="font numbering-label sequential" >100</text>
<line x1="22.12089358726351" y1="210.49934262917418" x2="17.500869750976562" y2="208.02354011280158" class="numbering-line sequential" />
</g></g>

</svg>