<svg xmlns="http://www.w3.org/2000/svg" width="300.81" height="249.73">
<style type="text/css" >
<![CDATA[
.font { font-family: Helvetica; font-size: 8.431213px; font-weight: bold;  }
.numbering-line { stroke: rgb(204, 204, 204); stroke-width: 0.527;  }
.bp-line { stroke-width: 1.054;  }
.text-black { fill: rgb(0, 0, 0);  }
.text-red { fill: rgb(255, 0, 255);  }
.text-green { fill: rgb(0, 255, 0);  }
.text-blue { fill: rgb(0, 0, 255);  }
.text-gray { fill: rgb(204, 204, 204);  }
.text-brown { fill: rgb(211.65, 104.55, 30.6);  }
text { element-wise: True; fill: rgb(0, 0, 0); text-anchor: middle; dominant-baseline: middle;  }
.circle-black { stroke: rgb(0, 0, 0); fill: none;  }
.circle-red { stroke: rgb(255, 0, 255); fill: none;  }
.circle-green { stroke: rgb(0, 255, 0); fill: none;  }
.circle-blue { stroke: rgb(0, 0, 255); fill: none;  }
.circle-gray { stroke: rgb(204, 204, 204); fill: none;  }
.circle-brown { stroke: rgb(211.65, 104.55, 30.6); fill: none;  }
.circle { stroke: rgb(0, 0, 0);  }
.numbering-label { fill: rgb(204, 204, 204);  }
.numbering-line { stroke: rgb(204, 204, 204);  }
.template { visibility: hidden;  }
.bp-line { stroke: rgb(0, 0, 0);  }
.residue-circle { fill: rgb(255,255,255);  }
.res-line { stroke: rgb(204, 204, 204);  }
]]>
</style>

<g class="bps"><line x1="98.56" y1="10.0" x2="131.06" y2="10.0" class="bp-line" />
<line x1="98.56" y1="26.67" x2="131.06" y2="26.67" class="bp-line" />
<line x1="98.56" y1="49.11" x2="131.06" y2="49.11" class="bp-line" />
<line x1="98.56" y1="68.56" x2="131.06" y2="68.56" class="bp-line" />
<line x1="98.56" y1="88.0" x2="131.06" y2="88.0" class="bp-line" />
<line x1="77.03" y1="113.71" x2="84.44" y2="147.17" class="bp-line" />
<line x1="57.51" y1="118.04" x2="64.91" y2="151.5" class="bp-line" />
<line x1="37.980000000000004" y1="122.36" x2="45.39" y2="155.82" class="bp-line" />
<line x1="37.980000000000004" y1="122.36" x2="45.39" y2="155.82" class="bp-line" />
<line x1="57.51" y1="118.04" x2="64.91" y2="151.5" class="bp-line" />
<line x1="77.03" y1="113.71" x2="84.44" y2="147.17" class="bp-line" />
<line x1="114.81" y1="161.4" x2="144.27" y2="147.68" class="bp-line" />
<line x1="108.36" y1="177.0" x2="122.49" y2="208.22" class="bp-line" />
<line x1="90.14" y1="185.24" x2="104.26" y2="216.47" class="bp-line" />
<line x1="90.14" y1="185.24" x2="104.26" y2="216.47" class="bp-line" />
<line x1="108.36" y1="177.0" x2="122.49" y2="208.22" class="bp-line" />
<line x1="175.17" y1="183.69" x2="160.37" y2="152.79" class="bp-line" />
<line x1="193.21" y1="175.05" x2="178.4" y2="144.15" class="bp-line" />
<line x1="234.4" y1="155.32" x2="219.6" y2="124.41" class="bp-line" />
<line x1="252.44" y1="146.68" x2="237.64" y2="115.77" class="bp-line" />
<line x1="252.44" y1="146.68" x2="237.64" y2="115.77" class="bp-line" />
<line x1="234.4" y1="155.32" x2="219.6" y2="124.41" class="bp-line" />
<line x1="193.21" y1="175.05" x2="178.4" y2="144.15" class="bp-line" />
<line x1="175.17" y1="183.69" x2="160.37" y2="152.79" class="bp-line" />
<line x1="114.81" y1="161.4" x2="144.27" y2="147.68" class="bp-line" />
<line x1="98.56" y1="88.0" x2="131.06" y2="88.0" class="bp-line" />
<line x1="98.56" y1="68.56" x2="131.06" y2="68.56" class="bp-line" />
<line x1="98.56" y1="49.11" x2="131.06" y2="49.11" class="bp-line" />
<line x1="98.56" y1="26.67" x2="131.06" y2="26.67" class="bp-line" />
<line x1="98.56" y1="10.0" x2="131.06" y2="10.0" class="bp-line" />
</g>
<g class="residues"><line x1="91.56" y1="10.0" x2="98.56" y2="10.0" class="bp-line res-line" />
<line x1="98.56" y1="10.0" x2="98.56" y2="26.67" class="bp-line res-line" />
<line x1="98.56" y1="26.67" x2="94.83" y2="37.89" class="bp-line res-line" />
<line x1="94.83" y1="37.89" x2="98.56" y2="49.11" class="bp-line res-line" />
<line x1="98.56" y1="49.11" x2="98.56" y2="68.56" class="bp-line res-line" />
<line x1="98.56" y1="68.56" x2="98.56" y2="88.0" class="bp-line res-line" />
<line x1="98.56" y1="88.0" x2="84.79" y2="98.8" class="bp-line res-line" />
<line x1="84.79" y1="98.8" x2="77.03" y2="113.71" class="bp-line res-line" />
<line x1="77.03" y1="113.71" x2="57.51" y2="118.04" class="bp-line res-line" />
<line x1="57.51" y1="118.04" x2="37.980000000000004" y2="122.36" class="bp-line res-line" />
<line x1="37.980000000000004" y1="122.36" x2="20.86" y2="124.33" class="bp-line res-line" />
<line x1="20.86" y1="124.33" x2="10.0" y2="138.05" class="bp-line res-line" />
<line x1="10.0" y1="138.05" x2="13.78" y2="155.13" class="bp-line res-line" />
<line x1="13.78" y1="155.13" x2="29.42" y2="162.99" class="bp-line res-line" />
<line x1="29.42" y1="162.99" x2="45.39" y2="155.82" class="bp-line res-line" />
<line x1="45.39" y1="155.82" x2="64.91" y2="151.5" class="bp-line res-line" />
<line x1="64.91" y1="151.5" x2="84.44" y2="147.17" class="bp-line res-line" />
<line x1="84.44" y1="147.17" x2="97.77" y2="157.42" class="bp-line res-line" />
<line x1="97.77" y1="157.42" x2="114.81" y2="161.4" class="bp-line res-line" />
<line x1="114.81" y1="161.4" x2="108.36" y2="177.0" class="bp-line res-line" />
<line x1="108.36" y1="177.0" x2="90.14" y2="185.24" class="bp-line res-line" />
<line x1="90.14" y1="185.24" x2="73.38" y2="187.47" class="bp-line res-line" />
<line x1="73.38" y1="187.47" x2="61.43" y2="200.26" class="bp-line res-line" />
<line x1="61.43" y1="200.26" x2="62.0" y2="217.75" class="bp-line res-line" />
<line x1="62.0" y1="217.75" x2="74.76" y2="229.73" class="bp-line res-line" />
<line x1="74.76" y1="229.73" x2="92.25" y2="229.2" class="bp-line res-line" />
<line x1="92.25" y1="229.2" x2="104.26" y2="216.47" class="bp-line res-line" />
<line x1="104.26" y1="216.47" x2="122.49" y2="208.22" class="bp-line res-line" />
<line x1="122.49" y1="208.22" x2="138.46" y2="213.68" class="bp-line res-line" />
<line x1="138.46" y1="213.68" x2="155.71" y2="210.75" class="bp-line res-line" />
<line x1="155.71" y1="210.75" x2="169.06" y2="199.43" class="bp-line res-line" />
<line x1="169.06" y1="199.43" x2="175.17" y2="183.69" class="bp-line res-line" />
<line x1="175.17" y1="183.69" x2="193.21" y2="175.05" class="bp-line res-line" />
<line x1="193.21" y1="175.05" x2="210.4" y2="178.33" class="bp-line res-line" />
<line x1="210.4" y1="178.33" x2="226.18" y2="170.77" class="bp-line res-line" />
<line x1="226.18" y1="170.77" x2="234.4" y2="155.32" class="bp-line res-line" />
<line x1="234.4" y1="155.32" x2="252.44" y2="146.68" class="bp-line res-line" />
<line x1="252.44" y1="146.68" x2="269.15" y2="144.09" class="bp-line res-line" />
<line x1="269.15" y1="144.09" x2="280.81" y2="131.04000000000002" class="bp-line res-line" />
<line x1="280.81" y1="131.04000000000002" x2="279.86" y2="113.57" class="bp-line res-line" />
<line x1="279.86" y1="113.57" x2="266.84" y2="101.87" class="bp-line res-line" />
<line x1="266.84" y1="101.87" x2="249.36" y2="102.78" class="bp-line res-line" />
<line x1="249.36" y1="102.78" x2="237.64" y2="115.77" class="bp-line res-line" />
<line x1="237.64" y1="115.77" x2="219.6" y2="124.41" class="bp-line res-line" />
<line x1="219.6" y1="124.41" x2="202.41" y2="121.14" class="bp-line res-line" />
<line x1="202.41" y1="121.14" x2="186.63" y2="128.7" class="bp-line res-line" />
<line x1="186.63" y1="128.7" x2="178.4" y2="144.15" class="bp-line res-line" />
<line x1="178.4" y1="144.15" x2="160.37" y2="152.79" class="bp-line res-line" />
<line x1="160.37" y1="152.79" x2="144.27" y2="147.68" class="bp-line res-line" />
<line x1="144.27" y1="147.68" x2="152.2" y2="132.07999999999998" class="bp-line res-line" />
<line x1="152.2" y1="132.07999999999998" x2="152.4" y2="114.58" class="bp-line res-line" />
<line x1="152.4" y1="114.58" x2="144.83" y2="98.8" class="bp-line res-line" />
<line x1="144.83" y1="98.8" x2="131.06" y2="88.0" class="bp-line res-line" />
<line x1="131.06" y1="88.0" x2="131.06" y2="68.56" class="bp-line res-line" />
<line x1="131.06" y1="68.56" x2="131.06" y2="49.11" class="bp-line res-line" />
<line x1="131.06" y1="49.11" x2="134.79000000000002" y2="37.89" class="bp-line res-line" />
<line x1="134.79000000000002" y1="37.89" x2="131.06" y2="26.67" class="bp-line res-line" />
<line x1="131.06" y1="26.67" x2="131.06" y2="10.0" class="bp-line res-line" />
<line x1="131.06" y1="10.0" x2="138.06" y2="10.0" class="bp-line res-line" />
<circle cx="91.56" cy="10.0" class="residue-circle" r="6.32340975"/>
<circle cx="98.56" cy="10.0" class="residue-circle" r="6.32340975"/>
<circle cx="98.56" cy="26.67" class="residue-circle" r="6.32340975"/>
<circle cx="94.83" cy="37.89" class="residue-circle" r="6.32340975"/>
<circle cx="98.56" cy="49.11" class="residue-circle" r="6.32340975"/>
<circle cx="98.56" cy="68.56" class="residue-circle" r="6.32340975"/>
<circle cx="98.56" cy="88.0" class="residue-circle" r="6.32340975"/>
<circle cx="84.79" cy="98.8" class="residue-circle" r="6.32340975"/>
<circle cx="77.03" cy="113.71" class="residue-circle" r="6.32340975"/>
<circle cx="57.51" cy="118.04" class="residue-circle" r="6.32340975"/>
<circle cx="37.980000000000004" cy="122.36" class="residue-circle" r="6.32340975"/>
<circle cx="20.86" cy="124.33" class="residue-circle" r="6.32340975"/>
<circle cx="10.0" cy="138.05" class="residue-circle" r="6.32340975"/>
<circle cx="13.78" cy="155.13" class="residue-circle" r="6.32340975"/>
<circle cx="29.42" cy="162.99" class="residue-circle" r="6.32340975"/>
<circle cx="45.39" cy="155.82" class="residue-circle" r="6.32340975"/>
<circle cx="64.91" cy="151.5" class="residue-circle" r="6.32340975"/>
<circle cx="84.44" cy="147.17" class="residue-circle" r="6.32340975"/>
<circle cx="97.77" cy="157.42" class="residue-circle" r="6.32340975"/>
<circle cx="114.81" cy="161.4" class="residue-circle" r="6.32340975"/>
<circle cx="108.36" cy="177.0" class="residue-circle" r="6.32340975"/>
<circle cx="90.14" cy="185.24" class="residue-circle" r="6.32340975"/>
<circle cx="73.38" cy="187.47" class="residue-circle" r="6.32340975"/>
<circle cx="61.43" cy="200.26" class="residue-circle" r="6.32340975"/>
<circle cx="62.0" cy="217.75" class="residue-circle" r="6.32340975"/>
<circle cx="74.76" cy="229.73" class="residue-circle" r="6.32340975"/>
<circle cx="92.25" cy="229.2" class="residue-circle" r="6.32340975"/>
<circle cx="104.26" cy="216.47" class="residue-circle" r="6.32340975"/>
<circle cx="122.49" cy="208.22" class="residue-circle" r="6.32340975"/>
<circle cx="138.46" cy="213.68" class="residue-circle" r="6.32340975"/>
<circle cx="155.71" cy="210.75" class="residue-circle" r="6.32340975"/>
<circle cx="169.06" cy="199.43" class="residue-circle" r="6.32340975"/>
<circle cx="175.17" cy="183.69" class="residue-circle" r="6.32340975"/>
<circle cx="193.21" cy="175.05" class="residue-circle" r="6.32340975"/>
<circle cx="210.4" cy="178.33" class="residue-circle" r="6.32340975"/>
<circle cx="226.18" cy="170.77" class="residue-circle" r="6.32340975"/>
<circle cx="234.4" cy="155.32" class="residue-circle" r="6.32340975"/>
<circle cx="252.44" cy="146.68" class="residue-circle" r="6.32340975"/>
<circle cx="269.15" cy="144.09" class="residue-circle" r="6.32340975"/>
<circle cx="280.81" cy="131.04000000000002" class="residue-circle" r="6.32340975"/>
<circle cx="279.86" cy="113.57" class="residue-circle" r="6.32340975"/>
<circle cx="266.84" cy="101.87" class="residue-circle" r="6.32340975"/>
<circle cx="249.36" cy="102.78" class="residue-circle" r="6.32340975"/>
<circle cx="237.64" cy="115.77" class="residue-circle" r="6.32340975"/>
<circle cx="219.6" cy="124.41" class="residue-circle" r="6.32340975"/>
<circle cx="202.41" cy="121.14" class="residue-circle" r="6.32340975"/>
<circle cx="186.63" cy="128.7" class="residue-circle" r="6.32340975"/>
<circle cx="178.4" cy="144.15" class="residue-circle" r="6.32340975"/>
<circle cx="160.37" cy="152.79" class="residue-circle" r="6.32340975"/>
<circle cx="144.27" cy="147.68" class="residue-circle" r="6.32340975"/>
<circle cx="152.2" cy="132.07999999999998" class="residue-circle" r="6.32340975"/>
<circle cx="152.4" cy="114.58" class="residue-circle" r="6.32340975"/>
<circle cx="144.83" cy="98.8" class="residue-circle" r="6.32340975"/>
<circle cx="131.06" cy="88.0" class="residue-circle" r="6.32340975"/>
<circle cx="131.06" cy="68.56" class="residue-circle" r="6.32340975"/>
<circle cx="131.06" cy="49.11" class="residue-circle" r="6.32340975"/>
<circle cx="134.79000000000002" cy="37.89" class="residue-circle" r="6.32340975"/>
<circle cx="131.06" cy="26.67" class="residue-circle" r="6.32340975"/>
<circle cx="131.06" cy="10.0" class="residue-circle" r="6.32340975"/>
<circle cx="138.06" cy="10.0" class="residue-circle" r="6.32340975"/>
<g><title>0 (position.label in template: 0.5'')</title><text x="91.56" y="10.0" class="text-green font" >5'</text></g>
<g><title>1 (position.label in template: 1.C')</title><text x="98.56" y="10.0" class="text-black font" >C</text></g>
<g><title>2 (position.label in template: 2.A')</title><text x="98.56" y="26.67" class="text-black font" >A</text></g>
<g><title>3 (position.label in template: 3.U')</title><text x="94.83" y="37.89" class="text-blue font" >U</text></g>
<g><title>4 (position.label in template: -1.')</title><text x="98.56" y="49.11" class="text-red font" >C</text></g>
<g><title>5 (position.label in template: -1.')</title><text x="98.56" y="68.56" class="text-red font" >C</text></g>
<g><title>6 (position.label in template: 4.G')</title><text x="98.56" y="88.0" class="text-black font" >G</text></g>
<g><title>7 (position.label in template: 5.C')</title><text x="84.79" y="98.8" class="text-black font" >C</text></g>
<g><title>8 (position.label in template: 6.A')</title><text x="77.03" y="113.71" class="text-black font" >A</text></g>
<g><title>9 (position.label in template: 7.G')</title><text x="57.51" y="118.04" class="text-black font" >G</text></g>
<g><title>10 (position.label in template: 8.G')</title><text x="37.980000000000004" y="122.36" class="text-black font" >G</text></g>
<g><title>11 (position.label in template: 9.U')</title><text x="20.86" y="124.33" class="text-black font" >U</text></g>
<g><title>12 (position.label in template: 10.G')</title><text x="10.0" y="138.05" class="text-black font" >G</text></g>
<g><title>13 (position.label in template: 11.C')</title><text x="13.78" y="155.13" class="text-black font" >C</text></g>
<g><title>14 (position.label in template: 12.C')</title><text x="29.42" y="162.99" class="text-black font" >C</text></g>
<g><title>15 (position.label in template: 13.C')</title><text x="45.39" y="155.82" class="text-black font" >C</text></g>
<g><title>16 (position.label in template: 14.C')</title><text x="64.91" y="151.5" class="text-black font" >C</text></g>
<g><title>17 (position.label in template: 15.U')</title><text x="84.44" y="147.17" class="text-black font" >U</text></g>
<g><title>18 (position.label in template: 16.A')</title><text x="97.77" y="157.42" class="text-black font" >A</text></g>
<g><title>19 (position.label in template: 17.G')</title><text x="114.81" y="161.4" class="text-black font" >G</text></g>
<g><title>20 (position.label in template: 18.A')</title><text x="108.36" y="177.0" class="text-black font" >A</text></g>
<g><title>21 (position.label in template: 19.A')</title><text x="90.14" y="185.24" class="text-black font" >A</text></g>
<g><title>22 (position.label in template: 20.A')</title><text x="73.38" y="187.47" class="text-black font" >A</text></g>
<g><title>23 (position.label in template: 21.A')</title><text x="61.43" y="200.26" class="text-black font" >A</text></g>
<g><title>24 (position.label in template: 22.A')</title><text x="62.0" y="217.75" class="text-black font" >A</text></g>
<g><title>25 (position.label in template: 23.A')</title><text x="74.76" y="229.73" class="text-black font" >A</text></g>
<g><title>26 (position.label in template: 24.A')</title><text x="92.25" y="229.2" class="text-black font" >A</text></g>
<g><title>27 (position.label in template: 25.U')</title><text x="104.26" y="216.47" class="text-black font" >U</text></g>
<g><title>28 (position.label in template: 26.U')</title><text x="122.49" y="208.22" class="text-black font" >U</text></g>
<g><title>29 (position.label in template: 27.G')</title><text x="138.46" y="213.68" class="text-black font" >G</text></g>
<g><title>30 (position.label in template: 28.U')</title><text x="155.71" y="210.75" class="text-black font" >U</text></g>
<g><title>31 (position.label in template: 29.G')</title><text x="169.06" y="199.43" class="text-black font" >G</text></g>
<g><title>32 (position.label in template: 30.C')</title><text x="175.17" y="183.69" class="text-black font" >C</text></g>
<g><title>33 (position.label in template: 31.C')</title><text x="193.21" y="175.05" class="text-black font" >C</text></g>
<g><title>34 (position.label in template: 32.U')</title><text x="210.4" y="178.33" class="text-black font" >U</text></g>
<g><title>35 (position.label in template: 33.A')</title><text x="226.18" y="170.77" class="text-black font" >A</text></g>
<g><title>36 (position.label in template: 34.G')</title><text x="234.4" y="155.32" class="text-black font" >G</text></g>
<g><title>37 (position.label in template: 35.G')</title><text x="252.44" y="146.68" class="text-black font" >G</text></g>
<g><title>38 (position.label in template: 36.A')</title><text x="269.15" y="144.09" class="text-black font" >A</text></g>
<g><title>39 (position.label in template: 37.C')</title><text x="280.81" y="131.04000000000002" class="text-black font" >C</text></g>
<g><title>40 (position.label in template: 38.C')</title><text x="279.86" y="113.57" class="text-black font" >C</text></g>
<g><title>41 (position.label in template: 39.C')</title><text x="266.84" y="101.87" class="text-black font" >C</text></g>
<g><title>42 (position.label in template: 40.C')</title><text x="249.36" y="102.78" class="text-black font" >C</text></g>
<g><title>43 (position.label in template: 41.C')</title><text x="237.64" y="115.77" class="text-black font" >C</text></g>
<g><title>44 (position.label in template: 42.C')</title><text x="219.6" y="124.41" class="text-black font" >C</text></g>
<g><title>45 (position.label in template: 43.U')</title><text x="202.41" y="121.14" class="text-black font" >U</text></g>
<g><title>46 (position.label in template: 44.G')</title><text x="186.63" y="128.7" class="text-black font" >G</text></g>
<g><title>47 (position.label in template: 45.C')</title><text x="178.4" y="144.15" class="text-black font" >C</text></g>
<g><title>48 (position.label in template: 46.G')</title><text x="160.37" y="152.79" class="text-black font" >G</text></g>
<g><title>49 (position.label in template: 47.C')</title><text x="144.27" y="147.68" class="text-black font" >C</text></g>
<g><title>50 (position.label in template: 48.G')</title><text x="152.2" y="132.07999999999998" class="text-black font" >G</text></g>
<g><title>51 (position.label in template: 49.A')</title><text x="152.4" y="114.58" class="text-black font" >A</text></g>
<g><title>52 (position.label in template: 50.G')</title><text x="144.83" y="98.8" class="text-black font" >G</text></g>
<g><title>53 (position.label in template: 51.G')</title><text x="131.06" y="88.0" class="text-black font" >G</text></g>
<g><title>54 (position.label in template: -1.')</title><text x="131.06" y="68.56" class="text-red font" >G</text></g>
<g><title>55 (position.label in template: -1.')</title><text x="131.06" y="49.11" class="text-red font" >G</text></g>
<g><title>56 (position.label in template: 52.U')</title><text x="134.79000000000002" y="37.89" class="text-blue font" >U</text></g>
<g><title>57 (position.label in template: 53.A')</title><text x="131.06" y="26.67" class="text-black font" >A</text></g>
<g><title>58 (position.label in template: 54.G')</title><text x="131.06" y="10.0" class="text-black font" >G</text></g>
<g><title>59 (position.label in template: 55.3'')</title><text x="138.06" y="10.0" class="text-green font" >3'</text></g>
</g>
<g class="labels">
<g class="label">
<text x="34.768790703882445" y="103.66393352389815" class="font numbering-label sequential" >10</text>
<line x1="37.12227682696077" y1="117.3749130425754" x2="35.49239851253455" y2="107.87954021335128" class="numbering-line sequential" />
</g><g class="label">
<text x="95.17828990366058" y="163.3597591494287" class="font numbering-label sequential" >20</text>
<line x1="104.84618912838718" y1="173.36283771923115" x2="99.25264165050697" y2="167.5753658388818" class="numbering-line sequential" />
</g><g class="label">
<text x="163.72100186652477" y="227.94475654455414" class="font numbering-label sequential" >30</text>
<line x1="157.84897543279018" y1="215.33328708795904" x2="161.75817318903452" y2="223.729149855101" class="numbering-line sequential" />
</g><g class="label">
<text x="170.62273297855094" y="136.5995684294885" class="font numbering-label sequential" >50</text>
<line x1="157.11227941828494" y1="133.28332041569263" x2="165.56400495120718" y2="135.3578635009175" class="numbering-line sequential" />
</g></g>

</svg>